G04 #@! TF.GenerationSoftware,KiCad,Pcbnew,(5.0.1-3-g963ef8bb5)*
G04 #@! TF.CreationDate,2019-03-13T16:51:20+03:00*
G04 #@! TF.ProjectId,sagitta-shield,736167697474612D736869656C642E6B,rev?*
G04 #@! TF.SameCoordinates,Original*
G04 #@! TF.FileFunction,Soldermask,Top*
G04 #@! TF.FilePolarity,Negative*
%FSLAX46Y46*%
G04 Gerber Fmt 4.6, Leading zero omitted, Abs format (unit mm)*
G04 Created by KiCad (PCBNEW (5.0.1-3-g963ef8bb5)) date 2019 March 13, Wednesday 16:51:20*
%MOMM*%
%LPD*%
G01*
G04 APERTURE LIST*
%ADD10C,0.100000*%
G04 APERTURE END LIST*
D10*
G36*
X168550528Y-124649737D02*
X168650411Y-124669605D01*
X168932675Y-124786522D01*
X169186706Y-124956260D01*
X169402742Y-125172296D01*
X169572480Y-125426327D01*
X169689397Y-125708591D01*
X169749001Y-126008241D01*
X169749001Y-126313761D01*
X169689397Y-126613411D01*
X169572480Y-126895675D01*
X169402742Y-127149706D01*
X169186706Y-127365742D01*
X168932675Y-127535480D01*
X168650411Y-127652397D01*
X168550528Y-127672265D01*
X168350763Y-127712001D01*
X168045239Y-127712001D01*
X167845474Y-127672265D01*
X167745591Y-127652397D01*
X167463327Y-127535480D01*
X167209296Y-127365742D01*
X166993260Y-127149706D01*
X166823522Y-126895675D01*
X166706605Y-126613411D01*
X166647001Y-126313761D01*
X166647001Y-126008241D01*
X166706605Y-125708591D01*
X166823522Y-125426327D01*
X166993260Y-125172296D01*
X167209296Y-124956260D01*
X167463327Y-124786522D01*
X167745591Y-124669605D01*
X167845474Y-124649737D01*
X168045239Y-124610001D01*
X168350763Y-124610001D01*
X168550528Y-124649737D01*
X168550528Y-124649737D01*
G37*
G36*
X144420528Y-124649737D02*
X144520411Y-124669605D01*
X144802675Y-124786522D01*
X145056706Y-124956260D01*
X145272742Y-125172296D01*
X145442480Y-125426327D01*
X145559397Y-125708591D01*
X145619001Y-126008241D01*
X145619001Y-126313761D01*
X145559397Y-126613411D01*
X145442480Y-126895675D01*
X145272742Y-127149706D01*
X145056706Y-127365742D01*
X144802675Y-127535480D01*
X144520411Y-127652397D01*
X144420528Y-127672265D01*
X144220763Y-127712001D01*
X143915239Y-127712001D01*
X143715474Y-127672265D01*
X143615591Y-127652397D01*
X143333327Y-127535480D01*
X143079296Y-127365742D01*
X142863260Y-127149706D01*
X142693522Y-126895675D01*
X142576605Y-126613411D01*
X142517001Y-126313761D01*
X142517001Y-126008241D01*
X142576605Y-125708591D01*
X142693522Y-125426327D01*
X142863260Y-125172296D01*
X143079296Y-124956260D01*
X143333327Y-124786522D01*
X143615591Y-124669605D01*
X143715474Y-124649737D01*
X143915239Y-124610001D01*
X144220763Y-124610001D01*
X144420528Y-124649737D01*
X144420528Y-124649737D01*
G37*
G36*
X161343547Y-114178326D02*
X161459286Y-114213435D01*
X161517157Y-114230990D01*
X161538718Y-114242515D01*
X161677155Y-114316511D01*
X161817396Y-114431604D01*
X161932489Y-114571844D01*
X161972298Y-114646321D01*
X162018010Y-114731842D01*
X162035565Y-114789713D01*
X162070674Y-114905452D01*
X162084000Y-115040756D01*
X162084000Y-115591243D01*
X162070674Y-115726548D01*
X162018010Y-115900157D01*
X161932489Y-116060156D01*
X161817396Y-116200396D01*
X161677156Y-116315489D01*
X161658314Y-116325560D01*
X161517158Y-116401010D01*
X161470551Y-116415148D01*
X161343548Y-116453674D01*
X161163000Y-116471456D01*
X160982453Y-116453674D01*
X160855450Y-116415148D01*
X160808843Y-116401010D01*
X160667687Y-116325560D01*
X160648845Y-116315489D01*
X160508605Y-116200396D01*
X160393512Y-116060156D01*
X160353703Y-115985680D01*
X160307990Y-115900158D01*
X160290435Y-115842287D01*
X160255326Y-115726548D01*
X160242000Y-115591244D01*
X160242000Y-115040757D01*
X160255326Y-114905453D01*
X160307990Y-114731844D01*
X160307990Y-114731843D01*
X160339183Y-114673486D01*
X160393511Y-114571845D01*
X160508604Y-114431604D01*
X160648844Y-114316511D01*
X160785685Y-114243368D01*
X160808842Y-114230990D01*
X160866713Y-114213435D01*
X160982452Y-114178326D01*
X161163000Y-114160544D01*
X161343547Y-114178326D01*
X161343547Y-114178326D01*
G37*
G36*
X163883547Y-114178326D02*
X163999286Y-114213435D01*
X164057157Y-114230990D01*
X164078718Y-114242515D01*
X164217155Y-114316511D01*
X164357396Y-114431604D01*
X164472489Y-114571844D01*
X164512298Y-114646321D01*
X164558010Y-114731842D01*
X164575565Y-114789713D01*
X164610674Y-114905452D01*
X164624000Y-115040756D01*
X164624000Y-115591243D01*
X164610674Y-115726548D01*
X164558010Y-115900157D01*
X164472489Y-116060156D01*
X164357396Y-116200396D01*
X164217156Y-116315489D01*
X164198314Y-116325560D01*
X164057158Y-116401010D01*
X164010551Y-116415148D01*
X163883548Y-116453674D01*
X163703000Y-116471456D01*
X163522453Y-116453674D01*
X163395450Y-116415148D01*
X163348843Y-116401010D01*
X163207687Y-116325560D01*
X163188845Y-116315489D01*
X163048605Y-116200396D01*
X162933512Y-116060156D01*
X162893703Y-115985680D01*
X162847990Y-115900158D01*
X162830435Y-115842287D01*
X162795326Y-115726548D01*
X162782000Y-115591244D01*
X162782000Y-115040757D01*
X162795326Y-114905453D01*
X162847990Y-114731844D01*
X162847990Y-114731843D01*
X162879183Y-114673486D01*
X162933511Y-114571845D01*
X163048604Y-114431604D01*
X163188844Y-114316511D01*
X163325685Y-114243368D01*
X163348842Y-114230990D01*
X163406713Y-114213435D01*
X163522452Y-114178326D01*
X163703000Y-114160544D01*
X163883547Y-114178326D01*
X163883547Y-114178326D01*
G37*
G36*
X151818547Y-114178326D02*
X151934286Y-114213435D01*
X151992157Y-114230990D01*
X152013718Y-114242515D01*
X152152155Y-114316511D01*
X152292396Y-114431604D01*
X152407489Y-114571844D01*
X152447298Y-114646321D01*
X152493010Y-114731842D01*
X152510565Y-114789713D01*
X152545674Y-114905452D01*
X152559000Y-115040756D01*
X152559000Y-115591243D01*
X152545674Y-115726548D01*
X152493010Y-115900157D01*
X152407489Y-116060156D01*
X152292396Y-116200396D01*
X152152156Y-116315489D01*
X152133314Y-116325560D01*
X151992158Y-116401010D01*
X151945551Y-116415148D01*
X151818548Y-116453674D01*
X151638000Y-116471456D01*
X151457453Y-116453674D01*
X151330450Y-116415148D01*
X151283843Y-116401010D01*
X151142687Y-116325560D01*
X151123845Y-116315489D01*
X150983605Y-116200396D01*
X150868512Y-116060156D01*
X150828703Y-115985680D01*
X150782990Y-115900158D01*
X150765435Y-115842287D01*
X150730326Y-115726548D01*
X150717000Y-115591244D01*
X150717000Y-115040757D01*
X150730326Y-114905453D01*
X150782990Y-114731844D01*
X150782990Y-114731843D01*
X150814183Y-114673486D01*
X150868511Y-114571845D01*
X150983604Y-114431604D01*
X151123844Y-114316511D01*
X151260685Y-114243368D01*
X151283842Y-114230990D01*
X151341713Y-114213435D01*
X151457452Y-114178326D01*
X151638000Y-114160544D01*
X151818547Y-114178326D01*
X151818547Y-114178326D01*
G37*
G36*
X154358547Y-114178326D02*
X154474286Y-114213435D01*
X154532157Y-114230990D01*
X154553718Y-114242515D01*
X154692155Y-114316511D01*
X154832396Y-114431604D01*
X154947489Y-114571844D01*
X154987298Y-114646321D01*
X155033010Y-114731842D01*
X155050565Y-114789713D01*
X155085674Y-114905452D01*
X155099000Y-115040756D01*
X155099000Y-115591243D01*
X155085674Y-115726548D01*
X155033010Y-115900157D01*
X154947489Y-116060156D01*
X154832396Y-116200396D01*
X154692156Y-116315489D01*
X154673314Y-116325560D01*
X154532158Y-116401010D01*
X154485551Y-116415148D01*
X154358548Y-116453674D01*
X154178000Y-116471456D01*
X153997453Y-116453674D01*
X153870450Y-116415148D01*
X153823843Y-116401010D01*
X153682687Y-116325560D01*
X153663845Y-116315489D01*
X153523605Y-116200396D01*
X153408512Y-116060156D01*
X153368703Y-115985680D01*
X153322990Y-115900158D01*
X153305435Y-115842287D01*
X153270326Y-115726548D01*
X153257000Y-115591244D01*
X153257000Y-115040757D01*
X153270326Y-114905453D01*
X153322990Y-114731844D01*
X153322990Y-114731843D01*
X153354183Y-114673486D01*
X153408511Y-114571845D01*
X153523604Y-114431604D01*
X153663844Y-114316511D01*
X153800685Y-114243368D01*
X153823842Y-114230990D01*
X153881713Y-114213435D01*
X153997452Y-114178326D01*
X154178000Y-114160544D01*
X154358547Y-114178326D01*
X154358547Y-114178326D01*
G37*
G36*
X159402560Y-114168966D02*
X159435383Y-114178923D01*
X159465632Y-114195092D01*
X159492148Y-114216852D01*
X159513908Y-114243368D01*
X159530077Y-114273617D01*
X159540034Y-114306440D01*
X159544000Y-114346712D01*
X159544000Y-116285288D01*
X159540034Y-116325560D01*
X159530077Y-116358383D01*
X159513908Y-116388632D01*
X159492148Y-116415148D01*
X159465632Y-116436908D01*
X159435383Y-116453077D01*
X159402560Y-116463034D01*
X159362288Y-116467000D01*
X157883712Y-116467000D01*
X157843440Y-116463034D01*
X157810617Y-116453077D01*
X157780368Y-116436908D01*
X157753852Y-116415148D01*
X157732092Y-116388632D01*
X157715923Y-116358383D01*
X157705966Y-116325560D01*
X157702000Y-116285288D01*
X157702000Y-114346712D01*
X157705966Y-114306440D01*
X157715923Y-114273617D01*
X157732092Y-114243368D01*
X157753852Y-114216852D01*
X157780368Y-114195092D01*
X157810617Y-114178923D01*
X157843440Y-114168966D01*
X157883712Y-114165000D01*
X159362288Y-114165000D01*
X159402560Y-114168966D01*
X159402560Y-114168966D01*
G37*
G36*
X149877560Y-114168966D02*
X149910383Y-114178923D01*
X149940632Y-114195092D01*
X149967148Y-114216852D01*
X149988908Y-114243368D01*
X150005077Y-114273617D01*
X150015034Y-114306440D01*
X150019000Y-114346712D01*
X150019000Y-116285288D01*
X150015034Y-116325560D01*
X150005077Y-116358383D01*
X149988908Y-116388632D01*
X149967148Y-116415148D01*
X149940632Y-116436908D01*
X149910383Y-116453077D01*
X149877560Y-116463034D01*
X149837288Y-116467000D01*
X148358712Y-116467000D01*
X148318440Y-116463034D01*
X148285617Y-116453077D01*
X148255368Y-116436908D01*
X148228852Y-116415148D01*
X148207092Y-116388632D01*
X148190923Y-116358383D01*
X148180966Y-116325560D01*
X148177000Y-116285288D01*
X148177000Y-114346712D01*
X148180966Y-114306440D01*
X148190923Y-114273617D01*
X148207092Y-114243368D01*
X148228852Y-114216852D01*
X148255368Y-114195092D01*
X148285617Y-114178923D01*
X148318440Y-114168966D01*
X148358712Y-114165000D01*
X149837288Y-114165000D01*
X149877560Y-114168966D01*
X149877560Y-114168966D01*
G37*
G36*
X151818547Y-106558326D02*
X151934286Y-106593435D01*
X151992157Y-106610990D01*
X152013718Y-106622515D01*
X152152155Y-106696511D01*
X152292396Y-106811604D01*
X152407489Y-106951844D01*
X152447298Y-107026321D01*
X152493010Y-107111842D01*
X152510565Y-107169713D01*
X152545674Y-107285452D01*
X152559000Y-107420756D01*
X152559000Y-107971243D01*
X152545674Y-108106548D01*
X152493010Y-108280157D01*
X152407489Y-108440156D01*
X152292396Y-108580396D01*
X152152156Y-108695489D01*
X152133314Y-108705560D01*
X151992158Y-108781010D01*
X151945551Y-108795148D01*
X151818548Y-108833674D01*
X151638000Y-108851456D01*
X151457453Y-108833674D01*
X151330450Y-108795148D01*
X151283843Y-108781010D01*
X151142687Y-108705560D01*
X151123845Y-108695489D01*
X150983605Y-108580396D01*
X150868512Y-108440156D01*
X150828703Y-108365680D01*
X150782990Y-108280158D01*
X150765435Y-108222287D01*
X150730326Y-108106548D01*
X150717000Y-107971244D01*
X150717000Y-107420757D01*
X150730326Y-107285453D01*
X150782990Y-107111844D01*
X150782990Y-107111843D01*
X150814183Y-107053486D01*
X150868511Y-106951845D01*
X150983604Y-106811604D01*
X151123844Y-106696511D01*
X151260685Y-106623368D01*
X151283842Y-106610990D01*
X151341713Y-106593435D01*
X151457452Y-106558326D01*
X151638000Y-106540544D01*
X151818547Y-106558326D01*
X151818547Y-106558326D01*
G37*
G36*
X154358547Y-106558326D02*
X154474286Y-106593435D01*
X154532157Y-106610990D01*
X154553718Y-106622515D01*
X154692155Y-106696511D01*
X154832396Y-106811604D01*
X154947489Y-106951844D01*
X154987298Y-107026321D01*
X155033010Y-107111842D01*
X155050565Y-107169713D01*
X155085674Y-107285452D01*
X155099000Y-107420756D01*
X155099000Y-107971243D01*
X155085674Y-108106548D01*
X155033010Y-108280157D01*
X154947489Y-108440156D01*
X154832396Y-108580396D01*
X154692156Y-108695489D01*
X154673314Y-108705560D01*
X154532158Y-108781010D01*
X154485551Y-108795148D01*
X154358548Y-108833674D01*
X154178000Y-108851456D01*
X153997453Y-108833674D01*
X153870450Y-108795148D01*
X153823843Y-108781010D01*
X153682687Y-108705560D01*
X153663845Y-108695489D01*
X153523605Y-108580396D01*
X153408512Y-108440156D01*
X153368703Y-108365680D01*
X153322990Y-108280158D01*
X153305435Y-108222287D01*
X153270326Y-108106548D01*
X153257000Y-107971244D01*
X153257000Y-107420757D01*
X153270326Y-107285453D01*
X153322990Y-107111844D01*
X153322990Y-107111843D01*
X153354183Y-107053486D01*
X153408511Y-106951845D01*
X153523604Y-106811604D01*
X153663844Y-106696511D01*
X153800685Y-106623368D01*
X153823842Y-106610990D01*
X153881713Y-106593435D01*
X153997452Y-106558326D01*
X154178000Y-106540544D01*
X154358547Y-106558326D01*
X154358547Y-106558326D01*
G37*
G36*
X163883547Y-106558326D02*
X163999286Y-106593435D01*
X164057157Y-106610990D01*
X164078718Y-106622515D01*
X164217155Y-106696511D01*
X164357396Y-106811604D01*
X164472489Y-106951844D01*
X164512298Y-107026321D01*
X164558010Y-107111842D01*
X164575565Y-107169713D01*
X164610674Y-107285452D01*
X164624000Y-107420756D01*
X164624000Y-107971243D01*
X164610674Y-108106548D01*
X164558010Y-108280157D01*
X164472489Y-108440156D01*
X164357396Y-108580396D01*
X164217156Y-108695489D01*
X164198314Y-108705560D01*
X164057158Y-108781010D01*
X164010551Y-108795148D01*
X163883548Y-108833674D01*
X163703000Y-108851456D01*
X163522453Y-108833674D01*
X163395450Y-108795148D01*
X163348843Y-108781010D01*
X163207687Y-108705560D01*
X163188845Y-108695489D01*
X163048605Y-108580396D01*
X162933512Y-108440156D01*
X162893703Y-108365680D01*
X162847990Y-108280158D01*
X162830435Y-108222287D01*
X162795326Y-108106548D01*
X162782000Y-107971244D01*
X162782000Y-107420757D01*
X162795326Y-107285453D01*
X162847990Y-107111844D01*
X162847990Y-107111843D01*
X162879183Y-107053486D01*
X162933511Y-106951845D01*
X163048604Y-106811604D01*
X163188844Y-106696511D01*
X163325685Y-106623368D01*
X163348842Y-106610990D01*
X163406713Y-106593435D01*
X163522452Y-106558326D01*
X163703000Y-106540544D01*
X163883547Y-106558326D01*
X163883547Y-106558326D01*
G37*
G36*
X161343547Y-106558326D02*
X161459286Y-106593435D01*
X161517157Y-106610990D01*
X161538718Y-106622515D01*
X161677155Y-106696511D01*
X161817396Y-106811604D01*
X161932489Y-106951844D01*
X161972298Y-107026321D01*
X162018010Y-107111842D01*
X162035565Y-107169713D01*
X162070674Y-107285452D01*
X162084000Y-107420756D01*
X162084000Y-107971243D01*
X162070674Y-108106548D01*
X162018010Y-108280157D01*
X161932489Y-108440156D01*
X161817396Y-108580396D01*
X161677156Y-108695489D01*
X161658314Y-108705560D01*
X161517158Y-108781010D01*
X161470551Y-108795148D01*
X161343548Y-108833674D01*
X161163000Y-108851456D01*
X160982453Y-108833674D01*
X160855450Y-108795148D01*
X160808843Y-108781010D01*
X160667687Y-108705560D01*
X160648845Y-108695489D01*
X160508605Y-108580396D01*
X160393512Y-108440156D01*
X160353703Y-108365680D01*
X160307990Y-108280158D01*
X160290435Y-108222287D01*
X160255326Y-108106548D01*
X160242000Y-107971244D01*
X160242000Y-107420757D01*
X160255326Y-107285453D01*
X160307990Y-107111844D01*
X160307990Y-107111843D01*
X160339183Y-107053486D01*
X160393511Y-106951845D01*
X160508604Y-106811604D01*
X160648844Y-106696511D01*
X160785685Y-106623368D01*
X160808842Y-106610990D01*
X160866713Y-106593435D01*
X160982452Y-106558326D01*
X161163000Y-106540544D01*
X161343547Y-106558326D01*
X161343547Y-106558326D01*
G37*
G36*
X159402560Y-106548966D02*
X159435383Y-106558923D01*
X159465632Y-106575092D01*
X159492148Y-106596852D01*
X159513908Y-106623368D01*
X159530077Y-106653617D01*
X159540034Y-106686440D01*
X159544000Y-106726712D01*
X159544000Y-108665288D01*
X159540034Y-108705560D01*
X159530077Y-108738383D01*
X159513908Y-108768632D01*
X159492148Y-108795148D01*
X159465632Y-108816908D01*
X159435383Y-108833077D01*
X159402560Y-108843034D01*
X159362288Y-108847000D01*
X157883712Y-108847000D01*
X157843440Y-108843034D01*
X157810617Y-108833077D01*
X157780368Y-108816908D01*
X157753852Y-108795148D01*
X157732092Y-108768632D01*
X157715923Y-108738383D01*
X157705966Y-108705560D01*
X157702000Y-108665288D01*
X157702000Y-106726712D01*
X157705966Y-106686440D01*
X157715923Y-106653617D01*
X157732092Y-106623368D01*
X157753852Y-106596852D01*
X157780368Y-106575092D01*
X157810617Y-106558923D01*
X157843440Y-106548966D01*
X157883712Y-106545000D01*
X159362288Y-106545000D01*
X159402560Y-106548966D01*
X159402560Y-106548966D01*
G37*
G36*
X149877560Y-106548966D02*
X149910383Y-106558923D01*
X149940632Y-106575092D01*
X149967148Y-106596852D01*
X149988908Y-106623368D01*
X150005077Y-106653617D01*
X150015034Y-106686440D01*
X150019000Y-106726712D01*
X150019000Y-108665288D01*
X150015034Y-108705560D01*
X150005077Y-108738383D01*
X149988908Y-108768632D01*
X149967148Y-108795148D01*
X149940632Y-108816908D01*
X149910383Y-108833077D01*
X149877560Y-108843034D01*
X149837288Y-108847000D01*
X148358712Y-108847000D01*
X148318440Y-108843034D01*
X148285617Y-108833077D01*
X148255368Y-108816908D01*
X148228852Y-108795148D01*
X148207092Y-108768632D01*
X148190923Y-108738383D01*
X148180966Y-108705560D01*
X148177000Y-108665288D01*
X148177000Y-106726712D01*
X148180966Y-106686440D01*
X148190923Y-106653617D01*
X148207092Y-106623368D01*
X148228852Y-106596852D01*
X148255368Y-106575092D01*
X148285617Y-106558923D01*
X148318440Y-106548966D01*
X148358712Y-106545000D01*
X149837288Y-106545000D01*
X149877560Y-106548966D01*
X149877560Y-106548966D01*
G37*
G36*
X169740071Y-107375093D02*
X167938071Y-107375093D01*
X167938071Y-105573093D01*
X169740071Y-105573093D01*
X169740071Y-107375093D01*
X169740071Y-107375093D01*
G37*
G36*
X144340071Y-107375093D02*
X142538071Y-107375093D01*
X142538071Y-105573093D01*
X144340071Y-105573093D01*
X144340071Y-107375093D01*
X144340071Y-107375093D01*
G37*
G36*
X168949513Y-103039611D02*
X169015698Y-103046130D01*
X169128924Y-103080477D01*
X169185538Y-103097650D01*
X169324158Y-103171745D01*
X169342062Y-103181315D01*
X169377800Y-103210645D01*
X169479257Y-103293907D01*
X169562519Y-103395364D01*
X169591849Y-103431102D01*
X169591850Y-103431104D01*
X169675514Y-103587626D01*
X169675514Y-103587627D01*
X169727034Y-103757466D01*
X169744430Y-103934093D01*
X169727034Y-104110720D01*
X169692687Y-104223946D01*
X169675514Y-104280560D01*
X169601419Y-104419180D01*
X169591849Y-104437084D01*
X169562519Y-104472822D01*
X169479257Y-104574279D01*
X169377800Y-104657541D01*
X169342062Y-104686871D01*
X169342060Y-104686872D01*
X169185538Y-104770536D01*
X169128924Y-104787709D01*
X169015698Y-104822056D01*
X168949513Y-104828575D01*
X168883331Y-104835093D01*
X168794811Y-104835093D01*
X168728629Y-104828575D01*
X168662444Y-104822056D01*
X168549218Y-104787709D01*
X168492604Y-104770536D01*
X168336082Y-104686872D01*
X168336080Y-104686871D01*
X168300342Y-104657541D01*
X168198885Y-104574279D01*
X168115623Y-104472822D01*
X168086293Y-104437084D01*
X168076723Y-104419180D01*
X168002628Y-104280560D01*
X167985455Y-104223946D01*
X167951108Y-104110720D01*
X167933712Y-103934093D01*
X167951108Y-103757466D01*
X168002628Y-103587627D01*
X168002628Y-103587626D01*
X168086292Y-103431104D01*
X168086293Y-103431102D01*
X168115623Y-103395364D01*
X168198885Y-103293907D01*
X168300342Y-103210645D01*
X168336080Y-103181315D01*
X168353984Y-103171745D01*
X168492604Y-103097650D01*
X168549218Y-103080477D01*
X168662444Y-103046130D01*
X168728629Y-103039611D01*
X168794811Y-103033093D01*
X168883331Y-103033093D01*
X168949513Y-103039611D01*
X168949513Y-103039611D01*
G37*
G36*
X143549513Y-103039611D02*
X143615698Y-103046130D01*
X143728924Y-103080477D01*
X143785538Y-103097650D01*
X143924158Y-103171745D01*
X143942062Y-103181315D01*
X143977800Y-103210645D01*
X144079257Y-103293907D01*
X144162519Y-103395364D01*
X144191849Y-103431102D01*
X144191850Y-103431104D01*
X144275514Y-103587626D01*
X144275514Y-103587627D01*
X144327034Y-103757466D01*
X144344430Y-103934093D01*
X144327034Y-104110720D01*
X144292687Y-104223946D01*
X144275514Y-104280560D01*
X144201419Y-104419180D01*
X144191849Y-104437084D01*
X144162519Y-104472822D01*
X144079257Y-104574279D01*
X143977800Y-104657541D01*
X143942062Y-104686871D01*
X143942060Y-104686872D01*
X143785538Y-104770536D01*
X143728924Y-104787709D01*
X143615698Y-104822056D01*
X143549513Y-104828575D01*
X143483331Y-104835093D01*
X143394811Y-104835093D01*
X143328629Y-104828575D01*
X143262444Y-104822056D01*
X143149218Y-104787709D01*
X143092604Y-104770536D01*
X142936082Y-104686872D01*
X142936080Y-104686871D01*
X142900342Y-104657541D01*
X142798885Y-104574279D01*
X142715623Y-104472822D01*
X142686293Y-104437084D01*
X142676723Y-104419180D01*
X142602628Y-104280560D01*
X142585455Y-104223946D01*
X142551108Y-104110720D01*
X142533712Y-103934093D01*
X142551108Y-103757466D01*
X142602628Y-103587627D01*
X142602628Y-103587626D01*
X142686292Y-103431104D01*
X142686293Y-103431102D01*
X142715623Y-103395364D01*
X142798885Y-103293907D01*
X142900342Y-103210645D01*
X142936080Y-103181315D01*
X142953984Y-103171745D01*
X143092604Y-103097650D01*
X143149218Y-103080477D01*
X143262444Y-103046130D01*
X143328629Y-103039611D01*
X143394811Y-103033093D01*
X143483331Y-103033093D01*
X143549513Y-103039611D01*
X143549513Y-103039611D01*
G37*
G36*
X143549514Y-100499612D02*
X143615698Y-100506130D01*
X143728924Y-100540477D01*
X143785538Y-100557650D01*
X143924158Y-100631745D01*
X143942062Y-100641315D01*
X143977800Y-100670645D01*
X144079257Y-100753907D01*
X144162519Y-100855364D01*
X144191849Y-100891102D01*
X144191850Y-100891104D01*
X144275514Y-101047626D01*
X144275514Y-101047627D01*
X144327034Y-101217466D01*
X144344430Y-101394093D01*
X144327034Y-101570720D01*
X144292687Y-101683946D01*
X144275514Y-101740560D01*
X144201419Y-101879180D01*
X144191849Y-101897084D01*
X144162519Y-101932822D01*
X144079257Y-102034279D01*
X143977800Y-102117541D01*
X143942062Y-102146871D01*
X143942060Y-102146872D01*
X143785538Y-102230536D01*
X143728924Y-102247709D01*
X143615698Y-102282056D01*
X143549513Y-102288575D01*
X143483331Y-102295093D01*
X143394811Y-102295093D01*
X143328629Y-102288575D01*
X143262444Y-102282056D01*
X143149218Y-102247709D01*
X143092604Y-102230536D01*
X142936082Y-102146872D01*
X142936080Y-102146871D01*
X142900342Y-102117541D01*
X142798885Y-102034279D01*
X142715623Y-101932822D01*
X142686293Y-101897084D01*
X142676723Y-101879180D01*
X142602628Y-101740560D01*
X142585455Y-101683946D01*
X142551108Y-101570720D01*
X142533712Y-101394093D01*
X142551108Y-101217466D01*
X142602628Y-101047627D01*
X142602628Y-101047626D01*
X142686292Y-100891104D01*
X142686293Y-100891102D01*
X142715623Y-100855364D01*
X142798885Y-100753907D01*
X142900342Y-100670645D01*
X142936080Y-100641315D01*
X142953984Y-100631745D01*
X143092604Y-100557650D01*
X143149218Y-100540477D01*
X143262444Y-100506130D01*
X143328628Y-100499612D01*
X143394811Y-100493093D01*
X143483331Y-100493093D01*
X143549514Y-100499612D01*
X143549514Y-100499612D01*
G37*
G36*
X168949514Y-100499612D02*
X169015698Y-100506130D01*
X169128924Y-100540477D01*
X169185538Y-100557650D01*
X169324158Y-100631745D01*
X169342062Y-100641315D01*
X169377800Y-100670645D01*
X169479257Y-100753907D01*
X169562519Y-100855364D01*
X169591849Y-100891102D01*
X169591850Y-100891104D01*
X169675514Y-101047626D01*
X169675514Y-101047627D01*
X169727034Y-101217466D01*
X169744430Y-101394093D01*
X169727034Y-101570720D01*
X169692687Y-101683946D01*
X169675514Y-101740560D01*
X169601419Y-101879180D01*
X169591849Y-101897084D01*
X169562519Y-101932822D01*
X169479257Y-102034279D01*
X169377800Y-102117541D01*
X169342062Y-102146871D01*
X169342060Y-102146872D01*
X169185538Y-102230536D01*
X169128924Y-102247709D01*
X169015698Y-102282056D01*
X168949513Y-102288575D01*
X168883331Y-102295093D01*
X168794811Y-102295093D01*
X168728629Y-102288575D01*
X168662444Y-102282056D01*
X168549218Y-102247709D01*
X168492604Y-102230536D01*
X168336082Y-102146872D01*
X168336080Y-102146871D01*
X168300342Y-102117541D01*
X168198885Y-102034279D01*
X168115623Y-101932822D01*
X168086293Y-101897084D01*
X168076723Y-101879180D01*
X168002628Y-101740560D01*
X167985455Y-101683946D01*
X167951108Y-101570720D01*
X167933712Y-101394093D01*
X167951108Y-101217466D01*
X168002628Y-101047627D01*
X168002628Y-101047626D01*
X168086292Y-100891104D01*
X168086293Y-100891102D01*
X168115623Y-100855364D01*
X168198885Y-100753907D01*
X168300342Y-100670645D01*
X168336080Y-100641315D01*
X168353984Y-100631745D01*
X168492604Y-100557650D01*
X168549218Y-100540477D01*
X168662444Y-100506130D01*
X168728628Y-100499612D01*
X168794811Y-100493093D01*
X168883331Y-100493093D01*
X168949514Y-100499612D01*
X168949514Y-100499612D01*
G37*
G36*
X162613548Y-97668326D02*
X162729287Y-97703435D01*
X162787158Y-97720990D01*
X162810315Y-97733368D01*
X162947156Y-97806511D01*
X163087396Y-97921604D01*
X163202489Y-98061844D01*
X163288010Y-98221843D01*
X163340674Y-98395452D01*
X163354000Y-98530757D01*
X163354000Y-99081244D01*
X163340674Y-99216548D01*
X163305565Y-99332287D01*
X163288010Y-99390158D01*
X163242298Y-99475679D01*
X163202489Y-99550156D01*
X163087396Y-99690396D01*
X162947155Y-99805489D01*
X162845514Y-99859817D01*
X162787157Y-99891010D01*
X162740550Y-99905148D01*
X162613547Y-99943674D01*
X162433000Y-99961456D01*
X162252452Y-99943674D01*
X162125449Y-99905148D01*
X162078842Y-99891010D01*
X161937686Y-99815560D01*
X161918844Y-99805489D01*
X161778604Y-99690396D01*
X161663511Y-99550155D01*
X161577991Y-99390158D01*
X161577990Y-99390157D01*
X161560435Y-99332286D01*
X161525326Y-99216547D01*
X161512000Y-99081243D01*
X161512000Y-98530756D01*
X161525326Y-98395452D01*
X161577990Y-98221843D01*
X161577990Y-98221842D01*
X161663513Y-98061843D01*
X161699782Y-98017650D01*
X161778605Y-97921604D01*
X161918845Y-97806511D01*
X162055686Y-97733368D01*
X162078843Y-97720990D01*
X162136714Y-97703435D01*
X162252453Y-97668326D01*
X162433000Y-97650544D01*
X162613548Y-97668326D01*
X162613548Y-97668326D01*
G37*
G36*
X165752560Y-97658966D02*
X165785383Y-97668923D01*
X165815632Y-97685092D01*
X165842148Y-97706852D01*
X165863908Y-97733368D01*
X165880077Y-97763617D01*
X165890034Y-97796440D01*
X165894000Y-97836712D01*
X165894000Y-99775288D01*
X165890034Y-99815560D01*
X165880077Y-99848383D01*
X165863908Y-99878632D01*
X165842148Y-99905148D01*
X165815632Y-99926908D01*
X165785383Y-99943077D01*
X165752560Y-99953034D01*
X165712288Y-99957000D01*
X164233712Y-99957000D01*
X164193440Y-99953034D01*
X164160617Y-99943077D01*
X164130368Y-99926908D01*
X164103852Y-99905148D01*
X164082092Y-99878632D01*
X164065923Y-99848383D01*
X164055966Y-99815560D01*
X164052000Y-99775288D01*
X164052000Y-97836712D01*
X164055966Y-97796440D01*
X164065923Y-97763617D01*
X164082092Y-97733368D01*
X164103852Y-97706852D01*
X164130368Y-97685092D01*
X164160617Y-97668923D01*
X164193440Y-97658966D01*
X164233712Y-97655000D01*
X165712288Y-97655000D01*
X165752560Y-97658966D01*
X165752560Y-97658966D01*
G37*
G36*
X143549513Y-97959611D02*
X143615698Y-97966130D01*
X143728924Y-98000477D01*
X143785538Y-98017650D01*
X143868216Y-98061843D01*
X143942062Y-98101315D01*
X143977800Y-98130645D01*
X144079257Y-98213907D01*
X144162519Y-98315364D01*
X144191849Y-98351102D01*
X144191850Y-98351104D01*
X144275514Y-98507626D01*
X144292687Y-98564240D01*
X144327034Y-98677466D01*
X144344430Y-98854093D01*
X144327034Y-99030720D01*
X144311707Y-99081245D01*
X144275514Y-99200560D01*
X144266968Y-99216548D01*
X144191849Y-99357084D01*
X144164707Y-99390156D01*
X144079257Y-99494279D01*
X144011168Y-99550157D01*
X143942062Y-99606871D01*
X143942060Y-99606872D01*
X143785538Y-99690536D01*
X143728924Y-99707709D01*
X143615698Y-99742056D01*
X143549514Y-99748574D01*
X143483331Y-99755093D01*
X143394811Y-99755093D01*
X143328628Y-99748574D01*
X143262444Y-99742056D01*
X143149218Y-99707709D01*
X143092604Y-99690536D01*
X142936082Y-99606872D01*
X142936080Y-99606871D01*
X142866974Y-99550157D01*
X142798885Y-99494279D01*
X142713435Y-99390156D01*
X142686293Y-99357084D01*
X142611174Y-99216548D01*
X142602628Y-99200560D01*
X142566435Y-99081245D01*
X142551108Y-99030720D01*
X142533712Y-98854093D01*
X142551108Y-98677466D01*
X142585455Y-98564240D01*
X142602628Y-98507626D01*
X142686292Y-98351104D01*
X142686293Y-98351102D01*
X142715623Y-98315364D01*
X142798885Y-98213907D01*
X142900342Y-98130645D01*
X142936080Y-98101315D01*
X143009926Y-98061843D01*
X143092604Y-98017650D01*
X143149218Y-98000477D01*
X143262444Y-97966130D01*
X143328629Y-97959611D01*
X143394811Y-97953093D01*
X143483331Y-97953093D01*
X143549513Y-97959611D01*
X143549513Y-97959611D01*
G37*
G36*
X168949513Y-97959611D02*
X169015698Y-97966130D01*
X169128924Y-98000477D01*
X169185538Y-98017650D01*
X169268216Y-98061843D01*
X169342062Y-98101315D01*
X169377800Y-98130645D01*
X169479257Y-98213907D01*
X169562519Y-98315364D01*
X169591849Y-98351102D01*
X169591850Y-98351104D01*
X169675514Y-98507626D01*
X169692687Y-98564240D01*
X169727034Y-98677466D01*
X169744430Y-98854093D01*
X169727034Y-99030720D01*
X169711707Y-99081245D01*
X169675514Y-99200560D01*
X169666968Y-99216548D01*
X169591849Y-99357084D01*
X169564707Y-99390156D01*
X169479257Y-99494279D01*
X169411168Y-99550157D01*
X169342062Y-99606871D01*
X169342060Y-99606872D01*
X169185538Y-99690536D01*
X169128924Y-99707709D01*
X169015698Y-99742056D01*
X168949514Y-99748574D01*
X168883331Y-99755093D01*
X168794811Y-99755093D01*
X168728628Y-99748574D01*
X168662444Y-99742056D01*
X168549218Y-99707709D01*
X168492604Y-99690536D01*
X168336082Y-99606872D01*
X168336080Y-99606871D01*
X168266974Y-99550157D01*
X168198885Y-99494279D01*
X168113435Y-99390156D01*
X168086293Y-99357084D01*
X168011174Y-99216548D01*
X168002628Y-99200560D01*
X167966435Y-99081245D01*
X167951108Y-99030720D01*
X167933712Y-98854093D01*
X167951108Y-98677466D01*
X167985455Y-98564240D01*
X168002628Y-98507626D01*
X168086292Y-98351104D01*
X168086293Y-98351102D01*
X168115623Y-98315364D01*
X168198885Y-98213907D01*
X168300342Y-98130645D01*
X168336080Y-98101315D01*
X168409926Y-98061843D01*
X168492604Y-98017650D01*
X168549218Y-98000477D01*
X168662444Y-97966130D01*
X168728629Y-97959611D01*
X168794811Y-97953093D01*
X168883331Y-97953093D01*
X168949513Y-97959611D01*
X168949513Y-97959611D01*
G37*
G36*
X143549513Y-95419611D02*
X143615698Y-95426130D01*
X143728924Y-95460477D01*
X143785538Y-95477650D01*
X143924158Y-95551745D01*
X143942062Y-95561315D01*
X143977800Y-95590645D01*
X144079257Y-95673907D01*
X144162519Y-95775364D01*
X144191849Y-95811102D01*
X144191850Y-95811104D01*
X144275514Y-95967626D01*
X144275514Y-95967627D01*
X144327034Y-96137466D01*
X144344430Y-96314093D01*
X144327034Y-96490720D01*
X144292687Y-96603946D01*
X144275514Y-96660560D01*
X144201419Y-96799180D01*
X144191849Y-96817084D01*
X144162519Y-96852822D01*
X144079257Y-96954279D01*
X143977800Y-97037541D01*
X143942062Y-97066871D01*
X143942060Y-97066872D01*
X143785538Y-97150536D01*
X143728924Y-97167709D01*
X143615698Y-97202056D01*
X143549513Y-97208575D01*
X143483331Y-97215093D01*
X143394811Y-97215093D01*
X143328629Y-97208575D01*
X143262444Y-97202056D01*
X143149218Y-97167709D01*
X143092604Y-97150536D01*
X142936082Y-97066872D01*
X142936080Y-97066871D01*
X142900342Y-97037541D01*
X142798885Y-96954279D01*
X142715623Y-96852822D01*
X142686293Y-96817084D01*
X142676723Y-96799180D01*
X142602628Y-96660560D01*
X142585455Y-96603946D01*
X142551108Y-96490720D01*
X142533712Y-96314093D01*
X142551108Y-96137466D01*
X142602628Y-95967627D01*
X142602628Y-95967626D01*
X142686292Y-95811104D01*
X142686293Y-95811102D01*
X142715623Y-95775364D01*
X142798885Y-95673907D01*
X142900342Y-95590645D01*
X142936080Y-95561315D01*
X142953984Y-95551745D01*
X143092604Y-95477650D01*
X143149218Y-95460477D01*
X143262444Y-95426130D01*
X143328629Y-95419611D01*
X143394811Y-95413093D01*
X143483331Y-95413093D01*
X143549513Y-95419611D01*
X143549513Y-95419611D01*
G37*
G36*
X168949513Y-95419611D02*
X169015698Y-95426130D01*
X169128924Y-95460477D01*
X169185538Y-95477650D01*
X169324158Y-95551745D01*
X169342062Y-95561315D01*
X169377800Y-95590645D01*
X169479257Y-95673907D01*
X169562519Y-95775364D01*
X169591849Y-95811102D01*
X169591850Y-95811104D01*
X169675514Y-95967626D01*
X169675514Y-95967627D01*
X169727034Y-96137466D01*
X169744430Y-96314093D01*
X169727034Y-96490720D01*
X169692687Y-96603946D01*
X169675514Y-96660560D01*
X169601419Y-96799180D01*
X169591849Y-96817084D01*
X169562519Y-96852822D01*
X169479257Y-96954279D01*
X169377800Y-97037541D01*
X169342062Y-97066871D01*
X169342060Y-97066872D01*
X169185538Y-97150536D01*
X169128924Y-97167709D01*
X169015698Y-97202056D01*
X168949513Y-97208575D01*
X168883331Y-97215093D01*
X168794811Y-97215093D01*
X168728629Y-97208575D01*
X168662444Y-97202056D01*
X168549218Y-97167709D01*
X168492604Y-97150536D01*
X168336082Y-97066872D01*
X168336080Y-97066871D01*
X168300342Y-97037541D01*
X168198885Y-96954279D01*
X168115623Y-96852822D01*
X168086293Y-96817084D01*
X168076723Y-96799180D01*
X168002628Y-96660560D01*
X167985455Y-96603946D01*
X167951108Y-96490720D01*
X167933712Y-96314093D01*
X167951108Y-96137466D01*
X168002628Y-95967627D01*
X168002628Y-95967626D01*
X168086292Y-95811104D01*
X168086293Y-95811102D01*
X168115623Y-95775364D01*
X168198885Y-95673907D01*
X168300342Y-95590645D01*
X168336080Y-95561315D01*
X168353984Y-95551745D01*
X168492604Y-95477650D01*
X168549218Y-95460477D01*
X168662444Y-95426130D01*
X168728629Y-95419611D01*
X168794811Y-95413093D01*
X168883331Y-95413093D01*
X168949513Y-95419611D01*
X168949513Y-95419611D01*
G37*
G36*
X168949514Y-92879612D02*
X169015698Y-92886130D01*
X169128924Y-92920477D01*
X169185538Y-92937650D01*
X169324158Y-93011745D01*
X169342062Y-93021315D01*
X169377800Y-93050645D01*
X169479257Y-93133907D01*
X169562519Y-93235364D01*
X169591849Y-93271102D01*
X169591850Y-93271104D01*
X169675514Y-93427626D01*
X169675514Y-93427627D01*
X169727034Y-93597466D01*
X169744430Y-93774093D01*
X169727034Y-93950720D01*
X169692687Y-94063946D01*
X169675514Y-94120560D01*
X169601419Y-94259180D01*
X169591849Y-94277084D01*
X169562519Y-94312822D01*
X169479257Y-94414279D01*
X169377800Y-94497541D01*
X169342062Y-94526871D01*
X169342060Y-94526872D01*
X169185538Y-94610536D01*
X169128924Y-94627709D01*
X169015698Y-94662056D01*
X168949514Y-94668574D01*
X168883331Y-94675093D01*
X168794811Y-94675093D01*
X168728629Y-94668575D01*
X168662444Y-94662056D01*
X168549218Y-94627709D01*
X168492604Y-94610536D01*
X168336082Y-94526872D01*
X168336080Y-94526871D01*
X168300342Y-94497541D01*
X168198885Y-94414279D01*
X168115623Y-94312822D01*
X168086293Y-94277084D01*
X168076723Y-94259180D01*
X168002628Y-94120560D01*
X167985455Y-94063946D01*
X167951108Y-93950720D01*
X167933712Y-93774093D01*
X167951108Y-93597466D01*
X168002628Y-93427627D01*
X168002628Y-93427626D01*
X168086292Y-93271104D01*
X168086293Y-93271102D01*
X168115623Y-93235364D01*
X168198885Y-93133907D01*
X168300342Y-93050645D01*
X168336080Y-93021315D01*
X168353984Y-93011745D01*
X168492604Y-92937650D01*
X168549218Y-92920477D01*
X168662444Y-92886130D01*
X168728628Y-92879612D01*
X168794811Y-92873093D01*
X168883331Y-92873093D01*
X168949514Y-92879612D01*
X168949514Y-92879612D01*
G37*
G36*
X143549514Y-92879612D02*
X143615698Y-92886130D01*
X143728924Y-92920477D01*
X143785538Y-92937650D01*
X143924158Y-93011745D01*
X143942062Y-93021315D01*
X143977800Y-93050645D01*
X144079257Y-93133907D01*
X144162519Y-93235364D01*
X144191849Y-93271102D01*
X144191850Y-93271104D01*
X144275514Y-93427626D01*
X144275514Y-93427627D01*
X144327034Y-93597466D01*
X144344430Y-93774093D01*
X144327034Y-93950720D01*
X144292687Y-94063946D01*
X144275514Y-94120560D01*
X144201419Y-94259180D01*
X144191849Y-94277084D01*
X144162519Y-94312822D01*
X144079257Y-94414279D01*
X143977800Y-94497541D01*
X143942062Y-94526871D01*
X143942060Y-94526872D01*
X143785538Y-94610536D01*
X143728924Y-94627709D01*
X143615698Y-94662056D01*
X143549514Y-94668574D01*
X143483331Y-94675093D01*
X143394811Y-94675093D01*
X143328629Y-94668575D01*
X143262444Y-94662056D01*
X143149218Y-94627709D01*
X143092604Y-94610536D01*
X142936082Y-94526872D01*
X142936080Y-94526871D01*
X142900342Y-94497541D01*
X142798885Y-94414279D01*
X142715623Y-94312822D01*
X142686293Y-94277084D01*
X142676723Y-94259180D01*
X142602628Y-94120560D01*
X142585455Y-94063946D01*
X142551108Y-93950720D01*
X142533712Y-93774093D01*
X142551108Y-93597466D01*
X142602628Y-93427627D01*
X142602628Y-93427626D01*
X142686292Y-93271104D01*
X142686293Y-93271102D01*
X142715623Y-93235364D01*
X142798885Y-93133907D01*
X142900342Y-93050645D01*
X142936080Y-93021315D01*
X142953984Y-93011745D01*
X143092604Y-92937650D01*
X143149218Y-92920477D01*
X143262444Y-92886130D01*
X143328628Y-92879612D01*
X143394811Y-92873093D01*
X143483331Y-92873093D01*
X143549514Y-92879612D01*
X143549514Y-92879612D01*
G37*
G36*
X143549513Y-90339611D02*
X143615698Y-90346130D01*
X143728924Y-90380477D01*
X143785538Y-90397650D01*
X143924158Y-90471745D01*
X143942062Y-90481315D01*
X143977800Y-90510645D01*
X144079257Y-90593907D01*
X144162519Y-90695364D01*
X144191849Y-90731102D01*
X144191850Y-90731104D01*
X144275514Y-90887626D01*
X144275514Y-90887627D01*
X144327034Y-91057466D01*
X144344430Y-91234093D01*
X144327034Y-91410720D01*
X144292687Y-91523946D01*
X144275514Y-91580560D01*
X144201419Y-91719180D01*
X144191849Y-91737084D01*
X144162519Y-91772822D01*
X144079257Y-91874279D01*
X143977800Y-91957541D01*
X143942062Y-91986871D01*
X143942060Y-91986872D01*
X143785538Y-92070536D01*
X143728924Y-92087709D01*
X143615698Y-92122056D01*
X143549514Y-92128574D01*
X143483331Y-92135093D01*
X143394811Y-92135093D01*
X143328628Y-92128574D01*
X143262444Y-92122056D01*
X143149218Y-92087709D01*
X143092604Y-92070536D01*
X142936082Y-91986872D01*
X142936080Y-91986871D01*
X142900342Y-91957541D01*
X142798885Y-91874279D01*
X142715623Y-91772822D01*
X142686293Y-91737084D01*
X142676723Y-91719180D01*
X142602628Y-91580560D01*
X142585455Y-91523946D01*
X142551108Y-91410720D01*
X142533712Y-91234093D01*
X142551108Y-91057466D01*
X142602628Y-90887627D01*
X142602628Y-90887626D01*
X142686292Y-90731104D01*
X142686293Y-90731102D01*
X142715623Y-90695364D01*
X142798885Y-90593907D01*
X142900342Y-90510645D01*
X142936080Y-90481315D01*
X142953984Y-90471745D01*
X143092604Y-90397650D01*
X143149218Y-90380477D01*
X143262444Y-90346130D01*
X143328629Y-90339611D01*
X143394811Y-90333093D01*
X143483331Y-90333093D01*
X143549513Y-90339611D01*
X143549513Y-90339611D01*
G37*
G36*
X168949513Y-90339611D02*
X169015698Y-90346130D01*
X169128924Y-90380477D01*
X169185538Y-90397650D01*
X169324158Y-90471745D01*
X169342062Y-90481315D01*
X169377800Y-90510645D01*
X169479257Y-90593907D01*
X169562519Y-90695364D01*
X169591849Y-90731102D01*
X169591850Y-90731104D01*
X169675514Y-90887626D01*
X169675514Y-90887627D01*
X169727034Y-91057466D01*
X169744430Y-91234093D01*
X169727034Y-91410720D01*
X169692687Y-91523946D01*
X169675514Y-91580560D01*
X169601419Y-91719180D01*
X169591849Y-91737084D01*
X169562519Y-91772822D01*
X169479257Y-91874279D01*
X169377800Y-91957541D01*
X169342062Y-91986871D01*
X169342060Y-91986872D01*
X169185538Y-92070536D01*
X169128924Y-92087709D01*
X169015698Y-92122056D01*
X168949514Y-92128574D01*
X168883331Y-92135093D01*
X168794811Y-92135093D01*
X168728628Y-92128574D01*
X168662444Y-92122056D01*
X168549218Y-92087709D01*
X168492604Y-92070536D01*
X168336082Y-91986872D01*
X168336080Y-91986871D01*
X168300342Y-91957541D01*
X168198885Y-91874279D01*
X168115623Y-91772822D01*
X168086293Y-91737084D01*
X168076723Y-91719180D01*
X168002628Y-91580560D01*
X167985455Y-91523946D01*
X167951108Y-91410720D01*
X167933712Y-91234093D01*
X167951108Y-91057466D01*
X168002628Y-90887627D01*
X168002628Y-90887626D01*
X168086292Y-90731104D01*
X168086293Y-90731102D01*
X168115623Y-90695364D01*
X168198885Y-90593907D01*
X168300342Y-90510645D01*
X168336080Y-90481315D01*
X168353984Y-90471745D01*
X168492604Y-90397650D01*
X168549218Y-90380477D01*
X168662444Y-90346130D01*
X168728629Y-90339611D01*
X168794811Y-90333093D01*
X168883331Y-90333093D01*
X168949513Y-90339611D01*
X168949513Y-90339611D01*
G37*
G36*
X164664000Y-90097000D02*
X164012000Y-90097000D01*
X164012000Y-88245000D01*
X164664000Y-88245000D01*
X164664000Y-90097000D01*
X164664000Y-90097000D01*
G37*
G36*
X163394000Y-90097000D02*
X162742000Y-90097000D01*
X162742000Y-88245000D01*
X163394000Y-88245000D01*
X163394000Y-90097000D01*
X163394000Y-90097000D01*
G37*
G36*
X162124000Y-90097000D02*
X161472000Y-90097000D01*
X161472000Y-88245000D01*
X162124000Y-88245000D01*
X162124000Y-90097000D01*
X162124000Y-90097000D01*
G37*
G36*
X160854000Y-90097000D02*
X160202000Y-90097000D01*
X160202000Y-88245000D01*
X160854000Y-88245000D01*
X160854000Y-90097000D01*
X160854000Y-90097000D01*
G37*
G36*
X143549514Y-87799612D02*
X143615698Y-87806130D01*
X143728924Y-87840477D01*
X143785538Y-87857650D01*
X143924158Y-87931745D01*
X143942062Y-87941315D01*
X143977800Y-87970645D01*
X144079257Y-88053907D01*
X144162519Y-88155364D01*
X144191849Y-88191102D01*
X144191850Y-88191104D01*
X144275514Y-88347626D01*
X144275514Y-88347627D01*
X144327034Y-88517466D01*
X144344430Y-88694093D01*
X144327034Y-88870720D01*
X144292687Y-88983946D01*
X144275514Y-89040560D01*
X144201419Y-89179180D01*
X144191849Y-89197084D01*
X144162519Y-89232822D01*
X144079257Y-89334279D01*
X143977800Y-89417541D01*
X143942062Y-89446871D01*
X143942060Y-89446872D01*
X143785538Y-89530536D01*
X143728924Y-89547709D01*
X143615698Y-89582056D01*
X143549514Y-89588574D01*
X143483331Y-89595093D01*
X143394811Y-89595093D01*
X143328628Y-89588574D01*
X143262444Y-89582056D01*
X143149218Y-89547709D01*
X143092604Y-89530536D01*
X142936082Y-89446872D01*
X142936080Y-89446871D01*
X142900342Y-89417541D01*
X142798885Y-89334279D01*
X142715623Y-89232822D01*
X142686293Y-89197084D01*
X142676723Y-89179180D01*
X142602628Y-89040560D01*
X142585455Y-88983946D01*
X142551108Y-88870720D01*
X142533712Y-88694093D01*
X142551108Y-88517466D01*
X142602628Y-88347627D01*
X142602628Y-88347626D01*
X142686292Y-88191104D01*
X142686293Y-88191102D01*
X142715623Y-88155364D01*
X142798885Y-88053907D01*
X142900342Y-87970645D01*
X142936080Y-87941315D01*
X142953984Y-87931745D01*
X143092604Y-87857650D01*
X143149218Y-87840477D01*
X143262444Y-87806130D01*
X143328628Y-87799612D01*
X143394811Y-87793093D01*
X143483331Y-87793093D01*
X143549514Y-87799612D01*
X143549514Y-87799612D01*
G37*
G36*
X168949514Y-87799612D02*
X169015698Y-87806130D01*
X169128924Y-87840477D01*
X169185538Y-87857650D01*
X169324158Y-87931745D01*
X169342062Y-87941315D01*
X169377800Y-87970645D01*
X169479257Y-88053907D01*
X169562519Y-88155364D01*
X169591849Y-88191102D01*
X169591850Y-88191104D01*
X169675514Y-88347626D01*
X169675514Y-88347627D01*
X169727034Y-88517466D01*
X169744430Y-88694093D01*
X169727034Y-88870720D01*
X169692687Y-88983946D01*
X169675514Y-89040560D01*
X169601419Y-89179180D01*
X169591849Y-89197084D01*
X169562519Y-89232822D01*
X169479257Y-89334279D01*
X169377800Y-89417541D01*
X169342062Y-89446871D01*
X169342060Y-89446872D01*
X169185538Y-89530536D01*
X169128924Y-89547709D01*
X169015698Y-89582056D01*
X168949514Y-89588574D01*
X168883331Y-89595093D01*
X168794811Y-89595093D01*
X168728628Y-89588574D01*
X168662444Y-89582056D01*
X168549218Y-89547709D01*
X168492604Y-89530536D01*
X168336082Y-89446872D01*
X168336080Y-89446871D01*
X168300342Y-89417541D01*
X168198885Y-89334279D01*
X168115623Y-89232822D01*
X168086293Y-89197084D01*
X168076723Y-89179180D01*
X168002628Y-89040560D01*
X167985455Y-88983946D01*
X167951108Y-88870720D01*
X167933712Y-88694093D01*
X167951108Y-88517466D01*
X168002628Y-88347627D01*
X168002628Y-88347626D01*
X168086292Y-88191104D01*
X168086293Y-88191102D01*
X168115623Y-88155364D01*
X168198885Y-88053907D01*
X168300342Y-87970645D01*
X168336080Y-87941315D01*
X168353984Y-87931745D01*
X168492604Y-87857650D01*
X168549218Y-87840477D01*
X168662444Y-87806130D01*
X168728628Y-87799612D01*
X168794811Y-87793093D01*
X168883331Y-87793093D01*
X168949514Y-87799612D01*
X168949514Y-87799612D01*
G37*
G36*
X143549514Y-85259612D02*
X143615698Y-85266130D01*
X143728924Y-85300477D01*
X143785538Y-85317650D01*
X143924158Y-85391745D01*
X143942062Y-85401315D01*
X143977800Y-85430645D01*
X144079257Y-85513907D01*
X144162519Y-85615364D01*
X144191849Y-85651102D01*
X144191850Y-85651104D01*
X144275514Y-85807626D01*
X144275514Y-85807627D01*
X144327034Y-85977466D01*
X144344430Y-86154093D01*
X144327034Y-86330720D01*
X144292687Y-86443946D01*
X144275514Y-86500560D01*
X144201419Y-86639180D01*
X144191849Y-86657084D01*
X144162519Y-86692822D01*
X144079257Y-86794279D01*
X143977800Y-86877541D01*
X143942062Y-86906871D01*
X143942060Y-86906872D01*
X143785538Y-86990536D01*
X143728924Y-87007709D01*
X143615698Y-87042056D01*
X143549513Y-87048575D01*
X143483331Y-87055093D01*
X143394811Y-87055093D01*
X143328629Y-87048575D01*
X143262444Y-87042056D01*
X143149218Y-87007709D01*
X143092604Y-86990536D01*
X142936082Y-86906872D01*
X142936080Y-86906871D01*
X142900342Y-86877541D01*
X142798885Y-86794279D01*
X142715623Y-86692822D01*
X142686293Y-86657084D01*
X142676723Y-86639180D01*
X142602628Y-86500560D01*
X142585455Y-86443946D01*
X142551108Y-86330720D01*
X142533712Y-86154093D01*
X142551108Y-85977466D01*
X142602628Y-85807627D01*
X142602628Y-85807626D01*
X142686292Y-85651104D01*
X142686293Y-85651102D01*
X142715623Y-85615364D01*
X142798885Y-85513907D01*
X142900342Y-85430645D01*
X142936080Y-85401315D01*
X142953984Y-85391745D01*
X143092604Y-85317650D01*
X143149218Y-85300477D01*
X143262444Y-85266130D01*
X143328628Y-85259612D01*
X143394811Y-85253093D01*
X143483331Y-85253093D01*
X143549514Y-85259612D01*
X143549514Y-85259612D01*
G37*
G36*
X168949514Y-85259612D02*
X169015698Y-85266130D01*
X169128924Y-85300477D01*
X169185538Y-85317650D01*
X169324158Y-85391745D01*
X169342062Y-85401315D01*
X169377800Y-85430645D01*
X169479257Y-85513907D01*
X169562519Y-85615364D01*
X169591849Y-85651102D01*
X169591850Y-85651104D01*
X169675514Y-85807626D01*
X169675514Y-85807627D01*
X169727034Y-85977466D01*
X169744430Y-86154093D01*
X169727034Y-86330720D01*
X169692687Y-86443946D01*
X169675514Y-86500560D01*
X169601419Y-86639180D01*
X169591849Y-86657084D01*
X169562519Y-86692822D01*
X169479257Y-86794279D01*
X169377800Y-86877541D01*
X169342062Y-86906871D01*
X169342060Y-86906872D01*
X169185538Y-86990536D01*
X169128924Y-87007709D01*
X169015698Y-87042056D01*
X168949513Y-87048575D01*
X168883331Y-87055093D01*
X168794811Y-87055093D01*
X168728629Y-87048575D01*
X168662444Y-87042056D01*
X168549218Y-87007709D01*
X168492604Y-86990536D01*
X168336082Y-86906872D01*
X168336080Y-86906871D01*
X168300342Y-86877541D01*
X168198885Y-86794279D01*
X168115623Y-86692822D01*
X168086293Y-86657084D01*
X168076723Y-86639180D01*
X168002628Y-86500560D01*
X167985455Y-86443946D01*
X167951108Y-86330720D01*
X167933712Y-86154093D01*
X167951108Y-85977466D01*
X168002628Y-85807627D01*
X168002628Y-85807626D01*
X168086292Y-85651104D01*
X168086293Y-85651102D01*
X168115623Y-85615364D01*
X168198885Y-85513907D01*
X168300342Y-85430645D01*
X168336080Y-85401315D01*
X168353984Y-85391745D01*
X168492604Y-85317650D01*
X168549218Y-85300477D01*
X168662444Y-85266130D01*
X168728628Y-85259612D01*
X168794811Y-85253093D01*
X168883331Y-85253093D01*
X168949514Y-85259612D01*
X168949514Y-85259612D01*
G37*
G36*
X143549514Y-82719612D02*
X143615698Y-82726130D01*
X143728924Y-82760477D01*
X143785538Y-82777650D01*
X143924158Y-82851745D01*
X143942062Y-82861315D01*
X143977800Y-82890645D01*
X144079257Y-82973907D01*
X144162519Y-83075364D01*
X144191849Y-83111102D01*
X144191850Y-83111104D01*
X144275514Y-83267626D01*
X144275514Y-83267627D01*
X144327034Y-83437466D01*
X144344430Y-83614093D01*
X144327034Y-83790720D01*
X144292687Y-83903946D01*
X144275514Y-83960560D01*
X144201419Y-84099180D01*
X144191849Y-84117084D01*
X144162519Y-84152822D01*
X144079257Y-84254279D01*
X143977800Y-84337541D01*
X143942062Y-84366871D01*
X143942060Y-84366872D01*
X143785538Y-84450536D01*
X143728924Y-84467709D01*
X143615698Y-84502056D01*
X143549514Y-84508574D01*
X143483331Y-84515093D01*
X143394811Y-84515093D01*
X143328628Y-84508574D01*
X143262444Y-84502056D01*
X143149218Y-84467709D01*
X143092604Y-84450536D01*
X142936082Y-84366872D01*
X142936080Y-84366871D01*
X142900342Y-84337541D01*
X142798885Y-84254279D01*
X142715623Y-84152822D01*
X142686293Y-84117084D01*
X142676723Y-84099180D01*
X142602628Y-83960560D01*
X142585455Y-83903946D01*
X142551108Y-83790720D01*
X142533712Y-83614093D01*
X142551108Y-83437466D01*
X142602628Y-83267627D01*
X142602628Y-83267626D01*
X142686292Y-83111104D01*
X142686293Y-83111102D01*
X142715623Y-83075364D01*
X142798885Y-82973907D01*
X142900342Y-82890645D01*
X142936080Y-82861315D01*
X142953984Y-82851745D01*
X143092604Y-82777650D01*
X143149218Y-82760477D01*
X143262444Y-82726130D01*
X143328628Y-82719612D01*
X143394811Y-82713093D01*
X143483331Y-82713093D01*
X143549514Y-82719612D01*
X143549514Y-82719612D01*
G37*
G36*
X168949514Y-82719612D02*
X169015698Y-82726130D01*
X169128924Y-82760477D01*
X169185538Y-82777650D01*
X169324158Y-82851745D01*
X169342062Y-82861315D01*
X169377800Y-82890645D01*
X169479257Y-82973907D01*
X169562519Y-83075364D01*
X169591849Y-83111102D01*
X169591850Y-83111104D01*
X169675514Y-83267626D01*
X169675514Y-83267627D01*
X169727034Y-83437466D01*
X169744430Y-83614093D01*
X169727034Y-83790720D01*
X169692687Y-83903946D01*
X169675514Y-83960560D01*
X169601419Y-84099180D01*
X169591849Y-84117084D01*
X169562519Y-84152822D01*
X169479257Y-84254279D01*
X169377800Y-84337541D01*
X169342062Y-84366871D01*
X169342060Y-84366872D01*
X169185538Y-84450536D01*
X169128924Y-84467709D01*
X169015698Y-84502056D01*
X168949514Y-84508574D01*
X168883331Y-84515093D01*
X168794811Y-84515093D01*
X168728628Y-84508574D01*
X168662444Y-84502056D01*
X168549218Y-84467709D01*
X168492604Y-84450536D01*
X168336082Y-84366872D01*
X168336080Y-84366871D01*
X168300342Y-84337541D01*
X168198885Y-84254279D01*
X168115623Y-84152822D01*
X168086293Y-84117084D01*
X168076723Y-84099180D01*
X168002628Y-83960560D01*
X167985455Y-83903946D01*
X167951108Y-83790720D01*
X167933712Y-83614093D01*
X167951108Y-83437466D01*
X168002628Y-83267627D01*
X168002628Y-83267626D01*
X168086292Y-83111104D01*
X168086293Y-83111102D01*
X168115623Y-83075364D01*
X168198885Y-82973907D01*
X168300342Y-82890645D01*
X168336080Y-82861315D01*
X168353984Y-82851745D01*
X168492604Y-82777650D01*
X168549218Y-82760477D01*
X168662444Y-82726130D01*
X168728628Y-82719612D01*
X168794811Y-82713093D01*
X168883331Y-82713093D01*
X168949514Y-82719612D01*
X168949514Y-82719612D01*
G37*
G36*
X162124000Y-82697000D02*
X161472000Y-82697000D01*
X161472000Y-80845000D01*
X162124000Y-80845000D01*
X162124000Y-82697000D01*
X162124000Y-82697000D01*
G37*
G36*
X163394000Y-82697000D02*
X162742000Y-82697000D01*
X162742000Y-80845000D01*
X163394000Y-80845000D01*
X163394000Y-82697000D01*
X163394000Y-82697000D01*
G37*
G36*
X164664000Y-82697000D02*
X164012000Y-82697000D01*
X164012000Y-80845000D01*
X164664000Y-80845000D01*
X164664000Y-82697000D01*
X164664000Y-82697000D01*
G37*
G36*
X160854000Y-82697000D02*
X160202000Y-82697000D01*
X160202000Y-80845000D01*
X160854000Y-80845000D01*
X160854000Y-82697000D01*
X160854000Y-82697000D01*
G37*
G36*
X143549513Y-80179611D02*
X143615698Y-80186130D01*
X143728924Y-80220477D01*
X143785538Y-80237650D01*
X143924158Y-80311745D01*
X143942062Y-80321315D01*
X143977800Y-80350645D01*
X144079257Y-80433907D01*
X144162519Y-80535364D01*
X144191849Y-80571102D01*
X144191850Y-80571104D01*
X144275514Y-80727626D01*
X144275514Y-80727627D01*
X144327034Y-80897466D01*
X144344430Y-81074093D01*
X144327034Y-81250720D01*
X144292687Y-81363946D01*
X144275514Y-81420560D01*
X144201419Y-81559180D01*
X144191849Y-81577084D01*
X144162519Y-81612822D01*
X144079257Y-81714279D01*
X143977800Y-81797541D01*
X143942062Y-81826871D01*
X143942060Y-81826872D01*
X143785538Y-81910536D01*
X143728924Y-81927709D01*
X143615698Y-81962056D01*
X143549514Y-81968574D01*
X143483331Y-81975093D01*
X143394811Y-81975093D01*
X143328628Y-81968574D01*
X143262444Y-81962056D01*
X143149218Y-81927709D01*
X143092604Y-81910536D01*
X142936082Y-81826872D01*
X142936080Y-81826871D01*
X142900342Y-81797541D01*
X142798885Y-81714279D01*
X142715623Y-81612822D01*
X142686293Y-81577084D01*
X142676723Y-81559180D01*
X142602628Y-81420560D01*
X142585455Y-81363946D01*
X142551108Y-81250720D01*
X142533712Y-81074093D01*
X142551108Y-80897466D01*
X142602628Y-80727627D01*
X142602628Y-80727626D01*
X142686292Y-80571104D01*
X142686293Y-80571102D01*
X142715623Y-80535364D01*
X142798885Y-80433907D01*
X142900342Y-80350645D01*
X142936080Y-80321315D01*
X142953984Y-80311745D01*
X143092604Y-80237650D01*
X143149218Y-80220477D01*
X143262444Y-80186130D01*
X143328629Y-80179611D01*
X143394811Y-80173093D01*
X143483331Y-80173093D01*
X143549513Y-80179611D01*
X143549513Y-80179611D01*
G37*
G36*
X168949513Y-80179611D02*
X169015698Y-80186130D01*
X169128924Y-80220477D01*
X169185538Y-80237650D01*
X169324158Y-80311745D01*
X169342062Y-80321315D01*
X169377800Y-80350645D01*
X169479257Y-80433907D01*
X169562519Y-80535364D01*
X169591849Y-80571102D01*
X169591850Y-80571104D01*
X169675514Y-80727626D01*
X169675514Y-80727627D01*
X169727034Y-80897466D01*
X169744430Y-81074093D01*
X169727034Y-81250720D01*
X169692687Y-81363946D01*
X169675514Y-81420560D01*
X169601419Y-81559180D01*
X169591849Y-81577084D01*
X169562519Y-81612822D01*
X169479257Y-81714279D01*
X169377800Y-81797541D01*
X169342062Y-81826871D01*
X169342060Y-81826872D01*
X169185538Y-81910536D01*
X169128924Y-81927709D01*
X169015698Y-81962056D01*
X168949514Y-81968574D01*
X168883331Y-81975093D01*
X168794811Y-81975093D01*
X168728628Y-81968574D01*
X168662444Y-81962056D01*
X168549218Y-81927709D01*
X168492604Y-81910536D01*
X168336082Y-81826872D01*
X168336080Y-81826871D01*
X168300342Y-81797541D01*
X168198885Y-81714279D01*
X168115623Y-81612822D01*
X168086293Y-81577084D01*
X168076723Y-81559180D01*
X168002628Y-81420560D01*
X167985455Y-81363946D01*
X167951108Y-81250720D01*
X167933712Y-81074093D01*
X167951108Y-80897466D01*
X168002628Y-80727627D01*
X168002628Y-80727626D01*
X168086292Y-80571104D01*
X168086293Y-80571102D01*
X168115623Y-80535364D01*
X168198885Y-80433907D01*
X168300342Y-80350645D01*
X168336080Y-80321315D01*
X168353984Y-80311745D01*
X168492604Y-80237650D01*
X168549218Y-80220477D01*
X168662444Y-80186130D01*
X168728629Y-80179611D01*
X168794811Y-80173093D01*
X168883331Y-80173093D01*
X168949513Y-80179611D01*
X168949513Y-80179611D01*
G37*
G36*
X168949514Y-77639612D02*
X169015698Y-77646130D01*
X169128924Y-77680477D01*
X169185538Y-77697650D01*
X169324158Y-77771745D01*
X169342062Y-77781315D01*
X169377800Y-77810645D01*
X169479257Y-77893907D01*
X169562519Y-77995364D01*
X169591849Y-78031102D01*
X169591850Y-78031104D01*
X169675514Y-78187626D01*
X169675514Y-78187627D01*
X169727034Y-78357466D01*
X169744430Y-78534093D01*
X169727034Y-78710720D01*
X169692687Y-78823946D01*
X169675514Y-78880560D01*
X169601419Y-79019180D01*
X169591849Y-79037084D01*
X169562519Y-79072822D01*
X169479257Y-79174279D01*
X169377800Y-79257541D01*
X169342062Y-79286871D01*
X169342060Y-79286872D01*
X169185538Y-79370536D01*
X169128924Y-79387709D01*
X169015698Y-79422056D01*
X168949514Y-79428574D01*
X168883331Y-79435093D01*
X168794811Y-79435093D01*
X168728628Y-79428574D01*
X168662444Y-79422056D01*
X168549218Y-79387709D01*
X168492604Y-79370536D01*
X168336082Y-79286872D01*
X168336080Y-79286871D01*
X168300342Y-79257541D01*
X168198885Y-79174279D01*
X168115623Y-79072822D01*
X168086293Y-79037084D01*
X168076723Y-79019180D01*
X168002628Y-78880560D01*
X167985455Y-78823946D01*
X167951108Y-78710720D01*
X167933712Y-78534093D01*
X167951108Y-78357466D01*
X168002628Y-78187627D01*
X168002628Y-78187626D01*
X168086292Y-78031104D01*
X168086293Y-78031102D01*
X168115623Y-77995364D01*
X168198885Y-77893907D01*
X168300342Y-77810645D01*
X168336080Y-77781315D01*
X168353984Y-77771745D01*
X168492604Y-77697650D01*
X168549218Y-77680477D01*
X168662444Y-77646130D01*
X168728628Y-77639612D01*
X168794811Y-77633093D01*
X168883331Y-77633093D01*
X168949514Y-77639612D01*
X168949514Y-77639612D01*
G37*
G36*
X143549514Y-77639612D02*
X143615698Y-77646130D01*
X143728924Y-77680477D01*
X143785538Y-77697650D01*
X143924158Y-77771745D01*
X143942062Y-77781315D01*
X143977800Y-77810645D01*
X144079257Y-77893907D01*
X144162519Y-77995364D01*
X144191849Y-78031102D01*
X144191850Y-78031104D01*
X144275514Y-78187626D01*
X144275514Y-78187627D01*
X144327034Y-78357466D01*
X144344430Y-78534093D01*
X144327034Y-78710720D01*
X144292687Y-78823946D01*
X144275514Y-78880560D01*
X144201419Y-79019180D01*
X144191849Y-79037084D01*
X144162519Y-79072822D01*
X144079257Y-79174279D01*
X143977800Y-79257541D01*
X143942062Y-79286871D01*
X143942060Y-79286872D01*
X143785538Y-79370536D01*
X143728924Y-79387709D01*
X143615698Y-79422056D01*
X143549514Y-79428574D01*
X143483331Y-79435093D01*
X143394811Y-79435093D01*
X143328628Y-79428574D01*
X143262444Y-79422056D01*
X143149218Y-79387709D01*
X143092604Y-79370536D01*
X142936082Y-79286872D01*
X142936080Y-79286871D01*
X142900342Y-79257541D01*
X142798885Y-79174279D01*
X142715623Y-79072822D01*
X142686293Y-79037084D01*
X142676723Y-79019180D01*
X142602628Y-78880560D01*
X142585455Y-78823946D01*
X142551108Y-78710720D01*
X142533712Y-78534093D01*
X142551108Y-78357466D01*
X142602628Y-78187627D01*
X142602628Y-78187626D01*
X142686292Y-78031104D01*
X142686293Y-78031102D01*
X142715623Y-77995364D01*
X142798885Y-77893907D01*
X142900342Y-77810645D01*
X142936080Y-77781315D01*
X142953984Y-77771745D01*
X143092604Y-77697650D01*
X143149218Y-77680477D01*
X143262444Y-77646130D01*
X143328628Y-77639612D01*
X143394811Y-77633093D01*
X143483331Y-77633093D01*
X143549514Y-77639612D01*
X143549514Y-77639612D01*
G37*
G36*
X143549514Y-75099612D02*
X143615698Y-75106130D01*
X143728924Y-75140477D01*
X143785538Y-75157650D01*
X143924158Y-75231745D01*
X143942062Y-75241315D01*
X143977800Y-75270645D01*
X144079257Y-75353907D01*
X144133497Y-75420000D01*
X144191849Y-75491102D01*
X144191850Y-75491104D01*
X144275514Y-75647626D01*
X144275514Y-75647627D01*
X144327034Y-75817466D01*
X144344430Y-75994093D01*
X144327034Y-76170720D01*
X144298325Y-76265362D01*
X144275514Y-76340560D01*
X144215958Y-76451980D01*
X144191849Y-76497084D01*
X144162519Y-76532822D01*
X144079257Y-76634279D01*
X143977800Y-76717541D01*
X143942062Y-76746871D01*
X143942060Y-76746872D01*
X143785538Y-76830536D01*
X143728924Y-76847709D01*
X143615698Y-76882056D01*
X143549513Y-76888575D01*
X143483331Y-76895093D01*
X143394811Y-76895093D01*
X143328629Y-76888575D01*
X143262444Y-76882056D01*
X143149218Y-76847709D01*
X143092604Y-76830536D01*
X142936082Y-76746872D01*
X142936080Y-76746871D01*
X142900342Y-76717541D01*
X142798885Y-76634279D01*
X142715623Y-76532822D01*
X142686293Y-76497084D01*
X142662184Y-76451980D01*
X142602628Y-76340560D01*
X142579817Y-76265362D01*
X142551108Y-76170720D01*
X142533712Y-75994093D01*
X142551108Y-75817466D01*
X142602628Y-75647627D01*
X142602628Y-75647626D01*
X142686292Y-75491104D01*
X142686293Y-75491102D01*
X142744645Y-75420000D01*
X142798885Y-75353907D01*
X142900342Y-75270645D01*
X142936080Y-75241315D01*
X142953984Y-75231745D01*
X143092604Y-75157650D01*
X143149218Y-75140477D01*
X143262444Y-75106130D01*
X143328628Y-75099612D01*
X143394811Y-75093093D01*
X143483331Y-75093093D01*
X143549514Y-75099612D01*
X143549514Y-75099612D01*
G37*
G36*
X168949514Y-75099612D02*
X169015698Y-75106130D01*
X169128924Y-75140477D01*
X169185538Y-75157650D01*
X169324158Y-75231745D01*
X169342062Y-75241315D01*
X169377800Y-75270645D01*
X169479257Y-75353907D01*
X169533497Y-75420000D01*
X169591849Y-75491102D01*
X169591850Y-75491104D01*
X169675514Y-75647626D01*
X169675514Y-75647627D01*
X169727034Y-75817466D01*
X169744430Y-75994093D01*
X169727034Y-76170720D01*
X169698325Y-76265362D01*
X169675514Y-76340560D01*
X169615958Y-76451980D01*
X169591849Y-76497084D01*
X169562519Y-76532822D01*
X169479257Y-76634279D01*
X169377800Y-76717541D01*
X169342062Y-76746871D01*
X169342060Y-76746872D01*
X169185538Y-76830536D01*
X169128924Y-76847709D01*
X169015698Y-76882056D01*
X168949513Y-76888575D01*
X168883331Y-76895093D01*
X168794811Y-76895093D01*
X168728629Y-76888575D01*
X168662444Y-76882056D01*
X168549218Y-76847709D01*
X168492604Y-76830536D01*
X168336082Y-76746872D01*
X168336080Y-76746871D01*
X168300342Y-76717541D01*
X168198885Y-76634279D01*
X168115623Y-76532822D01*
X168086293Y-76497084D01*
X168062184Y-76451980D01*
X168002628Y-76340560D01*
X167979817Y-76265362D01*
X167951108Y-76170720D01*
X167933712Y-75994093D01*
X167951108Y-75817466D01*
X168002628Y-75647627D01*
X168002628Y-75647626D01*
X168086292Y-75491104D01*
X168086293Y-75491102D01*
X168144645Y-75420000D01*
X168198885Y-75353907D01*
X168300342Y-75270645D01*
X168336080Y-75241315D01*
X168353984Y-75231745D01*
X168492604Y-75157650D01*
X168549218Y-75140477D01*
X168662444Y-75106130D01*
X168728628Y-75099612D01*
X168794811Y-75093093D01*
X168883331Y-75093093D01*
X168949514Y-75099612D01*
X168949514Y-75099612D01*
G37*
G36*
X148482499Y-75424445D02*
X148519993Y-75435819D01*
X148554557Y-75454294D01*
X148584847Y-75479153D01*
X148609706Y-75509443D01*
X148628181Y-75544007D01*
X148639555Y-75581501D01*
X148644000Y-75626638D01*
X148644000Y-76265362D01*
X148639555Y-76310499D01*
X148628181Y-76347993D01*
X148609706Y-76382557D01*
X148584847Y-76412847D01*
X148554557Y-76437706D01*
X148519993Y-76456181D01*
X148482499Y-76467555D01*
X148437362Y-76472000D01*
X147698638Y-76472000D01*
X147653501Y-76467555D01*
X147616007Y-76456181D01*
X147581443Y-76437706D01*
X147551153Y-76412847D01*
X147526294Y-76382557D01*
X147507819Y-76347993D01*
X147496445Y-76310499D01*
X147492000Y-76265362D01*
X147492000Y-75626638D01*
X147496445Y-75581501D01*
X147507819Y-75544007D01*
X147526294Y-75509443D01*
X147551153Y-75479153D01*
X147581443Y-75454294D01*
X147616007Y-75435819D01*
X147653501Y-75424445D01*
X147698638Y-75420000D01*
X148437362Y-75420000D01*
X148482499Y-75424445D01*
X148482499Y-75424445D01*
G37*
G36*
X146732499Y-75424445D02*
X146769993Y-75435819D01*
X146804557Y-75454294D01*
X146834847Y-75479153D01*
X146859706Y-75509443D01*
X146878181Y-75544007D01*
X146889555Y-75581501D01*
X146894000Y-75626638D01*
X146894000Y-76265362D01*
X146889555Y-76310499D01*
X146878181Y-76347993D01*
X146859706Y-76382557D01*
X146834847Y-76412847D01*
X146804557Y-76437706D01*
X146769993Y-76456181D01*
X146732499Y-76467555D01*
X146687362Y-76472000D01*
X145948638Y-76472000D01*
X145903501Y-76467555D01*
X145866007Y-76456181D01*
X145831443Y-76437706D01*
X145801153Y-76412847D01*
X145776294Y-76382557D01*
X145757819Y-76347993D01*
X145746445Y-76310499D01*
X145742000Y-76265362D01*
X145742000Y-75626638D01*
X145746445Y-75581501D01*
X145757819Y-75544007D01*
X145776294Y-75509443D01*
X145801153Y-75479153D01*
X145831443Y-75454294D01*
X145866007Y-75435819D01*
X145903501Y-75424445D01*
X145948638Y-75420000D01*
X146687362Y-75420000D01*
X146732499Y-75424445D01*
X146732499Y-75424445D01*
G37*
G36*
X168943376Y-72559007D02*
X169015698Y-72566130D01*
X169115818Y-72596501D01*
X169185538Y-72617650D01*
X169324158Y-72691745D01*
X169342062Y-72701315D01*
X169377800Y-72730645D01*
X169479257Y-72813907D01*
X169533497Y-72880000D01*
X169591849Y-72951102D01*
X169591850Y-72951104D01*
X169675514Y-73107626D01*
X169675514Y-73107627D01*
X169727034Y-73277466D01*
X169744430Y-73454093D01*
X169727034Y-73630720D01*
X169698325Y-73725362D01*
X169675514Y-73800560D01*
X169615958Y-73911980D01*
X169591849Y-73957084D01*
X169562519Y-73992822D01*
X169479257Y-74094279D01*
X169377800Y-74177541D01*
X169342062Y-74206871D01*
X169342060Y-74206872D01*
X169185538Y-74290536D01*
X169128924Y-74307709D01*
X169015698Y-74342056D01*
X168949513Y-74348575D01*
X168883331Y-74355093D01*
X168794811Y-74355093D01*
X168728629Y-74348575D01*
X168662444Y-74342056D01*
X168549218Y-74307709D01*
X168492604Y-74290536D01*
X168336082Y-74206872D01*
X168336080Y-74206871D01*
X168300342Y-74177541D01*
X168198885Y-74094279D01*
X168115623Y-73992822D01*
X168086293Y-73957084D01*
X168062184Y-73911980D01*
X168002628Y-73800560D01*
X167979817Y-73725362D01*
X167951108Y-73630720D01*
X167933712Y-73454093D01*
X167951108Y-73277466D01*
X168002628Y-73107627D01*
X168002628Y-73107626D01*
X168086292Y-72951104D01*
X168086293Y-72951102D01*
X168144645Y-72880000D01*
X168198885Y-72813907D01*
X168300342Y-72730645D01*
X168336080Y-72701315D01*
X168353984Y-72691745D01*
X168492604Y-72617650D01*
X168562324Y-72596501D01*
X168662444Y-72566130D01*
X168734766Y-72559007D01*
X168794811Y-72553093D01*
X168883331Y-72553093D01*
X168943376Y-72559007D01*
X168943376Y-72559007D01*
G37*
G36*
X143543376Y-72559007D02*
X143615698Y-72566130D01*
X143715818Y-72596501D01*
X143785538Y-72617650D01*
X143924158Y-72691745D01*
X143942062Y-72701315D01*
X143977800Y-72730645D01*
X144079257Y-72813907D01*
X144133497Y-72880000D01*
X144191849Y-72951102D01*
X144191850Y-72951104D01*
X144275514Y-73107626D01*
X144275514Y-73107627D01*
X144327034Y-73277466D01*
X144344430Y-73454093D01*
X144327034Y-73630720D01*
X144298325Y-73725362D01*
X144275514Y-73800560D01*
X144215958Y-73911980D01*
X144191849Y-73957084D01*
X144162519Y-73992822D01*
X144079257Y-74094279D01*
X143977800Y-74177541D01*
X143942062Y-74206871D01*
X143942060Y-74206872D01*
X143785538Y-74290536D01*
X143728924Y-74307709D01*
X143615698Y-74342056D01*
X143549513Y-74348575D01*
X143483331Y-74355093D01*
X143394811Y-74355093D01*
X143328629Y-74348575D01*
X143262444Y-74342056D01*
X143149218Y-74307709D01*
X143092604Y-74290536D01*
X142936082Y-74206872D01*
X142936080Y-74206871D01*
X142900342Y-74177541D01*
X142798885Y-74094279D01*
X142715623Y-73992822D01*
X142686293Y-73957084D01*
X142662184Y-73911980D01*
X142602628Y-73800560D01*
X142579817Y-73725362D01*
X142551108Y-73630720D01*
X142533712Y-73454093D01*
X142551108Y-73277466D01*
X142602628Y-73107627D01*
X142602628Y-73107626D01*
X142686292Y-72951104D01*
X142686293Y-72951102D01*
X142744645Y-72880000D01*
X142798885Y-72813907D01*
X142900342Y-72730645D01*
X142936080Y-72701315D01*
X142953984Y-72691745D01*
X143092604Y-72617650D01*
X143162324Y-72596501D01*
X143262444Y-72566130D01*
X143334766Y-72559007D01*
X143394811Y-72553093D01*
X143483331Y-72553093D01*
X143543376Y-72559007D01*
X143543376Y-72559007D01*
G37*
G36*
X148482499Y-72884445D02*
X148519993Y-72895819D01*
X148554557Y-72914294D01*
X148584847Y-72939153D01*
X148609706Y-72969443D01*
X148628181Y-73004007D01*
X148639555Y-73041501D01*
X148644000Y-73086638D01*
X148644000Y-73725362D01*
X148639555Y-73770499D01*
X148628181Y-73807993D01*
X148609706Y-73842557D01*
X148584847Y-73872847D01*
X148554557Y-73897706D01*
X148519993Y-73916181D01*
X148482499Y-73927555D01*
X148437362Y-73932000D01*
X147698638Y-73932000D01*
X147653501Y-73927555D01*
X147616007Y-73916181D01*
X147581443Y-73897706D01*
X147551153Y-73872847D01*
X147526294Y-73842557D01*
X147507819Y-73807993D01*
X147496445Y-73770499D01*
X147492000Y-73725362D01*
X147492000Y-73086638D01*
X147496445Y-73041501D01*
X147507819Y-73004007D01*
X147526294Y-72969443D01*
X147551153Y-72939153D01*
X147581443Y-72914294D01*
X147616007Y-72895819D01*
X147653501Y-72884445D01*
X147698638Y-72880000D01*
X148437362Y-72880000D01*
X148482499Y-72884445D01*
X148482499Y-72884445D01*
G37*
G36*
X146732499Y-72884445D02*
X146769993Y-72895819D01*
X146804557Y-72914294D01*
X146834847Y-72939153D01*
X146859706Y-72969443D01*
X146878181Y-73004007D01*
X146889555Y-73041501D01*
X146894000Y-73086638D01*
X146894000Y-73725362D01*
X146889555Y-73770499D01*
X146878181Y-73807993D01*
X146859706Y-73842557D01*
X146834847Y-73872847D01*
X146804557Y-73897706D01*
X146769993Y-73916181D01*
X146732499Y-73927555D01*
X146687362Y-73932000D01*
X145948638Y-73932000D01*
X145903501Y-73927555D01*
X145866007Y-73916181D01*
X145831443Y-73897706D01*
X145801153Y-73872847D01*
X145776294Y-73842557D01*
X145757819Y-73807993D01*
X145746445Y-73770499D01*
X145742000Y-73725362D01*
X145742000Y-73086638D01*
X145746445Y-73041501D01*
X145757819Y-73004007D01*
X145776294Y-72969443D01*
X145801153Y-72939153D01*
X145831443Y-72914294D01*
X145866007Y-72895819D01*
X145903501Y-72884445D01*
X145948638Y-72880000D01*
X146687362Y-72880000D01*
X146732499Y-72884445D01*
X146732499Y-72884445D01*
G37*
G36*
X166607499Y-72439445D02*
X166644993Y-72450819D01*
X166679557Y-72469294D01*
X166709847Y-72494153D01*
X166734706Y-72524443D01*
X166753181Y-72559007D01*
X166764555Y-72596501D01*
X166769000Y-72641638D01*
X166769000Y-73380362D01*
X166764555Y-73425499D01*
X166753181Y-73462993D01*
X166734706Y-73497557D01*
X166709847Y-73527847D01*
X166679557Y-73552706D01*
X166644993Y-73571181D01*
X166607499Y-73582555D01*
X166562362Y-73587000D01*
X165923638Y-73587000D01*
X165878501Y-73582555D01*
X165841007Y-73571181D01*
X165806443Y-73552706D01*
X165776153Y-73527847D01*
X165751294Y-73497557D01*
X165732819Y-73462993D01*
X165721445Y-73425499D01*
X165717000Y-73380362D01*
X165717000Y-72641638D01*
X165721445Y-72596501D01*
X165732819Y-72559007D01*
X165751294Y-72524443D01*
X165776153Y-72494153D01*
X165806443Y-72469294D01*
X165841007Y-72450819D01*
X165878501Y-72439445D01*
X165923638Y-72435000D01*
X166562362Y-72435000D01*
X166607499Y-72439445D01*
X166607499Y-72439445D01*
G37*
G36*
X166607499Y-70689445D02*
X166644993Y-70700819D01*
X166679557Y-70719294D01*
X166709847Y-70744153D01*
X166734706Y-70774443D01*
X166753181Y-70809007D01*
X166764555Y-70846501D01*
X166769000Y-70891638D01*
X166769000Y-71630362D01*
X166764555Y-71675499D01*
X166753181Y-71712993D01*
X166734706Y-71747557D01*
X166709847Y-71777847D01*
X166679557Y-71802706D01*
X166644993Y-71821181D01*
X166607499Y-71832555D01*
X166562362Y-71837000D01*
X165923638Y-71837000D01*
X165878501Y-71832555D01*
X165841007Y-71821181D01*
X165806443Y-71802706D01*
X165776153Y-71777847D01*
X165751294Y-71747557D01*
X165732819Y-71712993D01*
X165721445Y-71675499D01*
X165717000Y-71630362D01*
X165717000Y-70891638D01*
X165721445Y-70846501D01*
X165732819Y-70809007D01*
X165751294Y-70774443D01*
X165776153Y-70744153D01*
X165806443Y-70719294D01*
X165841007Y-70700819D01*
X165878501Y-70689445D01*
X165923638Y-70685000D01*
X166562362Y-70685000D01*
X166607499Y-70689445D01*
X166607499Y-70689445D01*
G37*
G36*
X143549513Y-70019611D02*
X143615698Y-70026130D01*
X143728924Y-70060477D01*
X143785538Y-70077650D01*
X143924158Y-70151745D01*
X143942062Y-70161315D01*
X143977800Y-70190645D01*
X144079257Y-70273907D01*
X144133497Y-70340000D01*
X144191849Y-70411102D01*
X144191850Y-70411104D01*
X144275514Y-70567626D01*
X144275514Y-70567627D01*
X144327034Y-70737466D01*
X144344430Y-70914093D01*
X144327034Y-71090720D01*
X144298325Y-71185362D01*
X144275514Y-71260560D01*
X144215958Y-71371980D01*
X144191849Y-71417084D01*
X144162519Y-71452822D01*
X144079257Y-71554279D01*
X143992705Y-71625309D01*
X143942062Y-71666871D01*
X143942060Y-71666872D01*
X143785538Y-71750536D01*
X143754441Y-71759969D01*
X143615698Y-71802056D01*
X143549514Y-71808574D01*
X143483331Y-71815093D01*
X143394811Y-71815093D01*
X143328628Y-71808574D01*
X143262444Y-71802056D01*
X143123701Y-71759969D01*
X143092604Y-71750536D01*
X142936082Y-71666872D01*
X142936080Y-71666871D01*
X142885437Y-71625309D01*
X142798885Y-71554279D01*
X142715623Y-71452822D01*
X142686293Y-71417084D01*
X142662184Y-71371980D01*
X142602628Y-71260560D01*
X142579817Y-71185362D01*
X142551108Y-71090720D01*
X142533712Y-70914093D01*
X142551108Y-70737466D01*
X142602628Y-70567627D01*
X142602628Y-70567626D01*
X142686292Y-70411104D01*
X142686293Y-70411102D01*
X142744645Y-70340000D01*
X142798885Y-70273907D01*
X142900342Y-70190645D01*
X142936080Y-70161315D01*
X142953984Y-70151745D01*
X143092604Y-70077650D01*
X143149218Y-70060477D01*
X143262444Y-70026130D01*
X143328629Y-70019611D01*
X143394811Y-70013093D01*
X143483331Y-70013093D01*
X143549513Y-70019611D01*
X143549513Y-70019611D01*
G37*
G36*
X168949513Y-70019611D02*
X169015698Y-70026130D01*
X169128924Y-70060477D01*
X169185538Y-70077650D01*
X169324158Y-70151745D01*
X169342062Y-70161315D01*
X169377800Y-70190645D01*
X169479257Y-70273907D01*
X169533497Y-70340000D01*
X169591849Y-70411102D01*
X169591850Y-70411104D01*
X169675514Y-70567626D01*
X169675514Y-70567627D01*
X169727034Y-70737466D01*
X169744430Y-70914093D01*
X169727034Y-71090720D01*
X169698325Y-71185362D01*
X169675514Y-71260560D01*
X169615958Y-71371980D01*
X169591849Y-71417084D01*
X169562519Y-71452822D01*
X169479257Y-71554279D01*
X169392705Y-71625309D01*
X169342062Y-71666871D01*
X169342060Y-71666872D01*
X169185538Y-71750536D01*
X169154441Y-71759969D01*
X169015698Y-71802056D01*
X168949514Y-71808574D01*
X168883331Y-71815093D01*
X168794811Y-71815093D01*
X168728628Y-71808574D01*
X168662444Y-71802056D01*
X168523701Y-71759969D01*
X168492604Y-71750536D01*
X168336082Y-71666872D01*
X168336080Y-71666871D01*
X168285437Y-71625309D01*
X168198885Y-71554279D01*
X168115623Y-71452822D01*
X168086293Y-71417084D01*
X168062184Y-71371980D01*
X168002628Y-71260560D01*
X167979817Y-71185362D01*
X167951108Y-71090720D01*
X167933712Y-70914093D01*
X167951108Y-70737466D01*
X168002628Y-70567627D01*
X168002628Y-70567626D01*
X168086292Y-70411104D01*
X168086293Y-70411102D01*
X168144645Y-70340000D01*
X168198885Y-70273907D01*
X168300342Y-70190645D01*
X168336080Y-70161315D01*
X168353984Y-70151745D01*
X168492604Y-70077650D01*
X168549218Y-70060477D01*
X168662444Y-70026130D01*
X168728629Y-70019611D01*
X168794811Y-70013093D01*
X168883331Y-70013093D01*
X168949513Y-70019611D01*
X168949513Y-70019611D01*
G37*
G36*
X146732499Y-70344445D02*
X146769993Y-70355819D01*
X146804557Y-70374294D01*
X146834847Y-70399153D01*
X146859706Y-70429443D01*
X146878181Y-70464007D01*
X146889555Y-70501501D01*
X146894000Y-70546638D01*
X146894000Y-71185362D01*
X146889555Y-71230499D01*
X146878181Y-71267993D01*
X146859706Y-71302557D01*
X146834847Y-71332847D01*
X146804557Y-71357706D01*
X146769993Y-71376181D01*
X146732499Y-71387555D01*
X146687362Y-71392000D01*
X145948638Y-71392000D01*
X145903501Y-71387555D01*
X145866007Y-71376181D01*
X145831443Y-71357706D01*
X145801153Y-71332847D01*
X145776294Y-71302557D01*
X145757819Y-71267993D01*
X145746445Y-71230499D01*
X145742000Y-71185362D01*
X145742000Y-70546638D01*
X145746445Y-70501501D01*
X145757819Y-70464007D01*
X145776294Y-70429443D01*
X145801153Y-70399153D01*
X145831443Y-70374294D01*
X145866007Y-70355819D01*
X145903501Y-70344445D01*
X145948638Y-70340000D01*
X146687362Y-70340000D01*
X146732499Y-70344445D01*
X146732499Y-70344445D01*
G37*
G36*
X148482499Y-70344445D02*
X148519993Y-70355819D01*
X148554557Y-70374294D01*
X148584847Y-70399153D01*
X148609706Y-70429443D01*
X148628181Y-70464007D01*
X148639555Y-70501501D01*
X148644000Y-70546638D01*
X148644000Y-71185362D01*
X148639555Y-71230499D01*
X148628181Y-71267993D01*
X148609706Y-71302557D01*
X148584847Y-71332847D01*
X148554557Y-71357706D01*
X148519993Y-71376181D01*
X148482499Y-71387555D01*
X148437362Y-71392000D01*
X147698638Y-71392000D01*
X147653501Y-71387555D01*
X147616007Y-71376181D01*
X147581443Y-71357706D01*
X147551153Y-71332847D01*
X147526294Y-71302557D01*
X147507819Y-71267993D01*
X147496445Y-71230499D01*
X147492000Y-71185362D01*
X147492000Y-70546638D01*
X147496445Y-70501501D01*
X147507819Y-70464007D01*
X147526294Y-70429443D01*
X147551153Y-70399153D01*
X147581443Y-70374294D01*
X147616007Y-70355819D01*
X147653501Y-70344445D01*
X147698638Y-70340000D01*
X148437362Y-70340000D01*
X148482499Y-70344445D01*
X148482499Y-70344445D01*
G37*
G36*
X143549514Y-67479612D02*
X143615698Y-67486130D01*
X143728924Y-67520477D01*
X143785538Y-67537650D01*
X143877325Y-67586712D01*
X143942062Y-67621315D01*
X143977800Y-67650645D01*
X144079257Y-67733907D01*
X144133497Y-67800000D01*
X144191849Y-67871102D01*
X144191850Y-67871104D01*
X144275514Y-68027626D01*
X144275514Y-68027627D01*
X144327034Y-68197466D01*
X144344430Y-68374093D01*
X144327034Y-68550720D01*
X144298325Y-68645362D01*
X144275514Y-68720560D01*
X144215958Y-68831980D01*
X144191849Y-68877084D01*
X144162519Y-68912822D01*
X144079257Y-69014279D01*
X144017101Y-69065288D01*
X143942062Y-69126871D01*
X143942060Y-69126872D01*
X143785538Y-69210536D01*
X143731744Y-69226854D01*
X143615698Y-69262056D01*
X143549513Y-69268575D01*
X143483331Y-69275093D01*
X143394811Y-69275093D01*
X143328629Y-69268575D01*
X143262444Y-69262056D01*
X143146398Y-69226854D01*
X143092604Y-69210536D01*
X142936082Y-69126872D01*
X142936080Y-69126871D01*
X142861041Y-69065288D01*
X142798885Y-69014279D01*
X142715623Y-68912822D01*
X142686293Y-68877084D01*
X142662184Y-68831980D01*
X142602628Y-68720560D01*
X142579817Y-68645362D01*
X142551108Y-68550720D01*
X142533712Y-68374093D01*
X142551108Y-68197466D01*
X142602628Y-68027627D01*
X142602628Y-68027626D01*
X142686292Y-67871104D01*
X142686293Y-67871102D01*
X142744645Y-67800000D01*
X142798885Y-67733907D01*
X142900342Y-67650645D01*
X142936080Y-67621315D01*
X143000817Y-67586712D01*
X143092604Y-67537650D01*
X143149218Y-67520477D01*
X143262444Y-67486130D01*
X143328628Y-67479612D01*
X143394811Y-67473093D01*
X143483331Y-67473093D01*
X143549514Y-67479612D01*
X143549514Y-67479612D01*
G37*
G36*
X168949514Y-67479612D02*
X169015698Y-67486130D01*
X169128924Y-67520477D01*
X169185538Y-67537650D01*
X169277325Y-67586712D01*
X169342062Y-67621315D01*
X169377800Y-67650645D01*
X169479257Y-67733907D01*
X169533497Y-67800000D01*
X169591849Y-67871102D01*
X169591850Y-67871104D01*
X169675514Y-68027626D01*
X169675514Y-68027627D01*
X169727034Y-68197466D01*
X169744430Y-68374093D01*
X169727034Y-68550720D01*
X169698325Y-68645362D01*
X169675514Y-68720560D01*
X169615958Y-68831980D01*
X169591849Y-68877084D01*
X169562519Y-68912822D01*
X169479257Y-69014279D01*
X169417101Y-69065288D01*
X169342062Y-69126871D01*
X169342060Y-69126872D01*
X169185538Y-69210536D01*
X169131744Y-69226854D01*
X169015698Y-69262056D01*
X168949513Y-69268575D01*
X168883331Y-69275093D01*
X168794811Y-69275093D01*
X168728629Y-69268575D01*
X168662444Y-69262056D01*
X168546398Y-69226854D01*
X168492604Y-69210536D01*
X168336082Y-69126872D01*
X168336080Y-69126871D01*
X168261041Y-69065288D01*
X168198885Y-69014279D01*
X168115623Y-68912822D01*
X168086293Y-68877084D01*
X168062184Y-68831980D01*
X168002628Y-68720560D01*
X167979817Y-68645362D01*
X167951108Y-68550720D01*
X167933712Y-68374093D01*
X167951108Y-68197466D01*
X168002628Y-68027627D01*
X168002628Y-68027626D01*
X168086292Y-67871104D01*
X168086293Y-67871102D01*
X168144645Y-67800000D01*
X168198885Y-67733907D01*
X168300342Y-67650645D01*
X168336080Y-67621315D01*
X168400817Y-67586712D01*
X168492604Y-67537650D01*
X168549218Y-67520477D01*
X168662444Y-67486130D01*
X168728628Y-67479612D01*
X168794811Y-67473093D01*
X168883331Y-67473093D01*
X168949514Y-67479612D01*
X168949514Y-67479612D01*
G37*
G36*
X164712560Y-67408966D02*
X164745383Y-67418923D01*
X164775632Y-67435092D01*
X164802148Y-67456852D01*
X164823908Y-67483368D01*
X164840077Y-67513617D01*
X164850034Y-67546440D01*
X164854000Y-67586712D01*
X164854000Y-69065288D01*
X164850034Y-69105560D01*
X164840077Y-69138383D01*
X164823908Y-69168632D01*
X164802148Y-69195148D01*
X164775632Y-69216908D01*
X164745383Y-69233077D01*
X164712560Y-69243034D01*
X164672288Y-69247000D01*
X162733712Y-69247000D01*
X162693440Y-69243034D01*
X162660617Y-69233077D01*
X162630368Y-69216908D01*
X162603852Y-69195148D01*
X162582092Y-69168632D01*
X162565923Y-69138383D01*
X162555966Y-69105560D01*
X162552000Y-69065288D01*
X162552000Y-67586712D01*
X162555966Y-67546440D01*
X162565923Y-67513617D01*
X162582092Y-67483368D01*
X162603852Y-67456852D01*
X162630368Y-67435092D01*
X162660617Y-67418923D01*
X162693440Y-67408966D01*
X162733712Y-67405000D01*
X164672288Y-67405000D01*
X164712560Y-67408966D01*
X164712560Y-67408966D01*
G37*
G36*
X148482499Y-67804445D02*
X148519993Y-67815819D01*
X148554557Y-67834294D01*
X148584847Y-67859153D01*
X148609706Y-67889443D01*
X148628181Y-67924007D01*
X148639555Y-67961501D01*
X148644000Y-68006638D01*
X148644000Y-68645362D01*
X148639555Y-68690499D01*
X148628181Y-68727993D01*
X148609706Y-68762557D01*
X148584847Y-68792847D01*
X148554557Y-68817706D01*
X148519993Y-68836181D01*
X148482499Y-68847555D01*
X148437362Y-68852000D01*
X147698638Y-68852000D01*
X147653501Y-68847555D01*
X147616007Y-68836181D01*
X147581443Y-68817706D01*
X147551153Y-68792847D01*
X147526294Y-68762557D01*
X147507819Y-68727993D01*
X147496445Y-68690499D01*
X147492000Y-68645362D01*
X147492000Y-68006638D01*
X147496445Y-67961501D01*
X147507819Y-67924007D01*
X147526294Y-67889443D01*
X147551153Y-67859153D01*
X147581443Y-67834294D01*
X147616007Y-67815819D01*
X147653501Y-67804445D01*
X147698638Y-67800000D01*
X148437362Y-67800000D01*
X148482499Y-67804445D01*
X148482499Y-67804445D01*
G37*
G36*
X146732499Y-67804445D02*
X146769993Y-67815819D01*
X146804557Y-67834294D01*
X146834847Y-67859153D01*
X146859706Y-67889443D01*
X146878181Y-67924007D01*
X146889555Y-67961501D01*
X146894000Y-68006638D01*
X146894000Y-68645362D01*
X146889555Y-68690499D01*
X146878181Y-68727993D01*
X146859706Y-68762557D01*
X146834847Y-68792847D01*
X146804557Y-68817706D01*
X146769993Y-68836181D01*
X146732499Y-68847555D01*
X146687362Y-68852000D01*
X145948638Y-68852000D01*
X145903501Y-68847555D01*
X145866007Y-68836181D01*
X145831443Y-68817706D01*
X145801153Y-68792847D01*
X145776294Y-68762557D01*
X145757819Y-68727993D01*
X145746445Y-68690499D01*
X145742000Y-68645362D01*
X145742000Y-68006638D01*
X145746445Y-67961501D01*
X145757819Y-67924007D01*
X145776294Y-67889443D01*
X145801153Y-67859153D01*
X145831443Y-67834294D01*
X145866007Y-67815819D01*
X145903501Y-67804445D01*
X145948638Y-67800000D01*
X146687362Y-67800000D01*
X146732499Y-67804445D01*
X146732499Y-67804445D01*
G37*
G36*
X168949514Y-64939612D02*
X169015698Y-64946130D01*
X169128924Y-64980477D01*
X169185538Y-64997650D01*
X169324158Y-65071745D01*
X169342062Y-65081315D01*
X169377800Y-65110645D01*
X169479257Y-65193907D01*
X169543216Y-65271843D01*
X169591849Y-65331102D01*
X169591850Y-65331104D01*
X169675514Y-65487626D01*
X169678803Y-65498469D01*
X169727034Y-65657466D01*
X169744430Y-65834093D01*
X169727034Y-66010720D01*
X169692687Y-66123946D01*
X169675514Y-66180560D01*
X169611588Y-66300156D01*
X169591849Y-66337084D01*
X169562519Y-66372822D01*
X169479257Y-66474279D01*
X169380302Y-66555488D01*
X169342062Y-66586871D01*
X169342060Y-66586872D01*
X169185538Y-66670536D01*
X169128924Y-66687709D01*
X169015698Y-66722056D01*
X168949514Y-66728574D01*
X168883331Y-66735093D01*
X168794811Y-66735093D01*
X168728628Y-66728574D01*
X168662444Y-66722056D01*
X168549218Y-66687709D01*
X168492604Y-66670536D01*
X168336082Y-66586872D01*
X168336080Y-66586871D01*
X168297840Y-66555488D01*
X168198885Y-66474279D01*
X168115623Y-66372822D01*
X168086293Y-66337084D01*
X168066554Y-66300156D01*
X168002628Y-66180560D01*
X167985455Y-66123946D01*
X167951108Y-66010720D01*
X167933712Y-65834093D01*
X167951108Y-65657466D01*
X167999339Y-65498469D01*
X168002628Y-65487626D01*
X168086292Y-65331104D01*
X168086293Y-65331102D01*
X168134926Y-65271843D01*
X168198885Y-65193907D01*
X168300342Y-65110645D01*
X168336080Y-65081315D01*
X168353984Y-65071745D01*
X168492604Y-64997650D01*
X168549218Y-64980477D01*
X168662444Y-64946130D01*
X168728628Y-64939612D01*
X168794811Y-64933093D01*
X168883331Y-64933093D01*
X168949514Y-64939612D01*
X168949514Y-64939612D01*
G37*
G36*
X143549514Y-64939612D02*
X143615698Y-64946130D01*
X143728924Y-64980477D01*
X143785538Y-64997650D01*
X143924158Y-65071745D01*
X143942062Y-65081315D01*
X143977800Y-65110645D01*
X144079257Y-65193907D01*
X144143216Y-65271843D01*
X144191849Y-65331102D01*
X144191850Y-65331104D01*
X144275514Y-65487626D01*
X144278803Y-65498469D01*
X144327034Y-65657466D01*
X144344430Y-65834093D01*
X144327034Y-66010720D01*
X144292687Y-66123946D01*
X144275514Y-66180560D01*
X144211588Y-66300156D01*
X144191849Y-66337084D01*
X144162519Y-66372822D01*
X144079257Y-66474279D01*
X143980302Y-66555488D01*
X143942062Y-66586871D01*
X143942060Y-66586872D01*
X143785538Y-66670536D01*
X143728924Y-66687709D01*
X143615698Y-66722056D01*
X143549514Y-66728574D01*
X143483331Y-66735093D01*
X143394811Y-66735093D01*
X143328628Y-66728574D01*
X143262444Y-66722056D01*
X143149218Y-66687709D01*
X143092604Y-66670536D01*
X142936082Y-66586872D01*
X142936080Y-66586871D01*
X142897840Y-66555488D01*
X142798885Y-66474279D01*
X142715623Y-66372822D01*
X142686293Y-66337084D01*
X142666554Y-66300156D01*
X142602628Y-66180560D01*
X142585455Y-66123946D01*
X142551108Y-66010720D01*
X142533712Y-65834093D01*
X142551108Y-65657466D01*
X142599339Y-65498469D01*
X142602628Y-65487626D01*
X142686292Y-65331104D01*
X142686293Y-65331102D01*
X142734926Y-65271843D01*
X142798885Y-65193907D01*
X142900342Y-65110645D01*
X142936080Y-65081315D01*
X142953984Y-65071745D01*
X143092604Y-64997650D01*
X143149218Y-64980477D01*
X143262444Y-64946130D01*
X143328628Y-64939612D01*
X143394811Y-64933093D01*
X143483331Y-64933093D01*
X143549514Y-64939612D01*
X143549514Y-64939612D01*
G37*
G36*
X164023345Y-64869442D02*
X164113548Y-64878326D01*
X164229287Y-64913435D01*
X164287158Y-64930990D01*
X164372679Y-64976702D01*
X164447156Y-65016511D01*
X164447158Y-65016512D01*
X164447157Y-65016512D01*
X164587396Y-65131604D01*
X164702488Y-65271843D01*
X164788010Y-65431842D01*
X164796124Y-65458591D01*
X164840674Y-65605452D01*
X164858456Y-65786000D01*
X164840674Y-65966548D01*
X164827275Y-66010718D01*
X164788010Y-66140158D01*
X164766415Y-66180559D01*
X164702489Y-66300156D01*
X164587396Y-66440396D01*
X164447156Y-66555489D01*
X164388444Y-66586871D01*
X164287158Y-66641010D01*
X164229287Y-66658565D01*
X164113548Y-66693674D01*
X164023345Y-66702558D01*
X163978245Y-66707000D01*
X163427755Y-66707000D01*
X163382655Y-66702558D01*
X163292452Y-66693674D01*
X163176713Y-66658565D01*
X163118842Y-66641010D01*
X163017556Y-66586871D01*
X162958844Y-66555489D01*
X162818604Y-66440396D01*
X162703511Y-66300156D01*
X162639585Y-66180559D01*
X162617990Y-66140158D01*
X162578725Y-66010718D01*
X162565326Y-65966548D01*
X162547544Y-65786000D01*
X162565326Y-65605452D01*
X162609876Y-65458591D01*
X162617990Y-65431842D01*
X162703512Y-65271843D01*
X162818604Y-65131604D01*
X162958843Y-65016512D01*
X162958842Y-65016512D01*
X162958844Y-65016511D01*
X163033321Y-64976702D01*
X163118842Y-64930990D01*
X163176713Y-64913435D01*
X163292452Y-64878326D01*
X163382655Y-64869442D01*
X163427755Y-64865000D01*
X163978245Y-64865000D01*
X164023345Y-64869442D01*
X164023345Y-64869442D01*
G37*
G36*
X156549963Y-64355359D02*
X156587457Y-64366733D01*
X156622021Y-64385208D01*
X156652311Y-64410067D01*
X156677170Y-64440357D01*
X156695645Y-64474921D01*
X156707019Y-64512415D01*
X156711464Y-64557552D01*
X156711464Y-65296276D01*
X156707019Y-65341413D01*
X156695645Y-65378907D01*
X156677170Y-65413471D01*
X156652311Y-65443761D01*
X156622021Y-65468620D01*
X156587457Y-65487095D01*
X156549963Y-65498469D01*
X156504826Y-65502914D01*
X155866102Y-65502914D01*
X155820965Y-65498469D01*
X155783471Y-65487095D01*
X155748907Y-65468620D01*
X155718617Y-65443761D01*
X155693758Y-65413471D01*
X155675283Y-65378907D01*
X155663909Y-65341413D01*
X155659464Y-65296276D01*
X155659464Y-64557552D01*
X155663909Y-64512415D01*
X155675283Y-64474921D01*
X155693758Y-64440357D01*
X155718617Y-64410067D01*
X155748907Y-64385208D01*
X155783471Y-64366733D01*
X155820965Y-64355359D01*
X155866102Y-64350914D01*
X156504826Y-64350914D01*
X156549963Y-64355359D01*
X156549963Y-64355359D01*
G37*
G36*
X158333565Y-64355359D02*
X158371059Y-64366733D01*
X158405623Y-64385208D01*
X158435913Y-64410067D01*
X158460772Y-64440357D01*
X158479247Y-64474921D01*
X158490621Y-64512415D01*
X158495066Y-64557552D01*
X158495066Y-65296276D01*
X158490621Y-65341413D01*
X158479247Y-65378907D01*
X158460772Y-65413471D01*
X158435913Y-65443761D01*
X158405623Y-65468620D01*
X158371059Y-65487095D01*
X158333565Y-65498469D01*
X158288428Y-65502914D01*
X157649704Y-65502914D01*
X157604567Y-65498469D01*
X157567073Y-65487095D01*
X157532509Y-65468620D01*
X157502219Y-65443761D01*
X157477360Y-65413471D01*
X157458885Y-65378907D01*
X157447511Y-65341413D01*
X157443066Y-65296276D01*
X157443066Y-64557552D01*
X157447511Y-64512415D01*
X157458885Y-64474921D01*
X157477360Y-64440357D01*
X157502219Y-64410067D01*
X157532509Y-64385208D01*
X157567073Y-64366733D01*
X157604567Y-64355359D01*
X157649704Y-64350914D01*
X158288428Y-64350914D01*
X158333565Y-64355359D01*
X158333565Y-64355359D01*
G37*
G36*
X168949513Y-62399611D02*
X169015698Y-62406130D01*
X169128924Y-62440477D01*
X169185538Y-62457650D01*
X169302284Y-62520053D01*
X169342062Y-62541315D01*
X169377800Y-62570645D01*
X169479257Y-62653907D01*
X169538988Y-62726691D01*
X169591849Y-62791102D01*
X169591850Y-62791104D01*
X169675514Y-62947626D01*
X169675514Y-62947627D01*
X169727034Y-63117466D01*
X169744430Y-63294093D01*
X169727034Y-63470720D01*
X169716484Y-63505499D01*
X169675514Y-63640560D01*
X169615459Y-63752914D01*
X169591849Y-63797084D01*
X169562519Y-63832822D01*
X169479257Y-63934279D01*
X169377800Y-64017541D01*
X169342062Y-64046871D01*
X169342060Y-64046872D01*
X169185538Y-64130536D01*
X169128924Y-64147709D01*
X169015698Y-64182056D01*
X168949513Y-64188575D01*
X168883331Y-64195093D01*
X168794811Y-64195093D01*
X168728629Y-64188575D01*
X168662444Y-64182056D01*
X168549218Y-64147709D01*
X168492604Y-64130536D01*
X168336082Y-64046872D01*
X168336080Y-64046871D01*
X168300342Y-64017541D01*
X168198885Y-63934279D01*
X168115623Y-63832822D01*
X168086293Y-63797084D01*
X168062683Y-63752914D01*
X168002628Y-63640560D01*
X167961658Y-63505499D01*
X167951108Y-63470720D01*
X167933712Y-63294093D01*
X167951108Y-63117466D01*
X168002628Y-62947627D01*
X168002628Y-62947626D01*
X168086292Y-62791104D01*
X168086293Y-62791102D01*
X168139154Y-62726691D01*
X168198885Y-62653907D01*
X168300342Y-62570645D01*
X168336080Y-62541315D01*
X168375858Y-62520053D01*
X168492604Y-62457650D01*
X168549218Y-62440477D01*
X168662444Y-62406130D01*
X168728629Y-62399611D01*
X168794811Y-62393093D01*
X168883331Y-62393093D01*
X168949513Y-62399611D01*
X168949513Y-62399611D01*
G37*
G36*
X143549513Y-62399611D02*
X143615698Y-62406130D01*
X143728924Y-62440477D01*
X143785538Y-62457650D01*
X143902284Y-62520053D01*
X143942062Y-62541315D01*
X143977800Y-62570645D01*
X144079257Y-62653907D01*
X144138988Y-62726691D01*
X144191849Y-62791102D01*
X144191850Y-62791104D01*
X144275514Y-62947626D01*
X144275514Y-62947627D01*
X144327034Y-63117466D01*
X144344430Y-63294093D01*
X144327034Y-63470720D01*
X144316484Y-63505499D01*
X144275514Y-63640560D01*
X144215459Y-63752914D01*
X144191849Y-63797084D01*
X144162519Y-63832822D01*
X144079257Y-63934279D01*
X143977800Y-64017541D01*
X143942062Y-64046871D01*
X143942060Y-64046872D01*
X143785538Y-64130536D01*
X143728924Y-64147709D01*
X143615698Y-64182056D01*
X143549513Y-64188575D01*
X143483331Y-64195093D01*
X143394811Y-64195093D01*
X143328629Y-64188575D01*
X143262444Y-64182056D01*
X143149218Y-64147709D01*
X143092604Y-64130536D01*
X142936082Y-64046872D01*
X142936080Y-64046871D01*
X142900342Y-64017541D01*
X142798885Y-63934279D01*
X142715623Y-63832822D01*
X142686293Y-63797084D01*
X142662683Y-63752914D01*
X142602628Y-63640560D01*
X142561658Y-63505499D01*
X142551108Y-63470720D01*
X142533712Y-63294093D01*
X142551108Y-63117466D01*
X142602628Y-62947627D01*
X142602628Y-62947626D01*
X142686292Y-62791104D01*
X142686293Y-62791102D01*
X142739154Y-62726691D01*
X142798885Y-62653907D01*
X142900342Y-62570645D01*
X142936080Y-62541315D01*
X142975858Y-62520053D01*
X143092604Y-62457650D01*
X143149218Y-62440477D01*
X143262444Y-62406130D01*
X143328629Y-62399611D01*
X143394811Y-62393093D01*
X143483331Y-62393093D01*
X143549513Y-62399611D01*
X143549513Y-62399611D01*
G37*
G36*
X158333565Y-62605359D02*
X158371059Y-62616733D01*
X158405623Y-62635208D01*
X158435913Y-62660067D01*
X158460772Y-62690357D01*
X158479247Y-62724921D01*
X158490621Y-62762415D01*
X158495066Y-62807552D01*
X158495066Y-63546276D01*
X158490621Y-63591413D01*
X158479247Y-63628907D01*
X158460772Y-63663471D01*
X158435913Y-63693761D01*
X158405623Y-63718620D01*
X158371059Y-63737095D01*
X158333565Y-63748469D01*
X158288428Y-63752914D01*
X157649704Y-63752914D01*
X157604567Y-63748469D01*
X157567073Y-63737095D01*
X157532509Y-63718620D01*
X157502219Y-63693761D01*
X157477360Y-63663471D01*
X157458885Y-63628907D01*
X157447511Y-63591413D01*
X157443066Y-63546276D01*
X157443066Y-62807552D01*
X157447511Y-62762415D01*
X157458885Y-62724921D01*
X157477360Y-62690357D01*
X157502219Y-62660067D01*
X157532509Y-62635208D01*
X157567073Y-62616733D01*
X157604567Y-62605359D01*
X157649704Y-62600914D01*
X158288428Y-62600914D01*
X158333565Y-62605359D01*
X158333565Y-62605359D01*
G37*
G36*
X156549963Y-62605359D02*
X156587457Y-62616733D01*
X156622021Y-62635208D01*
X156652311Y-62660067D01*
X156677170Y-62690357D01*
X156695645Y-62724921D01*
X156707019Y-62762415D01*
X156711464Y-62807552D01*
X156711464Y-63546276D01*
X156707019Y-63591413D01*
X156695645Y-63628907D01*
X156677170Y-63663471D01*
X156652311Y-63693761D01*
X156622021Y-63718620D01*
X156587457Y-63737095D01*
X156549963Y-63748469D01*
X156504826Y-63752914D01*
X155866102Y-63752914D01*
X155820965Y-63748469D01*
X155783471Y-63737095D01*
X155748907Y-63718620D01*
X155718617Y-63693761D01*
X155693758Y-63663471D01*
X155675283Y-63628907D01*
X155663909Y-63591413D01*
X155659464Y-63546276D01*
X155659464Y-62807552D01*
X155663909Y-62762415D01*
X155675283Y-62724921D01*
X155693758Y-62690357D01*
X155718617Y-62660067D01*
X155748907Y-62635208D01*
X155783471Y-62616733D01*
X155820965Y-62605359D01*
X155866102Y-62600914D01*
X156504826Y-62600914D01*
X156549963Y-62605359D01*
X156549963Y-62605359D01*
G37*
G36*
X166607499Y-62519445D02*
X166644993Y-62530819D01*
X166679557Y-62549294D01*
X166709847Y-62574153D01*
X166734706Y-62604443D01*
X166753181Y-62639007D01*
X166764555Y-62676501D01*
X166769000Y-62721638D01*
X166769000Y-63460362D01*
X166764555Y-63505499D01*
X166753181Y-63542993D01*
X166734706Y-63577557D01*
X166709847Y-63607847D01*
X166679557Y-63632706D01*
X166644993Y-63651181D01*
X166607499Y-63662555D01*
X166562362Y-63667000D01*
X165923638Y-63667000D01*
X165878501Y-63662555D01*
X165841007Y-63651181D01*
X165806443Y-63632706D01*
X165776153Y-63607847D01*
X165751294Y-63577557D01*
X165732819Y-63542993D01*
X165721445Y-63505499D01*
X165717000Y-63460362D01*
X165717000Y-62721638D01*
X165721445Y-62676501D01*
X165732819Y-62639007D01*
X165751294Y-62604443D01*
X165776153Y-62574153D01*
X165806443Y-62549294D01*
X165841007Y-62530819D01*
X165878501Y-62519445D01*
X165923638Y-62515000D01*
X166562362Y-62515000D01*
X166607499Y-62519445D01*
X166607499Y-62519445D01*
G37*
G36*
X151397293Y-61105323D02*
X151404312Y-61107452D01*
X151410775Y-61110907D01*
X151416442Y-61115558D01*
X151421093Y-61121225D01*
X151424548Y-61127688D01*
X151426677Y-61134707D01*
X151427602Y-61144099D01*
X151432382Y-61168132D01*
X151441760Y-61190771D01*
X151455374Y-61211146D01*
X151472701Y-61228473D01*
X151493075Y-61242087D01*
X151515714Y-61251464D01*
X151539748Y-61256245D01*
X151564252Y-61256245D01*
X151588285Y-61251465D01*
X151610924Y-61242087D01*
X151631299Y-61228473D01*
X151648626Y-61211146D01*
X151662240Y-61190772D01*
X151671617Y-61168133D01*
X151676398Y-61144099D01*
X151677323Y-61134707D01*
X151679452Y-61127688D01*
X151682907Y-61121225D01*
X151687558Y-61115558D01*
X151693225Y-61110907D01*
X151699688Y-61107452D01*
X151706707Y-61105323D01*
X151720140Y-61104000D01*
X152033860Y-61104000D01*
X152047293Y-61105323D01*
X152054312Y-61107452D01*
X152060775Y-61110907D01*
X152066442Y-61115558D01*
X152071093Y-61121225D01*
X152074548Y-61127688D01*
X152076677Y-61134707D01*
X152077602Y-61144099D01*
X152082382Y-61168132D01*
X152091760Y-61190771D01*
X152105374Y-61211146D01*
X152122701Y-61228473D01*
X152143075Y-61242087D01*
X152165714Y-61251464D01*
X152189748Y-61256245D01*
X152214252Y-61256245D01*
X152238285Y-61251465D01*
X152260924Y-61242087D01*
X152281299Y-61228473D01*
X152298626Y-61211146D01*
X152312240Y-61190772D01*
X152321617Y-61168133D01*
X152326398Y-61144099D01*
X152327323Y-61134707D01*
X152329452Y-61127688D01*
X152332907Y-61121225D01*
X152337558Y-61115558D01*
X152343225Y-61110907D01*
X152349688Y-61107452D01*
X152356707Y-61105323D01*
X152370140Y-61104000D01*
X152683860Y-61104000D01*
X152697293Y-61105323D01*
X152704312Y-61107452D01*
X152710775Y-61110907D01*
X152716442Y-61115558D01*
X152721093Y-61121225D01*
X152724548Y-61127688D01*
X152726677Y-61134707D01*
X152727602Y-61144099D01*
X152732382Y-61168132D01*
X152741760Y-61190771D01*
X152755374Y-61211146D01*
X152772701Y-61228473D01*
X152793075Y-61242087D01*
X152815714Y-61251464D01*
X152839748Y-61256245D01*
X152864252Y-61256245D01*
X152888285Y-61251465D01*
X152910924Y-61242087D01*
X152931299Y-61228473D01*
X152948626Y-61211146D01*
X152962240Y-61190772D01*
X152971617Y-61168133D01*
X152976398Y-61144099D01*
X152977323Y-61134707D01*
X152979452Y-61127688D01*
X152982907Y-61121225D01*
X152987558Y-61115558D01*
X152993225Y-61110907D01*
X152999688Y-61107452D01*
X153006707Y-61105323D01*
X153020140Y-61104000D01*
X153333860Y-61104000D01*
X153347293Y-61105323D01*
X153354312Y-61107452D01*
X153360775Y-61110907D01*
X153366442Y-61115558D01*
X153371093Y-61121225D01*
X153374548Y-61127688D01*
X153376677Y-61134707D01*
X153377602Y-61144099D01*
X153382382Y-61168132D01*
X153391760Y-61190771D01*
X153405374Y-61211146D01*
X153422701Y-61228473D01*
X153443075Y-61242087D01*
X153465714Y-61251464D01*
X153489748Y-61256245D01*
X153514252Y-61256245D01*
X153538285Y-61251465D01*
X153560924Y-61242087D01*
X153581299Y-61228473D01*
X153598626Y-61211146D01*
X153612240Y-61190772D01*
X153621617Y-61168133D01*
X153626398Y-61144099D01*
X153627323Y-61134707D01*
X153629452Y-61127688D01*
X153632907Y-61121225D01*
X153637558Y-61115558D01*
X153643225Y-61110907D01*
X153649688Y-61107452D01*
X153656707Y-61105323D01*
X153670140Y-61104000D01*
X153983860Y-61104000D01*
X153997293Y-61105323D01*
X154004312Y-61107452D01*
X154010775Y-61110907D01*
X154016442Y-61115558D01*
X154021093Y-61121225D01*
X154024548Y-61127688D01*
X154026677Y-61134707D01*
X154028000Y-61148140D01*
X154028000Y-61911860D01*
X154026677Y-61925293D01*
X154024548Y-61932312D01*
X154021093Y-61938775D01*
X154016442Y-61944442D01*
X154010775Y-61949093D01*
X154004312Y-61952548D01*
X153997293Y-61954677D01*
X153983860Y-61956000D01*
X153670140Y-61956000D01*
X153656707Y-61954677D01*
X153649688Y-61952548D01*
X153643225Y-61949093D01*
X153637558Y-61944442D01*
X153632907Y-61938775D01*
X153629452Y-61932312D01*
X153627323Y-61925293D01*
X153626398Y-61915901D01*
X153621618Y-61891868D01*
X153612240Y-61869229D01*
X153598626Y-61848854D01*
X153581299Y-61831527D01*
X153560925Y-61817913D01*
X153538286Y-61808536D01*
X153514252Y-61803755D01*
X153489748Y-61803755D01*
X153465715Y-61808535D01*
X153443076Y-61817913D01*
X153422701Y-61831527D01*
X153405374Y-61848854D01*
X153391760Y-61869228D01*
X153382383Y-61891867D01*
X153377602Y-61915901D01*
X153376677Y-61925293D01*
X153374548Y-61932312D01*
X153371093Y-61938775D01*
X153366442Y-61944442D01*
X153360775Y-61949093D01*
X153354312Y-61952548D01*
X153347293Y-61954677D01*
X153333860Y-61956000D01*
X153020140Y-61956000D01*
X153006707Y-61954677D01*
X152999688Y-61952548D01*
X152993225Y-61949093D01*
X152987558Y-61944442D01*
X152982907Y-61938775D01*
X152979452Y-61932312D01*
X152977323Y-61925293D01*
X152976398Y-61915901D01*
X152971618Y-61891868D01*
X152962240Y-61869229D01*
X152948626Y-61848854D01*
X152931299Y-61831527D01*
X152910925Y-61817913D01*
X152888286Y-61808536D01*
X152864252Y-61803755D01*
X152839748Y-61803755D01*
X152815715Y-61808535D01*
X152793076Y-61817913D01*
X152772701Y-61831527D01*
X152755374Y-61848854D01*
X152741760Y-61869228D01*
X152732383Y-61891867D01*
X152727602Y-61915901D01*
X152726677Y-61925293D01*
X152724548Y-61932312D01*
X152721093Y-61938775D01*
X152716442Y-61944442D01*
X152710775Y-61949093D01*
X152704312Y-61952548D01*
X152697293Y-61954677D01*
X152683860Y-61956000D01*
X152370140Y-61956000D01*
X152356707Y-61954677D01*
X152349688Y-61952548D01*
X152343225Y-61949093D01*
X152337558Y-61944442D01*
X152332907Y-61938775D01*
X152329452Y-61932312D01*
X152327323Y-61925293D01*
X152326398Y-61915901D01*
X152321618Y-61891868D01*
X152312240Y-61869229D01*
X152298626Y-61848854D01*
X152281299Y-61831527D01*
X152260925Y-61817913D01*
X152238286Y-61808536D01*
X152214252Y-61803755D01*
X152189748Y-61803755D01*
X152165715Y-61808535D01*
X152143076Y-61817913D01*
X152122701Y-61831527D01*
X152105374Y-61848854D01*
X152091760Y-61869228D01*
X152082383Y-61891867D01*
X152077602Y-61915901D01*
X152076677Y-61925293D01*
X152074548Y-61932312D01*
X152071093Y-61938775D01*
X152066442Y-61944442D01*
X152060775Y-61949093D01*
X152054312Y-61952548D01*
X152047293Y-61954677D01*
X152033860Y-61956000D01*
X151720140Y-61956000D01*
X151706707Y-61954677D01*
X151699688Y-61952548D01*
X151693225Y-61949093D01*
X151687558Y-61944442D01*
X151682907Y-61938775D01*
X151679452Y-61932312D01*
X151677323Y-61925293D01*
X151676398Y-61915901D01*
X151671618Y-61891868D01*
X151662240Y-61869229D01*
X151648626Y-61848854D01*
X151631299Y-61831527D01*
X151610925Y-61817913D01*
X151588286Y-61808536D01*
X151564252Y-61803755D01*
X151539748Y-61803755D01*
X151515715Y-61808535D01*
X151493076Y-61817913D01*
X151472701Y-61831527D01*
X151455374Y-61848854D01*
X151441760Y-61869228D01*
X151432383Y-61891867D01*
X151427602Y-61915901D01*
X151426677Y-61925293D01*
X151424548Y-61932312D01*
X151421093Y-61938775D01*
X151416442Y-61944442D01*
X151410775Y-61949093D01*
X151404312Y-61952548D01*
X151397293Y-61954677D01*
X151383860Y-61956000D01*
X151070140Y-61956000D01*
X151056707Y-61954677D01*
X151049688Y-61952548D01*
X151043225Y-61949093D01*
X151037558Y-61944442D01*
X151032907Y-61938775D01*
X151029452Y-61932312D01*
X151027323Y-61925293D01*
X151026000Y-61911860D01*
X151026000Y-61148140D01*
X151027323Y-61134707D01*
X151029452Y-61127688D01*
X151032907Y-61121225D01*
X151037558Y-61115558D01*
X151043225Y-61110907D01*
X151049688Y-61107452D01*
X151056707Y-61105323D01*
X151070140Y-61104000D01*
X151383860Y-61104000D01*
X151397293Y-61105323D01*
X151397293Y-61105323D01*
G37*
G36*
X166607499Y-60769445D02*
X166644993Y-60780819D01*
X166679557Y-60799294D01*
X166709847Y-60824153D01*
X166734706Y-60854443D01*
X166753181Y-60889007D01*
X166764555Y-60926501D01*
X166769000Y-60971638D01*
X166769000Y-61710362D01*
X166764555Y-61755499D01*
X166753181Y-61792993D01*
X166734706Y-61827557D01*
X166709847Y-61857847D01*
X166679557Y-61882706D01*
X166644993Y-61901181D01*
X166607499Y-61912555D01*
X166562362Y-61917000D01*
X165923638Y-61917000D01*
X165878501Y-61912555D01*
X165841007Y-61901181D01*
X165806443Y-61882706D01*
X165776153Y-61857847D01*
X165751294Y-61827557D01*
X165732819Y-61792993D01*
X165721445Y-61755499D01*
X165717000Y-61710362D01*
X165717000Y-60971638D01*
X165721445Y-60926501D01*
X165732819Y-60889007D01*
X165751294Y-60854443D01*
X165776153Y-60824153D01*
X165806443Y-60799294D01*
X165841007Y-60780819D01*
X165878501Y-60769445D01*
X165923638Y-60765000D01*
X166562362Y-60765000D01*
X166607499Y-60769445D01*
X166607499Y-60769445D01*
G37*
G36*
X168949513Y-59859611D02*
X169015698Y-59866130D01*
X169109030Y-59894442D01*
X169185538Y-59917650D01*
X169324158Y-59991745D01*
X169342062Y-60001315D01*
X169377800Y-60030645D01*
X169479257Y-60113907D01*
X169536317Y-60183436D01*
X169591849Y-60251102D01*
X169591850Y-60251104D01*
X169675514Y-60407626D01*
X169675514Y-60407627D01*
X169727034Y-60577466D01*
X169744430Y-60754093D01*
X169727034Y-60930720D01*
X169713089Y-60976691D01*
X169675514Y-61100560D01*
X169639395Y-61168132D01*
X169591849Y-61257084D01*
X169562519Y-61292822D01*
X169479257Y-61394279D01*
X169383900Y-61472535D01*
X169342062Y-61506871D01*
X169342060Y-61506872D01*
X169185538Y-61590536D01*
X169128924Y-61607709D01*
X169015698Y-61642056D01*
X168949513Y-61648575D01*
X168883331Y-61655093D01*
X168794811Y-61655093D01*
X168728629Y-61648575D01*
X168662444Y-61642056D01*
X168549218Y-61607709D01*
X168492604Y-61590536D01*
X168336082Y-61506872D01*
X168336080Y-61506871D01*
X168294242Y-61472535D01*
X168198885Y-61394279D01*
X168115623Y-61292822D01*
X168086293Y-61257084D01*
X168038747Y-61168132D01*
X168002628Y-61100560D01*
X167965053Y-60976691D01*
X167951108Y-60930720D01*
X167933712Y-60754093D01*
X167951108Y-60577466D01*
X168002628Y-60407627D01*
X168002628Y-60407626D01*
X168086292Y-60251104D01*
X168086293Y-60251102D01*
X168141825Y-60183436D01*
X168198885Y-60113907D01*
X168300342Y-60030645D01*
X168336080Y-60001315D01*
X168353984Y-59991745D01*
X168492604Y-59917650D01*
X168569112Y-59894442D01*
X168662444Y-59866130D01*
X168728629Y-59859611D01*
X168794811Y-59853093D01*
X168883331Y-59853093D01*
X168949513Y-59859611D01*
X168949513Y-59859611D01*
G37*
G36*
X143549513Y-59859611D02*
X143615698Y-59866130D01*
X143709030Y-59894442D01*
X143785538Y-59917650D01*
X143924158Y-59991745D01*
X143942062Y-60001315D01*
X143977800Y-60030645D01*
X144079257Y-60113907D01*
X144136317Y-60183436D01*
X144191849Y-60251102D01*
X144191850Y-60251104D01*
X144275514Y-60407626D01*
X144275514Y-60407627D01*
X144327034Y-60577466D01*
X144344430Y-60754093D01*
X144327034Y-60930720D01*
X144313089Y-60976691D01*
X144275514Y-61100560D01*
X144239395Y-61168132D01*
X144191849Y-61257084D01*
X144162519Y-61292822D01*
X144079257Y-61394279D01*
X143983900Y-61472535D01*
X143942062Y-61506871D01*
X143942060Y-61506872D01*
X143785538Y-61590536D01*
X143728924Y-61607709D01*
X143615698Y-61642056D01*
X143549513Y-61648575D01*
X143483331Y-61655093D01*
X143394811Y-61655093D01*
X143328629Y-61648575D01*
X143262444Y-61642056D01*
X143149218Y-61607709D01*
X143092604Y-61590536D01*
X142936082Y-61506872D01*
X142936080Y-61506871D01*
X142894242Y-61472535D01*
X142798885Y-61394279D01*
X142715623Y-61292822D01*
X142686293Y-61257084D01*
X142638747Y-61168132D01*
X142602628Y-61100560D01*
X142565053Y-60976691D01*
X142551108Y-60930720D01*
X142533712Y-60754093D01*
X142551108Y-60577466D01*
X142602628Y-60407627D01*
X142602628Y-60407626D01*
X142686292Y-60251104D01*
X142686293Y-60251102D01*
X142741825Y-60183436D01*
X142798885Y-60113907D01*
X142900342Y-60030645D01*
X142936080Y-60001315D01*
X142953984Y-59991745D01*
X143092604Y-59917650D01*
X143169112Y-59894442D01*
X143262444Y-59866130D01*
X143328629Y-59859611D01*
X143394811Y-59853093D01*
X143483331Y-59853093D01*
X143549513Y-59859611D01*
X143549513Y-59859611D01*
G37*
G36*
X157560677Y-60229465D02*
X157598364Y-60240898D01*
X157633103Y-60259466D01*
X157663548Y-60284452D01*
X157688534Y-60314897D01*
X157707102Y-60349636D01*
X157718535Y-60387323D01*
X157723000Y-60432661D01*
X157723000Y-61269339D01*
X157718535Y-61314677D01*
X157707102Y-61352364D01*
X157688534Y-61387103D01*
X157663548Y-61417548D01*
X157633103Y-61442534D01*
X157598364Y-61461102D01*
X157560677Y-61472535D01*
X157515339Y-61477000D01*
X156428661Y-61477000D01*
X156383323Y-61472535D01*
X156345636Y-61461102D01*
X156310897Y-61442534D01*
X156280452Y-61417548D01*
X156255466Y-61387103D01*
X156236898Y-61352364D01*
X156225465Y-61314677D01*
X156221000Y-61269339D01*
X156221000Y-60432661D01*
X156225465Y-60387323D01*
X156236898Y-60349636D01*
X156255466Y-60314897D01*
X156280452Y-60284452D01*
X156310897Y-60259466D01*
X156345636Y-60240898D01*
X156383323Y-60229465D01*
X156428661Y-60225000D01*
X157515339Y-60225000D01*
X157560677Y-60229465D01*
X157560677Y-60229465D01*
G37*
G36*
X154131123Y-57332499D02*
X154159387Y-57341073D01*
X154185437Y-57354997D01*
X154208267Y-57373733D01*
X154227003Y-57396563D01*
X154240927Y-57422613D01*
X154249501Y-57450877D01*
X154253000Y-57486407D01*
X154253000Y-60623593D01*
X154249501Y-60659123D01*
X154240927Y-60687387D01*
X154227003Y-60713437D01*
X154208267Y-60736267D01*
X154185437Y-60755003D01*
X154159387Y-60768927D01*
X154131123Y-60777501D01*
X154095593Y-60781000D01*
X150958407Y-60781000D01*
X150922877Y-60777501D01*
X150894613Y-60768927D01*
X150868563Y-60755003D01*
X150845733Y-60736267D01*
X150826997Y-60713437D01*
X150813073Y-60687387D01*
X150804499Y-60659123D01*
X150801000Y-60623593D01*
X150801000Y-57486407D01*
X150804499Y-57450877D01*
X150813073Y-57422613D01*
X150826997Y-57396563D01*
X150845733Y-57373733D01*
X150868563Y-57354997D01*
X150894613Y-57341073D01*
X150922877Y-57332499D01*
X150958407Y-57329000D01*
X154095593Y-57329000D01*
X154131123Y-57332499D01*
X154131123Y-57332499D01*
G37*
G36*
X155397293Y-57555323D02*
X155404312Y-57557452D01*
X155410775Y-57560907D01*
X155416442Y-57565558D01*
X155421093Y-57571225D01*
X155424548Y-57577688D01*
X155426677Y-57584707D01*
X155428000Y-57598140D01*
X155428000Y-57911860D01*
X155426677Y-57925293D01*
X155424548Y-57932312D01*
X155421093Y-57938775D01*
X155416442Y-57944442D01*
X155410775Y-57949093D01*
X155404312Y-57952548D01*
X155397293Y-57954677D01*
X155387901Y-57955602D01*
X155363868Y-57960382D01*
X155341229Y-57969760D01*
X155320854Y-57983374D01*
X155303527Y-58000701D01*
X155289913Y-58021075D01*
X155280536Y-58043714D01*
X155275755Y-58067748D01*
X155275755Y-58092252D01*
X155280535Y-58116285D01*
X155289913Y-58138924D01*
X155303527Y-58159299D01*
X155320854Y-58176626D01*
X155341228Y-58190240D01*
X155363867Y-58199617D01*
X155387901Y-58204398D01*
X155397293Y-58205323D01*
X155404312Y-58207452D01*
X155410775Y-58210907D01*
X155416442Y-58215558D01*
X155421093Y-58221225D01*
X155424548Y-58227688D01*
X155426677Y-58234707D01*
X155428000Y-58248140D01*
X155428000Y-58561860D01*
X155426677Y-58575293D01*
X155424548Y-58582312D01*
X155421093Y-58588775D01*
X155416442Y-58594442D01*
X155410775Y-58599093D01*
X155404312Y-58602548D01*
X155397293Y-58604677D01*
X155387901Y-58605602D01*
X155363868Y-58610382D01*
X155341229Y-58619760D01*
X155320854Y-58633374D01*
X155303527Y-58650701D01*
X155289913Y-58671075D01*
X155280536Y-58693714D01*
X155275755Y-58717748D01*
X155275755Y-58742252D01*
X155280535Y-58766285D01*
X155289913Y-58788924D01*
X155303527Y-58809299D01*
X155320854Y-58826626D01*
X155341228Y-58840240D01*
X155363867Y-58849617D01*
X155387901Y-58854398D01*
X155397293Y-58855323D01*
X155404312Y-58857452D01*
X155410775Y-58860907D01*
X155416442Y-58865558D01*
X155421093Y-58871225D01*
X155424548Y-58877688D01*
X155426677Y-58884707D01*
X155428000Y-58898140D01*
X155428000Y-59211860D01*
X155426677Y-59225293D01*
X155424548Y-59232312D01*
X155421093Y-59238775D01*
X155416442Y-59244442D01*
X155410775Y-59249093D01*
X155404312Y-59252548D01*
X155397293Y-59254677D01*
X155387901Y-59255602D01*
X155363868Y-59260382D01*
X155341229Y-59269760D01*
X155320854Y-59283374D01*
X155303527Y-59300701D01*
X155289913Y-59321075D01*
X155280536Y-59343714D01*
X155275755Y-59367748D01*
X155275755Y-59392252D01*
X155280535Y-59416285D01*
X155289913Y-59438924D01*
X155303527Y-59459299D01*
X155320854Y-59476626D01*
X155341228Y-59490240D01*
X155363867Y-59499617D01*
X155387901Y-59504398D01*
X155397293Y-59505323D01*
X155404312Y-59507452D01*
X155410775Y-59510907D01*
X155416442Y-59515558D01*
X155421093Y-59521225D01*
X155424548Y-59527688D01*
X155426677Y-59534707D01*
X155428000Y-59548140D01*
X155428000Y-59861860D01*
X155426677Y-59875293D01*
X155424548Y-59882312D01*
X155421093Y-59888775D01*
X155416442Y-59894442D01*
X155410775Y-59899093D01*
X155404312Y-59902548D01*
X155397293Y-59904677D01*
X155387901Y-59905602D01*
X155363868Y-59910382D01*
X155341229Y-59919760D01*
X155320854Y-59933374D01*
X155303527Y-59950701D01*
X155289913Y-59971075D01*
X155280536Y-59993714D01*
X155275755Y-60017748D01*
X155275755Y-60042252D01*
X155280535Y-60066285D01*
X155289913Y-60088924D01*
X155303527Y-60109299D01*
X155320854Y-60126626D01*
X155341228Y-60140240D01*
X155363867Y-60149617D01*
X155387901Y-60154398D01*
X155397293Y-60155323D01*
X155404312Y-60157452D01*
X155410775Y-60160907D01*
X155416442Y-60165558D01*
X155421093Y-60171225D01*
X155424548Y-60177688D01*
X155426677Y-60184707D01*
X155428000Y-60198140D01*
X155428000Y-60511860D01*
X155426677Y-60525293D01*
X155424548Y-60532312D01*
X155421093Y-60538775D01*
X155416442Y-60544442D01*
X155410775Y-60549093D01*
X155404312Y-60552548D01*
X155397293Y-60554677D01*
X155383860Y-60556000D01*
X154620140Y-60556000D01*
X154606707Y-60554677D01*
X154599688Y-60552548D01*
X154593225Y-60549093D01*
X154587558Y-60544442D01*
X154582907Y-60538775D01*
X154579452Y-60532312D01*
X154577323Y-60525293D01*
X154576000Y-60511860D01*
X154576000Y-60198140D01*
X154577323Y-60184707D01*
X154579452Y-60177688D01*
X154582907Y-60171225D01*
X154587558Y-60165558D01*
X154593225Y-60160907D01*
X154599688Y-60157452D01*
X154606707Y-60155323D01*
X154616099Y-60154398D01*
X154640132Y-60149618D01*
X154662771Y-60140240D01*
X154683146Y-60126626D01*
X154700473Y-60109299D01*
X154714087Y-60088925D01*
X154723464Y-60066286D01*
X154728245Y-60042252D01*
X154728245Y-60017748D01*
X154723465Y-59993715D01*
X154714087Y-59971076D01*
X154700473Y-59950701D01*
X154683146Y-59933374D01*
X154662772Y-59919760D01*
X154640133Y-59910383D01*
X154616099Y-59905602D01*
X154606707Y-59904677D01*
X154599688Y-59902548D01*
X154593225Y-59899093D01*
X154587558Y-59894442D01*
X154582907Y-59888775D01*
X154579452Y-59882312D01*
X154577323Y-59875293D01*
X154576000Y-59861860D01*
X154576000Y-59548140D01*
X154577323Y-59534707D01*
X154579452Y-59527688D01*
X154582907Y-59521225D01*
X154587558Y-59515558D01*
X154593225Y-59510907D01*
X154599688Y-59507452D01*
X154606707Y-59505323D01*
X154616099Y-59504398D01*
X154640132Y-59499618D01*
X154662771Y-59490240D01*
X154683146Y-59476626D01*
X154700473Y-59459299D01*
X154714087Y-59438925D01*
X154723464Y-59416286D01*
X154728245Y-59392252D01*
X154728245Y-59367748D01*
X154723465Y-59343715D01*
X154714087Y-59321076D01*
X154700473Y-59300701D01*
X154683146Y-59283374D01*
X154662772Y-59269760D01*
X154640133Y-59260383D01*
X154616099Y-59255602D01*
X154606707Y-59254677D01*
X154599688Y-59252548D01*
X154593225Y-59249093D01*
X154587558Y-59244442D01*
X154582907Y-59238775D01*
X154579452Y-59232312D01*
X154577323Y-59225293D01*
X154576000Y-59211860D01*
X154576000Y-58898140D01*
X154577323Y-58884707D01*
X154579452Y-58877688D01*
X154582907Y-58871225D01*
X154587558Y-58865558D01*
X154593225Y-58860907D01*
X154599688Y-58857452D01*
X154606707Y-58855323D01*
X154616099Y-58854398D01*
X154640132Y-58849618D01*
X154662771Y-58840240D01*
X154683146Y-58826626D01*
X154700473Y-58809299D01*
X154714087Y-58788925D01*
X154723464Y-58766286D01*
X154728245Y-58742252D01*
X154728245Y-58717748D01*
X154723465Y-58693715D01*
X154714087Y-58671076D01*
X154700473Y-58650701D01*
X154683146Y-58633374D01*
X154662772Y-58619760D01*
X154640133Y-58610383D01*
X154616099Y-58605602D01*
X154606707Y-58604677D01*
X154599688Y-58602548D01*
X154593225Y-58599093D01*
X154587558Y-58594442D01*
X154582907Y-58588775D01*
X154579452Y-58582312D01*
X154577323Y-58575293D01*
X154576000Y-58561860D01*
X154576000Y-58248140D01*
X154577323Y-58234707D01*
X154579452Y-58227688D01*
X154582907Y-58221225D01*
X154587558Y-58215558D01*
X154593225Y-58210907D01*
X154599688Y-58207452D01*
X154606707Y-58205323D01*
X154616099Y-58204398D01*
X154640132Y-58199618D01*
X154662771Y-58190240D01*
X154683146Y-58176626D01*
X154700473Y-58159299D01*
X154714087Y-58138925D01*
X154723464Y-58116286D01*
X154728245Y-58092252D01*
X154728245Y-58067748D01*
X154723465Y-58043715D01*
X154714087Y-58021076D01*
X154700473Y-58000701D01*
X154683146Y-57983374D01*
X154662772Y-57969760D01*
X154640133Y-57960383D01*
X154616099Y-57955602D01*
X154606707Y-57954677D01*
X154599688Y-57952548D01*
X154593225Y-57949093D01*
X154587558Y-57944442D01*
X154582907Y-57938775D01*
X154579452Y-57932312D01*
X154577323Y-57925293D01*
X154576000Y-57911860D01*
X154576000Y-57598140D01*
X154577323Y-57584707D01*
X154579452Y-57577688D01*
X154582907Y-57571225D01*
X154587558Y-57565558D01*
X154593225Y-57560907D01*
X154599688Y-57557452D01*
X154606707Y-57555323D01*
X154620140Y-57554000D01*
X155383860Y-57554000D01*
X155397293Y-57555323D01*
X155397293Y-57555323D01*
G37*
G36*
X150447293Y-57555323D02*
X150454312Y-57557452D01*
X150460775Y-57560907D01*
X150466442Y-57565558D01*
X150471093Y-57571225D01*
X150474548Y-57577688D01*
X150476677Y-57584707D01*
X150478000Y-57598140D01*
X150478000Y-57911860D01*
X150476677Y-57925293D01*
X150474548Y-57932312D01*
X150471093Y-57938775D01*
X150466442Y-57944442D01*
X150460775Y-57949093D01*
X150454312Y-57952548D01*
X150447293Y-57954677D01*
X150437901Y-57955602D01*
X150413868Y-57960382D01*
X150391229Y-57969760D01*
X150370854Y-57983374D01*
X150353527Y-58000701D01*
X150339913Y-58021075D01*
X150330536Y-58043714D01*
X150325755Y-58067748D01*
X150325755Y-58092252D01*
X150330535Y-58116285D01*
X150339913Y-58138924D01*
X150353527Y-58159299D01*
X150370854Y-58176626D01*
X150391228Y-58190240D01*
X150413867Y-58199617D01*
X150437901Y-58204398D01*
X150447293Y-58205323D01*
X150454312Y-58207452D01*
X150460775Y-58210907D01*
X150466442Y-58215558D01*
X150471093Y-58221225D01*
X150474548Y-58227688D01*
X150476677Y-58234707D01*
X150478000Y-58248140D01*
X150478000Y-58561860D01*
X150476677Y-58575293D01*
X150474548Y-58582312D01*
X150471093Y-58588775D01*
X150466442Y-58594442D01*
X150460775Y-58599093D01*
X150454312Y-58602548D01*
X150447293Y-58604677D01*
X150437901Y-58605602D01*
X150413868Y-58610382D01*
X150391229Y-58619760D01*
X150370854Y-58633374D01*
X150353527Y-58650701D01*
X150339913Y-58671075D01*
X150330536Y-58693714D01*
X150325755Y-58717748D01*
X150325755Y-58742252D01*
X150330535Y-58766285D01*
X150339913Y-58788924D01*
X150353527Y-58809299D01*
X150370854Y-58826626D01*
X150391228Y-58840240D01*
X150413867Y-58849617D01*
X150437901Y-58854398D01*
X150447293Y-58855323D01*
X150454312Y-58857452D01*
X150460775Y-58860907D01*
X150466442Y-58865558D01*
X150471093Y-58871225D01*
X150474548Y-58877688D01*
X150476677Y-58884707D01*
X150478000Y-58898140D01*
X150478000Y-59211860D01*
X150476677Y-59225293D01*
X150474548Y-59232312D01*
X150471093Y-59238775D01*
X150466442Y-59244442D01*
X150460775Y-59249093D01*
X150454312Y-59252548D01*
X150447293Y-59254677D01*
X150437901Y-59255602D01*
X150413868Y-59260382D01*
X150391229Y-59269760D01*
X150370854Y-59283374D01*
X150353527Y-59300701D01*
X150339913Y-59321075D01*
X150330536Y-59343714D01*
X150325755Y-59367748D01*
X150325755Y-59392252D01*
X150330535Y-59416285D01*
X150339913Y-59438924D01*
X150353527Y-59459299D01*
X150370854Y-59476626D01*
X150391228Y-59490240D01*
X150413867Y-59499617D01*
X150437901Y-59504398D01*
X150447293Y-59505323D01*
X150454312Y-59507452D01*
X150460775Y-59510907D01*
X150466442Y-59515558D01*
X150471093Y-59521225D01*
X150474548Y-59527688D01*
X150476677Y-59534707D01*
X150478000Y-59548140D01*
X150478000Y-59861860D01*
X150476677Y-59875293D01*
X150474548Y-59882312D01*
X150471093Y-59888775D01*
X150466442Y-59894442D01*
X150460775Y-59899093D01*
X150454312Y-59902548D01*
X150447293Y-59904677D01*
X150437901Y-59905602D01*
X150413868Y-59910382D01*
X150391229Y-59919760D01*
X150370854Y-59933374D01*
X150353527Y-59950701D01*
X150339913Y-59971075D01*
X150330536Y-59993714D01*
X150325755Y-60017748D01*
X150325755Y-60042252D01*
X150330535Y-60066285D01*
X150339913Y-60088924D01*
X150353527Y-60109299D01*
X150370854Y-60126626D01*
X150391228Y-60140240D01*
X150413867Y-60149617D01*
X150437901Y-60154398D01*
X150447293Y-60155323D01*
X150454312Y-60157452D01*
X150460775Y-60160907D01*
X150466442Y-60165558D01*
X150471093Y-60171225D01*
X150474548Y-60177688D01*
X150476677Y-60184707D01*
X150478000Y-60198140D01*
X150478000Y-60511860D01*
X150476677Y-60525293D01*
X150474548Y-60532312D01*
X150471093Y-60538775D01*
X150466442Y-60544442D01*
X150460775Y-60549093D01*
X150454312Y-60552548D01*
X150447293Y-60554677D01*
X150433860Y-60556000D01*
X149670140Y-60556000D01*
X149656707Y-60554677D01*
X149649688Y-60552548D01*
X149643225Y-60549093D01*
X149637558Y-60544442D01*
X149632907Y-60538775D01*
X149629452Y-60532312D01*
X149627323Y-60525293D01*
X149626000Y-60511860D01*
X149626000Y-60198140D01*
X149627323Y-60184707D01*
X149629452Y-60177688D01*
X149632907Y-60171225D01*
X149637558Y-60165558D01*
X149643225Y-60160907D01*
X149649688Y-60157452D01*
X149656707Y-60155323D01*
X149666099Y-60154398D01*
X149690132Y-60149618D01*
X149712771Y-60140240D01*
X149733146Y-60126626D01*
X149750473Y-60109299D01*
X149764087Y-60088925D01*
X149773464Y-60066286D01*
X149778245Y-60042252D01*
X149778245Y-60017748D01*
X149773465Y-59993715D01*
X149764087Y-59971076D01*
X149750473Y-59950701D01*
X149733146Y-59933374D01*
X149712772Y-59919760D01*
X149690133Y-59910383D01*
X149666099Y-59905602D01*
X149656707Y-59904677D01*
X149649688Y-59902548D01*
X149643225Y-59899093D01*
X149637558Y-59894442D01*
X149632907Y-59888775D01*
X149629452Y-59882312D01*
X149627323Y-59875293D01*
X149626000Y-59861860D01*
X149626000Y-59548140D01*
X149627323Y-59534707D01*
X149629452Y-59527688D01*
X149632907Y-59521225D01*
X149637558Y-59515558D01*
X149643225Y-59510907D01*
X149649688Y-59507452D01*
X149656707Y-59505323D01*
X149666099Y-59504398D01*
X149690132Y-59499618D01*
X149712771Y-59490240D01*
X149733146Y-59476626D01*
X149750473Y-59459299D01*
X149764087Y-59438925D01*
X149773464Y-59416286D01*
X149778245Y-59392252D01*
X149778245Y-59367748D01*
X149773465Y-59343715D01*
X149764087Y-59321076D01*
X149750473Y-59300701D01*
X149733146Y-59283374D01*
X149712772Y-59269760D01*
X149690133Y-59260383D01*
X149666099Y-59255602D01*
X149656707Y-59254677D01*
X149649688Y-59252548D01*
X149643225Y-59249093D01*
X149637558Y-59244442D01*
X149632907Y-59238775D01*
X149629452Y-59232312D01*
X149627323Y-59225293D01*
X149626000Y-59211860D01*
X149626000Y-58898140D01*
X149627323Y-58884707D01*
X149629452Y-58877688D01*
X149632907Y-58871225D01*
X149637558Y-58865558D01*
X149643225Y-58860907D01*
X149649688Y-58857452D01*
X149656707Y-58855323D01*
X149666099Y-58854398D01*
X149690132Y-58849618D01*
X149712771Y-58840240D01*
X149733146Y-58826626D01*
X149750473Y-58809299D01*
X149764087Y-58788925D01*
X149773464Y-58766286D01*
X149778245Y-58742252D01*
X149778245Y-58717748D01*
X149773465Y-58693715D01*
X149764087Y-58671076D01*
X149750473Y-58650701D01*
X149733146Y-58633374D01*
X149712772Y-58619760D01*
X149690133Y-58610383D01*
X149666099Y-58605602D01*
X149656707Y-58604677D01*
X149649688Y-58602548D01*
X149643225Y-58599093D01*
X149637558Y-58594442D01*
X149632907Y-58588775D01*
X149629452Y-58582312D01*
X149627323Y-58575293D01*
X149626000Y-58561860D01*
X149626000Y-58248140D01*
X149627323Y-58234707D01*
X149629452Y-58227688D01*
X149632907Y-58221225D01*
X149637558Y-58215558D01*
X149643225Y-58210907D01*
X149649688Y-58207452D01*
X149656707Y-58205323D01*
X149666099Y-58204398D01*
X149690132Y-58199618D01*
X149712771Y-58190240D01*
X149733146Y-58176626D01*
X149750473Y-58159299D01*
X149764087Y-58138925D01*
X149773464Y-58116286D01*
X149778245Y-58092252D01*
X149778245Y-58067748D01*
X149773465Y-58043715D01*
X149764087Y-58021076D01*
X149750473Y-58000701D01*
X149733146Y-57983374D01*
X149712772Y-57969760D01*
X149690133Y-57960383D01*
X149666099Y-57955602D01*
X149656707Y-57954677D01*
X149649688Y-57952548D01*
X149643225Y-57949093D01*
X149637558Y-57944442D01*
X149632907Y-57938775D01*
X149629452Y-57932312D01*
X149627323Y-57925293D01*
X149626000Y-57911860D01*
X149626000Y-57598140D01*
X149627323Y-57584707D01*
X149629452Y-57577688D01*
X149632907Y-57571225D01*
X149637558Y-57565558D01*
X149643225Y-57560907D01*
X149649688Y-57557452D01*
X149656707Y-57555323D01*
X149670140Y-57554000D01*
X150433860Y-57554000D01*
X150447293Y-57555323D01*
X150447293Y-57555323D01*
G37*
G36*
X157560677Y-58179465D02*
X157598364Y-58190898D01*
X157633103Y-58209466D01*
X157663548Y-58234452D01*
X157688534Y-58264897D01*
X157707102Y-58299636D01*
X157718535Y-58337323D01*
X157723000Y-58382661D01*
X157723000Y-59219339D01*
X157718535Y-59264677D01*
X157707102Y-59302364D01*
X157688534Y-59337103D01*
X157663548Y-59367548D01*
X157633103Y-59392534D01*
X157598364Y-59411102D01*
X157560677Y-59422535D01*
X157515339Y-59427000D01*
X156428661Y-59427000D01*
X156383323Y-59422535D01*
X156345636Y-59411102D01*
X156310897Y-59392534D01*
X156280452Y-59367548D01*
X156255466Y-59337103D01*
X156236898Y-59302364D01*
X156225465Y-59264677D01*
X156221000Y-59219339D01*
X156221000Y-58382661D01*
X156225465Y-58337323D01*
X156236898Y-58299636D01*
X156255466Y-58264897D01*
X156280452Y-58234452D01*
X156310897Y-58209466D01*
X156345636Y-58190898D01*
X156383323Y-58179465D01*
X156428661Y-58175000D01*
X157515339Y-58175000D01*
X157560677Y-58179465D01*
X157560677Y-58179465D01*
G37*
G36*
X143549514Y-57319612D02*
X143615698Y-57326130D01*
X143710860Y-57354997D01*
X143785538Y-57377650D01*
X143908714Y-57443490D01*
X143942062Y-57461315D01*
X143972636Y-57486407D01*
X144079257Y-57573907D01*
X144145397Y-57654500D01*
X144191849Y-57711102D01*
X144191850Y-57711104D01*
X144275514Y-57867626D01*
X144275514Y-57867627D01*
X144327034Y-58037466D01*
X144344430Y-58214093D01*
X144327034Y-58390720D01*
X144326016Y-58394075D01*
X144275514Y-58560560D01*
X144227332Y-58650701D01*
X144191849Y-58717084D01*
X144171194Y-58742252D01*
X144079257Y-58854279D01*
X143981027Y-58934893D01*
X143942062Y-58966871D01*
X143942060Y-58966872D01*
X143785538Y-59050536D01*
X143728924Y-59067709D01*
X143615698Y-59102056D01*
X143549513Y-59108575D01*
X143483331Y-59115093D01*
X143394811Y-59115093D01*
X143328629Y-59108575D01*
X143262444Y-59102056D01*
X143149218Y-59067709D01*
X143092604Y-59050536D01*
X142936082Y-58966872D01*
X142936080Y-58966871D01*
X142897115Y-58934893D01*
X142798885Y-58854279D01*
X142706948Y-58742252D01*
X142686293Y-58717084D01*
X142650810Y-58650701D01*
X142602628Y-58560560D01*
X142552126Y-58394075D01*
X142551108Y-58390720D01*
X142533712Y-58214093D01*
X142551108Y-58037466D01*
X142602628Y-57867627D01*
X142602628Y-57867626D01*
X142686292Y-57711104D01*
X142686293Y-57711102D01*
X142732745Y-57654500D01*
X142798885Y-57573907D01*
X142905506Y-57486407D01*
X142936080Y-57461315D01*
X142969428Y-57443490D01*
X143092604Y-57377650D01*
X143167282Y-57354997D01*
X143262444Y-57326130D01*
X143328628Y-57319612D01*
X143394811Y-57313093D01*
X143483331Y-57313093D01*
X143549514Y-57319612D01*
X143549514Y-57319612D01*
G37*
G36*
X168949514Y-57319612D02*
X169015698Y-57326130D01*
X169110860Y-57354997D01*
X169185538Y-57377650D01*
X169308714Y-57443490D01*
X169342062Y-57461315D01*
X169372636Y-57486407D01*
X169479257Y-57573907D01*
X169545397Y-57654500D01*
X169591849Y-57711102D01*
X169591850Y-57711104D01*
X169675514Y-57867626D01*
X169675514Y-57867627D01*
X169727034Y-58037466D01*
X169744430Y-58214093D01*
X169727034Y-58390720D01*
X169726016Y-58394075D01*
X169675514Y-58560560D01*
X169627332Y-58650701D01*
X169591849Y-58717084D01*
X169571194Y-58742252D01*
X169479257Y-58854279D01*
X169381027Y-58934893D01*
X169342062Y-58966871D01*
X169342060Y-58966872D01*
X169185538Y-59050536D01*
X169128924Y-59067709D01*
X169015698Y-59102056D01*
X168949513Y-59108575D01*
X168883331Y-59115093D01*
X168794811Y-59115093D01*
X168728629Y-59108575D01*
X168662444Y-59102056D01*
X168549218Y-59067709D01*
X168492604Y-59050536D01*
X168336082Y-58966872D01*
X168336080Y-58966871D01*
X168297115Y-58934893D01*
X168198885Y-58854279D01*
X168106948Y-58742252D01*
X168086293Y-58717084D01*
X168050810Y-58650701D01*
X168002628Y-58560560D01*
X167952126Y-58394075D01*
X167951108Y-58390720D01*
X167933712Y-58214093D01*
X167951108Y-58037466D01*
X168002628Y-57867627D01*
X168002628Y-57867626D01*
X168086292Y-57711104D01*
X168086293Y-57711102D01*
X168132745Y-57654500D01*
X168198885Y-57573907D01*
X168305506Y-57486407D01*
X168336080Y-57461315D01*
X168369428Y-57443490D01*
X168492604Y-57377650D01*
X168567282Y-57354997D01*
X168662444Y-57326130D01*
X168728628Y-57319612D01*
X168794811Y-57313093D01*
X168883331Y-57313093D01*
X168949514Y-57319612D01*
X168949514Y-57319612D01*
G37*
G36*
X151397293Y-56155323D02*
X151404312Y-56157452D01*
X151410775Y-56160907D01*
X151416442Y-56165558D01*
X151421093Y-56171225D01*
X151424548Y-56177688D01*
X151426677Y-56184707D01*
X151427602Y-56194099D01*
X151432382Y-56218132D01*
X151441760Y-56240771D01*
X151455374Y-56261146D01*
X151472701Y-56278473D01*
X151493075Y-56292087D01*
X151515714Y-56301464D01*
X151539748Y-56306245D01*
X151564252Y-56306245D01*
X151588285Y-56301465D01*
X151610924Y-56292087D01*
X151631299Y-56278473D01*
X151648626Y-56261146D01*
X151662240Y-56240772D01*
X151671617Y-56218133D01*
X151676398Y-56194099D01*
X151677323Y-56184707D01*
X151679452Y-56177688D01*
X151682907Y-56171225D01*
X151687558Y-56165558D01*
X151693225Y-56160907D01*
X151699688Y-56157452D01*
X151706707Y-56155323D01*
X151720140Y-56154000D01*
X152033860Y-56154000D01*
X152047293Y-56155323D01*
X152054312Y-56157452D01*
X152060775Y-56160907D01*
X152066442Y-56165558D01*
X152071093Y-56171225D01*
X152074548Y-56177688D01*
X152076677Y-56184707D01*
X152077602Y-56194099D01*
X152082382Y-56218132D01*
X152091760Y-56240771D01*
X152105374Y-56261146D01*
X152122701Y-56278473D01*
X152143075Y-56292087D01*
X152165714Y-56301464D01*
X152189748Y-56306245D01*
X152214252Y-56306245D01*
X152238285Y-56301465D01*
X152260924Y-56292087D01*
X152281299Y-56278473D01*
X152298626Y-56261146D01*
X152312240Y-56240772D01*
X152321617Y-56218133D01*
X152326398Y-56194099D01*
X152327323Y-56184707D01*
X152329452Y-56177688D01*
X152332907Y-56171225D01*
X152337558Y-56165558D01*
X152343225Y-56160907D01*
X152349688Y-56157452D01*
X152356707Y-56155323D01*
X152370140Y-56154000D01*
X152683860Y-56154000D01*
X152697293Y-56155323D01*
X152704312Y-56157452D01*
X152710775Y-56160907D01*
X152716442Y-56165558D01*
X152721093Y-56171225D01*
X152724548Y-56177688D01*
X152726677Y-56184707D01*
X152727602Y-56194099D01*
X152732382Y-56218132D01*
X152741760Y-56240771D01*
X152755374Y-56261146D01*
X152772701Y-56278473D01*
X152793075Y-56292087D01*
X152815714Y-56301464D01*
X152839748Y-56306245D01*
X152864252Y-56306245D01*
X152888285Y-56301465D01*
X152910924Y-56292087D01*
X152931299Y-56278473D01*
X152948626Y-56261146D01*
X152962240Y-56240772D01*
X152971617Y-56218133D01*
X152976398Y-56194099D01*
X152977323Y-56184707D01*
X152979452Y-56177688D01*
X152982907Y-56171225D01*
X152987558Y-56165558D01*
X152993225Y-56160907D01*
X152999688Y-56157452D01*
X153006707Y-56155323D01*
X153020140Y-56154000D01*
X153333860Y-56154000D01*
X153347293Y-56155323D01*
X153354312Y-56157452D01*
X153360775Y-56160907D01*
X153366442Y-56165558D01*
X153371093Y-56171225D01*
X153374548Y-56177688D01*
X153376677Y-56184707D01*
X153377602Y-56194099D01*
X153382382Y-56218132D01*
X153391760Y-56240771D01*
X153405374Y-56261146D01*
X153422701Y-56278473D01*
X153443075Y-56292087D01*
X153465714Y-56301464D01*
X153489748Y-56306245D01*
X153514252Y-56306245D01*
X153538285Y-56301465D01*
X153560924Y-56292087D01*
X153581299Y-56278473D01*
X153598626Y-56261146D01*
X153612240Y-56240772D01*
X153621617Y-56218133D01*
X153626398Y-56194099D01*
X153627323Y-56184707D01*
X153629452Y-56177688D01*
X153632907Y-56171225D01*
X153637558Y-56165558D01*
X153643225Y-56160907D01*
X153649688Y-56157452D01*
X153656707Y-56155323D01*
X153670140Y-56154000D01*
X153983860Y-56154000D01*
X153997293Y-56155323D01*
X154004312Y-56157452D01*
X154010775Y-56160907D01*
X154016442Y-56165558D01*
X154021093Y-56171225D01*
X154024548Y-56177688D01*
X154026677Y-56184707D01*
X154028000Y-56198140D01*
X154028000Y-56961860D01*
X154026677Y-56975293D01*
X154024548Y-56982312D01*
X154021093Y-56988775D01*
X154016442Y-56994442D01*
X154010775Y-56999093D01*
X154004312Y-57002548D01*
X153997293Y-57004677D01*
X153983860Y-57006000D01*
X153670140Y-57006000D01*
X153656707Y-57004677D01*
X153649688Y-57002548D01*
X153643225Y-56999093D01*
X153637558Y-56994442D01*
X153632907Y-56988775D01*
X153629452Y-56982312D01*
X153627323Y-56975293D01*
X153626398Y-56965901D01*
X153621618Y-56941868D01*
X153612240Y-56919229D01*
X153598626Y-56898854D01*
X153581299Y-56881527D01*
X153560925Y-56867913D01*
X153538286Y-56858536D01*
X153514252Y-56853755D01*
X153489748Y-56853755D01*
X153465715Y-56858535D01*
X153443076Y-56867913D01*
X153422701Y-56881527D01*
X153405374Y-56898854D01*
X153391760Y-56919228D01*
X153382383Y-56941867D01*
X153377602Y-56965901D01*
X153376677Y-56975293D01*
X153374548Y-56982312D01*
X153371093Y-56988775D01*
X153366442Y-56994442D01*
X153360775Y-56999093D01*
X153354312Y-57002548D01*
X153347293Y-57004677D01*
X153333860Y-57006000D01*
X153020140Y-57006000D01*
X153006707Y-57004677D01*
X152999688Y-57002548D01*
X152993225Y-56999093D01*
X152987558Y-56994442D01*
X152982907Y-56988775D01*
X152979452Y-56982312D01*
X152977323Y-56975293D01*
X152976398Y-56965901D01*
X152971618Y-56941868D01*
X152962240Y-56919229D01*
X152948626Y-56898854D01*
X152931299Y-56881527D01*
X152910925Y-56867913D01*
X152888286Y-56858536D01*
X152864252Y-56853755D01*
X152839748Y-56853755D01*
X152815715Y-56858535D01*
X152793076Y-56867913D01*
X152772701Y-56881527D01*
X152755374Y-56898854D01*
X152741760Y-56919228D01*
X152732383Y-56941867D01*
X152727602Y-56965901D01*
X152726677Y-56975293D01*
X152724548Y-56982312D01*
X152721093Y-56988775D01*
X152716442Y-56994442D01*
X152710775Y-56999093D01*
X152704312Y-57002548D01*
X152697293Y-57004677D01*
X152683860Y-57006000D01*
X152370140Y-57006000D01*
X152356707Y-57004677D01*
X152349688Y-57002548D01*
X152343225Y-56999093D01*
X152337558Y-56994442D01*
X152332907Y-56988775D01*
X152329452Y-56982312D01*
X152327323Y-56975293D01*
X152326398Y-56965901D01*
X152321618Y-56941868D01*
X152312240Y-56919229D01*
X152298626Y-56898854D01*
X152281299Y-56881527D01*
X152260925Y-56867913D01*
X152238286Y-56858536D01*
X152214252Y-56853755D01*
X152189748Y-56853755D01*
X152165715Y-56858535D01*
X152143076Y-56867913D01*
X152122701Y-56881527D01*
X152105374Y-56898854D01*
X152091760Y-56919228D01*
X152082383Y-56941867D01*
X152077602Y-56965901D01*
X152076677Y-56975293D01*
X152074548Y-56982312D01*
X152071093Y-56988775D01*
X152066442Y-56994442D01*
X152060775Y-56999093D01*
X152054312Y-57002548D01*
X152047293Y-57004677D01*
X152033860Y-57006000D01*
X151720140Y-57006000D01*
X151706707Y-57004677D01*
X151699688Y-57002548D01*
X151693225Y-56999093D01*
X151687558Y-56994442D01*
X151682907Y-56988775D01*
X151679452Y-56982312D01*
X151677323Y-56975293D01*
X151676398Y-56965901D01*
X151671618Y-56941868D01*
X151662240Y-56919229D01*
X151648626Y-56898854D01*
X151631299Y-56881527D01*
X151610925Y-56867913D01*
X151588286Y-56858536D01*
X151564252Y-56853755D01*
X151539748Y-56853755D01*
X151515715Y-56858535D01*
X151493076Y-56867913D01*
X151472701Y-56881527D01*
X151455374Y-56898854D01*
X151441760Y-56919228D01*
X151432383Y-56941867D01*
X151427602Y-56965901D01*
X151426677Y-56975293D01*
X151424548Y-56982312D01*
X151421093Y-56988775D01*
X151416442Y-56994442D01*
X151410775Y-56999093D01*
X151404312Y-57002548D01*
X151397293Y-57004677D01*
X151383860Y-57006000D01*
X151070140Y-57006000D01*
X151056707Y-57004677D01*
X151049688Y-57002548D01*
X151043225Y-56999093D01*
X151037558Y-56994442D01*
X151032907Y-56988775D01*
X151029452Y-56982312D01*
X151027323Y-56975293D01*
X151026000Y-56961860D01*
X151026000Y-56198140D01*
X151027323Y-56184707D01*
X151029452Y-56177688D01*
X151032907Y-56171225D01*
X151037558Y-56165558D01*
X151043225Y-56160907D01*
X151049688Y-56157452D01*
X151056707Y-56155323D01*
X151070140Y-56154000D01*
X151383860Y-56154000D01*
X151397293Y-56155323D01*
X151397293Y-56155323D01*
G37*
G36*
X163424000Y-54897000D02*
X162222000Y-54897000D01*
X162222000Y-52545000D01*
X163424000Y-52545000D01*
X163424000Y-54897000D01*
X163424000Y-54897000D01*
G37*
G36*
X167724000Y-54897000D02*
X166522000Y-54897000D01*
X166522000Y-52545000D01*
X167724000Y-52545000D01*
X167724000Y-54897000D01*
X167724000Y-54897000D01*
G37*
G36*
X156739999Y-50761737D02*
X156754534Y-50766147D01*
X156767717Y-50771607D01*
X156791751Y-50776387D01*
X156816255Y-50776387D01*
X156840288Y-50771606D01*
X156862927Y-50762228D01*
X156864765Y-50761000D01*
X158096053Y-50761000D01*
X158108165Y-50767474D01*
X158131614Y-50774587D01*
X158156000Y-50776989D01*
X158180386Y-50774587D01*
X158198564Y-50768083D01*
X158198608Y-50768227D01*
X158220001Y-50761737D01*
X158236140Y-50760148D01*
X158773860Y-50760148D01*
X158792198Y-50761954D01*
X158804450Y-50762556D01*
X158822869Y-50762556D01*
X158845149Y-50764750D01*
X158929236Y-50781476D01*
X158950655Y-50787974D01*
X159029871Y-50820785D01*
X159049607Y-50831335D01*
X159120897Y-50878969D01*
X159138208Y-50893176D01*
X159198824Y-50953792D01*
X159213031Y-50971103D01*
X159260665Y-51042393D01*
X159271215Y-51062129D01*
X159304026Y-51141345D01*
X159310524Y-51162764D01*
X159327250Y-51246851D01*
X159329444Y-51269131D01*
X159329444Y-51287550D01*
X159330046Y-51299802D01*
X159331852Y-51318140D01*
X159331852Y-51805861D01*
X159330046Y-51824198D01*
X159329444Y-51836450D01*
X159329444Y-51854869D01*
X159327250Y-51877149D01*
X159310524Y-51961236D01*
X159304026Y-51982655D01*
X159271215Y-52061871D01*
X159260665Y-52081607D01*
X159213031Y-52152897D01*
X159198824Y-52170208D01*
X159138208Y-52230824D01*
X159120897Y-52245031D01*
X159049607Y-52292665D01*
X159029871Y-52303215D01*
X158950655Y-52336026D01*
X158929236Y-52342524D01*
X158845149Y-52359250D01*
X158822869Y-52361444D01*
X158804450Y-52361444D01*
X158792198Y-52362046D01*
X158773861Y-52363852D01*
X158236140Y-52363852D01*
X158220001Y-52362263D01*
X158205466Y-52357853D01*
X158192283Y-52352393D01*
X158168249Y-52347613D01*
X158143745Y-52347613D01*
X158119712Y-52352394D01*
X158097073Y-52361772D01*
X158095235Y-52363000D01*
X156863947Y-52363000D01*
X156851835Y-52356526D01*
X156828386Y-52349413D01*
X156804000Y-52347011D01*
X156779614Y-52349413D01*
X156761436Y-52355917D01*
X156761392Y-52355773D01*
X156739999Y-52362263D01*
X156723860Y-52363852D01*
X156186139Y-52363852D01*
X156167802Y-52362046D01*
X156155550Y-52361444D01*
X156137131Y-52361444D01*
X156114851Y-52359250D01*
X156030764Y-52342524D01*
X156009345Y-52336026D01*
X155930129Y-52303215D01*
X155910393Y-52292665D01*
X155839103Y-52245031D01*
X155821792Y-52230824D01*
X155761176Y-52170208D01*
X155746969Y-52152897D01*
X155699335Y-52081607D01*
X155688785Y-52061871D01*
X155655974Y-51982655D01*
X155649476Y-51961236D01*
X155632750Y-51877149D01*
X155630556Y-51854869D01*
X155630556Y-51836450D01*
X155629954Y-51824198D01*
X155628148Y-51805861D01*
X155628148Y-51318140D01*
X155629954Y-51299802D01*
X155630556Y-51287550D01*
X155630556Y-51269131D01*
X155632750Y-51246851D01*
X155649476Y-51162764D01*
X155655974Y-51141345D01*
X155688785Y-51062129D01*
X155699335Y-51042393D01*
X155746969Y-50971103D01*
X155761176Y-50953792D01*
X155821792Y-50893176D01*
X155839103Y-50878969D01*
X155910393Y-50831335D01*
X155930129Y-50820785D01*
X156009345Y-50787974D01*
X156030764Y-50781476D01*
X156114851Y-50764750D01*
X156137131Y-50762556D01*
X156155550Y-50762556D01*
X156167802Y-50761954D01*
X156186140Y-50760148D01*
X156723860Y-50760148D01*
X156739999Y-50761737D01*
X156739999Y-50761737D01*
G37*
G36*
X147567560Y-47088966D02*
X147600383Y-47098923D01*
X147630632Y-47115092D01*
X147657148Y-47136852D01*
X147678908Y-47163368D01*
X147695077Y-47193617D01*
X147705034Y-47226440D01*
X147709000Y-47266712D01*
X147709000Y-48745288D01*
X147705034Y-48785560D01*
X147695077Y-48818383D01*
X147678908Y-48848632D01*
X147657148Y-48875148D01*
X147630632Y-48896908D01*
X147600383Y-48913077D01*
X147567560Y-48923034D01*
X147527288Y-48927000D01*
X145588712Y-48927000D01*
X145548440Y-48923034D01*
X145515617Y-48913077D01*
X145485368Y-48896908D01*
X145458852Y-48875148D01*
X145437092Y-48848632D01*
X145420923Y-48818383D01*
X145410966Y-48785560D01*
X145407000Y-48745288D01*
X145407000Y-47266712D01*
X145410966Y-47226440D01*
X145420923Y-47193617D01*
X145437092Y-47163368D01*
X145458852Y-47136852D01*
X145485368Y-47115092D01*
X145515617Y-47098923D01*
X145548440Y-47088966D01*
X145588712Y-47085000D01*
X147527288Y-47085000D01*
X147567560Y-47088966D01*
X147567560Y-47088966D01*
G37*
G36*
X165982560Y-47088966D02*
X166015383Y-47098923D01*
X166045632Y-47115092D01*
X166072148Y-47136852D01*
X166093908Y-47163368D01*
X166110077Y-47193617D01*
X166120034Y-47226440D01*
X166124000Y-47266712D01*
X166124000Y-48745288D01*
X166120034Y-48785560D01*
X166110077Y-48818383D01*
X166093908Y-48848632D01*
X166072148Y-48875148D01*
X166045632Y-48896908D01*
X166015383Y-48913077D01*
X165982560Y-48923034D01*
X165942288Y-48927000D01*
X164003712Y-48927000D01*
X163963440Y-48923034D01*
X163930617Y-48913077D01*
X163900368Y-48896908D01*
X163873852Y-48875148D01*
X163852092Y-48848632D01*
X163835923Y-48818383D01*
X163825966Y-48785560D01*
X163822000Y-48745288D01*
X163822000Y-47266712D01*
X163825966Y-47226440D01*
X163835923Y-47193617D01*
X163852092Y-47163368D01*
X163873852Y-47136852D01*
X163900368Y-47115092D01*
X163930617Y-47098923D01*
X163963440Y-47088966D01*
X164003712Y-47085000D01*
X165942288Y-47085000D01*
X165982560Y-47088966D01*
X165982560Y-47088966D01*
G37*
G36*
X157092560Y-47088966D02*
X157125383Y-47098923D01*
X157155632Y-47115092D01*
X157182148Y-47136852D01*
X157203908Y-47163368D01*
X157220077Y-47193617D01*
X157230034Y-47226440D01*
X157234000Y-47266712D01*
X157234000Y-48745288D01*
X157230034Y-48785560D01*
X157220077Y-48818383D01*
X157203908Y-48848632D01*
X157182148Y-48875148D01*
X157155632Y-48896908D01*
X157125383Y-48913077D01*
X157092560Y-48923034D01*
X157052288Y-48927000D01*
X155113712Y-48927000D01*
X155073440Y-48923034D01*
X155040617Y-48913077D01*
X155010368Y-48896908D01*
X154983852Y-48875148D01*
X154962092Y-48848632D01*
X154945923Y-48818383D01*
X154935966Y-48785560D01*
X154932000Y-48745288D01*
X154932000Y-47266712D01*
X154935966Y-47226440D01*
X154945923Y-47193617D01*
X154962092Y-47163368D01*
X154983852Y-47136852D01*
X155010368Y-47115092D01*
X155040617Y-47098923D01*
X155073440Y-47088966D01*
X155113712Y-47085000D01*
X157052288Y-47085000D01*
X157092560Y-47088966D01*
X157092560Y-47088966D01*
G37*
G36*
X156403345Y-44549442D02*
X156493548Y-44558326D01*
X156609287Y-44593435D01*
X156667158Y-44610990D01*
X156752679Y-44656702D01*
X156827156Y-44696511D01*
X156928062Y-44779323D01*
X156967396Y-44811604D01*
X157082488Y-44951843D01*
X157168010Y-45111842D01*
X157168010Y-45111843D01*
X157220674Y-45285452D01*
X157238456Y-45466000D01*
X157220674Y-45646548D01*
X157196983Y-45724646D01*
X157168010Y-45820158D01*
X157142983Y-45866980D01*
X157082489Y-45980156D01*
X156967396Y-46120396D01*
X156827156Y-46235489D01*
X156752679Y-46275298D01*
X156667158Y-46321010D01*
X156609287Y-46338565D01*
X156493548Y-46373674D01*
X156403345Y-46382558D01*
X156358245Y-46387000D01*
X155807755Y-46387000D01*
X155762655Y-46382558D01*
X155672452Y-46373674D01*
X155556713Y-46338565D01*
X155498842Y-46321010D01*
X155413321Y-46275298D01*
X155338844Y-46235489D01*
X155198604Y-46120396D01*
X155083511Y-45980156D01*
X155023017Y-45866980D01*
X154997990Y-45820158D01*
X154969017Y-45724646D01*
X154945326Y-45646548D01*
X154927544Y-45466000D01*
X154945326Y-45285452D01*
X154997990Y-45111843D01*
X154997990Y-45111842D01*
X155083512Y-44951843D01*
X155198604Y-44811604D01*
X155237938Y-44779323D01*
X155338844Y-44696511D01*
X155413321Y-44656702D01*
X155498842Y-44610990D01*
X155556713Y-44593435D01*
X155672452Y-44558326D01*
X155762655Y-44549442D01*
X155807755Y-44545000D01*
X156358245Y-44545000D01*
X156403345Y-44549442D01*
X156403345Y-44549442D01*
G37*
G36*
X146878345Y-44549442D02*
X146968548Y-44558326D01*
X147084287Y-44593435D01*
X147142158Y-44610990D01*
X147227679Y-44656702D01*
X147302156Y-44696511D01*
X147403062Y-44779323D01*
X147442396Y-44811604D01*
X147557488Y-44951843D01*
X147643010Y-45111842D01*
X147643010Y-45111843D01*
X147695674Y-45285452D01*
X147713456Y-45466000D01*
X147695674Y-45646548D01*
X147671983Y-45724646D01*
X147643010Y-45820158D01*
X147617983Y-45866980D01*
X147557489Y-45980156D01*
X147442396Y-46120396D01*
X147302156Y-46235489D01*
X147227679Y-46275298D01*
X147142158Y-46321010D01*
X147084287Y-46338565D01*
X146968548Y-46373674D01*
X146878345Y-46382558D01*
X146833245Y-46387000D01*
X146282755Y-46387000D01*
X146237655Y-46382558D01*
X146147452Y-46373674D01*
X146031713Y-46338565D01*
X145973842Y-46321010D01*
X145888321Y-46275298D01*
X145813844Y-46235489D01*
X145673604Y-46120396D01*
X145558511Y-45980156D01*
X145498017Y-45866980D01*
X145472990Y-45820158D01*
X145444017Y-45724646D01*
X145420326Y-45646548D01*
X145402544Y-45466000D01*
X145420326Y-45285452D01*
X145472990Y-45111843D01*
X145472990Y-45111842D01*
X145558512Y-44951843D01*
X145673604Y-44811604D01*
X145712938Y-44779323D01*
X145813844Y-44696511D01*
X145888321Y-44656702D01*
X145973842Y-44610990D01*
X146031713Y-44593435D01*
X146147452Y-44558326D01*
X146237655Y-44549442D01*
X146282755Y-44545000D01*
X146833245Y-44545000D01*
X146878345Y-44549442D01*
X146878345Y-44549442D01*
G37*
G36*
X165293345Y-44549442D02*
X165383548Y-44558326D01*
X165499287Y-44593435D01*
X165557158Y-44610990D01*
X165642679Y-44656702D01*
X165717156Y-44696511D01*
X165818062Y-44779323D01*
X165857396Y-44811604D01*
X165972488Y-44951843D01*
X166058010Y-45111842D01*
X166058010Y-45111843D01*
X166110674Y-45285452D01*
X166128456Y-45466000D01*
X166110674Y-45646548D01*
X166086983Y-45724646D01*
X166058010Y-45820158D01*
X166032983Y-45866980D01*
X165972489Y-45980156D01*
X165857396Y-46120396D01*
X165717156Y-46235489D01*
X165642679Y-46275298D01*
X165557158Y-46321010D01*
X165499287Y-46338565D01*
X165383548Y-46373674D01*
X165293345Y-46382558D01*
X165248245Y-46387000D01*
X164697755Y-46387000D01*
X164652655Y-46382558D01*
X164562452Y-46373674D01*
X164446713Y-46338565D01*
X164388842Y-46321010D01*
X164303321Y-46275298D01*
X164228844Y-46235489D01*
X164088604Y-46120396D01*
X163973511Y-45980156D01*
X163913017Y-45866980D01*
X163887990Y-45820158D01*
X163859017Y-45724646D01*
X163835326Y-45646548D01*
X163817544Y-45466000D01*
X163835326Y-45285452D01*
X163887990Y-45111843D01*
X163887990Y-45111842D01*
X163973512Y-44951843D01*
X164088604Y-44811604D01*
X164127938Y-44779323D01*
X164228844Y-44696511D01*
X164303321Y-44656702D01*
X164388842Y-44610990D01*
X164446713Y-44593435D01*
X164562452Y-44558326D01*
X164652655Y-44549442D01*
X164697755Y-44545000D01*
X165248245Y-44545000D01*
X165293345Y-44549442D01*
X165293345Y-44549442D01*
G37*
G36*
X160892499Y-44739445D02*
X160929993Y-44750819D01*
X160964557Y-44769294D01*
X160994847Y-44794153D01*
X161019706Y-44824443D01*
X161038181Y-44859007D01*
X161049555Y-44896501D01*
X161054000Y-44941638D01*
X161054000Y-45680362D01*
X161049555Y-45725499D01*
X161038181Y-45762993D01*
X161019706Y-45797557D01*
X160994847Y-45827847D01*
X160964557Y-45852706D01*
X160929993Y-45871181D01*
X160892499Y-45882555D01*
X160847362Y-45887000D01*
X160208638Y-45887000D01*
X160163501Y-45882555D01*
X160126007Y-45871181D01*
X160091443Y-45852706D01*
X160061153Y-45827847D01*
X160036294Y-45797557D01*
X160017819Y-45762993D01*
X160006445Y-45725499D01*
X160002000Y-45680362D01*
X160002000Y-44941638D01*
X160006445Y-44896501D01*
X160017819Y-44859007D01*
X160036294Y-44824443D01*
X160061153Y-44794153D01*
X160091443Y-44769294D01*
X160126007Y-44750819D01*
X160163501Y-44739445D01*
X160208638Y-44735000D01*
X160847362Y-44735000D01*
X160892499Y-44739445D01*
X160892499Y-44739445D01*
G37*
G36*
X160892499Y-42989445D02*
X160929993Y-43000819D01*
X160964557Y-43019294D01*
X160994847Y-43044153D01*
X161019706Y-43074443D01*
X161038181Y-43109007D01*
X161049555Y-43146501D01*
X161054000Y-43191638D01*
X161054000Y-43930362D01*
X161049555Y-43975499D01*
X161038181Y-44012993D01*
X161019706Y-44047557D01*
X160994847Y-44077847D01*
X160964557Y-44102706D01*
X160929993Y-44121181D01*
X160892499Y-44132555D01*
X160847362Y-44137000D01*
X160208638Y-44137000D01*
X160163501Y-44132555D01*
X160126007Y-44121181D01*
X160091443Y-44102706D01*
X160061153Y-44077847D01*
X160036294Y-44047557D01*
X160017819Y-44012993D01*
X160006445Y-43975499D01*
X160002000Y-43930362D01*
X160002000Y-43191638D01*
X160006445Y-43146501D01*
X160017819Y-43109007D01*
X160036294Y-43074443D01*
X160061153Y-43044153D01*
X160091443Y-43019294D01*
X160126007Y-43000819D01*
X160163501Y-42989445D01*
X160208638Y-42985000D01*
X160847362Y-42985000D01*
X160892499Y-42989445D01*
X160892499Y-42989445D01*
G37*
G36*
X165293345Y-42009442D02*
X165383548Y-42018326D01*
X165499287Y-42053435D01*
X165557158Y-42070990D01*
X165642679Y-42116702D01*
X165717156Y-42156511D01*
X165717158Y-42156512D01*
X165717157Y-42156512D01*
X165857396Y-42271604D01*
X165972488Y-42411843D01*
X166058010Y-42571842D01*
X166058010Y-42571843D01*
X166110674Y-42745452D01*
X166128456Y-42926000D01*
X166110674Y-43106548D01*
X166084862Y-43191638D01*
X166058010Y-43280158D01*
X166012298Y-43365679D01*
X165972489Y-43440156D01*
X165857396Y-43580396D01*
X165717156Y-43695489D01*
X165642679Y-43735298D01*
X165557158Y-43781010D01*
X165499287Y-43798565D01*
X165383548Y-43833674D01*
X165293345Y-43842558D01*
X165248245Y-43847000D01*
X164697755Y-43847000D01*
X164652655Y-43842558D01*
X164562452Y-43833674D01*
X164446713Y-43798565D01*
X164388842Y-43781010D01*
X164303321Y-43735298D01*
X164228844Y-43695489D01*
X164088604Y-43580396D01*
X163973511Y-43440156D01*
X163933702Y-43365679D01*
X163887990Y-43280158D01*
X163861138Y-43191638D01*
X163835326Y-43106548D01*
X163817544Y-42926000D01*
X163835326Y-42745452D01*
X163887990Y-42571843D01*
X163887990Y-42571842D01*
X163973512Y-42411843D01*
X164088604Y-42271604D01*
X164228843Y-42156512D01*
X164228842Y-42156512D01*
X164228844Y-42156511D01*
X164303321Y-42116702D01*
X164388842Y-42070990D01*
X164446713Y-42053435D01*
X164562452Y-42018326D01*
X164652655Y-42009442D01*
X164697755Y-42005000D01*
X165248245Y-42005000D01*
X165293345Y-42009442D01*
X165293345Y-42009442D01*
G37*
G36*
X156403345Y-42009442D02*
X156493548Y-42018326D01*
X156609287Y-42053435D01*
X156667158Y-42070990D01*
X156752679Y-42116702D01*
X156827156Y-42156511D01*
X156827158Y-42156512D01*
X156827157Y-42156512D01*
X156967396Y-42271604D01*
X157082488Y-42411843D01*
X157168010Y-42571842D01*
X157168010Y-42571843D01*
X157220674Y-42745452D01*
X157238456Y-42926000D01*
X157220674Y-43106548D01*
X157194862Y-43191638D01*
X157168010Y-43280158D01*
X157122298Y-43365679D01*
X157082489Y-43440156D01*
X156967396Y-43580396D01*
X156827156Y-43695489D01*
X156752679Y-43735298D01*
X156667158Y-43781010D01*
X156609287Y-43798565D01*
X156493548Y-43833674D01*
X156403345Y-43842558D01*
X156358245Y-43847000D01*
X155807755Y-43847000D01*
X155762655Y-43842558D01*
X155672452Y-43833674D01*
X155556713Y-43798565D01*
X155498842Y-43781010D01*
X155413321Y-43735298D01*
X155338844Y-43695489D01*
X155198604Y-43580396D01*
X155083511Y-43440156D01*
X155043702Y-43365679D01*
X154997990Y-43280158D01*
X154971138Y-43191638D01*
X154945326Y-43106548D01*
X154927544Y-42926000D01*
X154945326Y-42745452D01*
X154997990Y-42571843D01*
X154997990Y-42571842D01*
X155083512Y-42411843D01*
X155198604Y-42271604D01*
X155338843Y-42156512D01*
X155338842Y-42156512D01*
X155338844Y-42156511D01*
X155413321Y-42116702D01*
X155498842Y-42070990D01*
X155556713Y-42053435D01*
X155672452Y-42018326D01*
X155762655Y-42009442D01*
X155807755Y-42005000D01*
X156358245Y-42005000D01*
X156403345Y-42009442D01*
X156403345Y-42009442D01*
G37*
G36*
X146878345Y-42009442D02*
X146968548Y-42018326D01*
X147084287Y-42053435D01*
X147142158Y-42070990D01*
X147227679Y-42116702D01*
X147302156Y-42156511D01*
X147302158Y-42156512D01*
X147302157Y-42156512D01*
X147442396Y-42271604D01*
X147557488Y-42411843D01*
X147643010Y-42571842D01*
X147643010Y-42571843D01*
X147695674Y-42745452D01*
X147713456Y-42926000D01*
X147695674Y-43106548D01*
X147669862Y-43191638D01*
X147643010Y-43280158D01*
X147597298Y-43365679D01*
X147557489Y-43440156D01*
X147442396Y-43580396D01*
X147302156Y-43695489D01*
X147227679Y-43735298D01*
X147142158Y-43781010D01*
X147084287Y-43798565D01*
X146968548Y-43833674D01*
X146878345Y-43842558D01*
X146833245Y-43847000D01*
X146282755Y-43847000D01*
X146237655Y-43842558D01*
X146147452Y-43833674D01*
X146031713Y-43798565D01*
X145973842Y-43781010D01*
X145888321Y-43735298D01*
X145813844Y-43695489D01*
X145673604Y-43580396D01*
X145558511Y-43440156D01*
X145518702Y-43365679D01*
X145472990Y-43280158D01*
X145446138Y-43191638D01*
X145420326Y-43106548D01*
X145402544Y-42926000D01*
X145420326Y-42745452D01*
X145472990Y-42571843D01*
X145472990Y-42571842D01*
X145558512Y-42411843D01*
X145673604Y-42271604D01*
X145813843Y-42156512D01*
X145813842Y-42156512D01*
X145813844Y-42156511D01*
X145888321Y-42116702D01*
X145973842Y-42070990D01*
X146031713Y-42053435D01*
X146147452Y-42018326D01*
X146237655Y-42009442D01*
X146282755Y-42005000D01*
X146833245Y-42005000D01*
X146878345Y-42009442D01*
X146878345Y-42009442D01*
G37*
G36*
X165293345Y-39469442D02*
X165383548Y-39478326D01*
X165499287Y-39513435D01*
X165557158Y-39530990D01*
X165642679Y-39576702D01*
X165717156Y-39616511D01*
X165717158Y-39616512D01*
X165717157Y-39616512D01*
X165857396Y-39731604D01*
X165972488Y-39871843D01*
X166058010Y-40031842D01*
X166058010Y-40031843D01*
X166110674Y-40205452D01*
X166128456Y-40386000D01*
X166110674Y-40566548D01*
X166075565Y-40682287D01*
X166058010Y-40740158D01*
X166012298Y-40825679D01*
X165972489Y-40900156D01*
X165857396Y-41040396D01*
X165717156Y-41155489D01*
X165642679Y-41195298D01*
X165557158Y-41241010D01*
X165499287Y-41258565D01*
X165383548Y-41293674D01*
X165293345Y-41302558D01*
X165248245Y-41307000D01*
X164697755Y-41307000D01*
X164652655Y-41302558D01*
X164562452Y-41293674D01*
X164446713Y-41258565D01*
X164388842Y-41241010D01*
X164303321Y-41195298D01*
X164228844Y-41155489D01*
X164088604Y-41040396D01*
X163973511Y-40900156D01*
X163933702Y-40825679D01*
X163887990Y-40740158D01*
X163870435Y-40682287D01*
X163835326Y-40566548D01*
X163817544Y-40386000D01*
X163835326Y-40205452D01*
X163887990Y-40031843D01*
X163887990Y-40031842D01*
X163973512Y-39871843D01*
X164088604Y-39731604D01*
X164228843Y-39616512D01*
X164228842Y-39616512D01*
X164228844Y-39616511D01*
X164303321Y-39576702D01*
X164388842Y-39530990D01*
X164446713Y-39513435D01*
X164562452Y-39478326D01*
X164652655Y-39469442D01*
X164697755Y-39465000D01*
X165248245Y-39465000D01*
X165293345Y-39469442D01*
X165293345Y-39469442D01*
G37*
G36*
X146878345Y-39469442D02*
X146968548Y-39478326D01*
X147084287Y-39513435D01*
X147142158Y-39530990D01*
X147227679Y-39576702D01*
X147302156Y-39616511D01*
X147302158Y-39616512D01*
X147302157Y-39616512D01*
X147442396Y-39731604D01*
X147557488Y-39871843D01*
X147643010Y-40031842D01*
X147643010Y-40031843D01*
X147695674Y-40205452D01*
X147713456Y-40386000D01*
X147695674Y-40566548D01*
X147660565Y-40682287D01*
X147643010Y-40740158D01*
X147597298Y-40825679D01*
X147557489Y-40900156D01*
X147442396Y-41040396D01*
X147302156Y-41155489D01*
X147227679Y-41195298D01*
X147142158Y-41241010D01*
X147084287Y-41258565D01*
X146968548Y-41293674D01*
X146878345Y-41302558D01*
X146833245Y-41307000D01*
X146282755Y-41307000D01*
X146237655Y-41302558D01*
X146147452Y-41293674D01*
X146031713Y-41258565D01*
X145973842Y-41241010D01*
X145888321Y-41195298D01*
X145813844Y-41155489D01*
X145673604Y-41040396D01*
X145558511Y-40900156D01*
X145518702Y-40825679D01*
X145472990Y-40740158D01*
X145455435Y-40682287D01*
X145420326Y-40566548D01*
X145402544Y-40386000D01*
X145420326Y-40205452D01*
X145472990Y-40031843D01*
X145472990Y-40031842D01*
X145558512Y-39871843D01*
X145673604Y-39731604D01*
X145813843Y-39616512D01*
X145813842Y-39616512D01*
X145813844Y-39616511D01*
X145888321Y-39576702D01*
X145973842Y-39530990D01*
X146031713Y-39513435D01*
X146147452Y-39478326D01*
X146237655Y-39469442D01*
X146282755Y-39465000D01*
X146833245Y-39465000D01*
X146878345Y-39469442D01*
X146878345Y-39469442D01*
G37*
G36*
X156403345Y-39469442D02*
X156493548Y-39478326D01*
X156609287Y-39513435D01*
X156667158Y-39530990D01*
X156752679Y-39576702D01*
X156827156Y-39616511D01*
X156827158Y-39616512D01*
X156827157Y-39616512D01*
X156967396Y-39731604D01*
X157082488Y-39871843D01*
X157168010Y-40031842D01*
X157168010Y-40031843D01*
X157220674Y-40205452D01*
X157238456Y-40386000D01*
X157220674Y-40566548D01*
X157185565Y-40682287D01*
X157168010Y-40740158D01*
X157122298Y-40825679D01*
X157082489Y-40900156D01*
X156967396Y-41040396D01*
X156827156Y-41155489D01*
X156752679Y-41195298D01*
X156667158Y-41241010D01*
X156609287Y-41258565D01*
X156493548Y-41293674D01*
X156403345Y-41302558D01*
X156358245Y-41307000D01*
X155807755Y-41307000D01*
X155762655Y-41302558D01*
X155672452Y-41293674D01*
X155556713Y-41258565D01*
X155498842Y-41241010D01*
X155413321Y-41195298D01*
X155338844Y-41155489D01*
X155198604Y-41040396D01*
X155083511Y-40900156D01*
X155043702Y-40825679D01*
X154997990Y-40740158D01*
X154980435Y-40682287D01*
X154945326Y-40566548D01*
X154927544Y-40386000D01*
X154945326Y-40205452D01*
X154997990Y-40031843D01*
X154997990Y-40031842D01*
X155083512Y-39871843D01*
X155198604Y-39731604D01*
X155338843Y-39616512D01*
X155338842Y-39616512D01*
X155338844Y-39616511D01*
X155413321Y-39576702D01*
X155498842Y-39530990D01*
X155556713Y-39513435D01*
X155672452Y-39478326D01*
X155762655Y-39469442D01*
X155807755Y-39465000D01*
X156358245Y-39465000D01*
X156403345Y-39469442D01*
X156403345Y-39469442D01*
G37*
G36*
X144420528Y-34479737D02*
X144520411Y-34499605D01*
X144802675Y-34616522D01*
X145056706Y-34786260D01*
X145272742Y-35002296D01*
X145442480Y-35256327D01*
X145559397Y-35538591D01*
X145619001Y-35838241D01*
X145619001Y-36143761D01*
X145559397Y-36443411D01*
X145442480Y-36725675D01*
X145272742Y-36979706D01*
X145056706Y-37195742D01*
X144802675Y-37365480D01*
X144520411Y-37482397D01*
X144420528Y-37502265D01*
X144220763Y-37542001D01*
X143915239Y-37542001D01*
X143715474Y-37502265D01*
X143615591Y-37482397D01*
X143333327Y-37365480D01*
X143079296Y-37195742D01*
X142863260Y-36979706D01*
X142693522Y-36725675D01*
X142576605Y-36443411D01*
X142517001Y-36143761D01*
X142517001Y-35838241D01*
X142576605Y-35538591D01*
X142693522Y-35256327D01*
X142863260Y-35002296D01*
X143079296Y-34786260D01*
X143333327Y-34616522D01*
X143615591Y-34499605D01*
X143715474Y-34479737D01*
X143915239Y-34440001D01*
X144220763Y-34440001D01*
X144420528Y-34479737D01*
X144420528Y-34479737D01*
G37*
G36*
X168550528Y-34479737D02*
X168650411Y-34499605D01*
X168932675Y-34616522D01*
X169186706Y-34786260D01*
X169402742Y-35002296D01*
X169572480Y-35256327D01*
X169689397Y-35538591D01*
X169749001Y-35838241D01*
X169749001Y-36143761D01*
X169689397Y-36443411D01*
X169572480Y-36725675D01*
X169402742Y-36979706D01*
X169186706Y-37195742D01*
X168932675Y-37365480D01*
X168650411Y-37482397D01*
X168550528Y-37502265D01*
X168350763Y-37542001D01*
X168045239Y-37542001D01*
X167845474Y-37502265D01*
X167745591Y-37482397D01*
X167463327Y-37365480D01*
X167209296Y-37195742D01*
X166993260Y-36979706D01*
X166823522Y-36725675D01*
X166706605Y-36443411D01*
X166647001Y-36143761D01*
X166647001Y-35838241D01*
X166706605Y-35538591D01*
X166823522Y-35256327D01*
X166993260Y-35002296D01*
X167209296Y-34786260D01*
X167463327Y-34616522D01*
X167745591Y-34499605D01*
X167845474Y-34479737D01*
X168045239Y-34440001D01*
X168350763Y-34440001D01*
X168550528Y-34479737D01*
X168550528Y-34479737D01*
G37*
M02*
