G04 #@! TF.GenerationSoftware,KiCad,Pcbnew,(5.0.1-3-g963ef8bb5)*
G04 #@! TF.CreationDate,2019-03-13T16:51:20+03:00*
G04 #@! TF.ProjectId,sagitta-shield,736167697474612D736869656C642E6B,rev?*
G04 #@! TF.SameCoordinates,Original*
G04 #@! TF.FileFunction,Copper,L1,Top,Signal*
G04 #@! TF.FilePolarity,Positive*
%FSLAX46Y46*%
G04 Gerber Fmt 4.6, Leading zero omitted, Abs format (unit mm)*
G04 Created by KiCad (PCBNEW (5.0.1-3-g963ef8bb5)) date 2019 March 13, Wednesday 16:51:20*
%MOMM*%
%LPD*%
G01*
G04 APERTURE LIST*
G04 #@! TA.AperFunction,Conductor*
%ADD10C,0.100000*%
G04 #@! TD*
G04 #@! TA.AperFunction,SMDPad,CuDef*
%ADD11C,0.950000*%
G04 #@! TD*
G04 #@! TA.AperFunction,ComponentPad*
%ADD12O,2.200000X1.740000*%
G04 #@! TD*
G04 #@! TA.AperFunction,ComponentPad*
%ADD13C,1.740000*%
G04 #@! TD*
G04 #@! TA.AperFunction,ComponentPad*
%ADD14O,1.740000X2.200000*%
G04 #@! TD*
G04 #@! TA.AperFunction,ComponentPad*
%ADD15O,1.700000X1.700000*%
G04 #@! TD*
G04 #@! TA.AperFunction,ComponentPad*
%ADD16R,1.700000X1.700000*%
G04 #@! TD*
G04 #@! TA.AperFunction,SMDPad,CuDef*
%ADD17C,0.500000*%
G04 #@! TD*
G04 #@! TA.AperFunction,SMDPad,CuDef*
%ADD18R,1.000000X1.500000*%
G04 #@! TD*
G04 #@! TA.AperFunction,SMDPad,CuDef*
%ADD19C,1.150000*%
G04 #@! TD*
G04 #@! TA.AperFunction,SMDPad,CuDef*
%ADD20R,1.100000X0.250000*%
G04 #@! TD*
G04 #@! TA.AperFunction,SMDPad,CuDef*
%ADD21R,0.550000X1.750000*%
G04 #@! TD*
G04 #@! TA.AperFunction,SMDPad,CuDef*
%ADD22C,3.350000*%
G04 #@! TD*
G04 #@! TA.AperFunction,ViaPad*
%ADD23C,0.500000*%
G04 #@! TD*
G04 #@! TA.AperFunction,SMDPad,CuDef*
%ADD24C,0.300000*%
G04 #@! TD*
G04 #@! TA.AperFunction,ViaPad*
%ADD25C,0.800000*%
G04 #@! TD*
G04 #@! TA.AperFunction,Conductor*
%ADD26C,0.250000*%
G04 #@! TD*
G04 #@! TA.AperFunction,Conductor*
%ADD27C,1.000000*%
G04 #@! TD*
G04 #@! TA.AperFunction,Conductor*
%ADD28C,0.500000*%
G04 #@! TD*
G04 #@! TA.AperFunction,Conductor*
%ADD29C,0.254000*%
G04 #@! TD*
G04 APERTURE END LIST*
D10*
G04 #@! TO.N,GND*
G04 #@! TO.C,C1*
G36*
X156446243Y-64403058D02*
X156469298Y-64406477D01*
X156491907Y-64412141D01*
X156513851Y-64419993D01*
X156534921Y-64429958D01*
X156554912Y-64441940D01*
X156573632Y-64455824D01*
X156590902Y-64471476D01*
X156606554Y-64488746D01*
X156620438Y-64507466D01*
X156632420Y-64527457D01*
X156642385Y-64548527D01*
X156650237Y-64570471D01*
X156655901Y-64593080D01*
X156659320Y-64616135D01*
X156660464Y-64639414D01*
X156660464Y-65214414D01*
X156659320Y-65237693D01*
X156655901Y-65260748D01*
X156650237Y-65283357D01*
X156642385Y-65305301D01*
X156632420Y-65326371D01*
X156620438Y-65346362D01*
X156606554Y-65365082D01*
X156590902Y-65382352D01*
X156573632Y-65398004D01*
X156554912Y-65411888D01*
X156534921Y-65423870D01*
X156513851Y-65433835D01*
X156491907Y-65441687D01*
X156469298Y-65447351D01*
X156446243Y-65450770D01*
X156422964Y-65451914D01*
X155947964Y-65451914D01*
X155924685Y-65450770D01*
X155901630Y-65447351D01*
X155879021Y-65441687D01*
X155857077Y-65433835D01*
X155836007Y-65423870D01*
X155816016Y-65411888D01*
X155797296Y-65398004D01*
X155780026Y-65382352D01*
X155764374Y-65365082D01*
X155750490Y-65346362D01*
X155738508Y-65326371D01*
X155728543Y-65305301D01*
X155720691Y-65283357D01*
X155715027Y-65260748D01*
X155711608Y-65237693D01*
X155710464Y-65214414D01*
X155710464Y-64639414D01*
X155711608Y-64616135D01*
X155715027Y-64593080D01*
X155720691Y-64570471D01*
X155728543Y-64548527D01*
X155738508Y-64527457D01*
X155750490Y-64507466D01*
X155764374Y-64488746D01*
X155780026Y-64471476D01*
X155797296Y-64455824D01*
X155816016Y-64441940D01*
X155836007Y-64429958D01*
X155857077Y-64419993D01*
X155879021Y-64412141D01*
X155901630Y-64406477D01*
X155924685Y-64403058D01*
X155947964Y-64401914D01*
X156422964Y-64401914D01*
X156446243Y-64403058D01*
X156446243Y-64403058D01*
G37*
D11*
G04 #@! TD*
G04 #@! TO.P,C1,1*
G04 #@! TO.N,GND*
X156185464Y-64926914D03*
D10*
G04 #@! TO.N,+3V3*
G04 #@! TO.C,C1*
G36*
X156446243Y-62653058D02*
X156469298Y-62656477D01*
X156491907Y-62662141D01*
X156513851Y-62669993D01*
X156534921Y-62679958D01*
X156554912Y-62691940D01*
X156573632Y-62705824D01*
X156590902Y-62721476D01*
X156606554Y-62738746D01*
X156620438Y-62757466D01*
X156632420Y-62777457D01*
X156642385Y-62798527D01*
X156650237Y-62820471D01*
X156655901Y-62843080D01*
X156659320Y-62866135D01*
X156660464Y-62889414D01*
X156660464Y-63464414D01*
X156659320Y-63487693D01*
X156655901Y-63510748D01*
X156650237Y-63533357D01*
X156642385Y-63555301D01*
X156632420Y-63576371D01*
X156620438Y-63596362D01*
X156606554Y-63615082D01*
X156590902Y-63632352D01*
X156573632Y-63648004D01*
X156554912Y-63661888D01*
X156534921Y-63673870D01*
X156513851Y-63683835D01*
X156491907Y-63691687D01*
X156469298Y-63697351D01*
X156446243Y-63700770D01*
X156422964Y-63701914D01*
X155947964Y-63701914D01*
X155924685Y-63700770D01*
X155901630Y-63697351D01*
X155879021Y-63691687D01*
X155857077Y-63683835D01*
X155836007Y-63673870D01*
X155816016Y-63661888D01*
X155797296Y-63648004D01*
X155780026Y-63632352D01*
X155764374Y-63615082D01*
X155750490Y-63596362D01*
X155738508Y-63576371D01*
X155728543Y-63555301D01*
X155720691Y-63533357D01*
X155715027Y-63510748D01*
X155711608Y-63487693D01*
X155710464Y-63464414D01*
X155710464Y-62889414D01*
X155711608Y-62866135D01*
X155715027Y-62843080D01*
X155720691Y-62820471D01*
X155728543Y-62798527D01*
X155738508Y-62777457D01*
X155750490Y-62757466D01*
X155764374Y-62738746D01*
X155780026Y-62721476D01*
X155797296Y-62705824D01*
X155816016Y-62691940D01*
X155836007Y-62679958D01*
X155857077Y-62669993D01*
X155879021Y-62662141D01*
X155901630Y-62656477D01*
X155924685Y-62653058D01*
X155947964Y-62651914D01*
X156422964Y-62651914D01*
X156446243Y-62653058D01*
X156446243Y-62653058D01*
G37*
D11*
G04 #@! TD*
G04 #@! TO.P,C1,2*
G04 #@! TO.N,+3V3*
X156185464Y-63176914D03*
D10*
G04 #@! TO.N,+3V3*
G04 #@! TO.C,C2*
G36*
X158229845Y-62653058D02*
X158252900Y-62656477D01*
X158275509Y-62662141D01*
X158297453Y-62669993D01*
X158318523Y-62679958D01*
X158338514Y-62691940D01*
X158357234Y-62705824D01*
X158374504Y-62721476D01*
X158390156Y-62738746D01*
X158404040Y-62757466D01*
X158416022Y-62777457D01*
X158425987Y-62798527D01*
X158433839Y-62820471D01*
X158439503Y-62843080D01*
X158442922Y-62866135D01*
X158444066Y-62889414D01*
X158444066Y-63464414D01*
X158442922Y-63487693D01*
X158439503Y-63510748D01*
X158433839Y-63533357D01*
X158425987Y-63555301D01*
X158416022Y-63576371D01*
X158404040Y-63596362D01*
X158390156Y-63615082D01*
X158374504Y-63632352D01*
X158357234Y-63648004D01*
X158338514Y-63661888D01*
X158318523Y-63673870D01*
X158297453Y-63683835D01*
X158275509Y-63691687D01*
X158252900Y-63697351D01*
X158229845Y-63700770D01*
X158206566Y-63701914D01*
X157731566Y-63701914D01*
X157708287Y-63700770D01*
X157685232Y-63697351D01*
X157662623Y-63691687D01*
X157640679Y-63683835D01*
X157619609Y-63673870D01*
X157599618Y-63661888D01*
X157580898Y-63648004D01*
X157563628Y-63632352D01*
X157547976Y-63615082D01*
X157534092Y-63596362D01*
X157522110Y-63576371D01*
X157512145Y-63555301D01*
X157504293Y-63533357D01*
X157498629Y-63510748D01*
X157495210Y-63487693D01*
X157494066Y-63464414D01*
X157494066Y-62889414D01*
X157495210Y-62866135D01*
X157498629Y-62843080D01*
X157504293Y-62820471D01*
X157512145Y-62798527D01*
X157522110Y-62777457D01*
X157534092Y-62757466D01*
X157547976Y-62738746D01*
X157563628Y-62721476D01*
X157580898Y-62705824D01*
X157599618Y-62691940D01*
X157619609Y-62679958D01*
X157640679Y-62669993D01*
X157662623Y-62662141D01*
X157685232Y-62656477D01*
X157708287Y-62653058D01*
X157731566Y-62651914D01*
X158206566Y-62651914D01*
X158229845Y-62653058D01*
X158229845Y-62653058D01*
G37*
D11*
G04 #@! TD*
G04 #@! TO.P,C2,2*
G04 #@! TO.N,+3V3*
X157969066Y-63176914D03*
D10*
G04 #@! TO.N,GND*
G04 #@! TO.C,C2*
G36*
X158229845Y-64403058D02*
X158252900Y-64406477D01*
X158275509Y-64412141D01*
X158297453Y-64419993D01*
X158318523Y-64429958D01*
X158338514Y-64441940D01*
X158357234Y-64455824D01*
X158374504Y-64471476D01*
X158390156Y-64488746D01*
X158404040Y-64507466D01*
X158416022Y-64527457D01*
X158425987Y-64548527D01*
X158433839Y-64570471D01*
X158439503Y-64593080D01*
X158442922Y-64616135D01*
X158444066Y-64639414D01*
X158444066Y-65214414D01*
X158442922Y-65237693D01*
X158439503Y-65260748D01*
X158433839Y-65283357D01*
X158425987Y-65305301D01*
X158416022Y-65326371D01*
X158404040Y-65346362D01*
X158390156Y-65365082D01*
X158374504Y-65382352D01*
X158357234Y-65398004D01*
X158338514Y-65411888D01*
X158318523Y-65423870D01*
X158297453Y-65433835D01*
X158275509Y-65441687D01*
X158252900Y-65447351D01*
X158229845Y-65450770D01*
X158206566Y-65451914D01*
X157731566Y-65451914D01*
X157708287Y-65450770D01*
X157685232Y-65447351D01*
X157662623Y-65441687D01*
X157640679Y-65433835D01*
X157619609Y-65423870D01*
X157599618Y-65411888D01*
X157580898Y-65398004D01*
X157563628Y-65382352D01*
X157547976Y-65365082D01*
X157534092Y-65346362D01*
X157522110Y-65326371D01*
X157512145Y-65305301D01*
X157504293Y-65283357D01*
X157498629Y-65260748D01*
X157495210Y-65237693D01*
X157494066Y-65214414D01*
X157494066Y-64639414D01*
X157495210Y-64616135D01*
X157498629Y-64593080D01*
X157504293Y-64570471D01*
X157512145Y-64548527D01*
X157522110Y-64527457D01*
X157534092Y-64507466D01*
X157547976Y-64488746D01*
X157563628Y-64471476D01*
X157580898Y-64455824D01*
X157599618Y-64441940D01*
X157619609Y-64429958D01*
X157640679Y-64419993D01*
X157662623Y-64412141D01*
X157685232Y-64406477D01*
X157708287Y-64403058D01*
X157731566Y-64401914D01*
X158206566Y-64401914D01*
X158229845Y-64403058D01*
X158229845Y-64403058D01*
G37*
D11*
G04 #@! TD*
G04 #@! TO.P,C2,1*
G04 #@! TO.N,GND*
X157969066Y-64926914D03*
D10*
G04 #@! TO.N,Net-(C3-Pad1)*
G04 #@! TO.C,C3*
G36*
X160788779Y-44787144D02*
X160811834Y-44790563D01*
X160834443Y-44796227D01*
X160856387Y-44804079D01*
X160877457Y-44814044D01*
X160897448Y-44826026D01*
X160916168Y-44839910D01*
X160933438Y-44855562D01*
X160949090Y-44872832D01*
X160962974Y-44891552D01*
X160974956Y-44911543D01*
X160984921Y-44932613D01*
X160992773Y-44954557D01*
X160998437Y-44977166D01*
X161001856Y-45000221D01*
X161003000Y-45023500D01*
X161003000Y-45598500D01*
X161001856Y-45621779D01*
X160998437Y-45644834D01*
X160992773Y-45667443D01*
X160984921Y-45689387D01*
X160974956Y-45710457D01*
X160962974Y-45730448D01*
X160949090Y-45749168D01*
X160933438Y-45766438D01*
X160916168Y-45782090D01*
X160897448Y-45795974D01*
X160877457Y-45807956D01*
X160856387Y-45817921D01*
X160834443Y-45825773D01*
X160811834Y-45831437D01*
X160788779Y-45834856D01*
X160765500Y-45836000D01*
X160290500Y-45836000D01*
X160267221Y-45834856D01*
X160244166Y-45831437D01*
X160221557Y-45825773D01*
X160199613Y-45817921D01*
X160178543Y-45807956D01*
X160158552Y-45795974D01*
X160139832Y-45782090D01*
X160122562Y-45766438D01*
X160106910Y-45749168D01*
X160093026Y-45730448D01*
X160081044Y-45710457D01*
X160071079Y-45689387D01*
X160063227Y-45667443D01*
X160057563Y-45644834D01*
X160054144Y-45621779D01*
X160053000Y-45598500D01*
X160053000Y-45023500D01*
X160054144Y-45000221D01*
X160057563Y-44977166D01*
X160063227Y-44954557D01*
X160071079Y-44932613D01*
X160081044Y-44911543D01*
X160093026Y-44891552D01*
X160106910Y-44872832D01*
X160122562Y-44855562D01*
X160139832Y-44839910D01*
X160158552Y-44826026D01*
X160178543Y-44814044D01*
X160199613Y-44804079D01*
X160221557Y-44796227D01*
X160244166Y-44790563D01*
X160267221Y-44787144D01*
X160290500Y-44786000D01*
X160765500Y-44786000D01*
X160788779Y-44787144D01*
X160788779Y-44787144D01*
G37*
D11*
G04 #@! TD*
G04 #@! TO.P,C3,1*
G04 #@! TO.N,Net-(C3-Pad1)*
X160528000Y-45311000D03*
D10*
G04 #@! TO.N,Net-(C3-Pad2)*
G04 #@! TO.C,C3*
G36*
X160788779Y-43037144D02*
X160811834Y-43040563D01*
X160834443Y-43046227D01*
X160856387Y-43054079D01*
X160877457Y-43064044D01*
X160897448Y-43076026D01*
X160916168Y-43089910D01*
X160933438Y-43105562D01*
X160949090Y-43122832D01*
X160962974Y-43141552D01*
X160974956Y-43161543D01*
X160984921Y-43182613D01*
X160992773Y-43204557D01*
X160998437Y-43227166D01*
X161001856Y-43250221D01*
X161003000Y-43273500D01*
X161003000Y-43848500D01*
X161001856Y-43871779D01*
X160998437Y-43894834D01*
X160992773Y-43917443D01*
X160984921Y-43939387D01*
X160974956Y-43960457D01*
X160962974Y-43980448D01*
X160949090Y-43999168D01*
X160933438Y-44016438D01*
X160916168Y-44032090D01*
X160897448Y-44045974D01*
X160877457Y-44057956D01*
X160856387Y-44067921D01*
X160834443Y-44075773D01*
X160811834Y-44081437D01*
X160788779Y-44084856D01*
X160765500Y-44086000D01*
X160290500Y-44086000D01*
X160267221Y-44084856D01*
X160244166Y-44081437D01*
X160221557Y-44075773D01*
X160199613Y-44067921D01*
X160178543Y-44057956D01*
X160158552Y-44045974D01*
X160139832Y-44032090D01*
X160122562Y-44016438D01*
X160106910Y-43999168D01*
X160093026Y-43980448D01*
X160081044Y-43960457D01*
X160071079Y-43939387D01*
X160063227Y-43917443D01*
X160057563Y-43894834D01*
X160054144Y-43871779D01*
X160053000Y-43848500D01*
X160053000Y-43273500D01*
X160054144Y-43250221D01*
X160057563Y-43227166D01*
X160063227Y-43204557D01*
X160071079Y-43182613D01*
X160081044Y-43161543D01*
X160093026Y-43141552D01*
X160106910Y-43122832D01*
X160122562Y-43105562D01*
X160139832Y-43089910D01*
X160158552Y-43076026D01*
X160178543Y-43064044D01*
X160199613Y-43054079D01*
X160221557Y-43046227D01*
X160244166Y-43040563D01*
X160267221Y-43037144D01*
X160290500Y-43036000D01*
X160765500Y-43036000D01*
X160788779Y-43037144D01*
X160788779Y-43037144D01*
G37*
D11*
G04 #@! TD*
G04 #@! TO.P,C3,2*
G04 #@! TO.N,Net-(C3-Pad2)*
X160528000Y-43561000D03*
D10*
G04 #@! TO.N,GND*
G04 #@! TO.C,C4*
G36*
X148378779Y-70392144D02*
X148401834Y-70395563D01*
X148424443Y-70401227D01*
X148446387Y-70409079D01*
X148467457Y-70419044D01*
X148487448Y-70431026D01*
X148506168Y-70444910D01*
X148523438Y-70460562D01*
X148539090Y-70477832D01*
X148552974Y-70496552D01*
X148564956Y-70516543D01*
X148574921Y-70537613D01*
X148582773Y-70559557D01*
X148588437Y-70582166D01*
X148591856Y-70605221D01*
X148593000Y-70628500D01*
X148593000Y-71103500D01*
X148591856Y-71126779D01*
X148588437Y-71149834D01*
X148582773Y-71172443D01*
X148574921Y-71194387D01*
X148564956Y-71215457D01*
X148552974Y-71235448D01*
X148539090Y-71254168D01*
X148523438Y-71271438D01*
X148506168Y-71287090D01*
X148487448Y-71300974D01*
X148467457Y-71312956D01*
X148446387Y-71322921D01*
X148424443Y-71330773D01*
X148401834Y-71336437D01*
X148378779Y-71339856D01*
X148355500Y-71341000D01*
X147780500Y-71341000D01*
X147757221Y-71339856D01*
X147734166Y-71336437D01*
X147711557Y-71330773D01*
X147689613Y-71322921D01*
X147668543Y-71312956D01*
X147648552Y-71300974D01*
X147629832Y-71287090D01*
X147612562Y-71271438D01*
X147596910Y-71254168D01*
X147583026Y-71235448D01*
X147571044Y-71215457D01*
X147561079Y-71194387D01*
X147553227Y-71172443D01*
X147547563Y-71149834D01*
X147544144Y-71126779D01*
X147543000Y-71103500D01*
X147543000Y-70628500D01*
X147544144Y-70605221D01*
X147547563Y-70582166D01*
X147553227Y-70559557D01*
X147561079Y-70537613D01*
X147571044Y-70516543D01*
X147583026Y-70496552D01*
X147596910Y-70477832D01*
X147612562Y-70460562D01*
X147629832Y-70444910D01*
X147648552Y-70431026D01*
X147668543Y-70419044D01*
X147689613Y-70409079D01*
X147711557Y-70401227D01*
X147734166Y-70395563D01*
X147757221Y-70392144D01*
X147780500Y-70391000D01*
X148355500Y-70391000D01*
X148378779Y-70392144D01*
X148378779Y-70392144D01*
G37*
D11*
G04 #@! TD*
G04 #@! TO.P,C4,1*
G04 #@! TO.N,GND*
X148068000Y-70866000D03*
D10*
G04 #@! TO.N,Net-(C4-Pad2)*
G04 #@! TO.C,C4*
G36*
X146628779Y-70392144D02*
X146651834Y-70395563D01*
X146674443Y-70401227D01*
X146696387Y-70409079D01*
X146717457Y-70419044D01*
X146737448Y-70431026D01*
X146756168Y-70444910D01*
X146773438Y-70460562D01*
X146789090Y-70477832D01*
X146802974Y-70496552D01*
X146814956Y-70516543D01*
X146824921Y-70537613D01*
X146832773Y-70559557D01*
X146838437Y-70582166D01*
X146841856Y-70605221D01*
X146843000Y-70628500D01*
X146843000Y-71103500D01*
X146841856Y-71126779D01*
X146838437Y-71149834D01*
X146832773Y-71172443D01*
X146824921Y-71194387D01*
X146814956Y-71215457D01*
X146802974Y-71235448D01*
X146789090Y-71254168D01*
X146773438Y-71271438D01*
X146756168Y-71287090D01*
X146737448Y-71300974D01*
X146717457Y-71312956D01*
X146696387Y-71322921D01*
X146674443Y-71330773D01*
X146651834Y-71336437D01*
X146628779Y-71339856D01*
X146605500Y-71341000D01*
X146030500Y-71341000D01*
X146007221Y-71339856D01*
X145984166Y-71336437D01*
X145961557Y-71330773D01*
X145939613Y-71322921D01*
X145918543Y-71312956D01*
X145898552Y-71300974D01*
X145879832Y-71287090D01*
X145862562Y-71271438D01*
X145846910Y-71254168D01*
X145833026Y-71235448D01*
X145821044Y-71215457D01*
X145811079Y-71194387D01*
X145803227Y-71172443D01*
X145797563Y-71149834D01*
X145794144Y-71126779D01*
X145793000Y-71103500D01*
X145793000Y-70628500D01*
X145794144Y-70605221D01*
X145797563Y-70582166D01*
X145803227Y-70559557D01*
X145811079Y-70537613D01*
X145821044Y-70516543D01*
X145833026Y-70496552D01*
X145846910Y-70477832D01*
X145862562Y-70460562D01*
X145879832Y-70444910D01*
X145898552Y-70431026D01*
X145918543Y-70419044D01*
X145939613Y-70409079D01*
X145961557Y-70401227D01*
X145984166Y-70395563D01*
X146007221Y-70392144D01*
X146030500Y-70391000D01*
X146605500Y-70391000D01*
X146628779Y-70392144D01*
X146628779Y-70392144D01*
G37*
D11*
G04 #@! TD*
G04 #@! TO.P,C4,2*
G04 #@! TO.N,Net-(C4-Pad2)*
X146318000Y-70866000D03*
D10*
G04 #@! TO.N,Net-(C5-Pad2)*
G04 #@! TO.C,C5*
G36*
X146628779Y-67852144D02*
X146651834Y-67855563D01*
X146674443Y-67861227D01*
X146696387Y-67869079D01*
X146717457Y-67879044D01*
X146737448Y-67891026D01*
X146756168Y-67904910D01*
X146773438Y-67920562D01*
X146789090Y-67937832D01*
X146802974Y-67956552D01*
X146814956Y-67976543D01*
X146824921Y-67997613D01*
X146832773Y-68019557D01*
X146838437Y-68042166D01*
X146841856Y-68065221D01*
X146843000Y-68088500D01*
X146843000Y-68563500D01*
X146841856Y-68586779D01*
X146838437Y-68609834D01*
X146832773Y-68632443D01*
X146824921Y-68654387D01*
X146814956Y-68675457D01*
X146802974Y-68695448D01*
X146789090Y-68714168D01*
X146773438Y-68731438D01*
X146756168Y-68747090D01*
X146737448Y-68760974D01*
X146717457Y-68772956D01*
X146696387Y-68782921D01*
X146674443Y-68790773D01*
X146651834Y-68796437D01*
X146628779Y-68799856D01*
X146605500Y-68801000D01*
X146030500Y-68801000D01*
X146007221Y-68799856D01*
X145984166Y-68796437D01*
X145961557Y-68790773D01*
X145939613Y-68782921D01*
X145918543Y-68772956D01*
X145898552Y-68760974D01*
X145879832Y-68747090D01*
X145862562Y-68731438D01*
X145846910Y-68714168D01*
X145833026Y-68695448D01*
X145821044Y-68675457D01*
X145811079Y-68654387D01*
X145803227Y-68632443D01*
X145797563Y-68609834D01*
X145794144Y-68586779D01*
X145793000Y-68563500D01*
X145793000Y-68088500D01*
X145794144Y-68065221D01*
X145797563Y-68042166D01*
X145803227Y-68019557D01*
X145811079Y-67997613D01*
X145821044Y-67976543D01*
X145833026Y-67956552D01*
X145846910Y-67937832D01*
X145862562Y-67920562D01*
X145879832Y-67904910D01*
X145898552Y-67891026D01*
X145918543Y-67879044D01*
X145939613Y-67869079D01*
X145961557Y-67861227D01*
X145984166Y-67855563D01*
X146007221Y-67852144D01*
X146030500Y-67851000D01*
X146605500Y-67851000D01*
X146628779Y-67852144D01*
X146628779Y-67852144D01*
G37*
D11*
G04 #@! TD*
G04 #@! TO.P,C5,2*
G04 #@! TO.N,Net-(C5-Pad2)*
X146318000Y-68326000D03*
D10*
G04 #@! TO.N,GND*
G04 #@! TO.C,C5*
G36*
X148378779Y-67852144D02*
X148401834Y-67855563D01*
X148424443Y-67861227D01*
X148446387Y-67869079D01*
X148467457Y-67879044D01*
X148487448Y-67891026D01*
X148506168Y-67904910D01*
X148523438Y-67920562D01*
X148539090Y-67937832D01*
X148552974Y-67956552D01*
X148564956Y-67976543D01*
X148574921Y-67997613D01*
X148582773Y-68019557D01*
X148588437Y-68042166D01*
X148591856Y-68065221D01*
X148593000Y-68088500D01*
X148593000Y-68563500D01*
X148591856Y-68586779D01*
X148588437Y-68609834D01*
X148582773Y-68632443D01*
X148574921Y-68654387D01*
X148564956Y-68675457D01*
X148552974Y-68695448D01*
X148539090Y-68714168D01*
X148523438Y-68731438D01*
X148506168Y-68747090D01*
X148487448Y-68760974D01*
X148467457Y-68772956D01*
X148446387Y-68782921D01*
X148424443Y-68790773D01*
X148401834Y-68796437D01*
X148378779Y-68799856D01*
X148355500Y-68801000D01*
X147780500Y-68801000D01*
X147757221Y-68799856D01*
X147734166Y-68796437D01*
X147711557Y-68790773D01*
X147689613Y-68782921D01*
X147668543Y-68772956D01*
X147648552Y-68760974D01*
X147629832Y-68747090D01*
X147612562Y-68731438D01*
X147596910Y-68714168D01*
X147583026Y-68695448D01*
X147571044Y-68675457D01*
X147561079Y-68654387D01*
X147553227Y-68632443D01*
X147547563Y-68609834D01*
X147544144Y-68586779D01*
X147543000Y-68563500D01*
X147543000Y-68088500D01*
X147544144Y-68065221D01*
X147547563Y-68042166D01*
X147553227Y-68019557D01*
X147561079Y-67997613D01*
X147571044Y-67976543D01*
X147583026Y-67956552D01*
X147596910Y-67937832D01*
X147612562Y-67920562D01*
X147629832Y-67904910D01*
X147648552Y-67891026D01*
X147668543Y-67879044D01*
X147689613Y-67869079D01*
X147711557Y-67861227D01*
X147734166Y-67855563D01*
X147757221Y-67852144D01*
X147780500Y-67851000D01*
X148355500Y-67851000D01*
X148378779Y-67852144D01*
X148378779Y-67852144D01*
G37*
D11*
G04 #@! TD*
G04 #@! TO.P,C5,1*
G04 #@! TO.N,GND*
X148068000Y-68326000D03*
D10*
G04 #@! TO.N,GND*
G04 #@! TO.C,C6*
G36*
X148378779Y-75472144D02*
X148401834Y-75475563D01*
X148424443Y-75481227D01*
X148446387Y-75489079D01*
X148467457Y-75499044D01*
X148487448Y-75511026D01*
X148506168Y-75524910D01*
X148523438Y-75540562D01*
X148539090Y-75557832D01*
X148552974Y-75576552D01*
X148564956Y-75596543D01*
X148574921Y-75617613D01*
X148582773Y-75639557D01*
X148588437Y-75662166D01*
X148591856Y-75685221D01*
X148593000Y-75708500D01*
X148593000Y-76183500D01*
X148591856Y-76206779D01*
X148588437Y-76229834D01*
X148582773Y-76252443D01*
X148574921Y-76274387D01*
X148564956Y-76295457D01*
X148552974Y-76315448D01*
X148539090Y-76334168D01*
X148523438Y-76351438D01*
X148506168Y-76367090D01*
X148487448Y-76380974D01*
X148467457Y-76392956D01*
X148446387Y-76402921D01*
X148424443Y-76410773D01*
X148401834Y-76416437D01*
X148378779Y-76419856D01*
X148355500Y-76421000D01*
X147780500Y-76421000D01*
X147757221Y-76419856D01*
X147734166Y-76416437D01*
X147711557Y-76410773D01*
X147689613Y-76402921D01*
X147668543Y-76392956D01*
X147648552Y-76380974D01*
X147629832Y-76367090D01*
X147612562Y-76351438D01*
X147596910Y-76334168D01*
X147583026Y-76315448D01*
X147571044Y-76295457D01*
X147561079Y-76274387D01*
X147553227Y-76252443D01*
X147547563Y-76229834D01*
X147544144Y-76206779D01*
X147543000Y-76183500D01*
X147543000Y-75708500D01*
X147544144Y-75685221D01*
X147547563Y-75662166D01*
X147553227Y-75639557D01*
X147561079Y-75617613D01*
X147571044Y-75596543D01*
X147583026Y-75576552D01*
X147596910Y-75557832D01*
X147612562Y-75540562D01*
X147629832Y-75524910D01*
X147648552Y-75511026D01*
X147668543Y-75499044D01*
X147689613Y-75489079D01*
X147711557Y-75481227D01*
X147734166Y-75475563D01*
X147757221Y-75472144D01*
X147780500Y-75471000D01*
X148355500Y-75471000D01*
X148378779Y-75472144D01*
X148378779Y-75472144D01*
G37*
D11*
G04 #@! TD*
G04 #@! TO.P,C6,1*
G04 #@! TO.N,GND*
X148068000Y-75946000D03*
D10*
G04 #@! TO.N,Net-(C6-Pad2)*
G04 #@! TO.C,C6*
G36*
X146628779Y-75472144D02*
X146651834Y-75475563D01*
X146674443Y-75481227D01*
X146696387Y-75489079D01*
X146717457Y-75499044D01*
X146737448Y-75511026D01*
X146756168Y-75524910D01*
X146773438Y-75540562D01*
X146789090Y-75557832D01*
X146802974Y-75576552D01*
X146814956Y-75596543D01*
X146824921Y-75617613D01*
X146832773Y-75639557D01*
X146838437Y-75662166D01*
X146841856Y-75685221D01*
X146843000Y-75708500D01*
X146843000Y-76183500D01*
X146841856Y-76206779D01*
X146838437Y-76229834D01*
X146832773Y-76252443D01*
X146824921Y-76274387D01*
X146814956Y-76295457D01*
X146802974Y-76315448D01*
X146789090Y-76334168D01*
X146773438Y-76351438D01*
X146756168Y-76367090D01*
X146737448Y-76380974D01*
X146717457Y-76392956D01*
X146696387Y-76402921D01*
X146674443Y-76410773D01*
X146651834Y-76416437D01*
X146628779Y-76419856D01*
X146605500Y-76421000D01*
X146030500Y-76421000D01*
X146007221Y-76419856D01*
X145984166Y-76416437D01*
X145961557Y-76410773D01*
X145939613Y-76402921D01*
X145918543Y-76392956D01*
X145898552Y-76380974D01*
X145879832Y-76367090D01*
X145862562Y-76351438D01*
X145846910Y-76334168D01*
X145833026Y-76315448D01*
X145821044Y-76295457D01*
X145811079Y-76274387D01*
X145803227Y-76252443D01*
X145797563Y-76229834D01*
X145794144Y-76206779D01*
X145793000Y-76183500D01*
X145793000Y-75708500D01*
X145794144Y-75685221D01*
X145797563Y-75662166D01*
X145803227Y-75639557D01*
X145811079Y-75617613D01*
X145821044Y-75596543D01*
X145833026Y-75576552D01*
X145846910Y-75557832D01*
X145862562Y-75540562D01*
X145879832Y-75524910D01*
X145898552Y-75511026D01*
X145918543Y-75499044D01*
X145939613Y-75489079D01*
X145961557Y-75481227D01*
X145984166Y-75475563D01*
X146007221Y-75472144D01*
X146030500Y-75471000D01*
X146605500Y-75471000D01*
X146628779Y-75472144D01*
X146628779Y-75472144D01*
G37*
D11*
G04 #@! TD*
G04 #@! TO.P,C6,2*
G04 #@! TO.N,Net-(C6-Pad2)*
X146318000Y-75946000D03*
D10*
G04 #@! TO.N,Net-(C7-Pad2)*
G04 #@! TO.C,C7*
G36*
X146628779Y-72932144D02*
X146651834Y-72935563D01*
X146674443Y-72941227D01*
X146696387Y-72949079D01*
X146717457Y-72959044D01*
X146737448Y-72971026D01*
X146756168Y-72984910D01*
X146773438Y-73000562D01*
X146789090Y-73017832D01*
X146802974Y-73036552D01*
X146814956Y-73056543D01*
X146824921Y-73077613D01*
X146832773Y-73099557D01*
X146838437Y-73122166D01*
X146841856Y-73145221D01*
X146843000Y-73168500D01*
X146843000Y-73643500D01*
X146841856Y-73666779D01*
X146838437Y-73689834D01*
X146832773Y-73712443D01*
X146824921Y-73734387D01*
X146814956Y-73755457D01*
X146802974Y-73775448D01*
X146789090Y-73794168D01*
X146773438Y-73811438D01*
X146756168Y-73827090D01*
X146737448Y-73840974D01*
X146717457Y-73852956D01*
X146696387Y-73862921D01*
X146674443Y-73870773D01*
X146651834Y-73876437D01*
X146628779Y-73879856D01*
X146605500Y-73881000D01*
X146030500Y-73881000D01*
X146007221Y-73879856D01*
X145984166Y-73876437D01*
X145961557Y-73870773D01*
X145939613Y-73862921D01*
X145918543Y-73852956D01*
X145898552Y-73840974D01*
X145879832Y-73827090D01*
X145862562Y-73811438D01*
X145846910Y-73794168D01*
X145833026Y-73775448D01*
X145821044Y-73755457D01*
X145811079Y-73734387D01*
X145803227Y-73712443D01*
X145797563Y-73689834D01*
X145794144Y-73666779D01*
X145793000Y-73643500D01*
X145793000Y-73168500D01*
X145794144Y-73145221D01*
X145797563Y-73122166D01*
X145803227Y-73099557D01*
X145811079Y-73077613D01*
X145821044Y-73056543D01*
X145833026Y-73036552D01*
X145846910Y-73017832D01*
X145862562Y-73000562D01*
X145879832Y-72984910D01*
X145898552Y-72971026D01*
X145918543Y-72959044D01*
X145939613Y-72949079D01*
X145961557Y-72941227D01*
X145984166Y-72935563D01*
X146007221Y-72932144D01*
X146030500Y-72931000D01*
X146605500Y-72931000D01*
X146628779Y-72932144D01*
X146628779Y-72932144D01*
G37*
D11*
G04 #@! TD*
G04 #@! TO.P,C7,2*
G04 #@! TO.N,Net-(C7-Pad2)*
X146318000Y-73406000D03*
D10*
G04 #@! TO.N,GND*
G04 #@! TO.C,C7*
G36*
X148378779Y-72932144D02*
X148401834Y-72935563D01*
X148424443Y-72941227D01*
X148446387Y-72949079D01*
X148467457Y-72959044D01*
X148487448Y-72971026D01*
X148506168Y-72984910D01*
X148523438Y-73000562D01*
X148539090Y-73017832D01*
X148552974Y-73036552D01*
X148564956Y-73056543D01*
X148574921Y-73077613D01*
X148582773Y-73099557D01*
X148588437Y-73122166D01*
X148591856Y-73145221D01*
X148593000Y-73168500D01*
X148593000Y-73643500D01*
X148591856Y-73666779D01*
X148588437Y-73689834D01*
X148582773Y-73712443D01*
X148574921Y-73734387D01*
X148564956Y-73755457D01*
X148552974Y-73775448D01*
X148539090Y-73794168D01*
X148523438Y-73811438D01*
X148506168Y-73827090D01*
X148487448Y-73840974D01*
X148467457Y-73852956D01*
X148446387Y-73862921D01*
X148424443Y-73870773D01*
X148401834Y-73876437D01*
X148378779Y-73879856D01*
X148355500Y-73881000D01*
X147780500Y-73881000D01*
X147757221Y-73879856D01*
X147734166Y-73876437D01*
X147711557Y-73870773D01*
X147689613Y-73862921D01*
X147668543Y-73852956D01*
X147648552Y-73840974D01*
X147629832Y-73827090D01*
X147612562Y-73811438D01*
X147596910Y-73794168D01*
X147583026Y-73775448D01*
X147571044Y-73755457D01*
X147561079Y-73734387D01*
X147553227Y-73712443D01*
X147547563Y-73689834D01*
X147544144Y-73666779D01*
X147543000Y-73643500D01*
X147543000Y-73168500D01*
X147544144Y-73145221D01*
X147547563Y-73122166D01*
X147553227Y-73099557D01*
X147561079Y-73077613D01*
X147571044Y-73056543D01*
X147583026Y-73036552D01*
X147596910Y-73017832D01*
X147612562Y-73000562D01*
X147629832Y-72984910D01*
X147648552Y-72971026D01*
X147668543Y-72959044D01*
X147689613Y-72949079D01*
X147711557Y-72941227D01*
X147734166Y-72935563D01*
X147757221Y-72932144D01*
X147780500Y-72931000D01*
X148355500Y-72931000D01*
X148378779Y-72932144D01*
X148378779Y-72932144D01*
G37*
D11*
G04 #@! TD*
G04 #@! TO.P,C7,1*
G04 #@! TO.N,GND*
X148068000Y-73406000D03*
D12*
G04 #@! TO.P,J1,4*
G04 #@! TO.N,Net-(J1-Pad4)*
X164973000Y-40386000D03*
G04 #@! TO.P,J1,3*
G04 #@! TO.N,Net-(J1-Pad3)*
X164973000Y-42926000D03*
G04 #@! TO.P,J1,2*
G04 #@! TO.N,Net-(J1-Pad2)*
X164973000Y-45466000D03*
D10*
G04 #@! TD*
G04 #@! TO.N,Net-(J1-Pad1)*
G04 #@! TO.C,J1*
G36*
X165847505Y-47137204D02*
X165871773Y-47140804D01*
X165895572Y-47146765D01*
X165918671Y-47155030D01*
X165940850Y-47165520D01*
X165961893Y-47178132D01*
X165981599Y-47192747D01*
X165999777Y-47209223D01*
X166016253Y-47227401D01*
X166030868Y-47247107D01*
X166043480Y-47268150D01*
X166053970Y-47290329D01*
X166062235Y-47313428D01*
X166068196Y-47337227D01*
X166071796Y-47361495D01*
X166073000Y-47385999D01*
X166073000Y-48626001D01*
X166071796Y-48650505D01*
X166068196Y-48674773D01*
X166062235Y-48698572D01*
X166053970Y-48721671D01*
X166043480Y-48743850D01*
X166030868Y-48764893D01*
X166016253Y-48784599D01*
X165999777Y-48802777D01*
X165981599Y-48819253D01*
X165961893Y-48833868D01*
X165940850Y-48846480D01*
X165918671Y-48856970D01*
X165895572Y-48865235D01*
X165871773Y-48871196D01*
X165847505Y-48874796D01*
X165823001Y-48876000D01*
X164122999Y-48876000D01*
X164098495Y-48874796D01*
X164074227Y-48871196D01*
X164050428Y-48865235D01*
X164027329Y-48856970D01*
X164005150Y-48846480D01*
X163984107Y-48833868D01*
X163964401Y-48819253D01*
X163946223Y-48802777D01*
X163929747Y-48784599D01*
X163915132Y-48764893D01*
X163902520Y-48743850D01*
X163892030Y-48721671D01*
X163883765Y-48698572D01*
X163877804Y-48674773D01*
X163874204Y-48650505D01*
X163873000Y-48626001D01*
X163873000Y-47385999D01*
X163874204Y-47361495D01*
X163877804Y-47337227D01*
X163883765Y-47313428D01*
X163892030Y-47290329D01*
X163902520Y-47268150D01*
X163915132Y-47247107D01*
X163929747Y-47227401D01*
X163946223Y-47209223D01*
X163964401Y-47192747D01*
X163984107Y-47178132D01*
X164005150Y-47165520D01*
X164027329Y-47155030D01*
X164050428Y-47146765D01*
X164074227Y-47140804D01*
X164098495Y-47137204D01*
X164122999Y-47136000D01*
X165823001Y-47136000D01*
X165847505Y-47137204D01*
X165847505Y-47137204D01*
G37*
D13*
G04 #@! TO.P,J1,1*
G04 #@! TO.N,Net-(J1-Pad1)*
X164973000Y-48006000D03*
G04 #@! TD*
D10*
G04 #@! TO.N,Net-(J2-Pad1)*
G04 #@! TO.C,J2*
G36*
X156957505Y-47137204D02*
X156981773Y-47140804D01*
X157005572Y-47146765D01*
X157028671Y-47155030D01*
X157050850Y-47165520D01*
X157071893Y-47178132D01*
X157091599Y-47192747D01*
X157109777Y-47209223D01*
X157126253Y-47227401D01*
X157140868Y-47247107D01*
X157153480Y-47268150D01*
X157163970Y-47290329D01*
X157172235Y-47313428D01*
X157178196Y-47337227D01*
X157181796Y-47361495D01*
X157183000Y-47385999D01*
X157183000Y-48626001D01*
X157181796Y-48650505D01*
X157178196Y-48674773D01*
X157172235Y-48698572D01*
X157163970Y-48721671D01*
X157153480Y-48743850D01*
X157140868Y-48764893D01*
X157126253Y-48784599D01*
X157109777Y-48802777D01*
X157091599Y-48819253D01*
X157071893Y-48833868D01*
X157050850Y-48846480D01*
X157028671Y-48856970D01*
X157005572Y-48865235D01*
X156981773Y-48871196D01*
X156957505Y-48874796D01*
X156933001Y-48876000D01*
X155232999Y-48876000D01*
X155208495Y-48874796D01*
X155184227Y-48871196D01*
X155160428Y-48865235D01*
X155137329Y-48856970D01*
X155115150Y-48846480D01*
X155094107Y-48833868D01*
X155074401Y-48819253D01*
X155056223Y-48802777D01*
X155039747Y-48784599D01*
X155025132Y-48764893D01*
X155012520Y-48743850D01*
X155002030Y-48721671D01*
X154993765Y-48698572D01*
X154987804Y-48674773D01*
X154984204Y-48650505D01*
X154983000Y-48626001D01*
X154983000Y-47385999D01*
X154984204Y-47361495D01*
X154987804Y-47337227D01*
X154993765Y-47313428D01*
X155002030Y-47290329D01*
X155012520Y-47268150D01*
X155025132Y-47247107D01*
X155039747Y-47227401D01*
X155056223Y-47209223D01*
X155074401Y-47192747D01*
X155094107Y-47178132D01*
X155115150Y-47165520D01*
X155137329Y-47155030D01*
X155160428Y-47146765D01*
X155184227Y-47140804D01*
X155208495Y-47137204D01*
X155232999Y-47136000D01*
X156933001Y-47136000D01*
X156957505Y-47137204D01*
X156957505Y-47137204D01*
G37*
D13*
G04 #@! TD*
G04 #@! TO.P,J2,1*
G04 #@! TO.N,Net-(J2-Pad1)*
X156083000Y-48006000D03*
D12*
G04 #@! TO.P,J2,2*
G04 #@! TO.N,Net-(C3-Pad1)*
X156083000Y-45466000D03*
G04 #@! TO.P,J2,3*
G04 #@! TO.N,Net-(C3-Pad2)*
X156083000Y-42926000D03*
G04 #@! TO.P,J2,4*
G04 #@! TO.N,Net-(J2-Pad4)*
X156083000Y-40386000D03*
G04 #@! TD*
D10*
G04 #@! TO.N,Net-(C7-Pad2)*
G04 #@! TO.C,J3*
G36*
X147432505Y-47137204D02*
X147456773Y-47140804D01*
X147480572Y-47146765D01*
X147503671Y-47155030D01*
X147525850Y-47165520D01*
X147546893Y-47178132D01*
X147566599Y-47192747D01*
X147584777Y-47209223D01*
X147601253Y-47227401D01*
X147615868Y-47247107D01*
X147628480Y-47268150D01*
X147638970Y-47290329D01*
X147647235Y-47313428D01*
X147653196Y-47337227D01*
X147656796Y-47361495D01*
X147658000Y-47385999D01*
X147658000Y-48626001D01*
X147656796Y-48650505D01*
X147653196Y-48674773D01*
X147647235Y-48698572D01*
X147638970Y-48721671D01*
X147628480Y-48743850D01*
X147615868Y-48764893D01*
X147601253Y-48784599D01*
X147584777Y-48802777D01*
X147566599Y-48819253D01*
X147546893Y-48833868D01*
X147525850Y-48846480D01*
X147503671Y-48856970D01*
X147480572Y-48865235D01*
X147456773Y-48871196D01*
X147432505Y-48874796D01*
X147408001Y-48876000D01*
X145707999Y-48876000D01*
X145683495Y-48874796D01*
X145659227Y-48871196D01*
X145635428Y-48865235D01*
X145612329Y-48856970D01*
X145590150Y-48846480D01*
X145569107Y-48833868D01*
X145549401Y-48819253D01*
X145531223Y-48802777D01*
X145514747Y-48784599D01*
X145500132Y-48764893D01*
X145487520Y-48743850D01*
X145477030Y-48721671D01*
X145468765Y-48698572D01*
X145462804Y-48674773D01*
X145459204Y-48650505D01*
X145458000Y-48626001D01*
X145458000Y-47385999D01*
X145459204Y-47361495D01*
X145462804Y-47337227D01*
X145468765Y-47313428D01*
X145477030Y-47290329D01*
X145487520Y-47268150D01*
X145500132Y-47247107D01*
X145514747Y-47227401D01*
X145531223Y-47209223D01*
X145549401Y-47192747D01*
X145569107Y-47178132D01*
X145590150Y-47165520D01*
X145612329Y-47155030D01*
X145635428Y-47146765D01*
X145659227Y-47140804D01*
X145683495Y-47137204D01*
X145707999Y-47136000D01*
X147408001Y-47136000D01*
X147432505Y-47137204D01*
X147432505Y-47137204D01*
G37*
D13*
G04 #@! TD*
G04 #@! TO.P,J3,1*
G04 #@! TO.N,Net-(C7-Pad2)*
X146558000Y-48006000D03*
D12*
G04 #@! TO.P,J3,2*
G04 #@! TO.N,Net-(C6-Pad2)*
X146558000Y-45466000D03*
G04 #@! TO.P,J3,3*
G04 #@! TO.N,Net-(C5-Pad2)*
X146558000Y-42926000D03*
G04 #@! TO.P,J3,4*
G04 #@! TO.N,Net-(C4-Pad2)*
X146558000Y-40386000D03*
G04 #@! TD*
D10*
G04 #@! TO.N,UART2RX*
G04 #@! TO.C,J4*
G36*
X165617505Y-97707204D02*
X165641773Y-97710804D01*
X165665572Y-97716765D01*
X165688671Y-97725030D01*
X165710850Y-97735520D01*
X165731893Y-97748132D01*
X165751599Y-97762747D01*
X165769777Y-97779223D01*
X165786253Y-97797401D01*
X165800868Y-97817107D01*
X165813480Y-97838150D01*
X165823970Y-97860329D01*
X165832235Y-97883428D01*
X165838196Y-97907227D01*
X165841796Y-97931495D01*
X165843000Y-97955999D01*
X165843000Y-99656001D01*
X165841796Y-99680505D01*
X165838196Y-99704773D01*
X165832235Y-99728572D01*
X165823970Y-99751671D01*
X165813480Y-99773850D01*
X165800868Y-99794893D01*
X165786253Y-99814599D01*
X165769777Y-99832777D01*
X165751599Y-99849253D01*
X165731893Y-99863868D01*
X165710850Y-99876480D01*
X165688671Y-99886970D01*
X165665572Y-99895235D01*
X165641773Y-99901196D01*
X165617505Y-99904796D01*
X165593001Y-99906000D01*
X164352999Y-99906000D01*
X164328495Y-99904796D01*
X164304227Y-99901196D01*
X164280428Y-99895235D01*
X164257329Y-99886970D01*
X164235150Y-99876480D01*
X164214107Y-99863868D01*
X164194401Y-99849253D01*
X164176223Y-99832777D01*
X164159747Y-99814599D01*
X164145132Y-99794893D01*
X164132520Y-99773850D01*
X164122030Y-99751671D01*
X164113765Y-99728572D01*
X164107804Y-99704773D01*
X164104204Y-99680505D01*
X164103000Y-99656001D01*
X164103000Y-97955999D01*
X164104204Y-97931495D01*
X164107804Y-97907227D01*
X164113765Y-97883428D01*
X164122030Y-97860329D01*
X164132520Y-97838150D01*
X164145132Y-97817107D01*
X164159747Y-97797401D01*
X164176223Y-97779223D01*
X164194401Y-97762747D01*
X164214107Y-97748132D01*
X164235150Y-97735520D01*
X164257329Y-97725030D01*
X164280428Y-97716765D01*
X164304227Y-97710804D01*
X164328495Y-97707204D01*
X164352999Y-97706000D01*
X165593001Y-97706000D01*
X165617505Y-97707204D01*
X165617505Y-97707204D01*
G37*
D13*
G04 #@! TD*
G04 #@! TO.P,J4,1*
G04 #@! TO.N,UART2RX*
X164973000Y-98806000D03*
D14*
G04 #@! TO.P,J4,2*
G04 #@! TO.N,UART2TX*
X162433000Y-98806000D03*
G04 #@! TD*
D12*
G04 #@! TO.P,J5,2*
G04 #@! TO.N,SCL*
X163703000Y-65786000D03*
D10*
G04 #@! TD*
G04 #@! TO.N,SDA*
G04 #@! TO.C,J5*
G36*
X164577505Y-67457204D02*
X164601773Y-67460804D01*
X164625572Y-67466765D01*
X164648671Y-67475030D01*
X164670850Y-67485520D01*
X164691893Y-67498132D01*
X164711599Y-67512747D01*
X164729777Y-67529223D01*
X164746253Y-67547401D01*
X164760868Y-67567107D01*
X164773480Y-67588150D01*
X164783970Y-67610329D01*
X164792235Y-67633428D01*
X164798196Y-67657227D01*
X164801796Y-67681495D01*
X164803000Y-67705999D01*
X164803000Y-68946001D01*
X164801796Y-68970505D01*
X164798196Y-68994773D01*
X164792235Y-69018572D01*
X164783970Y-69041671D01*
X164773480Y-69063850D01*
X164760868Y-69084893D01*
X164746253Y-69104599D01*
X164729777Y-69122777D01*
X164711599Y-69139253D01*
X164691893Y-69153868D01*
X164670850Y-69166480D01*
X164648671Y-69176970D01*
X164625572Y-69185235D01*
X164601773Y-69191196D01*
X164577505Y-69194796D01*
X164553001Y-69196000D01*
X162852999Y-69196000D01*
X162828495Y-69194796D01*
X162804227Y-69191196D01*
X162780428Y-69185235D01*
X162757329Y-69176970D01*
X162735150Y-69166480D01*
X162714107Y-69153868D01*
X162694401Y-69139253D01*
X162676223Y-69122777D01*
X162659747Y-69104599D01*
X162645132Y-69084893D01*
X162632520Y-69063850D01*
X162622030Y-69041671D01*
X162613765Y-69018572D01*
X162607804Y-68994773D01*
X162604204Y-68970505D01*
X162603000Y-68946001D01*
X162603000Y-67705999D01*
X162604204Y-67681495D01*
X162607804Y-67657227D01*
X162613765Y-67633428D01*
X162622030Y-67610329D01*
X162632520Y-67588150D01*
X162645132Y-67567107D01*
X162659747Y-67547401D01*
X162676223Y-67529223D01*
X162694401Y-67512747D01*
X162714107Y-67498132D01*
X162735150Y-67485520D01*
X162757329Y-67475030D01*
X162780428Y-67466765D01*
X162804227Y-67460804D01*
X162828495Y-67457204D01*
X162852999Y-67456000D01*
X164553001Y-67456000D01*
X164577505Y-67457204D01*
X164577505Y-67457204D01*
G37*
D13*
G04 #@! TO.P,J5,1*
G04 #@! TO.N,SDA*
X163703000Y-68326000D03*
G04 #@! TD*
D10*
G04 #@! TO.N,+5V*
G04 #@! TO.C,J6*
G36*
X149742505Y-106597204D02*
X149766773Y-106600804D01*
X149790572Y-106606765D01*
X149813671Y-106615030D01*
X149835850Y-106625520D01*
X149856893Y-106638132D01*
X149876599Y-106652747D01*
X149894777Y-106669223D01*
X149911253Y-106687401D01*
X149925868Y-106707107D01*
X149938480Y-106728150D01*
X149948970Y-106750329D01*
X149957235Y-106773428D01*
X149963196Y-106797227D01*
X149966796Y-106821495D01*
X149968000Y-106845999D01*
X149968000Y-108546001D01*
X149966796Y-108570505D01*
X149963196Y-108594773D01*
X149957235Y-108618572D01*
X149948970Y-108641671D01*
X149938480Y-108663850D01*
X149925868Y-108684893D01*
X149911253Y-108704599D01*
X149894777Y-108722777D01*
X149876599Y-108739253D01*
X149856893Y-108753868D01*
X149835850Y-108766480D01*
X149813671Y-108776970D01*
X149790572Y-108785235D01*
X149766773Y-108791196D01*
X149742505Y-108794796D01*
X149718001Y-108796000D01*
X148477999Y-108796000D01*
X148453495Y-108794796D01*
X148429227Y-108791196D01*
X148405428Y-108785235D01*
X148382329Y-108776970D01*
X148360150Y-108766480D01*
X148339107Y-108753868D01*
X148319401Y-108739253D01*
X148301223Y-108722777D01*
X148284747Y-108704599D01*
X148270132Y-108684893D01*
X148257520Y-108663850D01*
X148247030Y-108641671D01*
X148238765Y-108618572D01*
X148232804Y-108594773D01*
X148229204Y-108570505D01*
X148228000Y-108546001D01*
X148228000Y-106845999D01*
X148229204Y-106821495D01*
X148232804Y-106797227D01*
X148238765Y-106773428D01*
X148247030Y-106750329D01*
X148257520Y-106728150D01*
X148270132Y-106707107D01*
X148284747Y-106687401D01*
X148301223Y-106669223D01*
X148319401Y-106652747D01*
X148339107Y-106638132D01*
X148360150Y-106625520D01*
X148382329Y-106615030D01*
X148405428Y-106606765D01*
X148429227Y-106600804D01*
X148453495Y-106597204D01*
X148477999Y-106596000D01*
X149718001Y-106596000D01*
X149742505Y-106597204D01*
X149742505Y-106597204D01*
G37*
D13*
G04 #@! TD*
G04 #@! TO.P,J6,1*
G04 #@! TO.N,+5V*
X149098000Y-107696000D03*
D14*
G04 #@! TO.P,J6,2*
G04 #@! TO.N,+3V3*
X151638000Y-107696000D03*
G04 #@! TO.P,J6,3*
G04 #@! TO.N,GND*
X154178000Y-107696000D03*
G04 #@! TD*
D15*
G04 #@! TO.P,JM1,33*
G04 #@! TO.N,Net-(C6-Pad2)*
X143439071Y-75994093D03*
G04 #@! TO.P,JM1,27*
G04 #@! TO.N,RTD_CS*
X143439071Y-83614093D03*
G04 #@! TO.P,JM1,VCC*
G04 #@! TO.N,+3V3*
X143439071Y-58214093D03*
G04 #@! TO.P,JM1,GND*
G04 #@! TO.N,GND*
X143439071Y-91234093D03*
G04 #@! TO.P,JM1,26*
G04 #@! TO.N,FLASH_CS*
X143439071Y-81074093D03*
G04 #@! TO.P,JM1,34*
G04 #@! TO.N,Net-(C5-Pad2)*
X143439071Y-68374093D03*
G04 #@! TO.P,JM1,14*
G04 #@! TO.N,SCLK*
X143439071Y-86154093D03*
G04 #@! TO.P,JM1,13*
G04 #@! TO.N,MOSI*
X143439071Y-93774093D03*
G04 #@! TO.P,JM1,SVP*
G04 #@! TO.N,Net-(JM1-PadSVP)*
X143439071Y-63294093D03*
G04 #@! TO.P,JM1,25*
G04 #@! TO.N,RTD_DRDY*
X143439071Y-78534093D03*
G04 #@! TO.P,JM1,5V*
G04 #@! TO.N,+5V*
X143439071Y-103934093D03*
G04 #@! TO.P,JM1,SD2*
G04 #@! TO.N,Net-(JM1-PadSD2)*
X143439071Y-96314093D03*
G04 #@! TO.P,JM1,12*
G04 #@! TO.N,MISO*
X143439071Y-88694093D03*
G04 #@! TO.P,JM1,SVN*
G04 #@! TO.N,Net-(JM1-PadSVN)*
X143439071Y-65834093D03*
G04 #@! TO.P,JM1,32*
G04 #@! TO.N,Net-(C7-Pad2)*
X143439071Y-73454093D03*
G04 #@! TO.P,JM1,EN*
G04 #@! TO.N,Net-(JM1-PadEN)*
X143439071Y-60754093D03*
G04 #@! TO.P,JM1,35*
G04 #@! TO.N,Net-(C4-Pad2)*
X143439071Y-70914093D03*
D16*
G04 #@! TO.P,JM1,NC*
G04 #@! TO.N,Net-(JM1-PadNC)*
X143439071Y-106474093D03*
D15*
G04 #@! TO.P,JM1,CMD*
G04 #@! TO.N,Net-(JM1-PadCMD)*
X143439071Y-101394093D03*
G04 #@! TO.P,JM1,SD3*
G04 #@! TO.N,Net-(JM1-PadSD3)*
X143439071Y-98854093D03*
G04 #@! TO.P,JM1,GND*
G04 #@! TO.N,GND*
X168839071Y-58214093D03*
G04 #@! TO.P,JM1,23*
G04 #@! TO.N,EADC_RDY*
X168839071Y-60754093D03*
G04 #@! TO.P,JM1,22*
G04 #@! TO.N,SCL*
X168839071Y-63294093D03*
G04 #@! TO.P,JM1,TX*
G04 #@! TO.N,Net-(JM1-PadTX)*
X168839071Y-65834093D03*
G04 #@! TO.P,JM1,RX*
G04 #@! TO.N,Net-(JM1-PadRX)*
X168839071Y-68374093D03*
G04 #@! TO.P,JM1,21*
G04 #@! TO.N,SDA*
X168839071Y-70914093D03*
G04 #@! TO.P,JM1,GND*
G04 #@! TO.N,GND*
X168839071Y-73454093D03*
G04 #@! TO.P,JM1,19*
G04 #@! TO.N,FLASH_HD*
X168839071Y-75994093D03*
G04 #@! TO.P,JM1,18*
G04 #@! TO.N,FLASH_WP*
X168839071Y-78534093D03*
G04 #@! TO.P,JM1,5*
G04 #@! TO.N,Net-(JM1-Pad5)*
X168839071Y-81074093D03*
G04 #@! TO.P,JM1,17*
G04 #@! TO.N,Net-(JM1-Pad17)*
X168839071Y-83614093D03*
G04 #@! TO.P,JM1,16*
G04 #@! TO.N,Net-(JM1-Pad16)*
X168839071Y-86154093D03*
G04 #@! TO.P,JM1,4*
G04 #@! TO.N,UART2TX*
X168839071Y-88694093D03*
G04 #@! TO.P,JM1,0*
G04 #@! TO.N,Net-(JM1-Pad0)*
X168839071Y-91234093D03*
G04 #@! TO.P,JM1,2*
G04 #@! TO.N,UART2RX*
X168839071Y-93774093D03*
G04 #@! TO.P,JM1,15*
G04 #@! TO.N,Net-(JM1-Pad15)*
X168839071Y-96314093D03*
G04 #@! TO.P,JM1,SD1*
G04 #@! TO.N,Net-(JM1-PadSD1)*
X168839071Y-98854093D03*
G04 #@! TO.P,JM1,SD0*
G04 #@! TO.N,Net-(JM1-PadSD0)*
X168839071Y-101394093D03*
G04 #@! TO.P,JM1,CLK*
G04 #@! TO.N,Net-(JM1-PadCLK)*
X168839071Y-103934093D03*
D16*
G04 #@! TO.P,JM1,NC*
G04 #@! TO.N,Net-(JM1-PadNC)*
X168839071Y-106474093D03*
G04 #@! TD*
D17*
G04 #@! TO.P,JP1,1*
G04 #@! TO.N,GND*
X158780000Y-51562000D03*
D10*
G04 #@! TD*
G04 #@! TO.N,GND*
G04 #@! TO.C,JP1*
G36*
X158230000Y-51862000D02*
X157880000Y-51862000D01*
X157880000Y-51262000D01*
X158230000Y-51262000D01*
X158230000Y-50812000D01*
X158780000Y-50812000D01*
X158780000Y-50812602D01*
X158804534Y-50812602D01*
X158853365Y-50817412D01*
X158901490Y-50826984D01*
X158948445Y-50841228D01*
X158993778Y-50860005D01*
X159037051Y-50883136D01*
X159077850Y-50910396D01*
X159115779Y-50941524D01*
X159150476Y-50976221D01*
X159181604Y-51014150D01*
X159208864Y-51054949D01*
X159231995Y-51098222D01*
X159250772Y-51143555D01*
X159265016Y-51190510D01*
X159274588Y-51238635D01*
X159279398Y-51287466D01*
X159279398Y-51312000D01*
X159280000Y-51312000D01*
X159280000Y-51812000D01*
X159279398Y-51812000D01*
X159279398Y-51836534D01*
X159274588Y-51885365D01*
X159265016Y-51933490D01*
X159250772Y-51980445D01*
X159231995Y-52025778D01*
X159208864Y-52069051D01*
X159181604Y-52109850D01*
X159150476Y-52147779D01*
X159115779Y-52182476D01*
X159077850Y-52213604D01*
X159037051Y-52240864D01*
X158993778Y-52263995D01*
X158948445Y-52282772D01*
X158901490Y-52297016D01*
X158853365Y-52306588D01*
X158804534Y-52311398D01*
X158780000Y-52311398D01*
X158780000Y-52312000D01*
X158230000Y-52312000D01*
X158230000Y-51862000D01*
X158230000Y-51862000D01*
G37*
D17*
G04 #@! TO.P,JP1,3*
G04 #@! TO.N,Net-(J2-Pad1)*
X156180000Y-51562000D03*
D10*
G04 #@! TD*
G04 #@! TO.N,Net-(J2-Pad1)*
G04 #@! TO.C,JP1*
G36*
X156180000Y-52311398D02*
X156155466Y-52311398D01*
X156106635Y-52306588D01*
X156058510Y-52297016D01*
X156011555Y-52282772D01*
X155966222Y-52263995D01*
X155922949Y-52240864D01*
X155882150Y-52213604D01*
X155844221Y-52182476D01*
X155809524Y-52147779D01*
X155778396Y-52109850D01*
X155751136Y-52069051D01*
X155728005Y-52025778D01*
X155709228Y-51980445D01*
X155694984Y-51933490D01*
X155685412Y-51885365D01*
X155680602Y-51836534D01*
X155680602Y-51812000D01*
X155680000Y-51812000D01*
X155680000Y-51312000D01*
X155680602Y-51312000D01*
X155680602Y-51287466D01*
X155685412Y-51238635D01*
X155694984Y-51190510D01*
X155709228Y-51143555D01*
X155728005Y-51098222D01*
X155751136Y-51054949D01*
X155778396Y-51014150D01*
X155809524Y-50976221D01*
X155844221Y-50941524D01*
X155882150Y-50910396D01*
X155922949Y-50883136D01*
X155966222Y-50860005D01*
X156011555Y-50841228D01*
X156058510Y-50826984D01*
X156106635Y-50817412D01*
X156155466Y-50812602D01*
X156180000Y-50812602D01*
X156180000Y-50812000D01*
X156730000Y-50812000D01*
X156730000Y-52312000D01*
X156180000Y-52312000D01*
X156180000Y-52311398D01*
X156180000Y-52311398D01*
G37*
D18*
G04 #@! TO.P,JP1,2*
G04 #@! TO.N,Net-(JP1-Pad2)*
X157480000Y-51562000D03*
G04 #@! TD*
D10*
G04 #@! TO.N,Net-(R1-Pad1)*
G04 #@! TO.C,R1*
G36*
X157446505Y-60277204D02*
X157470773Y-60280804D01*
X157494572Y-60286765D01*
X157517671Y-60295030D01*
X157539850Y-60305520D01*
X157560893Y-60318132D01*
X157580599Y-60332747D01*
X157598777Y-60349223D01*
X157615253Y-60367401D01*
X157629868Y-60387107D01*
X157642480Y-60408150D01*
X157652970Y-60430329D01*
X157661235Y-60453428D01*
X157667196Y-60477227D01*
X157670796Y-60501495D01*
X157672000Y-60525999D01*
X157672000Y-61176001D01*
X157670796Y-61200505D01*
X157667196Y-61224773D01*
X157661235Y-61248572D01*
X157652970Y-61271671D01*
X157642480Y-61293850D01*
X157629868Y-61314893D01*
X157615253Y-61334599D01*
X157598777Y-61352777D01*
X157580599Y-61369253D01*
X157560893Y-61383868D01*
X157539850Y-61396480D01*
X157517671Y-61406970D01*
X157494572Y-61415235D01*
X157470773Y-61421196D01*
X157446505Y-61424796D01*
X157422001Y-61426000D01*
X156521999Y-61426000D01*
X156497495Y-61424796D01*
X156473227Y-61421196D01*
X156449428Y-61415235D01*
X156426329Y-61406970D01*
X156404150Y-61396480D01*
X156383107Y-61383868D01*
X156363401Y-61369253D01*
X156345223Y-61352777D01*
X156328747Y-61334599D01*
X156314132Y-61314893D01*
X156301520Y-61293850D01*
X156291030Y-61271671D01*
X156282765Y-61248572D01*
X156276804Y-61224773D01*
X156273204Y-61200505D01*
X156272000Y-61176001D01*
X156272000Y-60525999D01*
X156273204Y-60501495D01*
X156276804Y-60477227D01*
X156282765Y-60453428D01*
X156291030Y-60430329D01*
X156301520Y-60408150D01*
X156314132Y-60387107D01*
X156328747Y-60367401D01*
X156345223Y-60349223D01*
X156363401Y-60332747D01*
X156383107Y-60318132D01*
X156404150Y-60305520D01*
X156426329Y-60295030D01*
X156449428Y-60286765D01*
X156473227Y-60280804D01*
X156497495Y-60277204D01*
X156521999Y-60276000D01*
X157422001Y-60276000D01*
X157446505Y-60277204D01*
X157446505Y-60277204D01*
G37*
D19*
G04 #@! TD*
G04 #@! TO.P,R1,1*
G04 #@! TO.N,Net-(R1-Pad1)*
X156972000Y-60851000D03*
D10*
G04 #@! TO.N,Net-(R1-Pad2)*
G04 #@! TO.C,R1*
G36*
X157446505Y-58227204D02*
X157470773Y-58230804D01*
X157494572Y-58236765D01*
X157517671Y-58245030D01*
X157539850Y-58255520D01*
X157560893Y-58268132D01*
X157580599Y-58282747D01*
X157598777Y-58299223D01*
X157615253Y-58317401D01*
X157629868Y-58337107D01*
X157642480Y-58358150D01*
X157652970Y-58380329D01*
X157661235Y-58403428D01*
X157667196Y-58427227D01*
X157670796Y-58451495D01*
X157672000Y-58475999D01*
X157672000Y-59126001D01*
X157670796Y-59150505D01*
X157667196Y-59174773D01*
X157661235Y-59198572D01*
X157652970Y-59221671D01*
X157642480Y-59243850D01*
X157629868Y-59264893D01*
X157615253Y-59284599D01*
X157598777Y-59302777D01*
X157580599Y-59319253D01*
X157560893Y-59333868D01*
X157539850Y-59346480D01*
X157517671Y-59356970D01*
X157494572Y-59365235D01*
X157470773Y-59371196D01*
X157446505Y-59374796D01*
X157422001Y-59376000D01*
X156521999Y-59376000D01*
X156497495Y-59374796D01*
X156473227Y-59371196D01*
X156449428Y-59365235D01*
X156426329Y-59356970D01*
X156404150Y-59346480D01*
X156383107Y-59333868D01*
X156363401Y-59319253D01*
X156345223Y-59302777D01*
X156328747Y-59284599D01*
X156314132Y-59264893D01*
X156301520Y-59243850D01*
X156291030Y-59221671D01*
X156282765Y-59198572D01*
X156276804Y-59174773D01*
X156273204Y-59150505D01*
X156272000Y-59126001D01*
X156272000Y-58475999D01*
X156273204Y-58451495D01*
X156276804Y-58427227D01*
X156282765Y-58403428D01*
X156291030Y-58380329D01*
X156301520Y-58358150D01*
X156314132Y-58337107D01*
X156328747Y-58317401D01*
X156345223Y-58299223D01*
X156363401Y-58282747D01*
X156383107Y-58268132D01*
X156404150Y-58255520D01*
X156426329Y-58245030D01*
X156449428Y-58236765D01*
X156473227Y-58230804D01*
X156497495Y-58227204D01*
X156521999Y-58226000D01*
X157422001Y-58226000D01*
X157446505Y-58227204D01*
X157446505Y-58227204D01*
G37*
D19*
G04 #@! TD*
G04 #@! TO.P,R1,2*
G04 #@! TO.N,Net-(R1-Pad2)*
X156972000Y-58801000D03*
D10*
G04 #@! TO.N,+3V3*
G04 #@! TO.C,R2*
G36*
X166503779Y-60817144D02*
X166526834Y-60820563D01*
X166549443Y-60826227D01*
X166571387Y-60834079D01*
X166592457Y-60844044D01*
X166612448Y-60856026D01*
X166631168Y-60869910D01*
X166648438Y-60885562D01*
X166664090Y-60902832D01*
X166677974Y-60921552D01*
X166689956Y-60941543D01*
X166699921Y-60962613D01*
X166707773Y-60984557D01*
X166713437Y-61007166D01*
X166716856Y-61030221D01*
X166718000Y-61053500D01*
X166718000Y-61628500D01*
X166716856Y-61651779D01*
X166713437Y-61674834D01*
X166707773Y-61697443D01*
X166699921Y-61719387D01*
X166689956Y-61740457D01*
X166677974Y-61760448D01*
X166664090Y-61779168D01*
X166648438Y-61796438D01*
X166631168Y-61812090D01*
X166612448Y-61825974D01*
X166592457Y-61837956D01*
X166571387Y-61847921D01*
X166549443Y-61855773D01*
X166526834Y-61861437D01*
X166503779Y-61864856D01*
X166480500Y-61866000D01*
X166005500Y-61866000D01*
X165982221Y-61864856D01*
X165959166Y-61861437D01*
X165936557Y-61855773D01*
X165914613Y-61847921D01*
X165893543Y-61837956D01*
X165873552Y-61825974D01*
X165854832Y-61812090D01*
X165837562Y-61796438D01*
X165821910Y-61779168D01*
X165808026Y-61760448D01*
X165796044Y-61740457D01*
X165786079Y-61719387D01*
X165778227Y-61697443D01*
X165772563Y-61674834D01*
X165769144Y-61651779D01*
X165768000Y-61628500D01*
X165768000Y-61053500D01*
X165769144Y-61030221D01*
X165772563Y-61007166D01*
X165778227Y-60984557D01*
X165786079Y-60962613D01*
X165796044Y-60941543D01*
X165808026Y-60921552D01*
X165821910Y-60902832D01*
X165837562Y-60885562D01*
X165854832Y-60869910D01*
X165873552Y-60856026D01*
X165893543Y-60844044D01*
X165914613Y-60834079D01*
X165936557Y-60826227D01*
X165959166Y-60820563D01*
X165982221Y-60817144D01*
X166005500Y-60816000D01*
X166480500Y-60816000D01*
X166503779Y-60817144D01*
X166503779Y-60817144D01*
G37*
D11*
G04 #@! TD*
G04 #@! TO.P,R2,1*
G04 #@! TO.N,+3V3*
X166243000Y-61341000D03*
D10*
G04 #@! TO.N,SCL*
G04 #@! TO.C,R2*
G36*
X166503779Y-62567144D02*
X166526834Y-62570563D01*
X166549443Y-62576227D01*
X166571387Y-62584079D01*
X166592457Y-62594044D01*
X166612448Y-62606026D01*
X166631168Y-62619910D01*
X166648438Y-62635562D01*
X166664090Y-62652832D01*
X166677974Y-62671552D01*
X166689956Y-62691543D01*
X166699921Y-62712613D01*
X166707773Y-62734557D01*
X166713437Y-62757166D01*
X166716856Y-62780221D01*
X166718000Y-62803500D01*
X166718000Y-63378500D01*
X166716856Y-63401779D01*
X166713437Y-63424834D01*
X166707773Y-63447443D01*
X166699921Y-63469387D01*
X166689956Y-63490457D01*
X166677974Y-63510448D01*
X166664090Y-63529168D01*
X166648438Y-63546438D01*
X166631168Y-63562090D01*
X166612448Y-63575974D01*
X166592457Y-63587956D01*
X166571387Y-63597921D01*
X166549443Y-63605773D01*
X166526834Y-63611437D01*
X166503779Y-63614856D01*
X166480500Y-63616000D01*
X166005500Y-63616000D01*
X165982221Y-63614856D01*
X165959166Y-63611437D01*
X165936557Y-63605773D01*
X165914613Y-63597921D01*
X165893543Y-63587956D01*
X165873552Y-63575974D01*
X165854832Y-63562090D01*
X165837562Y-63546438D01*
X165821910Y-63529168D01*
X165808026Y-63510448D01*
X165796044Y-63490457D01*
X165786079Y-63469387D01*
X165778227Y-63447443D01*
X165772563Y-63424834D01*
X165769144Y-63401779D01*
X165768000Y-63378500D01*
X165768000Y-62803500D01*
X165769144Y-62780221D01*
X165772563Y-62757166D01*
X165778227Y-62734557D01*
X165786079Y-62712613D01*
X165796044Y-62691543D01*
X165808026Y-62671552D01*
X165821910Y-62652832D01*
X165837562Y-62635562D01*
X165854832Y-62619910D01*
X165873552Y-62606026D01*
X165893543Y-62594044D01*
X165914613Y-62584079D01*
X165936557Y-62576227D01*
X165959166Y-62570563D01*
X165982221Y-62567144D01*
X166005500Y-62566000D01*
X166480500Y-62566000D01*
X166503779Y-62567144D01*
X166503779Y-62567144D01*
G37*
D11*
G04 #@! TD*
G04 #@! TO.P,R2,2*
G04 #@! TO.N,SCL*
X166243000Y-63091000D03*
D10*
G04 #@! TO.N,SDA*
G04 #@! TO.C,R3*
G36*
X166503779Y-70737144D02*
X166526834Y-70740563D01*
X166549443Y-70746227D01*
X166571387Y-70754079D01*
X166592457Y-70764044D01*
X166612448Y-70776026D01*
X166631168Y-70789910D01*
X166648438Y-70805562D01*
X166664090Y-70822832D01*
X166677974Y-70841552D01*
X166689956Y-70861543D01*
X166699921Y-70882613D01*
X166707773Y-70904557D01*
X166713437Y-70927166D01*
X166716856Y-70950221D01*
X166718000Y-70973500D01*
X166718000Y-71548500D01*
X166716856Y-71571779D01*
X166713437Y-71594834D01*
X166707773Y-71617443D01*
X166699921Y-71639387D01*
X166689956Y-71660457D01*
X166677974Y-71680448D01*
X166664090Y-71699168D01*
X166648438Y-71716438D01*
X166631168Y-71732090D01*
X166612448Y-71745974D01*
X166592457Y-71757956D01*
X166571387Y-71767921D01*
X166549443Y-71775773D01*
X166526834Y-71781437D01*
X166503779Y-71784856D01*
X166480500Y-71786000D01*
X166005500Y-71786000D01*
X165982221Y-71784856D01*
X165959166Y-71781437D01*
X165936557Y-71775773D01*
X165914613Y-71767921D01*
X165893543Y-71757956D01*
X165873552Y-71745974D01*
X165854832Y-71732090D01*
X165837562Y-71716438D01*
X165821910Y-71699168D01*
X165808026Y-71680448D01*
X165796044Y-71660457D01*
X165786079Y-71639387D01*
X165778227Y-71617443D01*
X165772563Y-71594834D01*
X165769144Y-71571779D01*
X165768000Y-71548500D01*
X165768000Y-70973500D01*
X165769144Y-70950221D01*
X165772563Y-70927166D01*
X165778227Y-70904557D01*
X165786079Y-70882613D01*
X165796044Y-70861543D01*
X165808026Y-70841552D01*
X165821910Y-70822832D01*
X165837562Y-70805562D01*
X165854832Y-70789910D01*
X165873552Y-70776026D01*
X165893543Y-70764044D01*
X165914613Y-70754079D01*
X165936557Y-70746227D01*
X165959166Y-70740563D01*
X165982221Y-70737144D01*
X166005500Y-70736000D01*
X166480500Y-70736000D01*
X166503779Y-70737144D01*
X166503779Y-70737144D01*
G37*
D11*
G04 #@! TD*
G04 #@! TO.P,R3,2*
G04 #@! TO.N,SDA*
X166243000Y-71261000D03*
D10*
G04 #@! TO.N,+3V3*
G04 #@! TO.C,R3*
G36*
X166503779Y-72487144D02*
X166526834Y-72490563D01*
X166549443Y-72496227D01*
X166571387Y-72504079D01*
X166592457Y-72514044D01*
X166612448Y-72526026D01*
X166631168Y-72539910D01*
X166648438Y-72555562D01*
X166664090Y-72572832D01*
X166677974Y-72591552D01*
X166689956Y-72611543D01*
X166699921Y-72632613D01*
X166707773Y-72654557D01*
X166713437Y-72677166D01*
X166716856Y-72700221D01*
X166718000Y-72723500D01*
X166718000Y-73298500D01*
X166716856Y-73321779D01*
X166713437Y-73344834D01*
X166707773Y-73367443D01*
X166699921Y-73389387D01*
X166689956Y-73410457D01*
X166677974Y-73430448D01*
X166664090Y-73449168D01*
X166648438Y-73466438D01*
X166631168Y-73482090D01*
X166612448Y-73495974D01*
X166592457Y-73507956D01*
X166571387Y-73517921D01*
X166549443Y-73525773D01*
X166526834Y-73531437D01*
X166503779Y-73534856D01*
X166480500Y-73536000D01*
X166005500Y-73536000D01*
X165982221Y-73534856D01*
X165959166Y-73531437D01*
X165936557Y-73525773D01*
X165914613Y-73517921D01*
X165893543Y-73507956D01*
X165873552Y-73495974D01*
X165854832Y-73482090D01*
X165837562Y-73466438D01*
X165821910Y-73449168D01*
X165808026Y-73430448D01*
X165796044Y-73410457D01*
X165786079Y-73389387D01*
X165778227Y-73367443D01*
X165772563Y-73344834D01*
X165769144Y-73321779D01*
X165768000Y-73298500D01*
X165768000Y-72723500D01*
X165769144Y-72700221D01*
X165772563Y-72677166D01*
X165778227Y-72654557D01*
X165786079Y-72632613D01*
X165796044Y-72611543D01*
X165808026Y-72591552D01*
X165821910Y-72572832D01*
X165837562Y-72555562D01*
X165854832Y-72539910D01*
X165873552Y-72526026D01*
X165893543Y-72514044D01*
X165914613Y-72504079D01*
X165936557Y-72496227D01*
X165959166Y-72490563D01*
X165982221Y-72487144D01*
X166005500Y-72486000D01*
X166480500Y-72486000D01*
X166503779Y-72487144D01*
X166503779Y-72487144D01*
G37*
D11*
G04 #@! TD*
G04 #@! TO.P,R3,1*
G04 #@! TO.N,+3V3*
X166243000Y-73011000D03*
D20*
G04 #@! TO.P,U1,1*
G04 #@! TO.N,GND*
X167123000Y-54721000D03*
G04 #@! TO.P,U1,2*
G04 #@! TO.N,EADC_RDY*
X167123000Y-54221000D03*
G04 #@! TO.P,U1,3*
G04 #@! TO.N,GND*
X167123000Y-53721000D03*
G04 #@! TO.P,U1,4*
G04 #@! TO.N,Net-(J1-Pad1)*
X167123000Y-53221000D03*
G04 #@! TO.P,U1,5*
G04 #@! TO.N,Net-(J1-Pad2)*
X167123000Y-52721000D03*
G04 #@! TO.P,U1,6*
G04 #@! TO.N,Net-(J1-Pad3)*
X162823000Y-52721000D03*
G04 #@! TO.P,U1,7*
G04 #@! TO.N,Net-(J1-Pad4)*
X162823000Y-53221000D03*
G04 #@! TO.P,U1,8*
G04 #@! TO.N,+3V3*
X162823000Y-53721000D03*
G04 #@! TO.P,U1,9*
G04 #@! TO.N,SDA*
X162823000Y-54221000D03*
G04 #@! TO.P,U1,10*
G04 #@! TO.N,SCL*
X162823000Y-54721000D03*
G04 #@! TD*
D21*
G04 #@! TO.P,U3,1*
G04 #@! TO.N,FLASH_CS*
X160528000Y-89171000D03*
G04 #@! TO.P,U3,2*
G04 #@! TO.N,MISO*
X161798000Y-89171000D03*
G04 #@! TO.P,U3,3*
G04 #@! TO.N,FLASH_WP*
X163068000Y-89171000D03*
G04 #@! TO.P,U3,4*
G04 #@! TO.N,GND*
X164338000Y-89171000D03*
G04 #@! TO.P,U3,5*
G04 #@! TO.N,SCLK*
X164338000Y-81771000D03*
G04 #@! TO.P,U3,6*
G04 #@! TO.N,MOSI*
X163068000Y-81771000D03*
G04 #@! TO.P,U3,7*
G04 #@! TO.N,FLASH_HD*
X161798000Y-81771000D03*
G04 #@! TO.P,U3,8*
G04 #@! TO.N,+3V3*
X160528000Y-81771000D03*
G04 #@! TD*
D14*
G04 #@! TO.P,J7,3*
G04 #@! TO.N,GND*
X163703000Y-107696000D03*
G04 #@! TO.P,J7,2*
G04 #@! TO.N,+3V3*
X161163000Y-107696000D03*
D10*
G04 #@! TD*
G04 #@! TO.N,+5V*
G04 #@! TO.C,J7*
G36*
X159267505Y-106597204D02*
X159291773Y-106600804D01*
X159315572Y-106606765D01*
X159338671Y-106615030D01*
X159360850Y-106625520D01*
X159381893Y-106638132D01*
X159401599Y-106652747D01*
X159419777Y-106669223D01*
X159436253Y-106687401D01*
X159450868Y-106707107D01*
X159463480Y-106728150D01*
X159473970Y-106750329D01*
X159482235Y-106773428D01*
X159488196Y-106797227D01*
X159491796Y-106821495D01*
X159493000Y-106845999D01*
X159493000Y-108546001D01*
X159491796Y-108570505D01*
X159488196Y-108594773D01*
X159482235Y-108618572D01*
X159473970Y-108641671D01*
X159463480Y-108663850D01*
X159450868Y-108684893D01*
X159436253Y-108704599D01*
X159419777Y-108722777D01*
X159401599Y-108739253D01*
X159381893Y-108753868D01*
X159360850Y-108766480D01*
X159338671Y-108776970D01*
X159315572Y-108785235D01*
X159291773Y-108791196D01*
X159267505Y-108794796D01*
X159243001Y-108796000D01*
X158002999Y-108796000D01*
X157978495Y-108794796D01*
X157954227Y-108791196D01*
X157930428Y-108785235D01*
X157907329Y-108776970D01*
X157885150Y-108766480D01*
X157864107Y-108753868D01*
X157844401Y-108739253D01*
X157826223Y-108722777D01*
X157809747Y-108704599D01*
X157795132Y-108684893D01*
X157782520Y-108663850D01*
X157772030Y-108641671D01*
X157763765Y-108618572D01*
X157757804Y-108594773D01*
X157754204Y-108570505D01*
X157753000Y-108546001D01*
X157753000Y-106845999D01*
X157754204Y-106821495D01*
X157757804Y-106797227D01*
X157763765Y-106773428D01*
X157772030Y-106750329D01*
X157782520Y-106728150D01*
X157795132Y-106707107D01*
X157809747Y-106687401D01*
X157826223Y-106669223D01*
X157844401Y-106652747D01*
X157864107Y-106638132D01*
X157885150Y-106625520D01*
X157907329Y-106615030D01*
X157930428Y-106606765D01*
X157954227Y-106600804D01*
X157978495Y-106597204D01*
X158002999Y-106596000D01*
X159243001Y-106596000D01*
X159267505Y-106597204D01*
X159267505Y-106597204D01*
G37*
D13*
G04 #@! TO.P,J7,1*
G04 #@! TO.N,+5V*
X158623000Y-107696000D03*
G04 #@! TD*
D10*
G04 #@! TO.N,+5V*
G04 #@! TO.C,J8*
G36*
X149742505Y-114217204D02*
X149766773Y-114220804D01*
X149790572Y-114226765D01*
X149813671Y-114235030D01*
X149835850Y-114245520D01*
X149856893Y-114258132D01*
X149876599Y-114272747D01*
X149894777Y-114289223D01*
X149911253Y-114307401D01*
X149925868Y-114327107D01*
X149938480Y-114348150D01*
X149948970Y-114370329D01*
X149957235Y-114393428D01*
X149963196Y-114417227D01*
X149966796Y-114441495D01*
X149968000Y-114465999D01*
X149968000Y-116166001D01*
X149966796Y-116190505D01*
X149963196Y-116214773D01*
X149957235Y-116238572D01*
X149948970Y-116261671D01*
X149938480Y-116283850D01*
X149925868Y-116304893D01*
X149911253Y-116324599D01*
X149894777Y-116342777D01*
X149876599Y-116359253D01*
X149856893Y-116373868D01*
X149835850Y-116386480D01*
X149813671Y-116396970D01*
X149790572Y-116405235D01*
X149766773Y-116411196D01*
X149742505Y-116414796D01*
X149718001Y-116416000D01*
X148477999Y-116416000D01*
X148453495Y-116414796D01*
X148429227Y-116411196D01*
X148405428Y-116405235D01*
X148382329Y-116396970D01*
X148360150Y-116386480D01*
X148339107Y-116373868D01*
X148319401Y-116359253D01*
X148301223Y-116342777D01*
X148284747Y-116324599D01*
X148270132Y-116304893D01*
X148257520Y-116283850D01*
X148247030Y-116261671D01*
X148238765Y-116238572D01*
X148232804Y-116214773D01*
X148229204Y-116190505D01*
X148228000Y-116166001D01*
X148228000Y-114465999D01*
X148229204Y-114441495D01*
X148232804Y-114417227D01*
X148238765Y-114393428D01*
X148247030Y-114370329D01*
X148257520Y-114348150D01*
X148270132Y-114327107D01*
X148284747Y-114307401D01*
X148301223Y-114289223D01*
X148319401Y-114272747D01*
X148339107Y-114258132D01*
X148360150Y-114245520D01*
X148382329Y-114235030D01*
X148405428Y-114226765D01*
X148429227Y-114220804D01*
X148453495Y-114217204D01*
X148477999Y-114216000D01*
X149718001Y-114216000D01*
X149742505Y-114217204D01*
X149742505Y-114217204D01*
G37*
D13*
G04 #@! TD*
G04 #@! TO.P,J8,1*
G04 #@! TO.N,+5V*
X149098000Y-115316000D03*
D14*
G04 #@! TO.P,J8,2*
G04 #@! TO.N,+3V3*
X151638000Y-115316000D03*
G04 #@! TO.P,J8,3*
G04 #@! TO.N,GND*
X154178000Y-115316000D03*
G04 #@! TD*
D10*
G04 #@! TO.N,+5V*
G04 #@! TO.C,J9*
G36*
X159267505Y-114217204D02*
X159291773Y-114220804D01*
X159315572Y-114226765D01*
X159338671Y-114235030D01*
X159360850Y-114245520D01*
X159381893Y-114258132D01*
X159401599Y-114272747D01*
X159419777Y-114289223D01*
X159436253Y-114307401D01*
X159450868Y-114327107D01*
X159463480Y-114348150D01*
X159473970Y-114370329D01*
X159482235Y-114393428D01*
X159488196Y-114417227D01*
X159491796Y-114441495D01*
X159493000Y-114465999D01*
X159493000Y-116166001D01*
X159491796Y-116190505D01*
X159488196Y-116214773D01*
X159482235Y-116238572D01*
X159473970Y-116261671D01*
X159463480Y-116283850D01*
X159450868Y-116304893D01*
X159436253Y-116324599D01*
X159419777Y-116342777D01*
X159401599Y-116359253D01*
X159381893Y-116373868D01*
X159360850Y-116386480D01*
X159338671Y-116396970D01*
X159315572Y-116405235D01*
X159291773Y-116411196D01*
X159267505Y-116414796D01*
X159243001Y-116416000D01*
X158002999Y-116416000D01*
X157978495Y-116414796D01*
X157954227Y-116411196D01*
X157930428Y-116405235D01*
X157907329Y-116396970D01*
X157885150Y-116386480D01*
X157864107Y-116373868D01*
X157844401Y-116359253D01*
X157826223Y-116342777D01*
X157809747Y-116324599D01*
X157795132Y-116304893D01*
X157782520Y-116283850D01*
X157772030Y-116261671D01*
X157763765Y-116238572D01*
X157757804Y-116214773D01*
X157754204Y-116190505D01*
X157753000Y-116166001D01*
X157753000Y-114465999D01*
X157754204Y-114441495D01*
X157757804Y-114417227D01*
X157763765Y-114393428D01*
X157772030Y-114370329D01*
X157782520Y-114348150D01*
X157795132Y-114327107D01*
X157809747Y-114307401D01*
X157826223Y-114289223D01*
X157844401Y-114272747D01*
X157864107Y-114258132D01*
X157885150Y-114245520D01*
X157907329Y-114235030D01*
X157930428Y-114226765D01*
X157954227Y-114220804D01*
X157978495Y-114217204D01*
X158002999Y-114216000D01*
X159243001Y-114216000D01*
X159267505Y-114217204D01*
X159267505Y-114217204D01*
G37*
D13*
G04 #@! TD*
G04 #@! TO.P,J9,1*
G04 #@! TO.N,+5V*
X158623000Y-115316000D03*
D14*
G04 #@! TO.P,J9,2*
G04 #@! TO.N,+3V3*
X161163000Y-115316000D03*
G04 #@! TO.P,J9,3*
G04 #@! TO.N,GND*
X163703000Y-115316000D03*
G04 #@! TD*
D10*
G04 #@! TO.N,GND*
G04 #@! TO.C,U2*
G36*
X153976504Y-57381204D02*
X154000773Y-57384804D01*
X154024571Y-57390765D01*
X154047671Y-57399030D01*
X154069849Y-57409520D01*
X154090893Y-57422133D01*
X154110598Y-57436747D01*
X154128777Y-57453223D01*
X154145253Y-57471402D01*
X154159867Y-57491107D01*
X154172480Y-57512151D01*
X154182970Y-57534329D01*
X154191235Y-57557429D01*
X154197196Y-57581227D01*
X154200796Y-57605496D01*
X154202000Y-57630000D01*
X154202000Y-60480000D01*
X154200796Y-60504504D01*
X154197196Y-60528773D01*
X154191235Y-60552571D01*
X154182970Y-60575671D01*
X154172480Y-60597849D01*
X154159867Y-60618893D01*
X154145253Y-60638598D01*
X154128777Y-60656777D01*
X154110598Y-60673253D01*
X154090893Y-60687867D01*
X154069849Y-60700480D01*
X154047671Y-60710970D01*
X154024571Y-60719235D01*
X154000773Y-60725196D01*
X153976504Y-60728796D01*
X153952000Y-60730000D01*
X151102000Y-60730000D01*
X151077496Y-60728796D01*
X151053227Y-60725196D01*
X151029429Y-60719235D01*
X151006329Y-60710970D01*
X150984151Y-60700480D01*
X150963107Y-60687867D01*
X150943402Y-60673253D01*
X150925223Y-60656777D01*
X150908747Y-60638598D01*
X150894133Y-60618893D01*
X150881520Y-60597849D01*
X150871030Y-60575671D01*
X150862765Y-60552571D01*
X150856804Y-60528773D01*
X150853204Y-60504504D01*
X150852000Y-60480000D01*
X150852000Y-57630000D01*
X150853204Y-57605496D01*
X150856804Y-57581227D01*
X150862765Y-57557429D01*
X150871030Y-57534329D01*
X150881520Y-57512151D01*
X150894133Y-57491107D01*
X150908747Y-57471402D01*
X150925223Y-57453223D01*
X150943402Y-57436747D01*
X150963107Y-57422133D01*
X150984151Y-57409520D01*
X151006329Y-57399030D01*
X151029429Y-57390765D01*
X151053227Y-57384804D01*
X151077496Y-57381204D01*
X151102000Y-57380000D01*
X153952000Y-57380000D01*
X153976504Y-57381204D01*
X153976504Y-57381204D01*
G37*
D22*
G04 #@! TD*
G04 #@! TO.P,U2,21*
G04 #@! TO.N,GND*
X152527000Y-59055000D03*
D23*
G04 #@! TO.N,GND*
G04 #@! TO.C,U2*
X153952000Y-60480000D03*
X152527000Y-60480000D03*
X151102000Y-60480000D03*
X153952000Y-59055000D03*
X152527000Y-59055000D03*
X151102000Y-59055000D03*
X153952000Y-57630000D03*
X152527000Y-57630000D03*
X151102000Y-57630000D03*
D10*
G04 #@! TO.N,Net-(R1-Pad1)*
G36*
X155309351Y-60205361D02*
X155316632Y-60206441D01*
X155323771Y-60208229D01*
X155330701Y-60210709D01*
X155337355Y-60213856D01*
X155343668Y-60217640D01*
X155349579Y-60222024D01*
X155355033Y-60226967D01*
X155359976Y-60232421D01*
X155364360Y-60238332D01*
X155368144Y-60244645D01*
X155371291Y-60251299D01*
X155373771Y-60258229D01*
X155375559Y-60265368D01*
X155376639Y-60272649D01*
X155377000Y-60280000D01*
X155377000Y-60430000D01*
X155376639Y-60437351D01*
X155375559Y-60444632D01*
X155373771Y-60451771D01*
X155371291Y-60458701D01*
X155368144Y-60465355D01*
X155364360Y-60471668D01*
X155359976Y-60477579D01*
X155355033Y-60483033D01*
X155349579Y-60487976D01*
X155343668Y-60492360D01*
X155337355Y-60496144D01*
X155330701Y-60499291D01*
X155323771Y-60501771D01*
X155316632Y-60503559D01*
X155309351Y-60504639D01*
X155302000Y-60505000D01*
X154702000Y-60505000D01*
X154694649Y-60504639D01*
X154687368Y-60503559D01*
X154680229Y-60501771D01*
X154673299Y-60499291D01*
X154666645Y-60496144D01*
X154660332Y-60492360D01*
X154654421Y-60487976D01*
X154648967Y-60483033D01*
X154644024Y-60477579D01*
X154639640Y-60471668D01*
X154635856Y-60465355D01*
X154632709Y-60458701D01*
X154630229Y-60451771D01*
X154628441Y-60444632D01*
X154627361Y-60437351D01*
X154627000Y-60430000D01*
X154627000Y-60280000D01*
X154627361Y-60272649D01*
X154628441Y-60265368D01*
X154630229Y-60258229D01*
X154632709Y-60251299D01*
X154635856Y-60244645D01*
X154639640Y-60238332D01*
X154644024Y-60232421D01*
X154648967Y-60226967D01*
X154654421Y-60222024D01*
X154660332Y-60217640D01*
X154666645Y-60213856D01*
X154673299Y-60210709D01*
X154680229Y-60208229D01*
X154687368Y-60206441D01*
X154694649Y-60205361D01*
X154702000Y-60205000D01*
X155302000Y-60205000D01*
X155309351Y-60205361D01*
X155309351Y-60205361D01*
G37*
D24*
G04 #@! TD*
G04 #@! TO.P,U2,1*
G04 #@! TO.N,Net-(R1-Pad1)*
X155002000Y-60355000D03*
D10*
G04 #@! TO.N,Net-(R1-Pad1)*
G04 #@! TO.C,U2*
G36*
X155309351Y-59555361D02*
X155316632Y-59556441D01*
X155323771Y-59558229D01*
X155330701Y-59560709D01*
X155337355Y-59563856D01*
X155343668Y-59567640D01*
X155349579Y-59572024D01*
X155355033Y-59576967D01*
X155359976Y-59582421D01*
X155364360Y-59588332D01*
X155368144Y-59594645D01*
X155371291Y-59601299D01*
X155373771Y-59608229D01*
X155375559Y-59615368D01*
X155376639Y-59622649D01*
X155377000Y-59630000D01*
X155377000Y-59780000D01*
X155376639Y-59787351D01*
X155375559Y-59794632D01*
X155373771Y-59801771D01*
X155371291Y-59808701D01*
X155368144Y-59815355D01*
X155364360Y-59821668D01*
X155359976Y-59827579D01*
X155355033Y-59833033D01*
X155349579Y-59837976D01*
X155343668Y-59842360D01*
X155337355Y-59846144D01*
X155330701Y-59849291D01*
X155323771Y-59851771D01*
X155316632Y-59853559D01*
X155309351Y-59854639D01*
X155302000Y-59855000D01*
X154702000Y-59855000D01*
X154694649Y-59854639D01*
X154687368Y-59853559D01*
X154680229Y-59851771D01*
X154673299Y-59849291D01*
X154666645Y-59846144D01*
X154660332Y-59842360D01*
X154654421Y-59837976D01*
X154648967Y-59833033D01*
X154644024Y-59827579D01*
X154639640Y-59821668D01*
X154635856Y-59815355D01*
X154632709Y-59808701D01*
X154630229Y-59801771D01*
X154628441Y-59794632D01*
X154627361Y-59787351D01*
X154627000Y-59780000D01*
X154627000Y-59630000D01*
X154627361Y-59622649D01*
X154628441Y-59615368D01*
X154630229Y-59608229D01*
X154632709Y-59601299D01*
X154635856Y-59594645D01*
X154639640Y-59588332D01*
X154644024Y-59582421D01*
X154648967Y-59576967D01*
X154654421Y-59572024D01*
X154660332Y-59567640D01*
X154666645Y-59563856D01*
X154673299Y-59560709D01*
X154680229Y-59558229D01*
X154687368Y-59556441D01*
X154694649Y-59555361D01*
X154702000Y-59555000D01*
X155302000Y-59555000D01*
X155309351Y-59555361D01*
X155309351Y-59555361D01*
G37*
D24*
G04 #@! TD*
G04 #@! TO.P,U2,2*
G04 #@! TO.N,Net-(R1-Pad1)*
X155002000Y-59705000D03*
D10*
G04 #@! TO.N,Net-(R1-Pad2)*
G04 #@! TO.C,U2*
G36*
X155309351Y-58905361D02*
X155316632Y-58906441D01*
X155323771Y-58908229D01*
X155330701Y-58910709D01*
X155337355Y-58913856D01*
X155343668Y-58917640D01*
X155349579Y-58922024D01*
X155355033Y-58926967D01*
X155359976Y-58932421D01*
X155364360Y-58938332D01*
X155368144Y-58944645D01*
X155371291Y-58951299D01*
X155373771Y-58958229D01*
X155375559Y-58965368D01*
X155376639Y-58972649D01*
X155377000Y-58980000D01*
X155377000Y-59130000D01*
X155376639Y-59137351D01*
X155375559Y-59144632D01*
X155373771Y-59151771D01*
X155371291Y-59158701D01*
X155368144Y-59165355D01*
X155364360Y-59171668D01*
X155359976Y-59177579D01*
X155355033Y-59183033D01*
X155349579Y-59187976D01*
X155343668Y-59192360D01*
X155337355Y-59196144D01*
X155330701Y-59199291D01*
X155323771Y-59201771D01*
X155316632Y-59203559D01*
X155309351Y-59204639D01*
X155302000Y-59205000D01*
X154702000Y-59205000D01*
X154694649Y-59204639D01*
X154687368Y-59203559D01*
X154680229Y-59201771D01*
X154673299Y-59199291D01*
X154666645Y-59196144D01*
X154660332Y-59192360D01*
X154654421Y-59187976D01*
X154648967Y-59183033D01*
X154644024Y-59177579D01*
X154639640Y-59171668D01*
X154635856Y-59165355D01*
X154632709Y-59158701D01*
X154630229Y-59151771D01*
X154628441Y-59144632D01*
X154627361Y-59137351D01*
X154627000Y-59130000D01*
X154627000Y-58980000D01*
X154627361Y-58972649D01*
X154628441Y-58965368D01*
X154630229Y-58958229D01*
X154632709Y-58951299D01*
X154635856Y-58944645D01*
X154639640Y-58938332D01*
X154644024Y-58932421D01*
X154648967Y-58926967D01*
X154654421Y-58922024D01*
X154660332Y-58917640D01*
X154666645Y-58913856D01*
X154673299Y-58910709D01*
X154680229Y-58908229D01*
X154687368Y-58906441D01*
X154694649Y-58905361D01*
X154702000Y-58905000D01*
X155302000Y-58905000D01*
X155309351Y-58905361D01*
X155309351Y-58905361D01*
G37*
D24*
G04 #@! TD*
G04 #@! TO.P,U2,3*
G04 #@! TO.N,Net-(R1-Pad2)*
X155002000Y-59055000D03*
D10*
G04 #@! TO.N,Net-(R1-Pad2)*
G04 #@! TO.C,U2*
G36*
X155309351Y-58255361D02*
X155316632Y-58256441D01*
X155323771Y-58258229D01*
X155330701Y-58260709D01*
X155337355Y-58263856D01*
X155343668Y-58267640D01*
X155349579Y-58272024D01*
X155355033Y-58276967D01*
X155359976Y-58282421D01*
X155364360Y-58288332D01*
X155368144Y-58294645D01*
X155371291Y-58301299D01*
X155373771Y-58308229D01*
X155375559Y-58315368D01*
X155376639Y-58322649D01*
X155377000Y-58330000D01*
X155377000Y-58480000D01*
X155376639Y-58487351D01*
X155375559Y-58494632D01*
X155373771Y-58501771D01*
X155371291Y-58508701D01*
X155368144Y-58515355D01*
X155364360Y-58521668D01*
X155359976Y-58527579D01*
X155355033Y-58533033D01*
X155349579Y-58537976D01*
X155343668Y-58542360D01*
X155337355Y-58546144D01*
X155330701Y-58549291D01*
X155323771Y-58551771D01*
X155316632Y-58553559D01*
X155309351Y-58554639D01*
X155302000Y-58555000D01*
X154702000Y-58555000D01*
X154694649Y-58554639D01*
X154687368Y-58553559D01*
X154680229Y-58551771D01*
X154673299Y-58549291D01*
X154666645Y-58546144D01*
X154660332Y-58542360D01*
X154654421Y-58537976D01*
X154648967Y-58533033D01*
X154644024Y-58527579D01*
X154639640Y-58521668D01*
X154635856Y-58515355D01*
X154632709Y-58508701D01*
X154630229Y-58501771D01*
X154628441Y-58494632D01*
X154627361Y-58487351D01*
X154627000Y-58480000D01*
X154627000Y-58330000D01*
X154627361Y-58322649D01*
X154628441Y-58315368D01*
X154630229Y-58308229D01*
X154632709Y-58301299D01*
X154635856Y-58294645D01*
X154639640Y-58288332D01*
X154644024Y-58282421D01*
X154648967Y-58276967D01*
X154654421Y-58272024D01*
X154660332Y-58267640D01*
X154666645Y-58263856D01*
X154673299Y-58260709D01*
X154680229Y-58258229D01*
X154687368Y-58256441D01*
X154694649Y-58255361D01*
X154702000Y-58255000D01*
X155302000Y-58255000D01*
X155309351Y-58255361D01*
X155309351Y-58255361D01*
G37*
D24*
G04 #@! TD*
G04 #@! TO.P,U2,4*
G04 #@! TO.N,Net-(R1-Pad2)*
X155002000Y-58405000D03*
D10*
G04 #@! TO.N,Net-(J2-Pad1)*
G04 #@! TO.C,U2*
G36*
X155309351Y-57605361D02*
X155316632Y-57606441D01*
X155323771Y-57608229D01*
X155330701Y-57610709D01*
X155337355Y-57613856D01*
X155343668Y-57617640D01*
X155349579Y-57622024D01*
X155355033Y-57626967D01*
X155359976Y-57632421D01*
X155364360Y-57638332D01*
X155368144Y-57644645D01*
X155371291Y-57651299D01*
X155373771Y-57658229D01*
X155375559Y-57665368D01*
X155376639Y-57672649D01*
X155377000Y-57680000D01*
X155377000Y-57830000D01*
X155376639Y-57837351D01*
X155375559Y-57844632D01*
X155373771Y-57851771D01*
X155371291Y-57858701D01*
X155368144Y-57865355D01*
X155364360Y-57871668D01*
X155359976Y-57877579D01*
X155355033Y-57883033D01*
X155349579Y-57887976D01*
X155343668Y-57892360D01*
X155337355Y-57896144D01*
X155330701Y-57899291D01*
X155323771Y-57901771D01*
X155316632Y-57903559D01*
X155309351Y-57904639D01*
X155302000Y-57905000D01*
X154702000Y-57905000D01*
X154694649Y-57904639D01*
X154687368Y-57903559D01*
X154680229Y-57901771D01*
X154673299Y-57899291D01*
X154666645Y-57896144D01*
X154660332Y-57892360D01*
X154654421Y-57887976D01*
X154648967Y-57883033D01*
X154644024Y-57877579D01*
X154639640Y-57871668D01*
X154635856Y-57865355D01*
X154632709Y-57858701D01*
X154630229Y-57851771D01*
X154628441Y-57844632D01*
X154627361Y-57837351D01*
X154627000Y-57830000D01*
X154627000Y-57680000D01*
X154627361Y-57672649D01*
X154628441Y-57665368D01*
X154630229Y-57658229D01*
X154632709Y-57651299D01*
X154635856Y-57644645D01*
X154639640Y-57638332D01*
X154644024Y-57632421D01*
X154648967Y-57626967D01*
X154654421Y-57622024D01*
X154660332Y-57617640D01*
X154666645Y-57613856D01*
X154673299Y-57610709D01*
X154680229Y-57608229D01*
X154687368Y-57606441D01*
X154694649Y-57605361D01*
X154702000Y-57605000D01*
X155302000Y-57605000D01*
X155309351Y-57605361D01*
X155309351Y-57605361D01*
G37*
D24*
G04 #@! TD*
G04 #@! TO.P,U2,5*
G04 #@! TO.N,Net-(J2-Pad1)*
X155002000Y-57755000D03*
D10*
G04 #@! TO.N,Net-(JP1-Pad2)*
G04 #@! TO.C,U2*
G36*
X153909351Y-56205361D02*
X153916632Y-56206441D01*
X153923771Y-56208229D01*
X153930701Y-56210709D01*
X153937355Y-56213856D01*
X153943668Y-56217640D01*
X153949579Y-56222024D01*
X153955033Y-56226967D01*
X153959976Y-56232421D01*
X153964360Y-56238332D01*
X153968144Y-56244645D01*
X153971291Y-56251299D01*
X153973771Y-56258229D01*
X153975559Y-56265368D01*
X153976639Y-56272649D01*
X153977000Y-56280000D01*
X153977000Y-56880000D01*
X153976639Y-56887351D01*
X153975559Y-56894632D01*
X153973771Y-56901771D01*
X153971291Y-56908701D01*
X153968144Y-56915355D01*
X153964360Y-56921668D01*
X153959976Y-56927579D01*
X153955033Y-56933033D01*
X153949579Y-56937976D01*
X153943668Y-56942360D01*
X153937355Y-56946144D01*
X153930701Y-56949291D01*
X153923771Y-56951771D01*
X153916632Y-56953559D01*
X153909351Y-56954639D01*
X153902000Y-56955000D01*
X153752000Y-56955000D01*
X153744649Y-56954639D01*
X153737368Y-56953559D01*
X153730229Y-56951771D01*
X153723299Y-56949291D01*
X153716645Y-56946144D01*
X153710332Y-56942360D01*
X153704421Y-56937976D01*
X153698967Y-56933033D01*
X153694024Y-56927579D01*
X153689640Y-56921668D01*
X153685856Y-56915355D01*
X153682709Y-56908701D01*
X153680229Y-56901771D01*
X153678441Y-56894632D01*
X153677361Y-56887351D01*
X153677000Y-56880000D01*
X153677000Y-56280000D01*
X153677361Y-56272649D01*
X153678441Y-56265368D01*
X153680229Y-56258229D01*
X153682709Y-56251299D01*
X153685856Y-56244645D01*
X153689640Y-56238332D01*
X153694024Y-56232421D01*
X153698967Y-56226967D01*
X153704421Y-56222024D01*
X153710332Y-56217640D01*
X153716645Y-56213856D01*
X153723299Y-56210709D01*
X153730229Y-56208229D01*
X153737368Y-56206441D01*
X153744649Y-56205361D01*
X153752000Y-56205000D01*
X153902000Y-56205000D01*
X153909351Y-56205361D01*
X153909351Y-56205361D01*
G37*
D24*
G04 #@! TD*
G04 #@! TO.P,U2,6*
G04 #@! TO.N,Net-(JP1-Pad2)*
X153827000Y-56580000D03*
D10*
G04 #@! TO.N,Net-(C3-Pad1)*
G04 #@! TO.C,U2*
G36*
X153259351Y-56205361D02*
X153266632Y-56206441D01*
X153273771Y-56208229D01*
X153280701Y-56210709D01*
X153287355Y-56213856D01*
X153293668Y-56217640D01*
X153299579Y-56222024D01*
X153305033Y-56226967D01*
X153309976Y-56232421D01*
X153314360Y-56238332D01*
X153318144Y-56244645D01*
X153321291Y-56251299D01*
X153323771Y-56258229D01*
X153325559Y-56265368D01*
X153326639Y-56272649D01*
X153327000Y-56280000D01*
X153327000Y-56880000D01*
X153326639Y-56887351D01*
X153325559Y-56894632D01*
X153323771Y-56901771D01*
X153321291Y-56908701D01*
X153318144Y-56915355D01*
X153314360Y-56921668D01*
X153309976Y-56927579D01*
X153305033Y-56933033D01*
X153299579Y-56937976D01*
X153293668Y-56942360D01*
X153287355Y-56946144D01*
X153280701Y-56949291D01*
X153273771Y-56951771D01*
X153266632Y-56953559D01*
X153259351Y-56954639D01*
X153252000Y-56955000D01*
X153102000Y-56955000D01*
X153094649Y-56954639D01*
X153087368Y-56953559D01*
X153080229Y-56951771D01*
X153073299Y-56949291D01*
X153066645Y-56946144D01*
X153060332Y-56942360D01*
X153054421Y-56937976D01*
X153048967Y-56933033D01*
X153044024Y-56927579D01*
X153039640Y-56921668D01*
X153035856Y-56915355D01*
X153032709Y-56908701D01*
X153030229Y-56901771D01*
X153028441Y-56894632D01*
X153027361Y-56887351D01*
X153027000Y-56880000D01*
X153027000Y-56280000D01*
X153027361Y-56272649D01*
X153028441Y-56265368D01*
X153030229Y-56258229D01*
X153032709Y-56251299D01*
X153035856Y-56244645D01*
X153039640Y-56238332D01*
X153044024Y-56232421D01*
X153048967Y-56226967D01*
X153054421Y-56222024D01*
X153060332Y-56217640D01*
X153066645Y-56213856D01*
X153073299Y-56210709D01*
X153080229Y-56208229D01*
X153087368Y-56206441D01*
X153094649Y-56205361D01*
X153102000Y-56205000D01*
X153252000Y-56205000D01*
X153259351Y-56205361D01*
X153259351Y-56205361D01*
G37*
D24*
G04 #@! TD*
G04 #@! TO.P,U2,7*
G04 #@! TO.N,Net-(C3-Pad1)*
X153177000Y-56580000D03*
D10*
G04 #@! TO.N,Net-(C3-Pad2)*
G04 #@! TO.C,U2*
G36*
X152609351Y-56205361D02*
X152616632Y-56206441D01*
X152623771Y-56208229D01*
X152630701Y-56210709D01*
X152637355Y-56213856D01*
X152643668Y-56217640D01*
X152649579Y-56222024D01*
X152655033Y-56226967D01*
X152659976Y-56232421D01*
X152664360Y-56238332D01*
X152668144Y-56244645D01*
X152671291Y-56251299D01*
X152673771Y-56258229D01*
X152675559Y-56265368D01*
X152676639Y-56272649D01*
X152677000Y-56280000D01*
X152677000Y-56880000D01*
X152676639Y-56887351D01*
X152675559Y-56894632D01*
X152673771Y-56901771D01*
X152671291Y-56908701D01*
X152668144Y-56915355D01*
X152664360Y-56921668D01*
X152659976Y-56927579D01*
X152655033Y-56933033D01*
X152649579Y-56937976D01*
X152643668Y-56942360D01*
X152637355Y-56946144D01*
X152630701Y-56949291D01*
X152623771Y-56951771D01*
X152616632Y-56953559D01*
X152609351Y-56954639D01*
X152602000Y-56955000D01*
X152452000Y-56955000D01*
X152444649Y-56954639D01*
X152437368Y-56953559D01*
X152430229Y-56951771D01*
X152423299Y-56949291D01*
X152416645Y-56946144D01*
X152410332Y-56942360D01*
X152404421Y-56937976D01*
X152398967Y-56933033D01*
X152394024Y-56927579D01*
X152389640Y-56921668D01*
X152385856Y-56915355D01*
X152382709Y-56908701D01*
X152380229Y-56901771D01*
X152378441Y-56894632D01*
X152377361Y-56887351D01*
X152377000Y-56880000D01*
X152377000Y-56280000D01*
X152377361Y-56272649D01*
X152378441Y-56265368D01*
X152380229Y-56258229D01*
X152382709Y-56251299D01*
X152385856Y-56244645D01*
X152389640Y-56238332D01*
X152394024Y-56232421D01*
X152398967Y-56226967D01*
X152404421Y-56222024D01*
X152410332Y-56217640D01*
X152416645Y-56213856D01*
X152423299Y-56210709D01*
X152430229Y-56208229D01*
X152437368Y-56206441D01*
X152444649Y-56205361D01*
X152452000Y-56205000D01*
X152602000Y-56205000D01*
X152609351Y-56205361D01*
X152609351Y-56205361D01*
G37*
D24*
G04 #@! TD*
G04 #@! TO.P,U2,8*
G04 #@! TO.N,Net-(C3-Pad2)*
X152527000Y-56580000D03*
D10*
G04 #@! TO.N,Net-(J2-Pad4)*
G04 #@! TO.C,U2*
G36*
X151959351Y-56205361D02*
X151966632Y-56206441D01*
X151973771Y-56208229D01*
X151980701Y-56210709D01*
X151987355Y-56213856D01*
X151993668Y-56217640D01*
X151999579Y-56222024D01*
X152005033Y-56226967D01*
X152009976Y-56232421D01*
X152014360Y-56238332D01*
X152018144Y-56244645D01*
X152021291Y-56251299D01*
X152023771Y-56258229D01*
X152025559Y-56265368D01*
X152026639Y-56272649D01*
X152027000Y-56280000D01*
X152027000Y-56880000D01*
X152026639Y-56887351D01*
X152025559Y-56894632D01*
X152023771Y-56901771D01*
X152021291Y-56908701D01*
X152018144Y-56915355D01*
X152014360Y-56921668D01*
X152009976Y-56927579D01*
X152005033Y-56933033D01*
X151999579Y-56937976D01*
X151993668Y-56942360D01*
X151987355Y-56946144D01*
X151980701Y-56949291D01*
X151973771Y-56951771D01*
X151966632Y-56953559D01*
X151959351Y-56954639D01*
X151952000Y-56955000D01*
X151802000Y-56955000D01*
X151794649Y-56954639D01*
X151787368Y-56953559D01*
X151780229Y-56951771D01*
X151773299Y-56949291D01*
X151766645Y-56946144D01*
X151760332Y-56942360D01*
X151754421Y-56937976D01*
X151748967Y-56933033D01*
X151744024Y-56927579D01*
X151739640Y-56921668D01*
X151735856Y-56915355D01*
X151732709Y-56908701D01*
X151730229Y-56901771D01*
X151728441Y-56894632D01*
X151727361Y-56887351D01*
X151727000Y-56880000D01*
X151727000Y-56280000D01*
X151727361Y-56272649D01*
X151728441Y-56265368D01*
X151730229Y-56258229D01*
X151732709Y-56251299D01*
X151735856Y-56244645D01*
X151739640Y-56238332D01*
X151744024Y-56232421D01*
X151748967Y-56226967D01*
X151754421Y-56222024D01*
X151760332Y-56217640D01*
X151766645Y-56213856D01*
X151773299Y-56210709D01*
X151780229Y-56208229D01*
X151787368Y-56206441D01*
X151794649Y-56205361D01*
X151802000Y-56205000D01*
X151952000Y-56205000D01*
X151959351Y-56205361D01*
X151959351Y-56205361D01*
G37*
D24*
G04 #@! TD*
G04 #@! TO.P,U2,9*
G04 #@! TO.N,Net-(J2-Pad4)*
X151877000Y-56580000D03*
D10*
G04 #@! TO.N,GND*
G04 #@! TO.C,U2*
G36*
X151309351Y-56205361D02*
X151316632Y-56206441D01*
X151323771Y-56208229D01*
X151330701Y-56210709D01*
X151337355Y-56213856D01*
X151343668Y-56217640D01*
X151349579Y-56222024D01*
X151355033Y-56226967D01*
X151359976Y-56232421D01*
X151364360Y-56238332D01*
X151368144Y-56244645D01*
X151371291Y-56251299D01*
X151373771Y-56258229D01*
X151375559Y-56265368D01*
X151376639Y-56272649D01*
X151377000Y-56280000D01*
X151377000Y-56880000D01*
X151376639Y-56887351D01*
X151375559Y-56894632D01*
X151373771Y-56901771D01*
X151371291Y-56908701D01*
X151368144Y-56915355D01*
X151364360Y-56921668D01*
X151359976Y-56927579D01*
X151355033Y-56933033D01*
X151349579Y-56937976D01*
X151343668Y-56942360D01*
X151337355Y-56946144D01*
X151330701Y-56949291D01*
X151323771Y-56951771D01*
X151316632Y-56953559D01*
X151309351Y-56954639D01*
X151302000Y-56955000D01*
X151152000Y-56955000D01*
X151144649Y-56954639D01*
X151137368Y-56953559D01*
X151130229Y-56951771D01*
X151123299Y-56949291D01*
X151116645Y-56946144D01*
X151110332Y-56942360D01*
X151104421Y-56937976D01*
X151098967Y-56933033D01*
X151094024Y-56927579D01*
X151089640Y-56921668D01*
X151085856Y-56915355D01*
X151082709Y-56908701D01*
X151080229Y-56901771D01*
X151078441Y-56894632D01*
X151077361Y-56887351D01*
X151077000Y-56880000D01*
X151077000Y-56280000D01*
X151077361Y-56272649D01*
X151078441Y-56265368D01*
X151080229Y-56258229D01*
X151082709Y-56251299D01*
X151085856Y-56244645D01*
X151089640Y-56238332D01*
X151094024Y-56232421D01*
X151098967Y-56226967D01*
X151104421Y-56222024D01*
X151110332Y-56217640D01*
X151116645Y-56213856D01*
X151123299Y-56210709D01*
X151130229Y-56208229D01*
X151137368Y-56206441D01*
X151144649Y-56205361D01*
X151152000Y-56205000D01*
X151302000Y-56205000D01*
X151309351Y-56205361D01*
X151309351Y-56205361D01*
G37*
D24*
G04 #@! TD*
G04 #@! TO.P,U2,10*
G04 #@! TO.N,GND*
X151227000Y-56580000D03*
D10*
G04 #@! TO.N,MOSI*
G04 #@! TO.C,U2*
G36*
X150359351Y-57605361D02*
X150366632Y-57606441D01*
X150373771Y-57608229D01*
X150380701Y-57610709D01*
X150387355Y-57613856D01*
X150393668Y-57617640D01*
X150399579Y-57622024D01*
X150405033Y-57626967D01*
X150409976Y-57632421D01*
X150414360Y-57638332D01*
X150418144Y-57644645D01*
X150421291Y-57651299D01*
X150423771Y-57658229D01*
X150425559Y-57665368D01*
X150426639Y-57672649D01*
X150427000Y-57680000D01*
X150427000Y-57830000D01*
X150426639Y-57837351D01*
X150425559Y-57844632D01*
X150423771Y-57851771D01*
X150421291Y-57858701D01*
X150418144Y-57865355D01*
X150414360Y-57871668D01*
X150409976Y-57877579D01*
X150405033Y-57883033D01*
X150399579Y-57887976D01*
X150393668Y-57892360D01*
X150387355Y-57896144D01*
X150380701Y-57899291D01*
X150373771Y-57901771D01*
X150366632Y-57903559D01*
X150359351Y-57904639D01*
X150352000Y-57905000D01*
X149752000Y-57905000D01*
X149744649Y-57904639D01*
X149737368Y-57903559D01*
X149730229Y-57901771D01*
X149723299Y-57899291D01*
X149716645Y-57896144D01*
X149710332Y-57892360D01*
X149704421Y-57887976D01*
X149698967Y-57883033D01*
X149694024Y-57877579D01*
X149689640Y-57871668D01*
X149685856Y-57865355D01*
X149682709Y-57858701D01*
X149680229Y-57851771D01*
X149678441Y-57844632D01*
X149677361Y-57837351D01*
X149677000Y-57830000D01*
X149677000Y-57680000D01*
X149677361Y-57672649D01*
X149678441Y-57665368D01*
X149680229Y-57658229D01*
X149682709Y-57651299D01*
X149685856Y-57644645D01*
X149689640Y-57638332D01*
X149694024Y-57632421D01*
X149698967Y-57626967D01*
X149704421Y-57622024D01*
X149710332Y-57617640D01*
X149716645Y-57613856D01*
X149723299Y-57610709D01*
X149730229Y-57608229D01*
X149737368Y-57606441D01*
X149744649Y-57605361D01*
X149752000Y-57605000D01*
X150352000Y-57605000D01*
X150359351Y-57605361D01*
X150359351Y-57605361D01*
G37*
D24*
G04 #@! TD*
G04 #@! TO.P,U2,11*
G04 #@! TO.N,MOSI*
X150052000Y-57755000D03*
D10*
G04 #@! TO.N,SCLK*
G04 #@! TO.C,U2*
G36*
X150359351Y-58255361D02*
X150366632Y-58256441D01*
X150373771Y-58258229D01*
X150380701Y-58260709D01*
X150387355Y-58263856D01*
X150393668Y-58267640D01*
X150399579Y-58272024D01*
X150405033Y-58276967D01*
X150409976Y-58282421D01*
X150414360Y-58288332D01*
X150418144Y-58294645D01*
X150421291Y-58301299D01*
X150423771Y-58308229D01*
X150425559Y-58315368D01*
X150426639Y-58322649D01*
X150427000Y-58330000D01*
X150427000Y-58480000D01*
X150426639Y-58487351D01*
X150425559Y-58494632D01*
X150423771Y-58501771D01*
X150421291Y-58508701D01*
X150418144Y-58515355D01*
X150414360Y-58521668D01*
X150409976Y-58527579D01*
X150405033Y-58533033D01*
X150399579Y-58537976D01*
X150393668Y-58542360D01*
X150387355Y-58546144D01*
X150380701Y-58549291D01*
X150373771Y-58551771D01*
X150366632Y-58553559D01*
X150359351Y-58554639D01*
X150352000Y-58555000D01*
X149752000Y-58555000D01*
X149744649Y-58554639D01*
X149737368Y-58553559D01*
X149730229Y-58551771D01*
X149723299Y-58549291D01*
X149716645Y-58546144D01*
X149710332Y-58542360D01*
X149704421Y-58537976D01*
X149698967Y-58533033D01*
X149694024Y-58527579D01*
X149689640Y-58521668D01*
X149685856Y-58515355D01*
X149682709Y-58508701D01*
X149680229Y-58501771D01*
X149678441Y-58494632D01*
X149677361Y-58487351D01*
X149677000Y-58480000D01*
X149677000Y-58330000D01*
X149677361Y-58322649D01*
X149678441Y-58315368D01*
X149680229Y-58308229D01*
X149682709Y-58301299D01*
X149685856Y-58294645D01*
X149689640Y-58288332D01*
X149694024Y-58282421D01*
X149698967Y-58276967D01*
X149704421Y-58272024D01*
X149710332Y-58267640D01*
X149716645Y-58263856D01*
X149723299Y-58260709D01*
X149730229Y-58258229D01*
X149737368Y-58256441D01*
X149744649Y-58255361D01*
X149752000Y-58255000D01*
X150352000Y-58255000D01*
X150359351Y-58255361D01*
X150359351Y-58255361D01*
G37*
D24*
G04 #@! TD*
G04 #@! TO.P,U2,12*
G04 #@! TO.N,SCLK*
X150052000Y-58405000D03*
D10*
G04 #@! TO.N,RTD_CS*
G04 #@! TO.C,U2*
G36*
X150359351Y-58905361D02*
X150366632Y-58906441D01*
X150373771Y-58908229D01*
X150380701Y-58910709D01*
X150387355Y-58913856D01*
X150393668Y-58917640D01*
X150399579Y-58922024D01*
X150405033Y-58926967D01*
X150409976Y-58932421D01*
X150414360Y-58938332D01*
X150418144Y-58944645D01*
X150421291Y-58951299D01*
X150423771Y-58958229D01*
X150425559Y-58965368D01*
X150426639Y-58972649D01*
X150427000Y-58980000D01*
X150427000Y-59130000D01*
X150426639Y-59137351D01*
X150425559Y-59144632D01*
X150423771Y-59151771D01*
X150421291Y-59158701D01*
X150418144Y-59165355D01*
X150414360Y-59171668D01*
X150409976Y-59177579D01*
X150405033Y-59183033D01*
X150399579Y-59187976D01*
X150393668Y-59192360D01*
X150387355Y-59196144D01*
X150380701Y-59199291D01*
X150373771Y-59201771D01*
X150366632Y-59203559D01*
X150359351Y-59204639D01*
X150352000Y-59205000D01*
X149752000Y-59205000D01*
X149744649Y-59204639D01*
X149737368Y-59203559D01*
X149730229Y-59201771D01*
X149723299Y-59199291D01*
X149716645Y-59196144D01*
X149710332Y-59192360D01*
X149704421Y-59187976D01*
X149698967Y-59183033D01*
X149694024Y-59177579D01*
X149689640Y-59171668D01*
X149685856Y-59165355D01*
X149682709Y-59158701D01*
X149680229Y-59151771D01*
X149678441Y-59144632D01*
X149677361Y-59137351D01*
X149677000Y-59130000D01*
X149677000Y-58980000D01*
X149677361Y-58972649D01*
X149678441Y-58965368D01*
X149680229Y-58958229D01*
X149682709Y-58951299D01*
X149685856Y-58944645D01*
X149689640Y-58938332D01*
X149694024Y-58932421D01*
X149698967Y-58926967D01*
X149704421Y-58922024D01*
X149710332Y-58917640D01*
X149716645Y-58913856D01*
X149723299Y-58910709D01*
X149730229Y-58908229D01*
X149737368Y-58906441D01*
X149744649Y-58905361D01*
X149752000Y-58905000D01*
X150352000Y-58905000D01*
X150359351Y-58905361D01*
X150359351Y-58905361D01*
G37*
D24*
G04 #@! TD*
G04 #@! TO.P,U2,13*
G04 #@! TO.N,RTD_CS*
X150052000Y-59055000D03*
D10*
G04 #@! TO.N,MISO*
G04 #@! TO.C,U2*
G36*
X150359351Y-59555361D02*
X150366632Y-59556441D01*
X150373771Y-59558229D01*
X150380701Y-59560709D01*
X150387355Y-59563856D01*
X150393668Y-59567640D01*
X150399579Y-59572024D01*
X150405033Y-59576967D01*
X150409976Y-59582421D01*
X150414360Y-59588332D01*
X150418144Y-59594645D01*
X150421291Y-59601299D01*
X150423771Y-59608229D01*
X150425559Y-59615368D01*
X150426639Y-59622649D01*
X150427000Y-59630000D01*
X150427000Y-59780000D01*
X150426639Y-59787351D01*
X150425559Y-59794632D01*
X150423771Y-59801771D01*
X150421291Y-59808701D01*
X150418144Y-59815355D01*
X150414360Y-59821668D01*
X150409976Y-59827579D01*
X150405033Y-59833033D01*
X150399579Y-59837976D01*
X150393668Y-59842360D01*
X150387355Y-59846144D01*
X150380701Y-59849291D01*
X150373771Y-59851771D01*
X150366632Y-59853559D01*
X150359351Y-59854639D01*
X150352000Y-59855000D01*
X149752000Y-59855000D01*
X149744649Y-59854639D01*
X149737368Y-59853559D01*
X149730229Y-59851771D01*
X149723299Y-59849291D01*
X149716645Y-59846144D01*
X149710332Y-59842360D01*
X149704421Y-59837976D01*
X149698967Y-59833033D01*
X149694024Y-59827579D01*
X149689640Y-59821668D01*
X149685856Y-59815355D01*
X149682709Y-59808701D01*
X149680229Y-59801771D01*
X149678441Y-59794632D01*
X149677361Y-59787351D01*
X149677000Y-59780000D01*
X149677000Y-59630000D01*
X149677361Y-59622649D01*
X149678441Y-59615368D01*
X149680229Y-59608229D01*
X149682709Y-59601299D01*
X149685856Y-59594645D01*
X149689640Y-59588332D01*
X149694024Y-59582421D01*
X149698967Y-59576967D01*
X149704421Y-59572024D01*
X149710332Y-59567640D01*
X149716645Y-59563856D01*
X149723299Y-59560709D01*
X149730229Y-59558229D01*
X149737368Y-59556441D01*
X149744649Y-59555361D01*
X149752000Y-59555000D01*
X150352000Y-59555000D01*
X150359351Y-59555361D01*
X150359351Y-59555361D01*
G37*
D24*
G04 #@! TD*
G04 #@! TO.P,U2,14*
G04 #@! TO.N,MISO*
X150052000Y-59705000D03*
D10*
G04 #@! TO.N,GND*
G04 #@! TO.C,U2*
G36*
X150359351Y-60205361D02*
X150366632Y-60206441D01*
X150373771Y-60208229D01*
X150380701Y-60210709D01*
X150387355Y-60213856D01*
X150393668Y-60217640D01*
X150399579Y-60222024D01*
X150405033Y-60226967D01*
X150409976Y-60232421D01*
X150414360Y-60238332D01*
X150418144Y-60244645D01*
X150421291Y-60251299D01*
X150423771Y-60258229D01*
X150425559Y-60265368D01*
X150426639Y-60272649D01*
X150427000Y-60280000D01*
X150427000Y-60430000D01*
X150426639Y-60437351D01*
X150425559Y-60444632D01*
X150423771Y-60451771D01*
X150421291Y-60458701D01*
X150418144Y-60465355D01*
X150414360Y-60471668D01*
X150409976Y-60477579D01*
X150405033Y-60483033D01*
X150399579Y-60487976D01*
X150393668Y-60492360D01*
X150387355Y-60496144D01*
X150380701Y-60499291D01*
X150373771Y-60501771D01*
X150366632Y-60503559D01*
X150359351Y-60504639D01*
X150352000Y-60505000D01*
X149752000Y-60505000D01*
X149744649Y-60504639D01*
X149737368Y-60503559D01*
X149730229Y-60501771D01*
X149723299Y-60499291D01*
X149716645Y-60496144D01*
X149710332Y-60492360D01*
X149704421Y-60487976D01*
X149698967Y-60483033D01*
X149694024Y-60477579D01*
X149689640Y-60471668D01*
X149685856Y-60465355D01*
X149682709Y-60458701D01*
X149680229Y-60451771D01*
X149678441Y-60444632D01*
X149677361Y-60437351D01*
X149677000Y-60430000D01*
X149677000Y-60280000D01*
X149677361Y-60272649D01*
X149678441Y-60265368D01*
X149680229Y-60258229D01*
X149682709Y-60251299D01*
X149685856Y-60244645D01*
X149689640Y-60238332D01*
X149694024Y-60232421D01*
X149698967Y-60226967D01*
X149704421Y-60222024D01*
X149710332Y-60217640D01*
X149716645Y-60213856D01*
X149723299Y-60210709D01*
X149730229Y-60208229D01*
X149737368Y-60206441D01*
X149744649Y-60205361D01*
X149752000Y-60205000D01*
X150352000Y-60205000D01*
X150359351Y-60205361D01*
X150359351Y-60205361D01*
G37*
D24*
G04 #@! TD*
G04 #@! TO.P,U2,15*
G04 #@! TO.N,GND*
X150052000Y-60355000D03*
D10*
G04 #@! TO.N,GND*
G04 #@! TO.C,U2*
G36*
X151309351Y-61155361D02*
X151316632Y-61156441D01*
X151323771Y-61158229D01*
X151330701Y-61160709D01*
X151337355Y-61163856D01*
X151343668Y-61167640D01*
X151349579Y-61172024D01*
X151355033Y-61176967D01*
X151359976Y-61182421D01*
X151364360Y-61188332D01*
X151368144Y-61194645D01*
X151371291Y-61201299D01*
X151373771Y-61208229D01*
X151375559Y-61215368D01*
X151376639Y-61222649D01*
X151377000Y-61230000D01*
X151377000Y-61830000D01*
X151376639Y-61837351D01*
X151375559Y-61844632D01*
X151373771Y-61851771D01*
X151371291Y-61858701D01*
X151368144Y-61865355D01*
X151364360Y-61871668D01*
X151359976Y-61877579D01*
X151355033Y-61883033D01*
X151349579Y-61887976D01*
X151343668Y-61892360D01*
X151337355Y-61896144D01*
X151330701Y-61899291D01*
X151323771Y-61901771D01*
X151316632Y-61903559D01*
X151309351Y-61904639D01*
X151302000Y-61905000D01*
X151152000Y-61905000D01*
X151144649Y-61904639D01*
X151137368Y-61903559D01*
X151130229Y-61901771D01*
X151123299Y-61899291D01*
X151116645Y-61896144D01*
X151110332Y-61892360D01*
X151104421Y-61887976D01*
X151098967Y-61883033D01*
X151094024Y-61877579D01*
X151089640Y-61871668D01*
X151085856Y-61865355D01*
X151082709Y-61858701D01*
X151080229Y-61851771D01*
X151078441Y-61844632D01*
X151077361Y-61837351D01*
X151077000Y-61830000D01*
X151077000Y-61230000D01*
X151077361Y-61222649D01*
X151078441Y-61215368D01*
X151080229Y-61208229D01*
X151082709Y-61201299D01*
X151085856Y-61194645D01*
X151089640Y-61188332D01*
X151094024Y-61182421D01*
X151098967Y-61176967D01*
X151104421Y-61172024D01*
X151110332Y-61167640D01*
X151116645Y-61163856D01*
X151123299Y-61160709D01*
X151130229Y-61158229D01*
X151137368Y-61156441D01*
X151144649Y-61155361D01*
X151152000Y-61155000D01*
X151302000Y-61155000D01*
X151309351Y-61155361D01*
X151309351Y-61155361D01*
G37*
D24*
G04 #@! TD*
G04 #@! TO.P,U2,16*
G04 #@! TO.N,GND*
X151227000Y-61530000D03*
D10*
G04 #@! TO.N,Net-(U2-Pad17)*
G04 #@! TO.C,U2*
G36*
X151959351Y-61155361D02*
X151966632Y-61156441D01*
X151973771Y-61158229D01*
X151980701Y-61160709D01*
X151987355Y-61163856D01*
X151993668Y-61167640D01*
X151999579Y-61172024D01*
X152005033Y-61176967D01*
X152009976Y-61182421D01*
X152014360Y-61188332D01*
X152018144Y-61194645D01*
X152021291Y-61201299D01*
X152023771Y-61208229D01*
X152025559Y-61215368D01*
X152026639Y-61222649D01*
X152027000Y-61230000D01*
X152027000Y-61830000D01*
X152026639Y-61837351D01*
X152025559Y-61844632D01*
X152023771Y-61851771D01*
X152021291Y-61858701D01*
X152018144Y-61865355D01*
X152014360Y-61871668D01*
X152009976Y-61877579D01*
X152005033Y-61883033D01*
X151999579Y-61887976D01*
X151993668Y-61892360D01*
X151987355Y-61896144D01*
X151980701Y-61899291D01*
X151973771Y-61901771D01*
X151966632Y-61903559D01*
X151959351Y-61904639D01*
X151952000Y-61905000D01*
X151802000Y-61905000D01*
X151794649Y-61904639D01*
X151787368Y-61903559D01*
X151780229Y-61901771D01*
X151773299Y-61899291D01*
X151766645Y-61896144D01*
X151760332Y-61892360D01*
X151754421Y-61887976D01*
X151748967Y-61883033D01*
X151744024Y-61877579D01*
X151739640Y-61871668D01*
X151735856Y-61865355D01*
X151732709Y-61858701D01*
X151730229Y-61851771D01*
X151728441Y-61844632D01*
X151727361Y-61837351D01*
X151727000Y-61830000D01*
X151727000Y-61230000D01*
X151727361Y-61222649D01*
X151728441Y-61215368D01*
X151730229Y-61208229D01*
X151732709Y-61201299D01*
X151735856Y-61194645D01*
X151739640Y-61188332D01*
X151744024Y-61182421D01*
X151748967Y-61176967D01*
X151754421Y-61172024D01*
X151760332Y-61167640D01*
X151766645Y-61163856D01*
X151773299Y-61160709D01*
X151780229Y-61158229D01*
X151787368Y-61156441D01*
X151794649Y-61155361D01*
X151802000Y-61155000D01*
X151952000Y-61155000D01*
X151959351Y-61155361D01*
X151959351Y-61155361D01*
G37*
D24*
G04 #@! TD*
G04 #@! TO.P,U2,17*
G04 #@! TO.N,Net-(U2-Pad17)*
X151877000Y-61530000D03*
D10*
G04 #@! TO.N,RTD_DRDY*
G04 #@! TO.C,U2*
G36*
X152609351Y-61155361D02*
X152616632Y-61156441D01*
X152623771Y-61158229D01*
X152630701Y-61160709D01*
X152637355Y-61163856D01*
X152643668Y-61167640D01*
X152649579Y-61172024D01*
X152655033Y-61176967D01*
X152659976Y-61182421D01*
X152664360Y-61188332D01*
X152668144Y-61194645D01*
X152671291Y-61201299D01*
X152673771Y-61208229D01*
X152675559Y-61215368D01*
X152676639Y-61222649D01*
X152677000Y-61230000D01*
X152677000Y-61830000D01*
X152676639Y-61837351D01*
X152675559Y-61844632D01*
X152673771Y-61851771D01*
X152671291Y-61858701D01*
X152668144Y-61865355D01*
X152664360Y-61871668D01*
X152659976Y-61877579D01*
X152655033Y-61883033D01*
X152649579Y-61887976D01*
X152643668Y-61892360D01*
X152637355Y-61896144D01*
X152630701Y-61899291D01*
X152623771Y-61901771D01*
X152616632Y-61903559D01*
X152609351Y-61904639D01*
X152602000Y-61905000D01*
X152452000Y-61905000D01*
X152444649Y-61904639D01*
X152437368Y-61903559D01*
X152430229Y-61901771D01*
X152423299Y-61899291D01*
X152416645Y-61896144D01*
X152410332Y-61892360D01*
X152404421Y-61887976D01*
X152398967Y-61883033D01*
X152394024Y-61877579D01*
X152389640Y-61871668D01*
X152385856Y-61865355D01*
X152382709Y-61858701D01*
X152380229Y-61851771D01*
X152378441Y-61844632D01*
X152377361Y-61837351D01*
X152377000Y-61830000D01*
X152377000Y-61230000D01*
X152377361Y-61222649D01*
X152378441Y-61215368D01*
X152380229Y-61208229D01*
X152382709Y-61201299D01*
X152385856Y-61194645D01*
X152389640Y-61188332D01*
X152394024Y-61182421D01*
X152398967Y-61176967D01*
X152404421Y-61172024D01*
X152410332Y-61167640D01*
X152416645Y-61163856D01*
X152423299Y-61160709D01*
X152430229Y-61158229D01*
X152437368Y-61156441D01*
X152444649Y-61155361D01*
X152452000Y-61155000D01*
X152602000Y-61155000D01*
X152609351Y-61155361D01*
X152609351Y-61155361D01*
G37*
D24*
G04 #@! TD*
G04 #@! TO.P,U2,18*
G04 #@! TO.N,RTD_DRDY*
X152527000Y-61530000D03*
D10*
G04 #@! TO.N,+3V3*
G04 #@! TO.C,U2*
G36*
X153259351Y-61155361D02*
X153266632Y-61156441D01*
X153273771Y-61158229D01*
X153280701Y-61160709D01*
X153287355Y-61163856D01*
X153293668Y-61167640D01*
X153299579Y-61172024D01*
X153305033Y-61176967D01*
X153309976Y-61182421D01*
X153314360Y-61188332D01*
X153318144Y-61194645D01*
X153321291Y-61201299D01*
X153323771Y-61208229D01*
X153325559Y-61215368D01*
X153326639Y-61222649D01*
X153327000Y-61230000D01*
X153327000Y-61830000D01*
X153326639Y-61837351D01*
X153325559Y-61844632D01*
X153323771Y-61851771D01*
X153321291Y-61858701D01*
X153318144Y-61865355D01*
X153314360Y-61871668D01*
X153309976Y-61877579D01*
X153305033Y-61883033D01*
X153299579Y-61887976D01*
X153293668Y-61892360D01*
X153287355Y-61896144D01*
X153280701Y-61899291D01*
X153273771Y-61901771D01*
X153266632Y-61903559D01*
X153259351Y-61904639D01*
X153252000Y-61905000D01*
X153102000Y-61905000D01*
X153094649Y-61904639D01*
X153087368Y-61903559D01*
X153080229Y-61901771D01*
X153073299Y-61899291D01*
X153066645Y-61896144D01*
X153060332Y-61892360D01*
X153054421Y-61887976D01*
X153048967Y-61883033D01*
X153044024Y-61877579D01*
X153039640Y-61871668D01*
X153035856Y-61865355D01*
X153032709Y-61858701D01*
X153030229Y-61851771D01*
X153028441Y-61844632D01*
X153027361Y-61837351D01*
X153027000Y-61830000D01*
X153027000Y-61230000D01*
X153027361Y-61222649D01*
X153028441Y-61215368D01*
X153030229Y-61208229D01*
X153032709Y-61201299D01*
X153035856Y-61194645D01*
X153039640Y-61188332D01*
X153044024Y-61182421D01*
X153048967Y-61176967D01*
X153054421Y-61172024D01*
X153060332Y-61167640D01*
X153066645Y-61163856D01*
X153073299Y-61160709D01*
X153080229Y-61158229D01*
X153087368Y-61156441D01*
X153094649Y-61155361D01*
X153102000Y-61155000D01*
X153252000Y-61155000D01*
X153259351Y-61155361D01*
X153259351Y-61155361D01*
G37*
D24*
G04 #@! TD*
G04 #@! TO.P,U2,19*
G04 #@! TO.N,+3V3*
X153177000Y-61530000D03*
D10*
G04 #@! TO.N,+3V3*
G04 #@! TO.C,U2*
G36*
X153909351Y-61155361D02*
X153916632Y-61156441D01*
X153923771Y-61158229D01*
X153930701Y-61160709D01*
X153937355Y-61163856D01*
X153943668Y-61167640D01*
X153949579Y-61172024D01*
X153955033Y-61176967D01*
X153959976Y-61182421D01*
X153964360Y-61188332D01*
X153968144Y-61194645D01*
X153971291Y-61201299D01*
X153973771Y-61208229D01*
X153975559Y-61215368D01*
X153976639Y-61222649D01*
X153977000Y-61230000D01*
X153977000Y-61830000D01*
X153976639Y-61837351D01*
X153975559Y-61844632D01*
X153973771Y-61851771D01*
X153971291Y-61858701D01*
X153968144Y-61865355D01*
X153964360Y-61871668D01*
X153959976Y-61877579D01*
X153955033Y-61883033D01*
X153949579Y-61887976D01*
X153943668Y-61892360D01*
X153937355Y-61896144D01*
X153930701Y-61899291D01*
X153923771Y-61901771D01*
X153916632Y-61903559D01*
X153909351Y-61904639D01*
X153902000Y-61905000D01*
X153752000Y-61905000D01*
X153744649Y-61904639D01*
X153737368Y-61903559D01*
X153730229Y-61901771D01*
X153723299Y-61899291D01*
X153716645Y-61896144D01*
X153710332Y-61892360D01*
X153704421Y-61887976D01*
X153698967Y-61883033D01*
X153694024Y-61877579D01*
X153689640Y-61871668D01*
X153685856Y-61865355D01*
X153682709Y-61858701D01*
X153680229Y-61851771D01*
X153678441Y-61844632D01*
X153677361Y-61837351D01*
X153677000Y-61830000D01*
X153677000Y-61230000D01*
X153677361Y-61222649D01*
X153678441Y-61215368D01*
X153680229Y-61208229D01*
X153682709Y-61201299D01*
X153685856Y-61194645D01*
X153689640Y-61188332D01*
X153694024Y-61182421D01*
X153698967Y-61176967D01*
X153704421Y-61172024D01*
X153710332Y-61167640D01*
X153716645Y-61163856D01*
X153723299Y-61160709D01*
X153730229Y-61158229D01*
X153737368Y-61156441D01*
X153744649Y-61155361D01*
X153752000Y-61155000D01*
X153902000Y-61155000D01*
X153909351Y-61155361D01*
X153909351Y-61155361D01*
G37*
D24*
G04 #@! TD*
G04 #@! TO.P,U2,20*
G04 #@! TO.N,+3V3*
X153827000Y-61530000D03*
D25*
G04 #@! TO.N,GND*
X158750000Y-53975000D03*
X166243000Y-77851000D03*
X148082000Y-77597000D03*
X166243000Y-89281000D03*
X148003093Y-91234093D03*
G04 #@! TO.N,+3V3*
X149098000Y-55245000D03*
X159258000Y-63119000D03*
X160528000Y-75565000D03*
X160528000Y-78151000D03*
G04 #@! TO.N,Net-(J2-Pad1)*
X151130000Y-49657000D03*
G04 #@! TO.N,MISO*
X158242000Y-87249000D03*
X152273000Y-82931000D03*
G04 #@! TO.N,RTD_DRDY*
X153924000Y-64135000D03*
G04 #@! TO.N,MOSI*
X150876000Y-64897000D03*
X148934010Y-57785000D03*
G04 #@! TO.N,SCLK*
X149733000Y-79860164D03*
X164084000Y-79460165D03*
G04 #@! TO.N,FLASH_CS*
X152798000Y-89171000D03*
X146558000Y-82931000D03*
G04 #@! TO.N,RTD_CS*
X151003000Y-78486000D03*
G04 #@! TD*
D26*
G04 #@! TO.N,GND*
X167548000Y-54721000D02*
X167123000Y-54721000D01*
X168839071Y-56012071D02*
X167548000Y-54721000D01*
X168839071Y-58214093D02*
X168839071Y-56012071D01*
X167923000Y-53721000D02*
X167123000Y-53721000D01*
X167998001Y-53796001D02*
X167923000Y-53721000D01*
X167998001Y-54645999D02*
X167998001Y-53796001D01*
X167923000Y-54721000D02*
X167998001Y-54645999D01*
X167123000Y-54721000D02*
X167923000Y-54721000D01*
X158750000Y-51592000D02*
X158780000Y-51562000D01*
X158750000Y-53975000D02*
X158750000Y-51592000D01*
X150854513Y-61157513D02*
X150854513Y-60727487D01*
X151227000Y-61530000D02*
X150854513Y-61157513D01*
X151227000Y-60355000D02*
X152527000Y-59055000D01*
X157607000Y-53975000D02*
X153952000Y-57630000D01*
X158750000Y-53975000D02*
X157607000Y-53975000D01*
X151227000Y-57505000D02*
X151102000Y-57630000D01*
X151227000Y-56580000D02*
X151227000Y-57505000D01*
X150854513Y-60727487D02*
X151102000Y-60480000D01*
X150977000Y-60355000D02*
X151102000Y-60480000D01*
X150052000Y-60355000D02*
X150977000Y-60355000D01*
G04 #@! TO.N,+3V3*
X164493000Y-63246000D02*
X166243000Y-61496000D01*
X159258000Y-63246000D02*
X159258000Y-63119000D01*
X162023000Y-53721000D02*
X162823000Y-53721000D01*
X159258000Y-56349590D02*
X161886590Y-53721000D01*
X161886590Y-53721000D02*
X162023000Y-53721000D01*
X159258000Y-63246000D02*
X159258000Y-56349590D01*
X165668000Y-73011000D02*
X162888000Y-70231000D01*
X162888000Y-70231000D02*
X161798000Y-70231000D01*
X159258000Y-63246000D02*
X159258000Y-66164190D01*
X159258000Y-66164190D02*
X159258000Y-67691000D01*
X159258000Y-67691000D02*
X161798000Y-70231000D01*
X157302848Y-62560848D02*
X156718000Y-61976000D01*
X154273000Y-61976000D02*
X153827000Y-61530000D01*
X157353000Y-62560848D02*
X157302848Y-62560848D01*
X156718000Y-61976000D02*
X154273000Y-61976000D01*
X157969066Y-63176914D02*
X157353000Y-62560848D01*
X153177000Y-62245000D02*
X153177000Y-61530000D01*
X154108914Y-63176914D02*
X153177000Y-62245000D01*
X156185464Y-63176914D02*
X154108914Y-63176914D01*
X159188914Y-63176914D02*
X159258000Y-63246000D01*
X156185464Y-63176914D02*
X159188914Y-63176914D01*
X160528000Y-80646000D02*
X160528000Y-81771000D01*
X160528000Y-78151000D02*
X160528000Y-78151000D01*
X166243000Y-73011000D02*
X165668000Y-73011000D01*
D27*
X145268154Y-56385010D02*
X147957990Y-56385010D01*
X143439071Y-58214093D02*
X145268154Y-56385010D01*
X147957990Y-56385010D02*
X149098000Y-55245000D01*
D26*
X149098000Y-55245000D02*
X149098000Y-55245000D01*
X159258000Y-63119000D02*
X164493000Y-63246000D01*
D28*
X160528000Y-75565000D02*
X160528000Y-81771000D01*
D26*
X160528000Y-78151000D02*
X160528000Y-78151000D01*
G04 #@! TO.N,Net-(C3-Pad1)*
X160373000Y-45466000D02*
X160528000Y-45311000D01*
X156083000Y-45466000D02*
X160373000Y-45466000D01*
X156083000Y-45466000D02*
X155853000Y-45466000D01*
X153177000Y-56105000D02*
X153177000Y-56580000D01*
X153177000Y-55930171D02*
X153177000Y-56105000D01*
X150404999Y-53158170D02*
X153177000Y-55930171D01*
X150404999Y-49308999D02*
X150404999Y-53158170D01*
X154247998Y-45466000D02*
X150404999Y-49308999D01*
X156083000Y-45466000D02*
X154247998Y-45466000D01*
G04 #@! TO.N,Net-(C3-Pad2)*
X159893000Y-42926000D02*
X160528000Y-43561000D01*
X156083000Y-42926000D02*
X159893000Y-42926000D01*
X149606000Y-52959000D02*
X152527000Y-56105000D01*
X149606000Y-48641000D02*
X149606000Y-52959000D01*
X155853000Y-42926000D02*
X149606000Y-48641000D01*
X152527000Y-56105000D02*
X152527000Y-56580000D01*
X156083000Y-42926000D02*
X155853000Y-42926000D01*
G04 #@! TO.N,Net-(C4-Pad2)*
X143487164Y-70866000D02*
X143439071Y-70914093D01*
X146318000Y-70866000D02*
X143487164Y-70866000D01*
G04 #@! TO.N,Net-(C5-Pad2)*
X143487164Y-68326000D02*
X143439071Y-68374093D01*
X146318000Y-68326000D02*
X143487164Y-68326000D01*
G04 #@! TO.N,Net-(C6-Pad2)*
X143487164Y-75946000D02*
X143439071Y-75994093D01*
X146318000Y-75946000D02*
X143487164Y-75946000D01*
G04 #@! TO.N,Net-(C7-Pad2)*
X143487164Y-73406000D02*
X143439071Y-73454093D01*
X146318000Y-73406000D02*
X143487164Y-73406000D01*
G04 #@! TO.N,Net-(J1-Pad4)*
X162023000Y-53221000D02*
X162823000Y-53221000D01*
X161947999Y-53145999D02*
X162023000Y-53221000D01*
X161947999Y-43181001D02*
X161947999Y-53145999D01*
X164743000Y-40386000D02*
X161947999Y-43181001D01*
X164973000Y-40386000D02*
X164743000Y-40386000D01*
G04 #@! TO.N,Net-(J1-Pad3)*
X162823000Y-52346000D02*
X162823000Y-52721000D01*
X164743000Y-42926000D02*
X162823000Y-44846000D01*
X162823000Y-44846000D02*
X162823000Y-52346000D01*
X164973000Y-42926000D02*
X164743000Y-42926000D01*
G04 #@! TO.N,Net-(J1-Pad2)*
X167123000Y-52346000D02*
X167123000Y-52721000D01*
X167123000Y-47386000D02*
X167123000Y-52346000D01*
X165203000Y-45466000D02*
X167123000Y-47386000D01*
X164973000Y-45466000D02*
X165203000Y-45466000D01*
G04 #@! TO.N,Net-(J1-Pad1)*
X166323000Y-53221000D02*
X167123000Y-53221000D01*
X164973000Y-51871000D02*
X166323000Y-53221000D01*
X164973000Y-48006000D02*
X164973000Y-51871000D01*
G04 #@! TO.N,Net-(J2-Pad1)*
X151130000Y-49657000D02*
X151130000Y-49657000D01*
X152781000Y-48006000D02*
X151130000Y-49657000D01*
X156083000Y-48006000D02*
X152781000Y-48006000D01*
X156180000Y-48103000D02*
X156083000Y-48006000D01*
X156180000Y-50927000D02*
X156180000Y-48103000D01*
X157022773Y-48945773D02*
X158546773Y-48945773D01*
X156083000Y-48006000D02*
X157022773Y-48945773D01*
X158546773Y-48945773D02*
X160020000Y-50419000D01*
X155477000Y-57755000D02*
X155002000Y-57755000D01*
X160020000Y-53778002D02*
X156043002Y-57755000D01*
X156043002Y-57755000D02*
X155477000Y-57755000D01*
X160020000Y-50419000D02*
X160020000Y-53778002D01*
G04 #@! TO.N,Net-(J2-Pad4)*
X155853000Y-40386000D02*
X149062980Y-47176020D01*
X156083000Y-40386000D02*
X155853000Y-40386000D01*
X149062980Y-53290980D02*
X151877000Y-56105000D01*
X151877000Y-56105000D02*
X151877000Y-56580000D01*
X149062980Y-47176020D02*
X149062980Y-53290980D01*
G04 #@! TO.N,SCL*
X163703000Y-65786000D02*
X166243000Y-63246000D01*
X162823000Y-55096000D02*
X162823000Y-54721000D01*
X167664070Y-62119092D02*
X167664070Y-59937070D01*
X167664070Y-59937070D02*
X162823000Y-55096000D01*
X168839071Y-63294093D02*
X167664070Y-62119092D01*
G04 #@! TO.N,SDA*
X163703000Y-68721000D02*
X163703000Y-68326000D01*
X166243000Y-71261000D02*
X163703000Y-68721000D01*
X162023000Y-54221000D02*
X162823000Y-54221000D01*
X161947999Y-54296001D02*
X162023000Y-54221000D01*
X161947999Y-55106001D02*
X161947999Y-54296001D01*
X167043010Y-60201012D02*
X161947999Y-55106001D01*
X167043010Y-69118032D02*
X167043010Y-60201012D01*
X168839071Y-70914093D02*
X167043010Y-69118032D01*
D28*
G04 #@! TO.N,+5V*
X143439071Y-103934093D02*
X146558000Y-107053022D01*
X146558000Y-107053022D02*
X146558000Y-111506000D01*
X154813000Y-111506000D02*
X158623000Y-107696000D01*
X146558000Y-111506000D02*
X154813000Y-111506000D01*
X154813000Y-111506000D02*
X158623000Y-115316000D01*
X147200978Y-107696000D02*
X149098000Y-107696000D01*
X146558000Y-107053022D02*
X147200978Y-107696000D01*
X146558000Y-112776000D02*
X149098000Y-115316000D01*
X146558000Y-111506000D02*
X146558000Y-112776000D01*
D26*
G04 #@! TO.N,FLASH_WP*
X163068000Y-88571000D02*
X163068000Y-89171000D01*
X167664070Y-83974930D02*
X163068000Y-88571000D01*
X167664070Y-79709094D02*
X167664070Y-83974930D01*
X168839071Y-78534093D02*
X167664070Y-79709094D01*
G04 #@! TO.N,FLASH_HD*
X161798000Y-81171000D02*
X161798000Y-81771000D01*
X164670907Y-75994093D02*
X167132000Y-75994093D01*
X161798000Y-78867000D02*
X164670907Y-75994093D01*
X161798000Y-81771000D02*
X161798000Y-78867000D01*
X167132000Y-75994093D02*
X166974907Y-75994093D01*
X168839071Y-75994093D02*
X167132000Y-75994093D01*
G04 #@! TO.N,EADC_RDY*
X168839071Y-59953095D02*
X165608000Y-56722024D01*
X168839071Y-60754093D02*
X168839071Y-59953095D01*
X166323000Y-54221000D02*
X167123000Y-54221000D01*
X165608000Y-54936000D02*
X166323000Y-54221000D01*
X165608000Y-56722024D02*
X165608000Y-54936000D01*
G04 #@! TO.N,MISO*
X161798000Y-88571000D02*
X161798000Y-89171000D01*
X160476000Y-87249000D02*
X161798000Y-88571000D01*
X158242000Y-87249000D02*
X160476000Y-87249000D01*
X149202164Y-82931000D02*
X143439071Y-88694093D01*
X152273000Y-82931000D02*
X149202164Y-82931000D01*
X149464000Y-59705000D02*
X150052000Y-59705000D01*
X148463000Y-60706000D02*
X149464000Y-59705000D01*
X148463000Y-63881000D02*
X148463000Y-60706000D01*
X152273000Y-67691000D02*
X148463000Y-63881000D01*
X152273000Y-82931000D02*
X152273000Y-67691000D01*
G04 #@! TO.N,RTD_DRDY*
X152527000Y-62738000D02*
X153924000Y-64135000D01*
X152527000Y-61530000D02*
X152527000Y-62738000D01*
G04 #@! TO.N,MOSI*
X143439071Y-93774093D02*
X154178000Y-83035164D01*
X163068000Y-82371000D02*
X163068000Y-81771000D01*
X162403836Y-83035164D02*
X163068000Y-82371000D01*
X154178000Y-83035164D02*
X162403836Y-83035164D01*
X154178000Y-67945000D02*
X154178000Y-70866000D01*
X154178000Y-70866000D02*
X154178000Y-83035164D01*
X150876000Y-64897000D02*
X154178000Y-67945000D01*
X148964010Y-57755000D02*
X148934010Y-57785000D01*
X150052000Y-57755000D02*
X148964010Y-57755000D01*
G04 #@! TO.N,SCLK*
X149733000Y-79860164D02*
X149733000Y-79860164D01*
X164084000Y-81517000D02*
X164338000Y-81771000D01*
X164084000Y-79460165D02*
X164084000Y-81517000D01*
X149491180Y-58405000D02*
X149577000Y-58405000D01*
X149733000Y-79860164D02*
X149733000Y-66423821D01*
X149733000Y-66423821D02*
X147562978Y-64253800D01*
X147562978Y-64253800D02*
X147562978Y-60333200D01*
X147562978Y-60333200D02*
X149491180Y-58405000D01*
X149577000Y-58405000D02*
X150052000Y-58405000D01*
X143439071Y-86154093D02*
X145112907Y-86154093D01*
X149733000Y-81534000D02*
X149733000Y-79860164D01*
X145112907Y-86154093D02*
X149733000Y-81534000D01*
G04 #@! TO.N,FLASH_CS*
X160528000Y-89171000D02*
X152798000Y-89171000D01*
X152798000Y-89171000D02*
X152798000Y-89171000D01*
X144701093Y-81074093D02*
X143439071Y-81074093D01*
X146558000Y-82931000D02*
X144701093Y-81074093D01*
G04 #@! TO.N,RTD_CS*
X151003000Y-78486000D02*
X151003000Y-78486000D01*
X148012989Y-64067400D02*
X151003000Y-67057410D01*
X150052000Y-59055000D02*
X149477590Y-59055000D01*
X149477590Y-59055000D02*
X149452590Y-59079999D01*
X149452590Y-59079999D02*
X148012989Y-60519600D01*
X148012989Y-60519600D02*
X148012989Y-64067400D01*
X151003000Y-67057410D02*
X151003000Y-77920315D01*
X151003000Y-77920315D02*
X151003000Y-78486000D01*
G04 #@! TO.N,Net-(JP1-Pad2)*
X157480000Y-52927000D02*
X157480000Y-51562000D01*
X153827000Y-56580000D02*
X157480000Y-52927000D01*
G04 #@! TO.N,Net-(R1-Pad1)*
X155002000Y-59705000D02*
X155002000Y-60355000D01*
X156476000Y-60355000D02*
X156972000Y-60851000D01*
X155002000Y-60355000D02*
X156476000Y-60355000D01*
G04 #@! TO.N,Net-(R1-Pad2)*
X155002000Y-58405000D02*
X155398000Y-58801000D01*
X155256000Y-58801000D02*
X155002000Y-59055000D01*
X155398000Y-58801000D02*
X155256000Y-58801000D01*
X155256000Y-58801000D02*
X156972000Y-58801000D01*
G04 #@! TD*
D29*
G04 #@! TO.N,GND*
G36*
X167768446Y-77064718D02*
X168066832Y-77264093D01*
X167768446Y-77463468D01*
X167440232Y-77954675D01*
X167324979Y-78534093D01*
X167397862Y-78900501D01*
X167179600Y-79118763D01*
X167116141Y-79161165D01*
X166948166Y-79412558D01*
X166904070Y-79634243D01*
X166904070Y-79634247D01*
X166889182Y-79709094D01*
X166904070Y-79783941D01*
X166904071Y-83660127D01*
X162915639Y-87648560D01*
X162793000Y-87648560D01*
X162545235Y-87697843D01*
X162433000Y-87772837D01*
X162320765Y-87697843D01*
X162073000Y-87648560D01*
X161950362Y-87648560D01*
X161066331Y-86764530D01*
X161023929Y-86701071D01*
X160772537Y-86533096D01*
X160550852Y-86489000D01*
X160550847Y-86489000D01*
X160476000Y-86474112D01*
X160401153Y-86489000D01*
X158945711Y-86489000D01*
X158828280Y-86371569D01*
X158447874Y-86214000D01*
X158036126Y-86214000D01*
X157655720Y-86371569D01*
X157364569Y-86662720D01*
X157207000Y-87043126D01*
X157207000Y-87454874D01*
X157364569Y-87835280D01*
X157655720Y-88126431D01*
X158036126Y-88284000D01*
X158447874Y-88284000D01*
X158828280Y-88126431D01*
X158945711Y-88009000D01*
X159681059Y-88009000D01*
X159654843Y-88048235D01*
X159605560Y-88296000D01*
X159605560Y-88411000D01*
X153501711Y-88411000D01*
X153384280Y-88293569D01*
X153003874Y-88136000D01*
X152592126Y-88136000D01*
X152211720Y-88293569D01*
X151920569Y-88584720D01*
X151763000Y-88965126D01*
X151763000Y-89376874D01*
X151920569Y-89757280D01*
X152211720Y-90048431D01*
X152592126Y-90206000D01*
X153003874Y-90206000D01*
X153384280Y-90048431D01*
X153501711Y-89931000D01*
X159605560Y-89931000D01*
X159605560Y-90046000D01*
X159654843Y-90293765D01*
X159795191Y-90503809D01*
X160005235Y-90644157D01*
X160253000Y-90693440D01*
X160803000Y-90693440D01*
X161050765Y-90644157D01*
X161163000Y-90569163D01*
X161275235Y-90644157D01*
X161523000Y-90693440D01*
X162073000Y-90693440D01*
X162320765Y-90644157D01*
X162433000Y-90569163D01*
X162545235Y-90644157D01*
X162793000Y-90693440D01*
X163343000Y-90693440D01*
X163590765Y-90644157D01*
X163694091Y-90575117D01*
X163703301Y-90584327D01*
X163936690Y-90681000D01*
X164052250Y-90681000D01*
X164211000Y-90522250D01*
X164211000Y-89298000D01*
X164465000Y-89298000D01*
X164465000Y-90522250D01*
X164623750Y-90681000D01*
X164739310Y-90681000D01*
X164972699Y-90584327D01*
X165151327Y-90405698D01*
X165248000Y-90172309D01*
X165248000Y-89456750D01*
X165089250Y-89298000D01*
X164465000Y-89298000D01*
X164211000Y-89298000D01*
X164191000Y-89298000D01*
X164191000Y-89044000D01*
X164211000Y-89044000D01*
X164211000Y-89024000D01*
X164465000Y-89024000D01*
X164465000Y-89044000D01*
X165089250Y-89044000D01*
X165248000Y-88885250D01*
X165248000Y-88169691D01*
X165151327Y-87936302D01*
X164972699Y-87757673D01*
X164960982Y-87752820D01*
X167924687Y-84789115D01*
X168066832Y-84884093D01*
X167768446Y-85083468D01*
X167440232Y-85574675D01*
X167324979Y-86154093D01*
X167440232Y-86733511D01*
X167768446Y-87224718D01*
X168066832Y-87424093D01*
X167768446Y-87623468D01*
X167440232Y-88114675D01*
X167324979Y-88694093D01*
X167440232Y-89273511D01*
X167768446Y-89764718D01*
X168066832Y-89964093D01*
X167768446Y-90163468D01*
X167440232Y-90654675D01*
X167324979Y-91234093D01*
X167440232Y-91813511D01*
X167768446Y-92304718D01*
X168066832Y-92504093D01*
X167768446Y-92703468D01*
X167440232Y-93194675D01*
X167324979Y-93774093D01*
X167440232Y-94353511D01*
X167768446Y-94844718D01*
X168066832Y-95044093D01*
X167768446Y-95243468D01*
X167440232Y-95734675D01*
X167324979Y-96314093D01*
X167440232Y-96893511D01*
X167768446Y-97384718D01*
X168066832Y-97584093D01*
X167768446Y-97783468D01*
X167440232Y-98274675D01*
X167324979Y-98854093D01*
X167440232Y-99433511D01*
X167768446Y-99924718D01*
X168066832Y-100124093D01*
X167768446Y-100323468D01*
X167440232Y-100814675D01*
X167324979Y-101394093D01*
X167440232Y-101973511D01*
X167768446Y-102464718D01*
X168066832Y-102664093D01*
X167768446Y-102863468D01*
X167440232Y-103354675D01*
X167324979Y-103934093D01*
X167440232Y-104513511D01*
X167768446Y-105004718D01*
X167786690Y-105016909D01*
X167741306Y-105025936D01*
X167531262Y-105166284D01*
X167390914Y-105376328D01*
X167341631Y-105624093D01*
X167341631Y-107324093D01*
X167390914Y-107571858D01*
X167531262Y-107781902D01*
X167741306Y-107922250D01*
X167989071Y-107971533D01*
X169343000Y-107971533D01*
X169343000Y-124324368D01*
X168622679Y-124026001D01*
X167773323Y-124026001D01*
X166988621Y-124351035D01*
X166388035Y-124951621D01*
X166063001Y-125736323D01*
X166063001Y-126585679D01*
X166361368Y-127306000D01*
X145904634Y-127306000D01*
X146203001Y-126585679D01*
X146203001Y-125736323D01*
X145877967Y-124951621D01*
X145277381Y-124351035D01*
X144492679Y-124026001D01*
X143643323Y-124026001D01*
X142858621Y-124351035D01*
X142823000Y-124386656D01*
X142823000Y-107971533D01*
X144289071Y-107971533D01*
X144536836Y-107922250D01*
X144746880Y-107781902D01*
X144887228Y-107571858D01*
X144936511Y-107324093D01*
X144936511Y-106683112D01*
X145673000Y-107419601D01*
X145673001Y-111418831D01*
X145655662Y-111506000D01*
X145673000Y-111593165D01*
X145673001Y-112688835D01*
X145655663Y-112776000D01*
X145724348Y-113121309D01*
X145870576Y-113340154D01*
X145870578Y-113340156D01*
X145919952Y-113414049D01*
X145993845Y-113463423D01*
X147580560Y-115050139D01*
X147580560Y-116166001D01*
X147648873Y-116509436D01*
X147843414Y-116800586D01*
X148134564Y-116995127D01*
X148477999Y-117063440D01*
X149718001Y-117063440D01*
X150061436Y-116995127D01*
X150352586Y-116800586D01*
X150509413Y-116565878D01*
X150552956Y-116631044D01*
X151050779Y-116963678D01*
X151638000Y-117080484D01*
X152225222Y-116963678D01*
X152723044Y-116631044D01*
X152915159Y-116343522D01*
X153207509Y-116706533D01*
X153725500Y-116989584D01*
X153817969Y-117007302D01*
X154051000Y-116886246D01*
X154051000Y-115443000D01*
X154305000Y-115443000D01*
X154305000Y-116886246D01*
X154538031Y-117007302D01*
X154630500Y-116989584D01*
X155148491Y-116706533D01*
X155518734Y-116246802D01*
X155684862Y-115680380D01*
X155528582Y-115443000D01*
X154305000Y-115443000D01*
X154051000Y-115443000D01*
X154031000Y-115443000D01*
X154031000Y-115189000D01*
X154051000Y-115189000D01*
X154051000Y-113745754D01*
X154305000Y-113745754D01*
X154305000Y-115189000D01*
X155528582Y-115189000D01*
X155684862Y-114951620D01*
X155518734Y-114385198D01*
X155148491Y-113925467D01*
X154630500Y-113642416D01*
X154538031Y-113624698D01*
X154305000Y-113745754D01*
X154051000Y-113745754D01*
X153817969Y-113624698D01*
X153725500Y-113642416D01*
X153207509Y-113925467D01*
X152915160Y-114288477D01*
X152723044Y-114000956D01*
X152225221Y-113668322D01*
X151638000Y-113551516D01*
X151050778Y-113668322D01*
X150552956Y-114000956D01*
X150509414Y-114066122D01*
X150352586Y-113831414D01*
X150061436Y-113636873D01*
X149718001Y-113568560D01*
X148602139Y-113568560D01*
X147443000Y-112409422D01*
X147443000Y-112391000D01*
X154446422Y-112391000D01*
X157105560Y-115050139D01*
X157105560Y-116166001D01*
X157173873Y-116509436D01*
X157368414Y-116800586D01*
X157659564Y-116995127D01*
X158002999Y-117063440D01*
X159243001Y-117063440D01*
X159586436Y-116995127D01*
X159877586Y-116800586D01*
X160034413Y-116565878D01*
X160077956Y-116631044D01*
X160575779Y-116963678D01*
X161163000Y-117080484D01*
X161750222Y-116963678D01*
X162248044Y-116631044D01*
X162440159Y-116343522D01*
X162732509Y-116706533D01*
X163250500Y-116989584D01*
X163342969Y-117007302D01*
X163576000Y-116886246D01*
X163576000Y-115443000D01*
X163830000Y-115443000D01*
X163830000Y-116886246D01*
X164063031Y-117007302D01*
X164155500Y-116989584D01*
X164673491Y-116706533D01*
X165043734Y-116246802D01*
X165209862Y-115680380D01*
X165053582Y-115443000D01*
X163830000Y-115443000D01*
X163576000Y-115443000D01*
X163556000Y-115443000D01*
X163556000Y-115189000D01*
X163576000Y-115189000D01*
X163576000Y-113745754D01*
X163830000Y-113745754D01*
X163830000Y-115189000D01*
X165053582Y-115189000D01*
X165209862Y-114951620D01*
X165043734Y-114385198D01*
X164673491Y-113925467D01*
X164155500Y-113642416D01*
X164063031Y-113624698D01*
X163830000Y-113745754D01*
X163576000Y-113745754D01*
X163342969Y-113624698D01*
X163250500Y-113642416D01*
X162732509Y-113925467D01*
X162440160Y-114288477D01*
X162248044Y-114000956D01*
X161750221Y-113668322D01*
X161163000Y-113551516D01*
X160575778Y-113668322D01*
X160077956Y-114000956D01*
X160034414Y-114066122D01*
X159877586Y-113831414D01*
X159586436Y-113636873D01*
X159243001Y-113568560D01*
X158127139Y-113568560D01*
X156064578Y-111506000D01*
X158127139Y-109443440D01*
X159243001Y-109443440D01*
X159586436Y-109375127D01*
X159877586Y-109180586D01*
X160034413Y-108945878D01*
X160077956Y-109011044D01*
X160575779Y-109343678D01*
X161163000Y-109460484D01*
X161750222Y-109343678D01*
X162248044Y-109011044D01*
X162440159Y-108723522D01*
X162732509Y-109086533D01*
X163250500Y-109369584D01*
X163342969Y-109387302D01*
X163576000Y-109266246D01*
X163576000Y-107823000D01*
X163830000Y-107823000D01*
X163830000Y-109266246D01*
X164063031Y-109387302D01*
X164155500Y-109369584D01*
X164673491Y-109086533D01*
X165043734Y-108626802D01*
X165209862Y-108060380D01*
X165053582Y-107823000D01*
X163830000Y-107823000D01*
X163576000Y-107823000D01*
X163556000Y-107823000D01*
X163556000Y-107569000D01*
X163576000Y-107569000D01*
X163576000Y-106125754D01*
X163830000Y-106125754D01*
X163830000Y-107569000D01*
X165053582Y-107569000D01*
X165209862Y-107331620D01*
X165043734Y-106765198D01*
X164673491Y-106305467D01*
X164155500Y-106022416D01*
X164063031Y-106004698D01*
X163830000Y-106125754D01*
X163576000Y-106125754D01*
X163342969Y-106004698D01*
X163250500Y-106022416D01*
X162732509Y-106305467D01*
X162440160Y-106668477D01*
X162248044Y-106380956D01*
X161750221Y-106048322D01*
X161163000Y-105931516D01*
X160575778Y-106048322D01*
X160077956Y-106380956D01*
X160034414Y-106446122D01*
X159877586Y-106211414D01*
X159586436Y-106016873D01*
X159243001Y-105948560D01*
X158002999Y-105948560D01*
X157659564Y-106016873D01*
X157368414Y-106211414D01*
X157173873Y-106502564D01*
X157105560Y-106845999D01*
X157105560Y-107961861D01*
X154446422Y-110621000D01*
X147443000Y-110621000D01*
X147443000Y-108581000D01*
X147587522Y-108581000D01*
X147648873Y-108889436D01*
X147843414Y-109180586D01*
X148134564Y-109375127D01*
X148477999Y-109443440D01*
X149718001Y-109443440D01*
X150061436Y-109375127D01*
X150352586Y-109180586D01*
X150509413Y-108945878D01*
X150552956Y-109011044D01*
X151050779Y-109343678D01*
X151638000Y-109460484D01*
X152225222Y-109343678D01*
X152723044Y-109011044D01*
X152915159Y-108723522D01*
X153207509Y-109086533D01*
X153725500Y-109369584D01*
X153817969Y-109387302D01*
X154051000Y-109266246D01*
X154051000Y-107823000D01*
X154305000Y-107823000D01*
X154305000Y-109266246D01*
X154538031Y-109387302D01*
X154630500Y-109369584D01*
X155148491Y-109086533D01*
X155518734Y-108626802D01*
X155684862Y-108060380D01*
X155528582Y-107823000D01*
X154305000Y-107823000D01*
X154051000Y-107823000D01*
X154031000Y-107823000D01*
X154031000Y-107569000D01*
X154051000Y-107569000D01*
X154051000Y-106125754D01*
X154305000Y-106125754D01*
X154305000Y-107569000D01*
X155528582Y-107569000D01*
X155684862Y-107331620D01*
X155518734Y-106765198D01*
X155148491Y-106305467D01*
X154630500Y-106022416D01*
X154538031Y-106004698D01*
X154305000Y-106125754D01*
X154051000Y-106125754D01*
X153817969Y-106004698D01*
X153725500Y-106022416D01*
X153207509Y-106305467D01*
X152915160Y-106668477D01*
X152723044Y-106380956D01*
X152225221Y-106048322D01*
X151638000Y-105931516D01*
X151050778Y-106048322D01*
X150552956Y-106380956D01*
X150509414Y-106446122D01*
X150352586Y-106211414D01*
X150061436Y-106016873D01*
X149718001Y-105948560D01*
X148477999Y-105948560D01*
X148134564Y-106016873D01*
X147843414Y-106211414D01*
X147648873Y-106502564D01*
X147587522Y-106811000D01*
X147567557Y-106811000D01*
X147245425Y-106488868D01*
X147196049Y-106414973D01*
X147122156Y-106365599D01*
X144909609Y-104153053D01*
X144953163Y-103934093D01*
X144837910Y-103354675D01*
X144509696Y-102863468D01*
X144211310Y-102664093D01*
X144509696Y-102464718D01*
X144837910Y-101973511D01*
X144953163Y-101394093D01*
X144837910Y-100814675D01*
X144509696Y-100323468D01*
X144211310Y-100124093D01*
X144509696Y-99924718D01*
X144837910Y-99433511D01*
X144953163Y-98854093D01*
X144868364Y-98427774D01*
X160928000Y-98427774D01*
X160928000Y-99184225D01*
X161015322Y-99623221D01*
X161347956Y-100121044D01*
X161845778Y-100453678D01*
X162433000Y-100570484D01*
X163020221Y-100453678D01*
X163518044Y-100121044D01*
X163561587Y-100055878D01*
X163718414Y-100290586D01*
X164009564Y-100485127D01*
X164352999Y-100553440D01*
X165593001Y-100553440D01*
X165936436Y-100485127D01*
X166227586Y-100290586D01*
X166422127Y-99999436D01*
X166490440Y-99656001D01*
X166490440Y-97955999D01*
X166422127Y-97612564D01*
X166227586Y-97321414D01*
X165936436Y-97126873D01*
X165593001Y-97058560D01*
X164352999Y-97058560D01*
X164009564Y-97126873D01*
X163718414Y-97321414D01*
X163561586Y-97556122D01*
X163518044Y-97490956D01*
X163020222Y-97158322D01*
X162433000Y-97041516D01*
X161845779Y-97158322D01*
X161347956Y-97490956D01*
X161015322Y-97988778D01*
X160928000Y-98427774D01*
X144868364Y-98427774D01*
X144837910Y-98274675D01*
X144509696Y-97783468D01*
X144211310Y-97584093D01*
X144509696Y-97384718D01*
X144837910Y-96893511D01*
X144953163Y-96314093D01*
X144837910Y-95734675D01*
X144509696Y-95243468D01*
X144211310Y-95044093D01*
X144509696Y-94844718D01*
X144837910Y-94353511D01*
X144953163Y-93774093D01*
X144880280Y-93407685D01*
X154492802Y-83795164D01*
X162328989Y-83795164D01*
X162403836Y-83810052D01*
X162478683Y-83795164D01*
X162478688Y-83795164D01*
X162700373Y-83751068D01*
X162951765Y-83583093D01*
X162994167Y-83519634D01*
X163220361Y-83293440D01*
X163343000Y-83293440D01*
X163590765Y-83244157D01*
X163703000Y-83169163D01*
X163815235Y-83244157D01*
X164063000Y-83293440D01*
X164613000Y-83293440D01*
X164860765Y-83244157D01*
X165070809Y-83103809D01*
X165211157Y-82893765D01*
X165260440Y-82646000D01*
X165260440Y-80896000D01*
X165211157Y-80648235D01*
X165070809Y-80438191D01*
X164860765Y-80297843D01*
X164844000Y-80294508D01*
X164844000Y-80163876D01*
X164961431Y-80046445D01*
X165119000Y-79666039D01*
X165119000Y-79254291D01*
X164961431Y-78873885D01*
X164670280Y-78582734D01*
X164289874Y-78425165D01*
X163878126Y-78425165D01*
X163497720Y-78582734D01*
X163206569Y-78873885D01*
X163049000Y-79254291D01*
X163049000Y-79666039D01*
X163206569Y-80046445D01*
X163324000Y-80163876D01*
X163324000Y-80248560D01*
X162793000Y-80248560D01*
X162558000Y-80295304D01*
X162558000Y-79181801D01*
X164985709Y-76754093D01*
X167560893Y-76754093D01*
X167768446Y-77064718D01*
X167768446Y-77064718D01*
G37*
X167768446Y-77064718D02*
X168066832Y-77264093D01*
X167768446Y-77463468D01*
X167440232Y-77954675D01*
X167324979Y-78534093D01*
X167397862Y-78900501D01*
X167179600Y-79118763D01*
X167116141Y-79161165D01*
X166948166Y-79412558D01*
X166904070Y-79634243D01*
X166904070Y-79634247D01*
X166889182Y-79709094D01*
X166904070Y-79783941D01*
X166904071Y-83660127D01*
X162915639Y-87648560D01*
X162793000Y-87648560D01*
X162545235Y-87697843D01*
X162433000Y-87772837D01*
X162320765Y-87697843D01*
X162073000Y-87648560D01*
X161950362Y-87648560D01*
X161066331Y-86764530D01*
X161023929Y-86701071D01*
X160772537Y-86533096D01*
X160550852Y-86489000D01*
X160550847Y-86489000D01*
X160476000Y-86474112D01*
X160401153Y-86489000D01*
X158945711Y-86489000D01*
X158828280Y-86371569D01*
X158447874Y-86214000D01*
X158036126Y-86214000D01*
X157655720Y-86371569D01*
X157364569Y-86662720D01*
X157207000Y-87043126D01*
X157207000Y-87454874D01*
X157364569Y-87835280D01*
X157655720Y-88126431D01*
X158036126Y-88284000D01*
X158447874Y-88284000D01*
X158828280Y-88126431D01*
X158945711Y-88009000D01*
X159681059Y-88009000D01*
X159654843Y-88048235D01*
X159605560Y-88296000D01*
X159605560Y-88411000D01*
X153501711Y-88411000D01*
X153384280Y-88293569D01*
X153003874Y-88136000D01*
X152592126Y-88136000D01*
X152211720Y-88293569D01*
X151920569Y-88584720D01*
X151763000Y-88965126D01*
X151763000Y-89376874D01*
X151920569Y-89757280D01*
X152211720Y-90048431D01*
X152592126Y-90206000D01*
X153003874Y-90206000D01*
X153384280Y-90048431D01*
X153501711Y-89931000D01*
X159605560Y-89931000D01*
X159605560Y-90046000D01*
X159654843Y-90293765D01*
X159795191Y-90503809D01*
X160005235Y-90644157D01*
X160253000Y-90693440D01*
X160803000Y-90693440D01*
X161050765Y-90644157D01*
X161163000Y-90569163D01*
X161275235Y-90644157D01*
X161523000Y-90693440D01*
X162073000Y-90693440D01*
X162320765Y-90644157D01*
X162433000Y-90569163D01*
X162545235Y-90644157D01*
X162793000Y-90693440D01*
X163343000Y-90693440D01*
X163590765Y-90644157D01*
X163694091Y-90575117D01*
X163703301Y-90584327D01*
X163936690Y-90681000D01*
X164052250Y-90681000D01*
X164211000Y-90522250D01*
X164211000Y-89298000D01*
X164465000Y-89298000D01*
X164465000Y-90522250D01*
X164623750Y-90681000D01*
X164739310Y-90681000D01*
X164972699Y-90584327D01*
X165151327Y-90405698D01*
X165248000Y-90172309D01*
X165248000Y-89456750D01*
X165089250Y-89298000D01*
X164465000Y-89298000D01*
X164211000Y-89298000D01*
X164191000Y-89298000D01*
X164191000Y-89044000D01*
X164211000Y-89044000D01*
X164211000Y-89024000D01*
X164465000Y-89024000D01*
X164465000Y-89044000D01*
X165089250Y-89044000D01*
X165248000Y-88885250D01*
X165248000Y-88169691D01*
X165151327Y-87936302D01*
X164972699Y-87757673D01*
X164960982Y-87752820D01*
X167924687Y-84789115D01*
X168066832Y-84884093D01*
X167768446Y-85083468D01*
X167440232Y-85574675D01*
X167324979Y-86154093D01*
X167440232Y-86733511D01*
X167768446Y-87224718D01*
X168066832Y-87424093D01*
X167768446Y-87623468D01*
X167440232Y-88114675D01*
X167324979Y-88694093D01*
X167440232Y-89273511D01*
X167768446Y-89764718D01*
X168066832Y-89964093D01*
X167768446Y-90163468D01*
X167440232Y-90654675D01*
X167324979Y-91234093D01*
X167440232Y-91813511D01*
X167768446Y-92304718D01*
X168066832Y-92504093D01*
X167768446Y-92703468D01*
X167440232Y-93194675D01*
X167324979Y-93774093D01*
X167440232Y-94353511D01*
X167768446Y-94844718D01*
X168066832Y-95044093D01*
X167768446Y-95243468D01*
X167440232Y-95734675D01*
X167324979Y-96314093D01*
X167440232Y-96893511D01*
X167768446Y-97384718D01*
X168066832Y-97584093D01*
X167768446Y-97783468D01*
X167440232Y-98274675D01*
X167324979Y-98854093D01*
X167440232Y-99433511D01*
X167768446Y-99924718D01*
X168066832Y-100124093D01*
X167768446Y-100323468D01*
X167440232Y-100814675D01*
X167324979Y-101394093D01*
X167440232Y-101973511D01*
X167768446Y-102464718D01*
X168066832Y-102664093D01*
X167768446Y-102863468D01*
X167440232Y-103354675D01*
X167324979Y-103934093D01*
X167440232Y-104513511D01*
X167768446Y-105004718D01*
X167786690Y-105016909D01*
X167741306Y-105025936D01*
X167531262Y-105166284D01*
X167390914Y-105376328D01*
X167341631Y-105624093D01*
X167341631Y-107324093D01*
X167390914Y-107571858D01*
X167531262Y-107781902D01*
X167741306Y-107922250D01*
X167989071Y-107971533D01*
X169343000Y-107971533D01*
X169343000Y-124324368D01*
X168622679Y-124026001D01*
X167773323Y-124026001D01*
X166988621Y-124351035D01*
X166388035Y-124951621D01*
X166063001Y-125736323D01*
X166063001Y-126585679D01*
X166361368Y-127306000D01*
X145904634Y-127306000D01*
X146203001Y-126585679D01*
X146203001Y-125736323D01*
X145877967Y-124951621D01*
X145277381Y-124351035D01*
X144492679Y-124026001D01*
X143643323Y-124026001D01*
X142858621Y-124351035D01*
X142823000Y-124386656D01*
X142823000Y-107971533D01*
X144289071Y-107971533D01*
X144536836Y-107922250D01*
X144746880Y-107781902D01*
X144887228Y-107571858D01*
X144936511Y-107324093D01*
X144936511Y-106683112D01*
X145673000Y-107419601D01*
X145673001Y-111418831D01*
X145655662Y-111506000D01*
X145673000Y-111593165D01*
X145673001Y-112688835D01*
X145655663Y-112776000D01*
X145724348Y-113121309D01*
X145870576Y-113340154D01*
X145870578Y-113340156D01*
X145919952Y-113414049D01*
X145993845Y-113463423D01*
X147580560Y-115050139D01*
X147580560Y-116166001D01*
X147648873Y-116509436D01*
X147843414Y-116800586D01*
X148134564Y-116995127D01*
X148477999Y-117063440D01*
X149718001Y-117063440D01*
X150061436Y-116995127D01*
X150352586Y-116800586D01*
X150509413Y-116565878D01*
X150552956Y-116631044D01*
X151050779Y-116963678D01*
X151638000Y-117080484D01*
X152225222Y-116963678D01*
X152723044Y-116631044D01*
X152915159Y-116343522D01*
X153207509Y-116706533D01*
X153725500Y-116989584D01*
X153817969Y-117007302D01*
X154051000Y-116886246D01*
X154051000Y-115443000D01*
X154305000Y-115443000D01*
X154305000Y-116886246D01*
X154538031Y-117007302D01*
X154630500Y-116989584D01*
X155148491Y-116706533D01*
X155518734Y-116246802D01*
X155684862Y-115680380D01*
X155528582Y-115443000D01*
X154305000Y-115443000D01*
X154051000Y-115443000D01*
X154031000Y-115443000D01*
X154031000Y-115189000D01*
X154051000Y-115189000D01*
X154051000Y-113745754D01*
X154305000Y-113745754D01*
X154305000Y-115189000D01*
X155528582Y-115189000D01*
X155684862Y-114951620D01*
X155518734Y-114385198D01*
X155148491Y-113925467D01*
X154630500Y-113642416D01*
X154538031Y-113624698D01*
X154305000Y-113745754D01*
X154051000Y-113745754D01*
X153817969Y-113624698D01*
X153725500Y-113642416D01*
X153207509Y-113925467D01*
X152915160Y-114288477D01*
X152723044Y-114000956D01*
X152225221Y-113668322D01*
X151638000Y-113551516D01*
X151050778Y-113668322D01*
X150552956Y-114000956D01*
X150509414Y-114066122D01*
X150352586Y-113831414D01*
X150061436Y-113636873D01*
X149718001Y-113568560D01*
X148602139Y-113568560D01*
X147443000Y-112409422D01*
X147443000Y-112391000D01*
X154446422Y-112391000D01*
X157105560Y-115050139D01*
X157105560Y-116166001D01*
X157173873Y-116509436D01*
X157368414Y-116800586D01*
X157659564Y-116995127D01*
X158002999Y-117063440D01*
X159243001Y-117063440D01*
X159586436Y-116995127D01*
X159877586Y-116800586D01*
X160034413Y-116565878D01*
X160077956Y-116631044D01*
X160575779Y-116963678D01*
X161163000Y-117080484D01*
X161750222Y-116963678D01*
X162248044Y-116631044D01*
X162440159Y-116343522D01*
X162732509Y-116706533D01*
X163250500Y-116989584D01*
X163342969Y-117007302D01*
X163576000Y-116886246D01*
X163576000Y-115443000D01*
X163830000Y-115443000D01*
X163830000Y-116886246D01*
X164063031Y-117007302D01*
X164155500Y-116989584D01*
X164673491Y-116706533D01*
X165043734Y-116246802D01*
X165209862Y-115680380D01*
X165053582Y-115443000D01*
X163830000Y-115443000D01*
X163576000Y-115443000D01*
X163556000Y-115443000D01*
X163556000Y-115189000D01*
X163576000Y-115189000D01*
X163576000Y-113745754D01*
X163830000Y-113745754D01*
X163830000Y-115189000D01*
X165053582Y-115189000D01*
X165209862Y-114951620D01*
X165043734Y-114385198D01*
X164673491Y-113925467D01*
X164155500Y-113642416D01*
X164063031Y-113624698D01*
X163830000Y-113745754D01*
X163576000Y-113745754D01*
X163342969Y-113624698D01*
X163250500Y-113642416D01*
X162732509Y-113925467D01*
X162440160Y-114288477D01*
X162248044Y-114000956D01*
X161750221Y-113668322D01*
X161163000Y-113551516D01*
X160575778Y-113668322D01*
X160077956Y-114000956D01*
X160034414Y-114066122D01*
X159877586Y-113831414D01*
X159586436Y-113636873D01*
X159243001Y-113568560D01*
X158127139Y-113568560D01*
X156064578Y-111506000D01*
X158127139Y-109443440D01*
X159243001Y-109443440D01*
X159586436Y-109375127D01*
X159877586Y-109180586D01*
X160034413Y-108945878D01*
X160077956Y-109011044D01*
X160575779Y-109343678D01*
X161163000Y-109460484D01*
X161750222Y-109343678D01*
X162248044Y-109011044D01*
X162440159Y-108723522D01*
X162732509Y-109086533D01*
X163250500Y-109369584D01*
X163342969Y-109387302D01*
X163576000Y-109266246D01*
X163576000Y-107823000D01*
X163830000Y-107823000D01*
X163830000Y-109266246D01*
X164063031Y-109387302D01*
X164155500Y-109369584D01*
X164673491Y-109086533D01*
X165043734Y-108626802D01*
X165209862Y-108060380D01*
X165053582Y-107823000D01*
X163830000Y-107823000D01*
X163576000Y-107823000D01*
X163556000Y-107823000D01*
X163556000Y-107569000D01*
X163576000Y-107569000D01*
X163576000Y-106125754D01*
X163830000Y-106125754D01*
X163830000Y-107569000D01*
X165053582Y-107569000D01*
X165209862Y-107331620D01*
X165043734Y-106765198D01*
X164673491Y-106305467D01*
X164155500Y-106022416D01*
X164063031Y-106004698D01*
X163830000Y-106125754D01*
X163576000Y-106125754D01*
X163342969Y-106004698D01*
X163250500Y-106022416D01*
X162732509Y-106305467D01*
X162440160Y-106668477D01*
X162248044Y-106380956D01*
X161750221Y-106048322D01*
X161163000Y-105931516D01*
X160575778Y-106048322D01*
X160077956Y-106380956D01*
X160034414Y-106446122D01*
X159877586Y-106211414D01*
X159586436Y-106016873D01*
X159243001Y-105948560D01*
X158002999Y-105948560D01*
X157659564Y-106016873D01*
X157368414Y-106211414D01*
X157173873Y-106502564D01*
X157105560Y-106845999D01*
X157105560Y-107961861D01*
X154446422Y-110621000D01*
X147443000Y-110621000D01*
X147443000Y-108581000D01*
X147587522Y-108581000D01*
X147648873Y-108889436D01*
X147843414Y-109180586D01*
X148134564Y-109375127D01*
X148477999Y-109443440D01*
X149718001Y-109443440D01*
X150061436Y-109375127D01*
X150352586Y-109180586D01*
X150509413Y-108945878D01*
X150552956Y-109011044D01*
X151050779Y-109343678D01*
X151638000Y-109460484D01*
X152225222Y-109343678D01*
X152723044Y-109011044D01*
X152915159Y-108723522D01*
X153207509Y-109086533D01*
X153725500Y-109369584D01*
X153817969Y-109387302D01*
X154051000Y-109266246D01*
X154051000Y-107823000D01*
X154305000Y-107823000D01*
X154305000Y-109266246D01*
X154538031Y-109387302D01*
X154630500Y-109369584D01*
X155148491Y-109086533D01*
X155518734Y-108626802D01*
X155684862Y-108060380D01*
X155528582Y-107823000D01*
X154305000Y-107823000D01*
X154051000Y-107823000D01*
X154031000Y-107823000D01*
X154031000Y-107569000D01*
X154051000Y-107569000D01*
X154051000Y-106125754D01*
X154305000Y-106125754D01*
X154305000Y-107569000D01*
X155528582Y-107569000D01*
X155684862Y-107331620D01*
X155518734Y-106765198D01*
X155148491Y-106305467D01*
X154630500Y-106022416D01*
X154538031Y-106004698D01*
X154305000Y-106125754D01*
X154051000Y-106125754D01*
X153817969Y-106004698D01*
X153725500Y-106022416D01*
X153207509Y-106305467D01*
X152915160Y-106668477D01*
X152723044Y-106380956D01*
X152225221Y-106048322D01*
X151638000Y-105931516D01*
X151050778Y-106048322D01*
X150552956Y-106380956D01*
X150509414Y-106446122D01*
X150352586Y-106211414D01*
X150061436Y-106016873D01*
X149718001Y-105948560D01*
X148477999Y-105948560D01*
X148134564Y-106016873D01*
X147843414Y-106211414D01*
X147648873Y-106502564D01*
X147587522Y-106811000D01*
X147567557Y-106811000D01*
X147245425Y-106488868D01*
X147196049Y-106414973D01*
X147122156Y-106365599D01*
X144909609Y-104153053D01*
X144953163Y-103934093D01*
X144837910Y-103354675D01*
X144509696Y-102863468D01*
X144211310Y-102664093D01*
X144509696Y-102464718D01*
X144837910Y-101973511D01*
X144953163Y-101394093D01*
X144837910Y-100814675D01*
X144509696Y-100323468D01*
X144211310Y-100124093D01*
X144509696Y-99924718D01*
X144837910Y-99433511D01*
X144953163Y-98854093D01*
X144868364Y-98427774D01*
X160928000Y-98427774D01*
X160928000Y-99184225D01*
X161015322Y-99623221D01*
X161347956Y-100121044D01*
X161845778Y-100453678D01*
X162433000Y-100570484D01*
X163020221Y-100453678D01*
X163518044Y-100121044D01*
X163561587Y-100055878D01*
X163718414Y-100290586D01*
X164009564Y-100485127D01*
X164352999Y-100553440D01*
X165593001Y-100553440D01*
X165936436Y-100485127D01*
X166227586Y-100290586D01*
X166422127Y-99999436D01*
X166490440Y-99656001D01*
X166490440Y-97955999D01*
X166422127Y-97612564D01*
X166227586Y-97321414D01*
X165936436Y-97126873D01*
X165593001Y-97058560D01*
X164352999Y-97058560D01*
X164009564Y-97126873D01*
X163718414Y-97321414D01*
X163561586Y-97556122D01*
X163518044Y-97490956D01*
X163020222Y-97158322D01*
X162433000Y-97041516D01*
X161845779Y-97158322D01*
X161347956Y-97490956D01*
X161015322Y-97988778D01*
X160928000Y-98427774D01*
X144868364Y-98427774D01*
X144837910Y-98274675D01*
X144509696Y-97783468D01*
X144211310Y-97584093D01*
X144509696Y-97384718D01*
X144837910Y-96893511D01*
X144953163Y-96314093D01*
X144837910Y-95734675D01*
X144509696Y-95243468D01*
X144211310Y-95044093D01*
X144509696Y-94844718D01*
X144837910Y-94353511D01*
X144953163Y-93774093D01*
X144880280Y-93407685D01*
X154492802Y-83795164D01*
X162328989Y-83795164D01*
X162403836Y-83810052D01*
X162478683Y-83795164D01*
X162478688Y-83795164D01*
X162700373Y-83751068D01*
X162951765Y-83583093D01*
X162994167Y-83519634D01*
X163220361Y-83293440D01*
X163343000Y-83293440D01*
X163590765Y-83244157D01*
X163703000Y-83169163D01*
X163815235Y-83244157D01*
X164063000Y-83293440D01*
X164613000Y-83293440D01*
X164860765Y-83244157D01*
X165070809Y-83103809D01*
X165211157Y-82893765D01*
X165260440Y-82646000D01*
X165260440Y-80896000D01*
X165211157Y-80648235D01*
X165070809Y-80438191D01*
X164860765Y-80297843D01*
X164844000Y-80294508D01*
X164844000Y-80163876D01*
X164961431Y-80046445D01*
X165119000Y-79666039D01*
X165119000Y-79254291D01*
X164961431Y-78873885D01*
X164670280Y-78582734D01*
X164289874Y-78425165D01*
X163878126Y-78425165D01*
X163497720Y-78582734D01*
X163206569Y-78873885D01*
X163049000Y-79254291D01*
X163049000Y-79666039D01*
X163206569Y-80046445D01*
X163324000Y-80163876D01*
X163324000Y-80248560D01*
X162793000Y-80248560D01*
X162558000Y-80295304D01*
X162558000Y-79181801D01*
X164985709Y-76754093D01*
X167560893Y-76754093D01*
X167768446Y-77064718D01*
G36*
X143566071Y-91107093D02*
X143586071Y-91107093D01*
X143586071Y-91361093D01*
X143566071Y-91361093D01*
X143566071Y-91381093D01*
X143312071Y-91381093D01*
X143312071Y-91361093D01*
X143292071Y-91361093D01*
X143292071Y-91107093D01*
X143312071Y-91107093D01*
X143312071Y-91087093D01*
X143566071Y-91087093D01*
X143566071Y-91107093D01*
X143566071Y-91107093D01*
G37*
X143566071Y-91107093D02*
X143586071Y-91107093D01*
X143586071Y-91361093D01*
X143566071Y-91361093D01*
X143566071Y-91381093D01*
X143312071Y-91381093D01*
X143312071Y-91361093D01*
X143292071Y-91361093D01*
X143292071Y-91107093D01*
X143312071Y-91107093D01*
X143312071Y-91087093D01*
X143566071Y-91087093D01*
X143566071Y-91107093D01*
G36*
X147917613Y-57534214D02*
X147899010Y-57579126D01*
X147899010Y-57990874D01*
X148056579Y-58371280D01*
X148253338Y-58568039D01*
X147078503Y-59742873D01*
X147015050Y-59785271D01*
X146972652Y-59848724D01*
X146972649Y-59848727D01*
X146847075Y-60036663D01*
X146788090Y-60333200D01*
X146802979Y-60408053D01*
X146802978Y-64178953D01*
X146788090Y-64253800D01*
X146802978Y-64328647D01*
X146802978Y-64328651D01*
X146847074Y-64550336D01*
X147015049Y-64801729D01*
X147078508Y-64844131D01*
X148973001Y-66738624D01*
X148973001Y-67332976D01*
X148952698Y-67312673D01*
X148719309Y-67216000D01*
X148353750Y-67216000D01*
X148195000Y-67374750D01*
X148195000Y-68199000D01*
X148215000Y-68199000D01*
X148215000Y-68453000D01*
X148195000Y-68453000D01*
X148195000Y-69277250D01*
X148353750Y-69436000D01*
X148719309Y-69436000D01*
X148952698Y-69339327D01*
X148973001Y-69319024D01*
X148973001Y-69872976D01*
X148952698Y-69852673D01*
X148719309Y-69756000D01*
X148353750Y-69756000D01*
X148195000Y-69914750D01*
X148195000Y-70739000D01*
X148215000Y-70739000D01*
X148215000Y-70993000D01*
X148195000Y-70993000D01*
X148195000Y-71817250D01*
X148353750Y-71976000D01*
X148719309Y-71976000D01*
X148952698Y-71879327D01*
X148973001Y-71859025D01*
X148973001Y-72412975D01*
X148952698Y-72392673D01*
X148719309Y-72296000D01*
X148353750Y-72296000D01*
X148195000Y-72454750D01*
X148195000Y-73279000D01*
X148215000Y-73279000D01*
X148215000Y-73533000D01*
X148195000Y-73533000D01*
X148195000Y-74357250D01*
X148353750Y-74516000D01*
X148719309Y-74516000D01*
X148952698Y-74419327D01*
X148973000Y-74399025D01*
X148973000Y-74952975D01*
X148952698Y-74932673D01*
X148719309Y-74836000D01*
X148353750Y-74836000D01*
X148195000Y-74994750D01*
X148195000Y-75819000D01*
X148215000Y-75819000D01*
X148215000Y-76073000D01*
X148195000Y-76073000D01*
X148195000Y-76897250D01*
X148353750Y-77056000D01*
X148719309Y-77056000D01*
X148952698Y-76959327D01*
X148973000Y-76939025D01*
X148973000Y-79156453D01*
X148855569Y-79273884D01*
X148698000Y-79654290D01*
X148698000Y-80066038D01*
X148855569Y-80446444D01*
X148973001Y-80563876D01*
X148973000Y-81219198D01*
X147556117Y-82636082D01*
X147435431Y-82344720D01*
X147144280Y-82053569D01*
X146763874Y-81896000D01*
X146597802Y-81896000D01*
X145291424Y-80589623D01*
X145249022Y-80526164D01*
X144997630Y-80358189D01*
X144775945Y-80314093D01*
X144775940Y-80314093D01*
X144708253Y-80300629D01*
X144509696Y-80003468D01*
X144211310Y-79804093D01*
X144509696Y-79604718D01*
X144837910Y-79113511D01*
X144953163Y-78534093D01*
X144837910Y-77954675D01*
X144509696Y-77463468D01*
X144211310Y-77264093D01*
X144509696Y-77064718D01*
X144749384Y-76706000D01*
X145335765Y-76706000D01*
X145404753Y-76809247D01*
X145691848Y-77001078D01*
X146030500Y-77068440D01*
X146605500Y-77068440D01*
X146944152Y-77001078D01*
X147112540Y-76888565D01*
X147183302Y-76959327D01*
X147416691Y-77056000D01*
X147782250Y-77056000D01*
X147941000Y-76897250D01*
X147941000Y-76073000D01*
X147921000Y-76073000D01*
X147921000Y-75819000D01*
X147941000Y-75819000D01*
X147941000Y-74994750D01*
X147782250Y-74836000D01*
X147416691Y-74836000D01*
X147183302Y-74932673D01*
X147112540Y-75003435D01*
X146944152Y-74890922D01*
X146605500Y-74823560D01*
X146030500Y-74823560D01*
X145691848Y-74890922D01*
X145404753Y-75082753D01*
X145335765Y-75186000D01*
X144685114Y-75186000D01*
X144509696Y-74923468D01*
X144211310Y-74724093D01*
X144509696Y-74524718D01*
X144749384Y-74166000D01*
X145335765Y-74166000D01*
X145404753Y-74269247D01*
X145691848Y-74461078D01*
X146030500Y-74528440D01*
X146605500Y-74528440D01*
X146944152Y-74461078D01*
X147112540Y-74348565D01*
X147183302Y-74419327D01*
X147416691Y-74516000D01*
X147782250Y-74516000D01*
X147941000Y-74357250D01*
X147941000Y-73533000D01*
X147921000Y-73533000D01*
X147921000Y-73279000D01*
X147941000Y-73279000D01*
X147941000Y-72454750D01*
X147782250Y-72296000D01*
X147416691Y-72296000D01*
X147183302Y-72392673D01*
X147112540Y-72463435D01*
X146944152Y-72350922D01*
X146605500Y-72283560D01*
X146030500Y-72283560D01*
X145691848Y-72350922D01*
X145404753Y-72542753D01*
X145335765Y-72646000D01*
X144685114Y-72646000D01*
X144509696Y-72383468D01*
X144211310Y-72184093D01*
X144509696Y-71984718D01*
X144749384Y-71626000D01*
X145335765Y-71626000D01*
X145404753Y-71729247D01*
X145691848Y-71921078D01*
X146030500Y-71988440D01*
X146605500Y-71988440D01*
X146944152Y-71921078D01*
X147112540Y-71808565D01*
X147183302Y-71879327D01*
X147416691Y-71976000D01*
X147782250Y-71976000D01*
X147941000Y-71817250D01*
X147941000Y-70993000D01*
X147921000Y-70993000D01*
X147921000Y-70739000D01*
X147941000Y-70739000D01*
X147941000Y-69914750D01*
X147782250Y-69756000D01*
X147416691Y-69756000D01*
X147183302Y-69852673D01*
X147112540Y-69923435D01*
X146944152Y-69810922D01*
X146605500Y-69743560D01*
X146030500Y-69743560D01*
X145691848Y-69810922D01*
X145404753Y-70002753D01*
X145335765Y-70106000D01*
X144685114Y-70106000D01*
X144509696Y-69843468D01*
X144211310Y-69644093D01*
X144509696Y-69444718D01*
X144749384Y-69086000D01*
X145335765Y-69086000D01*
X145404753Y-69189247D01*
X145691848Y-69381078D01*
X146030500Y-69448440D01*
X146605500Y-69448440D01*
X146944152Y-69381078D01*
X147112540Y-69268565D01*
X147183302Y-69339327D01*
X147416691Y-69436000D01*
X147782250Y-69436000D01*
X147941000Y-69277250D01*
X147941000Y-68453000D01*
X147921000Y-68453000D01*
X147921000Y-68199000D01*
X147941000Y-68199000D01*
X147941000Y-67374750D01*
X147782250Y-67216000D01*
X147416691Y-67216000D01*
X147183302Y-67312673D01*
X147112540Y-67383435D01*
X146944152Y-67270922D01*
X146605500Y-67203560D01*
X146030500Y-67203560D01*
X145691848Y-67270922D01*
X145404753Y-67462753D01*
X145335765Y-67566000D01*
X144685114Y-67566000D01*
X144509696Y-67303468D01*
X144211310Y-67104093D01*
X144509696Y-66904718D01*
X144837910Y-66413511D01*
X144953163Y-65834093D01*
X144837910Y-65254675D01*
X144509696Y-64763468D01*
X144211310Y-64564093D01*
X144509696Y-64364718D01*
X144837910Y-63873511D01*
X144953163Y-63294093D01*
X144837910Y-62714675D01*
X144509696Y-62223468D01*
X144211310Y-62024093D01*
X144509696Y-61824718D01*
X144837910Y-61333511D01*
X144953163Y-60754093D01*
X144837910Y-60174675D01*
X144509696Y-59683468D01*
X144211310Y-59484093D01*
X144509696Y-59284718D01*
X144837910Y-58793511D01*
X144930558Y-58327738D01*
X145738286Y-57520010D01*
X147846207Y-57520010D01*
X147917613Y-57534214D01*
X147917613Y-57534214D01*
G37*
X147917613Y-57534214D02*
X147899010Y-57579126D01*
X147899010Y-57990874D01*
X148056579Y-58371280D01*
X148253338Y-58568039D01*
X147078503Y-59742873D01*
X147015050Y-59785271D01*
X146972652Y-59848724D01*
X146972649Y-59848727D01*
X146847075Y-60036663D01*
X146788090Y-60333200D01*
X146802979Y-60408053D01*
X146802978Y-64178953D01*
X146788090Y-64253800D01*
X146802978Y-64328647D01*
X146802978Y-64328651D01*
X146847074Y-64550336D01*
X147015049Y-64801729D01*
X147078508Y-64844131D01*
X148973001Y-66738624D01*
X148973001Y-67332976D01*
X148952698Y-67312673D01*
X148719309Y-67216000D01*
X148353750Y-67216000D01*
X148195000Y-67374750D01*
X148195000Y-68199000D01*
X148215000Y-68199000D01*
X148215000Y-68453000D01*
X148195000Y-68453000D01*
X148195000Y-69277250D01*
X148353750Y-69436000D01*
X148719309Y-69436000D01*
X148952698Y-69339327D01*
X148973001Y-69319024D01*
X148973001Y-69872976D01*
X148952698Y-69852673D01*
X148719309Y-69756000D01*
X148353750Y-69756000D01*
X148195000Y-69914750D01*
X148195000Y-70739000D01*
X148215000Y-70739000D01*
X148215000Y-70993000D01*
X148195000Y-70993000D01*
X148195000Y-71817250D01*
X148353750Y-71976000D01*
X148719309Y-71976000D01*
X148952698Y-71879327D01*
X148973001Y-71859025D01*
X148973001Y-72412975D01*
X148952698Y-72392673D01*
X148719309Y-72296000D01*
X148353750Y-72296000D01*
X148195000Y-72454750D01*
X148195000Y-73279000D01*
X148215000Y-73279000D01*
X148215000Y-73533000D01*
X148195000Y-73533000D01*
X148195000Y-74357250D01*
X148353750Y-74516000D01*
X148719309Y-74516000D01*
X148952698Y-74419327D01*
X148973000Y-74399025D01*
X148973000Y-74952975D01*
X148952698Y-74932673D01*
X148719309Y-74836000D01*
X148353750Y-74836000D01*
X148195000Y-74994750D01*
X148195000Y-75819000D01*
X148215000Y-75819000D01*
X148215000Y-76073000D01*
X148195000Y-76073000D01*
X148195000Y-76897250D01*
X148353750Y-77056000D01*
X148719309Y-77056000D01*
X148952698Y-76959327D01*
X148973000Y-76939025D01*
X148973000Y-79156453D01*
X148855569Y-79273884D01*
X148698000Y-79654290D01*
X148698000Y-80066038D01*
X148855569Y-80446444D01*
X148973001Y-80563876D01*
X148973000Y-81219198D01*
X147556117Y-82636082D01*
X147435431Y-82344720D01*
X147144280Y-82053569D01*
X146763874Y-81896000D01*
X146597802Y-81896000D01*
X145291424Y-80589623D01*
X145249022Y-80526164D01*
X144997630Y-80358189D01*
X144775945Y-80314093D01*
X144775940Y-80314093D01*
X144708253Y-80300629D01*
X144509696Y-80003468D01*
X144211310Y-79804093D01*
X144509696Y-79604718D01*
X144837910Y-79113511D01*
X144953163Y-78534093D01*
X144837910Y-77954675D01*
X144509696Y-77463468D01*
X144211310Y-77264093D01*
X144509696Y-77064718D01*
X144749384Y-76706000D01*
X145335765Y-76706000D01*
X145404753Y-76809247D01*
X145691848Y-77001078D01*
X146030500Y-77068440D01*
X146605500Y-77068440D01*
X146944152Y-77001078D01*
X147112540Y-76888565D01*
X147183302Y-76959327D01*
X147416691Y-77056000D01*
X147782250Y-77056000D01*
X147941000Y-76897250D01*
X147941000Y-76073000D01*
X147921000Y-76073000D01*
X147921000Y-75819000D01*
X147941000Y-75819000D01*
X147941000Y-74994750D01*
X147782250Y-74836000D01*
X147416691Y-74836000D01*
X147183302Y-74932673D01*
X147112540Y-75003435D01*
X146944152Y-74890922D01*
X146605500Y-74823560D01*
X146030500Y-74823560D01*
X145691848Y-74890922D01*
X145404753Y-75082753D01*
X145335765Y-75186000D01*
X144685114Y-75186000D01*
X144509696Y-74923468D01*
X144211310Y-74724093D01*
X144509696Y-74524718D01*
X144749384Y-74166000D01*
X145335765Y-74166000D01*
X145404753Y-74269247D01*
X145691848Y-74461078D01*
X146030500Y-74528440D01*
X146605500Y-74528440D01*
X146944152Y-74461078D01*
X147112540Y-74348565D01*
X147183302Y-74419327D01*
X147416691Y-74516000D01*
X147782250Y-74516000D01*
X147941000Y-74357250D01*
X147941000Y-73533000D01*
X147921000Y-73533000D01*
X147921000Y-73279000D01*
X147941000Y-73279000D01*
X147941000Y-72454750D01*
X147782250Y-72296000D01*
X147416691Y-72296000D01*
X147183302Y-72392673D01*
X147112540Y-72463435D01*
X146944152Y-72350922D01*
X146605500Y-72283560D01*
X146030500Y-72283560D01*
X145691848Y-72350922D01*
X145404753Y-72542753D01*
X145335765Y-72646000D01*
X144685114Y-72646000D01*
X144509696Y-72383468D01*
X144211310Y-72184093D01*
X144509696Y-71984718D01*
X144749384Y-71626000D01*
X145335765Y-71626000D01*
X145404753Y-71729247D01*
X145691848Y-71921078D01*
X146030500Y-71988440D01*
X146605500Y-71988440D01*
X146944152Y-71921078D01*
X147112540Y-71808565D01*
X147183302Y-71879327D01*
X147416691Y-71976000D01*
X147782250Y-71976000D01*
X147941000Y-71817250D01*
X147941000Y-70993000D01*
X147921000Y-70993000D01*
X147921000Y-70739000D01*
X147941000Y-70739000D01*
X147941000Y-69914750D01*
X147782250Y-69756000D01*
X147416691Y-69756000D01*
X147183302Y-69852673D01*
X147112540Y-69923435D01*
X146944152Y-69810922D01*
X146605500Y-69743560D01*
X146030500Y-69743560D01*
X145691848Y-69810922D01*
X145404753Y-70002753D01*
X145335765Y-70106000D01*
X144685114Y-70106000D01*
X144509696Y-69843468D01*
X144211310Y-69644093D01*
X144509696Y-69444718D01*
X144749384Y-69086000D01*
X145335765Y-69086000D01*
X145404753Y-69189247D01*
X145691848Y-69381078D01*
X146030500Y-69448440D01*
X146605500Y-69448440D01*
X146944152Y-69381078D01*
X147112540Y-69268565D01*
X147183302Y-69339327D01*
X147416691Y-69436000D01*
X147782250Y-69436000D01*
X147941000Y-69277250D01*
X147941000Y-68453000D01*
X147921000Y-68453000D01*
X147921000Y-68199000D01*
X147941000Y-68199000D01*
X147941000Y-67374750D01*
X147782250Y-67216000D01*
X147416691Y-67216000D01*
X147183302Y-67312673D01*
X147112540Y-67383435D01*
X146944152Y-67270922D01*
X146605500Y-67203560D01*
X146030500Y-67203560D01*
X145691848Y-67270922D01*
X145404753Y-67462753D01*
X145335765Y-67566000D01*
X144685114Y-67566000D01*
X144509696Y-67303468D01*
X144211310Y-67104093D01*
X144509696Y-66904718D01*
X144837910Y-66413511D01*
X144953163Y-65834093D01*
X144837910Y-65254675D01*
X144509696Y-64763468D01*
X144211310Y-64564093D01*
X144509696Y-64364718D01*
X144837910Y-63873511D01*
X144953163Y-63294093D01*
X144837910Y-62714675D01*
X144509696Y-62223468D01*
X144211310Y-62024093D01*
X144509696Y-61824718D01*
X144837910Y-61333511D01*
X144953163Y-60754093D01*
X144837910Y-60174675D01*
X144509696Y-59683468D01*
X144211310Y-59484093D01*
X144509696Y-59284718D01*
X144837910Y-58793511D01*
X144930558Y-58327738D01*
X145738286Y-57520010D01*
X147846207Y-57520010D01*
X147917613Y-57534214D01*
G36*
X150179000Y-60981250D02*
X150337750Y-61140000D01*
X150363974Y-61140000D01*
X150442000Y-61218025D01*
X150442000Y-61244250D01*
X150600750Y-61403000D01*
X151079560Y-61403000D01*
X151079560Y-61657000D01*
X150600750Y-61657000D01*
X150442000Y-61815750D01*
X150442000Y-62031310D01*
X150538673Y-62264699D01*
X150717302Y-62443327D01*
X150950691Y-62540000D01*
X150993250Y-62540000D01*
X151152000Y-62381250D01*
X151152000Y-62132579D01*
X151291158Y-62340842D01*
X151302000Y-62348086D01*
X151302000Y-62381250D01*
X151460750Y-62540000D01*
X151503309Y-62540000D01*
X151579921Y-62508266D01*
X151767001Y-62545478D01*
X151767001Y-62663149D01*
X151752112Y-62738000D01*
X151811097Y-63034537D01*
X151906230Y-63176913D01*
X151979072Y-63285929D01*
X152042528Y-63328329D01*
X152889000Y-64174802D01*
X152889000Y-64340874D01*
X153046569Y-64721280D01*
X153337720Y-65012431D01*
X153718126Y-65170000D01*
X154129874Y-65170000D01*
X154510280Y-65012431D01*
X154801431Y-64721280D01*
X154959000Y-64340874D01*
X154959000Y-63936914D01*
X155219820Y-63936914D01*
X155242899Y-63971454D01*
X155172137Y-64042216D01*
X155075464Y-64275605D01*
X155075464Y-64641164D01*
X155234214Y-64799914D01*
X156058464Y-64799914D01*
X156058464Y-64779914D01*
X156312464Y-64779914D01*
X156312464Y-64799914D01*
X157842066Y-64799914D01*
X157842066Y-64779914D01*
X158096066Y-64779914D01*
X158096066Y-64799914D01*
X158116066Y-64799914D01*
X158116066Y-65053914D01*
X158096066Y-65053914D01*
X158096066Y-65928164D01*
X158254816Y-66086914D01*
X158498001Y-66086914D01*
X158498001Y-66089334D01*
X158498000Y-66089339D01*
X158498001Y-67616148D01*
X158483112Y-67691000D01*
X158498001Y-67765852D01*
X158542097Y-67987537D01*
X158710072Y-68238929D01*
X158773528Y-68281329D01*
X161207673Y-70715476D01*
X161250071Y-70778929D01*
X161313524Y-70821327D01*
X161313526Y-70821329D01*
X161438902Y-70905102D01*
X161501463Y-70946904D01*
X161723148Y-70991000D01*
X161723152Y-70991000D01*
X161797999Y-71005888D01*
X161872846Y-70991000D01*
X162573199Y-70991000D01*
X165077671Y-73495473D01*
X165120071Y-73558929D01*
X165180378Y-73599225D01*
X165187922Y-73637152D01*
X165379753Y-73924247D01*
X165666848Y-74116078D01*
X166005500Y-74183440D01*
X166480500Y-74183440D01*
X166819152Y-74116078D01*
X167106247Y-73924247D01*
X167298078Y-73637152D01*
X167365440Y-73298500D01*
X167365440Y-72723500D01*
X167298078Y-72384848D01*
X167131803Y-72136000D01*
X167298078Y-71887152D01*
X167365440Y-71548500D01*
X167365440Y-71117505D01*
X167440232Y-71493511D01*
X167768446Y-71984718D01*
X168087549Y-72197936D01*
X167957713Y-72258910D01*
X167567426Y-72687169D01*
X167397595Y-73097203D01*
X167518916Y-73327093D01*
X168712071Y-73327093D01*
X168712071Y-73307093D01*
X168966071Y-73307093D01*
X168966071Y-73327093D01*
X168986071Y-73327093D01*
X168986071Y-73581093D01*
X168966071Y-73581093D01*
X168966071Y-73601093D01*
X168712071Y-73601093D01*
X168712071Y-73581093D01*
X167518916Y-73581093D01*
X167397595Y-73810983D01*
X167567426Y-74221017D01*
X167957713Y-74649276D01*
X168087549Y-74710250D01*
X167768446Y-74923468D01*
X167560893Y-75234093D01*
X164745753Y-75234093D01*
X164670906Y-75219205D01*
X164596059Y-75234093D01*
X164596055Y-75234093D01*
X164374370Y-75278189D01*
X164122978Y-75446164D01*
X164080578Y-75509620D01*
X161563000Y-78027199D01*
X161563000Y-77945126D01*
X161413000Y-77582993D01*
X161413000Y-76133007D01*
X161563000Y-75770874D01*
X161563000Y-75359126D01*
X161405431Y-74978720D01*
X161114280Y-74687569D01*
X160733874Y-74530000D01*
X160322126Y-74530000D01*
X159941720Y-74687569D01*
X159650569Y-74978720D01*
X159493000Y-75359126D01*
X159493000Y-75770874D01*
X159643000Y-76133007D01*
X159643000Y-77582992D01*
X159493000Y-77945126D01*
X159493000Y-78356874D01*
X159643001Y-78719008D01*
X159643001Y-80707770D01*
X159605560Y-80896000D01*
X159605560Y-82275164D01*
X154938000Y-82275164D01*
X154938000Y-68004537D01*
X154952269Y-67914029D01*
X154920434Y-67781838D01*
X154893904Y-67648463D01*
X154885164Y-67635382D01*
X154881480Y-67620086D01*
X154801473Y-67510130D01*
X154725929Y-67397071D01*
X154649743Y-67346165D01*
X152338450Y-65212664D01*
X155075464Y-65212664D01*
X155075464Y-65578223D01*
X155172137Y-65811612D01*
X155350765Y-65990241D01*
X155584154Y-66086914D01*
X155899714Y-66086914D01*
X156058464Y-65928164D01*
X156058464Y-65053914D01*
X156312464Y-65053914D01*
X156312464Y-65928164D01*
X156471214Y-66086914D01*
X156786774Y-66086914D01*
X157020163Y-65990241D01*
X157077265Y-65933139D01*
X157134367Y-65990241D01*
X157367756Y-66086914D01*
X157683316Y-66086914D01*
X157842066Y-65928164D01*
X157842066Y-65053914D01*
X156312464Y-65053914D01*
X156058464Y-65053914D01*
X155234214Y-65053914D01*
X155075464Y-65212664D01*
X152338450Y-65212664D01*
X151911000Y-64818095D01*
X151911000Y-64691126D01*
X151753431Y-64310720D01*
X151462280Y-64019569D01*
X151081874Y-63862000D01*
X150670126Y-63862000D01*
X150289720Y-64019569D01*
X149998569Y-64310720D01*
X149989475Y-64332674D01*
X149223000Y-63566199D01*
X149223000Y-61020801D01*
X149258888Y-60984913D01*
X149317302Y-61043327D01*
X149550691Y-61140000D01*
X149766250Y-61140000D01*
X149925000Y-60981250D01*
X149925000Y-60502440D01*
X150179000Y-60502440D01*
X150179000Y-60981250D01*
X150179000Y-60981250D01*
G37*
X150179000Y-60981250D02*
X150337750Y-61140000D01*
X150363974Y-61140000D01*
X150442000Y-61218025D01*
X150442000Y-61244250D01*
X150600750Y-61403000D01*
X151079560Y-61403000D01*
X151079560Y-61657000D01*
X150600750Y-61657000D01*
X150442000Y-61815750D01*
X150442000Y-62031310D01*
X150538673Y-62264699D01*
X150717302Y-62443327D01*
X150950691Y-62540000D01*
X150993250Y-62540000D01*
X151152000Y-62381250D01*
X151152000Y-62132579D01*
X151291158Y-62340842D01*
X151302000Y-62348086D01*
X151302000Y-62381250D01*
X151460750Y-62540000D01*
X151503309Y-62540000D01*
X151579921Y-62508266D01*
X151767001Y-62545478D01*
X151767001Y-62663149D01*
X151752112Y-62738000D01*
X151811097Y-63034537D01*
X151906230Y-63176913D01*
X151979072Y-63285929D01*
X152042528Y-63328329D01*
X152889000Y-64174802D01*
X152889000Y-64340874D01*
X153046569Y-64721280D01*
X153337720Y-65012431D01*
X153718126Y-65170000D01*
X154129874Y-65170000D01*
X154510280Y-65012431D01*
X154801431Y-64721280D01*
X154959000Y-64340874D01*
X154959000Y-63936914D01*
X155219820Y-63936914D01*
X155242899Y-63971454D01*
X155172137Y-64042216D01*
X155075464Y-64275605D01*
X155075464Y-64641164D01*
X155234214Y-64799914D01*
X156058464Y-64799914D01*
X156058464Y-64779914D01*
X156312464Y-64779914D01*
X156312464Y-64799914D01*
X157842066Y-64799914D01*
X157842066Y-64779914D01*
X158096066Y-64779914D01*
X158096066Y-64799914D01*
X158116066Y-64799914D01*
X158116066Y-65053914D01*
X158096066Y-65053914D01*
X158096066Y-65928164D01*
X158254816Y-66086914D01*
X158498001Y-66086914D01*
X158498001Y-66089334D01*
X158498000Y-66089339D01*
X158498001Y-67616148D01*
X158483112Y-67691000D01*
X158498001Y-67765852D01*
X158542097Y-67987537D01*
X158710072Y-68238929D01*
X158773528Y-68281329D01*
X161207673Y-70715476D01*
X161250071Y-70778929D01*
X161313524Y-70821327D01*
X161313526Y-70821329D01*
X161438902Y-70905102D01*
X161501463Y-70946904D01*
X161723148Y-70991000D01*
X161723152Y-70991000D01*
X161797999Y-71005888D01*
X161872846Y-70991000D01*
X162573199Y-70991000D01*
X165077671Y-73495473D01*
X165120071Y-73558929D01*
X165180378Y-73599225D01*
X165187922Y-73637152D01*
X165379753Y-73924247D01*
X165666848Y-74116078D01*
X166005500Y-74183440D01*
X166480500Y-74183440D01*
X166819152Y-74116078D01*
X167106247Y-73924247D01*
X167298078Y-73637152D01*
X167365440Y-73298500D01*
X167365440Y-72723500D01*
X167298078Y-72384848D01*
X167131803Y-72136000D01*
X167298078Y-71887152D01*
X167365440Y-71548500D01*
X167365440Y-71117505D01*
X167440232Y-71493511D01*
X167768446Y-71984718D01*
X168087549Y-72197936D01*
X167957713Y-72258910D01*
X167567426Y-72687169D01*
X167397595Y-73097203D01*
X167518916Y-73327093D01*
X168712071Y-73327093D01*
X168712071Y-73307093D01*
X168966071Y-73307093D01*
X168966071Y-73327093D01*
X168986071Y-73327093D01*
X168986071Y-73581093D01*
X168966071Y-73581093D01*
X168966071Y-73601093D01*
X168712071Y-73601093D01*
X168712071Y-73581093D01*
X167518916Y-73581093D01*
X167397595Y-73810983D01*
X167567426Y-74221017D01*
X167957713Y-74649276D01*
X168087549Y-74710250D01*
X167768446Y-74923468D01*
X167560893Y-75234093D01*
X164745753Y-75234093D01*
X164670906Y-75219205D01*
X164596059Y-75234093D01*
X164596055Y-75234093D01*
X164374370Y-75278189D01*
X164122978Y-75446164D01*
X164080578Y-75509620D01*
X161563000Y-78027199D01*
X161563000Y-77945126D01*
X161413000Y-77582993D01*
X161413000Y-76133007D01*
X161563000Y-75770874D01*
X161563000Y-75359126D01*
X161405431Y-74978720D01*
X161114280Y-74687569D01*
X160733874Y-74530000D01*
X160322126Y-74530000D01*
X159941720Y-74687569D01*
X159650569Y-74978720D01*
X159493000Y-75359126D01*
X159493000Y-75770874D01*
X159643000Y-76133007D01*
X159643000Y-77582992D01*
X159493000Y-77945126D01*
X159493000Y-78356874D01*
X159643001Y-78719008D01*
X159643001Y-80707770D01*
X159605560Y-80896000D01*
X159605560Y-82275164D01*
X154938000Y-82275164D01*
X154938000Y-68004537D01*
X154952269Y-67914029D01*
X154920434Y-67781838D01*
X154893904Y-67648463D01*
X154885164Y-67635382D01*
X154881480Y-67620086D01*
X154801473Y-67510130D01*
X154725929Y-67397071D01*
X154649743Y-67346165D01*
X152338450Y-65212664D01*
X155075464Y-65212664D01*
X155075464Y-65578223D01*
X155172137Y-65811612D01*
X155350765Y-65990241D01*
X155584154Y-66086914D01*
X155899714Y-66086914D01*
X156058464Y-65928164D01*
X156058464Y-65053914D01*
X156312464Y-65053914D01*
X156312464Y-65928164D01*
X156471214Y-66086914D01*
X156786774Y-66086914D01*
X157020163Y-65990241D01*
X157077265Y-65933139D01*
X157134367Y-65990241D01*
X157367756Y-66086914D01*
X157683316Y-66086914D01*
X157842066Y-65928164D01*
X157842066Y-65053914D01*
X156312464Y-65053914D01*
X156058464Y-65053914D01*
X155234214Y-65053914D01*
X155075464Y-65212664D01*
X152338450Y-65212664D01*
X151911000Y-64818095D01*
X151911000Y-64691126D01*
X151753431Y-64310720D01*
X151462280Y-64019569D01*
X151081874Y-63862000D01*
X150670126Y-63862000D01*
X150289720Y-64019569D01*
X149998569Y-64310720D01*
X149989475Y-64332674D01*
X149223000Y-63566199D01*
X149223000Y-61020801D01*
X149258888Y-60984913D01*
X149317302Y-61043327D01*
X149550691Y-61140000D01*
X149766250Y-61140000D01*
X149925000Y-60981250D01*
X149925000Y-60502440D01*
X150179000Y-60502440D01*
X150179000Y-60981250D01*
G36*
X152674000Y-58994110D02*
X152674000Y-59115890D01*
X152587890Y-59202000D01*
X152466110Y-59202000D01*
X152380000Y-59115890D01*
X152380000Y-58994110D01*
X152466110Y-58908000D01*
X152587890Y-58908000D01*
X152674000Y-58994110D01*
X152674000Y-58994110D01*
G37*
X152674000Y-58994110D02*
X152674000Y-59115890D01*
X152587890Y-59202000D01*
X152466110Y-59202000D01*
X152380000Y-59115890D01*
X152380000Y-58994110D01*
X152466110Y-58908000D01*
X152587890Y-58908000D01*
X152674000Y-58994110D01*
G36*
X166388035Y-34781621D02*
X166063001Y-35566323D01*
X166063001Y-36415679D01*
X166388035Y-37200381D01*
X166988621Y-37800967D01*
X167773323Y-38126001D01*
X168622679Y-38126001D01*
X169343001Y-37827634D01*
X169343001Y-56841660D01*
X169195963Y-56772607D01*
X168966071Y-56893274D01*
X168966071Y-58087093D01*
X168986071Y-58087093D01*
X168986071Y-58341093D01*
X168966071Y-58341093D01*
X168966071Y-58361093D01*
X168712071Y-58361093D01*
X168712071Y-58341093D01*
X168692071Y-58341093D01*
X168692071Y-58087093D01*
X168712071Y-58087093D01*
X168712071Y-56893274D01*
X168482179Y-56772607D01*
X167957713Y-57018910D01*
X167567426Y-57447169D01*
X167520718Y-57559940D01*
X166368000Y-56407223D01*
X166368000Y-55448405D01*
X166446691Y-55481000D01*
X166837250Y-55481000D01*
X166996000Y-55322250D01*
X166996000Y-54993440D01*
X167250000Y-54993440D01*
X167250000Y-55322250D01*
X167408750Y-55481000D01*
X167799309Y-55481000D01*
X168032698Y-55384327D01*
X168211327Y-55205699D01*
X168308000Y-54972310D01*
X168308000Y-54942250D01*
X168149250Y-54783500D01*
X168144379Y-54783500D01*
X168271157Y-54593765D01*
X168285353Y-54522397D01*
X168308000Y-54499750D01*
X168308000Y-54469690D01*
X168299783Y-54449852D01*
X168320440Y-54346000D01*
X168320440Y-54096000D01*
X168299783Y-53992148D01*
X168308000Y-53972310D01*
X168308000Y-53942250D01*
X168285353Y-53919603D01*
X168271157Y-53848235D01*
X168186141Y-53721000D01*
X168271157Y-53593765D01*
X168285353Y-53522397D01*
X168308000Y-53499750D01*
X168308000Y-53469690D01*
X168299783Y-53449852D01*
X168320440Y-53346000D01*
X168320440Y-53096000D01*
X168295576Y-52971000D01*
X168320440Y-52846000D01*
X168320440Y-52596000D01*
X168271157Y-52348235D01*
X168130809Y-52138191D01*
X167920765Y-51997843D01*
X167883000Y-51990331D01*
X167883000Y-47460846D01*
X167897888Y-47385999D01*
X167883000Y-47311152D01*
X167883000Y-47311148D01*
X167838904Y-47089463D01*
X167670929Y-46838071D01*
X167607473Y-46795671D01*
X166661218Y-45849416D01*
X166737484Y-45466000D01*
X166620678Y-44878778D01*
X166288044Y-44380956D01*
X166011238Y-44196000D01*
X166288044Y-44011044D01*
X166620678Y-43513222D01*
X166737484Y-42926000D01*
X166620678Y-42338778D01*
X166288044Y-41840956D01*
X166011238Y-41656000D01*
X166288044Y-41471044D01*
X166620678Y-40973222D01*
X166737484Y-40386000D01*
X166620678Y-39798778D01*
X166288044Y-39300956D01*
X165790222Y-38968322D01*
X165351226Y-38881000D01*
X164594774Y-38881000D01*
X164155778Y-38968322D01*
X163657956Y-39300956D01*
X163325322Y-39798778D01*
X163208516Y-40386000D01*
X163284782Y-40769415D01*
X161463529Y-42590670D01*
X161400070Y-42633072D01*
X161390565Y-42647297D01*
X161104152Y-42455922D01*
X160765500Y-42388560D01*
X160447938Y-42388560D01*
X160440929Y-42378071D01*
X160189537Y-42210096D01*
X159967852Y-42166000D01*
X159967847Y-42166000D01*
X159893000Y-42151112D01*
X159818153Y-42166000D01*
X157615231Y-42166000D01*
X157398044Y-41840956D01*
X157121238Y-41656000D01*
X157398044Y-41471044D01*
X157730678Y-40973222D01*
X157847484Y-40386000D01*
X157730678Y-39798778D01*
X157398044Y-39300956D01*
X156900222Y-38968322D01*
X156461226Y-38881000D01*
X155704774Y-38881000D01*
X155265778Y-38968322D01*
X154767956Y-39300956D01*
X154435322Y-39798778D01*
X154318516Y-40386000D01*
X154394782Y-40769415D01*
X148578510Y-46585689D01*
X148515051Y-46628091D01*
X148347076Y-46879484D01*
X148302980Y-47101169D01*
X148302980Y-47101173D01*
X148288092Y-47176020D01*
X148302980Y-47250867D01*
X148302980Y-47373632D01*
X148237127Y-47042564D01*
X148042586Y-46751414D01*
X147807878Y-46594587D01*
X147873044Y-46551044D01*
X148205678Y-46053222D01*
X148322484Y-45466000D01*
X148205678Y-44878778D01*
X147873044Y-44380956D01*
X147596238Y-44196000D01*
X147873044Y-44011044D01*
X148205678Y-43513222D01*
X148322484Y-42926000D01*
X148205678Y-42338778D01*
X147873044Y-41840956D01*
X147596238Y-41656000D01*
X147873044Y-41471044D01*
X148205678Y-40973222D01*
X148322484Y-40386000D01*
X148205678Y-39798778D01*
X147873044Y-39300956D01*
X147375222Y-38968322D01*
X146936226Y-38881000D01*
X146179774Y-38881000D01*
X145740778Y-38968322D01*
X145242956Y-39300956D01*
X144910322Y-39798778D01*
X144793516Y-40386000D01*
X144910322Y-40973222D01*
X145242956Y-41471044D01*
X145519762Y-41656000D01*
X145242956Y-41840956D01*
X144910322Y-42338778D01*
X144793516Y-42926000D01*
X144910322Y-43513222D01*
X145242956Y-44011044D01*
X145519762Y-44196000D01*
X145242956Y-44380956D01*
X144910322Y-44878778D01*
X144793516Y-45466000D01*
X144910322Y-46053222D01*
X145242956Y-46551044D01*
X145308122Y-46594587D01*
X145073414Y-46751414D01*
X144878873Y-47042564D01*
X144810560Y-47385999D01*
X144810560Y-48626001D01*
X144878873Y-48969436D01*
X145073414Y-49260586D01*
X145364564Y-49455127D01*
X145707999Y-49523440D01*
X147408001Y-49523440D01*
X147751436Y-49455127D01*
X148042586Y-49260586D01*
X148237127Y-48969436D01*
X148302980Y-48638367D01*
X148302981Y-53216128D01*
X148288092Y-53290980D01*
X148347077Y-53587517D01*
X148468293Y-53768929D01*
X148515052Y-53838909D01*
X148578508Y-53881309D01*
X148836900Y-54139701D01*
X148655145Y-54175854D01*
X148374476Y-54363392D01*
X147487859Y-55250010D01*
X145379937Y-55250010D01*
X145268154Y-55227775D01*
X145156371Y-55250010D01*
X144825299Y-55315864D01*
X144449865Y-55566721D01*
X144386543Y-55661489D01*
X143318940Y-56729093D01*
X143292815Y-56729093D01*
X142859653Y-56815254D01*
X142823000Y-56839745D01*
X142823000Y-37765346D01*
X142858621Y-37800967D01*
X143643323Y-38126001D01*
X144492679Y-38126001D01*
X145277381Y-37800967D01*
X145877967Y-37200381D01*
X146203001Y-36415679D01*
X146203001Y-35566323D01*
X145877967Y-34781621D01*
X145842346Y-34746000D01*
X166423656Y-34746000D01*
X166388035Y-34781621D01*
X166388035Y-34781621D01*
G37*
X166388035Y-34781621D02*
X166063001Y-35566323D01*
X166063001Y-36415679D01*
X166388035Y-37200381D01*
X166988621Y-37800967D01*
X167773323Y-38126001D01*
X168622679Y-38126001D01*
X169343001Y-37827634D01*
X169343001Y-56841660D01*
X169195963Y-56772607D01*
X168966071Y-56893274D01*
X168966071Y-58087093D01*
X168986071Y-58087093D01*
X168986071Y-58341093D01*
X168966071Y-58341093D01*
X168966071Y-58361093D01*
X168712071Y-58361093D01*
X168712071Y-58341093D01*
X168692071Y-58341093D01*
X168692071Y-58087093D01*
X168712071Y-58087093D01*
X168712071Y-56893274D01*
X168482179Y-56772607D01*
X167957713Y-57018910D01*
X167567426Y-57447169D01*
X167520718Y-57559940D01*
X166368000Y-56407223D01*
X166368000Y-55448405D01*
X166446691Y-55481000D01*
X166837250Y-55481000D01*
X166996000Y-55322250D01*
X166996000Y-54993440D01*
X167250000Y-54993440D01*
X167250000Y-55322250D01*
X167408750Y-55481000D01*
X167799309Y-55481000D01*
X168032698Y-55384327D01*
X168211327Y-55205699D01*
X168308000Y-54972310D01*
X168308000Y-54942250D01*
X168149250Y-54783500D01*
X168144379Y-54783500D01*
X168271157Y-54593765D01*
X168285353Y-54522397D01*
X168308000Y-54499750D01*
X168308000Y-54469690D01*
X168299783Y-54449852D01*
X168320440Y-54346000D01*
X168320440Y-54096000D01*
X168299783Y-53992148D01*
X168308000Y-53972310D01*
X168308000Y-53942250D01*
X168285353Y-53919603D01*
X168271157Y-53848235D01*
X168186141Y-53721000D01*
X168271157Y-53593765D01*
X168285353Y-53522397D01*
X168308000Y-53499750D01*
X168308000Y-53469690D01*
X168299783Y-53449852D01*
X168320440Y-53346000D01*
X168320440Y-53096000D01*
X168295576Y-52971000D01*
X168320440Y-52846000D01*
X168320440Y-52596000D01*
X168271157Y-52348235D01*
X168130809Y-52138191D01*
X167920765Y-51997843D01*
X167883000Y-51990331D01*
X167883000Y-47460846D01*
X167897888Y-47385999D01*
X167883000Y-47311152D01*
X167883000Y-47311148D01*
X167838904Y-47089463D01*
X167670929Y-46838071D01*
X167607473Y-46795671D01*
X166661218Y-45849416D01*
X166737484Y-45466000D01*
X166620678Y-44878778D01*
X166288044Y-44380956D01*
X166011238Y-44196000D01*
X166288044Y-44011044D01*
X166620678Y-43513222D01*
X166737484Y-42926000D01*
X166620678Y-42338778D01*
X166288044Y-41840956D01*
X166011238Y-41656000D01*
X166288044Y-41471044D01*
X166620678Y-40973222D01*
X166737484Y-40386000D01*
X166620678Y-39798778D01*
X166288044Y-39300956D01*
X165790222Y-38968322D01*
X165351226Y-38881000D01*
X164594774Y-38881000D01*
X164155778Y-38968322D01*
X163657956Y-39300956D01*
X163325322Y-39798778D01*
X163208516Y-40386000D01*
X163284782Y-40769415D01*
X161463529Y-42590670D01*
X161400070Y-42633072D01*
X161390565Y-42647297D01*
X161104152Y-42455922D01*
X160765500Y-42388560D01*
X160447938Y-42388560D01*
X160440929Y-42378071D01*
X160189537Y-42210096D01*
X159967852Y-42166000D01*
X159967847Y-42166000D01*
X159893000Y-42151112D01*
X159818153Y-42166000D01*
X157615231Y-42166000D01*
X157398044Y-41840956D01*
X157121238Y-41656000D01*
X157398044Y-41471044D01*
X157730678Y-40973222D01*
X157847484Y-40386000D01*
X157730678Y-39798778D01*
X157398044Y-39300956D01*
X156900222Y-38968322D01*
X156461226Y-38881000D01*
X155704774Y-38881000D01*
X155265778Y-38968322D01*
X154767956Y-39300956D01*
X154435322Y-39798778D01*
X154318516Y-40386000D01*
X154394782Y-40769415D01*
X148578510Y-46585689D01*
X148515051Y-46628091D01*
X148347076Y-46879484D01*
X148302980Y-47101169D01*
X148302980Y-47101173D01*
X148288092Y-47176020D01*
X148302980Y-47250867D01*
X148302980Y-47373632D01*
X148237127Y-47042564D01*
X148042586Y-46751414D01*
X147807878Y-46594587D01*
X147873044Y-46551044D01*
X148205678Y-46053222D01*
X148322484Y-45466000D01*
X148205678Y-44878778D01*
X147873044Y-44380956D01*
X147596238Y-44196000D01*
X147873044Y-44011044D01*
X148205678Y-43513222D01*
X148322484Y-42926000D01*
X148205678Y-42338778D01*
X147873044Y-41840956D01*
X147596238Y-41656000D01*
X147873044Y-41471044D01*
X148205678Y-40973222D01*
X148322484Y-40386000D01*
X148205678Y-39798778D01*
X147873044Y-39300956D01*
X147375222Y-38968322D01*
X146936226Y-38881000D01*
X146179774Y-38881000D01*
X145740778Y-38968322D01*
X145242956Y-39300956D01*
X144910322Y-39798778D01*
X144793516Y-40386000D01*
X144910322Y-40973222D01*
X145242956Y-41471044D01*
X145519762Y-41656000D01*
X145242956Y-41840956D01*
X144910322Y-42338778D01*
X144793516Y-42926000D01*
X144910322Y-43513222D01*
X145242956Y-44011044D01*
X145519762Y-44196000D01*
X145242956Y-44380956D01*
X144910322Y-44878778D01*
X144793516Y-45466000D01*
X144910322Y-46053222D01*
X145242956Y-46551044D01*
X145308122Y-46594587D01*
X145073414Y-46751414D01*
X144878873Y-47042564D01*
X144810560Y-47385999D01*
X144810560Y-48626001D01*
X144878873Y-48969436D01*
X145073414Y-49260586D01*
X145364564Y-49455127D01*
X145707999Y-49523440D01*
X147408001Y-49523440D01*
X147751436Y-49455127D01*
X148042586Y-49260586D01*
X148237127Y-48969436D01*
X148302980Y-48638367D01*
X148302981Y-53216128D01*
X148288092Y-53290980D01*
X148347077Y-53587517D01*
X148468293Y-53768929D01*
X148515052Y-53838909D01*
X148578508Y-53881309D01*
X148836900Y-54139701D01*
X148655145Y-54175854D01*
X148374476Y-54363392D01*
X147487859Y-55250010D01*
X145379937Y-55250010D01*
X145268154Y-55227775D01*
X145156371Y-55250010D01*
X144825299Y-55315864D01*
X144449865Y-55566721D01*
X144386543Y-55661489D01*
X143318940Y-56729093D01*
X143292815Y-56729093D01*
X142859653Y-56815254D01*
X142823000Y-56839745D01*
X142823000Y-37765346D01*
X142858621Y-37800967D01*
X143643323Y-38126001D01*
X144492679Y-38126001D01*
X145277381Y-37800967D01*
X145877967Y-37200381D01*
X146203001Y-36415679D01*
X146203001Y-35566323D01*
X145877967Y-34781621D01*
X145842346Y-34746000D01*
X166423656Y-34746000D01*
X166388035Y-34781621D01*
G36*
X159260001Y-53463199D02*
X155728201Y-56995000D01*
X155490225Y-56995000D01*
X155302000Y-56957560D01*
X154702000Y-56957560D01*
X154681636Y-56961611D01*
X154620389Y-56900364D01*
X154624440Y-56880000D01*
X154624440Y-56857361D01*
X157964473Y-53517329D01*
X158027929Y-53474929D01*
X158195904Y-53223537D01*
X158240000Y-53001852D01*
X158240000Y-53001848D01*
X158248435Y-52959440D01*
X158780000Y-52959440D01*
X158792106Y-52957032D01*
X158829009Y-52957032D01*
X158955318Y-52944592D01*
X159051451Y-52925470D01*
X159172904Y-52888628D01*
X159260001Y-52852552D01*
X159260001Y-53463199D01*
X159260001Y-53463199D01*
G37*
X159260001Y-53463199D02*
X155728201Y-56995000D01*
X155490225Y-56995000D01*
X155302000Y-56957560D01*
X154702000Y-56957560D01*
X154681636Y-56961611D01*
X154620389Y-56900364D01*
X154624440Y-56880000D01*
X154624440Y-56857361D01*
X157964473Y-53517329D01*
X158027929Y-53474929D01*
X158195904Y-53223537D01*
X158240000Y-53001852D01*
X158240000Y-53001848D01*
X158248435Y-52959440D01*
X158780000Y-52959440D01*
X158792106Y-52957032D01*
X158829009Y-52957032D01*
X158955318Y-52944592D01*
X159051451Y-52925470D01*
X159172904Y-52888628D01*
X159260001Y-52852552D01*
X159260001Y-53463199D01*
G36*
X150540586Y-55843388D02*
X150538673Y-55845301D01*
X150442000Y-56078690D01*
X150442000Y-56294250D01*
X150600750Y-56453000D01*
X151079560Y-56453000D01*
X151079560Y-56707000D01*
X150600750Y-56707000D01*
X150442000Y-56865750D01*
X150442000Y-56891975D01*
X150372364Y-56961611D01*
X150352000Y-56957560D01*
X149752000Y-56957560D01*
X149600430Y-56987709D01*
X149520290Y-56907569D01*
X149181071Y-56767060D01*
X149979608Y-55968524D01*
X150167146Y-55687855D01*
X150203299Y-55506101D01*
X150540586Y-55843388D01*
X150540586Y-55843388D01*
G37*
X150540586Y-55843388D02*
X150538673Y-55845301D01*
X150442000Y-56078690D01*
X150442000Y-56294250D01*
X150600750Y-56453000D01*
X151079560Y-56453000D01*
X151079560Y-56707000D01*
X150600750Y-56707000D01*
X150442000Y-56865750D01*
X150442000Y-56891975D01*
X150372364Y-56961611D01*
X150352000Y-56957560D01*
X149752000Y-56957560D01*
X149600430Y-56987709D01*
X149520290Y-56907569D01*
X149181071Y-56767060D01*
X149979608Y-55968524D01*
X150167146Y-55687855D01*
X150203299Y-55506101D01*
X150540586Y-55843388D01*
G04 #@! TD*
M02*
