M48
;DRILL file {KiCad (5.0.1-3-g963ef8bb5)} date 2019 March 13, Wednesday 16:51:02
;FORMAT={-:-/ absolute / inch / decimal}
FMAT,2
INCH,TZ
T1C0.0079
T2C0.0157
T3C0.0394
T4C0.0472
%
G90
G05
M72
T1
X5.9489Y-2.2689
X5.9489Y-2.325
X5.9489Y-2.3811
X6.005Y-2.2689
X6.005Y-2.325
X6.005Y-2.3811
X6.0611Y-2.2689
X6.0611Y-2.325
X6.0611Y-2.3811
T2
X5.77Y-3.265
X5.8269Y-3.5919
X5.83Y-3.055
X5.8635Y-2.275
X5.87Y-2.175
X5.895Y-3.1441
X5.94Y-2.555
X5.945Y-3.09
X5.95Y-1.955
X5.995Y-3.265
X6.0157Y-3.5107
X6.06Y-2.525
X6.23Y-3.435
X6.25Y-2.125
X6.27Y-2.485
X6.32Y-2.975
X6.32Y-3.0768
X6.46Y-3.1284
X6.545Y-3.065
X6.545Y-3.515
T3
X5.6472Y-2.2919
X5.6472Y-2.3919
X5.6472Y-2.4919
X5.6472Y-2.5919
X5.6472Y-2.6919
X5.6472Y-2.7919
X5.6472Y-2.8919
X5.6472Y-2.9919
X5.6472Y-3.0919
X5.6472Y-3.1919
X5.6472Y-3.2919
X5.6472Y-3.3919
X5.6472Y-3.4919
X5.6472Y-3.5919
X5.6472Y-3.6919
X5.6472Y-3.7919
X5.6472Y-3.8919
X5.6472Y-3.9919
X5.6472Y-4.0919
X5.6472Y-4.1919
X6.6472Y-2.2919
X6.6472Y-2.3919
X6.6472Y-2.4919
X6.6472Y-2.5919
X6.6472Y-2.6919
X6.6472Y-2.7919
X6.6472Y-2.8919
X6.6472Y-2.9919
X6.6472Y-3.0919
X6.6472Y-3.1919
X6.6472Y-3.2919
X6.6472Y-3.3919
X6.6472Y-3.4919
X6.6472Y-3.5919
X6.6472Y-3.6919
X6.6472Y-3.7919
X6.6472Y-3.8919
X6.6472Y-3.9919
X6.6472Y-4.0919
X6.6472Y-4.1919
T4
X6.395Y-3.89
X6.495Y-3.89
X6.245Y-4.54
X6.345Y-4.54
X6.445Y-4.54
X5.77Y-1.59
X5.77Y-1.69
X5.77Y-1.79
X5.77Y-1.89
X6.245Y-4.24
X6.345Y-4.24
X6.445Y-4.24
X6.445Y-2.59
X6.445Y-2.69
X6.495Y-1.59
X6.495Y-1.69
X6.495Y-1.79
X6.495Y-1.89
X6.145Y-1.59
X6.145Y-1.69
X6.145Y-1.79
X6.145Y-1.89
X5.87Y-4.24
X5.97Y-4.24
X6.07Y-4.24
X5.87Y-4.54
X5.97Y-4.54
X6.07Y-4.54
T0
M30
