G04 #@! TF.GenerationSoftware,KiCad,Pcbnew,(5.0.1-3-g963ef8bb5)*
G04 #@! TF.CreationDate,2020-07-04T09:07:15+03:00*
G04 #@! TF.ProjectId,sagitta-shield,736167697474612D736869656C642E6B,rev?*
G04 #@! TF.SameCoordinates,Original*
G04 #@! TF.FileFunction,Legend,Top*
G04 #@! TF.FilePolarity,Positive*
%FSLAX46Y46*%
G04 Gerber Fmt 4.6, Leading zero omitted, Abs format (unit mm)*
G04 Created by KiCad (PCBNEW (5.0.1-3-g963ef8bb5)) date 2020 July 04, Saturday 09:07:15*
%MOMM*%
%LPD*%
G01*
G04 APERTURE LIST*
%ADD10C,0.150000*%
%ADD11C,0.300000*%
%ADD12C,0.100000*%
%ADD13C,0.250000*%
%ADD14C,0.010000*%
%ADD15C,0.120000*%
G04 APERTURE END LIST*
D10*
X129533666Y-109344666D02*
X129200333Y-109344666D01*
X129167000Y-109678000D01*
X129200333Y-109644666D01*
X129267000Y-109611333D01*
X129433666Y-109611333D01*
X129500333Y-109644666D01*
X129533666Y-109678000D01*
X129567000Y-109744666D01*
X129567000Y-109911333D01*
X129533666Y-109978000D01*
X129500333Y-110011333D01*
X129433666Y-110044666D01*
X129267000Y-110044666D01*
X129200333Y-110011333D01*
X129167000Y-109978000D01*
X129767000Y-109344666D02*
X130000333Y-110044666D01*
X130233666Y-109344666D01*
X128479666Y-108074666D02*
X128713000Y-108774666D01*
X128946333Y-108074666D01*
X129179666Y-108774666D02*
X129179666Y-108074666D01*
X129346333Y-108074666D01*
X129446333Y-108108000D01*
X129513000Y-108174666D01*
X129546333Y-108241333D01*
X129579666Y-108374666D01*
X129579666Y-108474666D01*
X129546333Y-108608000D01*
X129513000Y-108674666D01*
X129446333Y-108741333D01*
X129346333Y-108774666D01*
X129179666Y-108774666D01*
X129879666Y-108774666D02*
X129879666Y-108074666D01*
X130046333Y-108074666D01*
X130146333Y-108108000D01*
X130213000Y-108174666D01*
X130246333Y-108241333D01*
X130279666Y-108374666D01*
X130279666Y-108474666D01*
X130246333Y-108608000D01*
X130213000Y-108674666D01*
X130146333Y-108741333D01*
X130046333Y-108774666D01*
X129879666Y-108774666D01*
X128879666Y-106711000D02*
X128813000Y-106677666D01*
X128713000Y-106677666D01*
X128613000Y-106711000D01*
X128546333Y-106777666D01*
X128513000Y-106844333D01*
X128479666Y-106977666D01*
X128479666Y-107077666D01*
X128513000Y-107211000D01*
X128546333Y-107277666D01*
X128613000Y-107344333D01*
X128713000Y-107377666D01*
X128779666Y-107377666D01*
X128879666Y-107344333D01*
X128913000Y-107311000D01*
X128913000Y-107077666D01*
X128779666Y-107077666D01*
X129213000Y-107377666D02*
X129213000Y-106677666D01*
X129613000Y-107377666D01*
X129613000Y-106677666D01*
X129946333Y-107377666D02*
X129946333Y-106677666D01*
X130113000Y-106677666D01*
X130213000Y-106711000D01*
X130279666Y-106777666D01*
X130313000Y-106844333D01*
X130346333Y-106977666D01*
X130346333Y-107077666D01*
X130313000Y-107211000D01*
X130279666Y-107277666D01*
X130213000Y-107344333D01*
X130113000Y-107377666D01*
X129946333Y-107377666D01*
X124053666Y-106711000D02*
X123987000Y-106677666D01*
X123887000Y-106677666D01*
X123787000Y-106711000D01*
X123720333Y-106777666D01*
X123687000Y-106844333D01*
X123653666Y-106977666D01*
X123653666Y-107077666D01*
X123687000Y-107211000D01*
X123720333Y-107277666D01*
X123787000Y-107344333D01*
X123887000Y-107377666D01*
X123953666Y-107377666D01*
X124053666Y-107344333D01*
X124087000Y-107311000D01*
X124087000Y-107077666D01*
X123953666Y-107077666D01*
X124387000Y-107377666D02*
X124387000Y-106677666D01*
X124787000Y-107377666D01*
X124787000Y-106677666D01*
X125120333Y-107377666D02*
X125120333Y-106677666D01*
X125287000Y-106677666D01*
X125387000Y-106711000D01*
X125453666Y-106777666D01*
X125487000Y-106844333D01*
X125520333Y-106977666D01*
X125520333Y-107077666D01*
X125487000Y-107211000D01*
X125453666Y-107277666D01*
X125387000Y-107344333D01*
X125287000Y-107377666D01*
X125120333Y-107377666D01*
X123720333Y-108074666D02*
X124153666Y-108074666D01*
X123920333Y-108341333D01*
X124020333Y-108341333D01*
X124087000Y-108374666D01*
X124120333Y-108408000D01*
X124153666Y-108474666D01*
X124153666Y-108641333D01*
X124120333Y-108708000D01*
X124087000Y-108741333D01*
X124020333Y-108774666D01*
X123820333Y-108774666D01*
X123753666Y-108741333D01*
X123720333Y-108708000D01*
X124353666Y-108074666D02*
X124587000Y-108774666D01*
X124820333Y-108074666D01*
X124987000Y-108074666D02*
X125420333Y-108074666D01*
X125187000Y-108341333D01*
X125287000Y-108341333D01*
X125353666Y-108374666D01*
X125387000Y-108408000D01*
X125420333Y-108474666D01*
X125420333Y-108641333D01*
X125387000Y-108708000D01*
X125353666Y-108741333D01*
X125287000Y-108774666D01*
X125087000Y-108774666D01*
X125020333Y-108741333D01*
X124987000Y-108708000D01*
X124072666Y-109344666D02*
X123739333Y-109344666D01*
X123706000Y-109678000D01*
X123739333Y-109644666D01*
X123806000Y-109611333D01*
X123972666Y-109611333D01*
X124039333Y-109644666D01*
X124072666Y-109678000D01*
X124106000Y-109744666D01*
X124106000Y-109911333D01*
X124072666Y-109978000D01*
X124039333Y-110011333D01*
X123972666Y-110044666D01*
X123806000Y-110044666D01*
X123739333Y-110011333D01*
X123706000Y-109978000D01*
X124306000Y-109344666D02*
X124539333Y-110044666D01*
X124772666Y-109344666D01*
X122301000Y-119253000D02*
X120396000Y-123063000D01*
X121285000Y-123444000D02*
X122301000Y-121158000D01*
X122301000Y-121158000D02*
X123317000Y-123444000D01*
X123317000Y-123444000D02*
X124206000Y-123063000D01*
X124206000Y-123063000D02*
X122301000Y-119253000D01*
X124333000Y-123825000D02*
G75*
G02X120269000Y-123825000I-2032000J0D01*
G01*
X123317000Y-123825000D02*
G75*
G02X121285000Y-123825000I-1016000J0D01*
G01*
X123317000Y-123825000D02*
X124333000Y-123825000D01*
G36*
X120396000Y-123063000D02*
X121285000Y-123444000D01*
X122301000Y-121158000D01*
X123317000Y-123444000D01*
X124206000Y-123063000D01*
X122301000Y-119253000D01*
X120396000Y-123063000D01*
G37*
X120396000Y-123063000D02*
X121285000Y-123444000D01*
X122301000Y-121158000D01*
X123317000Y-123444000D01*
X124206000Y-123063000D01*
X122301000Y-119253000D01*
X120396000Y-123063000D01*
G36*
X120307100Y-123875800D02*
X121246900Y-123850400D01*
X121399300Y-124333000D01*
X121805700Y-124764800D01*
X122301000Y-124891800D01*
X122923300Y-124714000D01*
X123215400Y-124294900D01*
X123342400Y-123863100D01*
X124333000Y-123850400D01*
X124104400Y-124777500D01*
X123469400Y-125488700D01*
X122732800Y-125806200D01*
X121856500Y-125793500D01*
X120992900Y-125387100D01*
X120408700Y-124561600D01*
X120294400Y-123964700D01*
X120307100Y-123875800D01*
G37*
X120307100Y-123875800D02*
X121246900Y-123850400D01*
X121399300Y-124333000D01*
X121805700Y-124764800D01*
X122301000Y-124891800D01*
X122923300Y-124714000D01*
X123215400Y-124294900D01*
X123342400Y-123863100D01*
X124333000Y-123850400D01*
X124104400Y-124777500D01*
X123469400Y-125488700D01*
X122732800Y-125806200D01*
X121856500Y-125793500D01*
X120992900Y-125387100D01*
X120408700Y-124561600D01*
X120294400Y-123964700D01*
X120307100Y-123875800D01*
D11*
X124762238Y-121586523D02*
X125047952Y-121681761D01*
X125524142Y-121681761D01*
X125714619Y-121586523D01*
X125809857Y-121491285D01*
X125905095Y-121300809D01*
X125905095Y-121110333D01*
X125809857Y-120919857D01*
X125714619Y-120824619D01*
X125524142Y-120729380D01*
X125143190Y-120634142D01*
X124952714Y-120538904D01*
X124857476Y-120443666D01*
X124762238Y-120253190D01*
X124762238Y-120062714D01*
X124857476Y-119872238D01*
X124952714Y-119777000D01*
X125143190Y-119681761D01*
X125619380Y-119681761D01*
X125905095Y-119777000D01*
X127619380Y-121681761D02*
X127619380Y-120634142D01*
X127524142Y-120443666D01*
X127333666Y-120348428D01*
X126952714Y-120348428D01*
X126762238Y-120443666D01*
X127619380Y-121586523D02*
X127428904Y-121681761D01*
X126952714Y-121681761D01*
X126762238Y-121586523D01*
X126667000Y-121396047D01*
X126667000Y-121205571D01*
X126762238Y-121015095D01*
X126952714Y-120919857D01*
X127428904Y-120919857D01*
X127619380Y-120824619D01*
X129428904Y-120348428D02*
X129428904Y-121967476D01*
X129333666Y-122157952D01*
X129238428Y-122253190D01*
X129047952Y-122348428D01*
X128762238Y-122348428D01*
X128571761Y-122253190D01*
X129428904Y-121586523D02*
X129238428Y-121681761D01*
X128857476Y-121681761D01*
X128667000Y-121586523D01*
X128571761Y-121491285D01*
X128476523Y-121300809D01*
X128476523Y-120729380D01*
X128571761Y-120538904D01*
X128667000Y-120443666D01*
X128857476Y-120348428D01*
X129238428Y-120348428D01*
X129428904Y-120443666D01*
X130381285Y-121681761D02*
X130381285Y-120348428D01*
X130381285Y-119681761D02*
X130286047Y-119777000D01*
X130381285Y-119872238D01*
X130476523Y-119777000D01*
X130381285Y-119681761D01*
X130381285Y-119872238D01*
X131047952Y-120348428D02*
X131809857Y-120348428D01*
X131333666Y-119681761D02*
X131333666Y-121396047D01*
X131428904Y-121586523D01*
X131619380Y-121681761D01*
X131809857Y-121681761D01*
X132190809Y-120348428D02*
X132952714Y-120348428D01*
X132476523Y-119681761D02*
X132476523Y-121396047D01*
X132571761Y-121586523D01*
X132762238Y-121681761D01*
X132952714Y-121681761D01*
X134476523Y-121681761D02*
X134476523Y-120634142D01*
X134381285Y-120443666D01*
X134190809Y-120348428D01*
X133809857Y-120348428D01*
X133619380Y-120443666D01*
X134476523Y-121586523D02*
X134286047Y-121681761D01*
X133809857Y-121681761D01*
X133619380Y-121586523D01*
X133524142Y-121396047D01*
X133524142Y-121205571D01*
X133619380Y-121015095D01*
X133809857Y-120919857D01*
X134286047Y-120919857D01*
X134476523Y-120824619D01*
D12*
X124794857Y-123157571D02*
X124902000Y-123193285D01*
X125080571Y-123193285D01*
X125152000Y-123157571D01*
X125187714Y-123121857D01*
X125223428Y-123050428D01*
X125223428Y-122979000D01*
X125187714Y-122907571D01*
X125152000Y-122871857D01*
X125080571Y-122836142D01*
X124937714Y-122800428D01*
X124866285Y-122764714D01*
X124830571Y-122729000D01*
X124794857Y-122657571D01*
X124794857Y-122586142D01*
X124830571Y-122514714D01*
X124866285Y-122479000D01*
X124937714Y-122443285D01*
X125116285Y-122443285D01*
X125223428Y-122479000D01*
X125652000Y-123193285D02*
X125580571Y-123157571D01*
X125544857Y-123121857D01*
X125509142Y-123050428D01*
X125509142Y-122836142D01*
X125544857Y-122764714D01*
X125580571Y-122729000D01*
X125652000Y-122693285D01*
X125759142Y-122693285D01*
X125830571Y-122729000D01*
X125866285Y-122764714D01*
X125902000Y-122836142D01*
X125902000Y-123050428D01*
X125866285Y-123121857D01*
X125830571Y-123157571D01*
X125759142Y-123193285D01*
X125652000Y-123193285D01*
X126544857Y-123157571D02*
X126473428Y-123193285D01*
X126330571Y-123193285D01*
X126259142Y-123157571D01*
X126223428Y-123121857D01*
X126187714Y-123050428D01*
X126187714Y-122836142D01*
X126223428Y-122764714D01*
X126259142Y-122729000D01*
X126330571Y-122693285D01*
X126473428Y-122693285D01*
X126544857Y-122729000D01*
X126866285Y-123193285D02*
X126866285Y-122693285D01*
X126866285Y-122443285D02*
X126830571Y-122479000D01*
X126866285Y-122514714D01*
X126902000Y-122479000D01*
X126866285Y-122443285D01*
X126866285Y-122514714D01*
X127544857Y-123193285D02*
X127544857Y-122800428D01*
X127509142Y-122729000D01*
X127437714Y-122693285D01*
X127294857Y-122693285D01*
X127223428Y-122729000D01*
X127544857Y-123157571D02*
X127473428Y-123193285D01*
X127294857Y-123193285D01*
X127223428Y-123157571D01*
X127187714Y-123086142D01*
X127187714Y-123014714D01*
X127223428Y-122943285D01*
X127294857Y-122907571D01*
X127473428Y-122907571D01*
X127544857Y-122871857D01*
X128009142Y-123193285D02*
X127937714Y-123157571D01*
X127902000Y-123086142D01*
X127902000Y-122443285D01*
X128830571Y-122979000D02*
X129187714Y-122979000D01*
X128759142Y-123193285D02*
X129009142Y-122443285D01*
X129259142Y-123193285D01*
X129830571Y-122693285D02*
X129830571Y-123300428D01*
X129794857Y-123371857D01*
X129759142Y-123407571D01*
X129687714Y-123443285D01*
X129580571Y-123443285D01*
X129509142Y-123407571D01*
X129830571Y-123157571D02*
X129759142Y-123193285D01*
X129616285Y-123193285D01*
X129544857Y-123157571D01*
X129509142Y-123121857D01*
X129473428Y-123050428D01*
X129473428Y-122836142D01*
X129509142Y-122764714D01*
X129544857Y-122729000D01*
X129616285Y-122693285D01*
X129759142Y-122693285D01*
X129830571Y-122729000D01*
X130187714Y-123193285D02*
X130187714Y-122693285D01*
X130187714Y-122443285D02*
X130152000Y-122479000D01*
X130187714Y-122514714D01*
X130223428Y-122479000D01*
X130187714Y-122443285D01*
X130187714Y-122514714D01*
X130437714Y-122693285D02*
X130723428Y-122693285D01*
X130544857Y-122443285D02*
X130544857Y-123086142D01*
X130580571Y-123157571D01*
X130652000Y-123193285D01*
X130723428Y-123193285D01*
X131294857Y-123193285D02*
X131294857Y-122800428D01*
X131259142Y-122729000D01*
X131187714Y-122693285D01*
X131044857Y-122693285D01*
X130973428Y-122729000D01*
X131294857Y-123157571D02*
X131223428Y-123193285D01*
X131044857Y-123193285D01*
X130973428Y-123157571D01*
X130937714Y-123086142D01*
X130937714Y-123014714D01*
X130973428Y-122943285D01*
X131044857Y-122907571D01*
X131223428Y-122907571D01*
X131294857Y-122871857D01*
X131544857Y-122693285D02*
X131830571Y-122693285D01*
X131652000Y-122443285D02*
X131652000Y-123086142D01*
X131687714Y-123157571D01*
X131759142Y-123193285D01*
X131830571Y-123193285D01*
X132080571Y-123193285D02*
X132080571Y-122693285D01*
X132080571Y-122443285D02*
X132044857Y-122479000D01*
X132080571Y-122514714D01*
X132116285Y-122479000D01*
X132080571Y-122443285D01*
X132080571Y-122514714D01*
X132544857Y-123193285D02*
X132473428Y-123157571D01*
X132437714Y-123121857D01*
X132402000Y-123050428D01*
X132402000Y-122836142D01*
X132437714Y-122764714D01*
X132473428Y-122729000D01*
X132544857Y-122693285D01*
X132652000Y-122693285D01*
X132723428Y-122729000D01*
X132759142Y-122764714D01*
X132794857Y-122836142D01*
X132794857Y-123050428D01*
X132759142Y-123121857D01*
X132723428Y-123157571D01*
X132652000Y-123193285D01*
X132544857Y-123193285D01*
X133116285Y-122693285D02*
X133116285Y-123193285D01*
X133116285Y-122764714D02*
X133152000Y-122729000D01*
X133223428Y-122693285D01*
X133330571Y-122693285D01*
X133402000Y-122729000D01*
X133437714Y-122800428D01*
X133437714Y-123193285D01*
X124723428Y-123918285D02*
X125009142Y-123918285D01*
X124830571Y-124418285D02*
X124830571Y-123775428D01*
X124866285Y-123704000D01*
X124937714Y-123668285D01*
X125009142Y-123668285D01*
X125366285Y-124418285D02*
X125294857Y-124382571D01*
X125259142Y-124346857D01*
X125223428Y-124275428D01*
X125223428Y-124061142D01*
X125259142Y-123989714D01*
X125294857Y-123954000D01*
X125366285Y-123918285D01*
X125473428Y-123918285D01*
X125544857Y-123954000D01*
X125580571Y-123989714D01*
X125616285Y-124061142D01*
X125616285Y-124275428D01*
X125580571Y-124346857D01*
X125544857Y-124382571D01*
X125473428Y-124418285D01*
X125366285Y-124418285D01*
X125937714Y-124418285D02*
X125937714Y-123918285D01*
X125937714Y-124061142D02*
X125973428Y-123989714D01*
X126009142Y-123954000D01*
X126080571Y-123918285D01*
X126152000Y-123918285D01*
X126866285Y-123668285D02*
X127294857Y-123668285D01*
X127080571Y-124418285D02*
X127080571Y-123668285D01*
X127830571Y-124382571D02*
X127759142Y-124418285D01*
X127616285Y-124418285D01*
X127544857Y-124382571D01*
X127509142Y-124311142D01*
X127509142Y-124025428D01*
X127544857Y-123954000D01*
X127616285Y-123918285D01*
X127759142Y-123918285D01*
X127830571Y-123954000D01*
X127866285Y-124025428D01*
X127866285Y-124096857D01*
X127509142Y-124168285D01*
X128187714Y-124418285D02*
X128187714Y-123918285D01*
X128187714Y-123989714D02*
X128223428Y-123954000D01*
X128294857Y-123918285D01*
X128402000Y-123918285D01*
X128473428Y-123954000D01*
X128509142Y-124025428D01*
X128509142Y-124418285D01*
X128509142Y-124025428D02*
X128544857Y-123954000D01*
X128616285Y-123918285D01*
X128723428Y-123918285D01*
X128794857Y-123954000D01*
X128830571Y-124025428D01*
X128830571Y-124418285D01*
X129187714Y-123918285D02*
X129187714Y-124668285D01*
X129187714Y-123954000D02*
X129259142Y-123918285D01*
X129402000Y-123918285D01*
X129473428Y-123954000D01*
X129509142Y-123989714D01*
X129544857Y-124061142D01*
X129544857Y-124275428D01*
X129509142Y-124346857D01*
X129473428Y-124382571D01*
X129402000Y-124418285D01*
X129259142Y-124418285D01*
X129187714Y-124382571D01*
X130152000Y-124382571D02*
X130080571Y-124418285D01*
X129937714Y-124418285D01*
X129866285Y-124382571D01*
X129830571Y-124311142D01*
X129830571Y-124025428D01*
X129866285Y-123954000D01*
X129937714Y-123918285D01*
X130080571Y-123918285D01*
X130152000Y-123954000D01*
X130187714Y-124025428D01*
X130187714Y-124096857D01*
X129830571Y-124168285D01*
X130509142Y-124418285D02*
X130509142Y-123918285D01*
X130509142Y-124061142D02*
X130544857Y-123989714D01*
X130580571Y-123954000D01*
X130652000Y-123918285D01*
X130723428Y-123918285D01*
X131294857Y-124418285D02*
X131294857Y-124025428D01*
X131259142Y-123954000D01*
X131187714Y-123918285D01*
X131044857Y-123918285D01*
X130973428Y-123954000D01*
X131294857Y-124382571D02*
X131223428Y-124418285D01*
X131044857Y-124418285D01*
X130973428Y-124382571D01*
X130937714Y-124311142D01*
X130937714Y-124239714D01*
X130973428Y-124168285D01*
X131044857Y-124132571D01*
X131223428Y-124132571D01*
X131294857Y-124096857D01*
X131544857Y-123918285D02*
X131830571Y-123918285D01*
X131652000Y-123668285D02*
X131652000Y-124311142D01*
X131687714Y-124382571D01*
X131759142Y-124418285D01*
X131830571Y-124418285D01*
X132402000Y-123918285D02*
X132402000Y-124418285D01*
X132080571Y-123918285D02*
X132080571Y-124311142D01*
X132116285Y-124382571D01*
X132187714Y-124418285D01*
X132294857Y-124418285D01*
X132366285Y-124382571D01*
X132402000Y-124346857D01*
X132759142Y-124418285D02*
X132759142Y-123918285D01*
X132759142Y-124061142D02*
X132794857Y-123989714D01*
X132830571Y-123954000D01*
X132902000Y-123918285D01*
X132973428Y-123918285D01*
X133509142Y-124382571D02*
X133437714Y-124418285D01*
X133294857Y-124418285D01*
X133223428Y-124382571D01*
X133187714Y-124311142D01*
X133187714Y-124025428D01*
X133223428Y-123954000D01*
X133294857Y-123918285D01*
X133437714Y-123918285D01*
X133509142Y-123954000D01*
X133544857Y-124025428D01*
X133544857Y-124096857D01*
X133187714Y-124168285D01*
X124794857Y-125429000D02*
X125152000Y-125429000D01*
X124723428Y-125643285D02*
X124973428Y-124893285D01*
X125223428Y-125643285D01*
X125473428Y-125143285D02*
X125473428Y-125643285D01*
X125473428Y-125214714D02*
X125509142Y-125179000D01*
X125580571Y-125143285D01*
X125687714Y-125143285D01*
X125759142Y-125179000D01*
X125794857Y-125250428D01*
X125794857Y-125643285D01*
X126473428Y-125643285D02*
X126473428Y-125250428D01*
X126437714Y-125179000D01*
X126366285Y-125143285D01*
X126223428Y-125143285D01*
X126152000Y-125179000D01*
X126473428Y-125607571D02*
X126402000Y-125643285D01*
X126223428Y-125643285D01*
X126152000Y-125607571D01*
X126116285Y-125536142D01*
X126116285Y-125464714D01*
X126152000Y-125393285D01*
X126223428Y-125357571D01*
X126402000Y-125357571D01*
X126473428Y-125321857D01*
X126937714Y-125643285D02*
X126866285Y-125607571D01*
X126830571Y-125536142D01*
X126830571Y-124893285D01*
X127223428Y-125643285D02*
X127223428Y-125143285D01*
X127223428Y-124893285D02*
X127187714Y-124929000D01*
X127223428Y-124964714D01*
X127259142Y-124929000D01*
X127223428Y-124893285D01*
X127223428Y-124964714D01*
X127544857Y-125607571D02*
X127616285Y-125643285D01*
X127759142Y-125643285D01*
X127830571Y-125607571D01*
X127866285Y-125536142D01*
X127866285Y-125500428D01*
X127830571Y-125429000D01*
X127759142Y-125393285D01*
X127652000Y-125393285D01*
X127580571Y-125357571D01*
X127544857Y-125286142D01*
X127544857Y-125250428D01*
X127580571Y-125179000D01*
X127652000Y-125143285D01*
X127759142Y-125143285D01*
X127830571Y-125179000D01*
X128116285Y-125143285D02*
X128294857Y-125643285D01*
X128473428Y-125143285D02*
X128294857Y-125643285D01*
X128223428Y-125821857D01*
X128187714Y-125857571D01*
X128116285Y-125893285D01*
X128723428Y-125607571D02*
X128794857Y-125643285D01*
X128937714Y-125643285D01*
X129009142Y-125607571D01*
X129044857Y-125536142D01*
X129044857Y-125500428D01*
X129009142Y-125429000D01*
X128937714Y-125393285D01*
X128830571Y-125393285D01*
X128759142Y-125357571D01*
X128723428Y-125286142D01*
X128723428Y-125250428D01*
X128759142Y-125179000D01*
X128830571Y-125143285D01*
X128937714Y-125143285D01*
X129009142Y-125179000D01*
D13*
G04 #@! TO.C,JM1*
X142108200Y-132358092D02*
X139648070Y-132358092D01*
X139648070Y-132358092D02*
X139648070Y-81558092D01*
X139648070Y-81558092D02*
X142118200Y-81558092D01*
X115513070Y-81533092D02*
X115513070Y-131698092D01*
X115513070Y-131698092D02*
X114878070Y-132333092D01*
X114878070Y-132333092D02*
X113018200Y-132333092D01*
X113018200Y-81533092D02*
X115513070Y-81533092D01*
X118567000Y-104135000D02*
X118567000Y-74135000D01*
X118567000Y-74135000D02*
X136567000Y-74135000D01*
X136567000Y-74135000D02*
X136567000Y-104135000D01*
X136567000Y-104135000D02*
X118567000Y-104135000D01*
D14*
G04 #@! TO.C,openhardwarelogo1*
G36*
X129916964Y-98001018D02*
X129973812Y-98302570D01*
X130393338Y-98475512D01*
X130644984Y-98304395D01*
X130715458Y-98256750D01*
X130779163Y-98214210D01*
X130833126Y-98178715D01*
X130874373Y-98152210D01*
X130899934Y-98136636D01*
X130906895Y-98133278D01*
X130919435Y-98141914D01*
X130946231Y-98165792D01*
X130984280Y-98201859D01*
X131030579Y-98247067D01*
X131082123Y-98298364D01*
X131135909Y-98352701D01*
X131188935Y-98407028D01*
X131238195Y-98458295D01*
X131280687Y-98503451D01*
X131313407Y-98539446D01*
X131333351Y-98563230D01*
X131338119Y-98571190D01*
X131331257Y-98585865D01*
X131312020Y-98618014D01*
X131282430Y-98664492D01*
X131244510Y-98722156D01*
X131200282Y-98787860D01*
X131174654Y-98825336D01*
X131127941Y-98893768D01*
X131086432Y-98955520D01*
X131052140Y-99007519D01*
X131027080Y-99046692D01*
X131013264Y-99069965D01*
X131011188Y-99074855D01*
X131015895Y-99088755D01*
X131028723Y-99121150D01*
X131047738Y-99167485D01*
X131071003Y-99223206D01*
X131096584Y-99283758D01*
X131122545Y-99344586D01*
X131146950Y-99401136D01*
X131167863Y-99448852D01*
X131183349Y-99483181D01*
X131191472Y-99499568D01*
X131191952Y-99500212D01*
X131204707Y-99503341D01*
X131238677Y-99510321D01*
X131290340Y-99520467D01*
X131356176Y-99533092D01*
X131432664Y-99547509D01*
X131477290Y-99555823D01*
X131559021Y-99571384D01*
X131632843Y-99586192D01*
X131695021Y-99599436D01*
X131741822Y-99610305D01*
X131769509Y-99617989D01*
X131775074Y-99620427D01*
X131780526Y-99636930D01*
X131784924Y-99674200D01*
X131788272Y-99727880D01*
X131790574Y-99793612D01*
X131791832Y-99867037D01*
X131792048Y-99943796D01*
X131791227Y-100019532D01*
X131789371Y-100089886D01*
X131786482Y-100150500D01*
X131782565Y-100197016D01*
X131777622Y-100225075D01*
X131774657Y-100230916D01*
X131756934Y-100237917D01*
X131719381Y-100247927D01*
X131666964Y-100259769D01*
X131604652Y-100272267D01*
X131582900Y-100276310D01*
X131478024Y-100295520D01*
X131395180Y-100310991D01*
X131331630Y-100323337D01*
X131284637Y-100333173D01*
X131251463Y-100341114D01*
X131229371Y-100347776D01*
X131215624Y-100353773D01*
X131207484Y-100359719D01*
X131206345Y-100360894D01*
X131194977Y-100379826D01*
X131177635Y-100416669D01*
X131156050Y-100466913D01*
X131131954Y-100526046D01*
X131107079Y-100589556D01*
X131083157Y-100652932D01*
X131061919Y-100711662D01*
X131045097Y-100761235D01*
X131034422Y-100797139D01*
X131031627Y-100814862D01*
X131031860Y-100815483D01*
X131041331Y-100829970D01*
X131062818Y-100861844D01*
X131094063Y-100907789D01*
X131132807Y-100964485D01*
X131176793Y-101028617D01*
X131189319Y-101046842D01*
X131233984Y-101112914D01*
X131273288Y-101173200D01*
X131305088Y-101224235D01*
X131327245Y-101262560D01*
X131337617Y-101284711D01*
X131338119Y-101287432D01*
X131329405Y-101301736D01*
X131305325Y-101330072D01*
X131268976Y-101369396D01*
X131223453Y-101416661D01*
X131171852Y-101468823D01*
X131117267Y-101522835D01*
X131062794Y-101575653D01*
X131011529Y-101624231D01*
X130966567Y-101665523D01*
X130931004Y-101696485D01*
X130907935Y-101714070D01*
X130901554Y-101716941D01*
X130886699Y-101710178D01*
X130856286Y-101691939D01*
X130815268Y-101665297D01*
X130783709Y-101643852D01*
X130726525Y-101604503D01*
X130658806Y-101558171D01*
X130590880Y-101511913D01*
X130554361Y-101487155D01*
X130430752Y-101403547D01*
X130326991Y-101459650D01*
X130279720Y-101484228D01*
X130239523Y-101503331D01*
X130212326Y-101514227D01*
X130205402Y-101515743D01*
X130197077Y-101504549D01*
X130180654Y-101472917D01*
X130157357Y-101423765D01*
X130128414Y-101360010D01*
X130095050Y-101284571D01*
X130058491Y-101200364D01*
X130019964Y-101110308D01*
X129980694Y-101017321D01*
X129941908Y-100924320D01*
X129904830Y-100834223D01*
X129870689Y-100749948D01*
X129840708Y-100674413D01*
X129816116Y-100610534D01*
X129798136Y-100561231D01*
X129787997Y-100529421D01*
X129786366Y-100518496D01*
X129799291Y-100504561D01*
X129827589Y-100481940D01*
X129865346Y-100455333D01*
X129868515Y-100453228D01*
X129966100Y-100375114D01*
X130044786Y-100283982D01*
X130103891Y-100182745D01*
X130142732Y-100074318D01*
X130160628Y-99961614D01*
X130156897Y-99847548D01*
X130130857Y-99735034D01*
X130081825Y-99626985D01*
X130067400Y-99603345D01*
X129992369Y-99507887D01*
X129903730Y-99431232D01*
X129804549Y-99373780D01*
X129697895Y-99335929D01*
X129586836Y-99318078D01*
X129474439Y-99320625D01*
X129363773Y-99343970D01*
X129257906Y-99388510D01*
X129159905Y-99454645D01*
X129129590Y-99481487D01*
X129052438Y-99565512D01*
X128996218Y-99653966D01*
X128957653Y-99753115D01*
X128936174Y-99851303D01*
X128930872Y-99961697D01*
X128948552Y-100072640D01*
X128987419Y-100180381D01*
X129045677Y-100281169D01*
X129121531Y-100371256D01*
X129213183Y-100446892D01*
X129225228Y-100454864D01*
X129263389Y-100480974D01*
X129292399Y-100503595D01*
X129306268Y-100518039D01*
X129306469Y-100518496D01*
X129303492Y-100534121D01*
X129291689Y-100569582D01*
X129272286Y-100621962D01*
X129246512Y-100688345D01*
X129215591Y-100765814D01*
X129180751Y-100851450D01*
X129143217Y-100942337D01*
X129104217Y-101035559D01*
X129064977Y-101128197D01*
X129026724Y-101217335D01*
X128990683Y-101300055D01*
X128958083Y-101373441D01*
X128930148Y-101434575D01*
X128908105Y-101480541D01*
X128893182Y-101508421D01*
X128887172Y-101515743D01*
X128868809Y-101510041D01*
X128834448Y-101494749D01*
X128790016Y-101472599D01*
X128765583Y-101459650D01*
X128661822Y-101403547D01*
X128538213Y-101487155D01*
X128475114Y-101529987D01*
X128406030Y-101577122D01*
X128341293Y-101621503D01*
X128308866Y-101643852D01*
X128263259Y-101674477D01*
X128224640Y-101698747D01*
X128198048Y-101713587D01*
X128189410Y-101716724D01*
X128176839Y-101708261D01*
X128149016Y-101684636D01*
X128108639Y-101648302D01*
X128058405Y-101601711D01*
X128001012Y-101547317D01*
X127964714Y-101512392D01*
X127901210Y-101449996D01*
X127846327Y-101394188D01*
X127802286Y-101347354D01*
X127771305Y-101311882D01*
X127755602Y-101290161D01*
X127754095Y-101285752D01*
X127761086Y-101268985D01*
X127780406Y-101235082D01*
X127809909Y-101187476D01*
X127847455Y-101129599D01*
X127890900Y-101064884D01*
X127903255Y-101046842D01*
X127948273Y-100981267D01*
X127988660Y-100922228D01*
X128022160Y-100873042D01*
X128046514Y-100837028D01*
X128059464Y-100817502D01*
X128060715Y-100815483D01*
X128058844Y-100799922D01*
X128048913Y-100765709D01*
X128032653Y-100717355D01*
X128011795Y-100659371D01*
X127988073Y-100596270D01*
X127963216Y-100532563D01*
X127938958Y-100472761D01*
X127917029Y-100421376D01*
X127899162Y-100382919D01*
X127887087Y-100361902D01*
X127886229Y-100360894D01*
X127878846Y-100354888D01*
X127866375Y-100348948D01*
X127846080Y-100342460D01*
X127815222Y-100334809D01*
X127771066Y-100325380D01*
X127710874Y-100313559D01*
X127631907Y-100298729D01*
X127531430Y-100280277D01*
X127509675Y-100276310D01*
X127445198Y-100263853D01*
X127388989Y-100251666D01*
X127346013Y-100240926D01*
X127321240Y-100232809D01*
X127317918Y-100230916D01*
X127312444Y-100214138D01*
X127307994Y-100176645D01*
X127304572Y-100122794D01*
X127302181Y-100056944D01*
X127300823Y-99983453D01*
X127300501Y-99906680D01*
X127301219Y-99830983D01*
X127302979Y-99760720D01*
X127305784Y-99700250D01*
X127309638Y-99653930D01*
X127314543Y-99626119D01*
X127317500Y-99620427D01*
X127333963Y-99614686D01*
X127371449Y-99605345D01*
X127426225Y-99593215D01*
X127494555Y-99579107D01*
X127572706Y-99563830D01*
X127615284Y-99555823D01*
X127696071Y-99540721D01*
X127768113Y-99527040D01*
X127827889Y-99515467D01*
X127871879Y-99506687D01*
X127896561Y-99501387D01*
X127900623Y-99500212D01*
X127907489Y-99486965D01*
X127922002Y-99455057D01*
X127942229Y-99409047D01*
X127966234Y-99353492D01*
X127992082Y-99292953D01*
X128017840Y-99231986D01*
X128041573Y-99175151D01*
X128061346Y-99127006D01*
X128075224Y-99092110D01*
X128081274Y-99075021D01*
X128081386Y-99074274D01*
X128074528Y-99060793D01*
X128055302Y-99029770D01*
X128025728Y-98984289D01*
X127987827Y-98927432D01*
X127943620Y-98862283D01*
X127917921Y-98824862D01*
X127871093Y-98756247D01*
X127829501Y-98693952D01*
X127795175Y-98641129D01*
X127770143Y-98600927D01*
X127756435Y-98576500D01*
X127754456Y-98571024D01*
X127762966Y-98558278D01*
X127786493Y-98531063D01*
X127822032Y-98492428D01*
X127866577Y-98445423D01*
X127917123Y-98393095D01*
X127970664Y-98338495D01*
X128024195Y-98284670D01*
X128074711Y-98234670D01*
X128119206Y-98191543D01*
X128154675Y-98158339D01*
X128178113Y-98138106D01*
X128185954Y-98133278D01*
X128198720Y-98140067D01*
X128229256Y-98159142D01*
X128274590Y-98188561D01*
X128331756Y-98226381D01*
X128397784Y-98270661D01*
X128447590Y-98304395D01*
X128699236Y-98475512D01*
X128908999Y-98389041D01*
X129118763Y-98302570D01*
X129175611Y-98001018D01*
X129232460Y-97699466D01*
X129860115Y-97699466D01*
X129916964Y-98001018D01*
X129916964Y-98001018D01*
G37*
X129916964Y-98001018D02*
X129973812Y-98302570D01*
X130393338Y-98475512D01*
X130644984Y-98304395D01*
X130715458Y-98256750D01*
X130779163Y-98214210D01*
X130833126Y-98178715D01*
X130874373Y-98152210D01*
X130899934Y-98136636D01*
X130906895Y-98133278D01*
X130919435Y-98141914D01*
X130946231Y-98165792D01*
X130984280Y-98201859D01*
X131030579Y-98247067D01*
X131082123Y-98298364D01*
X131135909Y-98352701D01*
X131188935Y-98407028D01*
X131238195Y-98458295D01*
X131280687Y-98503451D01*
X131313407Y-98539446D01*
X131333351Y-98563230D01*
X131338119Y-98571190D01*
X131331257Y-98585865D01*
X131312020Y-98618014D01*
X131282430Y-98664492D01*
X131244510Y-98722156D01*
X131200282Y-98787860D01*
X131174654Y-98825336D01*
X131127941Y-98893768D01*
X131086432Y-98955520D01*
X131052140Y-99007519D01*
X131027080Y-99046692D01*
X131013264Y-99069965D01*
X131011188Y-99074855D01*
X131015895Y-99088755D01*
X131028723Y-99121150D01*
X131047738Y-99167485D01*
X131071003Y-99223206D01*
X131096584Y-99283758D01*
X131122545Y-99344586D01*
X131146950Y-99401136D01*
X131167863Y-99448852D01*
X131183349Y-99483181D01*
X131191472Y-99499568D01*
X131191952Y-99500212D01*
X131204707Y-99503341D01*
X131238677Y-99510321D01*
X131290340Y-99520467D01*
X131356176Y-99533092D01*
X131432664Y-99547509D01*
X131477290Y-99555823D01*
X131559021Y-99571384D01*
X131632843Y-99586192D01*
X131695021Y-99599436D01*
X131741822Y-99610305D01*
X131769509Y-99617989D01*
X131775074Y-99620427D01*
X131780526Y-99636930D01*
X131784924Y-99674200D01*
X131788272Y-99727880D01*
X131790574Y-99793612D01*
X131791832Y-99867037D01*
X131792048Y-99943796D01*
X131791227Y-100019532D01*
X131789371Y-100089886D01*
X131786482Y-100150500D01*
X131782565Y-100197016D01*
X131777622Y-100225075D01*
X131774657Y-100230916D01*
X131756934Y-100237917D01*
X131719381Y-100247927D01*
X131666964Y-100259769D01*
X131604652Y-100272267D01*
X131582900Y-100276310D01*
X131478024Y-100295520D01*
X131395180Y-100310991D01*
X131331630Y-100323337D01*
X131284637Y-100333173D01*
X131251463Y-100341114D01*
X131229371Y-100347776D01*
X131215624Y-100353773D01*
X131207484Y-100359719D01*
X131206345Y-100360894D01*
X131194977Y-100379826D01*
X131177635Y-100416669D01*
X131156050Y-100466913D01*
X131131954Y-100526046D01*
X131107079Y-100589556D01*
X131083157Y-100652932D01*
X131061919Y-100711662D01*
X131045097Y-100761235D01*
X131034422Y-100797139D01*
X131031627Y-100814862D01*
X131031860Y-100815483D01*
X131041331Y-100829970D01*
X131062818Y-100861844D01*
X131094063Y-100907789D01*
X131132807Y-100964485D01*
X131176793Y-101028617D01*
X131189319Y-101046842D01*
X131233984Y-101112914D01*
X131273288Y-101173200D01*
X131305088Y-101224235D01*
X131327245Y-101262560D01*
X131337617Y-101284711D01*
X131338119Y-101287432D01*
X131329405Y-101301736D01*
X131305325Y-101330072D01*
X131268976Y-101369396D01*
X131223453Y-101416661D01*
X131171852Y-101468823D01*
X131117267Y-101522835D01*
X131062794Y-101575653D01*
X131011529Y-101624231D01*
X130966567Y-101665523D01*
X130931004Y-101696485D01*
X130907935Y-101714070D01*
X130901554Y-101716941D01*
X130886699Y-101710178D01*
X130856286Y-101691939D01*
X130815268Y-101665297D01*
X130783709Y-101643852D01*
X130726525Y-101604503D01*
X130658806Y-101558171D01*
X130590880Y-101511913D01*
X130554361Y-101487155D01*
X130430752Y-101403547D01*
X130326991Y-101459650D01*
X130279720Y-101484228D01*
X130239523Y-101503331D01*
X130212326Y-101514227D01*
X130205402Y-101515743D01*
X130197077Y-101504549D01*
X130180654Y-101472917D01*
X130157357Y-101423765D01*
X130128414Y-101360010D01*
X130095050Y-101284571D01*
X130058491Y-101200364D01*
X130019964Y-101110308D01*
X129980694Y-101017321D01*
X129941908Y-100924320D01*
X129904830Y-100834223D01*
X129870689Y-100749948D01*
X129840708Y-100674413D01*
X129816116Y-100610534D01*
X129798136Y-100561231D01*
X129787997Y-100529421D01*
X129786366Y-100518496D01*
X129799291Y-100504561D01*
X129827589Y-100481940D01*
X129865346Y-100455333D01*
X129868515Y-100453228D01*
X129966100Y-100375114D01*
X130044786Y-100283982D01*
X130103891Y-100182745D01*
X130142732Y-100074318D01*
X130160628Y-99961614D01*
X130156897Y-99847548D01*
X130130857Y-99735034D01*
X130081825Y-99626985D01*
X130067400Y-99603345D01*
X129992369Y-99507887D01*
X129903730Y-99431232D01*
X129804549Y-99373780D01*
X129697895Y-99335929D01*
X129586836Y-99318078D01*
X129474439Y-99320625D01*
X129363773Y-99343970D01*
X129257906Y-99388510D01*
X129159905Y-99454645D01*
X129129590Y-99481487D01*
X129052438Y-99565512D01*
X128996218Y-99653966D01*
X128957653Y-99753115D01*
X128936174Y-99851303D01*
X128930872Y-99961697D01*
X128948552Y-100072640D01*
X128987419Y-100180381D01*
X129045677Y-100281169D01*
X129121531Y-100371256D01*
X129213183Y-100446892D01*
X129225228Y-100454864D01*
X129263389Y-100480974D01*
X129292399Y-100503595D01*
X129306268Y-100518039D01*
X129306469Y-100518496D01*
X129303492Y-100534121D01*
X129291689Y-100569582D01*
X129272286Y-100621962D01*
X129246512Y-100688345D01*
X129215591Y-100765814D01*
X129180751Y-100851450D01*
X129143217Y-100942337D01*
X129104217Y-101035559D01*
X129064977Y-101128197D01*
X129026724Y-101217335D01*
X128990683Y-101300055D01*
X128958083Y-101373441D01*
X128930148Y-101434575D01*
X128908105Y-101480541D01*
X128893182Y-101508421D01*
X128887172Y-101515743D01*
X128868809Y-101510041D01*
X128834448Y-101494749D01*
X128790016Y-101472599D01*
X128765583Y-101459650D01*
X128661822Y-101403547D01*
X128538213Y-101487155D01*
X128475114Y-101529987D01*
X128406030Y-101577122D01*
X128341293Y-101621503D01*
X128308866Y-101643852D01*
X128263259Y-101674477D01*
X128224640Y-101698747D01*
X128198048Y-101713587D01*
X128189410Y-101716724D01*
X128176839Y-101708261D01*
X128149016Y-101684636D01*
X128108639Y-101648302D01*
X128058405Y-101601711D01*
X128001012Y-101547317D01*
X127964714Y-101512392D01*
X127901210Y-101449996D01*
X127846327Y-101394188D01*
X127802286Y-101347354D01*
X127771305Y-101311882D01*
X127755602Y-101290161D01*
X127754095Y-101285752D01*
X127761086Y-101268985D01*
X127780406Y-101235082D01*
X127809909Y-101187476D01*
X127847455Y-101129599D01*
X127890900Y-101064884D01*
X127903255Y-101046842D01*
X127948273Y-100981267D01*
X127988660Y-100922228D01*
X128022160Y-100873042D01*
X128046514Y-100837028D01*
X128059464Y-100817502D01*
X128060715Y-100815483D01*
X128058844Y-100799922D01*
X128048913Y-100765709D01*
X128032653Y-100717355D01*
X128011795Y-100659371D01*
X127988073Y-100596270D01*
X127963216Y-100532563D01*
X127938958Y-100472761D01*
X127917029Y-100421376D01*
X127899162Y-100382919D01*
X127887087Y-100361902D01*
X127886229Y-100360894D01*
X127878846Y-100354888D01*
X127866375Y-100348948D01*
X127846080Y-100342460D01*
X127815222Y-100334809D01*
X127771066Y-100325380D01*
X127710874Y-100313559D01*
X127631907Y-100298729D01*
X127531430Y-100280277D01*
X127509675Y-100276310D01*
X127445198Y-100263853D01*
X127388989Y-100251666D01*
X127346013Y-100240926D01*
X127321240Y-100232809D01*
X127317918Y-100230916D01*
X127312444Y-100214138D01*
X127307994Y-100176645D01*
X127304572Y-100122794D01*
X127302181Y-100056944D01*
X127300823Y-99983453D01*
X127300501Y-99906680D01*
X127301219Y-99830983D01*
X127302979Y-99760720D01*
X127305784Y-99700250D01*
X127309638Y-99653930D01*
X127314543Y-99626119D01*
X127317500Y-99620427D01*
X127333963Y-99614686D01*
X127371449Y-99605345D01*
X127426225Y-99593215D01*
X127494555Y-99579107D01*
X127572706Y-99563830D01*
X127615284Y-99555823D01*
X127696071Y-99540721D01*
X127768113Y-99527040D01*
X127827889Y-99515467D01*
X127871879Y-99506687D01*
X127896561Y-99501387D01*
X127900623Y-99500212D01*
X127907489Y-99486965D01*
X127922002Y-99455057D01*
X127942229Y-99409047D01*
X127966234Y-99353492D01*
X127992082Y-99292953D01*
X128017840Y-99231986D01*
X128041573Y-99175151D01*
X128061346Y-99127006D01*
X128075224Y-99092110D01*
X128081274Y-99075021D01*
X128081386Y-99074274D01*
X128074528Y-99060793D01*
X128055302Y-99029770D01*
X128025728Y-98984289D01*
X127987827Y-98927432D01*
X127943620Y-98862283D01*
X127917921Y-98824862D01*
X127871093Y-98756247D01*
X127829501Y-98693952D01*
X127795175Y-98641129D01*
X127770143Y-98600927D01*
X127756435Y-98576500D01*
X127754456Y-98571024D01*
X127762966Y-98558278D01*
X127786493Y-98531063D01*
X127822032Y-98492428D01*
X127866577Y-98445423D01*
X127917123Y-98393095D01*
X127970664Y-98338495D01*
X128024195Y-98284670D01*
X128074711Y-98234670D01*
X128119206Y-98191543D01*
X128154675Y-98158339D01*
X128178113Y-98138106D01*
X128185954Y-98133278D01*
X128198720Y-98140067D01*
X128229256Y-98159142D01*
X128274590Y-98188561D01*
X128331756Y-98226381D01*
X128397784Y-98270661D01*
X128447590Y-98304395D01*
X128699236Y-98475512D01*
X128908999Y-98389041D01*
X129118763Y-98302570D01*
X129175611Y-98001018D01*
X129232460Y-97699466D01*
X129860115Y-97699466D01*
X129916964Y-98001018D01*
G36*
X131339460Y-102169030D02*
X131382711Y-102182245D01*
X131410558Y-102198941D01*
X131419629Y-102212145D01*
X131417132Y-102227797D01*
X131400931Y-102252385D01*
X131387232Y-102269800D01*
X131358992Y-102301283D01*
X131337775Y-102314529D01*
X131319688Y-102313664D01*
X131266035Y-102300010D01*
X131226630Y-102300630D01*
X131194632Y-102316104D01*
X131183890Y-102325161D01*
X131149505Y-102357027D01*
X131149505Y-102773179D01*
X131011188Y-102773179D01*
X131011188Y-102169614D01*
X131080347Y-102169614D01*
X131121869Y-102171256D01*
X131143291Y-102177087D01*
X131149502Y-102188461D01*
X131149505Y-102188798D01*
X131152439Y-102200713D01*
X131165704Y-102199159D01*
X131184084Y-102190563D01*
X131222046Y-102174568D01*
X131252872Y-102164945D01*
X131292536Y-102162478D01*
X131339460Y-102169030D01*
X131339460Y-102169030D01*
G37*
X131339460Y-102169030D02*
X131382711Y-102182245D01*
X131410558Y-102198941D01*
X131419629Y-102212145D01*
X131417132Y-102227797D01*
X131400931Y-102252385D01*
X131387232Y-102269800D01*
X131358992Y-102301283D01*
X131337775Y-102314529D01*
X131319688Y-102313664D01*
X131266035Y-102300010D01*
X131226630Y-102300630D01*
X131194632Y-102316104D01*
X131183890Y-102325161D01*
X131149505Y-102357027D01*
X131149505Y-102773179D01*
X131011188Y-102773179D01*
X131011188Y-102169614D01*
X131080347Y-102169614D01*
X131121869Y-102171256D01*
X131143291Y-102177087D01*
X131149502Y-102188461D01*
X131149505Y-102188798D01*
X131152439Y-102200713D01*
X131165704Y-102199159D01*
X131184084Y-102190563D01*
X131222046Y-102174568D01*
X131252872Y-102164945D01*
X131292536Y-102162478D01*
X131339460Y-102169030D01*
G36*
X128785988Y-102180002D02*
X128817283Y-102194950D01*
X128847591Y-102216541D01*
X128870682Y-102241391D01*
X128887500Y-102273087D01*
X128898994Y-102315214D01*
X128906109Y-102371358D01*
X128909793Y-102445106D01*
X128910992Y-102540044D01*
X128911011Y-102549985D01*
X128911287Y-102773179D01*
X128772970Y-102773179D01*
X128772970Y-102567418D01*
X128772872Y-102491189D01*
X128772191Y-102435939D01*
X128770349Y-102397501D01*
X128766767Y-102371706D01*
X128760868Y-102354384D01*
X128752073Y-102341368D01*
X128739820Y-102328507D01*
X128696953Y-102300873D01*
X128650157Y-102295745D01*
X128605576Y-102313217D01*
X128590072Y-102326221D01*
X128578690Y-102338447D01*
X128570519Y-102351540D01*
X128565026Y-102369615D01*
X128561680Y-102396787D01*
X128559949Y-102437170D01*
X128559303Y-102494879D01*
X128559208Y-102565132D01*
X128559208Y-102773179D01*
X128420891Y-102773179D01*
X128420891Y-102169614D01*
X128490050Y-102169614D01*
X128531572Y-102171256D01*
X128552994Y-102177087D01*
X128559205Y-102188461D01*
X128559208Y-102188798D01*
X128562090Y-102199938D01*
X128574801Y-102198674D01*
X128600074Y-102186434D01*
X128657395Y-102168424D01*
X128722963Y-102166421D01*
X128785988Y-102180002D01*
X128785988Y-102180002D01*
G37*
X128785988Y-102180002D02*
X128817283Y-102194950D01*
X128847591Y-102216541D01*
X128870682Y-102241391D01*
X128887500Y-102273087D01*
X128898994Y-102315214D01*
X128906109Y-102371358D01*
X128909793Y-102445106D01*
X128910992Y-102540044D01*
X128911011Y-102549985D01*
X128911287Y-102773179D01*
X128772970Y-102773179D01*
X128772970Y-102567418D01*
X128772872Y-102491189D01*
X128772191Y-102435939D01*
X128770349Y-102397501D01*
X128766767Y-102371706D01*
X128760868Y-102354384D01*
X128752073Y-102341368D01*
X128739820Y-102328507D01*
X128696953Y-102300873D01*
X128650157Y-102295745D01*
X128605576Y-102313217D01*
X128590072Y-102326221D01*
X128578690Y-102338447D01*
X128570519Y-102351540D01*
X128565026Y-102369615D01*
X128561680Y-102396787D01*
X128559949Y-102437170D01*
X128559303Y-102494879D01*
X128559208Y-102565132D01*
X128559208Y-102773179D01*
X128420891Y-102773179D01*
X128420891Y-102169614D01*
X128490050Y-102169614D01*
X128531572Y-102171256D01*
X128552994Y-102177087D01*
X128559205Y-102188461D01*
X128559208Y-102188798D01*
X128562090Y-102199938D01*
X128574801Y-102198674D01*
X128600074Y-102186434D01*
X128657395Y-102168424D01*
X128722963Y-102166421D01*
X128785988Y-102180002D01*
G36*
X132217898Y-102167457D02*
X132250096Y-102175279D01*
X132311825Y-102203921D01*
X132364610Y-102247667D01*
X132401141Y-102300117D01*
X132406160Y-102311893D01*
X132413045Y-102342740D01*
X132417864Y-102388371D01*
X132419505Y-102434492D01*
X132419505Y-102521693D01*
X132237178Y-102521693D01*
X132161979Y-102521978D01*
X132109003Y-102523704D01*
X132075325Y-102528181D01*
X132058020Y-102536720D01*
X132054163Y-102550630D01*
X132060829Y-102571222D01*
X132072770Y-102595315D01*
X132106080Y-102635525D01*
X132152368Y-102655558D01*
X132208944Y-102654905D01*
X132273031Y-102633101D01*
X132328417Y-102606193D01*
X132374375Y-102642532D01*
X132420333Y-102678872D01*
X132377096Y-102718819D01*
X132319374Y-102756563D01*
X132248386Y-102779320D01*
X132172029Y-102785688D01*
X132098199Y-102774268D01*
X132086287Y-102770393D01*
X132021399Y-102736506D01*
X131973130Y-102685986D01*
X131940465Y-102617325D01*
X131922385Y-102529014D01*
X131922175Y-102527121D01*
X131920556Y-102430878D01*
X131927100Y-102396542D01*
X132054852Y-102396542D01*
X132066584Y-102401822D01*
X132098438Y-102405867D01*
X132145397Y-102408176D01*
X132175154Y-102408525D01*
X132230648Y-102408306D01*
X132265346Y-102406916D01*
X132283601Y-102403251D01*
X132289766Y-102396210D01*
X132288195Y-102384690D01*
X132286878Y-102380233D01*
X132264382Y-102338355D01*
X132229003Y-102304604D01*
X132197780Y-102289773D01*
X132156301Y-102290668D01*
X132114269Y-102309164D01*
X132079012Y-102339786D01*
X132057854Y-102377062D01*
X132054852Y-102396542D01*
X131927100Y-102396542D01*
X131936690Y-102346229D01*
X131968698Y-102275191D01*
X132014701Y-102219779D01*
X132072821Y-102182009D01*
X132141180Y-102163896D01*
X132217898Y-102167457D01*
X132217898Y-102167457D01*
G37*
X132217898Y-102167457D02*
X132250096Y-102175279D01*
X132311825Y-102203921D01*
X132364610Y-102247667D01*
X132401141Y-102300117D01*
X132406160Y-102311893D01*
X132413045Y-102342740D01*
X132417864Y-102388371D01*
X132419505Y-102434492D01*
X132419505Y-102521693D01*
X132237178Y-102521693D01*
X132161979Y-102521978D01*
X132109003Y-102523704D01*
X132075325Y-102528181D01*
X132058020Y-102536720D01*
X132054163Y-102550630D01*
X132060829Y-102571222D01*
X132072770Y-102595315D01*
X132106080Y-102635525D01*
X132152368Y-102655558D01*
X132208944Y-102654905D01*
X132273031Y-102633101D01*
X132328417Y-102606193D01*
X132374375Y-102642532D01*
X132420333Y-102678872D01*
X132377096Y-102718819D01*
X132319374Y-102756563D01*
X132248386Y-102779320D01*
X132172029Y-102785688D01*
X132098199Y-102774268D01*
X132086287Y-102770393D01*
X132021399Y-102736506D01*
X131973130Y-102685986D01*
X131940465Y-102617325D01*
X131922385Y-102529014D01*
X131922175Y-102527121D01*
X131920556Y-102430878D01*
X131927100Y-102396542D01*
X132054852Y-102396542D01*
X132066584Y-102401822D01*
X132098438Y-102405867D01*
X132145397Y-102408176D01*
X132175154Y-102408525D01*
X132230648Y-102408306D01*
X132265346Y-102406916D01*
X132283601Y-102403251D01*
X132289766Y-102396210D01*
X132288195Y-102384690D01*
X132286878Y-102380233D01*
X132264382Y-102338355D01*
X132229003Y-102304604D01*
X132197780Y-102289773D01*
X132156301Y-102290668D01*
X132114269Y-102309164D01*
X132079012Y-102339786D01*
X132057854Y-102377062D01*
X132054852Y-102396542D01*
X131927100Y-102396542D01*
X131936690Y-102346229D01*
X131968698Y-102275191D01*
X132014701Y-102219779D01*
X132072821Y-102182009D01*
X132141180Y-102163896D01*
X132217898Y-102167457D01*
G36*
X131757226Y-102174880D02*
X131830080Y-102205830D01*
X131853027Y-102220895D01*
X131882354Y-102244048D01*
X131900764Y-102262253D01*
X131903961Y-102268183D01*
X131894935Y-102281340D01*
X131871837Y-102303667D01*
X131853344Y-102319250D01*
X131802728Y-102359926D01*
X131762760Y-102326295D01*
X131731874Y-102304584D01*
X131701759Y-102297090D01*
X131667292Y-102298920D01*
X131612561Y-102312528D01*
X131574886Y-102340772D01*
X131551991Y-102386433D01*
X131541597Y-102452289D01*
X131541595Y-102452331D01*
X131542494Y-102525939D01*
X131556463Y-102579946D01*
X131584328Y-102616716D01*
X131603325Y-102629168D01*
X131653776Y-102644673D01*
X131707663Y-102644683D01*
X131754546Y-102629638D01*
X131765644Y-102622287D01*
X131793476Y-102603511D01*
X131815236Y-102600434D01*
X131838704Y-102614409D01*
X131864649Y-102639510D01*
X131905716Y-102681880D01*
X131860121Y-102719464D01*
X131789674Y-102761882D01*
X131710233Y-102782785D01*
X131627215Y-102781272D01*
X131572694Y-102767411D01*
X131508970Y-102733135D01*
X131458005Y-102679212D01*
X131434851Y-102641149D01*
X131416099Y-102586536D01*
X131406715Y-102517369D01*
X131406643Y-102442407D01*
X131415824Y-102370409D01*
X131434199Y-102310137D01*
X131437093Y-102303958D01*
X131479952Y-102243351D01*
X131537979Y-102199224D01*
X131606591Y-102172493D01*
X131681201Y-102164073D01*
X131757226Y-102174880D01*
X131757226Y-102174880D01*
G37*
X131757226Y-102174880D02*
X131830080Y-102205830D01*
X131853027Y-102220895D01*
X131882354Y-102244048D01*
X131900764Y-102262253D01*
X131903961Y-102268183D01*
X131894935Y-102281340D01*
X131871837Y-102303667D01*
X131853344Y-102319250D01*
X131802728Y-102359926D01*
X131762760Y-102326295D01*
X131731874Y-102304584D01*
X131701759Y-102297090D01*
X131667292Y-102298920D01*
X131612561Y-102312528D01*
X131574886Y-102340772D01*
X131551991Y-102386433D01*
X131541597Y-102452289D01*
X131541595Y-102452331D01*
X131542494Y-102525939D01*
X131556463Y-102579946D01*
X131584328Y-102616716D01*
X131603325Y-102629168D01*
X131653776Y-102644673D01*
X131707663Y-102644683D01*
X131754546Y-102629638D01*
X131765644Y-102622287D01*
X131793476Y-102603511D01*
X131815236Y-102600434D01*
X131838704Y-102614409D01*
X131864649Y-102639510D01*
X131905716Y-102681880D01*
X131860121Y-102719464D01*
X131789674Y-102761882D01*
X131710233Y-102782785D01*
X131627215Y-102781272D01*
X131572694Y-102767411D01*
X131508970Y-102733135D01*
X131458005Y-102679212D01*
X131434851Y-102641149D01*
X131416099Y-102586536D01*
X131406715Y-102517369D01*
X131406643Y-102442407D01*
X131415824Y-102370409D01*
X131434199Y-102310137D01*
X131437093Y-102303958D01*
X131479952Y-102243351D01*
X131537979Y-102199224D01*
X131606591Y-102172493D01*
X131681201Y-102164073D01*
X131757226Y-102174880D01*
G36*
X130533367Y-102365342D02*
X130534555Y-102457563D01*
X130538897Y-102527610D01*
X130547558Y-102578381D01*
X130561704Y-102612772D01*
X130582500Y-102633679D01*
X130611110Y-102644000D01*
X130646535Y-102646636D01*
X130683636Y-102643682D01*
X130711818Y-102632889D01*
X130732243Y-102611360D01*
X130746079Y-102576199D01*
X130754491Y-102524510D01*
X130758643Y-102453394D01*
X130759703Y-102365342D01*
X130759703Y-102169614D01*
X130898020Y-102169614D01*
X130898020Y-102773179D01*
X130828862Y-102773179D01*
X130787170Y-102771489D01*
X130765701Y-102765556D01*
X130759703Y-102754293D01*
X130756091Y-102744261D01*
X130741714Y-102746383D01*
X130712736Y-102760580D01*
X130646319Y-102782480D01*
X130575875Y-102780928D01*
X130508377Y-102757147D01*
X130476233Y-102738362D01*
X130451715Y-102718022D01*
X130433804Y-102692573D01*
X130421479Y-102658458D01*
X130413723Y-102612121D01*
X130409516Y-102550007D01*
X130407840Y-102468561D01*
X130407624Y-102405578D01*
X130407624Y-102169614D01*
X130533367Y-102169614D01*
X130533367Y-102365342D01*
X130533367Y-102365342D01*
G37*
X130533367Y-102365342D02*
X130534555Y-102457563D01*
X130538897Y-102527610D01*
X130547558Y-102578381D01*
X130561704Y-102612772D01*
X130582500Y-102633679D01*
X130611110Y-102644000D01*
X130646535Y-102646636D01*
X130683636Y-102643682D01*
X130711818Y-102632889D01*
X130732243Y-102611360D01*
X130746079Y-102576199D01*
X130754491Y-102524510D01*
X130758643Y-102453394D01*
X130759703Y-102365342D01*
X130759703Y-102169614D01*
X130898020Y-102169614D01*
X130898020Y-102773179D01*
X130828862Y-102773179D01*
X130787170Y-102771489D01*
X130765701Y-102765556D01*
X130759703Y-102754293D01*
X130756091Y-102744261D01*
X130741714Y-102746383D01*
X130712736Y-102760580D01*
X130646319Y-102782480D01*
X130575875Y-102780928D01*
X130508377Y-102757147D01*
X130476233Y-102738362D01*
X130451715Y-102718022D01*
X130433804Y-102692573D01*
X130421479Y-102658458D01*
X130413723Y-102612121D01*
X130409516Y-102550007D01*
X130407840Y-102468561D01*
X130407624Y-102405578D01*
X130407624Y-102169614D01*
X130533367Y-102169614D01*
X130533367Y-102365342D01*
G36*
X130150762Y-102177055D02*
X130214363Y-102211692D01*
X130264123Y-102266372D01*
X130287568Y-102310842D01*
X130297634Y-102350121D01*
X130304156Y-102406116D01*
X130306951Y-102470621D01*
X130305836Y-102535429D01*
X130300626Y-102592334D01*
X130294541Y-102622727D01*
X130274014Y-102664306D01*
X130238463Y-102708468D01*
X130195619Y-102747087D01*
X130153211Y-102772034D01*
X130152177Y-102772430D01*
X130099553Y-102783331D01*
X130037188Y-102783601D01*
X129977924Y-102773676D01*
X129955040Y-102765722D01*
X129896102Y-102732300D01*
X129853890Y-102688511D01*
X129826156Y-102630538D01*
X129810651Y-102554565D01*
X129807143Y-102514771D01*
X129807590Y-102464766D01*
X129942376Y-102464766D01*
X129946917Y-102537732D01*
X129959986Y-102593334D01*
X129980756Y-102628861D01*
X129995552Y-102639020D01*
X130033464Y-102646104D01*
X130078527Y-102644007D01*
X130117487Y-102633812D01*
X130127704Y-102628204D01*
X130154659Y-102595538D01*
X130172451Y-102545545D01*
X130180024Y-102484705D01*
X130176325Y-102419497D01*
X130168057Y-102380253D01*
X130144320Y-102334805D01*
X130106849Y-102306396D01*
X130061720Y-102296573D01*
X130015011Y-102306887D01*
X129979132Y-102332112D01*
X129960277Y-102352925D01*
X129949272Y-102373439D01*
X129944026Y-102401203D01*
X129942449Y-102443762D01*
X129942376Y-102464766D01*
X129807590Y-102464766D01*
X129808094Y-102408580D01*
X129825388Y-102321501D01*
X129859029Y-102253530D01*
X129909018Y-102204664D01*
X129975356Y-102174899D01*
X129989601Y-102171448D01*
X130075210Y-102163345D01*
X130150762Y-102177055D01*
X130150762Y-102177055D01*
G37*
X130150762Y-102177055D02*
X130214363Y-102211692D01*
X130264123Y-102266372D01*
X130287568Y-102310842D01*
X130297634Y-102350121D01*
X130304156Y-102406116D01*
X130306951Y-102470621D01*
X130305836Y-102535429D01*
X130300626Y-102592334D01*
X130294541Y-102622727D01*
X130274014Y-102664306D01*
X130238463Y-102708468D01*
X130195619Y-102747087D01*
X130153211Y-102772034D01*
X130152177Y-102772430D01*
X130099553Y-102783331D01*
X130037188Y-102783601D01*
X129977924Y-102773676D01*
X129955040Y-102765722D01*
X129896102Y-102732300D01*
X129853890Y-102688511D01*
X129826156Y-102630538D01*
X129810651Y-102554565D01*
X129807143Y-102514771D01*
X129807590Y-102464766D01*
X129942376Y-102464766D01*
X129946917Y-102537732D01*
X129959986Y-102593334D01*
X129980756Y-102628861D01*
X129995552Y-102639020D01*
X130033464Y-102646104D01*
X130078527Y-102644007D01*
X130117487Y-102633812D01*
X130127704Y-102628204D01*
X130154659Y-102595538D01*
X130172451Y-102545545D01*
X130180024Y-102484705D01*
X130176325Y-102419497D01*
X130168057Y-102380253D01*
X130144320Y-102334805D01*
X130106849Y-102306396D01*
X130061720Y-102296573D01*
X130015011Y-102306887D01*
X129979132Y-102332112D01*
X129960277Y-102352925D01*
X129949272Y-102373439D01*
X129944026Y-102401203D01*
X129942449Y-102443762D01*
X129942376Y-102464766D01*
X129807590Y-102464766D01*
X129808094Y-102408580D01*
X129825388Y-102321501D01*
X129859029Y-102253530D01*
X129909018Y-102204664D01*
X129975356Y-102174899D01*
X129989601Y-102171448D01*
X130075210Y-102163345D01*
X130150762Y-102177055D01*
G36*
X129554017Y-102167452D02*
X129601634Y-102176482D01*
X129651034Y-102195370D01*
X129656312Y-102197777D01*
X129693774Y-102217476D01*
X129719717Y-102235781D01*
X129728103Y-102247508D01*
X129720117Y-102266632D01*
X129700720Y-102294850D01*
X129692110Y-102305384D01*
X129656628Y-102346847D01*
X129610885Y-102319858D01*
X129567350Y-102301878D01*
X129517050Y-102292267D01*
X129468812Y-102291660D01*
X129431467Y-102300691D01*
X129422505Y-102306327D01*
X129405437Y-102332171D01*
X129403363Y-102361941D01*
X129416134Y-102385197D01*
X129423688Y-102389708D01*
X129446325Y-102395309D01*
X129486115Y-102401892D01*
X129535166Y-102408183D01*
X129544215Y-102409170D01*
X129622996Y-102422798D01*
X129680136Y-102445946D01*
X129718030Y-102480752D01*
X129739079Y-102529354D01*
X129745635Y-102588718D01*
X129736577Y-102656198D01*
X129707164Y-102709188D01*
X129657278Y-102747783D01*
X129586800Y-102772081D01*
X129508565Y-102781667D01*
X129444766Y-102781552D01*
X129393016Y-102772845D01*
X129357673Y-102760825D01*
X129313017Y-102739880D01*
X129271747Y-102715574D01*
X129257079Y-102704876D01*
X129219357Y-102674084D01*
X129264852Y-102628049D01*
X129310347Y-102582013D01*
X129362072Y-102616243D01*
X129413952Y-102641952D01*
X129469351Y-102655399D01*
X129522605Y-102656818D01*
X129568049Y-102646443D01*
X129600016Y-102624507D01*
X129610338Y-102605998D01*
X129608789Y-102576314D01*
X129583140Y-102553615D01*
X129533460Y-102537940D01*
X129479031Y-102530695D01*
X129395264Y-102516873D01*
X129333033Y-102490796D01*
X129291507Y-102451699D01*
X129269853Y-102398820D01*
X129266853Y-102336126D01*
X129281671Y-102270642D01*
X129315454Y-102221144D01*
X129368505Y-102187408D01*
X129441126Y-102169207D01*
X129494928Y-102165639D01*
X129554017Y-102167452D01*
X129554017Y-102167452D01*
G37*
X129554017Y-102167452D02*
X129601634Y-102176482D01*
X129651034Y-102195370D01*
X129656312Y-102197777D01*
X129693774Y-102217476D01*
X129719717Y-102235781D01*
X129728103Y-102247508D01*
X129720117Y-102266632D01*
X129700720Y-102294850D01*
X129692110Y-102305384D01*
X129656628Y-102346847D01*
X129610885Y-102319858D01*
X129567350Y-102301878D01*
X129517050Y-102292267D01*
X129468812Y-102291660D01*
X129431467Y-102300691D01*
X129422505Y-102306327D01*
X129405437Y-102332171D01*
X129403363Y-102361941D01*
X129416134Y-102385197D01*
X129423688Y-102389708D01*
X129446325Y-102395309D01*
X129486115Y-102401892D01*
X129535166Y-102408183D01*
X129544215Y-102409170D01*
X129622996Y-102422798D01*
X129680136Y-102445946D01*
X129718030Y-102480752D01*
X129739079Y-102529354D01*
X129745635Y-102588718D01*
X129736577Y-102656198D01*
X129707164Y-102709188D01*
X129657278Y-102747783D01*
X129586800Y-102772081D01*
X129508565Y-102781667D01*
X129444766Y-102781552D01*
X129393016Y-102772845D01*
X129357673Y-102760825D01*
X129313017Y-102739880D01*
X129271747Y-102715574D01*
X129257079Y-102704876D01*
X129219357Y-102674084D01*
X129264852Y-102628049D01*
X129310347Y-102582013D01*
X129362072Y-102616243D01*
X129413952Y-102641952D01*
X129469351Y-102655399D01*
X129522605Y-102656818D01*
X129568049Y-102646443D01*
X129600016Y-102624507D01*
X129610338Y-102605998D01*
X129608789Y-102576314D01*
X129583140Y-102553615D01*
X129533460Y-102537940D01*
X129479031Y-102530695D01*
X129395264Y-102516873D01*
X129333033Y-102490796D01*
X129291507Y-102451699D01*
X129269853Y-102398820D01*
X129266853Y-102336126D01*
X129281671Y-102270642D01*
X129315454Y-102221144D01*
X129368505Y-102187408D01*
X129441126Y-102169207D01*
X129494928Y-102165639D01*
X129554017Y-102167452D01*
G36*
X128183301Y-102183614D02*
X128195832Y-102189514D01*
X128239201Y-102221283D01*
X128280210Y-102267646D01*
X128310832Y-102318696D01*
X128319541Y-102342166D01*
X128327488Y-102384091D01*
X128332226Y-102434757D01*
X128332801Y-102455679D01*
X128332871Y-102521693D01*
X127952917Y-102521693D01*
X127961017Y-102556273D01*
X127980896Y-102597170D01*
X128015653Y-102632514D01*
X128057002Y-102655282D01*
X128083351Y-102660010D01*
X128119084Y-102654273D01*
X128161718Y-102639882D01*
X128176201Y-102633262D01*
X128229760Y-102606513D01*
X128275467Y-102641376D01*
X128301842Y-102664955D01*
X128315876Y-102684417D01*
X128316586Y-102690129D01*
X128304049Y-102703973D01*
X128276572Y-102725012D01*
X128251634Y-102741425D01*
X128184336Y-102770930D01*
X128108890Y-102784284D01*
X128034112Y-102780812D01*
X127974505Y-102762663D01*
X127913059Y-102723784D01*
X127869392Y-102672595D01*
X127842074Y-102606367D01*
X127829678Y-102522371D01*
X127828579Y-102483936D01*
X127832978Y-102395861D01*
X127833518Y-102393299D01*
X127959418Y-102393299D01*
X127962885Y-102401558D01*
X127977137Y-102406113D01*
X128006530Y-102408065D01*
X128055425Y-102408517D01*
X128074252Y-102408525D01*
X128131533Y-102407843D01*
X128167859Y-102405364D01*
X128187396Y-102400443D01*
X128194310Y-102392434D01*
X128194555Y-102389862D01*
X128186664Y-102369423D01*
X128166915Y-102340789D01*
X128158425Y-102330763D01*
X128126906Y-102302408D01*
X128094051Y-102291259D01*
X128076349Y-102290327D01*
X128028461Y-102301981D01*
X127988301Y-102333285D01*
X127962827Y-102378752D01*
X127962375Y-102380233D01*
X127959418Y-102393299D01*
X127833518Y-102393299D01*
X127847608Y-102326510D01*
X127873962Y-102271025D01*
X127906193Y-102231639D01*
X127965783Y-102188931D01*
X128035832Y-102166109D01*
X128110339Y-102164046D01*
X128183301Y-102183614D01*
X128183301Y-102183614D01*
G37*
X128183301Y-102183614D02*
X128195832Y-102189514D01*
X128239201Y-102221283D01*
X128280210Y-102267646D01*
X128310832Y-102318696D01*
X128319541Y-102342166D01*
X128327488Y-102384091D01*
X128332226Y-102434757D01*
X128332801Y-102455679D01*
X128332871Y-102521693D01*
X127952917Y-102521693D01*
X127961017Y-102556273D01*
X127980896Y-102597170D01*
X128015653Y-102632514D01*
X128057002Y-102655282D01*
X128083351Y-102660010D01*
X128119084Y-102654273D01*
X128161718Y-102639882D01*
X128176201Y-102633262D01*
X128229760Y-102606513D01*
X128275467Y-102641376D01*
X128301842Y-102664955D01*
X128315876Y-102684417D01*
X128316586Y-102690129D01*
X128304049Y-102703973D01*
X128276572Y-102725012D01*
X128251634Y-102741425D01*
X128184336Y-102770930D01*
X128108890Y-102784284D01*
X128034112Y-102780812D01*
X127974505Y-102762663D01*
X127913059Y-102723784D01*
X127869392Y-102672595D01*
X127842074Y-102606367D01*
X127829678Y-102522371D01*
X127828579Y-102483936D01*
X127832978Y-102395861D01*
X127833518Y-102393299D01*
X127959418Y-102393299D01*
X127962885Y-102401558D01*
X127977137Y-102406113D01*
X128006530Y-102408065D01*
X128055425Y-102408517D01*
X128074252Y-102408525D01*
X128131533Y-102407843D01*
X128167859Y-102405364D01*
X128187396Y-102400443D01*
X128194310Y-102392434D01*
X128194555Y-102389862D01*
X128186664Y-102369423D01*
X128166915Y-102340789D01*
X128158425Y-102330763D01*
X128126906Y-102302408D01*
X128094051Y-102291259D01*
X128076349Y-102290327D01*
X128028461Y-102301981D01*
X127988301Y-102333285D01*
X127962827Y-102378752D01*
X127962375Y-102380233D01*
X127959418Y-102393299D01*
X127833518Y-102393299D01*
X127847608Y-102326510D01*
X127873962Y-102271025D01*
X127906193Y-102231639D01*
X127965783Y-102188931D01*
X128035832Y-102166109D01*
X128110339Y-102164046D01*
X128183301Y-102183614D01*
G36*
X127001739Y-102176148D02*
X127067521Y-102205231D01*
X127117460Y-102253793D01*
X127151626Y-102321908D01*
X127170093Y-102409651D01*
X127171417Y-102423351D01*
X127172454Y-102519939D01*
X127159007Y-102604602D01*
X127131892Y-102673221D01*
X127117373Y-102695294D01*
X127066799Y-102742011D01*
X127002391Y-102772268D01*
X126930334Y-102784824D01*
X126856815Y-102778439D01*
X126800928Y-102758772D01*
X126752868Y-102725629D01*
X126713588Y-102682175D01*
X126712908Y-102681158D01*
X126696956Y-102654338D01*
X126686590Y-102627368D01*
X126680312Y-102593332D01*
X126676627Y-102545310D01*
X126675003Y-102505931D01*
X126674328Y-102470219D01*
X126800045Y-102470219D01*
X126801274Y-102505770D01*
X126805734Y-102553094D01*
X126813603Y-102583465D01*
X126827793Y-102605072D01*
X126841083Y-102617694D01*
X126888198Y-102644122D01*
X126937495Y-102647653D01*
X126983407Y-102628639D01*
X127006362Y-102607331D01*
X127022904Y-102585859D01*
X127032579Y-102565313D01*
X127036826Y-102538574D01*
X127037080Y-102498523D01*
X127035772Y-102461638D01*
X127032957Y-102408947D01*
X127028495Y-102374772D01*
X127020452Y-102352480D01*
X127006897Y-102335442D01*
X126996155Y-102325703D01*
X126951223Y-102300123D01*
X126902751Y-102298847D01*
X126862106Y-102313999D01*
X126827433Y-102345642D01*
X126806776Y-102397620D01*
X126800045Y-102470219D01*
X126674328Y-102470219D01*
X126673521Y-102427621D01*
X126676052Y-102369056D01*
X126683638Y-102325007D01*
X126697319Y-102290248D01*
X126718135Y-102259551D01*
X126725853Y-102250436D01*
X126774111Y-102205021D01*
X126825872Y-102178493D01*
X126889172Y-102167379D01*
X126920039Y-102166471D01*
X127001739Y-102176148D01*
X127001739Y-102176148D01*
G37*
X127001739Y-102176148D02*
X127067521Y-102205231D01*
X127117460Y-102253793D01*
X127151626Y-102321908D01*
X127170093Y-102409651D01*
X127171417Y-102423351D01*
X127172454Y-102519939D01*
X127159007Y-102604602D01*
X127131892Y-102673221D01*
X127117373Y-102695294D01*
X127066799Y-102742011D01*
X127002391Y-102772268D01*
X126930334Y-102784824D01*
X126856815Y-102778439D01*
X126800928Y-102758772D01*
X126752868Y-102725629D01*
X126713588Y-102682175D01*
X126712908Y-102681158D01*
X126696956Y-102654338D01*
X126686590Y-102627368D01*
X126680312Y-102593332D01*
X126676627Y-102545310D01*
X126675003Y-102505931D01*
X126674328Y-102470219D01*
X126800045Y-102470219D01*
X126801274Y-102505770D01*
X126805734Y-102553094D01*
X126813603Y-102583465D01*
X126827793Y-102605072D01*
X126841083Y-102617694D01*
X126888198Y-102644122D01*
X126937495Y-102647653D01*
X126983407Y-102628639D01*
X127006362Y-102607331D01*
X127022904Y-102585859D01*
X127032579Y-102565313D01*
X127036826Y-102538574D01*
X127037080Y-102498523D01*
X127035772Y-102461638D01*
X127032957Y-102408947D01*
X127028495Y-102374772D01*
X127020452Y-102352480D01*
X127006897Y-102335442D01*
X126996155Y-102325703D01*
X126951223Y-102300123D01*
X126902751Y-102298847D01*
X126862106Y-102313999D01*
X126827433Y-102345642D01*
X126806776Y-102397620D01*
X126800045Y-102470219D01*
X126674328Y-102470219D01*
X126673521Y-102427621D01*
X126676052Y-102369056D01*
X126683638Y-102325007D01*
X126697319Y-102290248D01*
X126718135Y-102259551D01*
X126725853Y-102250436D01*
X126774111Y-102205021D01*
X126825872Y-102178493D01*
X126889172Y-102167379D01*
X126920039Y-102166471D01*
X127001739Y-102176148D01*
G36*
X131572581Y-103115970D02*
X131632685Y-103131597D01*
X131683021Y-103163848D01*
X131707393Y-103187940D01*
X131747345Y-103244895D01*
X131770242Y-103310965D01*
X131778108Y-103392182D01*
X131778148Y-103398748D01*
X131778218Y-103464763D01*
X131398264Y-103464763D01*
X131406363Y-103499342D01*
X131420987Y-103530659D01*
X131446581Y-103563291D01*
X131451935Y-103568500D01*
X131497943Y-103596694D01*
X131550410Y-103601475D01*
X131610803Y-103582926D01*
X131621040Y-103577931D01*
X131652439Y-103562745D01*
X131673470Y-103554094D01*
X131677139Y-103553293D01*
X131689948Y-103561063D01*
X131714378Y-103580072D01*
X131726779Y-103590460D01*
X131752476Y-103614321D01*
X131760915Y-103630077D01*
X131755058Y-103644571D01*
X131751928Y-103648534D01*
X131730725Y-103665879D01*
X131695738Y-103686959D01*
X131671337Y-103699265D01*
X131602072Y-103720946D01*
X131525388Y-103727971D01*
X131452765Y-103719647D01*
X131432426Y-103713686D01*
X131369476Y-103679952D01*
X131322815Y-103628045D01*
X131292173Y-103557459D01*
X131277282Y-103467692D01*
X131275647Y-103420753D01*
X131280421Y-103352413D01*
X131400990Y-103352413D01*
X131412652Y-103357465D01*
X131443998Y-103361429D01*
X131489571Y-103363768D01*
X131520446Y-103364169D01*
X131575981Y-103363783D01*
X131611033Y-103361975D01*
X131630262Y-103357773D01*
X131638330Y-103350203D01*
X131639901Y-103339218D01*
X131629121Y-103305381D01*
X131601980Y-103271940D01*
X131566277Y-103246272D01*
X131530560Y-103235772D01*
X131482048Y-103245086D01*
X131440053Y-103272013D01*
X131410936Y-103310827D01*
X131400990Y-103352413D01*
X131280421Y-103352413D01*
X131282599Y-103321236D01*
X131304055Y-103241949D01*
X131340470Y-103182263D01*
X131392297Y-103141549D01*
X131459990Y-103119179D01*
X131496662Y-103114871D01*
X131572581Y-103115970D01*
X131572581Y-103115970D01*
G37*
X131572581Y-103115970D02*
X131632685Y-103131597D01*
X131683021Y-103163848D01*
X131707393Y-103187940D01*
X131747345Y-103244895D01*
X131770242Y-103310965D01*
X131778108Y-103392182D01*
X131778148Y-103398748D01*
X131778218Y-103464763D01*
X131398264Y-103464763D01*
X131406363Y-103499342D01*
X131420987Y-103530659D01*
X131446581Y-103563291D01*
X131451935Y-103568500D01*
X131497943Y-103596694D01*
X131550410Y-103601475D01*
X131610803Y-103582926D01*
X131621040Y-103577931D01*
X131652439Y-103562745D01*
X131673470Y-103554094D01*
X131677139Y-103553293D01*
X131689948Y-103561063D01*
X131714378Y-103580072D01*
X131726779Y-103590460D01*
X131752476Y-103614321D01*
X131760915Y-103630077D01*
X131755058Y-103644571D01*
X131751928Y-103648534D01*
X131730725Y-103665879D01*
X131695738Y-103686959D01*
X131671337Y-103699265D01*
X131602072Y-103720946D01*
X131525388Y-103727971D01*
X131452765Y-103719647D01*
X131432426Y-103713686D01*
X131369476Y-103679952D01*
X131322815Y-103628045D01*
X131292173Y-103557459D01*
X131277282Y-103467692D01*
X131275647Y-103420753D01*
X131280421Y-103352413D01*
X131400990Y-103352413D01*
X131412652Y-103357465D01*
X131443998Y-103361429D01*
X131489571Y-103363768D01*
X131520446Y-103364169D01*
X131575981Y-103363783D01*
X131611033Y-103361975D01*
X131630262Y-103357773D01*
X131638330Y-103350203D01*
X131639901Y-103339218D01*
X131629121Y-103305381D01*
X131601980Y-103271940D01*
X131566277Y-103246272D01*
X131530560Y-103235772D01*
X131482048Y-103245086D01*
X131440053Y-103272013D01*
X131410936Y-103310827D01*
X131400990Y-103352413D01*
X131280421Y-103352413D01*
X131282599Y-103321236D01*
X131304055Y-103241949D01*
X131340470Y-103182263D01*
X131392297Y-103141549D01*
X131459990Y-103119179D01*
X131496662Y-103114871D01*
X131572581Y-103115970D01*
G36*
X131175255Y-103112486D02*
X131223595Y-103122015D01*
X131251114Y-103136125D01*
X131280064Y-103159568D01*
X131238876Y-103211571D01*
X131213482Y-103243064D01*
X131196238Y-103258428D01*
X131179102Y-103260776D01*
X131154027Y-103253217D01*
X131142257Y-103248941D01*
X131094270Y-103242631D01*
X131050324Y-103256156D01*
X131018060Y-103286710D01*
X131012819Y-103296452D01*
X131007112Y-103322258D01*
X131002706Y-103369817D01*
X130999811Y-103435758D01*
X130998631Y-103516710D01*
X130998614Y-103528226D01*
X130998614Y-103728822D01*
X130860297Y-103728822D01*
X130860297Y-103112683D01*
X130929456Y-103112683D01*
X130969333Y-103113725D01*
X130990107Y-103118358D01*
X130997789Y-103128849D01*
X130998614Y-103138745D01*
X130998614Y-103164806D01*
X131031745Y-103138745D01*
X131069735Y-103120965D01*
X131120770Y-103112174D01*
X131175255Y-103112486D01*
X131175255Y-103112486D01*
G37*
X131175255Y-103112486D02*
X131223595Y-103122015D01*
X131251114Y-103136125D01*
X131280064Y-103159568D01*
X131238876Y-103211571D01*
X131213482Y-103243064D01*
X131196238Y-103258428D01*
X131179102Y-103260776D01*
X131154027Y-103253217D01*
X131142257Y-103248941D01*
X131094270Y-103242631D01*
X131050324Y-103256156D01*
X131018060Y-103286710D01*
X131012819Y-103296452D01*
X131007112Y-103322258D01*
X131002706Y-103369817D01*
X130999811Y-103435758D01*
X130998631Y-103516710D01*
X130998614Y-103528226D01*
X130998614Y-103728822D01*
X130860297Y-103728822D01*
X130860297Y-103112683D01*
X130929456Y-103112683D01*
X130969333Y-103113725D01*
X130990107Y-103118358D01*
X130997789Y-103128849D01*
X130998614Y-103138745D01*
X130998614Y-103164806D01*
X131031745Y-103138745D01*
X131069735Y-103120965D01*
X131120770Y-103112174D01*
X131175255Y-103112486D01*
G36*
X130578411Y-103116417D02*
X130631411Y-103129290D01*
X130646731Y-103136110D01*
X130676428Y-103153974D01*
X130699220Y-103174093D01*
X130716083Y-103199962D01*
X130727998Y-103235073D01*
X130735942Y-103282920D01*
X130740894Y-103346996D01*
X130743831Y-103430794D01*
X130744947Y-103486768D01*
X130749052Y-103728822D01*
X130678932Y-103728822D01*
X130636393Y-103727038D01*
X130614476Y-103720942D01*
X130608812Y-103710706D01*
X130605821Y-103699637D01*
X130592451Y-103701754D01*
X130574233Y-103710629D01*
X130528624Y-103724233D01*
X130470007Y-103727899D01*
X130408354Y-103721903D01*
X130353638Y-103706521D01*
X130348730Y-103704386D01*
X130298723Y-103669255D01*
X130265756Y-103620419D01*
X130250587Y-103563333D01*
X130251746Y-103542824D01*
X130375508Y-103542824D01*
X130386413Y-103570425D01*
X130418745Y-103590204D01*
X130470910Y-103600819D01*
X130498787Y-103602228D01*
X130545247Y-103598620D01*
X130576129Y-103584597D01*
X130583664Y-103577931D01*
X130604076Y-103541666D01*
X130608812Y-103508773D01*
X130608812Y-103464763D01*
X130547513Y-103464763D01*
X130476256Y-103468395D01*
X130426276Y-103479818D01*
X130394696Y-103499824D01*
X130387626Y-103508743D01*
X130375508Y-103542824D01*
X130251746Y-103542824D01*
X130253971Y-103503456D01*
X130276663Y-103446244D01*
X130307624Y-103407580D01*
X130326376Y-103390864D01*
X130344733Y-103379878D01*
X130368619Y-103373180D01*
X130403957Y-103369326D01*
X130456669Y-103366873D01*
X130477577Y-103366168D01*
X130608812Y-103361879D01*
X130608620Y-103322158D01*
X130603537Y-103280405D01*
X130585162Y-103255158D01*
X130548039Y-103239030D01*
X130547043Y-103238742D01*
X130494410Y-103232400D01*
X130442906Y-103240684D01*
X130404630Y-103260827D01*
X130389272Y-103270773D01*
X130372730Y-103269397D01*
X130347275Y-103254987D01*
X130332328Y-103244817D01*
X130303091Y-103223088D01*
X130284980Y-103206800D01*
X130282074Y-103202137D01*
X130294040Y-103178005D01*
X130329396Y-103149185D01*
X130344753Y-103139461D01*
X130388901Y-103122714D01*
X130448398Y-103113227D01*
X130514487Y-103111095D01*
X130578411Y-103116417D01*
X130578411Y-103116417D01*
G37*
X130578411Y-103116417D02*
X130631411Y-103129290D01*
X130646731Y-103136110D01*
X130676428Y-103153974D01*
X130699220Y-103174093D01*
X130716083Y-103199962D01*
X130727998Y-103235073D01*
X130735942Y-103282920D01*
X130740894Y-103346996D01*
X130743831Y-103430794D01*
X130744947Y-103486768D01*
X130749052Y-103728822D01*
X130678932Y-103728822D01*
X130636393Y-103727038D01*
X130614476Y-103720942D01*
X130608812Y-103710706D01*
X130605821Y-103699637D01*
X130592451Y-103701754D01*
X130574233Y-103710629D01*
X130528624Y-103724233D01*
X130470007Y-103727899D01*
X130408354Y-103721903D01*
X130353638Y-103706521D01*
X130348730Y-103704386D01*
X130298723Y-103669255D01*
X130265756Y-103620419D01*
X130250587Y-103563333D01*
X130251746Y-103542824D01*
X130375508Y-103542824D01*
X130386413Y-103570425D01*
X130418745Y-103590204D01*
X130470910Y-103600819D01*
X130498787Y-103602228D01*
X130545247Y-103598620D01*
X130576129Y-103584597D01*
X130583664Y-103577931D01*
X130604076Y-103541666D01*
X130608812Y-103508773D01*
X130608812Y-103464763D01*
X130547513Y-103464763D01*
X130476256Y-103468395D01*
X130426276Y-103479818D01*
X130394696Y-103499824D01*
X130387626Y-103508743D01*
X130375508Y-103542824D01*
X130251746Y-103542824D01*
X130253971Y-103503456D01*
X130276663Y-103446244D01*
X130307624Y-103407580D01*
X130326376Y-103390864D01*
X130344733Y-103379878D01*
X130368619Y-103373180D01*
X130403957Y-103369326D01*
X130456669Y-103366873D01*
X130477577Y-103366168D01*
X130608812Y-103361879D01*
X130608620Y-103322158D01*
X130603537Y-103280405D01*
X130585162Y-103255158D01*
X130548039Y-103239030D01*
X130547043Y-103238742D01*
X130494410Y-103232400D01*
X130442906Y-103240684D01*
X130404630Y-103260827D01*
X130389272Y-103270773D01*
X130372730Y-103269397D01*
X130347275Y-103254987D01*
X130332328Y-103244817D01*
X130303091Y-103223088D01*
X130284980Y-103206800D01*
X130282074Y-103202137D01*
X130294040Y-103178005D01*
X130329396Y-103149185D01*
X130344753Y-103139461D01*
X130388901Y-103122714D01*
X130448398Y-103113227D01*
X130514487Y-103111095D01*
X130578411Y-103116417D01*
G36*
X129821524Y-103115237D02*
X129871255Y-103118971D01*
X130001291Y-103508773D01*
X130021678Y-103439614D01*
X130033946Y-103396874D01*
X130050085Y-103339115D01*
X130067512Y-103275625D01*
X130076726Y-103241570D01*
X130111388Y-103112683D01*
X130254391Y-103112683D01*
X130211646Y-103247857D01*
X130190596Y-103314342D01*
X130165167Y-103394539D01*
X130138610Y-103478193D01*
X130114902Y-103552782D01*
X130060902Y-103722535D01*
X130002598Y-103726328D01*
X129944295Y-103730122D01*
X129912679Y-103625734D01*
X129893182Y-103560889D01*
X129871904Y-103489400D01*
X129853308Y-103426263D01*
X129852574Y-103423750D01*
X129838684Y-103380969D01*
X129826429Y-103351779D01*
X129817846Y-103340741D01*
X129816082Y-103342018D01*
X129809891Y-103359130D01*
X129798128Y-103395787D01*
X129782225Y-103447378D01*
X129763614Y-103509294D01*
X129753543Y-103543352D01*
X129699007Y-103728822D01*
X129583264Y-103728822D01*
X129490737Y-103436471D01*
X129464744Y-103354462D01*
X129441066Y-103279987D01*
X129420820Y-103216544D01*
X129405126Y-103167632D01*
X129395102Y-103136749D01*
X129392055Y-103127726D01*
X129394467Y-103118487D01*
X129413408Y-103114441D01*
X129452823Y-103114846D01*
X129458993Y-103115152D01*
X129532086Y-103118971D01*
X129579957Y-103295010D01*
X129597553Y-103359211D01*
X129613277Y-103415649D01*
X129625746Y-103459422D01*
X129633574Y-103485630D01*
X129635020Y-103489903D01*
X129641014Y-103484990D01*
X129653101Y-103459532D01*
X129669893Y-103416997D01*
X129690003Y-103360850D01*
X129707003Y-103310130D01*
X129771794Y-103111504D01*
X129821524Y-103115237D01*
X129821524Y-103115237D01*
G37*
X129821524Y-103115237D02*
X129871255Y-103118971D01*
X130001291Y-103508773D01*
X130021678Y-103439614D01*
X130033946Y-103396874D01*
X130050085Y-103339115D01*
X130067512Y-103275625D01*
X130076726Y-103241570D01*
X130111388Y-103112683D01*
X130254391Y-103112683D01*
X130211646Y-103247857D01*
X130190596Y-103314342D01*
X130165167Y-103394539D01*
X130138610Y-103478193D01*
X130114902Y-103552782D01*
X130060902Y-103722535D01*
X130002598Y-103726328D01*
X129944295Y-103730122D01*
X129912679Y-103625734D01*
X129893182Y-103560889D01*
X129871904Y-103489400D01*
X129853308Y-103426263D01*
X129852574Y-103423750D01*
X129838684Y-103380969D01*
X129826429Y-103351779D01*
X129817846Y-103340741D01*
X129816082Y-103342018D01*
X129809891Y-103359130D01*
X129798128Y-103395787D01*
X129782225Y-103447378D01*
X129763614Y-103509294D01*
X129753543Y-103543352D01*
X129699007Y-103728822D01*
X129583264Y-103728822D01*
X129490737Y-103436471D01*
X129464744Y-103354462D01*
X129441066Y-103279987D01*
X129420820Y-103216544D01*
X129405126Y-103167632D01*
X129395102Y-103136749D01*
X129392055Y-103127726D01*
X129394467Y-103118487D01*
X129413408Y-103114441D01*
X129452823Y-103114846D01*
X129458993Y-103115152D01*
X129532086Y-103118971D01*
X129579957Y-103295010D01*
X129597553Y-103359211D01*
X129613277Y-103415649D01*
X129625746Y-103459422D01*
X129633574Y-103485630D01*
X129635020Y-103489903D01*
X129641014Y-103484990D01*
X129653101Y-103459532D01*
X129669893Y-103416997D01*
X129690003Y-103360850D01*
X129707003Y-103310130D01*
X129771794Y-103111504D01*
X129821524Y-103115237D01*
G36*
X129338812Y-103728822D02*
X129269654Y-103728822D01*
X129229512Y-103727645D01*
X129208606Y-103722772D01*
X129201078Y-103712186D01*
X129200495Y-103705029D01*
X129199226Y-103690676D01*
X129191221Y-103687923D01*
X129170185Y-103696771D01*
X129153827Y-103705029D01*
X129091023Y-103724597D01*
X129022752Y-103725729D01*
X128967248Y-103711135D01*
X128915562Y-103675877D01*
X128876162Y-103623835D01*
X128854587Y-103562450D01*
X128854038Y-103559018D01*
X128850833Y-103521571D01*
X128849239Y-103467813D01*
X128849367Y-103427155D01*
X128986721Y-103427155D01*
X128989903Y-103481194D01*
X128997141Y-103525735D01*
X129006940Y-103550888D01*
X129044011Y-103585260D01*
X129088026Y-103597582D01*
X129133416Y-103587618D01*
X129172203Y-103557895D01*
X129186892Y-103537905D01*
X129195481Y-103514050D01*
X129199504Y-103479230D01*
X129200495Y-103426930D01*
X129198722Y-103375139D01*
X129194037Y-103329634D01*
X129187397Y-103299181D01*
X129186290Y-103296452D01*
X129159509Y-103264000D01*
X129120421Y-103246183D01*
X129076685Y-103243306D01*
X129035962Y-103255674D01*
X129005913Y-103283593D01*
X129002796Y-103289148D01*
X128993039Y-103323022D01*
X128987723Y-103371728D01*
X128986721Y-103427155D01*
X128849367Y-103427155D01*
X128849432Y-103406540D01*
X128850336Y-103373563D01*
X128856486Y-103291981D01*
X128869267Y-103230730D01*
X128890529Y-103185449D01*
X128922122Y-103151779D01*
X128952793Y-103132014D01*
X128995646Y-103118120D01*
X129048944Y-103113354D01*
X129103520Y-103117236D01*
X129150208Y-103129282D01*
X129174876Y-103143693D01*
X129200495Y-103166878D01*
X129200495Y-102873773D01*
X129338812Y-102873773D01*
X129338812Y-103728822D01*
X129338812Y-103728822D01*
G37*
X129338812Y-103728822D02*
X129269654Y-103728822D01*
X129229512Y-103727645D01*
X129208606Y-103722772D01*
X129201078Y-103712186D01*
X129200495Y-103705029D01*
X129199226Y-103690676D01*
X129191221Y-103687923D01*
X129170185Y-103696771D01*
X129153827Y-103705029D01*
X129091023Y-103724597D01*
X129022752Y-103725729D01*
X128967248Y-103711135D01*
X128915562Y-103675877D01*
X128876162Y-103623835D01*
X128854587Y-103562450D01*
X128854038Y-103559018D01*
X128850833Y-103521571D01*
X128849239Y-103467813D01*
X128849367Y-103427155D01*
X128986721Y-103427155D01*
X128989903Y-103481194D01*
X128997141Y-103525735D01*
X129006940Y-103550888D01*
X129044011Y-103585260D01*
X129088026Y-103597582D01*
X129133416Y-103587618D01*
X129172203Y-103557895D01*
X129186892Y-103537905D01*
X129195481Y-103514050D01*
X129199504Y-103479230D01*
X129200495Y-103426930D01*
X129198722Y-103375139D01*
X129194037Y-103329634D01*
X129187397Y-103299181D01*
X129186290Y-103296452D01*
X129159509Y-103264000D01*
X129120421Y-103246183D01*
X129076685Y-103243306D01*
X129035962Y-103255674D01*
X129005913Y-103283593D01*
X129002796Y-103289148D01*
X128993039Y-103323022D01*
X128987723Y-103371728D01*
X128986721Y-103427155D01*
X128849367Y-103427155D01*
X128849432Y-103406540D01*
X128850336Y-103373563D01*
X128856486Y-103291981D01*
X128869267Y-103230730D01*
X128890529Y-103185449D01*
X128922122Y-103151779D01*
X128952793Y-103132014D01*
X128995646Y-103118120D01*
X129048944Y-103113354D01*
X129103520Y-103117236D01*
X129150208Y-103129282D01*
X129174876Y-103143693D01*
X129200495Y-103166878D01*
X129200495Y-102873773D01*
X129338812Y-102873773D01*
X129338812Y-103728822D01*
G36*
X128546644Y-103114020D02*
X128565461Y-103119660D01*
X128571527Y-103132053D01*
X128571782Y-103137647D01*
X128572871Y-103153230D01*
X128580368Y-103155676D01*
X128600619Y-103144993D01*
X128612649Y-103137694D01*
X128650600Y-103122063D01*
X128695928Y-103114334D01*
X128743456Y-103113740D01*
X128788005Y-103119513D01*
X128824398Y-103130884D01*
X128847457Y-103147088D01*
X128852004Y-103167355D01*
X128849709Y-103172843D01*
X128832980Y-103195626D01*
X128807037Y-103223647D01*
X128802345Y-103228177D01*
X128777617Y-103249005D01*
X128756282Y-103255735D01*
X128726445Y-103251038D01*
X128714492Y-103247917D01*
X128677295Y-103240421D01*
X128651141Y-103243792D01*
X128629054Y-103255681D01*
X128608822Y-103271635D01*
X128593921Y-103291700D01*
X128583566Y-103319702D01*
X128576971Y-103359467D01*
X128573351Y-103414823D01*
X128571922Y-103489594D01*
X128571782Y-103534740D01*
X128571782Y-103728822D01*
X128446040Y-103728822D01*
X128446040Y-103112683D01*
X128508911Y-103112683D01*
X128546644Y-103114020D01*
X128546644Y-103114020D01*
G37*
X128546644Y-103114020D02*
X128565461Y-103119660D01*
X128571527Y-103132053D01*
X128571782Y-103137647D01*
X128572871Y-103153230D01*
X128580368Y-103155676D01*
X128600619Y-103144993D01*
X128612649Y-103137694D01*
X128650600Y-103122063D01*
X128695928Y-103114334D01*
X128743456Y-103113740D01*
X128788005Y-103119513D01*
X128824398Y-103130884D01*
X128847457Y-103147088D01*
X128852004Y-103167355D01*
X128849709Y-103172843D01*
X128832980Y-103195626D01*
X128807037Y-103223647D01*
X128802345Y-103228177D01*
X128777617Y-103249005D01*
X128756282Y-103255735D01*
X128726445Y-103251038D01*
X128714492Y-103247917D01*
X128677295Y-103240421D01*
X128651141Y-103243792D01*
X128629054Y-103255681D01*
X128608822Y-103271635D01*
X128593921Y-103291700D01*
X128583566Y-103319702D01*
X128576971Y-103359467D01*
X128573351Y-103414823D01*
X128571922Y-103489594D01*
X128571782Y-103534740D01*
X128571782Y-103728822D01*
X128446040Y-103728822D01*
X128446040Y-103112683D01*
X128508911Y-103112683D01*
X128546644Y-103114020D01*
G36*
X128155790Y-103117555D02*
X128214945Y-103133339D01*
X128259977Y-103161948D01*
X128291754Y-103199419D01*
X128301634Y-103215411D01*
X128308927Y-103232163D01*
X128314026Y-103253592D01*
X128317321Y-103283616D01*
X128319203Y-103326154D01*
X128320063Y-103385122D01*
X128320293Y-103464440D01*
X128320297Y-103485484D01*
X128320297Y-103728822D01*
X128259941Y-103728822D01*
X128221443Y-103726126D01*
X128192977Y-103719295D01*
X128185845Y-103715083D01*
X128166348Y-103707813D01*
X128146434Y-103715083D01*
X128113647Y-103724160D01*
X128066022Y-103727813D01*
X128013236Y-103726228D01*
X127964964Y-103719589D01*
X127936782Y-103711072D01*
X127882247Y-103676063D01*
X127848165Y-103627479D01*
X127832843Y-103562882D01*
X127832701Y-103561223D01*
X127834045Y-103532566D01*
X127955644Y-103532566D01*
X127966274Y-103565161D01*
X127983590Y-103583505D01*
X128018348Y-103597379D01*
X128064227Y-103602917D01*
X128111012Y-103600191D01*
X128148486Y-103589274D01*
X128158985Y-103582269D01*
X128177332Y-103549904D01*
X128181980Y-103513111D01*
X128181980Y-103464763D01*
X128112418Y-103464763D01*
X128046333Y-103469850D01*
X127996236Y-103484263D01*
X127965071Y-103506729D01*
X127955644Y-103532566D01*
X127834045Y-103532566D01*
X127836013Y-103490647D01*
X127859290Y-103434845D01*
X127903052Y-103392647D01*
X127909101Y-103388808D01*
X127935093Y-103376309D01*
X127967265Y-103368740D01*
X128012240Y-103365061D01*
X128065669Y-103364216D01*
X128181980Y-103364169D01*
X128181980Y-103315411D01*
X128177047Y-103277581D01*
X128164457Y-103252236D01*
X128162983Y-103250887D01*
X128134966Y-103239800D01*
X128092674Y-103235503D01*
X128045936Y-103237615D01*
X128004582Y-103245756D01*
X127980043Y-103257965D01*
X127966747Y-103267746D01*
X127952706Y-103269613D01*
X127933329Y-103261600D01*
X127904024Y-103241739D01*
X127860197Y-103208063D01*
X127856175Y-103204909D01*
X127858236Y-103193236D01*
X127875432Y-103173822D01*
X127901567Y-103152248D01*
X127930448Y-103134096D01*
X127939522Y-103129809D01*
X127972620Y-103121256D01*
X128021120Y-103115155D01*
X128075305Y-103112708D01*
X128077839Y-103112703D01*
X128155790Y-103117555D01*
X128155790Y-103117555D01*
G37*
X128155790Y-103117555D02*
X128214945Y-103133339D01*
X128259977Y-103161948D01*
X128291754Y-103199419D01*
X128301634Y-103215411D01*
X128308927Y-103232163D01*
X128314026Y-103253592D01*
X128317321Y-103283616D01*
X128319203Y-103326154D01*
X128320063Y-103385122D01*
X128320293Y-103464440D01*
X128320297Y-103485484D01*
X128320297Y-103728822D01*
X128259941Y-103728822D01*
X128221443Y-103726126D01*
X128192977Y-103719295D01*
X128185845Y-103715083D01*
X128166348Y-103707813D01*
X128146434Y-103715083D01*
X128113647Y-103724160D01*
X128066022Y-103727813D01*
X128013236Y-103726228D01*
X127964964Y-103719589D01*
X127936782Y-103711072D01*
X127882247Y-103676063D01*
X127848165Y-103627479D01*
X127832843Y-103562882D01*
X127832701Y-103561223D01*
X127834045Y-103532566D01*
X127955644Y-103532566D01*
X127966274Y-103565161D01*
X127983590Y-103583505D01*
X128018348Y-103597379D01*
X128064227Y-103602917D01*
X128111012Y-103600191D01*
X128148486Y-103589274D01*
X128158985Y-103582269D01*
X128177332Y-103549904D01*
X128181980Y-103513111D01*
X128181980Y-103464763D01*
X128112418Y-103464763D01*
X128046333Y-103469850D01*
X127996236Y-103484263D01*
X127965071Y-103506729D01*
X127955644Y-103532566D01*
X127834045Y-103532566D01*
X127836013Y-103490647D01*
X127859290Y-103434845D01*
X127903052Y-103392647D01*
X127909101Y-103388808D01*
X127935093Y-103376309D01*
X127967265Y-103368740D01*
X128012240Y-103365061D01*
X128065669Y-103364216D01*
X128181980Y-103364169D01*
X128181980Y-103315411D01*
X128177047Y-103277581D01*
X128164457Y-103252236D01*
X128162983Y-103250887D01*
X128134966Y-103239800D01*
X128092674Y-103235503D01*
X128045936Y-103237615D01*
X128004582Y-103245756D01*
X127980043Y-103257965D01*
X127966747Y-103267746D01*
X127952706Y-103269613D01*
X127933329Y-103261600D01*
X127904024Y-103241739D01*
X127860197Y-103208063D01*
X127856175Y-103204909D01*
X127858236Y-103193236D01*
X127875432Y-103173822D01*
X127901567Y-103152248D01*
X127930448Y-103134096D01*
X127939522Y-103129809D01*
X127972620Y-103121256D01*
X128021120Y-103115155D01*
X128075305Y-103112708D01*
X128077839Y-103112703D01*
X128155790Y-103117555D01*
G36*
X127631241Y-102180184D02*
X127657753Y-102193282D01*
X127690447Y-102216106D01*
X127714275Y-102240996D01*
X127730594Y-102272249D01*
X127740760Y-102314166D01*
X127746128Y-102371044D01*
X127748056Y-102447184D01*
X127748169Y-102479917D01*
X127747839Y-102551656D01*
X127746473Y-102602927D01*
X127743500Y-102638404D01*
X127738351Y-102662763D01*
X127730457Y-102680680D01*
X127722243Y-102692902D01*
X127669813Y-102744905D01*
X127608070Y-102776184D01*
X127541464Y-102785592D01*
X127474442Y-102771980D01*
X127453208Y-102762354D01*
X127402376Y-102735859D01*
X127402376Y-103151052D01*
X127439475Y-103131868D01*
X127488357Y-103117025D01*
X127548439Y-103113222D01*
X127608436Y-103120243D01*
X127653744Y-103136013D01*
X127691325Y-103166047D01*
X127723436Y-103209024D01*
X127725850Y-103213436D01*
X127736033Y-103234221D01*
X127743470Y-103255170D01*
X127748589Y-103280548D01*
X127751819Y-103314618D01*
X127753587Y-103361641D01*
X127754323Y-103425882D01*
X127754456Y-103498176D01*
X127754456Y-103728822D01*
X127616139Y-103728822D01*
X127616139Y-103303533D01*
X127577451Y-103270979D01*
X127537262Y-103244940D01*
X127499203Y-103240205D01*
X127460934Y-103252389D01*
X127440538Y-103264320D01*
X127425358Y-103281313D01*
X127414562Y-103306995D01*
X127407317Y-103344991D01*
X127402792Y-103398926D01*
X127400156Y-103472425D01*
X127399228Y-103521347D01*
X127396089Y-103722535D01*
X127330074Y-103726336D01*
X127264060Y-103730136D01*
X127264060Y-102481650D01*
X127402376Y-102481650D01*
X127405903Y-102551254D01*
X127417785Y-102599569D01*
X127439980Y-102629631D01*
X127474441Y-102644471D01*
X127509258Y-102647436D01*
X127548671Y-102644028D01*
X127574829Y-102630617D01*
X127591186Y-102612896D01*
X127604063Y-102593835D01*
X127611728Y-102572601D01*
X127615139Y-102542849D01*
X127615251Y-102498236D01*
X127614103Y-102460880D01*
X127611468Y-102404604D01*
X127607544Y-102367658D01*
X127600937Y-102344223D01*
X127590251Y-102328480D01*
X127580167Y-102319380D01*
X127538030Y-102299537D01*
X127488160Y-102296332D01*
X127459524Y-102303168D01*
X127431172Y-102327464D01*
X127412391Y-102374728D01*
X127403288Y-102444624D01*
X127402376Y-102481650D01*
X127264060Y-102481650D01*
X127264060Y-102169614D01*
X127333218Y-102169614D01*
X127374740Y-102171256D01*
X127396162Y-102177087D01*
X127402374Y-102188461D01*
X127402376Y-102188798D01*
X127405258Y-102199938D01*
X127417970Y-102198673D01*
X127443243Y-102186433D01*
X127502131Y-102167707D01*
X127568385Y-102165739D01*
X127631241Y-102180184D01*
X127631241Y-102180184D01*
G37*
X127631241Y-102180184D02*
X127657753Y-102193282D01*
X127690447Y-102216106D01*
X127714275Y-102240996D01*
X127730594Y-102272249D01*
X127740760Y-102314166D01*
X127746128Y-102371044D01*
X127748056Y-102447184D01*
X127748169Y-102479917D01*
X127747839Y-102551656D01*
X127746473Y-102602927D01*
X127743500Y-102638404D01*
X127738351Y-102662763D01*
X127730457Y-102680680D01*
X127722243Y-102692902D01*
X127669813Y-102744905D01*
X127608070Y-102776184D01*
X127541464Y-102785592D01*
X127474442Y-102771980D01*
X127453208Y-102762354D01*
X127402376Y-102735859D01*
X127402376Y-103151052D01*
X127439475Y-103131868D01*
X127488357Y-103117025D01*
X127548439Y-103113222D01*
X127608436Y-103120243D01*
X127653744Y-103136013D01*
X127691325Y-103166047D01*
X127723436Y-103209024D01*
X127725850Y-103213436D01*
X127736033Y-103234221D01*
X127743470Y-103255170D01*
X127748589Y-103280548D01*
X127751819Y-103314618D01*
X127753587Y-103361641D01*
X127754323Y-103425882D01*
X127754456Y-103498176D01*
X127754456Y-103728822D01*
X127616139Y-103728822D01*
X127616139Y-103303533D01*
X127577451Y-103270979D01*
X127537262Y-103244940D01*
X127499203Y-103240205D01*
X127460934Y-103252389D01*
X127440538Y-103264320D01*
X127425358Y-103281313D01*
X127414562Y-103306995D01*
X127407317Y-103344991D01*
X127402792Y-103398926D01*
X127400156Y-103472425D01*
X127399228Y-103521347D01*
X127396089Y-103722535D01*
X127330074Y-103726336D01*
X127264060Y-103730136D01*
X127264060Y-102481650D01*
X127402376Y-102481650D01*
X127405903Y-102551254D01*
X127417785Y-102599569D01*
X127439980Y-102629631D01*
X127474441Y-102644471D01*
X127509258Y-102647436D01*
X127548671Y-102644028D01*
X127574829Y-102630617D01*
X127591186Y-102612896D01*
X127604063Y-102593835D01*
X127611728Y-102572601D01*
X127615139Y-102542849D01*
X127615251Y-102498236D01*
X127614103Y-102460880D01*
X127611468Y-102404604D01*
X127607544Y-102367658D01*
X127600937Y-102344223D01*
X127590251Y-102328480D01*
X127580167Y-102319380D01*
X127538030Y-102299537D01*
X127488160Y-102296332D01*
X127459524Y-102303168D01*
X127431172Y-102327464D01*
X127412391Y-102374728D01*
X127403288Y-102444624D01*
X127402376Y-102481650D01*
X127264060Y-102481650D01*
X127264060Y-102169614D01*
X127333218Y-102169614D01*
X127374740Y-102171256D01*
X127396162Y-102177087D01*
X127402374Y-102188461D01*
X127402376Y-102188798D01*
X127405258Y-102199938D01*
X127417970Y-102198673D01*
X127443243Y-102186433D01*
X127502131Y-102167707D01*
X127568385Y-102165739D01*
X127631241Y-102180184D01*
D15*
G04 #@! TO.C,J1*
X131131000Y-61882000D02*
X131131000Y-62684470D01*
X131131000Y-63299530D02*
X131131000Y-64102000D01*
X134876000Y-61882000D02*
X131131000Y-61882000D01*
X134876000Y-64102000D02*
X131131000Y-64102000D01*
X134876000Y-61882000D02*
X134876000Y-62428529D01*
X134876000Y-63555471D02*
X134876000Y-64102000D01*
X135636000Y-61882000D02*
X136396000Y-61882000D01*
X136396000Y-61882000D02*
X136396000Y-62992000D01*
G04 #@! TO.C,J2*
X136147000Y-137076000D02*
X135797000Y-137586000D01*
X135947000Y-134566000D02*
X135947000Y-134306000D01*
X136147000Y-134766000D02*
X135947000Y-134566000D01*
X136147000Y-144166000D02*
X135947000Y-143956000D01*
X135797000Y-143956000D02*
X135947000Y-143956000D01*
X135797000Y-143956000D02*
X135797000Y-137586000D01*
X131187000Y-147056000D02*
X132987000Y-147056000D01*
X125187000Y-147056000D02*
X129887000Y-147056000D01*
X136147000Y-146026000D02*
X135947000Y-146226000D01*
X136147000Y-146026000D02*
X136147000Y-144166000D01*
X136147000Y-134766000D02*
X136147000Y-137076000D01*
X119877000Y-147056000D02*
X123487000Y-147056000D01*
X119877000Y-146606000D02*
X119877000Y-147056000D01*
X119877000Y-133086000D02*
X133887000Y-133086000D01*
X119877000Y-135006000D02*
X119877000Y-133086000D01*
G04 #@! TO.C,J3*
X126483203Y-81145105D02*
X125373203Y-81145105D01*
X126483203Y-80385105D02*
X126483203Y-81145105D01*
X124809732Y-79625105D02*
X124263203Y-79625105D01*
X126483203Y-79625105D02*
X125936674Y-79625105D01*
X124263203Y-79625105D02*
X124263203Y-75880105D01*
X126483203Y-79625105D02*
X126483203Y-75880105D01*
X125065673Y-75880105D02*
X124263203Y-75880105D01*
X126483203Y-75880105D02*
X125680733Y-75880105D01*
G04 #@! TO.C,J5*
X138270000Y-117092000D02*
X137160000Y-117092000D01*
X138270000Y-116332000D02*
X138270000Y-117092000D01*
X136596529Y-115572000D02*
X136050000Y-115572000D01*
X138270000Y-115572000D02*
X137723471Y-115572000D01*
X136050000Y-115572000D02*
X136050000Y-114367000D01*
X138270000Y-115572000D02*
X138270000Y-114367000D01*
X136852470Y-114367000D02*
X136050000Y-114367000D01*
X138270000Y-114367000D02*
X137467530Y-114367000D01*
G04 #@! TO.C,J7*
X114460000Y-75625000D02*
X115262470Y-75625000D01*
X115877530Y-75625000D02*
X116680000Y-75625000D01*
X114460000Y-71880000D02*
X114460000Y-75625000D01*
X116680000Y-71880000D02*
X116680000Y-75625000D01*
X114460000Y-71880000D02*
X115006529Y-71880000D01*
X116133471Y-71880000D02*
X116680000Y-71880000D01*
X114460000Y-71120000D02*
X114460000Y-70360000D01*
X114460000Y-70360000D02*
X115570000Y-70360000D01*
G04 #@! TO.C,JP1*
X125839000Y-83231000D02*
X125839000Y-82631000D01*
X129289000Y-83931000D02*
X126489000Y-83931000D01*
X129939000Y-82631000D02*
X129939000Y-83231000D01*
X126489000Y-81931000D02*
X129289000Y-81931000D01*
X129239000Y-81931000D02*
G75*
G02X129939000Y-82631000I0J-700000D01*
G01*
X129939000Y-83231000D02*
G75*
G02X129239000Y-83931000I-700000J0D01*
G01*
X126539000Y-83931000D02*
G75*
G02X125839000Y-83231000I0J700000D01*
G01*
X125839000Y-82631000D02*
G75*
G02X126539000Y-81931000I700000J0D01*
G01*
G04 #@! TO.C,JP2*
X129270000Y-80568000D02*
G75*
G02X128570000Y-81268000I-700000J0D01*
G01*
X127970000Y-81268000D02*
G75*
G02X127270000Y-80568000I0J700000D01*
G01*
X127270000Y-79168000D02*
G75*
G02X127970000Y-78468000I700000J0D01*
G01*
X128570000Y-78468000D02*
G75*
G02X129270000Y-79168000I0J-700000D01*
G01*
X127970000Y-78468000D02*
X128570000Y-78468000D01*
X127270000Y-80568000D02*
X127270000Y-79168000D01*
X128570000Y-81268000D02*
X127970000Y-81268000D01*
X129270000Y-79168000D02*
X129270000Y-80568000D01*
G04 #@! TO.C,R1*
X131878000Y-90685252D02*
X131878000Y-90162748D01*
X133298000Y-90685252D02*
X133298000Y-90162748D01*
D10*
G04 #@! TO.C,U1*
X135229000Y-68681000D02*
X135229000Y-68506000D01*
X131979000Y-68681000D02*
X131979000Y-68406000D01*
X131979000Y-65431000D02*
X131979000Y-65706000D01*
X135229000Y-65431000D02*
X135229000Y-65706000D01*
X135229000Y-68681000D02*
X131979000Y-68681000D01*
X135229000Y-65431000D02*
X131979000Y-65431000D01*
X135229000Y-68506000D02*
X136304000Y-68506000D01*
D15*
G04 #@! TO.C,U2*
X126609999Y-92856999D02*
X125709999Y-92856999D01*
X125709999Y-92856999D02*
X125709999Y-91956999D01*
X130029999Y-87636999D02*
X130929999Y-87636999D01*
X130929999Y-87636999D02*
X130929999Y-88536999D01*
X126609999Y-87636999D02*
X125709999Y-87636999D01*
X125709999Y-87636999D02*
X125709999Y-88536999D01*
X130029999Y-92856999D02*
X130929999Y-92856999D01*
G04 #@! TO.C,J4*
X123696000Y-61882000D02*
X123696000Y-62992000D01*
X122936000Y-61882000D02*
X123696000Y-61882000D01*
X122176000Y-63555471D02*
X122176000Y-64102000D01*
X122176000Y-61882000D02*
X122176000Y-62428529D01*
X122176000Y-64102000D02*
X120971000Y-64102000D01*
X122176000Y-61882000D02*
X120971000Y-61882000D01*
X120971000Y-63299530D02*
X120971000Y-64102000D01*
X120971000Y-61882000D02*
X120971000Y-62684470D01*
G04 #@! TO.C,J6*
X139286000Y-90237000D02*
X138483530Y-90237000D01*
X137868470Y-90237000D02*
X137066000Y-90237000D01*
X139286000Y-91442000D02*
X139286000Y-90237000D01*
X137066000Y-91442000D02*
X137066000Y-90237000D01*
X139286000Y-91442000D02*
X138739471Y-91442000D01*
X137612529Y-91442000D02*
X137066000Y-91442000D01*
X139286000Y-92202000D02*
X139286000Y-92962000D01*
X139286000Y-92962000D02*
X138176000Y-92962000D01*
G04 #@! TO.C,J8*
X138590000Y-75625000D02*
X139392470Y-75625000D01*
X140007530Y-75625000D02*
X140810000Y-75625000D01*
X138590000Y-71880000D02*
X138590000Y-75625000D01*
X140810000Y-71880000D02*
X140810000Y-75625000D01*
X138590000Y-71880000D02*
X139136529Y-71880000D01*
X140263471Y-71880000D02*
X140810000Y-71880000D01*
X138590000Y-71120000D02*
X138590000Y-70360000D01*
X138590000Y-70360000D02*
X139700000Y-70360000D01*
G04 #@! TO.C,J9*
X120683000Y-110296000D02*
X121485470Y-110296000D01*
X122100530Y-110296000D02*
X122903000Y-110296000D01*
X120683000Y-107821000D02*
X120683000Y-110296000D01*
X122903000Y-107821000D02*
X122903000Y-110296000D01*
X120683000Y-107821000D02*
X121229529Y-107821000D01*
X122356471Y-107821000D02*
X122903000Y-107821000D01*
X120683000Y-107061000D02*
X120683000Y-106301000D01*
X120683000Y-106301000D02*
X121793000Y-106301000D01*
G04 #@! TO.C,J10*
X130970000Y-106301000D02*
X132080000Y-106301000D01*
X130970000Y-107061000D02*
X130970000Y-106301000D01*
X132643471Y-107821000D02*
X133190000Y-107821000D01*
X130970000Y-107821000D02*
X131516529Y-107821000D01*
X133190000Y-107821000D02*
X133190000Y-110296000D01*
X130970000Y-107821000D02*
X130970000Y-110296000D01*
X132387530Y-110296000D02*
X133190000Y-110296000D01*
X130970000Y-110296000D02*
X131772470Y-110296000D01*
G04 #@! TO.C,JP3*
X129270000Y-77139000D02*
G75*
G02X128570000Y-77839000I-700000J0D01*
G01*
X127970000Y-77839000D02*
G75*
G02X127270000Y-77139000I0J700000D01*
G01*
X127270000Y-75739000D02*
G75*
G02X127970000Y-75039000I700000J0D01*
G01*
X128570000Y-75039000D02*
G75*
G02X129270000Y-75739000I0J-700000D01*
G01*
X127970000Y-75039000D02*
X128570000Y-75039000D01*
X127270000Y-77139000D02*
X127270000Y-75739000D01*
X128570000Y-77839000D02*
X127970000Y-77839000D01*
X129270000Y-75739000D02*
X129270000Y-77139000D01*
G04 #@! TO.C,Q1*
X136088000Y-107440000D02*
X137018000Y-107440000D01*
X139248000Y-107440000D02*
X138318000Y-107440000D01*
X139248000Y-107440000D02*
X139248000Y-105280000D01*
X136088000Y-107440000D02*
X136088000Y-105980000D01*
G04 #@! TO.C,C3*
X122450203Y-78769884D02*
X122450203Y-78444326D01*
X123470203Y-78769884D02*
X123470203Y-78444326D01*
G04 #@! TO.C,D1*
X125249000Y-128232000D02*
X125249000Y-130517000D01*
X125249000Y-130517000D02*
X126719000Y-130517000D01*
X126719000Y-130517000D02*
X126719000Y-128232000D01*
G04 #@! TO.C,D2*
X122655000Y-130542500D02*
X122655000Y-128257500D01*
X121185000Y-130542500D02*
X122655000Y-130542500D01*
X121185000Y-128257500D02*
X121185000Y-130542500D01*
G04 #@! TO.C,J11*
X122903000Y-111700000D02*
X122100530Y-111700000D01*
X121485470Y-111700000D02*
X120683000Y-111700000D01*
X122903000Y-112905000D02*
X122903000Y-111700000D01*
X120683000Y-112905000D02*
X120683000Y-111700000D01*
X122903000Y-112905000D02*
X122356471Y-112905000D01*
X121229529Y-112905000D02*
X120683000Y-112905000D01*
X122903000Y-113665000D02*
X122903000Y-114425000D01*
X122903000Y-114425000D02*
X121793000Y-114425000D01*
G04 #@! TO.C,JM1*
D10*
X135885200Y-82353600D02*
X135885200Y-82120266D01*
X136251866Y-82020266D02*
X136251866Y-82353600D01*
X135551866Y-82353600D01*
X135551866Y-82020266D01*
X136218533Y-81753600D02*
X136251866Y-81653600D01*
X136251866Y-81486933D01*
X136218533Y-81420266D01*
X136185200Y-81386933D01*
X136118533Y-81353600D01*
X136051866Y-81353600D01*
X135985200Y-81386933D01*
X135951866Y-81420266D01*
X135918533Y-81486933D01*
X135885200Y-81620266D01*
X135851866Y-81686933D01*
X135818533Y-81720266D01*
X135751866Y-81753600D01*
X135685200Y-81753600D01*
X135618533Y-81720266D01*
X135585200Y-81686933D01*
X135551866Y-81620266D01*
X135551866Y-81453600D01*
X135585200Y-81353600D01*
X136251866Y-81053600D02*
X135551866Y-81053600D01*
X135551866Y-80786933D01*
X135585200Y-80720266D01*
X135618533Y-80686933D01*
X135685200Y-80653600D01*
X135785200Y-80653600D01*
X135851866Y-80686933D01*
X135885200Y-80720266D01*
X135918533Y-80786933D01*
X135918533Y-81053600D01*
X135551866Y-80420266D02*
X135551866Y-79986933D01*
X135818533Y-80220266D01*
X135818533Y-80120266D01*
X135851866Y-80053600D01*
X135885200Y-80020266D01*
X135951866Y-79986933D01*
X136118533Y-79986933D01*
X136185200Y-80020266D01*
X136218533Y-80053600D01*
X136251866Y-80120266D01*
X136251866Y-80320266D01*
X136218533Y-80386933D01*
X136185200Y-80420266D01*
X135618533Y-79720266D02*
X135585200Y-79686933D01*
X135551866Y-79620266D01*
X135551866Y-79453600D01*
X135585200Y-79386933D01*
X135618533Y-79353600D01*
X135685200Y-79320266D01*
X135751866Y-79320266D01*
X135851866Y-79353600D01*
X136251866Y-79753600D01*
X136251866Y-79320266D01*
X136318533Y-79186933D02*
X136318533Y-78653600D01*
X135551866Y-78553600D02*
X136251866Y-78386933D01*
X135751866Y-78253600D01*
X136251866Y-78120266D01*
X135551866Y-77953600D01*
X136251866Y-77286933D02*
X135918533Y-77520266D01*
X136251866Y-77686933D02*
X135551866Y-77686933D01*
X135551866Y-77420266D01*
X135585200Y-77353600D01*
X135618533Y-77320266D01*
X135685200Y-77286933D01*
X135785200Y-77286933D01*
X135851866Y-77320266D01*
X135885200Y-77353600D01*
X135918533Y-77420266D01*
X135918533Y-77686933D01*
X135551866Y-76853600D02*
X135551866Y-76720266D01*
X135585200Y-76653600D01*
X135651866Y-76586933D01*
X135785200Y-76553600D01*
X136018533Y-76553600D01*
X136151866Y-76586933D01*
X136218533Y-76653600D01*
X136251866Y-76720266D01*
X136251866Y-76853600D01*
X136218533Y-76920266D01*
X136151866Y-76986933D01*
X136018533Y-77020266D01*
X135785200Y-77020266D01*
X135651866Y-76986933D01*
X135585200Y-76920266D01*
X135551866Y-76853600D01*
X135551866Y-76353600D02*
X136251866Y-76120266D01*
X135551866Y-75886933D01*
X135885200Y-75653600D02*
X135885200Y-75420266D01*
X136251866Y-75320266D02*
X136251866Y-75653600D01*
X135551866Y-75653600D01*
X135551866Y-75320266D01*
X136251866Y-74620266D02*
X135918533Y-74853600D01*
X136251866Y-75020266D02*
X135551866Y-75020266D01*
X135551866Y-74753600D01*
X135585200Y-74686933D01*
X135618533Y-74653600D01*
X135685200Y-74620266D01*
X135785200Y-74620266D01*
X135851866Y-74653600D01*
X135885200Y-74686933D01*
X135918533Y-74753600D01*
X135918533Y-75020266D01*
X141171533Y-144011600D02*
X141204866Y-143944933D01*
X141204866Y-143811600D01*
X141171533Y-143744933D01*
X141104866Y-143711600D01*
X141071533Y-143711600D01*
X141004866Y-143744933D01*
X140971533Y-143811600D01*
X140971533Y-143911600D01*
X140938200Y-143978266D01*
X140871533Y-144011600D01*
X140838200Y-144011600D01*
X140771533Y-143978266D01*
X140738200Y-143911600D01*
X140738200Y-143811600D01*
X140771533Y-143744933D01*
X140738200Y-143478266D02*
X141204866Y-143344933D01*
X140871533Y-143211600D01*
X141204866Y-143078266D01*
X140738200Y-142944933D01*
X141204866Y-142678266D02*
X140738200Y-142678266D01*
X140504866Y-142678266D02*
X140538200Y-142711600D01*
X140571533Y-142678266D01*
X140538200Y-142644933D01*
X140504866Y-142678266D01*
X140571533Y-142678266D01*
X140738200Y-142444933D02*
X140738200Y-142178266D01*
X140504866Y-142344933D02*
X141104866Y-142344933D01*
X141171533Y-142311600D01*
X141204866Y-142244933D01*
X141204866Y-142178266D01*
X141171533Y-141644933D02*
X141204866Y-141711600D01*
X141204866Y-141844933D01*
X141171533Y-141911600D01*
X141138200Y-141944933D01*
X141071533Y-141978266D01*
X140871533Y-141978266D01*
X140804866Y-141944933D01*
X140771533Y-141911600D01*
X140738200Y-141844933D01*
X140738200Y-141711600D01*
X140771533Y-141644933D01*
X141204866Y-141344933D02*
X140504866Y-141344933D01*
X141204866Y-141044933D02*
X140838200Y-141044933D01*
X140771533Y-141078266D01*
X140738200Y-141144933D01*
X140738200Y-141244933D01*
X140771533Y-141311600D01*
X140804866Y-141344933D01*
X114534866Y-144861600D02*
X114068200Y-144861600D01*
X114134866Y-144861600D02*
X114101533Y-144828266D01*
X114068200Y-144761600D01*
X114068200Y-144661600D01*
X114101533Y-144594933D01*
X114168200Y-144561600D01*
X114534866Y-144561600D01*
X114168200Y-144561600D02*
X114101533Y-144528266D01*
X114068200Y-144461600D01*
X114068200Y-144361600D01*
X114101533Y-144294933D01*
X114168200Y-144261600D01*
X114534866Y-144261600D01*
X114534866Y-143928266D02*
X114068200Y-143928266D01*
X113834866Y-143928266D02*
X113868200Y-143961600D01*
X113901533Y-143928266D01*
X113868200Y-143894933D01*
X113834866Y-143928266D01*
X113901533Y-143928266D01*
X114501533Y-143294933D02*
X114534866Y-143361600D01*
X114534866Y-143494933D01*
X114501533Y-143561600D01*
X114468200Y-143594933D01*
X114401533Y-143628266D01*
X114201533Y-143628266D01*
X114134866Y-143594933D01*
X114101533Y-143561600D01*
X114068200Y-143494933D01*
X114068200Y-143361600D01*
X114101533Y-143294933D01*
X114534866Y-142994933D02*
X114068200Y-142994933D01*
X114201533Y-142994933D02*
X114134866Y-142961600D01*
X114101533Y-142928266D01*
X114068200Y-142861600D01*
X114068200Y-142794933D01*
X114534866Y-142461600D02*
X114501533Y-142528266D01*
X114468200Y-142561600D01*
X114401533Y-142594933D01*
X114201533Y-142594933D01*
X114134866Y-142561600D01*
X114101533Y-142528266D01*
X114068200Y-142461600D01*
X114068200Y-142361600D01*
X114101533Y-142294933D01*
X114134866Y-142261600D01*
X114201533Y-142228266D01*
X114401533Y-142228266D01*
X114468200Y-142261600D01*
X114501533Y-142294933D01*
X114534866Y-142361600D01*
X114534866Y-142461600D01*
X113834866Y-141928266D02*
X114401533Y-141928266D01*
X114468200Y-141894933D01*
X114501533Y-141861600D01*
X114534866Y-141794933D01*
X114534866Y-141661600D01*
X114501533Y-141594933D01*
X114468200Y-141561600D01*
X114401533Y-141528266D01*
X113834866Y-141528266D01*
X114501533Y-141228266D02*
X114534866Y-141128266D01*
X114534866Y-140961600D01*
X114501533Y-140894933D01*
X114468200Y-140861600D01*
X114401533Y-140828266D01*
X114334866Y-140828266D01*
X114268200Y-140861600D01*
X114234866Y-140894933D01*
X114201533Y-140961600D01*
X114168200Y-141094933D01*
X114134866Y-141161600D01*
X114101533Y-141194933D01*
X114034866Y-141228266D01*
X113968200Y-141228266D01*
X113901533Y-141194933D01*
X113868200Y-141161600D01*
X113834866Y-141094933D01*
X113834866Y-140928266D01*
X113868200Y-140828266D01*
X114168200Y-140294933D02*
X114201533Y-140194933D01*
X114234866Y-140161600D01*
X114301533Y-140128266D01*
X114401533Y-140128266D01*
X114468200Y-140161600D01*
X114501533Y-140194933D01*
X114534866Y-140261600D01*
X114534866Y-140528266D01*
X113834866Y-140528266D01*
X113834866Y-140294933D01*
X113868200Y-140228266D01*
X113901533Y-140194933D01*
X113968200Y-140161600D01*
X114034866Y-140161600D01*
X114101533Y-140194933D01*
X114134866Y-140228266D01*
X114168200Y-140294933D01*
X114168200Y-140528266D01*
G04 #@! TO.C,J1*
X137088380Y-63325333D02*
X137802666Y-63325333D01*
X137945523Y-63372952D01*
X138040761Y-63468190D01*
X138088380Y-63611047D01*
X138088380Y-63706285D01*
X138088380Y-62325333D02*
X138088380Y-62896761D01*
X138088380Y-62611047D02*
X137088380Y-62611047D01*
X137231238Y-62706285D01*
X137326476Y-62801523D01*
X137374095Y-62896761D01*
X129871000Y-64015000D02*
X129871000Y-63781666D01*
X130237666Y-63681666D02*
X130237666Y-64015000D01*
X129537666Y-64015000D01*
X129537666Y-63681666D01*
X130037666Y-63415000D02*
X130037666Y-63081666D01*
X130237666Y-63481666D02*
X129537666Y-63248333D01*
X130237666Y-63015000D01*
X130237666Y-62781666D02*
X129537666Y-62781666D01*
X129537666Y-62615000D01*
X129571000Y-62515000D01*
X129637666Y-62448333D01*
X129704333Y-62415000D01*
X129837666Y-62381666D01*
X129937666Y-62381666D01*
X130071000Y-62415000D01*
X130137666Y-62448333D01*
X130204333Y-62515000D01*
X130237666Y-62615000D01*
X130237666Y-62781666D01*
X130171000Y-61681666D02*
X130204333Y-61715000D01*
X130237666Y-61815000D01*
X130237666Y-61881666D01*
X130204333Y-61981666D01*
X130137666Y-62048333D01*
X130071000Y-62081666D01*
X129937666Y-62115000D01*
X129837666Y-62115000D01*
X129704333Y-62081666D01*
X129637666Y-62048333D01*
X129571000Y-61981666D01*
X129537666Y-61881666D01*
X129537666Y-61815000D01*
X129571000Y-61715000D01*
X129604333Y-61681666D01*
G04 #@! TO.C,J2*
X135402666Y-148333666D02*
X135402666Y-148833666D01*
X135369333Y-148933666D01*
X135302666Y-149000333D01*
X135202666Y-149033666D01*
X135136000Y-149033666D01*
X135702666Y-148400333D02*
X135736000Y-148367000D01*
X135802666Y-148333666D01*
X135969333Y-148333666D01*
X136036000Y-148367000D01*
X136069333Y-148400333D01*
X136102666Y-148467000D01*
X136102666Y-148533666D01*
X136069333Y-148633666D01*
X135669333Y-149033666D01*
X136102666Y-149033666D01*
X137653666Y-142072666D02*
X136953666Y-142072666D01*
X137453666Y-141839333D01*
X136953666Y-141606000D01*
X137653666Y-141606000D01*
X137653666Y-141272666D02*
X137187000Y-141272666D01*
X136953666Y-141272666D02*
X136987000Y-141306000D01*
X137020333Y-141272666D01*
X136987000Y-141239333D01*
X136953666Y-141272666D01*
X137020333Y-141272666D01*
X137620333Y-140639333D02*
X137653666Y-140706000D01*
X137653666Y-140839333D01*
X137620333Y-140906000D01*
X137587000Y-140939333D01*
X137520333Y-140972666D01*
X137320333Y-140972666D01*
X137253666Y-140939333D01*
X137220333Y-140906000D01*
X137187000Y-140839333D01*
X137187000Y-140706000D01*
X137220333Y-140639333D01*
X137653666Y-140339333D02*
X137187000Y-140339333D01*
X137320333Y-140339333D02*
X137253666Y-140306000D01*
X137220333Y-140272666D01*
X137187000Y-140206000D01*
X137187000Y-140139333D01*
X137653666Y-139806000D02*
X137620333Y-139872666D01*
X137587000Y-139906000D01*
X137520333Y-139939333D01*
X137320333Y-139939333D01*
X137253666Y-139906000D01*
X137220333Y-139872666D01*
X137187000Y-139806000D01*
X137187000Y-139706000D01*
X137220333Y-139639333D01*
X137253666Y-139606000D01*
X137320333Y-139572666D01*
X137520333Y-139572666D01*
X137587000Y-139606000D01*
X137620333Y-139639333D01*
X137653666Y-139706000D01*
X137653666Y-139806000D01*
X137620333Y-139306000D02*
X137653666Y-139206000D01*
X137653666Y-139039333D01*
X137620333Y-138972666D01*
X137587000Y-138939333D01*
X137520333Y-138906000D01*
X137453666Y-138906000D01*
X137387000Y-138939333D01*
X137353666Y-138972666D01*
X137320333Y-139039333D01*
X137287000Y-139172666D01*
X137253666Y-139239333D01*
X137220333Y-139272666D01*
X137153666Y-139306000D01*
X137087000Y-139306000D01*
X137020333Y-139272666D01*
X136987000Y-139239333D01*
X136953666Y-139172666D01*
X136953666Y-139006000D01*
X136987000Y-138906000D01*
X137653666Y-138606000D02*
X136953666Y-138606000D01*
X136953666Y-138439333D01*
X136987000Y-138339333D01*
X137053666Y-138272666D01*
X137120333Y-138239333D01*
X137253666Y-138206000D01*
X137353666Y-138206000D01*
X137487000Y-138239333D01*
X137553666Y-138272666D01*
X137620333Y-138339333D01*
X137653666Y-138439333D01*
X137653666Y-138606000D01*
G04 #@! TO.C,J3*
X122829666Y-75689666D02*
X122829666Y-76189666D01*
X122796333Y-76289666D01*
X122729666Y-76356333D01*
X122629666Y-76389666D01*
X122563000Y-76389666D01*
X123096333Y-75689666D02*
X123529666Y-75689666D01*
X123296333Y-75956333D01*
X123396333Y-75956333D01*
X123463000Y-75989666D01*
X123496333Y-76023000D01*
X123529666Y-76089666D01*
X123529666Y-76256333D01*
X123496333Y-76323000D01*
X123463000Y-76356333D01*
X123396333Y-76389666D01*
X123196333Y-76389666D01*
X123129666Y-76356333D01*
X123096333Y-76323000D01*
X124973203Y-75246666D02*
X124739869Y-74913333D01*
X124573203Y-75246666D02*
X124573203Y-74546666D01*
X124839869Y-74546666D01*
X124906536Y-74580000D01*
X124939869Y-74613333D01*
X124973203Y-74680000D01*
X124973203Y-74780000D01*
X124939869Y-74846666D01*
X124906536Y-74880000D01*
X124839869Y-74913333D01*
X124573203Y-74913333D01*
X125173203Y-74546666D02*
X125573203Y-74546666D01*
X125373203Y-75246666D02*
X125373203Y-74546666D01*
X125806536Y-75246666D02*
X125806536Y-74546666D01*
X125973203Y-74546666D01*
X126073203Y-74580000D01*
X126139869Y-74646666D01*
X126173203Y-74713333D01*
X126206536Y-74846666D01*
X126206536Y-74946666D01*
X126173203Y-75080000D01*
X126139869Y-75146666D01*
X126073203Y-75213333D01*
X125973203Y-75246666D01*
X125806536Y-75246666D01*
G04 #@! TO.C,J5*
X136926666Y-117643666D02*
X136926666Y-118143666D01*
X136893333Y-118243666D01*
X136826666Y-118310333D01*
X136726666Y-118343666D01*
X136660000Y-118343666D01*
X137593333Y-117643666D02*
X137260000Y-117643666D01*
X137226666Y-117977000D01*
X137260000Y-117943666D01*
X137326666Y-117910333D01*
X137493333Y-117910333D01*
X137560000Y-117943666D01*
X137593333Y-117977000D01*
X137626666Y-118043666D01*
X137626666Y-118210333D01*
X137593333Y-118277000D01*
X137560000Y-118310333D01*
X137493333Y-118343666D01*
X137326666Y-118343666D01*
X137260000Y-118310333D01*
X137226666Y-118277000D01*
X135456000Y-112900666D02*
X135456000Y-113467333D01*
X135489333Y-113534000D01*
X135522666Y-113567333D01*
X135589333Y-113600666D01*
X135722666Y-113600666D01*
X135789333Y-113567333D01*
X135822666Y-113534000D01*
X135856000Y-113467333D01*
X135856000Y-112900666D01*
X136156000Y-113400666D02*
X136489333Y-113400666D01*
X136089333Y-113600666D02*
X136322666Y-112900666D01*
X136556000Y-113600666D01*
X137189333Y-113600666D02*
X136956000Y-113267333D01*
X136789333Y-113600666D02*
X136789333Y-112900666D01*
X137056000Y-112900666D01*
X137122666Y-112934000D01*
X137156000Y-112967333D01*
X137189333Y-113034000D01*
X137189333Y-113134000D01*
X137156000Y-113200666D01*
X137122666Y-113234000D01*
X137056000Y-113267333D01*
X136789333Y-113267333D01*
X137389333Y-112900666D02*
X137789333Y-112900666D01*
X137589333Y-113600666D02*
X137589333Y-112900666D01*
X137989333Y-112967333D02*
X138022666Y-112934000D01*
X138089333Y-112900666D01*
X138256000Y-112900666D01*
X138322666Y-112934000D01*
X138356000Y-112967333D01*
X138389333Y-113034000D01*
X138389333Y-113100666D01*
X138356000Y-113200666D01*
X137956000Y-113600666D01*
X138389333Y-113600666D01*
G04 #@! TO.C,J7*
X115022380Y-69453333D02*
X115736666Y-69453333D01*
X115879523Y-69500952D01*
X115974761Y-69596190D01*
X116022380Y-69739047D01*
X116022380Y-69834285D01*
X115022380Y-69072380D02*
X115022380Y-68405714D01*
X116022380Y-68834285D01*
X118139333Y-74860666D02*
X118172666Y-74760666D01*
X118172666Y-74594000D01*
X118139333Y-74527333D01*
X118106000Y-74494000D01*
X118039333Y-74460666D01*
X117972666Y-74460666D01*
X117906000Y-74494000D01*
X117872666Y-74527333D01*
X117839333Y-74594000D01*
X117806000Y-74727333D01*
X117772666Y-74794000D01*
X117739333Y-74827333D01*
X117672666Y-74860666D01*
X117606000Y-74860666D01*
X117539333Y-74827333D01*
X117506000Y-74794000D01*
X117472666Y-74727333D01*
X117472666Y-74560666D01*
X117506000Y-74460666D01*
X117806000Y-74160666D02*
X117806000Y-73927333D01*
X118172666Y-73827333D02*
X118172666Y-74160666D01*
X117472666Y-74160666D01*
X117472666Y-73827333D01*
X118172666Y-73527333D02*
X117472666Y-73527333D01*
X118172666Y-73127333D01*
X117472666Y-73127333D01*
X118139333Y-72827333D02*
X118172666Y-72727333D01*
X118172666Y-72560666D01*
X118139333Y-72494000D01*
X118106000Y-72460666D01*
X118039333Y-72427333D01*
X117972666Y-72427333D01*
X117906000Y-72460666D01*
X117872666Y-72494000D01*
X117839333Y-72560666D01*
X117806000Y-72694000D01*
X117772666Y-72760666D01*
X117739333Y-72794000D01*
X117672666Y-72827333D01*
X117606000Y-72827333D01*
X117539333Y-72794000D01*
X117506000Y-72760666D01*
X117472666Y-72694000D01*
X117472666Y-72527333D01*
X117506000Y-72427333D01*
X117472666Y-72227333D02*
X118172666Y-71994000D01*
X117472666Y-71760666D01*
X118172666Y-71527333D02*
X117472666Y-71527333D01*
X117472666Y-71360666D01*
X117506000Y-71260666D01*
X117572666Y-71194000D01*
X117639333Y-71160666D01*
X117772666Y-71127333D01*
X117872666Y-71127333D01*
X118006000Y-71160666D01*
X118072666Y-71194000D01*
X118139333Y-71260666D01*
X118172666Y-71360666D01*
X118172666Y-71527333D01*
X118172666Y-70827333D02*
X117472666Y-70827333D01*
X117472666Y-70660666D01*
X117506000Y-70560666D01*
X117572666Y-70494000D01*
X117639333Y-70460666D01*
X117772666Y-70427333D01*
X117872666Y-70427333D01*
X118006000Y-70460666D01*
X118072666Y-70494000D01*
X118139333Y-70560666D01*
X118172666Y-70660666D01*
X118172666Y-70827333D01*
G04 #@! TO.C,JP1*
X131373666Y-83145380D02*
X131373666Y-83859666D01*
X131326047Y-84002523D01*
X131230809Y-84097761D01*
X131087952Y-84145380D01*
X130992714Y-84145380D01*
X131849857Y-84145380D02*
X131849857Y-83145380D01*
X132230809Y-83145380D01*
X132326047Y-83193000D01*
X132373666Y-83240619D01*
X132421285Y-83335857D01*
X132421285Y-83478714D01*
X132373666Y-83573952D01*
X132326047Y-83621571D01*
X132230809Y-83669190D01*
X131849857Y-83669190D01*
X133373666Y-84145380D02*
X132802238Y-84145380D01*
X133087952Y-84145380D02*
X133087952Y-83145380D01*
X132992714Y-83288238D01*
X132897476Y-83383476D01*
X132802238Y-83431095D01*
X124382666Y-84452666D02*
X124816000Y-84452666D01*
X124582666Y-84719333D01*
X124682666Y-84719333D01*
X124749333Y-84752666D01*
X124782666Y-84786000D01*
X124816000Y-84852666D01*
X124816000Y-85019333D01*
X124782666Y-85086000D01*
X124749333Y-85119333D01*
X124682666Y-85152666D01*
X124482666Y-85152666D01*
X124416000Y-85119333D01*
X124382666Y-85086000D01*
X125749333Y-85152666D02*
X125682666Y-85119333D01*
X125649333Y-85086000D01*
X125616000Y-85019333D01*
X125616000Y-84819333D01*
X125649333Y-84752666D01*
X125682666Y-84719333D01*
X125749333Y-84686000D01*
X125849333Y-84686000D01*
X125916000Y-84719333D01*
X125949333Y-84752666D01*
X125982666Y-84819333D01*
X125982666Y-85019333D01*
X125949333Y-85086000D01*
X125916000Y-85119333D01*
X125849333Y-85152666D01*
X125749333Y-85152666D01*
X126182666Y-84686000D02*
X126449333Y-84686000D01*
X126282666Y-85152666D02*
X126282666Y-84552666D01*
X126316000Y-84486000D01*
X126382666Y-84452666D01*
X126449333Y-84452666D01*
X127182666Y-84519333D02*
X127216000Y-84486000D01*
X127282666Y-84452666D01*
X127449333Y-84452666D01*
X127516000Y-84486000D01*
X127549333Y-84519333D01*
X127582666Y-84586000D01*
X127582666Y-84652666D01*
X127549333Y-84752666D01*
X127149333Y-85152666D01*
X127582666Y-85152666D01*
X128382666Y-84419333D02*
X127782666Y-85319333D01*
X128916000Y-84686000D02*
X128916000Y-85152666D01*
X128749333Y-84419333D02*
X128582666Y-84919333D01*
X129016000Y-84919333D01*
X129749333Y-84686000D02*
X129882666Y-85152666D01*
X130016000Y-84819333D01*
X130149333Y-85152666D01*
X130282666Y-84686000D01*
X130549333Y-85152666D02*
X130549333Y-84686000D01*
X130549333Y-84452666D02*
X130516000Y-84486000D01*
X130549333Y-84519333D01*
X130582666Y-84486000D01*
X130549333Y-84452666D01*
X130549333Y-84519333D01*
X130882666Y-85152666D02*
X130882666Y-84686000D01*
X130882666Y-84819333D02*
X130916000Y-84752666D01*
X130949333Y-84719333D01*
X131016000Y-84686000D01*
X131082666Y-84686000D01*
X131582666Y-85119333D02*
X131516000Y-85152666D01*
X131382666Y-85152666D01*
X131316000Y-85119333D01*
X131282666Y-85052666D01*
X131282666Y-84786000D01*
X131316000Y-84719333D01*
X131382666Y-84686000D01*
X131516000Y-84686000D01*
X131582666Y-84719333D01*
X131616000Y-84786000D01*
X131616000Y-84852666D01*
X131282666Y-84919333D01*
X130255666Y-82547666D02*
X130689000Y-82547666D01*
X130455666Y-82814333D01*
X130555666Y-82814333D01*
X130622333Y-82847666D01*
X130655666Y-82881000D01*
X130689000Y-82947666D01*
X130689000Y-83114333D01*
X130655666Y-83181000D01*
X130622333Y-83214333D01*
X130555666Y-83247666D01*
X130355666Y-83247666D01*
X130289000Y-83214333D01*
X130255666Y-83181000D01*
X125489000Y-83247666D02*
X125089000Y-83247666D01*
X125289000Y-83247666D02*
X125289000Y-82547666D01*
X125222333Y-82647666D01*
X125155666Y-82714333D01*
X125089000Y-82747666D01*
G04 #@! TO.C,JP2*
X129686666Y-80451333D02*
X130186666Y-80451333D01*
X130286666Y-80484666D01*
X130353333Y-80551333D01*
X130386666Y-80651333D01*
X130386666Y-80718000D01*
X130386666Y-80118000D02*
X129686666Y-80118000D01*
X129686666Y-79851333D01*
X129720000Y-79784666D01*
X129753333Y-79751333D01*
X129820000Y-79718000D01*
X129920000Y-79718000D01*
X129986666Y-79751333D01*
X130020000Y-79784666D01*
X130053333Y-79851333D01*
X130053333Y-80118000D01*
X129753333Y-79451333D02*
X129720000Y-79418000D01*
X129686666Y-79351333D01*
X129686666Y-79184666D01*
X129720000Y-79118000D01*
X129753333Y-79084666D01*
X129820000Y-79051333D01*
X129886666Y-79051333D01*
X129986666Y-79084666D01*
X130386666Y-79484666D01*
X130386666Y-79051333D01*
G04 #@! TO.C,R1*
X132421333Y-88336380D02*
X132088000Y-87860190D01*
X131849904Y-88336380D02*
X131849904Y-87336380D01*
X132230857Y-87336380D01*
X132326095Y-87384000D01*
X132373714Y-87431619D01*
X132421333Y-87526857D01*
X132421333Y-87669714D01*
X132373714Y-87764952D01*
X132326095Y-87812571D01*
X132230857Y-87860190D01*
X131849904Y-87860190D01*
X133373714Y-88336380D02*
X132802285Y-88336380D01*
X133088000Y-88336380D02*
X133088000Y-87336380D01*
X132992761Y-87479238D01*
X132897523Y-87574476D01*
X132802285Y-87622095D01*
G04 #@! TO.C,U1*
X132842095Y-69058380D02*
X132842095Y-69867904D01*
X132889714Y-69963142D01*
X132937333Y-70010761D01*
X133032571Y-70058380D01*
X133223047Y-70058380D01*
X133318285Y-70010761D01*
X133365904Y-69963142D01*
X133413523Y-69867904D01*
X133413523Y-69058380D01*
X134413523Y-70058380D02*
X133842095Y-70058380D01*
X134127809Y-70058380D02*
X134127809Y-69058380D01*
X134032571Y-69201238D01*
X133937333Y-69296476D01*
X133842095Y-69344095D01*
G04 #@! TO.C,U2*
X131572095Y-93686380D02*
X131572095Y-94495904D01*
X131619714Y-94591142D01*
X131667333Y-94638761D01*
X131762571Y-94686380D01*
X131953047Y-94686380D01*
X132048285Y-94638761D01*
X132095904Y-94591142D01*
X132143523Y-94495904D01*
X132143523Y-93686380D01*
X132572095Y-93781619D02*
X132619714Y-93734000D01*
X132714952Y-93686380D01*
X132953047Y-93686380D01*
X133048285Y-93734000D01*
X133095904Y-93781619D01*
X133143523Y-93876857D01*
X133143523Y-93972095D01*
X133095904Y-94114952D01*
X132524476Y-94686380D01*
X133143523Y-94686380D01*
G04 #@! TO.C,J4*
X124388380Y-63325333D02*
X125102666Y-63325333D01*
X125245523Y-63372952D01*
X125340761Y-63468190D01*
X125388380Y-63611047D01*
X125388380Y-63706285D01*
X124721714Y-62420571D02*
X125388380Y-62420571D01*
X124340761Y-62658666D02*
X125055047Y-62896761D01*
X125055047Y-62277714D01*
X120287666Y-63992000D02*
X119587666Y-63992000D01*
X120087666Y-63692000D02*
X120087666Y-63358666D01*
X120287666Y-63758666D02*
X119587666Y-63525333D01*
X120287666Y-63292000D01*
X120287666Y-63058666D02*
X119587666Y-63058666D01*
X119587666Y-62892000D01*
X119621000Y-62792000D01*
X119687666Y-62725333D01*
X119754333Y-62692000D01*
X119887666Y-62658666D01*
X119987666Y-62658666D01*
X120121000Y-62692000D01*
X120187666Y-62725333D01*
X120254333Y-62792000D01*
X120287666Y-62892000D01*
X120287666Y-63058666D01*
X120221000Y-61958666D02*
X120254333Y-61992000D01*
X120287666Y-62092000D01*
X120287666Y-62158666D01*
X120254333Y-62258666D01*
X120187666Y-62325333D01*
X120121000Y-62358666D01*
X119987666Y-62392000D01*
X119887666Y-62392000D01*
X119754333Y-62358666D01*
X119687666Y-62325333D01*
X119621000Y-62258666D01*
X119587666Y-62158666D01*
X119587666Y-62092000D01*
X119621000Y-61992000D01*
X119654333Y-61958666D01*
G04 #@! TO.C,J6*
X135302666Y-91654380D02*
X135302666Y-92368666D01*
X135255047Y-92511523D01*
X135159809Y-92606761D01*
X135016952Y-92654380D01*
X134921714Y-92654380D01*
X136207428Y-91654380D02*
X136016952Y-91654380D01*
X135921714Y-91702000D01*
X135874095Y-91749619D01*
X135778857Y-91892476D01*
X135731238Y-92082952D01*
X135731238Y-92463904D01*
X135778857Y-92559142D01*
X135826476Y-92606761D01*
X135921714Y-92654380D01*
X136112190Y-92654380D01*
X136207428Y-92606761D01*
X136255047Y-92559142D01*
X136302666Y-92463904D01*
X136302666Y-92225809D01*
X136255047Y-92130571D01*
X136207428Y-92082952D01*
X136112190Y-92035333D01*
X135921714Y-92035333D01*
X135826476Y-92082952D01*
X135778857Y-92130571D01*
X135731238Y-92225809D01*
X134405809Y-91130380D02*
X134405809Y-90130380D01*
X134834380Y-90225619D02*
X134882000Y-90178000D01*
X134977238Y-90130380D01*
X135215333Y-90130380D01*
X135310571Y-90178000D01*
X135358190Y-90225619D01*
X135405809Y-90320857D01*
X135405809Y-90416095D01*
X135358190Y-90558952D01*
X134786761Y-91130380D01*
X135405809Y-91130380D01*
X136405809Y-91035142D02*
X136358190Y-91082761D01*
X136215333Y-91130380D01*
X136120095Y-91130380D01*
X135977238Y-91082761D01*
X135882000Y-90987523D01*
X135834380Y-90892285D01*
X135786761Y-90701809D01*
X135786761Y-90558952D01*
X135834380Y-90368476D01*
X135882000Y-90273238D01*
X135977238Y-90178000D01*
X136120095Y-90130380D01*
X136215333Y-90130380D01*
X136358190Y-90178000D01*
X136405809Y-90225619D01*
G04 #@! TO.C,J8*
X139316666Y-69448333D02*
X139816666Y-69448333D01*
X139916666Y-69481666D01*
X139983333Y-69548333D01*
X140016666Y-69648333D01*
X140016666Y-69715000D01*
X139616666Y-69015000D02*
X139583333Y-69081666D01*
X139550000Y-69115000D01*
X139483333Y-69148333D01*
X139450000Y-69148333D01*
X139383333Y-69115000D01*
X139350000Y-69081666D01*
X139316666Y-69015000D01*
X139316666Y-68881666D01*
X139350000Y-68815000D01*
X139383333Y-68781666D01*
X139450000Y-68748333D01*
X139483333Y-68748333D01*
X139550000Y-68781666D01*
X139583333Y-68815000D01*
X139616666Y-68881666D01*
X139616666Y-69015000D01*
X139650000Y-69081666D01*
X139683333Y-69115000D01*
X139750000Y-69148333D01*
X139883333Y-69148333D01*
X139950000Y-69115000D01*
X139983333Y-69081666D01*
X140016666Y-69015000D01*
X140016666Y-68881666D01*
X139983333Y-68815000D01*
X139950000Y-68781666D01*
X139883333Y-68748333D01*
X139750000Y-68748333D01*
X139683333Y-68781666D01*
X139650000Y-68815000D01*
X139616666Y-68881666D01*
X137697333Y-74927333D02*
X137730666Y-74827333D01*
X137730666Y-74660666D01*
X137697333Y-74594000D01*
X137664000Y-74560666D01*
X137597333Y-74527333D01*
X137530666Y-74527333D01*
X137464000Y-74560666D01*
X137430666Y-74594000D01*
X137397333Y-74660666D01*
X137364000Y-74794000D01*
X137330666Y-74860666D01*
X137297333Y-74894000D01*
X137230666Y-74927333D01*
X137164000Y-74927333D01*
X137097333Y-74894000D01*
X137064000Y-74860666D01*
X137030666Y-74794000D01*
X137030666Y-74627333D01*
X137064000Y-74527333D01*
X137364000Y-74227333D02*
X137364000Y-73994000D01*
X137730666Y-73894000D02*
X137730666Y-74227333D01*
X137030666Y-74227333D01*
X137030666Y-73894000D01*
X137730666Y-73594000D02*
X137030666Y-73594000D01*
X137730666Y-73194000D01*
X137030666Y-73194000D01*
X137697333Y-72894000D02*
X137730666Y-72794000D01*
X137730666Y-72627333D01*
X137697333Y-72560666D01*
X137664000Y-72527333D01*
X137597333Y-72494000D01*
X137530666Y-72494000D01*
X137464000Y-72527333D01*
X137430666Y-72560666D01*
X137397333Y-72627333D01*
X137364000Y-72760666D01*
X137330666Y-72827333D01*
X137297333Y-72860666D01*
X137230666Y-72894000D01*
X137164000Y-72894000D01*
X137097333Y-72860666D01*
X137064000Y-72827333D01*
X137030666Y-72760666D01*
X137030666Y-72594000D01*
X137064000Y-72494000D01*
X137064000Y-71827333D02*
X137030666Y-71894000D01*
X137030666Y-71994000D01*
X137064000Y-72094000D01*
X137130666Y-72160666D01*
X137197333Y-72194000D01*
X137330666Y-72227333D01*
X137430666Y-72227333D01*
X137564000Y-72194000D01*
X137630666Y-72160666D01*
X137697333Y-72094000D01*
X137730666Y-71994000D01*
X137730666Y-71927333D01*
X137697333Y-71827333D01*
X137664000Y-71794000D01*
X137430666Y-71794000D01*
X137430666Y-71927333D01*
X137730666Y-71494000D02*
X137030666Y-71494000D01*
X137730666Y-71094000D01*
X137030666Y-71094000D01*
X137730666Y-70760666D02*
X137030666Y-70760666D01*
X137030666Y-70594000D01*
X137064000Y-70494000D01*
X137130666Y-70427333D01*
X137197333Y-70394000D01*
X137330666Y-70360666D01*
X137430666Y-70360666D01*
X137564000Y-70394000D01*
X137630666Y-70427333D01*
X137697333Y-70494000D01*
X137730666Y-70594000D01*
X137730666Y-70760666D01*
G04 #@! TO.C,J9*
X121459666Y-104818380D02*
X121459666Y-105532666D01*
X121412047Y-105675523D01*
X121316809Y-105770761D01*
X121173952Y-105818380D01*
X121078714Y-105818380D01*
X121983476Y-105818380D02*
X122173952Y-105818380D01*
X122269190Y-105770761D01*
X122316809Y-105723142D01*
X122412047Y-105580285D01*
X122459666Y-105389809D01*
X122459666Y-105008857D01*
X122412047Y-104913619D01*
X122364428Y-104866000D01*
X122269190Y-104818380D01*
X122078714Y-104818380D01*
X121983476Y-104866000D01*
X121935857Y-104913619D01*
X121888238Y-105008857D01*
X121888238Y-105246952D01*
X121935857Y-105342190D01*
X121983476Y-105389809D01*
X122078714Y-105437428D01*
X122269190Y-105437428D01*
X122364428Y-105389809D01*
X122412047Y-105342190D01*
X122459666Y-105246952D01*
X127579380Y-110640523D02*
X126579380Y-110640523D01*
X126579380Y-110259571D01*
X126627000Y-110164333D01*
X126674619Y-110116714D01*
X126769857Y-110069095D01*
X126912714Y-110069095D01*
X127007952Y-110116714D01*
X127055571Y-110164333D01*
X127103190Y-110259571D01*
X127103190Y-110640523D01*
X126579380Y-109450047D02*
X126579380Y-109259571D01*
X126627000Y-109164333D01*
X126722238Y-109069095D01*
X126912714Y-109021476D01*
X127246047Y-109021476D01*
X127436523Y-109069095D01*
X127531761Y-109164333D01*
X127579380Y-109259571D01*
X127579380Y-109450047D01*
X127531761Y-109545285D01*
X127436523Y-109640523D01*
X127246047Y-109688142D01*
X126912714Y-109688142D01*
X126722238Y-109640523D01*
X126627000Y-109545285D01*
X126579380Y-109450047D01*
X126579380Y-108688142D02*
X127579380Y-108450047D01*
X126865095Y-108259571D01*
X127579380Y-108069095D01*
X126579380Y-107831000D01*
X127055571Y-107450047D02*
X127055571Y-107116714D01*
X127579380Y-106973857D02*
X127579380Y-107450047D01*
X126579380Y-107450047D01*
X126579380Y-106973857D01*
X127579380Y-105973857D02*
X127103190Y-106307190D01*
X127579380Y-106545285D02*
X126579380Y-106545285D01*
X126579380Y-106164333D01*
X126627000Y-106069095D01*
X126674619Y-106021476D01*
X126769857Y-105973857D01*
X126912714Y-105973857D01*
X127007952Y-106021476D01*
X127055571Y-106069095D01*
X127103190Y-106164333D01*
X127103190Y-106545285D01*
G04 #@! TO.C,J10*
X131513333Y-104982666D02*
X131513333Y-105482666D01*
X131480000Y-105582666D01*
X131413333Y-105649333D01*
X131313333Y-105682666D01*
X131246666Y-105682666D01*
X132213333Y-105682666D02*
X131813333Y-105682666D01*
X132013333Y-105682666D02*
X132013333Y-104982666D01*
X131946666Y-105082666D01*
X131880000Y-105149333D01*
X131813333Y-105182666D01*
X132646666Y-104982666D02*
X132713333Y-104982666D01*
X132780000Y-105016000D01*
X132813333Y-105049333D01*
X132846666Y-105116000D01*
X132880000Y-105249333D01*
X132880000Y-105416000D01*
X132846666Y-105549333D01*
X132813333Y-105616000D01*
X132780000Y-105649333D01*
X132713333Y-105682666D01*
X132646666Y-105682666D01*
X132580000Y-105649333D01*
X132546666Y-105616000D01*
X132513333Y-105549333D01*
X132480000Y-105416000D01*
X132480000Y-105249333D01*
X132513333Y-105116000D01*
X132546666Y-105049333D01*
X132580000Y-105016000D01*
X132646666Y-104982666D01*
G04 #@! TO.C,JP3*
X129686666Y-77022333D02*
X130186666Y-77022333D01*
X130286666Y-77055666D01*
X130353333Y-77122333D01*
X130386666Y-77222333D01*
X130386666Y-77289000D01*
X130386666Y-76689000D02*
X129686666Y-76689000D01*
X129686666Y-76422333D01*
X129720000Y-76355666D01*
X129753333Y-76322333D01*
X129820000Y-76289000D01*
X129920000Y-76289000D01*
X129986666Y-76322333D01*
X130020000Y-76355666D01*
X130053333Y-76422333D01*
X130053333Y-76689000D01*
X129686666Y-76055666D02*
X129686666Y-75622333D01*
X129953333Y-75855666D01*
X129953333Y-75755666D01*
X129986666Y-75689000D01*
X130020000Y-75655666D01*
X130086666Y-75622333D01*
X130253333Y-75622333D01*
X130320000Y-75655666D01*
X130353333Y-75689000D01*
X130386666Y-75755666D01*
X130386666Y-75955666D01*
X130353333Y-76022333D01*
X130320000Y-76055666D01*
G04 #@! TO.C,Q1*
X137474333Y-104777333D02*
X137407666Y-104744000D01*
X137341000Y-104677333D01*
X137241000Y-104577333D01*
X137174333Y-104544000D01*
X137107666Y-104544000D01*
X137141000Y-104710666D02*
X137074333Y-104677333D01*
X137007666Y-104610666D01*
X136974333Y-104477333D01*
X136974333Y-104244000D01*
X137007666Y-104110666D01*
X137074333Y-104044000D01*
X137141000Y-104010666D01*
X137274333Y-104010666D01*
X137341000Y-104044000D01*
X137407666Y-104110666D01*
X137441000Y-104244000D01*
X137441000Y-104477333D01*
X137407666Y-104610666D01*
X137341000Y-104677333D01*
X137274333Y-104710666D01*
X137141000Y-104710666D01*
X138107666Y-104710666D02*
X137707666Y-104710666D01*
X137907666Y-104710666D02*
X137907666Y-104010666D01*
X137841000Y-104110666D01*
X137774333Y-104177333D01*
X137707666Y-104210666D01*
G04 #@! TO.C,C1*
X129028000Y-96382666D02*
X129061333Y-96416000D01*
X129094666Y-96516000D01*
X129094666Y-96582666D01*
X129061333Y-96682666D01*
X128994666Y-96749333D01*
X128928000Y-96782666D01*
X128794666Y-96816000D01*
X128694666Y-96816000D01*
X128561333Y-96782666D01*
X128494666Y-96749333D01*
X128428000Y-96682666D01*
X128394666Y-96582666D01*
X128394666Y-96516000D01*
X128428000Y-96416000D01*
X128461333Y-96382666D01*
X129094666Y-95716000D02*
X129094666Y-96116000D01*
X129094666Y-95916000D02*
X128394666Y-95916000D01*
X128494666Y-95982666D01*
X128561333Y-96049333D01*
X128594666Y-96116000D01*
G04 #@! TO.C,C2*
X130044000Y-96382666D02*
X130077333Y-96416000D01*
X130110666Y-96516000D01*
X130110666Y-96582666D01*
X130077333Y-96682666D01*
X130010666Y-96749333D01*
X129944000Y-96782666D01*
X129810666Y-96816000D01*
X129710666Y-96816000D01*
X129577333Y-96782666D01*
X129510666Y-96749333D01*
X129444000Y-96682666D01*
X129410666Y-96582666D01*
X129410666Y-96516000D01*
X129444000Y-96416000D01*
X129477333Y-96382666D01*
X129477333Y-96116000D02*
X129444000Y-96082666D01*
X129410666Y-96016000D01*
X129410666Y-95849333D01*
X129444000Y-95782666D01*
X129477333Y-95749333D01*
X129544000Y-95716000D01*
X129610666Y-95716000D01*
X129710666Y-95749333D01*
X130110666Y-96149333D01*
X130110666Y-95716000D01*
G04 #@! TO.C,C3*
X121916000Y-78729666D02*
X121949333Y-78763000D01*
X121982666Y-78863000D01*
X121982666Y-78929666D01*
X121949333Y-79029666D01*
X121882666Y-79096333D01*
X121816000Y-79129666D01*
X121682666Y-79163000D01*
X121582666Y-79163000D01*
X121449333Y-79129666D01*
X121382666Y-79096333D01*
X121316000Y-79029666D01*
X121282666Y-78929666D01*
X121282666Y-78863000D01*
X121316000Y-78763000D01*
X121349333Y-78729666D01*
X121282666Y-78496333D02*
X121282666Y-78063000D01*
X121549333Y-78296333D01*
X121549333Y-78196333D01*
X121582666Y-78129666D01*
X121616000Y-78096333D01*
X121682666Y-78063000D01*
X121849333Y-78063000D01*
X121916000Y-78096333D01*
X121949333Y-78129666D01*
X121982666Y-78196333D01*
X121982666Y-78396333D01*
X121949333Y-78463000D01*
X121916000Y-78496333D01*
G04 #@! TO.C,C5*
X117231333Y-65528000D02*
X117198000Y-65561333D01*
X117098000Y-65594666D01*
X117031333Y-65594666D01*
X116931333Y-65561333D01*
X116864666Y-65494666D01*
X116831333Y-65428000D01*
X116798000Y-65294666D01*
X116798000Y-65194666D01*
X116831333Y-65061333D01*
X116864666Y-64994666D01*
X116931333Y-64928000D01*
X117031333Y-64894666D01*
X117098000Y-64894666D01*
X117198000Y-64928000D01*
X117231333Y-64961333D01*
X117864666Y-64894666D02*
X117531333Y-64894666D01*
X117498000Y-65228000D01*
X117531333Y-65194666D01*
X117598000Y-65161333D01*
X117764666Y-65161333D01*
X117831333Y-65194666D01*
X117864666Y-65228000D01*
X117898000Y-65294666D01*
X117898000Y-65461333D01*
X117864666Y-65528000D01*
X117831333Y-65561333D01*
X117764666Y-65594666D01*
X117598000Y-65594666D01*
X117531333Y-65561333D01*
X117498000Y-65528000D01*
G04 #@! TO.C,C6*
X117254333Y-66544000D02*
X117221000Y-66577333D01*
X117121000Y-66610666D01*
X117054333Y-66610666D01*
X116954333Y-66577333D01*
X116887666Y-66510666D01*
X116854333Y-66444000D01*
X116821000Y-66310666D01*
X116821000Y-66210666D01*
X116854333Y-66077333D01*
X116887666Y-66010666D01*
X116954333Y-65944000D01*
X117054333Y-65910666D01*
X117121000Y-65910666D01*
X117221000Y-65944000D01*
X117254333Y-65977333D01*
X117854333Y-65910666D02*
X117721000Y-65910666D01*
X117654333Y-65944000D01*
X117621000Y-65977333D01*
X117554333Y-66077333D01*
X117521000Y-66210666D01*
X117521000Y-66477333D01*
X117554333Y-66544000D01*
X117587666Y-66577333D01*
X117654333Y-66610666D01*
X117787666Y-66610666D01*
X117854333Y-66577333D01*
X117887666Y-66544000D01*
X117921000Y-66477333D01*
X117921000Y-66310666D01*
X117887666Y-66244000D01*
X117854333Y-66210666D01*
X117787666Y-66177333D01*
X117654333Y-66177333D01*
X117587666Y-66210666D01*
X117554333Y-66244000D01*
X117521000Y-66310666D01*
G04 #@! TO.C,R7*
X118605333Y-111187666D02*
X118372000Y-110854333D01*
X118205333Y-111187666D02*
X118205333Y-110487666D01*
X118472000Y-110487666D01*
X118538666Y-110521000D01*
X118572000Y-110554333D01*
X118605333Y-110621000D01*
X118605333Y-110721000D01*
X118572000Y-110787666D01*
X118538666Y-110821000D01*
X118472000Y-110854333D01*
X118205333Y-110854333D01*
X118838666Y-110487666D02*
X119305333Y-110487666D01*
X119005333Y-111187666D01*
G04 #@! TO.C,R8*
X118651333Y-113727666D02*
X118418000Y-113394333D01*
X118251333Y-113727666D02*
X118251333Y-113027666D01*
X118518000Y-113027666D01*
X118584666Y-113061000D01*
X118618000Y-113094333D01*
X118651333Y-113161000D01*
X118651333Y-113261000D01*
X118618000Y-113327666D01*
X118584666Y-113361000D01*
X118518000Y-113394333D01*
X118251333Y-113394333D01*
X119051333Y-113327666D02*
X118984666Y-113294333D01*
X118951333Y-113261000D01*
X118918000Y-113194333D01*
X118918000Y-113161000D01*
X118951333Y-113094333D01*
X118984666Y-113061000D01*
X119051333Y-113027666D01*
X119184666Y-113027666D01*
X119251333Y-113061000D01*
X119284666Y-113094333D01*
X119318000Y-113161000D01*
X119318000Y-113194333D01*
X119284666Y-113261000D01*
X119251333Y-113294333D01*
X119184666Y-113327666D01*
X119051333Y-113327666D01*
X118984666Y-113361000D01*
X118951333Y-113394333D01*
X118918000Y-113461000D01*
X118918000Y-113594333D01*
X118951333Y-113661000D01*
X118984666Y-113694333D01*
X119051333Y-113727666D01*
X119184666Y-113727666D01*
X119251333Y-113694333D01*
X119284666Y-113661000D01*
X119318000Y-113594333D01*
X119318000Y-113461000D01*
X119284666Y-113394333D01*
X119251333Y-113361000D01*
X119184666Y-113327666D01*
G04 #@! TO.C,R9*
X118651333Y-118680666D02*
X118418000Y-118347333D01*
X118251333Y-118680666D02*
X118251333Y-117980666D01*
X118518000Y-117980666D01*
X118584666Y-118014000D01*
X118618000Y-118047333D01*
X118651333Y-118114000D01*
X118651333Y-118214000D01*
X118618000Y-118280666D01*
X118584666Y-118314000D01*
X118518000Y-118347333D01*
X118251333Y-118347333D01*
X118984666Y-118680666D02*
X119118000Y-118680666D01*
X119184666Y-118647333D01*
X119218000Y-118614000D01*
X119284666Y-118514000D01*
X119318000Y-118380666D01*
X119318000Y-118114000D01*
X119284666Y-118047333D01*
X119251333Y-118014000D01*
X119184666Y-117980666D01*
X119051333Y-117980666D01*
X118984666Y-118014000D01*
X118951333Y-118047333D01*
X118918000Y-118114000D01*
X118918000Y-118280666D01*
X118951333Y-118347333D01*
X118984666Y-118380666D01*
X119051333Y-118414000D01*
X119184666Y-118414000D01*
X119251333Y-118380666D01*
X119284666Y-118347333D01*
X119318000Y-118280666D01*
G04 #@! TO.C,R10*
X138234000Y-86549666D02*
X138000666Y-86216333D01*
X137834000Y-86549666D02*
X137834000Y-85849666D01*
X138100666Y-85849666D01*
X138167333Y-85883000D01*
X138200666Y-85916333D01*
X138234000Y-85983000D01*
X138234000Y-86083000D01*
X138200666Y-86149666D01*
X138167333Y-86183000D01*
X138100666Y-86216333D01*
X137834000Y-86216333D01*
X138900666Y-86549666D02*
X138500666Y-86549666D01*
X138700666Y-86549666D02*
X138700666Y-85849666D01*
X138634000Y-85949666D01*
X138567333Y-86016333D01*
X138500666Y-86049666D01*
X139334000Y-85849666D02*
X139400666Y-85849666D01*
X139467333Y-85883000D01*
X139500666Y-85916333D01*
X139534000Y-85983000D01*
X139567333Y-86116333D01*
X139567333Y-86283000D01*
X139534000Y-86416333D01*
X139500666Y-86483000D01*
X139467333Y-86516333D01*
X139400666Y-86549666D01*
X139334000Y-86549666D01*
X139267333Y-86516333D01*
X139234000Y-86483000D01*
X139200666Y-86416333D01*
X139167333Y-86283000D01*
X139167333Y-86116333D01*
X139200666Y-85983000D01*
X139234000Y-85916333D01*
X139267333Y-85883000D01*
X139334000Y-85849666D01*
G04 #@! TO.C,R12*
X138211000Y-84136666D02*
X137977666Y-83803333D01*
X137811000Y-84136666D02*
X137811000Y-83436666D01*
X138077666Y-83436666D01*
X138144333Y-83470000D01*
X138177666Y-83503333D01*
X138211000Y-83570000D01*
X138211000Y-83670000D01*
X138177666Y-83736666D01*
X138144333Y-83770000D01*
X138077666Y-83803333D01*
X137811000Y-83803333D01*
X138877666Y-84136666D02*
X138477666Y-84136666D01*
X138677666Y-84136666D02*
X138677666Y-83436666D01*
X138611000Y-83536666D01*
X138544333Y-83603333D01*
X138477666Y-83636666D01*
X139144333Y-83503333D02*
X139177666Y-83470000D01*
X139244333Y-83436666D01*
X139411000Y-83436666D01*
X139477666Y-83470000D01*
X139511000Y-83503333D01*
X139544333Y-83570000D01*
X139544333Y-83636666D01*
X139511000Y-83736666D01*
X139111000Y-84136666D01*
X139544333Y-84136666D01*
G04 #@! TO.C,R13*
X138234000Y-89597666D02*
X138000666Y-89264333D01*
X137834000Y-89597666D02*
X137834000Y-88897666D01*
X138100666Y-88897666D01*
X138167333Y-88931000D01*
X138200666Y-88964333D01*
X138234000Y-89031000D01*
X138234000Y-89131000D01*
X138200666Y-89197666D01*
X138167333Y-89231000D01*
X138100666Y-89264333D01*
X137834000Y-89264333D01*
X138900666Y-89597666D02*
X138500666Y-89597666D01*
X138700666Y-89597666D02*
X138700666Y-88897666D01*
X138634000Y-88997666D01*
X138567333Y-89064333D01*
X138500666Y-89097666D01*
X139134000Y-88897666D02*
X139567333Y-88897666D01*
X139334000Y-89164333D01*
X139434000Y-89164333D01*
X139500666Y-89197666D01*
X139534000Y-89231000D01*
X139567333Y-89297666D01*
X139567333Y-89464333D01*
X139534000Y-89531000D01*
X139500666Y-89564333D01*
X139434000Y-89597666D01*
X139234000Y-89597666D01*
X139167333Y-89564333D01*
X139134000Y-89531000D01*
G04 #@! TO.C,R14*
X138234000Y-94550666D02*
X138000666Y-94217333D01*
X137834000Y-94550666D02*
X137834000Y-93850666D01*
X138100666Y-93850666D01*
X138167333Y-93884000D01*
X138200666Y-93917333D01*
X138234000Y-93984000D01*
X138234000Y-94084000D01*
X138200666Y-94150666D01*
X138167333Y-94184000D01*
X138100666Y-94217333D01*
X137834000Y-94217333D01*
X138900666Y-94550666D02*
X138500666Y-94550666D01*
X138700666Y-94550666D02*
X138700666Y-93850666D01*
X138634000Y-93950666D01*
X138567333Y-94017333D01*
X138500666Y-94050666D01*
X139500666Y-94084000D02*
X139500666Y-94550666D01*
X139334000Y-93817333D02*
X139167333Y-94317333D01*
X139600666Y-94317333D01*
G04 #@! TO.C,R16*
X139127666Y-119830000D02*
X138794333Y-120063333D01*
X139127666Y-120230000D02*
X138427666Y-120230000D01*
X138427666Y-119963333D01*
X138461000Y-119896666D01*
X138494333Y-119863333D01*
X138561000Y-119830000D01*
X138661000Y-119830000D01*
X138727666Y-119863333D01*
X138761000Y-119896666D01*
X138794333Y-119963333D01*
X138794333Y-120230000D01*
X139127666Y-119163333D02*
X139127666Y-119563333D01*
X139127666Y-119363333D02*
X138427666Y-119363333D01*
X138527666Y-119430000D01*
X138594333Y-119496666D01*
X138627666Y-119563333D01*
X138427666Y-118563333D02*
X138427666Y-118696666D01*
X138461000Y-118763333D01*
X138494333Y-118796666D01*
X138594333Y-118863333D01*
X138727666Y-118896666D01*
X138994333Y-118896666D01*
X139061000Y-118863333D01*
X139094333Y-118830000D01*
X139127666Y-118763333D01*
X139127666Y-118630000D01*
X139094333Y-118563333D01*
X139061000Y-118530000D01*
X138994333Y-118496666D01*
X138827666Y-118496666D01*
X138761000Y-118530000D01*
X138727666Y-118563333D01*
X138694333Y-118630000D01*
X138694333Y-118763333D01*
X138727666Y-118830000D01*
X138761000Y-118863333D01*
X138827666Y-118896666D01*
G04 #@! TO.C,R2*
X115707333Y-138692323D02*
X115474000Y-138358990D01*
X115307333Y-138692323D02*
X115307333Y-137992323D01*
X115574000Y-137992323D01*
X115640666Y-138025657D01*
X115674000Y-138058990D01*
X115707333Y-138125657D01*
X115707333Y-138225657D01*
X115674000Y-138292323D01*
X115640666Y-138325657D01*
X115574000Y-138358990D01*
X115307333Y-138358990D01*
X115974000Y-138058990D02*
X116007333Y-138025657D01*
X116074000Y-137992323D01*
X116240666Y-137992323D01*
X116307333Y-138025657D01*
X116340666Y-138058990D01*
X116374000Y-138125657D01*
X116374000Y-138192323D01*
X116340666Y-138292323D01*
X115940666Y-138692323D01*
X116374000Y-138692323D01*
G04 #@! TO.C,R3*
X115707333Y-139734323D02*
X115474000Y-139400990D01*
X115307333Y-139734323D02*
X115307333Y-139034323D01*
X115574000Y-139034323D01*
X115640666Y-139067657D01*
X115674000Y-139100990D01*
X115707333Y-139167657D01*
X115707333Y-139267657D01*
X115674000Y-139334323D01*
X115640666Y-139367657D01*
X115574000Y-139400990D01*
X115307333Y-139400990D01*
X115940666Y-139034323D02*
X116374000Y-139034323D01*
X116140666Y-139300990D01*
X116240666Y-139300990D01*
X116307333Y-139334323D01*
X116340666Y-139367657D01*
X116374000Y-139434323D01*
X116374000Y-139600990D01*
X116340666Y-139667657D01*
X116307333Y-139700990D01*
X116240666Y-139734323D01*
X116040666Y-139734323D01*
X115974000Y-139700990D01*
X115940666Y-139667657D01*
G04 #@! TO.C,R4*
X115707333Y-145283324D02*
X115474000Y-144949991D01*
X115307333Y-145283324D02*
X115307333Y-144583324D01*
X115574000Y-144583324D01*
X115640666Y-144616658D01*
X115674000Y-144649991D01*
X115707333Y-144716658D01*
X115707333Y-144816658D01*
X115674000Y-144883324D01*
X115640666Y-144916658D01*
X115574000Y-144949991D01*
X115307333Y-144949991D01*
X116307333Y-144816658D02*
X116307333Y-145283324D01*
X116140666Y-144549991D02*
X115974000Y-145049991D01*
X116407333Y-145049991D01*
G04 #@! TO.C,R5*
X115707333Y-144267324D02*
X115474000Y-143933991D01*
X115307333Y-144267324D02*
X115307333Y-143567324D01*
X115574000Y-143567324D01*
X115640666Y-143600658D01*
X115674000Y-143633991D01*
X115707333Y-143700658D01*
X115707333Y-143800658D01*
X115674000Y-143867324D01*
X115640666Y-143900658D01*
X115574000Y-143933991D01*
X115307333Y-143933991D01*
X116340666Y-143567324D02*
X116007333Y-143567324D01*
X115974000Y-143900658D01*
X116007333Y-143867324D01*
X116074000Y-143833991D01*
X116240666Y-143833991D01*
X116307333Y-143867324D01*
X116340666Y-143900658D01*
X116374000Y-143967324D01*
X116374000Y-144133991D01*
X116340666Y-144200658D01*
X116307333Y-144233991D01*
X116240666Y-144267324D01*
X116074000Y-144267324D01*
X116007333Y-144233991D01*
X115974000Y-144200658D01*
G04 #@! TO.C,R6*
X115707333Y-137663324D02*
X115474000Y-137329991D01*
X115307333Y-137663324D02*
X115307333Y-136963324D01*
X115574000Y-136963324D01*
X115640666Y-136996658D01*
X115674000Y-137029991D01*
X115707333Y-137096658D01*
X115707333Y-137196658D01*
X115674000Y-137263324D01*
X115640666Y-137296658D01*
X115574000Y-137329991D01*
X115307333Y-137329991D01*
X116307333Y-136963324D02*
X116174000Y-136963324D01*
X116107333Y-136996658D01*
X116074000Y-137029991D01*
X116007333Y-137129991D01*
X115974000Y-137263324D01*
X115974000Y-137529991D01*
X116007333Y-137596658D01*
X116040666Y-137629991D01*
X116107333Y-137663324D01*
X116240666Y-137663324D01*
X116307333Y-137629991D01*
X116340666Y-137596658D01*
X116374000Y-137529991D01*
X116374000Y-137363324D01*
X116340666Y-137296658D01*
X116307333Y-137263324D01*
X116240666Y-137229991D01*
X116107333Y-137229991D01*
X116040666Y-137263324D01*
X116007333Y-137296658D01*
X115974000Y-137363324D01*
G04 #@! TO.C,R15*
X139254666Y-112464000D02*
X138921333Y-112697333D01*
X139254666Y-112864000D02*
X138554666Y-112864000D01*
X138554666Y-112597333D01*
X138588000Y-112530666D01*
X138621333Y-112497333D01*
X138688000Y-112464000D01*
X138788000Y-112464000D01*
X138854666Y-112497333D01*
X138888000Y-112530666D01*
X138921333Y-112597333D01*
X138921333Y-112864000D01*
X139254666Y-111797333D02*
X139254666Y-112197333D01*
X139254666Y-111997333D02*
X138554666Y-111997333D01*
X138654666Y-112064000D01*
X138721333Y-112130666D01*
X138754666Y-112197333D01*
X138554666Y-111164000D02*
X138554666Y-111497333D01*
X138888000Y-111530666D01*
X138854666Y-111497333D01*
X138821333Y-111430666D01*
X138821333Y-111264000D01*
X138854666Y-111197333D01*
X138888000Y-111164000D01*
X138954666Y-111130666D01*
X139121333Y-111130666D01*
X139188000Y-111164000D01*
X139221333Y-111197333D01*
X139254666Y-111264000D01*
X139254666Y-111430666D01*
X139221333Y-111497333D01*
X139188000Y-111530666D01*
G04 #@! TO.C,R11*
X138234000Y-97598666D02*
X138000666Y-97265333D01*
X137834000Y-97598666D02*
X137834000Y-96898666D01*
X138100666Y-96898666D01*
X138167333Y-96932000D01*
X138200666Y-96965333D01*
X138234000Y-97032000D01*
X138234000Y-97132000D01*
X138200666Y-97198666D01*
X138167333Y-97232000D01*
X138100666Y-97265333D01*
X137834000Y-97265333D01*
X138900666Y-97598666D02*
X138500666Y-97598666D01*
X138700666Y-97598666D02*
X138700666Y-96898666D01*
X138634000Y-96998666D01*
X138567333Y-97065333D01*
X138500666Y-97098666D01*
X139567333Y-97598666D02*
X139167333Y-97598666D01*
X139367333Y-97598666D02*
X139367333Y-96898666D01*
X139300666Y-96998666D01*
X139234000Y-97065333D01*
X139167333Y-97098666D01*
G04 #@! TO.C,C4*
X137170333Y-110486000D02*
X137137000Y-110519333D01*
X137037000Y-110552666D01*
X136970333Y-110552666D01*
X136870333Y-110519333D01*
X136803666Y-110452666D01*
X136770333Y-110386000D01*
X136737000Y-110252666D01*
X136737000Y-110152666D01*
X136770333Y-110019333D01*
X136803666Y-109952666D01*
X136870333Y-109886000D01*
X136970333Y-109852666D01*
X137037000Y-109852666D01*
X137137000Y-109886000D01*
X137170333Y-109919333D01*
X137770333Y-110086000D02*
X137770333Y-110552666D01*
X137603666Y-109819333D02*
X137437000Y-110319333D01*
X137870333Y-110319333D01*
G04 #@! TO.C,D1*
X123816333Y-129348666D02*
X123816333Y-128648666D01*
X123983000Y-128648666D01*
X124083000Y-128682000D01*
X124149666Y-128748666D01*
X124183000Y-128815333D01*
X124216333Y-128948666D01*
X124216333Y-129048666D01*
X124183000Y-129182000D01*
X124149666Y-129248666D01*
X124083000Y-129315333D01*
X123983000Y-129348666D01*
X123816333Y-129348666D01*
X124883000Y-129348666D02*
X124483000Y-129348666D01*
X124683000Y-129348666D02*
X124683000Y-128648666D01*
X124616333Y-128748666D01*
X124549666Y-128815333D01*
X124483000Y-128848666D01*
X125067333Y-131522000D02*
X125167333Y-131555333D01*
X125200666Y-131588666D01*
X125234000Y-131655333D01*
X125234000Y-131755333D01*
X125200666Y-131822000D01*
X125167333Y-131855333D01*
X125100666Y-131888666D01*
X124834000Y-131888666D01*
X124834000Y-131188666D01*
X125067333Y-131188666D01*
X125134000Y-131222000D01*
X125167333Y-131255333D01*
X125200666Y-131322000D01*
X125200666Y-131388666D01*
X125167333Y-131455333D01*
X125134000Y-131488666D01*
X125067333Y-131522000D01*
X124834000Y-131522000D01*
X125867333Y-131888666D02*
X125534000Y-131888666D01*
X125534000Y-131188666D01*
X126100666Y-131188666D02*
X126100666Y-131755333D01*
X126134000Y-131822000D01*
X126167333Y-131855333D01*
X126234000Y-131888666D01*
X126367333Y-131888666D01*
X126434000Y-131855333D01*
X126467333Y-131822000D01*
X126500666Y-131755333D01*
X126500666Y-131188666D01*
X126834000Y-131522000D02*
X127067333Y-131522000D01*
X127167333Y-131888666D02*
X126834000Y-131888666D01*
X126834000Y-131188666D01*
X127167333Y-131188666D01*
G04 #@! TO.C,D2*
X120839666Y-129675666D02*
X120139666Y-129675666D01*
X120139666Y-129509000D01*
X120173000Y-129409000D01*
X120239666Y-129342333D01*
X120306333Y-129309000D01*
X120439666Y-129275666D01*
X120539666Y-129275666D01*
X120673000Y-129309000D01*
X120739666Y-129342333D01*
X120806333Y-129409000D01*
X120839666Y-129509000D01*
X120839666Y-129675666D01*
X120206333Y-129009000D02*
X120173000Y-128975666D01*
X120139666Y-128909000D01*
X120139666Y-128742333D01*
X120173000Y-128675666D01*
X120206333Y-128642333D01*
X120273000Y-128609000D01*
X120339666Y-128609000D01*
X120439666Y-128642333D01*
X120839666Y-129042333D01*
X120839666Y-128609000D01*
X120753333Y-131222000D02*
X120686666Y-131188666D01*
X120586666Y-131188666D01*
X120486666Y-131222000D01*
X120420000Y-131288666D01*
X120386666Y-131355333D01*
X120353333Y-131488666D01*
X120353333Y-131588666D01*
X120386666Y-131722000D01*
X120420000Y-131788666D01*
X120486666Y-131855333D01*
X120586666Y-131888666D01*
X120653333Y-131888666D01*
X120753333Y-131855333D01*
X120786666Y-131822000D01*
X120786666Y-131588666D01*
X120653333Y-131588666D01*
X121486666Y-131888666D02*
X121253333Y-131555333D01*
X121086666Y-131888666D02*
X121086666Y-131188666D01*
X121353333Y-131188666D01*
X121420000Y-131222000D01*
X121453333Y-131255333D01*
X121486666Y-131322000D01*
X121486666Y-131422000D01*
X121453333Y-131488666D01*
X121420000Y-131522000D01*
X121353333Y-131555333D01*
X121086666Y-131555333D01*
X121786666Y-131522000D02*
X122020000Y-131522000D01*
X122120000Y-131888666D02*
X121786666Y-131888666D01*
X121786666Y-131188666D01*
X122120000Y-131188666D01*
X122420000Y-131522000D02*
X122653333Y-131522000D01*
X122753333Y-131888666D02*
X122420000Y-131888666D01*
X122420000Y-131188666D01*
X122753333Y-131188666D01*
X123053333Y-131888666D02*
X123053333Y-131188666D01*
X123453333Y-131888666D01*
X123453333Y-131188666D01*
G04 #@! TO.C,J11*
X123904476Y-113244380D02*
X123904476Y-113958666D01*
X123856857Y-114101523D01*
X123761619Y-114196761D01*
X123618761Y-114244380D01*
X123523523Y-114244380D01*
X124904476Y-114244380D02*
X124333047Y-114244380D01*
X124618761Y-114244380D02*
X124618761Y-113244380D01*
X124523523Y-113387238D01*
X124428285Y-113482476D01*
X124333047Y-113530095D01*
X125856857Y-114244380D02*
X125285428Y-114244380D01*
X125571142Y-114244380D02*
X125571142Y-113244380D01*
X125475904Y-113387238D01*
X125380666Y-113482476D01*
X125285428Y-113530095D01*
X123611000Y-112799761D02*
X123753857Y-112847380D01*
X123991952Y-112847380D01*
X124087190Y-112799761D01*
X124134809Y-112752142D01*
X124182428Y-112656904D01*
X124182428Y-112561666D01*
X124134809Y-112466428D01*
X124087190Y-112418809D01*
X123991952Y-112371190D01*
X123801476Y-112323571D01*
X123706238Y-112275952D01*
X123658619Y-112228333D01*
X123611000Y-112133095D01*
X123611000Y-112037857D01*
X123658619Y-111942619D01*
X123706238Y-111895000D01*
X123801476Y-111847380D01*
X124039571Y-111847380D01*
X124182428Y-111895000D01*
X124515761Y-111847380D02*
X124753857Y-112847380D01*
X124944333Y-112133095D01*
X125134809Y-112847380D01*
X125372904Y-111847380D01*
X125753857Y-112847380D02*
X125753857Y-111847380D01*
X126087190Y-111847380D02*
X126658619Y-111847380D01*
X126372904Y-112847380D02*
X126372904Y-111847380D01*
X127563380Y-112752142D02*
X127515761Y-112799761D01*
X127372904Y-112847380D01*
X127277666Y-112847380D01*
X127134809Y-112799761D01*
X127039571Y-112704523D01*
X126991952Y-112609285D01*
X126944333Y-112418809D01*
X126944333Y-112275952D01*
X126991952Y-112085476D01*
X127039571Y-111990238D01*
X127134809Y-111895000D01*
X127277666Y-111847380D01*
X127372904Y-111847380D01*
X127515761Y-111895000D01*
X127563380Y-111942619D01*
X127991952Y-112847380D02*
X127991952Y-111847380D01*
X127991952Y-112323571D02*
X128563380Y-112323571D01*
X128563380Y-112847380D02*
X128563380Y-111847380D01*
G04 #@! TO.C,R17*
X123502000Y-127189666D02*
X123268666Y-126856333D01*
X123102000Y-127189666D02*
X123102000Y-126489666D01*
X123368666Y-126489666D01*
X123435333Y-126523000D01*
X123468666Y-126556333D01*
X123502000Y-126623000D01*
X123502000Y-126723000D01*
X123468666Y-126789666D01*
X123435333Y-126823000D01*
X123368666Y-126856333D01*
X123102000Y-126856333D01*
X124168666Y-127189666D02*
X123768666Y-127189666D01*
X123968666Y-127189666D02*
X123968666Y-126489666D01*
X123902000Y-126589666D01*
X123835333Y-126656333D01*
X123768666Y-126689666D01*
X124402000Y-126489666D02*
X124868666Y-126489666D01*
X124568666Y-127189666D01*
G04 #@! TO.C,R18*
X119438000Y-127189666D02*
X119204666Y-126856333D01*
X119038000Y-127189666D02*
X119038000Y-126489666D01*
X119304666Y-126489666D01*
X119371333Y-126523000D01*
X119404666Y-126556333D01*
X119438000Y-126623000D01*
X119438000Y-126723000D01*
X119404666Y-126789666D01*
X119371333Y-126823000D01*
X119304666Y-126856333D01*
X119038000Y-126856333D01*
X120104666Y-127189666D02*
X119704666Y-127189666D01*
X119904666Y-127189666D02*
X119904666Y-126489666D01*
X119838000Y-126589666D01*
X119771333Y-126656333D01*
X119704666Y-126689666D01*
X120504666Y-126789666D02*
X120438000Y-126756333D01*
X120404666Y-126723000D01*
X120371333Y-126656333D01*
X120371333Y-126623000D01*
X120404666Y-126556333D01*
X120438000Y-126523000D01*
X120504666Y-126489666D01*
X120638000Y-126489666D01*
X120704666Y-126523000D01*
X120738000Y-126556333D01*
X120771333Y-126623000D01*
X120771333Y-126656333D01*
X120738000Y-126723000D01*
X120704666Y-126756333D01*
X120638000Y-126789666D01*
X120504666Y-126789666D01*
X120438000Y-126823000D01*
X120404666Y-126856333D01*
X120371333Y-126923000D01*
X120371333Y-127056333D01*
X120404666Y-127123000D01*
X120438000Y-127156333D01*
X120504666Y-127189666D01*
X120638000Y-127189666D01*
X120704666Y-127156333D01*
X120738000Y-127123000D01*
X120771333Y-127056333D01*
X120771333Y-126923000D01*
X120738000Y-126856333D01*
X120704666Y-126823000D01*
X120638000Y-126789666D01*
G04 #@! TO.C,R19*
X123502000Y-116013666D02*
X123268666Y-115680333D01*
X123102000Y-116013666D02*
X123102000Y-115313666D01*
X123368666Y-115313666D01*
X123435333Y-115347000D01*
X123468666Y-115380333D01*
X123502000Y-115447000D01*
X123502000Y-115547000D01*
X123468666Y-115613666D01*
X123435333Y-115647000D01*
X123368666Y-115680333D01*
X123102000Y-115680333D01*
X124168666Y-116013666D02*
X123768666Y-116013666D01*
X123968666Y-116013666D02*
X123968666Y-115313666D01*
X123902000Y-115413666D01*
X123835333Y-115480333D01*
X123768666Y-115513666D01*
X124502000Y-116013666D02*
X124635333Y-116013666D01*
X124702000Y-115980333D01*
X124735333Y-115947000D01*
X124802000Y-115847000D01*
X124835333Y-115713666D01*
X124835333Y-115447000D01*
X124802000Y-115380333D01*
X124768666Y-115347000D01*
X124702000Y-115313666D01*
X124568666Y-115313666D01*
X124502000Y-115347000D01*
X124468666Y-115380333D01*
X124435333Y-115447000D01*
X124435333Y-115613666D01*
X124468666Y-115680333D01*
X124502000Y-115713666D01*
X124568666Y-115747000D01*
X124702000Y-115747000D01*
X124768666Y-115713666D01*
X124802000Y-115680333D01*
X124835333Y-115613666D01*
G04 #@! TD*
M02*
