G04 #@! TF.GenerationSoftware,KiCad,Pcbnew,(5.0.1-3-g963ef8bb5)*
G04 #@! TF.CreationDate,2020-07-04T09:07:15+03:00*
G04 #@! TF.ProjectId,sagitta-shield,736167697474612D736869656C642E6B,rev?*
G04 #@! TF.SameCoordinates,Original*
G04 #@! TF.FileFunction,Copper,L2,Bot,Signal*
G04 #@! TF.FilePolarity,Positive*
%FSLAX46Y46*%
G04 Gerber Fmt 4.6, Leading zero omitted, Abs format (unit mm)*
G04 Created by KiCad (PCBNEW (5.0.1-3-g963ef8bb5)) date 2020 July 04, Saturday 09:07:15*
%MOMM*%
%LPD*%
G01*
G04 APERTURE LIST*
G04 #@! TA.AperFunction,ComponentPad*
%ADD10R,1.700000X1.700000*%
G04 #@! TD*
G04 #@! TA.AperFunction,ComponentPad*
%ADD11O,1.700000X1.700000*%
G04 #@! TD*
G04 #@! TA.AperFunction,ComponentPad*
%ADD12R,1.000000X1.000000*%
G04 #@! TD*
G04 #@! TA.AperFunction,ComponentPad*
%ADD13O,1.000000X1.000000*%
G04 #@! TD*
G04 #@! TA.AperFunction,ViaPad*
%ADD14C,0.500000*%
G04 #@! TD*
G04 #@! TA.AperFunction,Conductor*
%ADD15C,0.100000*%
G04 #@! TD*
G04 #@! TA.AperFunction,Conductor*
%ADD16C,3.350000*%
G04 #@! TD*
G04 #@! TA.AperFunction,ViaPad*
%ADD17C,3.600000*%
G04 #@! TD*
G04 #@! TA.AperFunction,ViaPad*
%ADD18C,1.000000*%
G04 #@! TD*
G04 #@! TA.AperFunction,ViaPad*
%ADD19C,0.800000*%
G04 #@! TD*
G04 #@! TA.AperFunction,Conductor*
%ADD20C,0.500000*%
G04 #@! TD*
G04 #@! TA.AperFunction,Conductor*
%ADD21C,0.300000*%
G04 #@! TD*
G04 #@! TA.AperFunction,Conductor*
%ADD22C,0.250000*%
G04 #@! TD*
G04 #@! TA.AperFunction,Conductor*
%ADD23C,1.000000*%
G04 #@! TD*
G04 #@! TA.AperFunction,Conductor*
%ADD24C,0.254000*%
G04 #@! TD*
G04 APERTURE END LIST*
D10*
G04 #@! TO.P,JM1,NC*
G04 #@! TO.N,GND*
X140918070Y-131081600D03*
D11*
G04 #@! TO.P,JM1,CLK*
G04 #@! TO.N,SDCLK*
X140918070Y-128548092D03*
G04 #@! TO.P,JM1,SD0*
G04 #@! TO.N,SDD0*
X140918070Y-126008092D03*
G04 #@! TO.P,JM1,SD1*
G04 #@! TO.N,SDD1*
X140918070Y-123461600D03*
G04 #@! TO.P,JM1,15*
G04 #@! TO.N,Net-(JM1-Pad15)*
X140918070Y-120921600D03*
G04 #@! TO.P,JM1,2*
G04 #@! TO.N,Net-(JM1-Pad2)*
X140918070Y-118388092D03*
G04 #@! TO.P,JM1,0*
G04 #@! TO.N,BLUELED*
X140918070Y-115848092D03*
G04 #@! TO.P,JM1,4*
G04 #@! TO.N,Net-(JM1-Pad4)*
X140918070Y-113301600D03*
G04 #@! TO.P,JM1,16*
G04 #@! TO.N,Net-(JM1-Pad16)*
X140918070Y-110761600D03*
G04 #@! TO.P,JM1,17*
G04 #@! TO.N,Net-(JM1-Pad17)*
X140918070Y-108221600D03*
G04 #@! TO.P,JM1,5*
G04 #@! TO.N,VCC_SWITCH*
X140918070Y-105681600D03*
G04 #@! TO.P,JM1,18*
G04 #@! TO.N,GREENLED*
X140918070Y-103141600D03*
G04 #@! TO.P,JM1,19*
G04 #@! TO.N,PULLUP*
X140918070Y-100601600D03*
G04 #@! TO.P,JM1,GND*
G04 #@! TO.N,GND*
X140918070Y-98061600D03*
G04 #@! TO.P,JM1,21*
G04 #@! TO.N,Net-(JM1-Pad21)*
X140918070Y-95521600D03*
G04 #@! TO.P,JM1,RX*
G04 #@! TO.N,Net-(JM1-PadRX)*
X140918070Y-92988092D03*
G04 #@! TO.P,JM1,TX*
G04 #@! TO.N,Net-(JM1-PadTX)*
X140918070Y-90441600D03*
G04 #@! TO.P,JM1,22*
G04 #@! TO.N,Net-(JM1-Pad22)*
X140918070Y-87901600D03*
G04 #@! TO.P,JM1,23*
G04 #@! TO.N,Net-(JM1-Pad23)*
X140918070Y-85368092D03*
G04 #@! TO.P,JM1,GND*
G04 #@! TO.N,GND*
X140918070Y-82828092D03*
G04 #@! TO.P,JM1,SD3*
G04 #@! TO.N,SDD3*
X114218200Y-123461600D03*
G04 #@! TO.P,JM1,CMD*
G04 #@! TO.N,SDCMD*
X114218200Y-126001600D03*
D10*
G04 #@! TO.P,JM1,NC*
G04 #@! TO.N,GND*
X114218200Y-131081600D03*
D11*
G04 #@! TO.P,JM1,35*
G04 #@! TO.N,Net-(JM1-Pad35)*
X114218200Y-95521600D03*
G04 #@! TO.P,JM1,EN*
G04 #@! TO.N,Net-(JM1-PadEN)*
X114218200Y-85361600D03*
G04 #@! TO.P,JM1,32*
G04 #@! TO.N,Net-(C6-Pad2)*
X114218200Y-98061600D03*
G04 #@! TO.P,JM1,SVN*
G04 #@! TO.N,Net-(JM1-PadSVN)*
X114218200Y-90441600D03*
G04 #@! TO.P,JM1,12*
G04 #@! TO.N,Net-(JM1-Pad12)*
X114218200Y-113301600D03*
G04 #@! TO.P,JM1,SD2*
G04 #@! TO.N,SDD2*
X114218200Y-120921600D03*
G04 #@! TO.P,JM1,5V*
G04 #@! TO.N,+5V*
X114218200Y-128541600D03*
G04 #@! TO.P,JM1,25*
G04 #@! TO.N,RTD_DRDY*
X114218200Y-103141600D03*
G04 #@! TO.P,JM1,SVP*
G04 #@! TO.N,Net-(JM1-PadSVP)*
X114218200Y-87901600D03*
G04 #@! TO.P,JM1,13*
G04 #@! TO.N,Net-(JM1-Pad13)*
X114218200Y-118381600D03*
G04 #@! TO.P,JM1,14*
G04 #@! TO.N,Net-(JM1-Pad14)*
X114218200Y-110761600D03*
G04 #@! TO.P,JM1,34*
G04 #@! TO.N,Net-(JM1-Pad34)*
X114218200Y-92981600D03*
G04 #@! TO.P,JM1,26*
G04 #@! TO.N,SWITCH*
X114218200Y-105681600D03*
G04 #@! TO.P,JM1,GND*
G04 #@! TO.N,GND*
X114218200Y-115841600D03*
G04 #@! TO.P,JM1,VCC*
G04 #@! TO.N,+3V3*
X114218200Y-82821600D03*
G04 #@! TO.P,JM1,27*
G04 #@! TO.N,RTD_CS*
X114218200Y-108221600D03*
G04 #@! TO.P,JM1,33*
G04 #@! TO.N,Net-(C5-Pad2)*
X114218200Y-100601600D03*
G04 #@! TD*
D12*
G04 #@! TO.P,J1,1*
G04 #@! TO.N,Net-(J1-Pad1)*
X135636000Y-62992000D03*
D13*
G04 #@! TO.P,J1,2*
G04 #@! TO.N,Net-(J1-Pad2)*
X134366000Y-62992000D03*
G04 #@! TO.P,J1,3*
G04 #@! TO.N,Net-(J1-Pad3)*
X133096000Y-62992000D03*
G04 #@! TO.P,J1,4*
G04 #@! TO.N,Net-(J1-Pad4)*
X131826000Y-62992000D03*
G04 #@! TD*
G04 #@! TO.P,J3,4*
G04 #@! TO.N,Net-(J3-Pad4)*
X125373203Y-76575105D03*
G04 #@! TO.P,J3,3*
G04 #@! TO.N,Net-(C3-Pad2)*
X125373203Y-77845105D03*
G04 #@! TO.P,J3,2*
G04 #@! TO.N,Net-(C3-Pad1)*
X125373203Y-79115105D03*
D12*
G04 #@! TO.P,J3,1*
G04 #@! TO.N,Net-(J3-Pad1)*
X125373203Y-80385105D03*
G04 #@! TD*
D13*
G04 #@! TO.P,J5,2*
G04 #@! TO.N,UART2TX*
X137160000Y-115062000D03*
D12*
G04 #@! TO.P,J5,1*
G04 #@! TO.N,UART2RX*
X137160000Y-116332000D03*
G04 #@! TD*
G04 #@! TO.P,J7,1*
G04 #@! TO.N,VDD*
X115570000Y-71120000D03*
D13*
G04 #@! TO.P,J7,2*
X115570000Y-72390000D03*
G04 #@! TO.P,J7,3*
X115570000Y-73660000D03*
G04 #@! TO.P,J7,4*
X115570000Y-74930000D03*
G04 #@! TD*
D14*
G04 #@! TO.N,GND*
G04 #@! TO.C,U2*
X129744999Y-91671999D03*
X128319999Y-91671999D03*
X126894999Y-91671999D03*
X129744999Y-90246999D03*
X128319999Y-90246999D03*
X126894999Y-90246999D03*
X129744999Y-88821999D03*
X128319999Y-88821999D03*
X126894999Y-88821999D03*
D15*
G36*
X129769503Y-88573203D02*
X129793772Y-88576803D01*
X129817570Y-88582764D01*
X129840670Y-88591029D01*
X129862848Y-88601519D01*
X129883892Y-88614132D01*
X129903597Y-88628746D01*
X129921776Y-88645222D01*
X129938252Y-88663401D01*
X129952866Y-88683106D01*
X129965479Y-88704150D01*
X129975969Y-88726328D01*
X129984234Y-88749428D01*
X129990195Y-88773226D01*
X129993795Y-88797495D01*
X129994999Y-88821999D01*
X129994999Y-91671999D01*
X129993795Y-91696503D01*
X129990195Y-91720772D01*
X129984234Y-91744570D01*
X129975969Y-91767670D01*
X129965479Y-91789848D01*
X129952866Y-91810892D01*
X129938252Y-91830597D01*
X129921776Y-91848776D01*
X129903597Y-91865252D01*
X129883892Y-91879866D01*
X129862848Y-91892479D01*
X129840670Y-91902969D01*
X129817570Y-91911234D01*
X129793772Y-91917195D01*
X129769503Y-91920795D01*
X129744999Y-91921999D01*
X126894999Y-91921999D01*
X126870495Y-91920795D01*
X126846226Y-91917195D01*
X126822428Y-91911234D01*
X126799328Y-91902969D01*
X126777150Y-91892479D01*
X126756106Y-91879866D01*
X126736401Y-91865252D01*
X126718222Y-91848776D01*
X126701746Y-91830597D01*
X126687132Y-91810892D01*
X126674519Y-91789848D01*
X126664029Y-91767670D01*
X126655764Y-91744570D01*
X126649803Y-91720772D01*
X126646203Y-91696503D01*
X126644999Y-91671999D01*
X126644999Y-88821999D01*
X126646203Y-88797495D01*
X126649803Y-88773226D01*
X126655764Y-88749428D01*
X126664029Y-88726328D01*
X126674519Y-88704150D01*
X126687132Y-88683106D01*
X126701746Y-88663401D01*
X126718222Y-88645222D01*
X126736401Y-88628746D01*
X126756106Y-88614132D01*
X126777150Y-88601519D01*
X126799328Y-88591029D01*
X126822428Y-88582764D01*
X126846226Y-88576803D01*
X126870495Y-88573203D01*
X126894999Y-88571999D01*
X129744999Y-88571999D01*
X129769503Y-88573203D01*
X129769503Y-88573203D01*
G37*
D16*
X128319999Y-90246999D03*
G04 #@! TD*
D13*
G04 #@! TO.P,J4,2*
G04 #@! TO.N,Net-(C5-Pad2)*
X121666000Y-62992000D03*
D12*
G04 #@! TO.P,J4,1*
G04 #@! TO.N,Net-(C6-Pad2)*
X122936000Y-62992000D03*
G04 #@! TD*
G04 #@! TO.P,J6,1*
G04 #@! TO.N,SDA*
X138176000Y-92202000D03*
D13*
G04 #@! TO.P,J6,2*
G04 #@! TO.N,SCL*
X138176000Y-90932000D03*
G04 #@! TD*
D12*
G04 #@! TO.P,J8,1*
G04 #@! TO.N,GND*
X139700000Y-71120000D03*
D13*
G04 #@! TO.P,J8,2*
X139700000Y-72390000D03*
G04 #@! TO.P,J8,3*
X139700000Y-73660000D03*
G04 #@! TO.P,J8,4*
X139700000Y-74930000D03*
G04 #@! TD*
D12*
G04 #@! TO.P,J9,1*
G04 #@! TO.N,GND*
X121793000Y-107061000D03*
D13*
G04 #@! TO.P,J9,2*
G04 #@! TO.N,+3V3*
X121793000Y-108331000D03*
G04 #@! TO.P,J9,3*
G04 #@! TO.N,+5V*
X121793000Y-109601000D03*
G04 #@! TD*
G04 #@! TO.P,J10,3*
G04 #@! TO.N,+5V*
X132080000Y-109601000D03*
G04 #@! TO.P,J10,2*
G04 #@! TO.N,VDD*
X132080000Y-108331000D03*
D12*
G04 #@! TO.P,J10,1*
G04 #@! TO.N,GND*
X132080000Y-107061000D03*
G04 #@! TD*
G04 #@! TO.P,J11,1*
G04 #@! TO.N,Net-(J11-Pad1)*
X121793000Y-113665000D03*
D13*
G04 #@! TO.P,J11,2*
G04 #@! TO.N,+3V3*
X121793000Y-112395000D03*
G04 #@! TD*
D17*
G04 #@! TO.N,GND*
X140081000Y-62230000D03*
X115062000Y-62230000D03*
X115062000Y-149479000D03*
X140055600Y-149479000D03*
D18*
X117729000Y-65786000D03*
X119888000Y-147955000D03*
X133604000Y-67945000D03*
X124968000Y-81915004D03*
X121309840Y-142249100D03*
X137159998Y-127381000D03*
X133858000Y-123571000D03*
X123952000Y-130556000D03*
X124460000Y-103505000D03*
X126492000Y-103505000D03*
D19*
G04 #@! TO.N,Net-(C5-Pad2)*
X121793000Y-65532000D03*
D18*
G04 #@! TO.N,+5V*
X117856000Y-124333000D03*
D19*
G04 #@! TO.N,MISO*
X124460000Y-90932000D03*
X119634000Y-91059000D03*
G04 #@! TO.N,RTD_DRDY*
X123952000Y-100711000D03*
G04 #@! TO.N,SCLK*
X117070000Y-100711000D03*
X119126002Y-96901000D03*
G04 #@! TO.N,RTD_CS*
X122555000Y-102743000D03*
D18*
G04 #@! TO.N,VDD*
X117221000Y-133223000D03*
X120205010Y-133223000D03*
X134874000Y-88900000D03*
D19*
X132842000Y-71247000D03*
X129159000Y-71247000D03*
D18*
X115442998Y-141097000D03*
X117729000Y-141097000D03*
X135890000Y-85090000D03*
D19*
G04 #@! TO.N,SDD1*
X127762000Y-135763000D03*
G04 #@! TO.N,SDD3*
X123698000Y-134873992D03*
G04 #@! TO.N,SDCMD*
X122301000Y-138430000D03*
G04 #@! TO.N,SDD0*
X133984998Y-127889028D03*
G04 #@! TO.N,PULLUP*
X116692914Y-142621000D03*
G04 #@! TO.N,BLUELED*
X137160000Y-119126000D03*
G04 #@! TO.N,GREENLED*
X138811000Y-109093000D03*
G04 #@! TO.N,SWITCH*
X119761000Y-104394000D03*
G04 #@! TD*
D20*
G04 #@! TO.N,GND*
X126647512Y-88574512D02*
X126647512Y-88547512D01*
X128319999Y-90246999D02*
X126647512Y-88574512D01*
X126647512Y-88547512D02*
X125984000Y-87884000D01*
X128319999Y-90246999D02*
X126647512Y-91919488D01*
X126647512Y-91919488D02*
X125857000Y-92710000D01*
X128319999Y-90246999D02*
X129744999Y-91671999D01*
X130783000Y-92710000D02*
X130810000Y-92710000D01*
X128319999Y-90246999D02*
X130783000Y-92710000D01*
X128319999Y-90246999D02*
X129744999Y-88821999D01*
X128319999Y-90246999D02*
X129992488Y-88574512D01*
X129992488Y-88574512D02*
X130810000Y-87757000D01*
G04 #@! TO.N,+3V3*
X122500106Y-108331000D02*
X121793000Y-108331000D01*
X125476000Y-105355106D02*
X122500106Y-108331000D01*
X125476000Y-99568000D02*
X125476000Y-105355106D01*
X116840000Y-90932000D02*
X125476000Y-99568000D01*
X116840000Y-85471000D02*
X116840000Y-90932000D01*
X114300000Y-82931000D02*
X116840000Y-85471000D01*
D21*
X121793000Y-112395000D02*
X123317000Y-110871000D01*
X123317000Y-109147894D02*
X122500106Y-108331000D01*
X123317000Y-110871000D02*
X123317000Y-109147894D01*
D22*
G04 #@! TO.N,Net-(C5-Pad2)*
X121793000Y-63119000D02*
X121666000Y-62992000D01*
X121793000Y-65532000D02*
X121793000Y-63119000D01*
D20*
G04 #@! TO.N,+5V*
X117856000Y-123625894D02*
X117856000Y-124333000D01*
X119888000Y-121593894D02*
X117856000Y-123625894D01*
X119888000Y-111506000D02*
X119888000Y-121593894D01*
X121793000Y-109601000D02*
X119888000Y-111506000D01*
D22*
G04 #@! TO.N,MISO*
X124460000Y-90932000D02*
X124460000Y-90932000D01*
X124460000Y-90932000D02*
X119761000Y-90932000D01*
G04 #@! TO.N,RTD_DRDY*
X123552001Y-101110999D02*
X123952000Y-100711000D01*
X114300000Y-103251000D02*
X115715999Y-101835001D01*
X115715999Y-101835001D02*
X122827999Y-101835001D01*
X122827999Y-101835001D02*
X123552001Y-101110999D01*
G04 #@! TO.N,SCLK*
X117070000Y-98957002D02*
X118726003Y-97300999D01*
X117070000Y-100711000D02*
X117070000Y-98957002D01*
X118726003Y-97300999D02*
X119126002Y-96901000D01*
G04 #@! TO.N,RTD_CS*
X122555000Y-103308685D02*
X117532685Y-108331000D01*
X117532685Y-108331000D02*
X114300000Y-108331000D01*
X122555000Y-102743000D02*
X122555000Y-103308685D01*
D23*
G04 #@! TO.N,VDD*
X117221000Y-133223000D02*
X120205010Y-133223000D01*
X129159000Y-71247000D02*
X132842000Y-71247000D01*
D21*
X117729000Y-141096994D02*
X117729000Y-141097000D01*
X115443004Y-141096994D02*
X115442998Y-141097000D01*
X117729000Y-141097000D02*
X115443004Y-141096994D01*
D23*
X135890000Y-85797106D02*
X135890000Y-85090000D01*
X135890000Y-87884000D02*
X135890000Y-85797106D01*
X134874000Y-88900000D02*
X135890000Y-87884000D01*
D22*
G04 #@! TO.N,SDD1*
X128161999Y-135363001D02*
X127762000Y-135763000D01*
X136975996Y-123571000D02*
X132624998Y-127921998D01*
X132624998Y-130900002D02*
X128161999Y-135363001D01*
X140999870Y-123571000D02*
X136975996Y-123571000D01*
X132624998Y-127921998D02*
X132624998Y-130900002D01*
G04 #@! TO.N,SDD3*
X123444000Y-132207000D02*
X114046000Y-122809000D01*
X123698000Y-132461000D02*
X123444000Y-132207000D01*
X123698000Y-134873992D02*
X123698000Y-132461000D01*
G04 #@! TO.N,SDCMD*
X114300000Y-126111000D02*
X122301000Y-134112000D01*
X122301000Y-134112000D02*
X122301000Y-137864315D01*
X122301000Y-137864315D02*
X122301000Y-138430000D01*
G04 #@! TO.N,SDD0*
X135756534Y-126117492D02*
X134384997Y-127489029D01*
X140999870Y-126117492D02*
X135756534Y-126117492D01*
X134384997Y-127489029D02*
X133984998Y-127889028D01*
G04 #@! TO.N,PULLUP*
X132174987Y-129813019D02*
X119367006Y-142621000D01*
X117258599Y-142621000D02*
X116692914Y-142621000D01*
X132174987Y-127381267D02*
X132174987Y-129813019D01*
X119367006Y-142621000D02*
X117258599Y-142621000D01*
X135128000Y-124428254D02*
X132174987Y-127381267D01*
X135128000Y-106582870D02*
X135128000Y-124428254D01*
X140999870Y-100711000D02*
X135128000Y-106582870D01*
G04 #@! TO.N,BLUELED*
X140437908Y-115848092D02*
X140918070Y-115848092D01*
X137160000Y-119126000D02*
X140437908Y-115848092D01*
G04 #@! TO.N,GREENLED*
X138811000Y-105248670D02*
X140918070Y-103141600D01*
X138811000Y-109093000D02*
X138811000Y-105248670D01*
G04 #@! TO.N,SWITCH*
X119361001Y-104793999D02*
X119761000Y-104394000D01*
X118473400Y-105681600D02*
X119361001Y-104793999D01*
X114218200Y-105681600D02*
X118473400Y-105681600D01*
G04 #@! TD*
D24*
G04 #@! TO.N,GND*
G36*
X139862936Y-127063226D02*
X140089056Y-127248798D01*
X140143861Y-127278092D01*
X140089056Y-127307386D01*
X139862936Y-127492958D01*
X139677364Y-127719078D01*
X139539471Y-127977058D01*
X139454557Y-128256981D01*
X139425885Y-128548092D01*
X139454557Y-128839203D01*
X139539471Y-129119126D01*
X139677364Y-129377106D01*
X139862936Y-129603226D01*
X139884256Y-129620723D01*
X139882847Y-129621003D01*
X139767285Y-129668870D01*
X139663281Y-129738363D01*
X139574833Y-129826811D01*
X139505340Y-129930815D01*
X139457473Y-130046377D01*
X139433070Y-130169058D01*
X139433070Y-130795850D01*
X139591820Y-130954600D01*
X140791070Y-130954600D01*
X140791070Y-130934600D01*
X141045070Y-130934600D01*
X141045070Y-130954600D01*
X141065070Y-130954600D01*
X141065070Y-131208600D01*
X141045070Y-131208600D01*
X141045070Y-132407850D01*
X141203820Y-132566600D01*
X141527161Y-132566600D01*
X141526481Y-149337167D01*
X141511213Y-149698415D01*
X141438940Y-149996695D01*
X141310103Y-150275265D01*
X141129615Y-150523501D01*
X140904347Y-150731955D01*
X140642884Y-150892681D01*
X140355179Y-150999562D01*
X140028727Y-151052318D01*
X139942921Y-151055000D01*
X115350721Y-151055000D01*
X115010550Y-151021645D01*
X114716732Y-150932937D01*
X114445737Y-150788846D01*
X114207898Y-150594870D01*
X114012260Y-150358384D01*
X113866283Y-150088405D01*
X113775525Y-149795214D01*
X113740000Y-149457213D01*
X113740000Y-132566600D01*
X113932450Y-132566600D01*
X114091200Y-132407850D01*
X114091200Y-131208600D01*
X114345200Y-131208600D01*
X114345200Y-132407850D01*
X114503950Y-132566600D01*
X115130742Y-132566600D01*
X115253423Y-132542197D01*
X115368985Y-132494330D01*
X115472989Y-132424837D01*
X115561437Y-132336389D01*
X115630930Y-132232385D01*
X115678797Y-132116823D01*
X115703200Y-131994142D01*
X115703200Y-131367350D01*
X115544450Y-131208600D01*
X114345200Y-131208600D01*
X114091200Y-131208600D01*
X114071200Y-131208600D01*
X114071200Y-130954600D01*
X114091200Y-130954600D01*
X114091200Y-130934600D01*
X114345200Y-130934600D01*
X114345200Y-130954600D01*
X115544450Y-130954600D01*
X115703200Y-130795850D01*
X115703200Y-130169058D01*
X115678797Y-130046377D01*
X115630930Y-129930815D01*
X115561437Y-129826811D01*
X115472989Y-129738363D01*
X115368985Y-129668870D01*
X115253423Y-129621003D01*
X115245647Y-129619456D01*
X115273334Y-129596734D01*
X115458906Y-129370614D01*
X115596799Y-129112634D01*
X115681713Y-128832711D01*
X115705491Y-128591292D01*
X119202198Y-132088000D01*
X117109212Y-132088000D01*
X117054253Y-132098932D01*
X116998501Y-132104423D01*
X116944894Y-132120685D01*
X116889933Y-132131617D01*
X116838158Y-132153063D01*
X116784553Y-132169324D01*
X116735149Y-132195731D01*
X116683376Y-132217176D01*
X116636786Y-132248307D01*
X116587377Y-132274716D01*
X116544068Y-132310259D01*
X116497480Y-132341388D01*
X116457859Y-132381009D01*
X116414551Y-132416551D01*
X116379009Y-132459859D01*
X116339388Y-132499480D01*
X116308259Y-132546068D01*
X116272716Y-132589377D01*
X116246307Y-132638786D01*
X116215176Y-132685376D01*
X116193731Y-132737149D01*
X116167324Y-132786553D01*
X116151063Y-132840158D01*
X116129617Y-132891933D01*
X116118685Y-132946894D01*
X116102423Y-133000501D01*
X116096932Y-133056253D01*
X116086000Y-133111212D01*
X116086000Y-133167248D01*
X116080509Y-133223000D01*
X116086000Y-133278752D01*
X116086000Y-133334788D01*
X116096932Y-133389747D01*
X116102423Y-133445499D01*
X116118685Y-133499106D01*
X116129617Y-133554067D01*
X116151063Y-133605842D01*
X116167324Y-133659447D01*
X116193731Y-133708851D01*
X116215176Y-133760624D01*
X116246307Y-133807214D01*
X116272716Y-133856623D01*
X116308259Y-133899932D01*
X116339388Y-133946520D01*
X116379009Y-133986141D01*
X116414551Y-134029449D01*
X116457859Y-134064991D01*
X116497480Y-134104612D01*
X116544068Y-134135741D01*
X116587377Y-134171284D01*
X116636786Y-134197693D01*
X116683376Y-134228824D01*
X116735149Y-134250269D01*
X116784553Y-134276676D01*
X116838158Y-134292937D01*
X116889933Y-134314383D01*
X116944894Y-134325315D01*
X116998501Y-134341577D01*
X117054253Y-134347068D01*
X117109212Y-134358000D01*
X120316798Y-134358000D01*
X120371757Y-134347068D01*
X120427509Y-134341577D01*
X120481116Y-134325315D01*
X120536077Y-134314383D01*
X120587852Y-134292937D01*
X120641457Y-134276676D01*
X120690861Y-134250269D01*
X120742634Y-134228824D01*
X120789224Y-134197693D01*
X120838633Y-134171284D01*
X120881942Y-134135741D01*
X120928530Y-134104612D01*
X120968151Y-134064991D01*
X121011459Y-134029449D01*
X121047001Y-133986141D01*
X121073670Y-133959472D01*
X121541000Y-134426802D01*
X121541001Y-137726288D01*
X121497063Y-137770226D01*
X121383795Y-137939744D01*
X121305774Y-138128102D01*
X121266000Y-138328061D01*
X121266000Y-138531939D01*
X121305774Y-138731898D01*
X121383795Y-138920256D01*
X121497063Y-139089774D01*
X121641226Y-139233937D01*
X121664030Y-139249174D01*
X119052205Y-141861000D01*
X118570132Y-141861000D01*
X118610612Y-141820520D01*
X118734824Y-141634624D01*
X118820383Y-141428067D01*
X118864000Y-141208788D01*
X118864000Y-140985212D01*
X118820383Y-140765933D01*
X118734824Y-140559376D01*
X118610612Y-140373480D01*
X118452520Y-140215388D01*
X118266624Y-140091176D01*
X118060067Y-140005617D01*
X117840788Y-139962000D01*
X117617212Y-139962000D01*
X117397933Y-140005617D01*
X117191376Y-140091176D01*
X117005480Y-140215388D01*
X116908870Y-140311998D01*
X116263127Y-140311997D01*
X116166518Y-140215388D01*
X115980622Y-140091176D01*
X115774065Y-140005617D01*
X115554786Y-139962000D01*
X115331210Y-139962000D01*
X115111931Y-140005617D01*
X114905374Y-140091176D01*
X114719478Y-140215388D01*
X114561386Y-140373480D01*
X114437174Y-140559376D01*
X114351615Y-140765933D01*
X114307998Y-140985212D01*
X114307998Y-141208788D01*
X114351615Y-141428067D01*
X114437174Y-141634624D01*
X114561386Y-141820520D01*
X114719478Y-141978612D01*
X114905374Y-142102824D01*
X115111931Y-142188383D01*
X115331210Y-142232000D01*
X115554786Y-142232000D01*
X115749838Y-142193202D01*
X115697688Y-142319102D01*
X115657914Y-142519061D01*
X115657914Y-142722939D01*
X115697688Y-142922898D01*
X115775709Y-143111256D01*
X115888977Y-143280774D01*
X116033140Y-143424937D01*
X116202658Y-143538205D01*
X116391016Y-143616226D01*
X116590975Y-143656000D01*
X116794853Y-143656000D01*
X116994812Y-143616226D01*
X117183170Y-143538205D01*
X117352688Y-143424937D01*
X117396625Y-143381000D01*
X119329684Y-143381000D01*
X119367006Y-143384676D01*
X119404328Y-143381000D01*
X119404339Y-143381000D01*
X119515992Y-143370003D01*
X119659253Y-143326546D01*
X119791282Y-143255974D01*
X119907007Y-143161001D01*
X119930810Y-143131997D01*
X126834473Y-136228336D01*
X126844795Y-136253256D01*
X126958063Y-136422774D01*
X127102226Y-136566937D01*
X127271744Y-136680205D01*
X127460102Y-136758226D01*
X127660061Y-136798000D01*
X127863939Y-136798000D01*
X128063898Y-136758226D01*
X128252256Y-136680205D01*
X128421774Y-136566937D01*
X128565937Y-136422774D01*
X128679205Y-136253256D01*
X128757226Y-136064898D01*
X128797000Y-135864939D01*
X128797000Y-135802801D01*
X133136001Y-131463801D01*
X133164999Y-131440003D01*
X133224623Y-131367350D01*
X139433070Y-131367350D01*
X139433070Y-131994142D01*
X139457473Y-132116823D01*
X139505340Y-132232385D01*
X139574833Y-132336389D01*
X139663281Y-132424837D01*
X139767285Y-132494330D01*
X139882847Y-132542197D01*
X140005528Y-132566600D01*
X140632320Y-132566600D01*
X140791070Y-132407850D01*
X140791070Y-131208600D01*
X139591820Y-131208600D01*
X139433070Y-131367350D01*
X133224623Y-131367350D01*
X133259972Y-131324278D01*
X133330544Y-131192249D01*
X133374001Y-131048988D01*
X133384998Y-130937335D01*
X133384998Y-130937327D01*
X133388674Y-130900002D01*
X133384998Y-130862677D01*
X133384998Y-128732905D01*
X133494742Y-128806233D01*
X133683100Y-128884254D01*
X133883059Y-128924028D01*
X134086937Y-128924028D01*
X134286896Y-128884254D01*
X134475254Y-128806233D01*
X134644772Y-128692965D01*
X134788935Y-128548802D01*
X134902203Y-128379284D01*
X134980224Y-128190926D01*
X135019998Y-127990967D01*
X135019998Y-127928829D01*
X136071336Y-126877492D01*
X139710508Y-126877492D01*
X139862936Y-127063226D01*
X139862936Y-127063226D01*
G37*
X139862936Y-127063226D02*
X140089056Y-127248798D01*
X140143861Y-127278092D01*
X140089056Y-127307386D01*
X139862936Y-127492958D01*
X139677364Y-127719078D01*
X139539471Y-127977058D01*
X139454557Y-128256981D01*
X139425885Y-128548092D01*
X139454557Y-128839203D01*
X139539471Y-129119126D01*
X139677364Y-129377106D01*
X139862936Y-129603226D01*
X139884256Y-129620723D01*
X139882847Y-129621003D01*
X139767285Y-129668870D01*
X139663281Y-129738363D01*
X139574833Y-129826811D01*
X139505340Y-129930815D01*
X139457473Y-130046377D01*
X139433070Y-130169058D01*
X139433070Y-130795850D01*
X139591820Y-130954600D01*
X140791070Y-130954600D01*
X140791070Y-130934600D01*
X141045070Y-130934600D01*
X141045070Y-130954600D01*
X141065070Y-130954600D01*
X141065070Y-131208600D01*
X141045070Y-131208600D01*
X141045070Y-132407850D01*
X141203820Y-132566600D01*
X141527161Y-132566600D01*
X141526481Y-149337167D01*
X141511213Y-149698415D01*
X141438940Y-149996695D01*
X141310103Y-150275265D01*
X141129615Y-150523501D01*
X140904347Y-150731955D01*
X140642884Y-150892681D01*
X140355179Y-150999562D01*
X140028727Y-151052318D01*
X139942921Y-151055000D01*
X115350721Y-151055000D01*
X115010550Y-151021645D01*
X114716732Y-150932937D01*
X114445737Y-150788846D01*
X114207898Y-150594870D01*
X114012260Y-150358384D01*
X113866283Y-150088405D01*
X113775525Y-149795214D01*
X113740000Y-149457213D01*
X113740000Y-132566600D01*
X113932450Y-132566600D01*
X114091200Y-132407850D01*
X114091200Y-131208600D01*
X114345200Y-131208600D01*
X114345200Y-132407850D01*
X114503950Y-132566600D01*
X115130742Y-132566600D01*
X115253423Y-132542197D01*
X115368985Y-132494330D01*
X115472989Y-132424837D01*
X115561437Y-132336389D01*
X115630930Y-132232385D01*
X115678797Y-132116823D01*
X115703200Y-131994142D01*
X115703200Y-131367350D01*
X115544450Y-131208600D01*
X114345200Y-131208600D01*
X114091200Y-131208600D01*
X114071200Y-131208600D01*
X114071200Y-130954600D01*
X114091200Y-130954600D01*
X114091200Y-130934600D01*
X114345200Y-130934600D01*
X114345200Y-130954600D01*
X115544450Y-130954600D01*
X115703200Y-130795850D01*
X115703200Y-130169058D01*
X115678797Y-130046377D01*
X115630930Y-129930815D01*
X115561437Y-129826811D01*
X115472989Y-129738363D01*
X115368985Y-129668870D01*
X115253423Y-129621003D01*
X115245647Y-129619456D01*
X115273334Y-129596734D01*
X115458906Y-129370614D01*
X115596799Y-129112634D01*
X115681713Y-128832711D01*
X115705491Y-128591292D01*
X119202198Y-132088000D01*
X117109212Y-132088000D01*
X117054253Y-132098932D01*
X116998501Y-132104423D01*
X116944894Y-132120685D01*
X116889933Y-132131617D01*
X116838158Y-132153063D01*
X116784553Y-132169324D01*
X116735149Y-132195731D01*
X116683376Y-132217176D01*
X116636786Y-132248307D01*
X116587377Y-132274716D01*
X116544068Y-132310259D01*
X116497480Y-132341388D01*
X116457859Y-132381009D01*
X116414551Y-132416551D01*
X116379009Y-132459859D01*
X116339388Y-132499480D01*
X116308259Y-132546068D01*
X116272716Y-132589377D01*
X116246307Y-132638786D01*
X116215176Y-132685376D01*
X116193731Y-132737149D01*
X116167324Y-132786553D01*
X116151063Y-132840158D01*
X116129617Y-132891933D01*
X116118685Y-132946894D01*
X116102423Y-133000501D01*
X116096932Y-133056253D01*
X116086000Y-133111212D01*
X116086000Y-133167248D01*
X116080509Y-133223000D01*
X116086000Y-133278752D01*
X116086000Y-133334788D01*
X116096932Y-133389747D01*
X116102423Y-133445499D01*
X116118685Y-133499106D01*
X116129617Y-133554067D01*
X116151063Y-133605842D01*
X116167324Y-133659447D01*
X116193731Y-133708851D01*
X116215176Y-133760624D01*
X116246307Y-133807214D01*
X116272716Y-133856623D01*
X116308259Y-133899932D01*
X116339388Y-133946520D01*
X116379009Y-133986141D01*
X116414551Y-134029449D01*
X116457859Y-134064991D01*
X116497480Y-134104612D01*
X116544068Y-134135741D01*
X116587377Y-134171284D01*
X116636786Y-134197693D01*
X116683376Y-134228824D01*
X116735149Y-134250269D01*
X116784553Y-134276676D01*
X116838158Y-134292937D01*
X116889933Y-134314383D01*
X116944894Y-134325315D01*
X116998501Y-134341577D01*
X117054253Y-134347068D01*
X117109212Y-134358000D01*
X120316798Y-134358000D01*
X120371757Y-134347068D01*
X120427509Y-134341577D01*
X120481116Y-134325315D01*
X120536077Y-134314383D01*
X120587852Y-134292937D01*
X120641457Y-134276676D01*
X120690861Y-134250269D01*
X120742634Y-134228824D01*
X120789224Y-134197693D01*
X120838633Y-134171284D01*
X120881942Y-134135741D01*
X120928530Y-134104612D01*
X120968151Y-134064991D01*
X121011459Y-134029449D01*
X121047001Y-133986141D01*
X121073670Y-133959472D01*
X121541000Y-134426802D01*
X121541001Y-137726288D01*
X121497063Y-137770226D01*
X121383795Y-137939744D01*
X121305774Y-138128102D01*
X121266000Y-138328061D01*
X121266000Y-138531939D01*
X121305774Y-138731898D01*
X121383795Y-138920256D01*
X121497063Y-139089774D01*
X121641226Y-139233937D01*
X121664030Y-139249174D01*
X119052205Y-141861000D01*
X118570132Y-141861000D01*
X118610612Y-141820520D01*
X118734824Y-141634624D01*
X118820383Y-141428067D01*
X118864000Y-141208788D01*
X118864000Y-140985212D01*
X118820383Y-140765933D01*
X118734824Y-140559376D01*
X118610612Y-140373480D01*
X118452520Y-140215388D01*
X118266624Y-140091176D01*
X118060067Y-140005617D01*
X117840788Y-139962000D01*
X117617212Y-139962000D01*
X117397933Y-140005617D01*
X117191376Y-140091176D01*
X117005480Y-140215388D01*
X116908870Y-140311998D01*
X116263127Y-140311997D01*
X116166518Y-140215388D01*
X115980622Y-140091176D01*
X115774065Y-140005617D01*
X115554786Y-139962000D01*
X115331210Y-139962000D01*
X115111931Y-140005617D01*
X114905374Y-140091176D01*
X114719478Y-140215388D01*
X114561386Y-140373480D01*
X114437174Y-140559376D01*
X114351615Y-140765933D01*
X114307998Y-140985212D01*
X114307998Y-141208788D01*
X114351615Y-141428067D01*
X114437174Y-141634624D01*
X114561386Y-141820520D01*
X114719478Y-141978612D01*
X114905374Y-142102824D01*
X115111931Y-142188383D01*
X115331210Y-142232000D01*
X115554786Y-142232000D01*
X115749838Y-142193202D01*
X115697688Y-142319102D01*
X115657914Y-142519061D01*
X115657914Y-142722939D01*
X115697688Y-142922898D01*
X115775709Y-143111256D01*
X115888977Y-143280774D01*
X116033140Y-143424937D01*
X116202658Y-143538205D01*
X116391016Y-143616226D01*
X116590975Y-143656000D01*
X116794853Y-143656000D01*
X116994812Y-143616226D01*
X117183170Y-143538205D01*
X117352688Y-143424937D01*
X117396625Y-143381000D01*
X119329684Y-143381000D01*
X119367006Y-143384676D01*
X119404328Y-143381000D01*
X119404339Y-143381000D01*
X119515992Y-143370003D01*
X119659253Y-143326546D01*
X119791282Y-143255974D01*
X119907007Y-143161001D01*
X119930810Y-143131997D01*
X126834473Y-136228336D01*
X126844795Y-136253256D01*
X126958063Y-136422774D01*
X127102226Y-136566937D01*
X127271744Y-136680205D01*
X127460102Y-136758226D01*
X127660061Y-136798000D01*
X127863939Y-136798000D01*
X128063898Y-136758226D01*
X128252256Y-136680205D01*
X128421774Y-136566937D01*
X128565937Y-136422774D01*
X128679205Y-136253256D01*
X128757226Y-136064898D01*
X128797000Y-135864939D01*
X128797000Y-135802801D01*
X133136001Y-131463801D01*
X133164999Y-131440003D01*
X133224623Y-131367350D01*
X139433070Y-131367350D01*
X139433070Y-131994142D01*
X139457473Y-132116823D01*
X139505340Y-132232385D01*
X139574833Y-132336389D01*
X139663281Y-132424837D01*
X139767285Y-132494330D01*
X139882847Y-132542197D01*
X140005528Y-132566600D01*
X140632320Y-132566600D01*
X140791070Y-132407850D01*
X140791070Y-131208600D01*
X139591820Y-131208600D01*
X139433070Y-131367350D01*
X133224623Y-131367350D01*
X133259972Y-131324278D01*
X133330544Y-131192249D01*
X133374001Y-131048988D01*
X133384998Y-130937335D01*
X133384998Y-130937327D01*
X133388674Y-130900002D01*
X133384998Y-130862677D01*
X133384998Y-128732905D01*
X133494742Y-128806233D01*
X133683100Y-128884254D01*
X133883059Y-128924028D01*
X134086937Y-128924028D01*
X134286896Y-128884254D01*
X134475254Y-128806233D01*
X134644772Y-128692965D01*
X134788935Y-128548802D01*
X134902203Y-128379284D01*
X134980224Y-128190926D01*
X135019998Y-127990967D01*
X135019998Y-127928829D01*
X136071336Y-126877492D01*
X139710508Y-126877492D01*
X139862936Y-127063226D01*
G36*
X140259450Y-60941355D02*
X140553269Y-61030063D01*
X140824262Y-61174152D01*
X141062102Y-61368130D01*
X141257741Y-61604617D01*
X141403716Y-61874591D01*
X141494475Y-62167786D01*
X141530000Y-62505784D01*
X141529231Y-81476808D01*
X141274961Y-81386611D01*
X141045070Y-81507278D01*
X141045070Y-82701092D01*
X141065070Y-82701092D01*
X141065070Y-82955092D01*
X141045070Y-82955092D01*
X141045070Y-82975092D01*
X140791070Y-82975092D01*
X140791070Y-82955092D01*
X139597915Y-82955092D01*
X139476594Y-83184982D01*
X139521245Y-83332191D01*
X139646429Y-83595012D01*
X139820482Y-83828361D01*
X140036715Y-84023270D01*
X140153593Y-84092891D01*
X140089056Y-84127386D01*
X139862936Y-84312958D01*
X139677364Y-84539078D01*
X139539471Y-84797058D01*
X139454557Y-85076981D01*
X139425885Y-85368092D01*
X139454557Y-85659203D01*
X139539471Y-85939126D01*
X139677364Y-86197106D01*
X139862936Y-86423226D01*
X140089056Y-86608798D01*
X140137788Y-86634846D01*
X140089056Y-86660894D01*
X139862936Y-86846466D01*
X139677364Y-87072586D01*
X139539471Y-87330566D01*
X139454557Y-87610489D01*
X139425885Y-87901600D01*
X139454557Y-88192711D01*
X139539471Y-88472634D01*
X139677364Y-88730614D01*
X139862936Y-88956734D01*
X140089056Y-89142306D01*
X140143861Y-89171600D01*
X140089056Y-89200894D01*
X139862936Y-89386466D01*
X139677364Y-89612586D01*
X139539471Y-89870566D01*
X139454557Y-90150489D01*
X139425885Y-90441600D01*
X139454557Y-90732711D01*
X139539471Y-91012634D01*
X139677364Y-91270614D01*
X139862936Y-91496734D01*
X140089056Y-91682306D01*
X140149934Y-91714846D01*
X140089056Y-91747386D01*
X139862936Y-91932958D01*
X139677364Y-92159078D01*
X139539471Y-92417058D01*
X139454557Y-92696981D01*
X139425885Y-92988092D01*
X139454557Y-93279203D01*
X139539471Y-93559126D01*
X139677364Y-93817106D01*
X139862936Y-94043226D01*
X140089056Y-94228798D01*
X140137788Y-94254846D01*
X140089056Y-94280894D01*
X139862936Y-94466466D01*
X139677364Y-94692586D01*
X139539471Y-94950566D01*
X139454557Y-95230489D01*
X139425885Y-95521600D01*
X139454557Y-95812711D01*
X139539471Y-96092634D01*
X139677364Y-96350614D01*
X139862936Y-96576734D01*
X140089056Y-96762306D01*
X140153593Y-96796801D01*
X140036715Y-96866422D01*
X139820482Y-97061331D01*
X139646429Y-97294680D01*
X139521245Y-97557501D01*
X139476594Y-97704710D01*
X139597915Y-97934600D01*
X140791070Y-97934600D01*
X140791070Y-97914600D01*
X141045070Y-97914600D01*
X141045070Y-97934600D01*
X141065070Y-97934600D01*
X141065070Y-98188600D01*
X141045070Y-98188600D01*
X141045070Y-98208600D01*
X140791070Y-98208600D01*
X140791070Y-98188600D01*
X139597915Y-98188600D01*
X139476594Y-98418490D01*
X139521245Y-98565699D01*
X139646429Y-98828520D01*
X139820482Y-99061869D01*
X140036715Y-99256778D01*
X140153593Y-99326399D01*
X140089056Y-99360894D01*
X139862936Y-99546466D01*
X139677364Y-99772586D01*
X139539471Y-100030566D01*
X139454557Y-100310489D01*
X139425885Y-100601600D01*
X139454557Y-100892711D01*
X139521774Y-101114294D01*
X134617003Y-106019066D01*
X134587999Y-106042869D01*
X134545613Y-106094517D01*
X134493026Y-106158594D01*
X134442760Y-106252634D01*
X134422454Y-106290624D01*
X134378997Y-106433885D01*
X134368000Y-106545538D01*
X134368000Y-106545548D01*
X134364324Y-106582870D01*
X134368000Y-106620192D01*
X134368001Y-124113451D01*
X131663990Y-126817463D01*
X131634986Y-126841266D01*
X131591871Y-126893802D01*
X131540013Y-126956991D01*
X131483229Y-127063226D01*
X131469441Y-127089021D01*
X131425984Y-127232282D01*
X131414987Y-127343935D01*
X131414987Y-127343945D01*
X131411311Y-127381267D01*
X131414987Y-127418590D01*
X131414988Y-129498215D01*
X123120174Y-137793030D01*
X123104937Y-137770226D01*
X123061000Y-137726289D01*
X123061000Y-135693146D01*
X123207744Y-135791197D01*
X123396102Y-135869218D01*
X123596061Y-135908992D01*
X123799939Y-135908992D01*
X123999898Y-135869218D01*
X124188256Y-135791197D01*
X124357774Y-135677929D01*
X124501937Y-135533766D01*
X124615205Y-135364248D01*
X124693226Y-135175890D01*
X124733000Y-134975931D01*
X124733000Y-134772053D01*
X124693226Y-134572094D01*
X124615205Y-134383736D01*
X124501937Y-134214218D01*
X124458000Y-134170281D01*
X124458000Y-132498322D01*
X124461676Y-132460999D01*
X124458000Y-132423676D01*
X124458000Y-132423667D01*
X124447003Y-132312014D01*
X124403546Y-132168753D01*
X124332974Y-132036724D01*
X124238001Y-131920999D01*
X124208997Y-131897196D01*
X124007804Y-131696003D01*
X124007799Y-131695997D01*
X117779801Y-125468000D01*
X117967788Y-125468000D01*
X118187067Y-125424383D01*
X118393624Y-125338824D01*
X118579520Y-125214612D01*
X118737612Y-125056520D01*
X118861824Y-124870624D01*
X118947383Y-124664067D01*
X118991000Y-124444788D01*
X118991000Y-124221212D01*
X118947383Y-124001933D01*
X118884164Y-123849309D01*
X120483049Y-122250424D01*
X120516817Y-122222711D01*
X120627411Y-122087953D01*
X120709589Y-121934207D01*
X120760195Y-121767384D01*
X120773000Y-121637371D01*
X120773000Y-121637363D01*
X120777281Y-121593894D01*
X120773000Y-121550425D01*
X120773000Y-114532333D01*
X120841815Y-114616185D01*
X120938506Y-114695537D01*
X121048820Y-114754502D01*
X121168518Y-114790812D01*
X121293000Y-114803072D01*
X122293000Y-114803072D01*
X122417482Y-114790812D01*
X122537180Y-114754502D01*
X122647494Y-114695537D01*
X122744185Y-114616185D01*
X122823537Y-114519494D01*
X122882502Y-114409180D01*
X122918812Y-114289482D01*
X122931072Y-114165000D01*
X122931072Y-113165000D01*
X122918812Y-113040518D01*
X122882502Y-112920820D01*
X122840703Y-112842621D01*
X122846676Y-112831447D01*
X122911577Y-112617499D01*
X122933491Y-112395000D01*
X122930771Y-112367386D01*
X123844817Y-111453341D01*
X123874764Y-111428764D01*
X123972862Y-111309233D01*
X124045754Y-111172860D01*
X124090641Y-111024887D01*
X124102000Y-110909561D01*
X124102000Y-110909554D01*
X124105797Y-110871001D01*
X124102000Y-110832448D01*
X124102000Y-109186450D01*
X124105797Y-109147894D01*
X124102000Y-109109338D01*
X124102000Y-109109333D01*
X124098020Y-109068920D01*
X124090642Y-108994007D01*
X124045754Y-108846034D01*
X124017211Y-108792634D01*
X123972862Y-108709661D01*
X123874764Y-108590130D01*
X123844810Y-108565547D01*
X123680974Y-108401711D01*
X123751685Y-108331000D01*
X130939509Y-108331000D01*
X130961423Y-108553499D01*
X131026324Y-108767447D01*
X131131716Y-108964623D01*
X131132846Y-108966000D01*
X131131716Y-108967377D01*
X131026324Y-109164553D01*
X130961423Y-109378501D01*
X130939509Y-109601000D01*
X130961423Y-109823499D01*
X131026324Y-110037447D01*
X131131716Y-110234623D01*
X131273551Y-110407449D01*
X131446377Y-110549284D01*
X131643553Y-110654676D01*
X131857501Y-110719577D01*
X132024248Y-110736000D01*
X132135752Y-110736000D01*
X132302499Y-110719577D01*
X132516447Y-110654676D01*
X132713623Y-110549284D01*
X132886449Y-110407449D01*
X133028284Y-110234623D01*
X133133676Y-110037447D01*
X133198577Y-109823499D01*
X133220491Y-109601000D01*
X133198577Y-109378501D01*
X133133676Y-109164553D01*
X133028284Y-108967377D01*
X133027154Y-108966000D01*
X133028284Y-108964623D01*
X133133676Y-108767447D01*
X133198577Y-108553499D01*
X133220491Y-108331000D01*
X133198577Y-108108501D01*
X133133676Y-107894553D01*
X133127969Y-107883876D01*
X133142730Y-107861785D01*
X133190597Y-107746223D01*
X133215000Y-107623542D01*
X133215000Y-107346750D01*
X133056250Y-107188000D01*
X132207000Y-107188000D01*
X132207000Y-107203017D01*
X132135752Y-107196000D01*
X132024248Y-107196000D01*
X131953000Y-107203017D01*
X131953000Y-107188000D01*
X131103750Y-107188000D01*
X130945000Y-107346750D01*
X130945000Y-107623542D01*
X130969403Y-107746223D01*
X131017270Y-107861785D01*
X131032031Y-107883876D01*
X131026324Y-107894553D01*
X130961423Y-108108501D01*
X130939509Y-108331000D01*
X123751685Y-108331000D01*
X125584227Y-106498458D01*
X130945000Y-106498458D01*
X130945000Y-106775250D01*
X131103750Y-106934000D01*
X131953000Y-106934000D01*
X131953000Y-106084750D01*
X132207000Y-106084750D01*
X132207000Y-106934000D01*
X133056250Y-106934000D01*
X133215000Y-106775250D01*
X133215000Y-106498458D01*
X133190597Y-106375777D01*
X133142730Y-106260215D01*
X133073237Y-106156211D01*
X132984789Y-106067763D01*
X132880785Y-105998270D01*
X132765223Y-105950403D01*
X132642542Y-105926000D01*
X132365750Y-105926000D01*
X132207000Y-106084750D01*
X131953000Y-106084750D01*
X131794250Y-105926000D01*
X131517458Y-105926000D01*
X131394777Y-105950403D01*
X131279215Y-105998270D01*
X131175211Y-106067763D01*
X131086763Y-106156211D01*
X131017270Y-106260215D01*
X130969403Y-106375777D01*
X130945000Y-106498458D01*
X125584227Y-106498458D01*
X126071049Y-106011636D01*
X126104817Y-105983923D01*
X126215411Y-105849165D01*
X126235025Y-105812469D01*
X126297589Y-105695420D01*
X126348195Y-105528596D01*
X126358004Y-105429000D01*
X126361000Y-105398583D01*
X126361000Y-105398575D01*
X126365281Y-105355106D01*
X126361000Y-105311637D01*
X126361000Y-99611465D01*
X126365281Y-99567999D01*
X126361000Y-99524533D01*
X126361000Y-99524523D01*
X126348195Y-99394510D01*
X126297589Y-99227687D01*
X126215411Y-99073941D01*
X126104817Y-98939183D01*
X126071051Y-98911472D01*
X119119753Y-91960175D01*
X119143744Y-91976205D01*
X119332102Y-92054226D01*
X119532061Y-92094000D01*
X119735939Y-92094000D01*
X119935898Y-92054226D01*
X120124256Y-91976205D01*
X120293774Y-91862937D01*
X120437937Y-91718774D01*
X120455827Y-91692000D01*
X123756289Y-91692000D01*
X123800226Y-91735937D01*
X123969744Y-91849205D01*
X124158102Y-91927226D01*
X124358061Y-91967000D01*
X124561939Y-91967000D01*
X124761898Y-91927226D01*
X124950256Y-91849205D01*
X125119774Y-91735937D01*
X125263937Y-91591774D01*
X125377205Y-91422256D01*
X125455226Y-91233898D01*
X125495000Y-91033939D01*
X125495000Y-90830061D01*
X125455226Y-90630102D01*
X125377205Y-90441744D01*
X125263937Y-90272226D01*
X125119774Y-90128063D01*
X124950256Y-90014795D01*
X124761898Y-89936774D01*
X124561939Y-89897000D01*
X124358061Y-89897000D01*
X124158102Y-89936774D01*
X123969744Y-90014795D01*
X123800226Y-90128063D01*
X123756289Y-90172000D01*
X120169461Y-90172000D01*
X120124256Y-90141795D01*
X119935898Y-90063774D01*
X119735939Y-90024000D01*
X119532061Y-90024000D01*
X119332102Y-90063774D01*
X119143744Y-90141795D01*
X118974226Y-90255063D01*
X118830063Y-90399226D01*
X118716795Y-90568744D01*
X118638774Y-90757102D01*
X118599000Y-90957061D01*
X118599000Y-91160939D01*
X118638774Y-91360898D01*
X118716795Y-91549256D01*
X118732825Y-91573247D01*
X117725000Y-90565422D01*
X117725000Y-88738008D01*
X126009692Y-88738008D01*
X126009999Y-88823638D01*
X126009999Y-89961249D01*
X126042692Y-89993942D01*
X126018087Y-90119997D01*
X126009999Y-90119997D01*
X126009999Y-90161435D01*
X126009692Y-90163008D01*
X126009999Y-90248638D01*
X126009999Y-90374001D01*
X126017747Y-90374001D01*
X126043190Y-90499558D01*
X126009999Y-90532749D01*
X126009999Y-91586435D01*
X126009692Y-91588008D01*
X126009999Y-91673638D01*
X126009999Y-91984541D01*
X126034402Y-92107222D01*
X126082269Y-92222784D01*
X126151762Y-92326788D01*
X126240210Y-92415236D01*
X126344214Y-92484729D01*
X126459776Y-92532596D01*
X126582457Y-92556999D01*
X126809435Y-92556999D01*
X126811008Y-92557306D01*
X126896638Y-92556999D01*
X128034249Y-92556999D01*
X128066942Y-92524306D01*
X128192997Y-92548911D01*
X128192997Y-92556999D01*
X128234435Y-92556999D01*
X128236008Y-92557306D01*
X128321638Y-92556999D01*
X128447001Y-92556999D01*
X128447001Y-92549251D01*
X128572558Y-92523808D01*
X128605749Y-92556999D01*
X129659435Y-92556999D01*
X129661008Y-92557306D01*
X129746638Y-92556999D01*
X130057541Y-92556999D01*
X130180222Y-92532596D01*
X130295784Y-92484729D01*
X130399788Y-92415236D01*
X130488236Y-92326788D01*
X130557729Y-92222784D01*
X130605596Y-92107222D01*
X130629999Y-91984541D01*
X130629999Y-91757563D01*
X130630306Y-91755990D01*
X130629999Y-91670360D01*
X130629999Y-90932000D01*
X137035509Y-90932000D01*
X137057423Y-91154499D01*
X137122324Y-91368447D01*
X137128297Y-91379621D01*
X137086498Y-91457820D01*
X137050188Y-91577518D01*
X137037928Y-91702000D01*
X137037928Y-92702000D01*
X137050188Y-92826482D01*
X137086498Y-92946180D01*
X137145463Y-93056494D01*
X137224815Y-93153185D01*
X137321506Y-93232537D01*
X137431820Y-93291502D01*
X137551518Y-93327812D01*
X137676000Y-93340072D01*
X138676000Y-93340072D01*
X138800482Y-93327812D01*
X138920180Y-93291502D01*
X139030494Y-93232537D01*
X139127185Y-93153185D01*
X139206537Y-93056494D01*
X139265502Y-92946180D01*
X139301812Y-92826482D01*
X139314072Y-92702000D01*
X139314072Y-91702000D01*
X139301812Y-91577518D01*
X139265502Y-91457820D01*
X139223703Y-91379621D01*
X139229676Y-91368447D01*
X139294577Y-91154499D01*
X139316491Y-90932000D01*
X139294577Y-90709501D01*
X139229676Y-90495553D01*
X139124284Y-90298377D01*
X138982449Y-90125551D01*
X138809623Y-89983716D01*
X138612447Y-89878324D01*
X138398499Y-89813423D01*
X138231752Y-89797000D01*
X138120248Y-89797000D01*
X137953501Y-89813423D01*
X137739553Y-89878324D01*
X137542377Y-89983716D01*
X137369551Y-90125551D01*
X137227716Y-90298377D01*
X137122324Y-90495553D01*
X137057423Y-90709501D01*
X137035509Y-90932000D01*
X130629999Y-90932000D01*
X130629999Y-90532749D01*
X130597306Y-90500056D01*
X130621911Y-90374001D01*
X130629999Y-90374001D01*
X130629999Y-90332563D01*
X130630306Y-90330990D01*
X130629999Y-90245360D01*
X130629999Y-90119997D01*
X130622251Y-90119997D01*
X130596808Y-89994440D01*
X130629999Y-89961249D01*
X130629999Y-88907563D01*
X130630306Y-88905990D01*
X130630285Y-88900000D01*
X133733509Y-88900000D01*
X133739000Y-88955751D01*
X133739000Y-89011788D01*
X133749932Y-89066748D01*
X133755423Y-89122498D01*
X133771684Y-89176103D01*
X133782617Y-89231067D01*
X133804064Y-89282845D01*
X133820324Y-89336446D01*
X133846728Y-89385845D01*
X133868176Y-89437624D01*
X133899313Y-89484224D01*
X133925717Y-89533622D01*
X133961251Y-89576920D01*
X133992388Y-89623520D01*
X134032019Y-89663151D01*
X134067552Y-89706448D01*
X134110849Y-89741981D01*
X134150480Y-89781612D01*
X134197080Y-89812749D01*
X134240378Y-89848283D01*
X134289776Y-89874687D01*
X134336376Y-89905824D01*
X134388155Y-89927272D01*
X134437554Y-89953676D01*
X134491155Y-89969936D01*
X134542933Y-89991383D01*
X134597897Y-90002316D01*
X134651502Y-90018577D01*
X134707252Y-90024068D01*
X134762212Y-90035000D01*
X134818249Y-90035000D01*
X134874000Y-90040491D01*
X134929751Y-90035000D01*
X134985788Y-90035000D01*
X135040748Y-90024068D01*
X135096498Y-90018577D01*
X135150103Y-90002316D01*
X135205067Y-89991383D01*
X135256845Y-89969936D01*
X135310446Y-89953676D01*
X135359845Y-89927272D01*
X135411624Y-89905824D01*
X135458224Y-89874687D01*
X135507622Y-89848283D01*
X135550921Y-89812749D01*
X135597520Y-89781612D01*
X135755612Y-89623520D01*
X135755614Y-89623517D01*
X136653140Y-88725992D01*
X136696449Y-88690449D01*
X136838284Y-88517623D01*
X136943676Y-88320447D01*
X137008577Y-88106499D01*
X137025000Y-87939752D01*
X137025000Y-87939751D01*
X137030491Y-87884000D01*
X137025000Y-87828249D01*
X137025000Y-84978212D01*
X137014068Y-84923252D01*
X137008577Y-84867502D01*
X136992316Y-84813896D01*
X136981383Y-84758933D01*
X136959937Y-84707158D01*
X136943676Y-84653553D01*
X136917269Y-84604149D01*
X136895824Y-84552376D01*
X136864693Y-84505786D01*
X136838284Y-84456377D01*
X136802741Y-84413068D01*
X136771612Y-84366480D01*
X136731991Y-84326859D01*
X136696449Y-84283551D01*
X136653141Y-84248009D01*
X136613520Y-84208388D01*
X136566932Y-84177259D01*
X136523623Y-84141716D01*
X136474214Y-84115307D01*
X136427624Y-84084176D01*
X136375851Y-84062731D01*
X136326447Y-84036324D01*
X136272842Y-84020063D01*
X136221067Y-83998617D01*
X136166106Y-83987685D01*
X136112499Y-83971423D01*
X136056747Y-83965932D01*
X136001788Y-83955000D01*
X135945752Y-83955000D01*
X135890000Y-83949509D01*
X135834249Y-83955000D01*
X135778212Y-83955000D01*
X135723252Y-83965932D01*
X135667502Y-83971423D01*
X135613897Y-83987684D01*
X135558933Y-83998617D01*
X135507155Y-84020064D01*
X135453554Y-84036324D01*
X135404153Y-84062729D01*
X135352376Y-84084176D01*
X135305782Y-84115309D01*
X135256378Y-84141716D01*
X135213074Y-84177255D01*
X135166480Y-84208388D01*
X135126855Y-84248013D01*
X135083552Y-84283551D01*
X135048014Y-84326854D01*
X135008388Y-84366480D01*
X134977254Y-84413075D01*
X134941717Y-84456377D01*
X134915310Y-84505780D01*
X134884176Y-84552376D01*
X134862730Y-84604151D01*
X134836324Y-84653553D01*
X134820063Y-84707158D01*
X134798617Y-84758933D01*
X134787685Y-84813894D01*
X134771423Y-84867501D01*
X134765932Y-84923253D01*
X134755000Y-84978212D01*
X134755000Y-85852857D01*
X134755001Y-85852867D01*
X134755000Y-87413868D01*
X134150483Y-88018386D01*
X134150480Y-88018388D01*
X133992388Y-88176480D01*
X133961251Y-88223079D01*
X133925717Y-88266378D01*
X133899313Y-88315776D01*
X133868176Y-88362376D01*
X133846728Y-88414155D01*
X133820324Y-88463554D01*
X133804064Y-88517155D01*
X133782617Y-88568933D01*
X133771684Y-88623897D01*
X133755423Y-88677502D01*
X133749932Y-88733252D01*
X133739000Y-88788212D01*
X133739000Y-88844249D01*
X133733509Y-88900000D01*
X130630285Y-88900000D01*
X130629999Y-88820360D01*
X130629999Y-88509457D01*
X130605596Y-88386776D01*
X130557729Y-88271214D01*
X130488236Y-88167210D01*
X130399788Y-88078762D01*
X130295784Y-88009269D01*
X130180222Y-87961402D01*
X130057541Y-87936999D01*
X129830563Y-87936999D01*
X129828990Y-87936692D01*
X129743360Y-87936999D01*
X128605749Y-87936999D01*
X128573056Y-87969692D01*
X128447001Y-87945087D01*
X128447001Y-87936999D01*
X128405563Y-87936999D01*
X128403990Y-87936692D01*
X128318360Y-87936999D01*
X128192997Y-87936999D01*
X128192997Y-87944747D01*
X128067440Y-87970190D01*
X128034249Y-87936999D01*
X126980563Y-87936999D01*
X126978990Y-87936692D01*
X126893360Y-87936999D01*
X126582457Y-87936999D01*
X126459776Y-87961402D01*
X126344214Y-88009269D01*
X126240210Y-88078762D01*
X126151762Y-88167210D01*
X126082269Y-88271214D01*
X126034402Y-88386776D01*
X126009999Y-88509457D01*
X126009999Y-88736435D01*
X126009692Y-88738008D01*
X117725000Y-88738008D01*
X117725000Y-85514465D01*
X117729281Y-85470999D01*
X117725000Y-85427533D01*
X117725000Y-85427523D01*
X117712195Y-85297510D01*
X117661589Y-85130687D01*
X117579411Y-84976941D01*
X117468817Y-84842183D01*
X117435050Y-84814471D01*
X115686337Y-83065759D01*
X115710385Y-82821600D01*
X115681713Y-82530489D01*
X115663729Y-82471202D01*
X139476594Y-82471202D01*
X139597915Y-82701092D01*
X140791070Y-82701092D01*
X140791070Y-81507278D01*
X140561179Y-81386611D01*
X140286818Y-81483935D01*
X140036715Y-81632914D01*
X139820482Y-81827823D01*
X139646429Y-82061172D01*
X139521245Y-82323993D01*
X139476594Y-82471202D01*
X115663729Y-82471202D01*
X115596799Y-82250566D01*
X115458906Y-81992586D01*
X115273334Y-81766466D01*
X115047214Y-81580894D01*
X114789234Y-81443001D01*
X114509311Y-81358087D01*
X114291150Y-81336600D01*
X114145250Y-81336600D01*
X113927089Y-81358087D01*
X113740000Y-81414840D01*
X113740000Y-76575105D01*
X124232712Y-76575105D01*
X124254626Y-76797604D01*
X124319527Y-77011552D01*
X124424919Y-77208728D01*
X124426049Y-77210105D01*
X124424919Y-77211482D01*
X124319527Y-77408658D01*
X124254626Y-77622606D01*
X124232712Y-77845105D01*
X124254626Y-78067604D01*
X124319527Y-78281552D01*
X124424919Y-78478728D01*
X124426049Y-78480105D01*
X124424919Y-78481482D01*
X124319527Y-78678658D01*
X124254626Y-78892606D01*
X124232712Y-79115105D01*
X124254626Y-79337604D01*
X124319527Y-79551552D01*
X124325500Y-79562726D01*
X124283701Y-79640925D01*
X124247391Y-79760623D01*
X124235131Y-79885105D01*
X124235131Y-80885105D01*
X124247391Y-81009587D01*
X124283701Y-81129285D01*
X124342666Y-81239599D01*
X124422018Y-81336290D01*
X124518709Y-81415642D01*
X124629023Y-81474607D01*
X124748721Y-81510917D01*
X124873203Y-81523177D01*
X125873203Y-81523177D01*
X125997685Y-81510917D01*
X126117383Y-81474607D01*
X126227697Y-81415642D01*
X126324388Y-81336290D01*
X126403740Y-81239599D01*
X126462705Y-81129285D01*
X126499015Y-81009587D01*
X126511275Y-80885105D01*
X126511275Y-79885105D01*
X126499015Y-79760623D01*
X126462705Y-79640925D01*
X126420906Y-79562726D01*
X126426879Y-79551552D01*
X126491780Y-79337604D01*
X126513694Y-79115105D01*
X126491780Y-78892606D01*
X126426879Y-78678658D01*
X126321487Y-78481482D01*
X126320357Y-78480105D01*
X126321487Y-78478728D01*
X126426879Y-78281552D01*
X126491780Y-78067604D01*
X126513694Y-77845105D01*
X126491780Y-77622606D01*
X126426879Y-77408658D01*
X126321487Y-77211482D01*
X126320357Y-77210105D01*
X126321487Y-77208728D01*
X126426879Y-77011552D01*
X126491780Y-76797604D01*
X126513694Y-76575105D01*
X126491780Y-76352606D01*
X126426879Y-76138658D01*
X126321487Y-75941482D01*
X126179652Y-75768656D01*
X126006826Y-75626821D01*
X125809650Y-75521429D01*
X125595702Y-75456528D01*
X125428955Y-75440105D01*
X125317451Y-75440105D01*
X125150704Y-75456528D01*
X124936756Y-75521429D01*
X124739580Y-75626821D01*
X124566754Y-75768656D01*
X124424919Y-75941482D01*
X124319527Y-76138658D01*
X124254626Y-76352606D01*
X124232712Y-76575105D01*
X113740000Y-76575105D01*
X113740000Y-72390000D01*
X114429509Y-72390000D01*
X114451423Y-72612499D01*
X114516324Y-72826447D01*
X114621716Y-73023623D01*
X114622846Y-73025000D01*
X114621716Y-73026377D01*
X114516324Y-73223553D01*
X114451423Y-73437501D01*
X114429509Y-73660000D01*
X114451423Y-73882499D01*
X114516324Y-74096447D01*
X114621716Y-74293623D01*
X114622846Y-74295000D01*
X114621716Y-74296377D01*
X114516324Y-74493553D01*
X114451423Y-74707501D01*
X114429509Y-74930000D01*
X114451423Y-75152499D01*
X114516324Y-75366447D01*
X114621716Y-75563623D01*
X114763551Y-75736449D01*
X114936377Y-75878284D01*
X115133553Y-75983676D01*
X115347501Y-76048577D01*
X115514248Y-76065000D01*
X115625752Y-76065000D01*
X115792499Y-76048577D01*
X116006447Y-75983676D01*
X116203623Y-75878284D01*
X116376449Y-75736449D01*
X116518284Y-75563623D01*
X116623676Y-75366447D01*
X116664498Y-75231874D01*
X138605881Y-75231874D01*
X138622554Y-75286864D01*
X138712877Y-75490206D01*
X138841135Y-75672020D01*
X139002399Y-75825318D01*
X139190471Y-75944210D01*
X139398124Y-76024126D01*
X139573000Y-75899129D01*
X139573000Y-75057000D01*
X139827000Y-75057000D01*
X139827000Y-75899129D01*
X140001876Y-76024126D01*
X140209529Y-75944210D01*
X140397601Y-75825318D01*
X140558865Y-75672020D01*
X140687123Y-75490206D01*
X140777446Y-75286864D01*
X140794119Y-75231874D01*
X140667954Y-75057000D01*
X139827000Y-75057000D01*
X139573000Y-75057000D01*
X138732046Y-75057000D01*
X138605881Y-75231874D01*
X116664498Y-75231874D01*
X116688577Y-75152499D01*
X116710491Y-74930000D01*
X116688577Y-74707501D01*
X116623676Y-74493553D01*
X116518284Y-74296377D01*
X116517154Y-74295000D01*
X116518284Y-74293623D01*
X116623676Y-74096447D01*
X116664498Y-73961874D01*
X138605881Y-73961874D01*
X138622554Y-74016864D01*
X138712877Y-74220206D01*
X138765639Y-74295000D01*
X138712877Y-74369794D01*
X138622554Y-74573136D01*
X138605881Y-74628126D01*
X138732046Y-74803000D01*
X139573000Y-74803000D01*
X139573000Y-73787000D01*
X139827000Y-73787000D01*
X139827000Y-74803000D01*
X140667954Y-74803000D01*
X140794119Y-74628126D01*
X140777446Y-74573136D01*
X140687123Y-74369794D01*
X140634361Y-74295000D01*
X140687123Y-74220206D01*
X140777446Y-74016864D01*
X140794119Y-73961874D01*
X140667954Y-73787000D01*
X139827000Y-73787000D01*
X139573000Y-73787000D01*
X138732046Y-73787000D01*
X138605881Y-73961874D01*
X116664498Y-73961874D01*
X116688577Y-73882499D01*
X116710491Y-73660000D01*
X116688577Y-73437501D01*
X116623676Y-73223553D01*
X116518284Y-73026377D01*
X116517154Y-73025000D01*
X116518284Y-73023623D01*
X116623676Y-72826447D01*
X116664498Y-72691874D01*
X138605881Y-72691874D01*
X138622554Y-72746864D01*
X138712877Y-72950206D01*
X138765639Y-73025000D01*
X138712877Y-73099794D01*
X138622554Y-73303136D01*
X138605881Y-73358126D01*
X138732046Y-73533000D01*
X139573000Y-73533000D01*
X139573000Y-72517000D01*
X139827000Y-72517000D01*
X139827000Y-73533000D01*
X140667954Y-73533000D01*
X140794119Y-73358126D01*
X140777446Y-73303136D01*
X140687123Y-73099794D01*
X140634361Y-73025000D01*
X140687123Y-72950206D01*
X140777446Y-72746864D01*
X140794119Y-72691874D01*
X140667954Y-72517000D01*
X139827000Y-72517000D01*
X139573000Y-72517000D01*
X138732046Y-72517000D01*
X138605881Y-72691874D01*
X116664498Y-72691874D01*
X116688577Y-72612499D01*
X116710491Y-72390000D01*
X116688577Y-72167501D01*
X116623676Y-71953553D01*
X116617703Y-71942379D01*
X116659502Y-71864180D01*
X116695812Y-71744482D01*
X116708072Y-71620000D01*
X116708072Y-71247000D01*
X128018509Y-71247000D01*
X128040423Y-71469499D01*
X128105324Y-71683447D01*
X128210716Y-71880623D01*
X128352551Y-72053449D01*
X128525377Y-72195284D01*
X128722553Y-72300676D01*
X128936501Y-72365577D01*
X129103248Y-72382000D01*
X132897752Y-72382000D01*
X133064499Y-72365577D01*
X133278447Y-72300676D01*
X133475623Y-72195284D01*
X133648449Y-72053449D01*
X133790284Y-71880623D01*
X133895676Y-71683447D01*
X133960577Y-71469499D01*
X133966855Y-71405750D01*
X138565000Y-71405750D01*
X138565000Y-71682542D01*
X138589403Y-71805223D01*
X138637270Y-71920785D01*
X138658408Y-71952420D01*
X138622554Y-72033136D01*
X138605881Y-72088126D01*
X138732046Y-72263000D01*
X139573000Y-72263000D01*
X139573000Y-71247000D01*
X139827000Y-71247000D01*
X139827000Y-72263000D01*
X140667954Y-72263000D01*
X140794119Y-72088126D01*
X140777446Y-72033136D01*
X140741592Y-71952420D01*
X140762730Y-71920785D01*
X140810597Y-71805223D01*
X140835000Y-71682542D01*
X140835000Y-71405750D01*
X140676250Y-71247000D01*
X139827000Y-71247000D01*
X139573000Y-71247000D01*
X138723750Y-71247000D01*
X138565000Y-71405750D01*
X133966855Y-71405750D01*
X133982491Y-71247000D01*
X133960577Y-71024501D01*
X133895676Y-70810553D01*
X133790284Y-70613377D01*
X133744393Y-70557458D01*
X138565000Y-70557458D01*
X138565000Y-70834250D01*
X138723750Y-70993000D01*
X139573000Y-70993000D01*
X139573000Y-70143750D01*
X139827000Y-70143750D01*
X139827000Y-70993000D01*
X140676250Y-70993000D01*
X140835000Y-70834250D01*
X140835000Y-70557458D01*
X140810597Y-70434777D01*
X140762730Y-70319215D01*
X140693237Y-70215211D01*
X140604789Y-70126763D01*
X140500785Y-70057270D01*
X140385223Y-70009403D01*
X140262542Y-69985000D01*
X139985750Y-69985000D01*
X139827000Y-70143750D01*
X139573000Y-70143750D01*
X139414250Y-69985000D01*
X139137458Y-69985000D01*
X139014777Y-70009403D01*
X138899215Y-70057270D01*
X138795211Y-70126763D01*
X138706763Y-70215211D01*
X138637270Y-70319215D01*
X138589403Y-70434777D01*
X138565000Y-70557458D01*
X133744393Y-70557458D01*
X133648449Y-70440551D01*
X133475623Y-70298716D01*
X133278447Y-70193324D01*
X133064499Y-70128423D01*
X132897752Y-70112000D01*
X129103248Y-70112000D01*
X128936501Y-70128423D01*
X128722553Y-70193324D01*
X128525377Y-70298716D01*
X128352551Y-70440551D01*
X128210716Y-70613377D01*
X128105324Y-70810553D01*
X128040423Y-71024501D01*
X128018509Y-71247000D01*
X116708072Y-71247000D01*
X116708072Y-70620000D01*
X116695812Y-70495518D01*
X116659502Y-70375820D01*
X116600537Y-70265506D01*
X116521185Y-70168815D01*
X116424494Y-70089463D01*
X116314180Y-70030498D01*
X116194482Y-69994188D01*
X116070000Y-69981928D01*
X115070000Y-69981928D01*
X114945518Y-69994188D01*
X114825820Y-70030498D01*
X114715506Y-70089463D01*
X114618815Y-70168815D01*
X114539463Y-70265506D01*
X114480498Y-70375820D01*
X114444188Y-70495518D01*
X114431928Y-70620000D01*
X114431928Y-71620000D01*
X114444188Y-71744482D01*
X114480498Y-71864180D01*
X114522297Y-71942379D01*
X114516324Y-71953553D01*
X114451423Y-72167501D01*
X114429509Y-72390000D01*
X113740000Y-72390000D01*
X113740000Y-62992000D01*
X120525509Y-62992000D01*
X120547423Y-63214499D01*
X120612324Y-63428447D01*
X120717716Y-63625623D01*
X120859551Y-63798449D01*
X121032377Y-63940284D01*
X121033001Y-63940617D01*
X121033000Y-64828289D01*
X120989063Y-64872226D01*
X120875795Y-65041744D01*
X120797774Y-65230102D01*
X120758000Y-65430061D01*
X120758000Y-65633939D01*
X120797774Y-65833898D01*
X120875795Y-66022256D01*
X120989063Y-66191774D01*
X121133226Y-66335937D01*
X121302744Y-66449205D01*
X121491102Y-66527226D01*
X121691061Y-66567000D01*
X121894939Y-66567000D01*
X122094898Y-66527226D01*
X122283256Y-66449205D01*
X122452774Y-66335937D01*
X122596937Y-66191774D01*
X122710205Y-66022256D01*
X122788226Y-65833898D01*
X122828000Y-65633939D01*
X122828000Y-65430061D01*
X122788226Y-65230102D01*
X122710205Y-65041744D01*
X122596937Y-64872226D01*
X122553000Y-64828289D01*
X122553000Y-64130072D01*
X123436000Y-64130072D01*
X123560482Y-64117812D01*
X123680180Y-64081502D01*
X123790494Y-64022537D01*
X123887185Y-63943185D01*
X123966537Y-63846494D01*
X124025502Y-63736180D01*
X124061812Y-63616482D01*
X124074072Y-63492000D01*
X124074072Y-62992000D01*
X130685509Y-62992000D01*
X130707423Y-63214499D01*
X130772324Y-63428447D01*
X130877716Y-63625623D01*
X131019551Y-63798449D01*
X131192377Y-63940284D01*
X131389553Y-64045676D01*
X131603501Y-64110577D01*
X131770248Y-64127000D01*
X131881752Y-64127000D01*
X132048499Y-64110577D01*
X132262447Y-64045676D01*
X132459623Y-63940284D01*
X132461000Y-63939154D01*
X132462377Y-63940284D01*
X132659553Y-64045676D01*
X132873501Y-64110577D01*
X133040248Y-64127000D01*
X133151752Y-64127000D01*
X133318499Y-64110577D01*
X133532447Y-64045676D01*
X133729623Y-63940284D01*
X133731000Y-63939154D01*
X133732377Y-63940284D01*
X133929553Y-64045676D01*
X134143501Y-64110577D01*
X134310248Y-64127000D01*
X134421752Y-64127000D01*
X134588499Y-64110577D01*
X134802447Y-64045676D01*
X134813621Y-64039703D01*
X134891820Y-64081502D01*
X135011518Y-64117812D01*
X135136000Y-64130072D01*
X136136000Y-64130072D01*
X136260482Y-64117812D01*
X136380180Y-64081502D01*
X136490494Y-64022537D01*
X136587185Y-63943185D01*
X136666537Y-63846494D01*
X136725502Y-63736180D01*
X136761812Y-63616482D01*
X136774072Y-63492000D01*
X136774072Y-62492000D01*
X136761812Y-62367518D01*
X136725502Y-62247820D01*
X136666537Y-62137506D01*
X136587185Y-62040815D01*
X136490494Y-61961463D01*
X136380180Y-61902498D01*
X136260482Y-61866188D01*
X136136000Y-61853928D01*
X135136000Y-61853928D01*
X135011518Y-61866188D01*
X134891820Y-61902498D01*
X134813621Y-61944297D01*
X134802447Y-61938324D01*
X134588499Y-61873423D01*
X134421752Y-61857000D01*
X134310248Y-61857000D01*
X134143501Y-61873423D01*
X133929553Y-61938324D01*
X133732377Y-62043716D01*
X133731000Y-62044846D01*
X133729623Y-62043716D01*
X133532447Y-61938324D01*
X133318499Y-61873423D01*
X133151752Y-61857000D01*
X133040248Y-61857000D01*
X132873501Y-61873423D01*
X132659553Y-61938324D01*
X132462377Y-62043716D01*
X132461000Y-62044846D01*
X132459623Y-62043716D01*
X132262447Y-61938324D01*
X132048499Y-61873423D01*
X131881752Y-61857000D01*
X131770248Y-61857000D01*
X131603501Y-61873423D01*
X131389553Y-61938324D01*
X131192377Y-62043716D01*
X131019551Y-62185551D01*
X130877716Y-62358377D01*
X130772324Y-62555553D01*
X130707423Y-62769501D01*
X130685509Y-62992000D01*
X124074072Y-62992000D01*
X124074072Y-62492000D01*
X124061812Y-62367518D01*
X124025502Y-62247820D01*
X123966537Y-62137506D01*
X123887185Y-62040815D01*
X123790494Y-61961463D01*
X123680180Y-61902498D01*
X123560482Y-61866188D01*
X123436000Y-61853928D01*
X122436000Y-61853928D01*
X122311518Y-61866188D01*
X122191820Y-61902498D01*
X122113621Y-61944297D01*
X122102447Y-61938324D01*
X121888499Y-61873423D01*
X121721752Y-61857000D01*
X121610248Y-61857000D01*
X121443501Y-61873423D01*
X121229553Y-61938324D01*
X121032377Y-62043716D01*
X120859551Y-62185551D01*
X120717716Y-62358377D01*
X120612324Y-62555553D01*
X120547423Y-62769501D01*
X120525509Y-62992000D01*
X113740000Y-62992000D01*
X113740000Y-62518722D01*
X113773355Y-62178550D01*
X113862063Y-61884731D01*
X114006152Y-61613738D01*
X114200130Y-61375898D01*
X114436617Y-61180259D01*
X114706591Y-61034284D01*
X114999786Y-60943525D01*
X115337787Y-60908000D01*
X139919278Y-60908000D01*
X140259450Y-60941355D01*
X140259450Y-60941355D01*
G37*
X140259450Y-60941355D02*
X140553269Y-61030063D01*
X140824262Y-61174152D01*
X141062102Y-61368130D01*
X141257741Y-61604617D01*
X141403716Y-61874591D01*
X141494475Y-62167786D01*
X141530000Y-62505784D01*
X141529231Y-81476808D01*
X141274961Y-81386611D01*
X141045070Y-81507278D01*
X141045070Y-82701092D01*
X141065070Y-82701092D01*
X141065070Y-82955092D01*
X141045070Y-82955092D01*
X141045070Y-82975092D01*
X140791070Y-82975092D01*
X140791070Y-82955092D01*
X139597915Y-82955092D01*
X139476594Y-83184982D01*
X139521245Y-83332191D01*
X139646429Y-83595012D01*
X139820482Y-83828361D01*
X140036715Y-84023270D01*
X140153593Y-84092891D01*
X140089056Y-84127386D01*
X139862936Y-84312958D01*
X139677364Y-84539078D01*
X139539471Y-84797058D01*
X139454557Y-85076981D01*
X139425885Y-85368092D01*
X139454557Y-85659203D01*
X139539471Y-85939126D01*
X139677364Y-86197106D01*
X139862936Y-86423226D01*
X140089056Y-86608798D01*
X140137788Y-86634846D01*
X140089056Y-86660894D01*
X139862936Y-86846466D01*
X139677364Y-87072586D01*
X139539471Y-87330566D01*
X139454557Y-87610489D01*
X139425885Y-87901600D01*
X139454557Y-88192711D01*
X139539471Y-88472634D01*
X139677364Y-88730614D01*
X139862936Y-88956734D01*
X140089056Y-89142306D01*
X140143861Y-89171600D01*
X140089056Y-89200894D01*
X139862936Y-89386466D01*
X139677364Y-89612586D01*
X139539471Y-89870566D01*
X139454557Y-90150489D01*
X139425885Y-90441600D01*
X139454557Y-90732711D01*
X139539471Y-91012634D01*
X139677364Y-91270614D01*
X139862936Y-91496734D01*
X140089056Y-91682306D01*
X140149934Y-91714846D01*
X140089056Y-91747386D01*
X139862936Y-91932958D01*
X139677364Y-92159078D01*
X139539471Y-92417058D01*
X139454557Y-92696981D01*
X139425885Y-92988092D01*
X139454557Y-93279203D01*
X139539471Y-93559126D01*
X139677364Y-93817106D01*
X139862936Y-94043226D01*
X140089056Y-94228798D01*
X140137788Y-94254846D01*
X140089056Y-94280894D01*
X139862936Y-94466466D01*
X139677364Y-94692586D01*
X139539471Y-94950566D01*
X139454557Y-95230489D01*
X139425885Y-95521600D01*
X139454557Y-95812711D01*
X139539471Y-96092634D01*
X139677364Y-96350614D01*
X139862936Y-96576734D01*
X140089056Y-96762306D01*
X140153593Y-96796801D01*
X140036715Y-96866422D01*
X139820482Y-97061331D01*
X139646429Y-97294680D01*
X139521245Y-97557501D01*
X139476594Y-97704710D01*
X139597915Y-97934600D01*
X140791070Y-97934600D01*
X140791070Y-97914600D01*
X141045070Y-97914600D01*
X141045070Y-97934600D01*
X141065070Y-97934600D01*
X141065070Y-98188600D01*
X141045070Y-98188600D01*
X141045070Y-98208600D01*
X140791070Y-98208600D01*
X140791070Y-98188600D01*
X139597915Y-98188600D01*
X139476594Y-98418490D01*
X139521245Y-98565699D01*
X139646429Y-98828520D01*
X139820482Y-99061869D01*
X140036715Y-99256778D01*
X140153593Y-99326399D01*
X140089056Y-99360894D01*
X139862936Y-99546466D01*
X139677364Y-99772586D01*
X139539471Y-100030566D01*
X139454557Y-100310489D01*
X139425885Y-100601600D01*
X139454557Y-100892711D01*
X139521774Y-101114294D01*
X134617003Y-106019066D01*
X134587999Y-106042869D01*
X134545613Y-106094517D01*
X134493026Y-106158594D01*
X134442760Y-106252634D01*
X134422454Y-106290624D01*
X134378997Y-106433885D01*
X134368000Y-106545538D01*
X134368000Y-106545548D01*
X134364324Y-106582870D01*
X134368000Y-106620192D01*
X134368001Y-124113451D01*
X131663990Y-126817463D01*
X131634986Y-126841266D01*
X131591871Y-126893802D01*
X131540013Y-126956991D01*
X131483229Y-127063226D01*
X131469441Y-127089021D01*
X131425984Y-127232282D01*
X131414987Y-127343935D01*
X131414987Y-127343945D01*
X131411311Y-127381267D01*
X131414987Y-127418590D01*
X131414988Y-129498215D01*
X123120174Y-137793030D01*
X123104937Y-137770226D01*
X123061000Y-137726289D01*
X123061000Y-135693146D01*
X123207744Y-135791197D01*
X123396102Y-135869218D01*
X123596061Y-135908992D01*
X123799939Y-135908992D01*
X123999898Y-135869218D01*
X124188256Y-135791197D01*
X124357774Y-135677929D01*
X124501937Y-135533766D01*
X124615205Y-135364248D01*
X124693226Y-135175890D01*
X124733000Y-134975931D01*
X124733000Y-134772053D01*
X124693226Y-134572094D01*
X124615205Y-134383736D01*
X124501937Y-134214218D01*
X124458000Y-134170281D01*
X124458000Y-132498322D01*
X124461676Y-132460999D01*
X124458000Y-132423676D01*
X124458000Y-132423667D01*
X124447003Y-132312014D01*
X124403546Y-132168753D01*
X124332974Y-132036724D01*
X124238001Y-131920999D01*
X124208997Y-131897196D01*
X124007804Y-131696003D01*
X124007799Y-131695997D01*
X117779801Y-125468000D01*
X117967788Y-125468000D01*
X118187067Y-125424383D01*
X118393624Y-125338824D01*
X118579520Y-125214612D01*
X118737612Y-125056520D01*
X118861824Y-124870624D01*
X118947383Y-124664067D01*
X118991000Y-124444788D01*
X118991000Y-124221212D01*
X118947383Y-124001933D01*
X118884164Y-123849309D01*
X120483049Y-122250424D01*
X120516817Y-122222711D01*
X120627411Y-122087953D01*
X120709589Y-121934207D01*
X120760195Y-121767384D01*
X120773000Y-121637371D01*
X120773000Y-121637363D01*
X120777281Y-121593894D01*
X120773000Y-121550425D01*
X120773000Y-114532333D01*
X120841815Y-114616185D01*
X120938506Y-114695537D01*
X121048820Y-114754502D01*
X121168518Y-114790812D01*
X121293000Y-114803072D01*
X122293000Y-114803072D01*
X122417482Y-114790812D01*
X122537180Y-114754502D01*
X122647494Y-114695537D01*
X122744185Y-114616185D01*
X122823537Y-114519494D01*
X122882502Y-114409180D01*
X122918812Y-114289482D01*
X122931072Y-114165000D01*
X122931072Y-113165000D01*
X122918812Y-113040518D01*
X122882502Y-112920820D01*
X122840703Y-112842621D01*
X122846676Y-112831447D01*
X122911577Y-112617499D01*
X122933491Y-112395000D01*
X122930771Y-112367386D01*
X123844817Y-111453341D01*
X123874764Y-111428764D01*
X123972862Y-111309233D01*
X124045754Y-111172860D01*
X124090641Y-111024887D01*
X124102000Y-110909561D01*
X124102000Y-110909554D01*
X124105797Y-110871001D01*
X124102000Y-110832448D01*
X124102000Y-109186450D01*
X124105797Y-109147894D01*
X124102000Y-109109338D01*
X124102000Y-109109333D01*
X124098020Y-109068920D01*
X124090642Y-108994007D01*
X124045754Y-108846034D01*
X124017211Y-108792634D01*
X123972862Y-108709661D01*
X123874764Y-108590130D01*
X123844810Y-108565547D01*
X123680974Y-108401711D01*
X123751685Y-108331000D01*
X130939509Y-108331000D01*
X130961423Y-108553499D01*
X131026324Y-108767447D01*
X131131716Y-108964623D01*
X131132846Y-108966000D01*
X131131716Y-108967377D01*
X131026324Y-109164553D01*
X130961423Y-109378501D01*
X130939509Y-109601000D01*
X130961423Y-109823499D01*
X131026324Y-110037447D01*
X131131716Y-110234623D01*
X131273551Y-110407449D01*
X131446377Y-110549284D01*
X131643553Y-110654676D01*
X131857501Y-110719577D01*
X132024248Y-110736000D01*
X132135752Y-110736000D01*
X132302499Y-110719577D01*
X132516447Y-110654676D01*
X132713623Y-110549284D01*
X132886449Y-110407449D01*
X133028284Y-110234623D01*
X133133676Y-110037447D01*
X133198577Y-109823499D01*
X133220491Y-109601000D01*
X133198577Y-109378501D01*
X133133676Y-109164553D01*
X133028284Y-108967377D01*
X133027154Y-108966000D01*
X133028284Y-108964623D01*
X133133676Y-108767447D01*
X133198577Y-108553499D01*
X133220491Y-108331000D01*
X133198577Y-108108501D01*
X133133676Y-107894553D01*
X133127969Y-107883876D01*
X133142730Y-107861785D01*
X133190597Y-107746223D01*
X133215000Y-107623542D01*
X133215000Y-107346750D01*
X133056250Y-107188000D01*
X132207000Y-107188000D01*
X132207000Y-107203017D01*
X132135752Y-107196000D01*
X132024248Y-107196000D01*
X131953000Y-107203017D01*
X131953000Y-107188000D01*
X131103750Y-107188000D01*
X130945000Y-107346750D01*
X130945000Y-107623542D01*
X130969403Y-107746223D01*
X131017270Y-107861785D01*
X131032031Y-107883876D01*
X131026324Y-107894553D01*
X130961423Y-108108501D01*
X130939509Y-108331000D01*
X123751685Y-108331000D01*
X125584227Y-106498458D01*
X130945000Y-106498458D01*
X130945000Y-106775250D01*
X131103750Y-106934000D01*
X131953000Y-106934000D01*
X131953000Y-106084750D01*
X132207000Y-106084750D01*
X132207000Y-106934000D01*
X133056250Y-106934000D01*
X133215000Y-106775250D01*
X133215000Y-106498458D01*
X133190597Y-106375777D01*
X133142730Y-106260215D01*
X133073237Y-106156211D01*
X132984789Y-106067763D01*
X132880785Y-105998270D01*
X132765223Y-105950403D01*
X132642542Y-105926000D01*
X132365750Y-105926000D01*
X132207000Y-106084750D01*
X131953000Y-106084750D01*
X131794250Y-105926000D01*
X131517458Y-105926000D01*
X131394777Y-105950403D01*
X131279215Y-105998270D01*
X131175211Y-106067763D01*
X131086763Y-106156211D01*
X131017270Y-106260215D01*
X130969403Y-106375777D01*
X130945000Y-106498458D01*
X125584227Y-106498458D01*
X126071049Y-106011636D01*
X126104817Y-105983923D01*
X126215411Y-105849165D01*
X126235025Y-105812469D01*
X126297589Y-105695420D01*
X126348195Y-105528596D01*
X126358004Y-105429000D01*
X126361000Y-105398583D01*
X126361000Y-105398575D01*
X126365281Y-105355106D01*
X126361000Y-105311637D01*
X126361000Y-99611465D01*
X126365281Y-99567999D01*
X126361000Y-99524533D01*
X126361000Y-99524523D01*
X126348195Y-99394510D01*
X126297589Y-99227687D01*
X126215411Y-99073941D01*
X126104817Y-98939183D01*
X126071051Y-98911472D01*
X119119753Y-91960175D01*
X119143744Y-91976205D01*
X119332102Y-92054226D01*
X119532061Y-92094000D01*
X119735939Y-92094000D01*
X119935898Y-92054226D01*
X120124256Y-91976205D01*
X120293774Y-91862937D01*
X120437937Y-91718774D01*
X120455827Y-91692000D01*
X123756289Y-91692000D01*
X123800226Y-91735937D01*
X123969744Y-91849205D01*
X124158102Y-91927226D01*
X124358061Y-91967000D01*
X124561939Y-91967000D01*
X124761898Y-91927226D01*
X124950256Y-91849205D01*
X125119774Y-91735937D01*
X125263937Y-91591774D01*
X125377205Y-91422256D01*
X125455226Y-91233898D01*
X125495000Y-91033939D01*
X125495000Y-90830061D01*
X125455226Y-90630102D01*
X125377205Y-90441744D01*
X125263937Y-90272226D01*
X125119774Y-90128063D01*
X124950256Y-90014795D01*
X124761898Y-89936774D01*
X124561939Y-89897000D01*
X124358061Y-89897000D01*
X124158102Y-89936774D01*
X123969744Y-90014795D01*
X123800226Y-90128063D01*
X123756289Y-90172000D01*
X120169461Y-90172000D01*
X120124256Y-90141795D01*
X119935898Y-90063774D01*
X119735939Y-90024000D01*
X119532061Y-90024000D01*
X119332102Y-90063774D01*
X119143744Y-90141795D01*
X118974226Y-90255063D01*
X118830063Y-90399226D01*
X118716795Y-90568744D01*
X118638774Y-90757102D01*
X118599000Y-90957061D01*
X118599000Y-91160939D01*
X118638774Y-91360898D01*
X118716795Y-91549256D01*
X118732825Y-91573247D01*
X117725000Y-90565422D01*
X117725000Y-88738008D01*
X126009692Y-88738008D01*
X126009999Y-88823638D01*
X126009999Y-89961249D01*
X126042692Y-89993942D01*
X126018087Y-90119997D01*
X126009999Y-90119997D01*
X126009999Y-90161435D01*
X126009692Y-90163008D01*
X126009999Y-90248638D01*
X126009999Y-90374001D01*
X126017747Y-90374001D01*
X126043190Y-90499558D01*
X126009999Y-90532749D01*
X126009999Y-91586435D01*
X126009692Y-91588008D01*
X126009999Y-91673638D01*
X126009999Y-91984541D01*
X126034402Y-92107222D01*
X126082269Y-92222784D01*
X126151762Y-92326788D01*
X126240210Y-92415236D01*
X126344214Y-92484729D01*
X126459776Y-92532596D01*
X126582457Y-92556999D01*
X126809435Y-92556999D01*
X126811008Y-92557306D01*
X126896638Y-92556999D01*
X128034249Y-92556999D01*
X128066942Y-92524306D01*
X128192997Y-92548911D01*
X128192997Y-92556999D01*
X128234435Y-92556999D01*
X128236008Y-92557306D01*
X128321638Y-92556999D01*
X128447001Y-92556999D01*
X128447001Y-92549251D01*
X128572558Y-92523808D01*
X128605749Y-92556999D01*
X129659435Y-92556999D01*
X129661008Y-92557306D01*
X129746638Y-92556999D01*
X130057541Y-92556999D01*
X130180222Y-92532596D01*
X130295784Y-92484729D01*
X130399788Y-92415236D01*
X130488236Y-92326788D01*
X130557729Y-92222784D01*
X130605596Y-92107222D01*
X130629999Y-91984541D01*
X130629999Y-91757563D01*
X130630306Y-91755990D01*
X130629999Y-91670360D01*
X130629999Y-90932000D01*
X137035509Y-90932000D01*
X137057423Y-91154499D01*
X137122324Y-91368447D01*
X137128297Y-91379621D01*
X137086498Y-91457820D01*
X137050188Y-91577518D01*
X137037928Y-91702000D01*
X137037928Y-92702000D01*
X137050188Y-92826482D01*
X137086498Y-92946180D01*
X137145463Y-93056494D01*
X137224815Y-93153185D01*
X137321506Y-93232537D01*
X137431820Y-93291502D01*
X137551518Y-93327812D01*
X137676000Y-93340072D01*
X138676000Y-93340072D01*
X138800482Y-93327812D01*
X138920180Y-93291502D01*
X139030494Y-93232537D01*
X139127185Y-93153185D01*
X139206537Y-93056494D01*
X139265502Y-92946180D01*
X139301812Y-92826482D01*
X139314072Y-92702000D01*
X139314072Y-91702000D01*
X139301812Y-91577518D01*
X139265502Y-91457820D01*
X139223703Y-91379621D01*
X139229676Y-91368447D01*
X139294577Y-91154499D01*
X139316491Y-90932000D01*
X139294577Y-90709501D01*
X139229676Y-90495553D01*
X139124284Y-90298377D01*
X138982449Y-90125551D01*
X138809623Y-89983716D01*
X138612447Y-89878324D01*
X138398499Y-89813423D01*
X138231752Y-89797000D01*
X138120248Y-89797000D01*
X137953501Y-89813423D01*
X137739553Y-89878324D01*
X137542377Y-89983716D01*
X137369551Y-90125551D01*
X137227716Y-90298377D01*
X137122324Y-90495553D01*
X137057423Y-90709501D01*
X137035509Y-90932000D01*
X130629999Y-90932000D01*
X130629999Y-90532749D01*
X130597306Y-90500056D01*
X130621911Y-90374001D01*
X130629999Y-90374001D01*
X130629999Y-90332563D01*
X130630306Y-90330990D01*
X130629999Y-90245360D01*
X130629999Y-90119997D01*
X130622251Y-90119997D01*
X130596808Y-89994440D01*
X130629999Y-89961249D01*
X130629999Y-88907563D01*
X130630306Y-88905990D01*
X130630285Y-88900000D01*
X133733509Y-88900000D01*
X133739000Y-88955751D01*
X133739000Y-89011788D01*
X133749932Y-89066748D01*
X133755423Y-89122498D01*
X133771684Y-89176103D01*
X133782617Y-89231067D01*
X133804064Y-89282845D01*
X133820324Y-89336446D01*
X133846728Y-89385845D01*
X133868176Y-89437624D01*
X133899313Y-89484224D01*
X133925717Y-89533622D01*
X133961251Y-89576920D01*
X133992388Y-89623520D01*
X134032019Y-89663151D01*
X134067552Y-89706448D01*
X134110849Y-89741981D01*
X134150480Y-89781612D01*
X134197080Y-89812749D01*
X134240378Y-89848283D01*
X134289776Y-89874687D01*
X134336376Y-89905824D01*
X134388155Y-89927272D01*
X134437554Y-89953676D01*
X134491155Y-89969936D01*
X134542933Y-89991383D01*
X134597897Y-90002316D01*
X134651502Y-90018577D01*
X134707252Y-90024068D01*
X134762212Y-90035000D01*
X134818249Y-90035000D01*
X134874000Y-90040491D01*
X134929751Y-90035000D01*
X134985788Y-90035000D01*
X135040748Y-90024068D01*
X135096498Y-90018577D01*
X135150103Y-90002316D01*
X135205067Y-89991383D01*
X135256845Y-89969936D01*
X135310446Y-89953676D01*
X135359845Y-89927272D01*
X135411624Y-89905824D01*
X135458224Y-89874687D01*
X135507622Y-89848283D01*
X135550921Y-89812749D01*
X135597520Y-89781612D01*
X135755612Y-89623520D01*
X135755614Y-89623517D01*
X136653140Y-88725992D01*
X136696449Y-88690449D01*
X136838284Y-88517623D01*
X136943676Y-88320447D01*
X137008577Y-88106499D01*
X137025000Y-87939752D01*
X137025000Y-87939751D01*
X137030491Y-87884000D01*
X137025000Y-87828249D01*
X137025000Y-84978212D01*
X137014068Y-84923252D01*
X137008577Y-84867502D01*
X136992316Y-84813896D01*
X136981383Y-84758933D01*
X136959937Y-84707158D01*
X136943676Y-84653553D01*
X136917269Y-84604149D01*
X136895824Y-84552376D01*
X136864693Y-84505786D01*
X136838284Y-84456377D01*
X136802741Y-84413068D01*
X136771612Y-84366480D01*
X136731991Y-84326859D01*
X136696449Y-84283551D01*
X136653141Y-84248009D01*
X136613520Y-84208388D01*
X136566932Y-84177259D01*
X136523623Y-84141716D01*
X136474214Y-84115307D01*
X136427624Y-84084176D01*
X136375851Y-84062731D01*
X136326447Y-84036324D01*
X136272842Y-84020063D01*
X136221067Y-83998617D01*
X136166106Y-83987685D01*
X136112499Y-83971423D01*
X136056747Y-83965932D01*
X136001788Y-83955000D01*
X135945752Y-83955000D01*
X135890000Y-83949509D01*
X135834249Y-83955000D01*
X135778212Y-83955000D01*
X135723252Y-83965932D01*
X135667502Y-83971423D01*
X135613897Y-83987684D01*
X135558933Y-83998617D01*
X135507155Y-84020064D01*
X135453554Y-84036324D01*
X135404153Y-84062729D01*
X135352376Y-84084176D01*
X135305782Y-84115309D01*
X135256378Y-84141716D01*
X135213074Y-84177255D01*
X135166480Y-84208388D01*
X135126855Y-84248013D01*
X135083552Y-84283551D01*
X135048014Y-84326854D01*
X135008388Y-84366480D01*
X134977254Y-84413075D01*
X134941717Y-84456377D01*
X134915310Y-84505780D01*
X134884176Y-84552376D01*
X134862730Y-84604151D01*
X134836324Y-84653553D01*
X134820063Y-84707158D01*
X134798617Y-84758933D01*
X134787685Y-84813894D01*
X134771423Y-84867501D01*
X134765932Y-84923253D01*
X134755000Y-84978212D01*
X134755000Y-85852857D01*
X134755001Y-85852867D01*
X134755000Y-87413868D01*
X134150483Y-88018386D01*
X134150480Y-88018388D01*
X133992388Y-88176480D01*
X133961251Y-88223079D01*
X133925717Y-88266378D01*
X133899313Y-88315776D01*
X133868176Y-88362376D01*
X133846728Y-88414155D01*
X133820324Y-88463554D01*
X133804064Y-88517155D01*
X133782617Y-88568933D01*
X133771684Y-88623897D01*
X133755423Y-88677502D01*
X133749932Y-88733252D01*
X133739000Y-88788212D01*
X133739000Y-88844249D01*
X133733509Y-88900000D01*
X130630285Y-88900000D01*
X130629999Y-88820360D01*
X130629999Y-88509457D01*
X130605596Y-88386776D01*
X130557729Y-88271214D01*
X130488236Y-88167210D01*
X130399788Y-88078762D01*
X130295784Y-88009269D01*
X130180222Y-87961402D01*
X130057541Y-87936999D01*
X129830563Y-87936999D01*
X129828990Y-87936692D01*
X129743360Y-87936999D01*
X128605749Y-87936999D01*
X128573056Y-87969692D01*
X128447001Y-87945087D01*
X128447001Y-87936999D01*
X128405563Y-87936999D01*
X128403990Y-87936692D01*
X128318360Y-87936999D01*
X128192997Y-87936999D01*
X128192997Y-87944747D01*
X128067440Y-87970190D01*
X128034249Y-87936999D01*
X126980563Y-87936999D01*
X126978990Y-87936692D01*
X126893360Y-87936999D01*
X126582457Y-87936999D01*
X126459776Y-87961402D01*
X126344214Y-88009269D01*
X126240210Y-88078762D01*
X126151762Y-88167210D01*
X126082269Y-88271214D01*
X126034402Y-88386776D01*
X126009999Y-88509457D01*
X126009999Y-88736435D01*
X126009692Y-88738008D01*
X117725000Y-88738008D01*
X117725000Y-85514465D01*
X117729281Y-85470999D01*
X117725000Y-85427533D01*
X117725000Y-85427523D01*
X117712195Y-85297510D01*
X117661589Y-85130687D01*
X117579411Y-84976941D01*
X117468817Y-84842183D01*
X117435050Y-84814471D01*
X115686337Y-83065759D01*
X115710385Y-82821600D01*
X115681713Y-82530489D01*
X115663729Y-82471202D01*
X139476594Y-82471202D01*
X139597915Y-82701092D01*
X140791070Y-82701092D01*
X140791070Y-81507278D01*
X140561179Y-81386611D01*
X140286818Y-81483935D01*
X140036715Y-81632914D01*
X139820482Y-81827823D01*
X139646429Y-82061172D01*
X139521245Y-82323993D01*
X139476594Y-82471202D01*
X115663729Y-82471202D01*
X115596799Y-82250566D01*
X115458906Y-81992586D01*
X115273334Y-81766466D01*
X115047214Y-81580894D01*
X114789234Y-81443001D01*
X114509311Y-81358087D01*
X114291150Y-81336600D01*
X114145250Y-81336600D01*
X113927089Y-81358087D01*
X113740000Y-81414840D01*
X113740000Y-76575105D01*
X124232712Y-76575105D01*
X124254626Y-76797604D01*
X124319527Y-77011552D01*
X124424919Y-77208728D01*
X124426049Y-77210105D01*
X124424919Y-77211482D01*
X124319527Y-77408658D01*
X124254626Y-77622606D01*
X124232712Y-77845105D01*
X124254626Y-78067604D01*
X124319527Y-78281552D01*
X124424919Y-78478728D01*
X124426049Y-78480105D01*
X124424919Y-78481482D01*
X124319527Y-78678658D01*
X124254626Y-78892606D01*
X124232712Y-79115105D01*
X124254626Y-79337604D01*
X124319527Y-79551552D01*
X124325500Y-79562726D01*
X124283701Y-79640925D01*
X124247391Y-79760623D01*
X124235131Y-79885105D01*
X124235131Y-80885105D01*
X124247391Y-81009587D01*
X124283701Y-81129285D01*
X124342666Y-81239599D01*
X124422018Y-81336290D01*
X124518709Y-81415642D01*
X124629023Y-81474607D01*
X124748721Y-81510917D01*
X124873203Y-81523177D01*
X125873203Y-81523177D01*
X125997685Y-81510917D01*
X126117383Y-81474607D01*
X126227697Y-81415642D01*
X126324388Y-81336290D01*
X126403740Y-81239599D01*
X126462705Y-81129285D01*
X126499015Y-81009587D01*
X126511275Y-80885105D01*
X126511275Y-79885105D01*
X126499015Y-79760623D01*
X126462705Y-79640925D01*
X126420906Y-79562726D01*
X126426879Y-79551552D01*
X126491780Y-79337604D01*
X126513694Y-79115105D01*
X126491780Y-78892606D01*
X126426879Y-78678658D01*
X126321487Y-78481482D01*
X126320357Y-78480105D01*
X126321487Y-78478728D01*
X126426879Y-78281552D01*
X126491780Y-78067604D01*
X126513694Y-77845105D01*
X126491780Y-77622606D01*
X126426879Y-77408658D01*
X126321487Y-77211482D01*
X126320357Y-77210105D01*
X126321487Y-77208728D01*
X126426879Y-77011552D01*
X126491780Y-76797604D01*
X126513694Y-76575105D01*
X126491780Y-76352606D01*
X126426879Y-76138658D01*
X126321487Y-75941482D01*
X126179652Y-75768656D01*
X126006826Y-75626821D01*
X125809650Y-75521429D01*
X125595702Y-75456528D01*
X125428955Y-75440105D01*
X125317451Y-75440105D01*
X125150704Y-75456528D01*
X124936756Y-75521429D01*
X124739580Y-75626821D01*
X124566754Y-75768656D01*
X124424919Y-75941482D01*
X124319527Y-76138658D01*
X124254626Y-76352606D01*
X124232712Y-76575105D01*
X113740000Y-76575105D01*
X113740000Y-72390000D01*
X114429509Y-72390000D01*
X114451423Y-72612499D01*
X114516324Y-72826447D01*
X114621716Y-73023623D01*
X114622846Y-73025000D01*
X114621716Y-73026377D01*
X114516324Y-73223553D01*
X114451423Y-73437501D01*
X114429509Y-73660000D01*
X114451423Y-73882499D01*
X114516324Y-74096447D01*
X114621716Y-74293623D01*
X114622846Y-74295000D01*
X114621716Y-74296377D01*
X114516324Y-74493553D01*
X114451423Y-74707501D01*
X114429509Y-74930000D01*
X114451423Y-75152499D01*
X114516324Y-75366447D01*
X114621716Y-75563623D01*
X114763551Y-75736449D01*
X114936377Y-75878284D01*
X115133553Y-75983676D01*
X115347501Y-76048577D01*
X115514248Y-76065000D01*
X115625752Y-76065000D01*
X115792499Y-76048577D01*
X116006447Y-75983676D01*
X116203623Y-75878284D01*
X116376449Y-75736449D01*
X116518284Y-75563623D01*
X116623676Y-75366447D01*
X116664498Y-75231874D01*
X138605881Y-75231874D01*
X138622554Y-75286864D01*
X138712877Y-75490206D01*
X138841135Y-75672020D01*
X139002399Y-75825318D01*
X139190471Y-75944210D01*
X139398124Y-76024126D01*
X139573000Y-75899129D01*
X139573000Y-75057000D01*
X139827000Y-75057000D01*
X139827000Y-75899129D01*
X140001876Y-76024126D01*
X140209529Y-75944210D01*
X140397601Y-75825318D01*
X140558865Y-75672020D01*
X140687123Y-75490206D01*
X140777446Y-75286864D01*
X140794119Y-75231874D01*
X140667954Y-75057000D01*
X139827000Y-75057000D01*
X139573000Y-75057000D01*
X138732046Y-75057000D01*
X138605881Y-75231874D01*
X116664498Y-75231874D01*
X116688577Y-75152499D01*
X116710491Y-74930000D01*
X116688577Y-74707501D01*
X116623676Y-74493553D01*
X116518284Y-74296377D01*
X116517154Y-74295000D01*
X116518284Y-74293623D01*
X116623676Y-74096447D01*
X116664498Y-73961874D01*
X138605881Y-73961874D01*
X138622554Y-74016864D01*
X138712877Y-74220206D01*
X138765639Y-74295000D01*
X138712877Y-74369794D01*
X138622554Y-74573136D01*
X138605881Y-74628126D01*
X138732046Y-74803000D01*
X139573000Y-74803000D01*
X139573000Y-73787000D01*
X139827000Y-73787000D01*
X139827000Y-74803000D01*
X140667954Y-74803000D01*
X140794119Y-74628126D01*
X140777446Y-74573136D01*
X140687123Y-74369794D01*
X140634361Y-74295000D01*
X140687123Y-74220206D01*
X140777446Y-74016864D01*
X140794119Y-73961874D01*
X140667954Y-73787000D01*
X139827000Y-73787000D01*
X139573000Y-73787000D01*
X138732046Y-73787000D01*
X138605881Y-73961874D01*
X116664498Y-73961874D01*
X116688577Y-73882499D01*
X116710491Y-73660000D01*
X116688577Y-73437501D01*
X116623676Y-73223553D01*
X116518284Y-73026377D01*
X116517154Y-73025000D01*
X116518284Y-73023623D01*
X116623676Y-72826447D01*
X116664498Y-72691874D01*
X138605881Y-72691874D01*
X138622554Y-72746864D01*
X138712877Y-72950206D01*
X138765639Y-73025000D01*
X138712877Y-73099794D01*
X138622554Y-73303136D01*
X138605881Y-73358126D01*
X138732046Y-73533000D01*
X139573000Y-73533000D01*
X139573000Y-72517000D01*
X139827000Y-72517000D01*
X139827000Y-73533000D01*
X140667954Y-73533000D01*
X140794119Y-73358126D01*
X140777446Y-73303136D01*
X140687123Y-73099794D01*
X140634361Y-73025000D01*
X140687123Y-72950206D01*
X140777446Y-72746864D01*
X140794119Y-72691874D01*
X140667954Y-72517000D01*
X139827000Y-72517000D01*
X139573000Y-72517000D01*
X138732046Y-72517000D01*
X138605881Y-72691874D01*
X116664498Y-72691874D01*
X116688577Y-72612499D01*
X116710491Y-72390000D01*
X116688577Y-72167501D01*
X116623676Y-71953553D01*
X116617703Y-71942379D01*
X116659502Y-71864180D01*
X116695812Y-71744482D01*
X116708072Y-71620000D01*
X116708072Y-71247000D01*
X128018509Y-71247000D01*
X128040423Y-71469499D01*
X128105324Y-71683447D01*
X128210716Y-71880623D01*
X128352551Y-72053449D01*
X128525377Y-72195284D01*
X128722553Y-72300676D01*
X128936501Y-72365577D01*
X129103248Y-72382000D01*
X132897752Y-72382000D01*
X133064499Y-72365577D01*
X133278447Y-72300676D01*
X133475623Y-72195284D01*
X133648449Y-72053449D01*
X133790284Y-71880623D01*
X133895676Y-71683447D01*
X133960577Y-71469499D01*
X133966855Y-71405750D01*
X138565000Y-71405750D01*
X138565000Y-71682542D01*
X138589403Y-71805223D01*
X138637270Y-71920785D01*
X138658408Y-71952420D01*
X138622554Y-72033136D01*
X138605881Y-72088126D01*
X138732046Y-72263000D01*
X139573000Y-72263000D01*
X139573000Y-71247000D01*
X139827000Y-71247000D01*
X139827000Y-72263000D01*
X140667954Y-72263000D01*
X140794119Y-72088126D01*
X140777446Y-72033136D01*
X140741592Y-71952420D01*
X140762730Y-71920785D01*
X140810597Y-71805223D01*
X140835000Y-71682542D01*
X140835000Y-71405750D01*
X140676250Y-71247000D01*
X139827000Y-71247000D01*
X139573000Y-71247000D01*
X138723750Y-71247000D01*
X138565000Y-71405750D01*
X133966855Y-71405750D01*
X133982491Y-71247000D01*
X133960577Y-71024501D01*
X133895676Y-70810553D01*
X133790284Y-70613377D01*
X133744393Y-70557458D01*
X138565000Y-70557458D01*
X138565000Y-70834250D01*
X138723750Y-70993000D01*
X139573000Y-70993000D01*
X139573000Y-70143750D01*
X139827000Y-70143750D01*
X139827000Y-70993000D01*
X140676250Y-70993000D01*
X140835000Y-70834250D01*
X140835000Y-70557458D01*
X140810597Y-70434777D01*
X140762730Y-70319215D01*
X140693237Y-70215211D01*
X140604789Y-70126763D01*
X140500785Y-70057270D01*
X140385223Y-70009403D01*
X140262542Y-69985000D01*
X139985750Y-69985000D01*
X139827000Y-70143750D01*
X139573000Y-70143750D01*
X139414250Y-69985000D01*
X139137458Y-69985000D01*
X139014777Y-70009403D01*
X138899215Y-70057270D01*
X138795211Y-70126763D01*
X138706763Y-70215211D01*
X138637270Y-70319215D01*
X138589403Y-70434777D01*
X138565000Y-70557458D01*
X133744393Y-70557458D01*
X133648449Y-70440551D01*
X133475623Y-70298716D01*
X133278447Y-70193324D01*
X133064499Y-70128423D01*
X132897752Y-70112000D01*
X129103248Y-70112000D01*
X128936501Y-70128423D01*
X128722553Y-70193324D01*
X128525377Y-70298716D01*
X128352551Y-70440551D01*
X128210716Y-70613377D01*
X128105324Y-70810553D01*
X128040423Y-71024501D01*
X128018509Y-71247000D01*
X116708072Y-71247000D01*
X116708072Y-70620000D01*
X116695812Y-70495518D01*
X116659502Y-70375820D01*
X116600537Y-70265506D01*
X116521185Y-70168815D01*
X116424494Y-70089463D01*
X116314180Y-70030498D01*
X116194482Y-69994188D01*
X116070000Y-69981928D01*
X115070000Y-69981928D01*
X114945518Y-69994188D01*
X114825820Y-70030498D01*
X114715506Y-70089463D01*
X114618815Y-70168815D01*
X114539463Y-70265506D01*
X114480498Y-70375820D01*
X114444188Y-70495518D01*
X114431928Y-70620000D01*
X114431928Y-71620000D01*
X114444188Y-71744482D01*
X114480498Y-71864180D01*
X114522297Y-71942379D01*
X114516324Y-71953553D01*
X114451423Y-72167501D01*
X114429509Y-72390000D01*
X113740000Y-72390000D01*
X113740000Y-62992000D01*
X120525509Y-62992000D01*
X120547423Y-63214499D01*
X120612324Y-63428447D01*
X120717716Y-63625623D01*
X120859551Y-63798449D01*
X121032377Y-63940284D01*
X121033001Y-63940617D01*
X121033000Y-64828289D01*
X120989063Y-64872226D01*
X120875795Y-65041744D01*
X120797774Y-65230102D01*
X120758000Y-65430061D01*
X120758000Y-65633939D01*
X120797774Y-65833898D01*
X120875795Y-66022256D01*
X120989063Y-66191774D01*
X121133226Y-66335937D01*
X121302744Y-66449205D01*
X121491102Y-66527226D01*
X121691061Y-66567000D01*
X121894939Y-66567000D01*
X122094898Y-66527226D01*
X122283256Y-66449205D01*
X122452774Y-66335937D01*
X122596937Y-66191774D01*
X122710205Y-66022256D01*
X122788226Y-65833898D01*
X122828000Y-65633939D01*
X122828000Y-65430061D01*
X122788226Y-65230102D01*
X122710205Y-65041744D01*
X122596937Y-64872226D01*
X122553000Y-64828289D01*
X122553000Y-64130072D01*
X123436000Y-64130072D01*
X123560482Y-64117812D01*
X123680180Y-64081502D01*
X123790494Y-64022537D01*
X123887185Y-63943185D01*
X123966537Y-63846494D01*
X124025502Y-63736180D01*
X124061812Y-63616482D01*
X124074072Y-63492000D01*
X124074072Y-62992000D01*
X130685509Y-62992000D01*
X130707423Y-63214499D01*
X130772324Y-63428447D01*
X130877716Y-63625623D01*
X131019551Y-63798449D01*
X131192377Y-63940284D01*
X131389553Y-64045676D01*
X131603501Y-64110577D01*
X131770248Y-64127000D01*
X131881752Y-64127000D01*
X132048499Y-64110577D01*
X132262447Y-64045676D01*
X132459623Y-63940284D01*
X132461000Y-63939154D01*
X132462377Y-63940284D01*
X132659553Y-64045676D01*
X132873501Y-64110577D01*
X133040248Y-64127000D01*
X133151752Y-64127000D01*
X133318499Y-64110577D01*
X133532447Y-64045676D01*
X133729623Y-63940284D01*
X133731000Y-63939154D01*
X133732377Y-63940284D01*
X133929553Y-64045676D01*
X134143501Y-64110577D01*
X134310248Y-64127000D01*
X134421752Y-64127000D01*
X134588499Y-64110577D01*
X134802447Y-64045676D01*
X134813621Y-64039703D01*
X134891820Y-64081502D01*
X135011518Y-64117812D01*
X135136000Y-64130072D01*
X136136000Y-64130072D01*
X136260482Y-64117812D01*
X136380180Y-64081502D01*
X136490494Y-64022537D01*
X136587185Y-63943185D01*
X136666537Y-63846494D01*
X136725502Y-63736180D01*
X136761812Y-63616482D01*
X136774072Y-63492000D01*
X136774072Y-62492000D01*
X136761812Y-62367518D01*
X136725502Y-62247820D01*
X136666537Y-62137506D01*
X136587185Y-62040815D01*
X136490494Y-61961463D01*
X136380180Y-61902498D01*
X136260482Y-61866188D01*
X136136000Y-61853928D01*
X135136000Y-61853928D01*
X135011518Y-61866188D01*
X134891820Y-61902498D01*
X134813621Y-61944297D01*
X134802447Y-61938324D01*
X134588499Y-61873423D01*
X134421752Y-61857000D01*
X134310248Y-61857000D01*
X134143501Y-61873423D01*
X133929553Y-61938324D01*
X133732377Y-62043716D01*
X133731000Y-62044846D01*
X133729623Y-62043716D01*
X133532447Y-61938324D01*
X133318499Y-61873423D01*
X133151752Y-61857000D01*
X133040248Y-61857000D01*
X132873501Y-61873423D01*
X132659553Y-61938324D01*
X132462377Y-62043716D01*
X132461000Y-62044846D01*
X132459623Y-62043716D01*
X132262447Y-61938324D01*
X132048499Y-61873423D01*
X131881752Y-61857000D01*
X131770248Y-61857000D01*
X131603501Y-61873423D01*
X131389553Y-61938324D01*
X131192377Y-62043716D01*
X131019551Y-62185551D01*
X130877716Y-62358377D01*
X130772324Y-62555553D01*
X130707423Y-62769501D01*
X130685509Y-62992000D01*
X124074072Y-62992000D01*
X124074072Y-62492000D01*
X124061812Y-62367518D01*
X124025502Y-62247820D01*
X123966537Y-62137506D01*
X123887185Y-62040815D01*
X123790494Y-61961463D01*
X123680180Y-61902498D01*
X123560482Y-61866188D01*
X123436000Y-61853928D01*
X122436000Y-61853928D01*
X122311518Y-61866188D01*
X122191820Y-61902498D01*
X122113621Y-61944297D01*
X122102447Y-61938324D01*
X121888499Y-61873423D01*
X121721752Y-61857000D01*
X121610248Y-61857000D01*
X121443501Y-61873423D01*
X121229553Y-61938324D01*
X121032377Y-62043716D01*
X120859551Y-62185551D01*
X120717716Y-62358377D01*
X120612324Y-62555553D01*
X120547423Y-62769501D01*
X120525509Y-62992000D01*
X113740000Y-62992000D01*
X113740000Y-62518722D01*
X113773355Y-62178550D01*
X113862063Y-61884731D01*
X114006152Y-61613738D01*
X114200130Y-61375898D01*
X114436617Y-61180259D01*
X114706591Y-61034284D01*
X114999786Y-60943525D01*
X115337787Y-60908000D01*
X139919278Y-60908000D01*
X140259450Y-60941355D01*
G36*
X128466999Y-90186109D02*
X128466999Y-90307889D01*
X128380889Y-90393999D01*
X128259109Y-90393999D01*
X128172999Y-90307889D01*
X128172999Y-90186109D01*
X128259109Y-90099999D01*
X128380889Y-90099999D01*
X128466999Y-90186109D01*
X128466999Y-90186109D01*
G37*
X128466999Y-90186109D02*
X128466999Y-90307889D01*
X128380889Y-90393999D01*
X128259109Y-90393999D01*
X128172999Y-90307889D01*
X128172999Y-90186109D01*
X128259109Y-90099999D01*
X128380889Y-90099999D01*
X128466999Y-90186109D01*
G36*
X124591001Y-104988526D02*
X122928000Y-106651528D01*
X122928000Y-106498458D01*
X122903597Y-106375777D01*
X122855730Y-106260215D01*
X122786237Y-106156211D01*
X122697789Y-106067763D01*
X122593785Y-105998270D01*
X122478223Y-105950403D01*
X122355542Y-105926000D01*
X122078750Y-105926000D01*
X121920000Y-106084750D01*
X121920000Y-106934000D01*
X121940000Y-106934000D01*
X121940000Y-107188000D01*
X121920000Y-107188000D01*
X121920000Y-107203017D01*
X121848752Y-107196000D01*
X121737248Y-107196000D01*
X121666000Y-107203017D01*
X121666000Y-107188000D01*
X120816750Y-107188000D01*
X120658000Y-107346750D01*
X120658000Y-107623542D01*
X120682403Y-107746223D01*
X120730270Y-107861785D01*
X120745031Y-107883876D01*
X120739324Y-107894553D01*
X120674423Y-108108501D01*
X120652509Y-108331000D01*
X120674423Y-108553499D01*
X120739324Y-108767447D01*
X120844716Y-108964623D01*
X120845846Y-108966000D01*
X120844716Y-108967377D01*
X120739324Y-109164553D01*
X120674423Y-109378501D01*
X120664645Y-109477776D01*
X119292956Y-110849466D01*
X119259183Y-110877183D01*
X119148589Y-111011942D01*
X119066411Y-111165688D01*
X119015805Y-111332511D01*
X119003000Y-111462524D01*
X119003000Y-111462531D01*
X118998719Y-111506000D01*
X119003000Y-111549469D01*
X119003001Y-121227314D01*
X117260956Y-122969360D01*
X117227183Y-122997077D01*
X117116589Y-123131836D01*
X117034411Y-123285582D01*
X116999157Y-123401798D01*
X116984114Y-123451388D01*
X116983805Y-123452405D01*
X116971000Y-123582418D01*
X116971000Y-123582425D01*
X116967289Y-123620104D01*
X116850176Y-123795376D01*
X116764617Y-124001933D01*
X116721000Y-124221212D01*
X116721000Y-124409199D01*
X115703500Y-123391699D01*
X115681713Y-123170489D01*
X115596799Y-122890566D01*
X115458906Y-122632586D01*
X115273334Y-122406466D01*
X115047214Y-122220894D01*
X114992409Y-122191600D01*
X115047214Y-122162306D01*
X115273334Y-121976734D01*
X115458906Y-121750614D01*
X115596799Y-121492634D01*
X115681713Y-121212711D01*
X115710385Y-120921600D01*
X115681713Y-120630489D01*
X115596799Y-120350566D01*
X115458906Y-120092586D01*
X115273334Y-119866466D01*
X115047214Y-119680894D01*
X114992409Y-119651600D01*
X115047214Y-119622306D01*
X115273334Y-119436734D01*
X115458906Y-119210614D01*
X115596799Y-118952634D01*
X115681713Y-118672711D01*
X115710385Y-118381600D01*
X115681713Y-118090489D01*
X115596799Y-117810566D01*
X115458906Y-117552586D01*
X115273334Y-117326466D01*
X115047214Y-117140894D01*
X114982677Y-117106399D01*
X115099555Y-117036778D01*
X115315788Y-116841869D01*
X115489841Y-116608520D01*
X115615025Y-116345699D01*
X115659676Y-116198490D01*
X115538355Y-115968600D01*
X114345200Y-115968600D01*
X114345200Y-115988600D01*
X114091200Y-115988600D01*
X114091200Y-115968600D01*
X114071200Y-115968600D01*
X114071200Y-115714600D01*
X114091200Y-115714600D01*
X114091200Y-115694600D01*
X114345200Y-115694600D01*
X114345200Y-115714600D01*
X115538355Y-115714600D01*
X115659676Y-115484710D01*
X115615025Y-115337501D01*
X115489841Y-115074680D01*
X115315788Y-114841331D01*
X115099555Y-114646422D01*
X114982677Y-114576801D01*
X115047214Y-114542306D01*
X115273334Y-114356734D01*
X115458906Y-114130614D01*
X115596799Y-113872634D01*
X115681713Y-113592711D01*
X115710385Y-113301600D01*
X115681713Y-113010489D01*
X115596799Y-112730566D01*
X115458906Y-112472586D01*
X115273334Y-112246466D01*
X115047214Y-112060894D01*
X114992409Y-112031600D01*
X115047214Y-112002306D01*
X115273334Y-111816734D01*
X115458906Y-111590614D01*
X115596799Y-111332634D01*
X115681713Y-111052711D01*
X115710385Y-110761600D01*
X115681713Y-110470489D01*
X115596799Y-110190566D01*
X115458906Y-109932586D01*
X115273334Y-109706466D01*
X115047214Y-109520894D01*
X114992409Y-109491600D01*
X115047214Y-109462306D01*
X115273334Y-109276734D01*
X115425762Y-109091000D01*
X117495363Y-109091000D01*
X117532685Y-109094676D01*
X117570007Y-109091000D01*
X117570018Y-109091000D01*
X117681671Y-109080003D01*
X117824932Y-109036546D01*
X117956961Y-108965974D01*
X118072686Y-108871001D01*
X118096489Y-108841997D01*
X120440028Y-106498458D01*
X120658000Y-106498458D01*
X120658000Y-106775250D01*
X120816750Y-106934000D01*
X121666000Y-106934000D01*
X121666000Y-106084750D01*
X121507250Y-105926000D01*
X121230458Y-105926000D01*
X121107777Y-105950403D01*
X120992215Y-105998270D01*
X120888211Y-106067763D01*
X120799763Y-106156211D01*
X120730270Y-106260215D01*
X120682403Y-106375777D01*
X120658000Y-106498458D01*
X120440028Y-106498458D01*
X123066003Y-103872484D01*
X123095001Y-103848686D01*
X123142342Y-103791001D01*
X123189974Y-103732962D01*
X123260546Y-103600932D01*
X123263843Y-103590063D01*
X123303987Y-103457724D01*
X123358937Y-103402774D01*
X123472205Y-103233256D01*
X123550226Y-103044898D01*
X123590000Y-102844939D01*
X123590000Y-102641061D01*
X123550226Y-102441102D01*
X123475969Y-102261832D01*
X123991803Y-101746000D01*
X124053939Y-101746000D01*
X124253898Y-101706226D01*
X124442256Y-101628205D01*
X124591000Y-101528817D01*
X124591001Y-104988526D01*
X124591001Y-104988526D01*
G37*
X124591001Y-104988526D02*
X122928000Y-106651528D01*
X122928000Y-106498458D01*
X122903597Y-106375777D01*
X122855730Y-106260215D01*
X122786237Y-106156211D01*
X122697789Y-106067763D01*
X122593785Y-105998270D01*
X122478223Y-105950403D01*
X122355542Y-105926000D01*
X122078750Y-105926000D01*
X121920000Y-106084750D01*
X121920000Y-106934000D01*
X121940000Y-106934000D01*
X121940000Y-107188000D01*
X121920000Y-107188000D01*
X121920000Y-107203017D01*
X121848752Y-107196000D01*
X121737248Y-107196000D01*
X121666000Y-107203017D01*
X121666000Y-107188000D01*
X120816750Y-107188000D01*
X120658000Y-107346750D01*
X120658000Y-107623542D01*
X120682403Y-107746223D01*
X120730270Y-107861785D01*
X120745031Y-107883876D01*
X120739324Y-107894553D01*
X120674423Y-108108501D01*
X120652509Y-108331000D01*
X120674423Y-108553499D01*
X120739324Y-108767447D01*
X120844716Y-108964623D01*
X120845846Y-108966000D01*
X120844716Y-108967377D01*
X120739324Y-109164553D01*
X120674423Y-109378501D01*
X120664645Y-109477776D01*
X119292956Y-110849466D01*
X119259183Y-110877183D01*
X119148589Y-111011942D01*
X119066411Y-111165688D01*
X119015805Y-111332511D01*
X119003000Y-111462524D01*
X119003000Y-111462531D01*
X118998719Y-111506000D01*
X119003000Y-111549469D01*
X119003001Y-121227314D01*
X117260956Y-122969360D01*
X117227183Y-122997077D01*
X117116589Y-123131836D01*
X117034411Y-123285582D01*
X116999157Y-123401798D01*
X116984114Y-123451388D01*
X116983805Y-123452405D01*
X116971000Y-123582418D01*
X116971000Y-123582425D01*
X116967289Y-123620104D01*
X116850176Y-123795376D01*
X116764617Y-124001933D01*
X116721000Y-124221212D01*
X116721000Y-124409199D01*
X115703500Y-123391699D01*
X115681713Y-123170489D01*
X115596799Y-122890566D01*
X115458906Y-122632586D01*
X115273334Y-122406466D01*
X115047214Y-122220894D01*
X114992409Y-122191600D01*
X115047214Y-122162306D01*
X115273334Y-121976734D01*
X115458906Y-121750614D01*
X115596799Y-121492634D01*
X115681713Y-121212711D01*
X115710385Y-120921600D01*
X115681713Y-120630489D01*
X115596799Y-120350566D01*
X115458906Y-120092586D01*
X115273334Y-119866466D01*
X115047214Y-119680894D01*
X114992409Y-119651600D01*
X115047214Y-119622306D01*
X115273334Y-119436734D01*
X115458906Y-119210614D01*
X115596799Y-118952634D01*
X115681713Y-118672711D01*
X115710385Y-118381600D01*
X115681713Y-118090489D01*
X115596799Y-117810566D01*
X115458906Y-117552586D01*
X115273334Y-117326466D01*
X115047214Y-117140894D01*
X114982677Y-117106399D01*
X115099555Y-117036778D01*
X115315788Y-116841869D01*
X115489841Y-116608520D01*
X115615025Y-116345699D01*
X115659676Y-116198490D01*
X115538355Y-115968600D01*
X114345200Y-115968600D01*
X114345200Y-115988600D01*
X114091200Y-115988600D01*
X114091200Y-115968600D01*
X114071200Y-115968600D01*
X114071200Y-115714600D01*
X114091200Y-115714600D01*
X114091200Y-115694600D01*
X114345200Y-115694600D01*
X114345200Y-115714600D01*
X115538355Y-115714600D01*
X115659676Y-115484710D01*
X115615025Y-115337501D01*
X115489841Y-115074680D01*
X115315788Y-114841331D01*
X115099555Y-114646422D01*
X114982677Y-114576801D01*
X115047214Y-114542306D01*
X115273334Y-114356734D01*
X115458906Y-114130614D01*
X115596799Y-113872634D01*
X115681713Y-113592711D01*
X115710385Y-113301600D01*
X115681713Y-113010489D01*
X115596799Y-112730566D01*
X115458906Y-112472586D01*
X115273334Y-112246466D01*
X115047214Y-112060894D01*
X114992409Y-112031600D01*
X115047214Y-112002306D01*
X115273334Y-111816734D01*
X115458906Y-111590614D01*
X115596799Y-111332634D01*
X115681713Y-111052711D01*
X115710385Y-110761600D01*
X115681713Y-110470489D01*
X115596799Y-110190566D01*
X115458906Y-109932586D01*
X115273334Y-109706466D01*
X115047214Y-109520894D01*
X114992409Y-109491600D01*
X115047214Y-109462306D01*
X115273334Y-109276734D01*
X115425762Y-109091000D01*
X117495363Y-109091000D01*
X117532685Y-109094676D01*
X117570007Y-109091000D01*
X117570018Y-109091000D01*
X117681671Y-109080003D01*
X117824932Y-109036546D01*
X117956961Y-108965974D01*
X118072686Y-108871001D01*
X118096489Y-108841997D01*
X120440028Y-106498458D01*
X120658000Y-106498458D01*
X120658000Y-106775250D01*
X120816750Y-106934000D01*
X121666000Y-106934000D01*
X121666000Y-106084750D01*
X121507250Y-105926000D01*
X121230458Y-105926000D01*
X121107777Y-105950403D01*
X120992215Y-105998270D01*
X120888211Y-106067763D01*
X120799763Y-106156211D01*
X120730270Y-106260215D01*
X120682403Y-106375777D01*
X120658000Y-106498458D01*
X120440028Y-106498458D01*
X123066003Y-103872484D01*
X123095001Y-103848686D01*
X123142342Y-103791001D01*
X123189974Y-103732962D01*
X123260546Y-103600932D01*
X123263843Y-103590063D01*
X123303987Y-103457724D01*
X123358937Y-103402774D01*
X123472205Y-103233256D01*
X123550226Y-103044898D01*
X123590000Y-102844939D01*
X123590000Y-102641061D01*
X123550226Y-102441102D01*
X123475969Y-102261832D01*
X123991803Y-101746000D01*
X124053939Y-101746000D01*
X124253898Y-101706226D01*
X124442256Y-101628205D01*
X124591000Y-101528817D01*
X124591001Y-104988526D01*
G04 #@! TD*
M02*
