M48
; DRILL file {KiCad (5.1.12)-1} date 12/15/21 05:31:56
; FORMAT={-:-/ absolute / inch / decimal}
; #@! TF.CreationDate,2021-12-15T05:31:56+03:00
; #@! TF.GenerationSoftware,Kicad,Pcbnew,(5.1.12)-1
; #@! TF.FileFunction,Plated,1,2,PTH
FMAT,2
INCH
T1C0.0079
T2C0.0157
T3C0.0315
T4C0.0394
%
G90
G05
T1
X4.9959Y-3.4969
X4.9959Y-3.553
X4.9959Y-3.6091
X5.052Y-3.4969
X5.052Y-3.553
X5.052Y-3.6091
X5.1081Y-3.4969
X5.1081Y-3.553
X5.1081Y-3.6091
T2
X4.53Y-2.45
X4.53Y-5.885
X4.6159Y-4.55
X4.6175Y-3.84
X4.62Y-4.72
X4.6223Y-3.42
X4.63Y-5.61
X4.6325Y-4.01
X4.6788Y-4.2988
X4.68Y-4.95
X4.6898Y-4.65
X4.6967Y-4.2015
X4.7085Y-4.55
X4.72Y-5.825
X4.7313Y-4.3965
X4.7552Y-3.5727
X4.76Y-5.28
X4.7623Y-4.1352
X4.7787Y-5.5977
X4.8Y-4.91
X4.8013Y-5.3791
X4.81Y-5.67
X4.82Y-4.2
X4.8215Y-5.3448
X4.8283Y-3.7723
X4.83Y-3.63
X4.84Y-4.34
X4.87Y-3.29
X4.88Y-3.09
X4.88Y-5.04
X4.92Y-3.42
X4.92Y-4.18
X4.9215Y-3.584
X4.9261Y-3.9409
X4.9265Y-3.6416
X4.94Y-3.87
X4.9475Y-3.7625
X4.96Y-3.46
X4.99Y-5.23
X5.0211Y-3.9804
X5.04Y-4.64
X5.08Y-3.8678
X5.0885Y-3.32
X5.09Y-3.09
X5.2Y-3.44
X5.22Y-4.83
X5.27Y-2.89
X5.28Y-3.14
X5.31Y-3.5
X5.32Y-3.08
X5.3355Y-2.9603
X5.3387Y-4.3387
X5.37Y-3.33
X5.4Y-4.69
X5.41Y-2.9
X5.465Y-4.295
X5.47Y-3.28
X5.51Y-2.91
X5.514Y-5.885
X5.515Y-2.45
X5.534Y-3.01
T3
X4.57Y-2.64
X4.57Y-2.7187
X4.57Y-2.7975
X4.57Y-2.8762
X4.67Y-2.64
X4.67Y-2.7187
X4.67Y-2.7975
X4.67Y-2.8762
X4.75Y-3.8613
X4.75Y-3.94
X4.77Y-2.64
X4.77Y-2.7187
X4.77Y-2.7975
X4.77Y-2.8762
X5.4Y-4.5013
X5.4Y-4.58
X5.44Y-3.5513
X5.44Y-3.63
T4
X4.499Y-3.265
X4.499Y-3.365
X4.499Y-3.465
X4.499Y-3.565
X4.499Y-3.665
X4.499Y-3.765
X4.499Y-3.865
X4.499Y-3.965
X4.499Y-4.065
X4.499Y-4.165
X4.499Y-4.265
X4.499Y-4.365
X4.499Y-4.465
X4.499Y-4.565
X4.499Y-4.665
X4.499Y-4.765
X4.499Y-4.865
X4.499Y-4.965
X4.499Y-5.065
X4.499Y-5.165
X4.96Y-2.46
X4.96Y-2.56
X4.96Y-2.66
X4.96Y-2.76
X5.08Y-2.46
X5.08Y-2.56
X5.08Y-2.66
X5.08Y-2.76
X5.28Y-2.46
X5.28Y-2.56
X5.28Y-2.66
X5.28Y-2.76
X5.38Y-2.46
X5.38Y-2.56
X5.38Y-2.66
X5.38Y-2.76
X5.5502Y-3.2653
X5.5502Y-3.3653
X5.5502Y-3.465
X5.5502Y-3.565
X5.5502Y-3.6653
X5.5502Y-3.765
X5.5502Y-3.865
X5.5502Y-3.965
X5.5502Y-4.065
X5.5502Y-4.165
X5.5502Y-4.265
X5.5502Y-4.365
X5.5502Y-4.465
X5.5502Y-4.5653
X5.5502Y-4.6653
X5.5502Y-4.765
X5.5502Y-4.865
X5.5502Y-4.9653
X5.5502Y-5.0653
X5.5502Y-5.165
T0
M30
