G04 #@! TF.GenerationSoftware,KiCad,Pcbnew,(5.0.1-3-g963ef8bb5)*
G04 #@! TF.CreationDate,2020-07-04T09:07:15+03:00*
G04 #@! TF.ProjectId,sagitta-shield,736167697474612D736869656C642E6B,rev?*
G04 #@! TF.SameCoordinates,Original*
G04 #@! TF.FileFunction,Soldermask,Bot*
G04 #@! TF.FilePolarity,Negative*
%FSLAX46Y46*%
G04 Gerber Fmt 4.6, Leading zero omitted, Abs format (unit mm)*
G04 Created by KiCad (PCBNEW (5.0.1-3-g963ef8bb5)) date 2020 July 04, Saturday 09:07:15*
%MOMM*%
%LPD*%
G01*
G04 APERTURE LIST*
%ADD10C,0.100000*%
G04 APERTURE END LIST*
D10*
G36*
X141819070Y-131982600D02*
X140017070Y-131982600D01*
X140017070Y-130180600D01*
X141819070Y-130180600D01*
X141819070Y-131982600D01*
X141819070Y-131982600D01*
G37*
G36*
X115119200Y-131982600D02*
X113317200Y-131982600D01*
X113317200Y-130180600D01*
X115119200Y-130180600D01*
X115119200Y-131982600D01*
X115119200Y-131982600D01*
G37*
G36*
X141028513Y-127653611D02*
X141094697Y-127660129D01*
X141207923Y-127694476D01*
X141264537Y-127711649D01*
X141403157Y-127785744D01*
X141421061Y-127795314D01*
X141456799Y-127824644D01*
X141558256Y-127907906D01*
X141641518Y-128009363D01*
X141670848Y-128045101D01*
X141670849Y-128045103D01*
X141754513Y-128201625D01*
X141754513Y-128201626D01*
X141806033Y-128371465D01*
X141823429Y-128548092D01*
X141806033Y-128724719D01*
X141771686Y-128837945D01*
X141754513Y-128894559D01*
X141680418Y-129033179D01*
X141670848Y-129051083D01*
X141641518Y-129086821D01*
X141558256Y-129188278D01*
X141456799Y-129271540D01*
X141421061Y-129300870D01*
X141421059Y-129300871D01*
X141264537Y-129384535D01*
X141207923Y-129401708D01*
X141094697Y-129436055D01*
X141028512Y-129442574D01*
X140962330Y-129449092D01*
X140873810Y-129449092D01*
X140807628Y-129442574D01*
X140741443Y-129436055D01*
X140628217Y-129401708D01*
X140571603Y-129384535D01*
X140415081Y-129300871D01*
X140415079Y-129300870D01*
X140379341Y-129271540D01*
X140277884Y-129188278D01*
X140194622Y-129086821D01*
X140165292Y-129051083D01*
X140155722Y-129033179D01*
X140081627Y-128894559D01*
X140064454Y-128837945D01*
X140030107Y-128724719D01*
X140012711Y-128548092D01*
X140030107Y-128371465D01*
X140081627Y-128201626D01*
X140081627Y-128201625D01*
X140165291Y-128045103D01*
X140165292Y-128045101D01*
X140194622Y-128009363D01*
X140277884Y-127907906D01*
X140379341Y-127824644D01*
X140415079Y-127795314D01*
X140432983Y-127785744D01*
X140571603Y-127711649D01*
X140628217Y-127694476D01*
X140741443Y-127660129D01*
X140807627Y-127653611D01*
X140873810Y-127647092D01*
X140962330Y-127647092D01*
X141028513Y-127653611D01*
X141028513Y-127653611D01*
G37*
G36*
X114328373Y-127647092D02*
X114394827Y-127653637D01*
X114508053Y-127687984D01*
X114564667Y-127705157D01*
X114576812Y-127711649D01*
X114721191Y-127788822D01*
X114729100Y-127795313D01*
X114858386Y-127901414D01*
X114941648Y-128002871D01*
X114970978Y-128038609D01*
X114970979Y-128038611D01*
X115054643Y-128195133D01*
X115071816Y-128251747D01*
X115106163Y-128364973D01*
X115123559Y-128541600D01*
X115106163Y-128718227D01*
X115071816Y-128831453D01*
X115054643Y-128888067D01*
X114980548Y-129026687D01*
X114970978Y-129044591D01*
X114965650Y-129051083D01*
X114858386Y-129181786D01*
X114756929Y-129265048D01*
X114721191Y-129294378D01*
X114721189Y-129294379D01*
X114564667Y-129378043D01*
X114543265Y-129384535D01*
X114394827Y-129429563D01*
X114328912Y-129436055D01*
X114262460Y-129442600D01*
X114173940Y-129442600D01*
X114107488Y-129436055D01*
X114041573Y-129429563D01*
X113893135Y-129384535D01*
X113871733Y-129378043D01*
X113715211Y-129294379D01*
X113715209Y-129294378D01*
X113679471Y-129265048D01*
X113578014Y-129181786D01*
X113470750Y-129051083D01*
X113465422Y-129044591D01*
X113455852Y-129026687D01*
X113381757Y-128888067D01*
X113364584Y-128831453D01*
X113330237Y-128718227D01*
X113312841Y-128541600D01*
X113330237Y-128364973D01*
X113364584Y-128251747D01*
X113381757Y-128195133D01*
X113465421Y-128038611D01*
X113465422Y-128038609D01*
X113494752Y-128002871D01*
X113578014Y-127901414D01*
X113707300Y-127795313D01*
X113715209Y-127788822D01*
X113859588Y-127711649D01*
X113871733Y-127705157D01*
X113928347Y-127687984D01*
X114041573Y-127653637D01*
X114108027Y-127647092D01*
X114173940Y-127640600D01*
X114262460Y-127640600D01*
X114328373Y-127647092D01*
X114328373Y-127647092D01*
G37*
G36*
X141028512Y-125113610D02*
X141094697Y-125120129D01*
X141207923Y-125154476D01*
X141264537Y-125171649D01*
X141403157Y-125245744D01*
X141421061Y-125255314D01*
X141456799Y-125284644D01*
X141558256Y-125367906D01*
X141641518Y-125469363D01*
X141670848Y-125505101D01*
X141670849Y-125505103D01*
X141754513Y-125661625D01*
X141754513Y-125661626D01*
X141806033Y-125831465D01*
X141823429Y-126008092D01*
X141806033Y-126184719D01*
X141771686Y-126297945D01*
X141754513Y-126354559D01*
X141680418Y-126493179D01*
X141670848Y-126511083D01*
X141641518Y-126546821D01*
X141558256Y-126648278D01*
X141456799Y-126731540D01*
X141421061Y-126760870D01*
X141421059Y-126760871D01*
X141264537Y-126844535D01*
X141207923Y-126861708D01*
X141094697Y-126896055D01*
X141028512Y-126902574D01*
X140962330Y-126909092D01*
X140873810Y-126909092D01*
X140807628Y-126902574D01*
X140741443Y-126896055D01*
X140628217Y-126861708D01*
X140571603Y-126844535D01*
X140415081Y-126760871D01*
X140415079Y-126760870D01*
X140379341Y-126731540D01*
X140277884Y-126648278D01*
X140194622Y-126546821D01*
X140165292Y-126511083D01*
X140155722Y-126493179D01*
X140081627Y-126354559D01*
X140064454Y-126297945D01*
X140030107Y-126184719D01*
X140012711Y-126008092D01*
X140030107Y-125831465D01*
X140081627Y-125661626D01*
X140081627Y-125661625D01*
X140165291Y-125505103D01*
X140165292Y-125505101D01*
X140194622Y-125469363D01*
X140277884Y-125367906D01*
X140379341Y-125284644D01*
X140415079Y-125255314D01*
X140432983Y-125245744D01*
X140571603Y-125171649D01*
X140628217Y-125154476D01*
X140741443Y-125120129D01*
X140807628Y-125113610D01*
X140873810Y-125107092D01*
X140962330Y-125107092D01*
X141028512Y-125113610D01*
X141028512Y-125113610D01*
G37*
G36*
X114328373Y-125107092D02*
X114394827Y-125113637D01*
X114508053Y-125147984D01*
X114564667Y-125165157D01*
X114576812Y-125171649D01*
X114721191Y-125248822D01*
X114729100Y-125255313D01*
X114858386Y-125361414D01*
X114941648Y-125462871D01*
X114970978Y-125498609D01*
X114970979Y-125498611D01*
X115054643Y-125655133D01*
X115071816Y-125711747D01*
X115106163Y-125824973D01*
X115123559Y-126001600D01*
X115106163Y-126178227D01*
X115071816Y-126291453D01*
X115054643Y-126348067D01*
X114980548Y-126486687D01*
X114970978Y-126504591D01*
X114965650Y-126511083D01*
X114858386Y-126641786D01*
X114756929Y-126725048D01*
X114721191Y-126754378D01*
X114721189Y-126754379D01*
X114564667Y-126838043D01*
X114543265Y-126844535D01*
X114394827Y-126889563D01*
X114328912Y-126896055D01*
X114262460Y-126902600D01*
X114173940Y-126902600D01*
X114107488Y-126896055D01*
X114041573Y-126889563D01*
X113893135Y-126844535D01*
X113871733Y-126838043D01*
X113715211Y-126754379D01*
X113715209Y-126754378D01*
X113679471Y-126725048D01*
X113578014Y-126641786D01*
X113470750Y-126511083D01*
X113465422Y-126504591D01*
X113455852Y-126486687D01*
X113381757Y-126348067D01*
X113364584Y-126291453D01*
X113330237Y-126178227D01*
X113312841Y-126001600D01*
X113330237Y-125824973D01*
X113364584Y-125711747D01*
X113381757Y-125655133D01*
X113465421Y-125498611D01*
X113465422Y-125498609D01*
X113494752Y-125462871D01*
X113578014Y-125361414D01*
X113707300Y-125255313D01*
X113715209Y-125248822D01*
X113859588Y-125171649D01*
X113871733Y-125165157D01*
X113928347Y-125147984D01*
X114041573Y-125113637D01*
X114108027Y-125107092D01*
X114173940Y-125100600D01*
X114262460Y-125100600D01*
X114328373Y-125107092D01*
X114328373Y-125107092D01*
G37*
G36*
X141028513Y-122567119D02*
X141094697Y-122573637D01*
X141207923Y-122607984D01*
X141264537Y-122625157D01*
X141403157Y-122699252D01*
X141421061Y-122708822D01*
X141456799Y-122738152D01*
X141558256Y-122821414D01*
X141641518Y-122922871D01*
X141670848Y-122958609D01*
X141670849Y-122958611D01*
X141754513Y-123115133D01*
X141754513Y-123115134D01*
X141806033Y-123284973D01*
X141823429Y-123461600D01*
X141806033Y-123638227D01*
X141771686Y-123751453D01*
X141754513Y-123808067D01*
X141680418Y-123946687D01*
X141670848Y-123964591D01*
X141641518Y-124000329D01*
X141558256Y-124101786D01*
X141456799Y-124185048D01*
X141421061Y-124214378D01*
X141421059Y-124214379D01*
X141264537Y-124298043D01*
X141207923Y-124315216D01*
X141094697Y-124349563D01*
X141028513Y-124356081D01*
X140962330Y-124362600D01*
X140873810Y-124362600D01*
X140807627Y-124356081D01*
X140741443Y-124349563D01*
X140628217Y-124315216D01*
X140571603Y-124298043D01*
X140415081Y-124214379D01*
X140415079Y-124214378D01*
X140379341Y-124185048D01*
X140277884Y-124101786D01*
X140194622Y-124000329D01*
X140165292Y-123964591D01*
X140155722Y-123946687D01*
X140081627Y-123808067D01*
X140064454Y-123751453D01*
X140030107Y-123638227D01*
X140012711Y-123461600D01*
X140030107Y-123284973D01*
X140081627Y-123115134D01*
X140081627Y-123115133D01*
X140165291Y-122958611D01*
X140165292Y-122958609D01*
X140194622Y-122922871D01*
X140277884Y-122821414D01*
X140379341Y-122738152D01*
X140415079Y-122708822D01*
X140432983Y-122699252D01*
X140571603Y-122625157D01*
X140628217Y-122607984D01*
X140741443Y-122573637D01*
X140807627Y-122567119D01*
X140873810Y-122560600D01*
X140962330Y-122560600D01*
X141028513Y-122567119D01*
X141028513Y-122567119D01*
G37*
G36*
X114328643Y-122567119D02*
X114394827Y-122573637D01*
X114508053Y-122607984D01*
X114564667Y-122625157D01*
X114703287Y-122699252D01*
X114721191Y-122708822D01*
X114756929Y-122738152D01*
X114858386Y-122821414D01*
X114941648Y-122922871D01*
X114970978Y-122958609D01*
X114970979Y-122958611D01*
X115054643Y-123115133D01*
X115054643Y-123115134D01*
X115106163Y-123284973D01*
X115123559Y-123461600D01*
X115106163Y-123638227D01*
X115071816Y-123751453D01*
X115054643Y-123808067D01*
X114980548Y-123946687D01*
X114970978Y-123964591D01*
X114941648Y-124000329D01*
X114858386Y-124101786D01*
X114756929Y-124185048D01*
X114721191Y-124214378D01*
X114721189Y-124214379D01*
X114564667Y-124298043D01*
X114508053Y-124315216D01*
X114394827Y-124349563D01*
X114328643Y-124356081D01*
X114262460Y-124362600D01*
X114173940Y-124362600D01*
X114107757Y-124356081D01*
X114041573Y-124349563D01*
X113928347Y-124315216D01*
X113871733Y-124298043D01*
X113715211Y-124214379D01*
X113715209Y-124214378D01*
X113679471Y-124185048D01*
X113578014Y-124101786D01*
X113494752Y-124000329D01*
X113465422Y-123964591D01*
X113455852Y-123946687D01*
X113381757Y-123808067D01*
X113364584Y-123751453D01*
X113330237Y-123638227D01*
X113312841Y-123461600D01*
X113330237Y-123284973D01*
X113381757Y-123115134D01*
X113381757Y-123115133D01*
X113465421Y-122958611D01*
X113465422Y-122958609D01*
X113494752Y-122922871D01*
X113578014Y-122821414D01*
X113679471Y-122738152D01*
X113715209Y-122708822D01*
X113733113Y-122699252D01*
X113871733Y-122625157D01*
X113928347Y-122607984D01*
X114041573Y-122573637D01*
X114107757Y-122567119D01*
X114173940Y-122560600D01*
X114262460Y-122560600D01*
X114328643Y-122567119D01*
X114328643Y-122567119D01*
G37*
G36*
X141028512Y-120027118D02*
X141094697Y-120033637D01*
X141207923Y-120067984D01*
X141264537Y-120085157D01*
X141403157Y-120159252D01*
X141421061Y-120168822D01*
X141456799Y-120198152D01*
X141558256Y-120281414D01*
X141641518Y-120382871D01*
X141670848Y-120418609D01*
X141670849Y-120418611D01*
X141754513Y-120575133D01*
X141754513Y-120575134D01*
X141806033Y-120744973D01*
X141823429Y-120921600D01*
X141806033Y-121098227D01*
X141771686Y-121211453D01*
X141754513Y-121268067D01*
X141680418Y-121406687D01*
X141670848Y-121424591D01*
X141641518Y-121460329D01*
X141558256Y-121561786D01*
X141456799Y-121645048D01*
X141421061Y-121674378D01*
X141421059Y-121674379D01*
X141264537Y-121758043D01*
X141207923Y-121775216D01*
X141094697Y-121809563D01*
X141028512Y-121816082D01*
X140962330Y-121822600D01*
X140873810Y-121822600D01*
X140807628Y-121816082D01*
X140741443Y-121809563D01*
X140628217Y-121775216D01*
X140571603Y-121758043D01*
X140415081Y-121674379D01*
X140415079Y-121674378D01*
X140379341Y-121645048D01*
X140277884Y-121561786D01*
X140194622Y-121460329D01*
X140165292Y-121424591D01*
X140155722Y-121406687D01*
X140081627Y-121268067D01*
X140064454Y-121211453D01*
X140030107Y-121098227D01*
X140012711Y-120921600D01*
X140030107Y-120744973D01*
X140081627Y-120575134D01*
X140081627Y-120575133D01*
X140165291Y-120418611D01*
X140165292Y-120418609D01*
X140194622Y-120382871D01*
X140277884Y-120281414D01*
X140379341Y-120198152D01*
X140415079Y-120168822D01*
X140432983Y-120159252D01*
X140571603Y-120085157D01*
X140628217Y-120067984D01*
X140741443Y-120033637D01*
X140807628Y-120027118D01*
X140873810Y-120020600D01*
X140962330Y-120020600D01*
X141028512Y-120027118D01*
X141028512Y-120027118D01*
G37*
G36*
X114328642Y-120027118D02*
X114394827Y-120033637D01*
X114508053Y-120067984D01*
X114564667Y-120085157D01*
X114703287Y-120159252D01*
X114721191Y-120168822D01*
X114756929Y-120198152D01*
X114858386Y-120281414D01*
X114941648Y-120382871D01*
X114970978Y-120418609D01*
X114970979Y-120418611D01*
X115054643Y-120575133D01*
X115054643Y-120575134D01*
X115106163Y-120744973D01*
X115123559Y-120921600D01*
X115106163Y-121098227D01*
X115071816Y-121211453D01*
X115054643Y-121268067D01*
X114980548Y-121406687D01*
X114970978Y-121424591D01*
X114941648Y-121460329D01*
X114858386Y-121561786D01*
X114756929Y-121645048D01*
X114721191Y-121674378D01*
X114721189Y-121674379D01*
X114564667Y-121758043D01*
X114508053Y-121775216D01*
X114394827Y-121809563D01*
X114328642Y-121816082D01*
X114262460Y-121822600D01*
X114173940Y-121822600D01*
X114107758Y-121816082D01*
X114041573Y-121809563D01*
X113928347Y-121775216D01*
X113871733Y-121758043D01*
X113715211Y-121674379D01*
X113715209Y-121674378D01*
X113679471Y-121645048D01*
X113578014Y-121561786D01*
X113494752Y-121460329D01*
X113465422Y-121424591D01*
X113455852Y-121406687D01*
X113381757Y-121268067D01*
X113364584Y-121211453D01*
X113330237Y-121098227D01*
X113312841Y-120921600D01*
X113330237Y-120744973D01*
X113381757Y-120575134D01*
X113381757Y-120575133D01*
X113465421Y-120418611D01*
X113465422Y-120418609D01*
X113494752Y-120382871D01*
X113578014Y-120281414D01*
X113679471Y-120198152D01*
X113715209Y-120168822D01*
X113733113Y-120159252D01*
X113871733Y-120085157D01*
X113928347Y-120067984D01*
X114041573Y-120033637D01*
X114107758Y-120027118D01*
X114173940Y-120020600D01*
X114262460Y-120020600D01*
X114328642Y-120027118D01*
X114328642Y-120027118D01*
G37*
G36*
X141028513Y-117493611D02*
X141094697Y-117500129D01*
X141207923Y-117534476D01*
X141264537Y-117551649D01*
X141403157Y-117625744D01*
X141421061Y-117635314D01*
X141456799Y-117664644D01*
X141558256Y-117747906D01*
X141641518Y-117849363D01*
X141670848Y-117885101D01*
X141670849Y-117885103D01*
X141754513Y-118041625D01*
X141754513Y-118041626D01*
X141806033Y-118211465D01*
X141823429Y-118388092D01*
X141806033Y-118564719D01*
X141771686Y-118677945D01*
X141754513Y-118734559D01*
X141680418Y-118873179D01*
X141670848Y-118891083D01*
X141641518Y-118926821D01*
X141558256Y-119028278D01*
X141456799Y-119111540D01*
X141421061Y-119140870D01*
X141421059Y-119140871D01*
X141264537Y-119224535D01*
X141207923Y-119241708D01*
X141094697Y-119276055D01*
X141028512Y-119282574D01*
X140962330Y-119289092D01*
X140873810Y-119289092D01*
X140807628Y-119282574D01*
X140741443Y-119276055D01*
X140628217Y-119241708D01*
X140571603Y-119224535D01*
X140415081Y-119140871D01*
X140415079Y-119140870D01*
X140379341Y-119111540D01*
X140277884Y-119028278D01*
X140194622Y-118926821D01*
X140165292Y-118891083D01*
X140155722Y-118873179D01*
X140081627Y-118734559D01*
X140064454Y-118677945D01*
X140030107Y-118564719D01*
X140012711Y-118388092D01*
X140030107Y-118211465D01*
X140081627Y-118041626D01*
X140081627Y-118041625D01*
X140165291Y-117885103D01*
X140165292Y-117885101D01*
X140194622Y-117849363D01*
X140277884Y-117747906D01*
X140379341Y-117664644D01*
X140415079Y-117635314D01*
X140432983Y-117625744D01*
X140571603Y-117551649D01*
X140628217Y-117534476D01*
X140741443Y-117500129D01*
X140807627Y-117493611D01*
X140873810Y-117487092D01*
X140962330Y-117487092D01*
X141028513Y-117493611D01*
X141028513Y-117493611D01*
G37*
G36*
X114328373Y-117487092D02*
X114394827Y-117493637D01*
X114508053Y-117527984D01*
X114564667Y-117545157D01*
X114576812Y-117551649D01*
X114721191Y-117628822D01*
X114729100Y-117635313D01*
X114858386Y-117741414D01*
X114941648Y-117842871D01*
X114970978Y-117878609D01*
X114970979Y-117878611D01*
X115054643Y-118035133D01*
X115071816Y-118091747D01*
X115106163Y-118204973D01*
X115123559Y-118381600D01*
X115106163Y-118558227D01*
X115071816Y-118671453D01*
X115054643Y-118728067D01*
X114980548Y-118866687D01*
X114970978Y-118884591D01*
X114965650Y-118891083D01*
X114858386Y-119021786D01*
X114756929Y-119105048D01*
X114721191Y-119134378D01*
X114721189Y-119134379D01*
X114564667Y-119218043D01*
X114543265Y-119224535D01*
X114394827Y-119269563D01*
X114328912Y-119276055D01*
X114262460Y-119282600D01*
X114173940Y-119282600D01*
X114107488Y-119276055D01*
X114041573Y-119269563D01*
X113893135Y-119224535D01*
X113871733Y-119218043D01*
X113715211Y-119134379D01*
X113715209Y-119134378D01*
X113679471Y-119105048D01*
X113578014Y-119021786D01*
X113470750Y-118891083D01*
X113465422Y-118884591D01*
X113455852Y-118866687D01*
X113381757Y-118728067D01*
X113364584Y-118671453D01*
X113330237Y-118558227D01*
X113312841Y-118381600D01*
X113330237Y-118204973D01*
X113364584Y-118091747D01*
X113381757Y-118035133D01*
X113465421Y-117878611D01*
X113465422Y-117878609D01*
X113494752Y-117842871D01*
X113578014Y-117741414D01*
X113707300Y-117635313D01*
X113715209Y-117628822D01*
X113859588Y-117551649D01*
X113871733Y-117545157D01*
X113928347Y-117527984D01*
X114041573Y-117493637D01*
X114108027Y-117487092D01*
X114173940Y-117480600D01*
X114262460Y-117480600D01*
X114328373Y-117487092D01*
X114328373Y-117487092D01*
G37*
G36*
X137268015Y-114518973D02*
X137371879Y-114550479D01*
X137467600Y-114601644D01*
X137551501Y-114670499D01*
X137620356Y-114754400D01*
X137671521Y-114850121D01*
X137703027Y-114953985D01*
X137713666Y-115062000D01*
X137703027Y-115170015D01*
X137671521Y-115273879D01*
X137620356Y-115369600D01*
X137551501Y-115453501D01*
X137467600Y-115522356D01*
X137423805Y-115545766D01*
X137403439Y-115559374D01*
X137386111Y-115576701D01*
X137372498Y-115597076D01*
X137363120Y-115619715D01*
X137358340Y-115643748D01*
X137358340Y-115668252D01*
X137363121Y-115692286D01*
X137372498Y-115714925D01*
X137386112Y-115735299D01*
X137403439Y-115752627D01*
X137423814Y-115766240D01*
X137446453Y-115775618D01*
X137482738Y-115781000D01*
X137711000Y-115781000D01*
X137711000Y-116883000D01*
X136609000Y-116883000D01*
X136609000Y-115781000D01*
X136837262Y-115781000D01*
X136861648Y-115778598D01*
X136885097Y-115771485D01*
X136906708Y-115759934D01*
X136925650Y-115744388D01*
X136941196Y-115725446D01*
X136952747Y-115703835D01*
X136959860Y-115680386D01*
X136962262Y-115656000D01*
X136959860Y-115631614D01*
X136952747Y-115608165D01*
X136941196Y-115586554D01*
X136925650Y-115567612D01*
X136896192Y-115545764D01*
X136852400Y-115522356D01*
X136768499Y-115453501D01*
X136699644Y-115369600D01*
X136648479Y-115273879D01*
X136616973Y-115170015D01*
X136606334Y-115062000D01*
X136616973Y-114953985D01*
X136648479Y-114850121D01*
X136699644Y-114754400D01*
X136768499Y-114670499D01*
X136852400Y-114601644D01*
X136948121Y-114550479D01*
X137051985Y-114518973D01*
X137132933Y-114511000D01*
X137187067Y-114511000D01*
X137268015Y-114518973D01*
X137268015Y-114518973D01*
G37*
G36*
X141028513Y-114953611D02*
X141094697Y-114960129D01*
X141207923Y-114994476D01*
X141264537Y-115011649D01*
X141403157Y-115085744D01*
X141421061Y-115095314D01*
X141456799Y-115124644D01*
X141558256Y-115207906D01*
X141641518Y-115309363D01*
X141670848Y-115345101D01*
X141670849Y-115345103D01*
X141754513Y-115501625D01*
X141767901Y-115545760D01*
X141806033Y-115671465D01*
X141823429Y-115848092D01*
X141806033Y-116024719D01*
X141771686Y-116137945D01*
X141754513Y-116194559D01*
X141680418Y-116333179D01*
X141670848Y-116351083D01*
X141641518Y-116386821D01*
X141558256Y-116488278D01*
X141456799Y-116571540D01*
X141421061Y-116600870D01*
X141421059Y-116600871D01*
X141264537Y-116684535D01*
X141207923Y-116701708D01*
X141094697Y-116736055D01*
X141028513Y-116742573D01*
X140962330Y-116749092D01*
X140873810Y-116749092D01*
X140807627Y-116742573D01*
X140741443Y-116736055D01*
X140628217Y-116701708D01*
X140571603Y-116684535D01*
X140415081Y-116600871D01*
X140415079Y-116600870D01*
X140379341Y-116571540D01*
X140277884Y-116488278D01*
X140194622Y-116386821D01*
X140165292Y-116351083D01*
X140155722Y-116333179D01*
X140081627Y-116194559D01*
X140064454Y-116137945D01*
X140030107Y-116024719D01*
X140012711Y-115848092D01*
X140030107Y-115671465D01*
X140068239Y-115545760D01*
X140081627Y-115501625D01*
X140165291Y-115345103D01*
X140165292Y-115345101D01*
X140194622Y-115309363D01*
X140277884Y-115207906D01*
X140379341Y-115124644D01*
X140415079Y-115095314D01*
X140432983Y-115085744D01*
X140571603Y-115011649D01*
X140628217Y-114994476D01*
X140741443Y-114960129D01*
X140807627Y-114953611D01*
X140873810Y-114947092D01*
X140962330Y-114947092D01*
X141028513Y-114953611D01*
X141028513Y-114953611D01*
G37*
G36*
X114328373Y-114947092D02*
X114394827Y-114953637D01*
X114508053Y-114987984D01*
X114564667Y-115005157D01*
X114576812Y-115011649D01*
X114721191Y-115088822D01*
X114729100Y-115095313D01*
X114858386Y-115201414D01*
X114941648Y-115302871D01*
X114970978Y-115338609D01*
X114970979Y-115338611D01*
X115054643Y-115495133D01*
X115062901Y-115522356D01*
X115106163Y-115664973D01*
X115123559Y-115841600D01*
X115106163Y-116018227D01*
X115071816Y-116131453D01*
X115054643Y-116188067D01*
X114980548Y-116326687D01*
X114970978Y-116344591D01*
X114965650Y-116351083D01*
X114858386Y-116481786D01*
X114756929Y-116565048D01*
X114721191Y-116594378D01*
X114721189Y-116594379D01*
X114564667Y-116678043D01*
X114543265Y-116684535D01*
X114394827Y-116729563D01*
X114328912Y-116736055D01*
X114262460Y-116742600D01*
X114173940Y-116742600D01*
X114107488Y-116736055D01*
X114041573Y-116729563D01*
X113893135Y-116684535D01*
X113871733Y-116678043D01*
X113715211Y-116594379D01*
X113715209Y-116594378D01*
X113679471Y-116565048D01*
X113578014Y-116481786D01*
X113470750Y-116351083D01*
X113465422Y-116344591D01*
X113455852Y-116326687D01*
X113381757Y-116188067D01*
X113364584Y-116131453D01*
X113330237Y-116018227D01*
X113312841Y-115841600D01*
X113330237Y-115664973D01*
X113373499Y-115522356D01*
X113381757Y-115495133D01*
X113465421Y-115338611D01*
X113465422Y-115338609D01*
X113494752Y-115302871D01*
X113578014Y-115201414D01*
X113707300Y-115095313D01*
X113715209Y-115088822D01*
X113859588Y-115011649D01*
X113871733Y-115005157D01*
X113928347Y-114987984D01*
X114041573Y-114953637D01*
X114108027Y-114947092D01*
X114173940Y-114940600D01*
X114262460Y-114940600D01*
X114328373Y-114947092D01*
X114328373Y-114947092D01*
G37*
G36*
X121901015Y-111851973D02*
X122004879Y-111883479D01*
X122100600Y-111934644D01*
X122184501Y-112003499D01*
X122253356Y-112087400D01*
X122304521Y-112183121D01*
X122336027Y-112286985D01*
X122346666Y-112395000D01*
X122336027Y-112503015D01*
X122304521Y-112606879D01*
X122253356Y-112702600D01*
X122184501Y-112786501D01*
X122100600Y-112855356D01*
X122056805Y-112878766D01*
X122036439Y-112892374D01*
X122019111Y-112909701D01*
X122005498Y-112930076D01*
X121996120Y-112952715D01*
X121991340Y-112976748D01*
X121991340Y-113001252D01*
X121996121Y-113025286D01*
X122005498Y-113047925D01*
X122019112Y-113068299D01*
X122036439Y-113085627D01*
X122056814Y-113099240D01*
X122079453Y-113108618D01*
X122115738Y-113114000D01*
X122344000Y-113114000D01*
X122344000Y-114216000D01*
X121242000Y-114216000D01*
X121242000Y-113114000D01*
X121470262Y-113114000D01*
X121494648Y-113111598D01*
X121518097Y-113104485D01*
X121539708Y-113092934D01*
X121558650Y-113077388D01*
X121574196Y-113058446D01*
X121585747Y-113036835D01*
X121592860Y-113013386D01*
X121595262Y-112989000D01*
X121592860Y-112964614D01*
X121585747Y-112941165D01*
X121574196Y-112919554D01*
X121558650Y-112900612D01*
X121529192Y-112878764D01*
X121485400Y-112855356D01*
X121401499Y-112786501D01*
X121332644Y-112702600D01*
X121281479Y-112606879D01*
X121249973Y-112503015D01*
X121239334Y-112395000D01*
X121249973Y-112286985D01*
X121281479Y-112183121D01*
X121332644Y-112087400D01*
X121401499Y-112003499D01*
X121485400Y-111934644D01*
X121581121Y-111883479D01*
X121684985Y-111851973D01*
X121765933Y-111844000D01*
X121820067Y-111844000D01*
X121901015Y-111851973D01*
X121901015Y-111851973D01*
G37*
G36*
X141028513Y-112407119D02*
X141094697Y-112413637D01*
X141207923Y-112447984D01*
X141264537Y-112465157D01*
X141335363Y-112503015D01*
X141421061Y-112548822D01*
X141456799Y-112578152D01*
X141558256Y-112661414D01*
X141641518Y-112762871D01*
X141670848Y-112798609D01*
X141670849Y-112798611D01*
X141754513Y-112955133D01*
X141754513Y-112955134D01*
X141806033Y-113124973D01*
X141823429Y-113301600D01*
X141806033Y-113478227D01*
X141771686Y-113591453D01*
X141754513Y-113648067D01*
X141680418Y-113786687D01*
X141670848Y-113804591D01*
X141641518Y-113840329D01*
X141558256Y-113941786D01*
X141456799Y-114025048D01*
X141421061Y-114054378D01*
X141421059Y-114054379D01*
X141264537Y-114138043D01*
X141207923Y-114155216D01*
X141094697Y-114189563D01*
X141028512Y-114196082D01*
X140962330Y-114202600D01*
X140873810Y-114202600D01*
X140807628Y-114196082D01*
X140741443Y-114189563D01*
X140628217Y-114155216D01*
X140571603Y-114138043D01*
X140415081Y-114054379D01*
X140415079Y-114054378D01*
X140379341Y-114025048D01*
X140277884Y-113941786D01*
X140194622Y-113840329D01*
X140165292Y-113804591D01*
X140155722Y-113786687D01*
X140081627Y-113648067D01*
X140064454Y-113591453D01*
X140030107Y-113478227D01*
X140012711Y-113301600D01*
X140030107Y-113124973D01*
X140081627Y-112955134D01*
X140081627Y-112955133D01*
X140165291Y-112798611D01*
X140165292Y-112798609D01*
X140194622Y-112762871D01*
X140277884Y-112661414D01*
X140379341Y-112578152D01*
X140415079Y-112548822D01*
X140500777Y-112503015D01*
X140571603Y-112465157D01*
X140628217Y-112447984D01*
X140741443Y-112413637D01*
X140807627Y-112407119D01*
X140873810Y-112400600D01*
X140962330Y-112400600D01*
X141028513Y-112407119D01*
X141028513Y-112407119D01*
G37*
G36*
X114328643Y-112407119D02*
X114394827Y-112413637D01*
X114508053Y-112447984D01*
X114564667Y-112465157D01*
X114635493Y-112503015D01*
X114721191Y-112548822D01*
X114756929Y-112578152D01*
X114858386Y-112661414D01*
X114941648Y-112762871D01*
X114970978Y-112798609D01*
X114970979Y-112798611D01*
X115054643Y-112955133D01*
X115054643Y-112955134D01*
X115106163Y-113124973D01*
X115123559Y-113301600D01*
X115106163Y-113478227D01*
X115071816Y-113591453D01*
X115054643Y-113648067D01*
X114980548Y-113786687D01*
X114970978Y-113804591D01*
X114941648Y-113840329D01*
X114858386Y-113941786D01*
X114756929Y-114025048D01*
X114721191Y-114054378D01*
X114721189Y-114054379D01*
X114564667Y-114138043D01*
X114508053Y-114155216D01*
X114394827Y-114189563D01*
X114328642Y-114196082D01*
X114262460Y-114202600D01*
X114173940Y-114202600D01*
X114107758Y-114196082D01*
X114041573Y-114189563D01*
X113928347Y-114155216D01*
X113871733Y-114138043D01*
X113715211Y-114054379D01*
X113715209Y-114054378D01*
X113679471Y-114025048D01*
X113578014Y-113941786D01*
X113494752Y-113840329D01*
X113465422Y-113804591D01*
X113455852Y-113786687D01*
X113381757Y-113648067D01*
X113364584Y-113591453D01*
X113330237Y-113478227D01*
X113312841Y-113301600D01*
X113330237Y-113124973D01*
X113381757Y-112955134D01*
X113381757Y-112955133D01*
X113465421Y-112798611D01*
X113465422Y-112798609D01*
X113494752Y-112762871D01*
X113578014Y-112661414D01*
X113679471Y-112578152D01*
X113715209Y-112548822D01*
X113800907Y-112503015D01*
X113871733Y-112465157D01*
X113928347Y-112447984D01*
X114041573Y-112413637D01*
X114107757Y-112407119D01*
X114173940Y-112400600D01*
X114262460Y-112400600D01*
X114328643Y-112407119D01*
X114328643Y-112407119D01*
G37*
G36*
X114328643Y-109867119D02*
X114394827Y-109873637D01*
X114508053Y-109907984D01*
X114564667Y-109925157D01*
X114690655Y-109992500D01*
X114721191Y-110008822D01*
X114756929Y-110038152D01*
X114858386Y-110121414D01*
X114941648Y-110222871D01*
X114970978Y-110258609D01*
X114970979Y-110258611D01*
X115054643Y-110415133D01*
X115054643Y-110415134D01*
X115106163Y-110584973D01*
X115123559Y-110761600D01*
X115106163Y-110938227D01*
X115071816Y-111051453D01*
X115054643Y-111108067D01*
X114980548Y-111246687D01*
X114970978Y-111264591D01*
X114941648Y-111300329D01*
X114858386Y-111401786D01*
X114756929Y-111485048D01*
X114721191Y-111514378D01*
X114721189Y-111514379D01*
X114564667Y-111598043D01*
X114508053Y-111615216D01*
X114394827Y-111649563D01*
X114328643Y-111656081D01*
X114262460Y-111662600D01*
X114173940Y-111662600D01*
X114107757Y-111656081D01*
X114041573Y-111649563D01*
X113928347Y-111615216D01*
X113871733Y-111598043D01*
X113715211Y-111514379D01*
X113715209Y-111514378D01*
X113679471Y-111485048D01*
X113578014Y-111401786D01*
X113494752Y-111300329D01*
X113465422Y-111264591D01*
X113455852Y-111246687D01*
X113381757Y-111108067D01*
X113364584Y-111051453D01*
X113330237Y-110938227D01*
X113312841Y-110761600D01*
X113330237Y-110584973D01*
X113381757Y-110415134D01*
X113381757Y-110415133D01*
X113465421Y-110258611D01*
X113465422Y-110258609D01*
X113494752Y-110222871D01*
X113578014Y-110121414D01*
X113679471Y-110038152D01*
X113715209Y-110008822D01*
X113745745Y-109992500D01*
X113871733Y-109925157D01*
X113928347Y-109907984D01*
X114041573Y-109873637D01*
X114107757Y-109867119D01*
X114173940Y-109860600D01*
X114262460Y-109860600D01*
X114328643Y-109867119D01*
X114328643Y-109867119D01*
G37*
G36*
X141028513Y-109867119D02*
X141094697Y-109873637D01*
X141207923Y-109907984D01*
X141264537Y-109925157D01*
X141390525Y-109992500D01*
X141421061Y-110008822D01*
X141456799Y-110038152D01*
X141558256Y-110121414D01*
X141641518Y-110222871D01*
X141670848Y-110258609D01*
X141670849Y-110258611D01*
X141754513Y-110415133D01*
X141754513Y-110415134D01*
X141806033Y-110584973D01*
X141823429Y-110761600D01*
X141806033Y-110938227D01*
X141771686Y-111051453D01*
X141754513Y-111108067D01*
X141680418Y-111246687D01*
X141670848Y-111264591D01*
X141641518Y-111300329D01*
X141558256Y-111401786D01*
X141456799Y-111485048D01*
X141421061Y-111514378D01*
X141421059Y-111514379D01*
X141264537Y-111598043D01*
X141207923Y-111615216D01*
X141094697Y-111649563D01*
X141028513Y-111656081D01*
X140962330Y-111662600D01*
X140873810Y-111662600D01*
X140807627Y-111656081D01*
X140741443Y-111649563D01*
X140628217Y-111615216D01*
X140571603Y-111598043D01*
X140415081Y-111514379D01*
X140415079Y-111514378D01*
X140379341Y-111485048D01*
X140277884Y-111401786D01*
X140194622Y-111300329D01*
X140165292Y-111264591D01*
X140155722Y-111246687D01*
X140081627Y-111108067D01*
X140064454Y-111051453D01*
X140030107Y-110938227D01*
X140012711Y-110761600D01*
X140030107Y-110584973D01*
X140081627Y-110415134D01*
X140081627Y-110415133D01*
X140165291Y-110258611D01*
X140165292Y-110258609D01*
X140194622Y-110222871D01*
X140277884Y-110121414D01*
X140379341Y-110038152D01*
X140415079Y-110008822D01*
X140445615Y-109992500D01*
X140571603Y-109925157D01*
X140628217Y-109907984D01*
X140741443Y-109873637D01*
X140807627Y-109867119D01*
X140873810Y-109860600D01*
X140962330Y-109860600D01*
X141028513Y-109867119D01*
X141028513Y-109867119D01*
G37*
G36*
X122344000Y-107612000D02*
X122115738Y-107612000D01*
X122091352Y-107614402D01*
X122067903Y-107621515D01*
X122046292Y-107633066D01*
X122027350Y-107648612D01*
X122011804Y-107667554D01*
X122000253Y-107689165D01*
X121993140Y-107712614D01*
X121990738Y-107737000D01*
X121993140Y-107761386D01*
X122000253Y-107784835D01*
X122011804Y-107806446D01*
X122027350Y-107825388D01*
X122056808Y-107847236D01*
X122100600Y-107870644D01*
X122184501Y-107939499D01*
X122253356Y-108023400D01*
X122304521Y-108119121D01*
X122336027Y-108222985D01*
X122346666Y-108331000D01*
X122336027Y-108439015D01*
X122304521Y-108542879D01*
X122253356Y-108638600D01*
X122184501Y-108722501D01*
X122100600Y-108791356D01*
X122004879Y-108842521D01*
X121992142Y-108846385D01*
X121969507Y-108855760D01*
X121949133Y-108869374D01*
X121931806Y-108886701D01*
X121918192Y-108907076D01*
X121908814Y-108929715D01*
X121904034Y-108953748D01*
X121904034Y-108978252D01*
X121908815Y-109002286D01*
X121918192Y-109024925D01*
X121931806Y-109045299D01*
X121949133Y-109062626D01*
X121969508Y-109076240D01*
X121992142Y-109085615D01*
X122004879Y-109089479D01*
X122100600Y-109140644D01*
X122184501Y-109209499D01*
X122253356Y-109293400D01*
X122304521Y-109389121D01*
X122336027Y-109492985D01*
X122346666Y-109601000D01*
X122336027Y-109709015D01*
X122304521Y-109812879D01*
X122253356Y-109908600D01*
X122184501Y-109992501D01*
X122100600Y-110061356D01*
X122004879Y-110112521D01*
X121901015Y-110144027D01*
X121820067Y-110152000D01*
X121765933Y-110152000D01*
X121684985Y-110144027D01*
X121581121Y-110112521D01*
X121485400Y-110061356D01*
X121401499Y-109992501D01*
X121332644Y-109908600D01*
X121281479Y-109812879D01*
X121249973Y-109709015D01*
X121239334Y-109601000D01*
X121249973Y-109492985D01*
X121281479Y-109389121D01*
X121332644Y-109293400D01*
X121401499Y-109209499D01*
X121485400Y-109140644D01*
X121581121Y-109089479D01*
X121593858Y-109085615D01*
X121616493Y-109076240D01*
X121636867Y-109062626D01*
X121654194Y-109045299D01*
X121667808Y-109024924D01*
X121677186Y-109002285D01*
X121681966Y-108978252D01*
X121681966Y-108953748D01*
X121677185Y-108929714D01*
X121667808Y-108907075D01*
X121654194Y-108886701D01*
X121636867Y-108869374D01*
X121616492Y-108855760D01*
X121593858Y-108846385D01*
X121581121Y-108842521D01*
X121485400Y-108791356D01*
X121401499Y-108722501D01*
X121332644Y-108638600D01*
X121281479Y-108542879D01*
X121249973Y-108439015D01*
X121239334Y-108331000D01*
X121249973Y-108222985D01*
X121281479Y-108119121D01*
X121332644Y-108023400D01*
X121401499Y-107939499D01*
X121485400Y-107870644D01*
X121529195Y-107847234D01*
X121549561Y-107833626D01*
X121566889Y-107816299D01*
X121580502Y-107795924D01*
X121589880Y-107773285D01*
X121594660Y-107749252D01*
X121594660Y-107724748D01*
X121589879Y-107700714D01*
X121580502Y-107678075D01*
X121566888Y-107657701D01*
X121549561Y-107640373D01*
X121529186Y-107626760D01*
X121506547Y-107617382D01*
X121470262Y-107612000D01*
X121242000Y-107612000D01*
X121242000Y-106510000D01*
X122344000Y-106510000D01*
X122344000Y-107612000D01*
X122344000Y-107612000D01*
G37*
G36*
X132631000Y-107612000D02*
X132402738Y-107612000D01*
X132378352Y-107614402D01*
X132354903Y-107621515D01*
X132333292Y-107633066D01*
X132314350Y-107648612D01*
X132298804Y-107667554D01*
X132287253Y-107689165D01*
X132280140Y-107712614D01*
X132277738Y-107737000D01*
X132280140Y-107761386D01*
X132287253Y-107784835D01*
X132298804Y-107806446D01*
X132314350Y-107825388D01*
X132343808Y-107847236D01*
X132387600Y-107870644D01*
X132471501Y-107939499D01*
X132540356Y-108023400D01*
X132591521Y-108119121D01*
X132623027Y-108222985D01*
X132633666Y-108331000D01*
X132623027Y-108439015D01*
X132591521Y-108542879D01*
X132540356Y-108638600D01*
X132471501Y-108722501D01*
X132387600Y-108791356D01*
X132291879Y-108842521D01*
X132279142Y-108846385D01*
X132256507Y-108855760D01*
X132236133Y-108869374D01*
X132218806Y-108886701D01*
X132205192Y-108907076D01*
X132195814Y-108929715D01*
X132191034Y-108953748D01*
X132191034Y-108978252D01*
X132195815Y-109002286D01*
X132205192Y-109024925D01*
X132218806Y-109045299D01*
X132236133Y-109062626D01*
X132256508Y-109076240D01*
X132279142Y-109085615D01*
X132291879Y-109089479D01*
X132387600Y-109140644D01*
X132471501Y-109209499D01*
X132540356Y-109293400D01*
X132591521Y-109389121D01*
X132623027Y-109492985D01*
X132633666Y-109601000D01*
X132623027Y-109709015D01*
X132591521Y-109812879D01*
X132540356Y-109908600D01*
X132471501Y-109992501D01*
X132387600Y-110061356D01*
X132291879Y-110112521D01*
X132188015Y-110144027D01*
X132107067Y-110152000D01*
X132052933Y-110152000D01*
X131971985Y-110144027D01*
X131868121Y-110112521D01*
X131772400Y-110061356D01*
X131688499Y-109992501D01*
X131619644Y-109908600D01*
X131568479Y-109812879D01*
X131536973Y-109709015D01*
X131526334Y-109601000D01*
X131536973Y-109492985D01*
X131568479Y-109389121D01*
X131619644Y-109293400D01*
X131688499Y-109209499D01*
X131772400Y-109140644D01*
X131868121Y-109089479D01*
X131880858Y-109085615D01*
X131903493Y-109076240D01*
X131923867Y-109062626D01*
X131941194Y-109045299D01*
X131954808Y-109024924D01*
X131964186Y-109002285D01*
X131968966Y-108978252D01*
X131968966Y-108953748D01*
X131964185Y-108929714D01*
X131954808Y-108907075D01*
X131941194Y-108886701D01*
X131923867Y-108869374D01*
X131903492Y-108855760D01*
X131880858Y-108846385D01*
X131868121Y-108842521D01*
X131772400Y-108791356D01*
X131688499Y-108722501D01*
X131619644Y-108638600D01*
X131568479Y-108542879D01*
X131536973Y-108439015D01*
X131526334Y-108331000D01*
X131536973Y-108222985D01*
X131568479Y-108119121D01*
X131619644Y-108023400D01*
X131688499Y-107939499D01*
X131772400Y-107870644D01*
X131816195Y-107847234D01*
X131836561Y-107833626D01*
X131853889Y-107816299D01*
X131867502Y-107795924D01*
X131876880Y-107773285D01*
X131881660Y-107749252D01*
X131881660Y-107724748D01*
X131876879Y-107700714D01*
X131867502Y-107678075D01*
X131853888Y-107657701D01*
X131836561Y-107640373D01*
X131816186Y-107626760D01*
X131793547Y-107617382D01*
X131757262Y-107612000D01*
X131529000Y-107612000D01*
X131529000Y-106510000D01*
X132631000Y-106510000D01*
X132631000Y-107612000D01*
X132631000Y-107612000D01*
G37*
G36*
X114328642Y-107327118D02*
X114394827Y-107333637D01*
X114508053Y-107367984D01*
X114564667Y-107385157D01*
X114703287Y-107459252D01*
X114721191Y-107468822D01*
X114756929Y-107498152D01*
X114858386Y-107581414D01*
X114913533Y-107648612D01*
X114970978Y-107718609D01*
X114970979Y-107718611D01*
X115054643Y-107875133D01*
X115054643Y-107875134D01*
X115106163Y-108044973D01*
X115123559Y-108221600D01*
X115106163Y-108398227D01*
X115093790Y-108439015D01*
X115054643Y-108568067D01*
X115016942Y-108638600D01*
X114970978Y-108724591D01*
X114941648Y-108760329D01*
X114858386Y-108861786D01*
X114775614Y-108929714D01*
X114721191Y-108974378D01*
X114721189Y-108974379D01*
X114564667Y-109058043D01*
X114508053Y-109075216D01*
X114394827Y-109109563D01*
X114328643Y-109116081D01*
X114262460Y-109122600D01*
X114173940Y-109122600D01*
X114107757Y-109116081D01*
X114041573Y-109109563D01*
X113928347Y-109075216D01*
X113871733Y-109058043D01*
X113715211Y-108974379D01*
X113715209Y-108974378D01*
X113660786Y-108929714D01*
X113578014Y-108861786D01*
X113494752Y-108760329D01*
X113465422Y-108724591D01*
X113419458Y-108638600D01*
X113381757Y-108568067D01*
X113342610Y-108439015D01*
X113330237Y-108398227D01*
X113312841Y-108221600D01*
X113330237Y-108044973D01*
X113381757Y-107875134D01*
X113381757Y-107875133D01*
X113465421Y-107718611D01*
X113465422Y-107718609D01*
X113522867Y-107648612D01*
X113578014Y-107581414D01*
X113679471Y-107498152D01*
X113715209Y-107468822D01*
X113733113Y-107459252D01*
X113871733Y-107385157D01*
X113928347Y-107367984D01*
X114041573Y-107333637D01*
X114107758Y-107327118D01*
X114173940Y-107320600D01*
X114262460Y-107320600D01*
X114328642Y-107327118D01*
X114328642Y-107327118D01*
G37*
G36*
X141028512Y-107327118D02*
X141094697Y-107333637D01*
X141207923Y-107367984D01*
X141264537Y-107385157D01*
X141403157Y-107459252D01*
X141421061Y-107468822D01*
X141456799Y-107498152D01*
X141558256Y-107581414D01*
X141613403Y-107648612D01*
X141670848Y-107718609D01*
X141670849Y-107718611D01*
X141754513Y-107875133D01*
X141754513Y-107875134D01*
X141806033Y-108044973D01*
X141823429Y-108221600D01*
X141806033Y-108398227D01*
X141793660Y-108439015D01*
X141754513Y-108568067D01*
X141716812Y-108638600D01*
X141670848Y-108724591D01*
X141641518Y-108760329D01*
X141558256Y-108861786D01*
X141475484Y-108929714D01*
X141421061Y-108974378D01*
X141421059Y-108974379D01*
X141264537Y-109058043D01*
X141207923Y-109075216D01*
X141094697Y-109109563D01*
X141028513Y-109116081D01*
X140962330Y-109122600D01*
X140873810Y-109122600D01*
X140807627Y-109116081D01*
X140741443Y-109109563D01*
X140628217Y-109075216D01*
X140571603Y-109058043D01*
X140415081Y-108974379D01*
X140415079Y-108974378D01*
X140360656Y-108929714D01*
X140277884Y-108861786D01*
X140194622Y-108760329D01*
X140165292Y-108724591D01*
X140119328Y-108638600D01*
X140081627Y-108568067D01*
X140042480Y-108439015D01*
X140030107Y-108398227D01*
X140012711Y-108221600D01*
X140030107Y-108044973D01*
X140081627Y-107875134D01*
X140081627Y-107875133D01*
X140165291Y-107718611D01*
X140165292Y-107718609D01*
X140222737Y-107648612D01*
X140277884Y-107581414D01*
X140379341Y-107498152D01*
X140415079Y-107468822D01*
X140432983Y-107459252D01*
X140571603Y-107385157D01*
X140628217Y-107367984D01*
X140741443Y-107333637D01*
X140807628Y-107327118D01*
X140873810Y-107320600D01*
X140962330Y-107320600D01*
X141028512Y-107327118D01*
X141028512Y-107327118D01*
G37*
G36*
X114328643Y-104787119D02*
X114394827Y-104793637D01*
X114508053Y-104827984D01*
X114564667Y-104845157D01*
X114703287Y-104919252D01*
X114721191Y-104928822D01*
X114756929Y-104958152D01*
X114858386Y-105041414D01*
X114941648Y-105142871D01*
X114970978Y-105178609D01*
X114970979Y-105178611D01*
X115054643Y-105335133D01*
X115054643Y-105335134D01*
X115106163Y-105504973D01*
X115123559Y-105681600D01*
X115106163Y-105858227D01*
X115071816Y-105971453D01*
X115054643Y-106028067D01*
X114980548Y-106166687D01*
X114970978Y-106184591D01*
X114941648Y-106220329D01*
X114858386Y-106321786D01*
X114756929Y-106405048D01*
X114721191Y-106434378D01*
X114721189Y-106434379D01*
X114564667Y-106518043D01*
X114508053Y-106535216D01*
X114394827Y-106569563D01*
X114328642Y-106576082D01*
X114262460Y-106582600D01*
X114173940Y-106582600D01*
X114107758Y-106576082D01*
X114041573Y-106569563D01*
X113928347Y-106535216D01*
X113871733Y-106518043D01*
X113715211Y-106434379D01*
X113715209Y-106434378D01*
X113679471Y-106405048D01*
X113578014Y-106321786D01*
X113494752Y-106220329D01*
X113465422Y-106184591D01*
X113455852Y-106166687D01*
X113381757Y-106028067D01*
X113364584Y-105971453D01*
X113330237Y-105858227D01*
X113312841Y-105681600D01*
X113330237Y-105504973D01*
X113381757Y-105335134D01*
X113381757Y-105335133D01*
X113465421Y-105178611D01*
X113465422Y-105178609D01*
X113494752Y-105142871D01*
X113578014Y-105041414D01*
X113679471Y-104958152D01*
X113715209Y-104928822D01*
X113733113Y-104919252D01*
X113871733Y-104845157D01*
X113928347Y-104827984D01*
X114041573Y-104793637D01*
X114107757Y-104787119D01*
X114173940Y-104780600D01*
X114262460Y-104780600D01*
X114328643Y-104787119D01*
X114328643Y-104787119D01*
G37*
G36*
X141028513Y-104787119D02*
X141094697Y-104793637D01*
X141207923Y-104827984D01*
X141264537Y-104845157D01*
X141403157Y-104919252D01*
X141421061Y-104928822D01*
X141456799Y-104958152D01*
X141558256Y-105041414D01*
X141641518Y-105142871D01*
X141670848Y-105178609D01*
X141670849Y-105178611D01*
X141754513Y-105335133D01*
X141754513Y-105335134D01*
X141806033Y-105504973D01*
X141823429Y-105681600D01*
X141806033Y-105858227D01*
X141771686Y-105971453D01*
X141754513Y-106028067D01*
X141680418Y-106166687D01*
X141670848Y-106184591D01*
X141641518Y-106220329D01*
X141558256Y-106321786D01*
X141456799Y-106405048D01*
X141421061Y-106434378D01*
X141421059Y-106434379D01*
X141264537Y-106518043D01*
X141207923Y-106535216D01*
X141094697Y-106569563D01*
X141028512Y-106576082D01*
X140962330Y-106582600D01*
X140873810Y-106582600D01*
X140807628Y-106576082D01*
X140741443Y-106569563D01*
X140628217Y-106535216D01*
X140571603Y-106518043D01*
X140415081Y-106434379D01*
X140415079Y-106434378D01*
X140379341Y-106405048D01*
X140277884Y-106321786D01*
X140194622Y-106220329D01*
X140165292Y-106184591D01*
X140155722Y-106166687D01*
X140081627Y-106028067D01*
X140064454Y-105971453D01*
X140030107Y-105858227D01*
X140012711Y-105681600D01*
X140030107Y-105504973D01*
X140081627Y-105335134D01*
X140081627Y-105335133D01*
X140165291Y-105178611D01*
X140165292Y-105178609D01*
X140194622Y-105142871D01*
X140277884Y-105041414D01*
X140379341Y-104958152D01*
X140415079Y-104928822D01*
X140432983Y-104919252D01*
X140571603Y-104845157D01*
X140628217Y-104827984D01*
X140741443Y-104793637D01*
X140807627Y-104787119D01*
X140873810Y-104780600D01*
X140962330Y-104780600D01*
X141028513Y-104787119D01*
X141028513Y-104787119D01*
G37*
G36*
X114328642Y-102247118D02*
X114394827Y-102253637D01*
X114508053Y-102287984D01*
X114564667Y-102305157D01*
X114703287Y-102379252D01*
X114721191Y-102388822D01*
X114756929Y-102418152D01*
X114858386Y-102501414D01*
X114941648Y-102602871D01*
X114970978Y-102638609D01*
X114970979Y-102638611D01*
X115054643Y-102795133D01*
X115054643Y-102795134D01*
X115106163Y-102964973D01*
X115123559Y-103141600D01*
X115106163Y-103318227D01*
X115071816Y-103431453D01*
X115054643Y-103488067D01*
X114980548Y-103626687D01*
X114970978Y-103644591D01*
X114941648Y-103680329D01*
X114858386Y-103781786D01*
X114756929Y-103865048D01*
X114721191Y-103894378D01*
X114721189Y-103894379D01*
X114564667Y-103978043D01*
X114508053Y-103995216D01*
X114394827Y-104029563D01*
X114328643Y-104036081D01*
X114262460Y-104042600D01*
X114173940Y-104042600D01*
X114107758Y-104036082D01*
X114041573Y-104029563D01*
X113928347Y-103995216D01*
X113871733Y-103978043D01*
X113715211Y-103894379D01*
X113715209Y-103894378D01*
X113679471Y-103865048D01*
X113578014Y-103781786D01*
X113494752Y-103680329D01*
X113465422Y-103644591D01*
X113455852Y-103626687D01*
X113381757Y-103488067D01*
X113364584Y-103431453D01*
X113330237Y-103318227D01*
X113312841Y-103141600D01*
X113330237Y-102964973D01*
X113381757Y-102795134D01*
X113381757Y-102795133D01*
X113465421Y-102638611D01*
X113465422Y-102638609D01*
X113494752Y-102602871D01*
X113578014Y-102501414D01*
X113679471Y-102418152D01*
X113715209Y-102388822D01*
X113733113Y-102379252D01*
X113871733Y-102305157D01*
X113928347Y-102287984D01*
X114041573Y-102253637D01*
X114107758Y-102247118D01*
X114173940Y-102240600D01*
X114262460Y-102240600D01*
X114328642Y-102247118D01*
X114328642Y-102247118D01*
G37*
G36*
X141028512Y-102247118D02*
X141094697Y-102253637D01*
X141207923Y-102287984D01*
X141264537Y-102305157D01*
X141403157Y-102379252D01*
X141421061Y-102388822D01*
X141456799Y-102418152D01*
X141558256Y-102501414D01*
X141641518Y-102602871D01*
X141670848Y-102638609D01*
X141670849Y-102638611D01*
X141754513Y-102795133D01*
X141754513Y-102795134D01*
X141806033Y-102964973D01*
X141823429Y-103141600D01*
X141806033Y-103318227D01*
X141771686Y-103431453D01*
X141754513Y-103488067D01*
X141680418Y-103626687D01*
X141670848Y-103644591D01*
X141641518Y-103680329D01*
X141558256Y-103781786D01*
X141456799Y-103865048D01*
X141421061Y-103894378D01*
X141421059Y-103894379D01*
X141264537Y-103978043D01*
X141207923Y-103995216D01*
X141094697Y-104029563D01*
X141028513Y-104036081D01*
X140962330Y-104042600D01*
X140873810Y-104042600D01*
X140807628Y-104036082D01*
X140741443Y-104029563D01*
X140628217Y-103995216D01*
X140571603Y-103978043D01*
X140415081Y-103894379D01*
X140415079Y-103894378D01*
X140379341Y-103865048D01*
X140277884Y-103781786D01*
X140194622Y-103680329D01*
X140165292Y-103644591D01*
X140155722Y-103626687D01*
X140081627Y-103488067D01*
X140064454Y-103431453D01*
X140030107Y-103318227D01*
X140012711Y-103141600D01*
X140030107Y-102964973D01*
X140081627Y-102795134D01*
X140081627Y-102795133D01*
X140165291Y-102638611D01*
X140165292Y-102638609D01*
X140194622Y-102602871D01*
X140277884Y-102501414D01*
X140379341Y-102418152D01*
X140415079Y-102388822D01*
X140432983Y-102379252D01*
X140571603Y-102305157D01*
X140628217Y-102287984D01*
X140741443Y-102253637D01*
X140807628Y-102247118D01*
X140873810Y-102240600D01*
X140962330Y-102240600D01*
X141028512Y-102247118D01*
X141028512Y-102247118D01*
G37*
G36*
X141028512Y-99707118D02*
X141094697Y-99713637D01*
X141207923Y-99747984D01*
X141264537Y-99765157D01*
X141403157Y-99839252D01*
X141421061Y-99848822D01*
X141456799Y-99878152D01*
X141558256Y-99961414D01*
X141641518Y-100062871D01*
X141670848Y-100098609D01*
X141670849Y-100098611D01*
X141754513Y-100255133D01*
X141754513Y-100255134D01*
X141806033Y-100424973D01*
X141823429Y-100601600D01*
X141806033Y-100778227D01*
X141771686Y-100891453D01*
X141754513Y-100948067D01*
X141680418Y-101086687D01*
X141670848Y-101104591D01*
X141641518Y-101140329D01*
X141558256Y-101241786D01*
X141456799Y-101325048D01*
X141421061Y-101354378D01*
X141421059Y-101354379D01*
X141264537Y-101438043D01*
X141207923Y-101455216D01*
X141094697Y-101489563D01*
X141028513Y-101496081D01*
X140962330Y-101502600D01*
X140873810Y-101502600D01*
X140807627Y-101496081D01*
X140741443Y-101489563D01*
X140628217Y-101455216D01*
X140571603Y-101438043D01*
X140415081Y-101354379D01*
X140415079Y-101354378D01*
X140379341Y-101325048D01*
X140277884Y-101241786D01*
X140194622Y-101140329D01*
X140165292Y-101104591D01*
X140155722Y-101086687D01*
X140081627Y-100948067D01*
X140064454Y-100891453D01*
X140030107Y-100778227D01*
X140012711Y-100601600D01*
X140030107Y-100424973D01*
X140081627Y-100255134D01*
X140081627Y-100255133D01*
X140165291Y-100098611D01*
X140165292Y-100098609D01*
X140194622Y-100062871D01*
X140277884Y-99961414D01*
X140379341Y-99878152D01*
X140415079Y-99848822D01*
X140432983Y-99839252D01*
X140571603Y-99765157D01*
X140628217Y-99747984D01*
X140741443Y-99713637D01*
X140807628Y-99707118D01*
X140873810Y-99700600D01*
X140962330Y-99700600D01*
X141028512Y-99707118D01*
X141028512Y-99707118D01*
G37*
G36*
X114328642Y-99707118D02*
X114394827Y-99713637D01*
X114508053Y-99747984D01*
X114564667Y-99765157D01*
X114703287Y-99839252D01*
X114721191Y-99848822D01*
X114756929Y-99878152D01*
X114858386Y-99961414D01*
X114941648Y-100062871D01*
X114970978Y-100098609D01*
X114970979Y-100098611D01*
X115054643Y-100255133D01*
X115054643Y-100255134D01*
X115106163Y-100424973D01*
X115123559Y-100601600D01*
X115106163Y-100778227D01*
X115071816Y-100891453D01*
X115054643Y-100948067D01*
X114980548Y-101086687D01*
X114970978Y-101104591D01*
X114941648Y-101140329D01*
X114858386Y-101241786D01*
X114756929Y-101325048D01*
X114721191Y-101354378D01*
X114721189Y-101354379D01*
X114564667Y-101438043D01*
X114508053Y-101455216D01*
X114394827Y-101489563D01*
X114328643Y-101496081D01*
X114262460Y-101502600D01*
X114173940Y-101502600D01*
X114107757Y-101496081D01*
X114041573Y-101489563D01*
X113928347Y-101455216D01*
X113871733Y-101438043D01*
X113715211Y-101354379D01*
X113715209Y-101354378D01*
X113679471Y-101325048D01*
X113578014Y-101241786D01*
X113494752Y-101140329D01*
X113465422Y-101104591D01*
X113455852Y-101086687D01*
X113381757Y-100948067D01*
X113364584Y-100891453D01*
X113330237Y-100778227D01*
X113312841Y-100601600D01*
X113330237Y-100424973D01*
X113381757Y-100255134D01*
X113381757Y-100255133D01*
X113465421Y-100098611D01*
X113465422Y-100098609D01*
X113494752Y-100062871D01*
X113578014Y-99961414D01*
X113679471Y-99878152D01*
X113715209Y-99848822D01*
X113733113Y-99839252D01*
X113871733Y-99765157D01*
X113928347Y-99747984D01*
X114041573Y-99713637D01*
X114107758Y-99707118D01*
X114173940Y-99700600D01*
X114262460Y-99700600D01*
X114328642Y-99707118D01*
X114328642Y-99707118D01*
G37*
G36*
X141028512Y-97167118D02*
X141094697Y-97173637D01*
X141207923Y-97207984D01*
X141264537Y-97225157D01*
X141403157Y-97299252D01*
X141421061Y-97308822D01*
X141456799Y-97338152D01*
X141558256Y-97421414D01*
X141641518Y-97522871D01*
X141670848Y-97558609D01*
X141670849Y-97558611D01*
X141754513Y-97715133D01*
X141754513Y-97715134D01*
X141806033Y-97884973D01*
X141823429Y-98061600D01*
X141806033Y-98238227D01*
X141771686Y-98351453D01*
X141754513Y-98408067D01*
X141680418Y-98546687D01*
X141670848Y-98564591D01*
X141641518Y-98600329D01*
X141558256Y-98701786D01*
X141456799Y-98785048D01*
X141421061Y-98814378D01*
X141421059Y-98814379D01*
X141264537Y-98898043D01*
X141207923Y-98915216D01*
X141094697Y-98949563D01*
X141028513Y-98956081D01*
X140962330Y-98962600D01*
X140873810Y-98962600D01*
X140807627Y-98956081D01*
X140741443Y-98949563D01*
X140628217Y-98915216D01*
X140571603Y-98898043D01*
X140415081Y-98814379D01*
X140415079Y-98814378D01*
X140379341Y-98785048D01*
X140277884Y-98701786D01*
X140194622Y-98600329D01*
X140165292Y-98564591D01*
X140155722Y-98546687D01*
X140081627Y-98408067D01*
X140064454Y-98351453D01*
X140030107Y-98238227D01*
X140012711Y-98061600D01*
X140030107Y-97884973D01*
X140081627Y-97715134D01*
X140081627Y-97715133D01*
X140165291Y-97558611D01*
X140165292Y-97558609D01*
X140194622Y-97522871D01*
X140277884Y-97421414D01*
X140379341Y-97338152D01*
X140415079Y-97308822D01*
X140432983Y-97299252D01*
X140571603Y-97225157D01*
X140628217Y-97207984D01*
X140741443Y-97173637D01*
X140807628Y-97167118D01*
X140873810Y-97160600D01*
X140962330Y-97160600D01*
X141028512Y-97167118D01*
X141028512Y-97167118D01*
G37*
G36*
X114328642Y-97167118D02*
X114394827Y-97173637D01*
X114508053Y-97207984D01*
X114564667Y-97225157D01*
X114703287Y-97299252D01*
X114721191Y-97308822D01*
X114756929Y-97338152D01*
X114858386Y-97421414D01*
X114941648Y-97522871D01*
X114970978Y-97558609D01*
X114970979Y-97558611D01*
X115054643Y-97715133D01*
X115054643Y-97715134D01*
X115106163Y-97884973D01*
X115123559Y-98061600D01*
X115106163Y-98238227D01*
X115071816Y-98351453D01*
X115054643Y-98408067D01*
X114980548Y-98546687D01*
X114970978Y-98564591D01*
X114941648Y-98600329D01*
X114858386Y-98701786D01*
X114756929Y-98785048D01*
X114721191Y-98814378D01*
X114721189Y-98814379D01*
X114564667Y-98898043D01*
X114508053Y-98915216D01*
X114394827Y-98949563D01*
X114328643Y-98956081D01*
X114262460Y-98962600D01*
X114173940Y-98962600D01*
X114107757Y-98956081D01*
X114041573Y-98949563D01*
X113928347Y-98915216D01*
X113871733Y-98898043D01*
X113715211Y-98814379D01*
X113715209Y-98814378D01*
X113679471Y-98785048D01*
X113578014Y-98701786D01*
X113494752Y-98600329D01*
X113465422Y-98564591D01*
X113455852Y-98546687D01*
X113381757Y-98408067D01*
X113364584Y-98351453D01*
X113330237Y-98238227D01*
X113312841Y-98061600D01*
X113330237Y-97884973D01*
X113381757Y-97715134D01*
X113381757Y-97715133D01*
X113465421Y-97558611D01*
X113465422Y-97558609D01*
X113494752Y-97522871D01*
X113578014Y-97421414D01*
X113679471Y-97338152D01*
X113715209Y-97308822D01*
X113733113Y-97299252D01*
X113871733Y-97225157D01*
X113928347Y-97207984D01*
X114041573Y-97173637D01*
X114107758Y-97167118D01*
X114173940Y-97160600D01*
X114262460Y-97160600D01*
X114328642Y-97167118D01*
X114328642Y-97167118D01*
G37*
G36*
X141028513Y-94627119D02*
X141094697Y-94633637D01*
X141207923Y-94667984D01*
X141264537Y-94685157D01*
X141403157Y-94759252D01*
X141421061Y-94768822D01*
X141456799Y-94798152D01*
X141558256Y-94881414D01*
X141641518Y-94982871D01*
X141670848Y-95018609D01*
X141670849Y-95018611D01*
X141754513Y-95175133D01*
X141754513Y-95175134D01*
X141806033Y-95344973D01*
X141823429Y-95521600D01*
X141806033Y-95698227D01*
X141771686Y-95811453D01*
X141754513Y-95868067D01*
X141680418Y-96006687D01*
X141670848Y-96024591D01*
X141641518Y-96060329D01*
X141558256Y-96161786D01*
X141456799Y-96245048D01*
X141421061Y-96274378D01*
X141421059Y-96274379D01*
X141264537Y-96358043D01*
X141207923Y-96375216D01*
X141094697Y-96409563D01*
X141028512Y-96416082D01*
X140962330Y-96422600D01*
X140873810Y-96422600D01*
X140807628Y-96416082D01*
X140741443Y-96409563D01*
X140628217Y-96375216D01*
X140571603Y-96358043D01*
X140415081Y-96274379D01*
X140415079Y-96274378D01*
X140379341Y-96245048D01*
X140277884Y-96161786D01*
X140194622Y-96060329D01*
X140165292Y-96024591D01*
X140155722Y-96006687D01*
X140081627Y-95868067D01*
X140064454Y-95811453D01*
X140030107Y-95698227D01*
X140012711Y-95521600D01*
X140030107Y-95344973D01*
X140081627Y-95175134D01*
X140081627Y-95175133D01*
X140165291Y-95018611D01*
X140165292Y-95018609D01*
X140194622Y-94982871D01*
X140277884Y-94881414D01*
X140379341Y-94798152D01*
X140415079Y-94768822D01*
X140432983Y-94759252D01*
X140571603Y-94685157D01*
X140628217Y-94667984D01*
X140741443Y-94633637D01*
X140807627Y-94627119D01*
X140873810Y-94620600D01*
X140962330Y-94620600D01*
X141028513Y-94627119D01*
X141028513Y-94627119D01*
G37*
G36*
X114328643Y-94627119D02*
X114394827Y-94633637D01*
X114508053Y-94667984D01*
X114564667Y-94685157D01*
X114703287Y-94759252D01*
X114721191Y-94768822D01*
X114756929Y-94798152D01*
X114858386Y-94881414D01*
X114941648Y-94982871D01*
X114970978Y-95018609D01*
X114970979Y-95018611D01*
X115054643Y-95175133D01*
X115054643Y-95175134D01*
X115106163Y-95344973D01*
X115123559Y-95521600D01*
X115106163Y-95698227D01*
X115071816Y-95811453D01*
X115054643Y-95868067D01*
X114980548Y-96006687D01*
X114970978Y-96024591D01*
X114941648Y-96060329D01*
X114858386Y-96161786D01*
X114756929Y-96245048D01*
X114721191Y-96274378D01*
X114721189Y-96274379D01*
X114564667Y-96358043D01*
X114508053Y-96375216D01*
X114394827Y-96409563D01*
X114328642Y-96416082D01*
X114262460Y-96422600D01*
X114173940Y-96422600D01*
X114107758Y-96416082D01*
X114041573Y-96409563D01*
X113928347Y-96375216D01*
X113871733Y-96358043D01*
X113715211Y-96274379D01*
X113715209Y-96274378D01*
X113679471Y-96245048D01*
X113578014Y-96161786D01*
X113494752Y-96060329D01*
X113465422Y-96024591D01*
X113455852Y-96006687D01*
X113381757Y-95868067D01*
X113364584Y-95811453D01*
X113330237Y-95698227D01*
X113312841Y-95521600D01*
X113330237Y-95344973D01*
X113381757Y-95175134D01*
X113381757Y-95175133D01*
X113465421Y-95018611D01*
X113465422Y-95018609D01*
X113494752Y-94982871D01*
X113578014Y-94881414D01*
X113679471Y-94798152D01*
X113715209Y-94768822D01*
X113733113Y-94759252D01*
X113871733Y-94685157D01*
X113928347Y-94667984D01*
X114041573Y-94633637D01*
X114107757Y-94627119D01*
X114173940Y-94620600D01*
X114262460Y-94620600D01*
X114328643Y-94627119D01*
X114328643Y-94627119D01*
G37*
G36*
X141028513Y-92093611D02*
X141094697Y-92100129D01*
X141207923Y-92134476D01*
X141264537Y-92151649D01*
X141403157Y-92225744D01*
X141421061Y-92235314D01*
X141456799Y-92264644D01*
X141558256Y-92347906D01*
X141641518Y-92449363D01*
X141670848Y-92485101D01*
X141670849Y-92485103D01*
X141754513Y-92641625D01*
X141754513Y-92641626D01*
X141806033Y-92811465D01*
X141823429Y-92988092D01*
X141806033Y-93164719D01*
X141771686Y-93277945D01*
X141754513Y-93334559D01*
X141680418Y-93473179D01*
X141670848Y-93491083D01*
X141641518Y-93526821D01*
X141558256Y-93628278D01*
X141456799Y-93711540D01*
X141421061Y-93740870D01*
X141421059Y-93740871D01*
X141264537Y-93824535D01*
X141207923Y-93841708D01*
X141094697Y-93876055D01*
X141028513Y-93882573D01*
X140962330Y-93889092D01*
X140873810Y-93889092D01*
X140807627Y-93882573D01*
X140741443Y-93876055D01*
X140628217Y-93841708D01*
X140571603Y-93824535D01*
X140415081Y-93740871D01*
X140415079Y-93740870D01*
X140379341Y-93711540D01*
X140277884Y-93628278D01*
X140194622Y-93526821D01*
X140165292Y-93491083D01*
X140155722Y-93473179D01*
X140081627Y-93334559D01*
X140064454Y-93277945D01*
X140030107Y-93164719D01*
X140012711Y-92988092D01*
X140030107Y-92811465D01*
X140081627Y-92641626D01*
X140081627Y-92641625D01*
X140165291Y-92485103D01*
X140165292Y-92485101D01*
X140194622Y-92449363D01*
X140277884Y-92347906D01*
X140379341Y-92264644D01*
X140415079Y-92235314D01*
X140432983Y-92225744D01*
X140571603Y-92151649D01*
X140628217Y-92134476D01*
X140741443Y-92100129D01*
X140807627Y-92093611D01*
X140873810Y-92087092D01*
X140962330Y-92087092D01*
X141028513Y-92093611D01*
X141028513Y-92093611D01*
G37*
G36*
X114328373Y-92087092D02*
X114394827Y-92093637D01*
X114508053Y-92127984D01*
X114564667Y-92145157D01*
X114576812Y-92151649D01*
X114721191Y-92228822D01*
X114729100Y-92235313D01*
X114858386Y-92341414D01*
X114941648Y-92442871D01*
X114970978Y-92478609D01*
X114970979Y-92478611D01*
X115054643Y-92635133D01*
X115071816Y-92691747D01*
X115106163Y-92804973D01*
X115123559Y-92981600D01*
X115106163Y-93158227D01*
X115071816Y-93271453D01*
X115054643Y-93328067D01*
X114980548Y-93466687D01*
X114970978Y-93484591D01*
X114965650Y-93491083D01*
X114858386Y-93621786D01*
X114756929Y-93705048D01*
X114721191Y-93734378D01*
X114721189Y-93734379D01*
X114564667Y-93818043D01*
X114543265Y-93824535D01*
X114394827Y-93869563D01*
X114328912Y-93876055D01*
X114262460Y-93882600D01*
X114173940Y-93882600D01*
X114107488Y-93876055D01*
X114041573Y-93869563D01*
X113893135Y-93824535D01*
X113871733Y-93818043D01*
X113715211Y-93734379D01*
X113715209Y-93734378D01*
X113679471Y-93705048D01*
X113578014Y-93621786D01*
X113470750Y-93491083D01*
X113465422Y-93484591D01*
X113455852Y-93466687D01*
X113381757Y-93328067D01*
X113364584Y-93271453D01*
X113330237Y-93158227D01*
X113312841Y-92981600D01*
X113330237Y-92804973D01*
X113364584Y-92691747D01*
X113381757Y-92635133D01*
X113465421Y-92478611D01*
X113465422Y-92478609D01*
X113494752Y-92442871D01*
X113578014Y-92341414D01*
X113707300Y-92235313D01*
X113715209Y-92228822D01*
X113859588Y-92151649D01*
X113871733Y-92145157D01*
X113928347Y-92127984D01*
X114041573Y-92093637D01*
X114108027Y-92087092D01*
X114173940Y-92080600D01*
X114262460Y-92080600D01*
X114328373Y-92087092D01*
X114328373Y-92087092D01*
G37*
G36*
X138284015Y-90388973D02*
X138387879Y-90420479D01*
X138483600Y-90471644D01*
X138567501Y-90540499D01*
X138636356Y-90624400D01*
X138687521Y-90720121D01*
X138719027Y-90823985D01*
X138729666Y-90932000D01*
X138719027Y-91040015D01*
X138687521Y-91143879D01*
X138636356Y-91239600D01*
X138567501Y-91323501D01*
X138483600Y-91392356D01*
X138439805Y-91415766D01*
X138419439Y-91429374D01*
X138402111Y-91446701D01*
X138388498Y-91467076D01*
X138379120Y-91489715D01*
X138374340Y-91513748D01*
X138374340Y-91538252D01*
X138379121Y-91562286D01*
X138388498Y-91584925D01*
X138402112Y-91605299D01*
X138419439Y-91622627D01*
X138439814Y-91636240D01*
X138462453Y-91645618D01*
X138498738Y-91651000D01*
X138727000Y-91651000D01*
X138727000Y-92753000D01*
X137625000Y-92753000D01*
X137625000Y-91651000D01*
X137853262Y-91651000D01*
X137877648Y-91648598D01*
X137901097Y-91641485D01*
X137922708Y-91629934D01*
X137941650Y-91614388D01*
X137957196Y-91595446D01*
X137968747Y-91573835D01*
X137975860Y-91550386D01*
X137978262Y-91526000D01*
X137975860Y-91501614D01*
X137968747Y-91478165D01*
X137957196Y-91456554D01*
X137941650Y-91437612D01*
X137912192Y-91415764D01*
X137868400Y-91392356D01*
X137784499Y-91323501D01*
X137715644Y-91239600D01*
X137664479Y-91143879D01*
X137632973Y-91040015D01*
X137622334Y-90932000D01*
X137632973Y-90823985D01*
X137664479Y-90720121D01*
X137715644Y-90624400D01*
X137784499Y-90540499D01*
X137868400Y-90471644D01*
X137964121Y-90420479D01*
X138067985Y-90388973D01*
X138148933Y-90381000D01*
X138203067Y-90381000D01*
X138284015Y-90388973D01*
X138284015Y-90388973D01*
G37*
G36*
X141028512Y-89547118D02*
X141094697Y-89553637D01*
X141207923Y-89587984D01*
X141264537Y-89605157D01*
X141403157Y-89679252D01*
X141421061Y-89688822D01*
X141456799Y-89718152D01*
X141558256Y-89801414D01*
X141641518Y-89902871D01*
X141670848Y-89938609D01*
X141670849Y-89938611D01*
X141754513Y-90095133D01*
X141754513Y-90095134D01*
X141806033Y-90264973D01*
X141823429Y-90441600D01*
X141806033Y-90618227D01*
X141804160Y-90624400D01*
X141754513Y-90788067D01*
X141735314Y-90823985D01*
X141670848Y-90944591D01*
X141641518Y-90980329D01*
X141558256Y-91081786D01*
X141482594Y-91143879D01*
X141421061Y-91194378D01*
X141421059Y-91194379D01*
X141264537Y-91278043D01*
X141207923Y-91295216D01*
X141094697Y-91329563D01*
X141028512Y-91336082D01*
X140962330Y-91342600D01*
X140873810Y-91342600D01*
X140807628Y-91336082D01*
X140741443Y-91329563D01*
X140628217Y-91295216D01*
X140571603Y-91278043D01*
X140415081Y-91194379D01*
X140415079Y-91194378D01*
X140353546Y-91143879D01*
X140277884Y-91081786D01*
X140194622Y-90980329D01*
X140165292Y-90944591D01*
X140100826Y-90823985D01*
X140081627Y-90788067D01*
X140031980Y-90624400D01*
X140030107Y-90618227D01*
X140012711Y-90441600D01*
X140030107Y-90264973D01*
X140081627Y-90095134D01*
X140081627Y-90095133D01*
X140165291Y-89938611D01*
X140165292Y-89938609D01*
X140194622Y-89902871D01*
X140277884Y-89801414D01*
X140379341Y-89718152D01*
X140415079Y-89688822D01*
X140432983Y-89679252D01*
X140571603Y-89605157D01*
X140628217Y-89587984D01*
X140741443Y-89553637D01*
X140807628Y-89547118D01*
X140873810Y-89540600D01*
X140962330Y-89540600D01*
X141028512Y-89547118D01*
X141028512Y-89547118D01*
G37*
G36*
X114328642Y-89547118D02*
X114394827Y-89553637D01*
X114508053Y-89587984D01*
X114564667Y-89605157D01*
X114703287Y-89679252D01*
X114721191Y-89688822D01*
X114756929Y-89718152D01*
X114858386Y-89801414D01*
X114941648Y-89902871D01*
X114970978Y-89938609D01*
X114970979Y-89938611D01*
X115054643Y-90095133D01*
X115054643Y-90095134D01*
X115106163Y-90264973D01*
X115123559Y-90441600D01*
X115106163Y-90618227D01*
X115104290Y-90624400D01*
X115054643Y-90788067D01*
X115035444Y-90823985D01*
X114970978Y-90944591D01*
X114941648Y-90980329D01*
X114858386Y-91081786D01*
X114782724Y-91143879D01*
X114721191Y-91194378D01*
X114721189Y-91194379D01*
X114564667Y-91278043D01*
X114508053Y-91295216D01*
X114394827Y-91329563D01*
X114328642Y-91336082D01*
X114262460Y-91342600D01*
X114173940Y-91342600D01*
X114107758Y-91336082D01*
X114041573Y-91329563D01*
X113928347Y-91295216D01*
X113871733Y-91278043D01*
X113715211Y-91194379D01*
X113715209Y-91194378D01*
X113653676Y-91143879D01*
X113578014Y-91081786D01*
X113494752Y-90980329D01*
X113465422Y-90944591D01*
X113400956Y-90823985D01*
X113381757Y-90788067D01*
X113332110Y-90624400D01*
X113330237Y-90618227D01*
X113312841Y-90441600D01*
X113330237Y-90264973D01*
X113381757Y-90095134D01*
X113381757Y-90095133D01*
X113465421Y-89938611D01*
X113465422Y-89938609D01*
X113494752Y-89902871D01*
X113578014Y-89801414D01*
X113679471Y-89718152D01*
X113715209Y-89688822D01*
X113733113Y-89679252D01*
X113871733Y-89605157D01*
X113928347Y-89587984D01*
X114041573Y-89553637D01*
X114107758Y-89547118D01*
X114173940Y-89540600D01*
X114262460Y-89540600D01*
X114328642Y-89547118D01*
X114328642Y-89547118D01*
G37*
G36*
X141028513Y-87007119D02*
X141094697Y-87013637D01*
X141207923Y-87047984D01*
X141264537Y-87065157D01*
X141403157Y-87139252D01*
X141421061Y-87148822D01*
X141456799Y-87178152D01*
X141558256Y-87261414D01*
X141641518Y-87362871D01*
X141670848Y-87398609D01*
X141670849Y-87398611D01*
X141754513Y-87555133D01*
X141754513Y-87555134D01*
X141806033Y-87724973D01*
X141823429Y-87901600D01*
X141806033Y-88078227D01*
X141771686Y-88191453D01*
X141754513Y-88248067D01*
X141680418Y-88386687D01*
X141670848Y-88404591D01*
X141641518Y-88440329D01*
X141558256Y-88541786D01*
X141456799Y-88625048D01*
X141421061Y-88654378D01*
X141421059Y-88654379D01*
X141264537Y-88738043D01*
X141207923Y-88755216D01*
X141094697Y-88789563D01*
X141028513Y-88796081D01*
X140962330Y-88802600D01*
X140873810Y-88802600D01*
X140807627Y-88796081D01*
X140741443Y-88789563D01*
X140628217Y-88755216D01*
X140571603Y-88738043D01*
X140415081Y-88654379D01*
X140415079Y-88654378D01*
X140379341Y-88625048D01*
X140277884Y-88541786D01*
X140194622Y-88440329D01*
X140165292Y-88404591D01*
X140155722Y-88386687D01*
X140081627Y-88248067D01*
X140064454Y-88191453D01*
X140030107Y-88078227D01*
X140012711Y-87901600D01*
X140030107Y-87724973D01*
X140081627Y-87555134D01*
X140081627Y-87555133D01*
X140165291Y-87398611D01*
X140165292Y-87398609D01*
X140194622Y-87362871D01*
X140277884Y-87261414D01*
X140379341Y-87178152D01*
X140415079Y-87148822D01*
X140432983Y-87139252D01*
X140571603Y-87065157D01*
X140628217Y-87047984D01*
X140741443Y-87013637D01*
X140807627Y-87007119D01*
X140873810Y-87000600D01*
X140962330Y-87000600D01*
X141028513Y-87007119D01*
X141028513Y-87007119D01*
G37*
G36*
X114328643Y-87007119D02*
X114394827Y-87013637D01*
X114508053Y-87047984D01*
X114564667Y-87065157D01*
X114703287Y-87139252D01*
X114721191Y-87148822D01*
X114756929Y-87178152D01*
X114858386Y-87261414D01*
X114941648Y-87362871D01*
X114970978Y-87398609D01*
X114970979Y-87398611D01*
X115054643Y-87555133D01*
X115054643Y-87555134D01*
X115106163Y-87724973D01*
X115123559Y-87901600D01*
X115106163Y-88078227D01*
X115071816Y-88191453D01*
X115054643Y-88248067D01*
X114980548Y-88386687D01*
X114970978Y-88404591D01*
X114941648Y-88440329D01*
X114858386Y-88541786D01*
X114756929Y-88625048D01*
X114721191Y-88654378D01*
X114721189Y-88654379D01*
X114564667Y-88738043D01*
X114508053Y-88755216D01*
X114394827Y-88789563D01*
X114328643Y-88796081D01*
X114262460Y-88802600D01*
X114173940Y-88802600D01*
X114107757Y-88796081D01*
X114041573Y-88789563D01*
X113928347Y-88755216D01*
X113871733Y-88738043D01*
X113715211Y-88654379D01*
X113715209Y-88654378D01*
X113679471Y-88625048D01*
X113578014Y-88541786D01*
X113494752Y-88440329D01*
X113465422Y-88404591D01*
X113455852Y-88386687D01*
X113381757Y-88248067D01*
X113364584Y-88191453D01*
X113330237Y-88078227D01*
X113312841Y-87901600D01*
X113330237Y-87724973D01*
X113381757Y-87555134D01*
X113381757Y-87555133D01*
X113465421Y-87398611D01*
X113465422Y-87398609D01*
X113494752Y-87362871D01*
X113578014Y-87261414D01*
X113679471Y-87178152D01*
X113715209Y-87148822D01*
X113733113Y-87139252D01*
X113871733Y-87065157D01*
X113928347Y-87047984D01*
X114041573Y-87013637D01*
X114107757Y-87007119D01*
X114173940Y-87000600D01*
X114262460Y-87000600D01*
X114328643Y-87007119D01*
X114328643Y-87007119D01*
G37*
G36*
X141028512Y-84473610D02*
X141094697Y-84480129D01*
X141207923Y-84514476D01*
X141264537Y-84531649D01*
X141403157Y-84605744D01*
X141421061Y-84615314D01*
X141456799Y-84644644D01*
X141558256Y-84727906D01*
X141641518Y-84829363D01*
X141670848Y-84865101D01*
X141670849Y-84865103D01*
X141754513Y-85021625D01*
X141754513Y-85021626D01*
X141806033Y-85191465D01*
X141823429Y-85368092D01*
X141806033Y-85544719D01*
X141771686Y-85657945D01*
X141754513Y-85714559D01*
X141680418Y-85853179D01*
X141670848Y-85871083D01*
X141641518Y-85906821D01*
X141558256Y-86008278D01*
X141456799Y-86091540D01*
X141421061Y-86120870D01*
X141421059Y-86120871D01*
X141264537Y-86204535D01*
X141207923Y-86221708D01*
X141094697Y-86256055D01*
X141028512Y-86262574D01*
X140962330Y-86269092D01*
X140873810Y-86269092D01*
X140807628Y-86262574D01*
X140741443Y-86256055D01*
X140628217Y-86221708D01*
X140571603Y-86204535D01*
X140415081Y-86120871D01*
X140415079Y-86120870D01*
X140379341Y-86091540D01*
X140277884Y-86008278D01*
X140194622Y-85906821D01*
X140165292Y-85871083D01*
X140155722Y-85853179D01*
X140081627Y-85714559D01*
X140064454Y-85657945D01*
X140030107Y-85544719D01*
X140012711Y-85368092D01*
X140030107Y-85191465D01*
X140081627Y-85021626D01*
X140081627Y-85021625D01*
X140165291Y-84865103D01*
X140165292Y-84865101D01*
X140194622Y-84829363D01*
X140277884Y-84727906D01*
X140379341Y-84644644D01*
X140415079Y-84615314D01*
X140432983Y-84605744D01*
X140571603Y-84531649D01*
X140628217Y-84514476D01*
X140741443Y-84480129D01*
X140807628Y-84473610D01*
X140873810Y-84467092D01*
X140962330Y-84467092D01*
X141028512Y-84473610D01*
X141028512Y-84473610D01*
G37*
G36*
X114328373Y-84467092D02*
X114394827Y-84473637D01*
X114508053Y-84507984D01*
X114564667Y-84525157D01*
X114576812Y-84531649D01*
X114721191Y-84608822D01*
X114729100Y-84615313D01*
X114858386Y-84721414D01*
X114941648Y-84822871D01*
X114970978Y-84858609D01*
X114970979Y-84858611D01*
X115054643Y-85015133D01*
X115071816Y-85071747D01*
X115106163Y-85184973D01*
X115123559Y-85361600D01*
X115106163Y-85538227D01*
X115071816Y-85651453D01*
X115054643Y-85708067D01*
X114980548Y-85846687D01*
X114970978Y-85864591D01*
X114965650Y-85871083D01*
X114858386Y-86001786D01*
X114756929Y-86085048D01*
X114721191Y-86114378D01*
X114721189Y-86114379D01*
X114564667Y-86198043D01*
X114543265Y-86204535D01*
X114394827Y-86249563D01*
X114328912Y-86256055D01*
X114262460Y-86262600D01*
X114173940Y-86262600D01*
X114107488Y-86256055D01*
X114041573Y-86249563D01*
X113893135Y-86204535D01*
X113871733Y-86198043D01*
X113715211Y-86114379D01*
X113715209Y-86114378D01*
X113679471Y-86085048D01*
X113578014Y-86001786D01*
X113470750Y-85871083D01*
X113465422Y-85864591D01*
X113455852Y-85846687D01*
X113381757Y-85708067D01*
X113364584Y-85651453D01*
X113330237Y-85538227D01*
X113312841Y-85361600D01*
X113330237Y-85184973D01*
X113364584Y-85071747D01*
X113381757Y-85015133D01*
X113465421Y-84858611D01*
X113465422Y-84858609D01*
X113494752Y-84822871D01*
X113578014Y-84721414D01*
X113707300Y-84615313D01*
X113715209Y-84608822D01*
X113859588Y-84531649D01*
X113871733Y-84525157D01*
X113928347Y-84507984D01*
X114041573Y-84473637D01*
X114108027Y-84467092D01*
X114173940Y-84460600D01*
X114262460Y-84460600D01*
X114328373Y-84467092D01*
X114328373Y-84467092D01*
G37*
G36*
X141028513Y-81933611D02*
X141094697Y-81940129D01*
X141207923Y-81974476D01*
X141264537Y-81991649D01*
X141403157Y-82065744D01*
X141421061Y-82075314D01*
X141456799Y-82104644D01*
X141558256Y-82187906D01*
X141641518Y-82289363D01*
X141670848Y-82325101D01*
X141670849Y-82325103D01*
X141754513Y-82481625D01*
X141754513Y-82481626D01*
X141806033Y-82651465D01*
X141823429Y-82828092D01*
X141806033Y-83004719D01*
X141771686Y-83117945D01*
X141754513Y-83174559D01*
X141680418Y-83313179D01*
X141670848Y-83331083D01*
X141641518Y-83366821D01*
X141558256Y-83468278D01*
X141456799Y-83551540D01*
X141421061Y-83580870D01*
X141421059Y-83580871D01*
X141264537Y-83664535D01*
X141207923Y-83681708D01*
X141094697Y-83716055D01*
X141028512Y-83722574D01*
X140962330Y-83729092D01*
X140873810Y-83729092D01*
X140807628Y-83722574D01*
X140741443Y-83716055D01*
X140628217Y-83681708D01*
X140571603Y-83664535D01*
X140415081Y-83580871D01*
X140415079Y-83580870D01*
X140379341Y-83551540D01*
X140277884Y-83468278D01*
X140194622Y-83366821D01*
X140165292Y-83331083D01*
X140155722Y-83313179D01*
X140081627Y-83174559D01*
X140064454Y-83117945D01*
X140030107Y-83004719D01*
X140012711Y-82828092D01*
X140030107Y-82651465D01*
X140081627Y-82481626D01*
X140081627Y-82481625D01*
X140165291Y-82325103D01*
X140165292Y-82325101D01*
X140194622Y-82289363D01*
X140277884Y-82187906D01*
X140379341Y-82104644D01*
X140415079Y-82075314D01*
X140432983Y-82065744D01*
X140571603Y-81991649D01*
X140628217Y-81974476D01*
X140741443Y-81940129D01*
X140807627Y-81933611D01*
X140873810Y-81927092D01*
X140962330Y-81927092D01*
X141028513Y-81933611D01*
X141028513Y-81933611D01*
G37*
G36*
X114328373Y-81927092D02*
X114394827Y-81933637D01*
X114508053Y-81967984D01*
X114564667Y-81985157D01*
X114576812Y-81991649D01*
X114721191Y-82068822D01*
X114729100Y-82075313D01*
X114858386Y-82181414D01*
X114941648Y-82282871D01*
X114970978Y-82318609D01*
X114970979Y-82318611D01*
X115054643Y-82475133D01*
X115071816Y-82531747D01*
X115106163Y-82644973D01*
X115123559Y-82821600D01*
X115106163Y-82998227D01*
X115071816Y-83111453D01*
X115054643Y-83168067D01*
X114980548Y-83306687D01*
X114970978Y-83324591D01*
X114965650Y-83331083D01*
X114858386Y-83461786D01*
X114756929Y-83545048D01*
X114721191Y-83574378D01*
X114721189Y-83574379D01*
X114564667Y-83658043D01*
X114543265Y-83664535D01*
X114394827Y-83709563D01*
X114328912Y-83716055D01*
X114262460Y-83722600D01*
X114173940Y-83722600D01*
X114107488Y-83716055D01*
X114041573Y-83709563D01*
X113893135Y-83664535D01*
X113871733Y-83658043D01*
X113715211Y-83574379D01*
X113715209Y-83574378D01*
X113679471Y-83545048D01*
X113578014Y-83461786D01*
X113470750Y-83331083D01*
X113465422Y-83324591D01*
X113455852Y-83306687D01*
X113381757Y-83168067D01*
X113364584Y-83111453D01*
X113330237Y-82998227D01*
X113312841Y-82821600D01*
X113330237Y-82644973D01*
X113364584Y-82531747D01*
X113381757Y-82475133D01*
X113465421Y-82318611D01*
X113465422Y-82318609D01*
X113494752Y-82282871D01*
X113578014Y-82181414D01*
X113707300Y-82075313D01*
X113715209Y-82068822D01*
X113859588Y-81991649D01*
X113871733Y-81985157D01*
X113928347Y-81967984D01*
X114041573Y-81933637D01*
X114108027Y-81927092D01*
X114173940Y-81920600D01*
X114262460Y-81920600D01*
X114328373Y-81927092D01*
X114328373Y-81927092D01*
G37*
G36*
X125481218Y-76032078D02*
X125585082Y-76063584D01*
X125680803Y-76114749D01*
X125764704Y-76183604D01*
X125833559Y-76267505D01*
X125884724Y-76363226D01*
X125916230Y-76467090D01*
X125926869Y-76575105D01*
X125916230Y-76683120D01*
X125884724Y-76786984D01*
X125833559Y-76882705D01*
X125764704Y-76966606D01*
X125680803Y-77035461D01*
X125585082Y-77086626D01*
X125572345Y-77090490D01*
X125549710Y-77099865D01*
X125529336Y-77113479D01*
X125512009Y-77130806D01*
X125498395Y-77151181D01*
X125489017Y-77173820D01*
X125484237Y-77197853D01*
X125484237Y-77222357D01*
X125489018Y-77246391D01*
X125498395Y-77269030D01*
X125512009Y-77289404D01*
X125529336Y-77306731D01*
X125549711Y-77320345D01*
X125572345Y-77329720D01*
X125585082Y-77333584D01*
X125680803Y-77384749D01*
X125764704Y-77453604D01*
X125833559Y-77537505D01*
X125884724Y-77633226D01*
X125916230Y-77737090D01*
X125926869Y-77845105D01*
X125916230Y-77953120D01*
X125884724Y-78056984D01*
X125833559Y-78152705D01*
X125764704Y-78236606D01*
X125680803Y-78305461D01*
X125585082Y-78356626D01*
X125572345Y-78360490D01*
X125549710Y-78369865D01*
X125529336Y-78383479D01*
X125512009Y-78400806D01*
X125498395Y-78421181D01*
X125489017Y-78443820D01*
X125484237Y-78467853D01*
X125484237Y-78492357D01*
X125489018Y-78516391D01*
X125498395Y-78539030D01*
X125512009Y-78559404D01*
X125529336Y-78576731D01*
X125549711Y-78590345D01*
X125572345Y-78599720D01*
X125585082Y-78603584D01*
X125680803Y-78654749D01*
X125764704Y-78723604D01*
X125833559Y-78807505D01*
X125884724Y-78903226D01*
X125916230Y-79007090D01*
X125926869Y-79115105D01*
X125916230Y-79223120D01*
X125884724Y-79326984D01*
X125833559Y-79422705D01*
X125764704Y-79506606D01*
X125680803Y-79575461D01*
X125637008Y-79598871D01*
X125616642Y-79612479D01*
X125599314Y-79629806D01*
X125585701Y-79650181D01*
X125576323Y-79672820D01*
X125571543Y-79696853D01*
X125571543Y-79721357D01*
X125576324Y-79745391D01*
X125585701Y-79768030D01*
X125599315Y-79788404D01*
X125616642Y-79805732D01*
X125637017Y-79819345D01*
X125659656Y-79828723D01*
X125695941Y-79834105D01*
X125924203Y-79834105D01*
X125924203Y-80936105D01*
X124822203Y-80936105D01*
X124822203Y-79834105D01*
X125050465Y-79834105D01*
X125074851Y-79831703D01*
X125098300Y-79824590D01*
X125119911Y-79813039D01*
X125138853Y-79797493D01*
X125154399Y-79778551D01*
X125165950Y-79756940D01*
X125173063Y-79733491D01*
X125175465Y-79709105D01*
X125173063Y-79684719D01*
X125165950Y-79661270D01*
X125154399Y-79639659D01*
X125138853Y-79620717D01*
X125109395Y-79598869D01*
X125065603Y-79575461D01*
X124981702Y-79506606D01*
X124912847Y-79422705D01*
X124861682Y-79326984D01*
X124830176Y-79223120D01*
X124819537Y-79115105D01*
X124830176Y-79007090D01*
X124861682Y-78903226D01*
X124912847Y-78807505D01*
X124981702Y-78723604D01*
X125065603Y-78654749D01*
X125161324Y-78603584D01*
X125174061Y-78599720D01*
X125196696Y-78590345D01*
X125217070Y-78576731D01*
X125234397Y-78559404D01*
X125248011Y-78539029D01*
X125257389Y-78516390D01*
X125262169Y-78492357D01*
X125262169Y-78467853D01*
X125257388Y-78443819D01*
X125248011Y-78421180D01*
X125234397Y-78400806D01*
X125217070Y-78383479D01*
X125196695Y-78369865D01*
X125174061Y-78360490D01*
X125161324Y-78356626D01*
X125065603Y-78305461D01*
X124981702Y-78236606D01*
X124912847Y-78152705D01*
X124861682Y-78056984D01*
X124830176Y-77953120D01*
X124819537Y-77845105D01*
X124830176Y-77737090D01*
X124861682Y-77633226D01*
X124912847Y-77537505D01*
X124981702Y-77453604D01*
X125065603Y-77384749D01*
X125161324Y-77333584D01*
X125174061Y-77329720D01*
X125196696Y-77320345D01*
X125217070Y-77306731D01*
X125234397Y-77289404D01*
X125248011Y-77269029D01*
X125257389Y-77246390D01*
X125262169Y-77222357D01*
X125262169Y-77197853D01*
X125257388Y-77173819D01*
X125248011Y-77151180D01*
X125234397Y-77130806D01*
X125217070Y-77113479D01*
X125196695Y-77099865D01*
X125174061Y-77090490D01*
X125161324Y-77086626D01*
X125065603Y-77035461D01*
X124981702Y-76966606D01*
X124912847Y-76882705D01*
X124861682Y-76786984D01*
X124830176Y-76683120D01*
X124819537Y-76575105D01*
X124830176Y-76467090D01*
X124861682Y-76363226D01*
X124912847Y-76267505D01*
X124981702Y-76183604D01*
X125065603Y-76114749D01*
X125161324Y-76063584D01*
X125265188Y-76032078D01*
X125346136Y-76024105D01*
X125400270Y-76024105D01*
X125481218Y-76032078D01*
X125481218Y-76032078D01*
G37*
G36*
X116121000Y-71671000D02*
X115892738Y-71671000D01*
X115868352Y-71673402D01*
X115844903Y-71680515D01*
X115823292Y-71692066D01*
X115804350Y-71707612D01*
X115788804Y-71726554D01*
X115777253Y-71748165D01*
X115770140Y-71771614D01*
X115767738Y-71796000D01*
X115770140Y-71820386D01*
X115777253Y-71843835D01*
X115788804Y-71865446D01*
X115804350Y-71884388D01*
X115833808Y-71906236D01*
X115877600Y-71929644D01*
X115961501Y-71998499D01*
X116030356Y-72082400D01*
X116081521Y-72178121D01*
X116113027Y-72281985D01*
X116123666Y-72390000D01*
X116113027Y-72498015D01*
X116081521Y-72601879D01*
X116030356Y-72697600D01*
X115961501Y-72781501D01*
X115877600Y-72850356D01*
X115781879Y-72901521D01*
X115769142Y-72905385D01*
X115746507Y-72914760D01*
X115726133Y-72928374D01*
X115708806Y-72945701D01*
X115695192Y-72966076D01*
X115685814Y-72988715D01*
X115681034Y-73012748D01*
X115681034Y-73037252D01*
X115685815Y-73061286D01*
X115695192Y-73083925D01*
X115708806Y-73104299D01*
X115726133Y-73121626D01*
X115746508Y-73135240D01*
X115769142Y-73144615D01*
X115781879Y-73148479D01*
X115877600Y-73199644D01*
X115961501Y-73268499D01*
X116030356Y-73352400D01*
X116081521Y-73448121D01*
X116113027Y-73551985D01*
X116123666Y-73660000D01*
X116113027Y-73768015D01*
X116081521Y-73871879D01*
X116030356Y-73967600D01*
X115961501Y-74051501D01*
X115877600Y-74120356D01*
X115781879Y-74171521D01*
X115769142Y-74175385D01*
X115746507Y-74184760D01*
X115726133Y-74198374D01*
X115708806Y-74215701D01*
X115695192Y-74236076D01*
X115685814Y-74258715D01*
X115681034Y-74282748D01*
X115681034Y-74307252D01*
X115685815Y-74331286D01*
X115695192Y-74353925D01*
X115708806Y-74374299D01*
X115726133Y-74391626D01*
X115746508Y-74405240D01*
X115769142Y-74414615D01*
X115781879Y-74418479D01*
X115877600Y-74469644D01*
X115961501Y-74538499D01*
X116030356Y-74622400D01*
X116081521Y-74718121D01*
X116113027Y-74821985D01*
X116123666Y-74930000D01*
X116113027Y-75038015D01*
X116081521Y-75141879D01*
X116030356Y-75237600D01*
X115961501Y-75321501D01*
X115877600Y-75390356D01*
X115781879Y-75441521D01*
X115678015Y-75473027D01*
X115597067Y-75481000D01*
X115542933Y-75481000D01*
X115461985Y-75473027D01*
X115358121Y-75441521D01*
X115262400Y-75390356D01*
X115178499Y-75321501D01*
X115109644Y-75237600D01*
X115058479Y-75141879D01*
X115026973Y-75038015D01*
X115016334Y-74930000D01*
X115026973Y-74821985D01*
X115058479Y-74718121D01*
X115109644Y-74622400D01*
X115178499Y-74538499D01*
X115262400Y-74469644D01*
X115358121Y-74418479D01*
X115370858Y-74414615D01*
X115393493Y-74405240D01*
X115413867Y-74391626D01*
X115431194Y-74374299D01*
X115444808Y-74353924D01*
X115454186Y-74331285D01*
X115458966Y-74307252D01*
X115458966Y-74282748D01*
X115454185Y-74258714D01*
X115444808Y-74236075D01*
X115431194Y-74215701D01*
X115413867Y-74198374D01*
X115393492Y-74184760D01*
X115370858Y-74175385D01*
X115358121Y-74171521D01*
X115262400Y-74120356D01*
X115178499Y-74051501D01*
X115109644Y-73967600D01*
X115058479Y-73871879D01*
X115026973Y-73768015D01*
X115016334Y-73660000D01*
X115026973Y-73551985D01*
X115058479Y-73448121D01*
X115109644Y-73352400D01*
X115178499Y-73268499D01*
X115262400Y-73199644D01*
X115358121Y-73148479D01*
X115370858Y-73144615D01*
X115393493Y-73135240D01*
X115413867Y-73121626D01*
X115431194Y-73104299D01*
X115444808Y-73083924D01*
X115454186Y-73061285D01*
X115458966Y-73037252D01*
X115458966Y-73012748D01*
X115454185Y-72988714D01*
X115444808Y-72966075D01*
X115431194Y-72945701D01*
X115413867Y-72928374D01*
X115393492Y-72914760D01*
X115370858Y-72905385D01*
X115358121Y-72901521D01*
X115262400Y-72850356D01*
X115178499Y-72781501D01*
X115109644Y-72697600D01*
X115058479Y-72601879D01*
X115026973Y-72498015D01*
X115016334Y-72390000D01*
X115026973Y-72281985D01*
X115058479Y-72178121D01*
X115109644Y-72082400D01*
X115178499Y-71998499D01*
X115262400Y-71929644D01*
X115306195Y-71906234D01*
X115326561Y-71892626D01*
X115343889Y-71875299D01*
X115357502Y-71854924D01*
X115366880Y-71832285D01*
X115371660Y-71808252D01*
X115371660Y-71783748D01*
X115366879Y-71759714D01*
X115357502Y-71737075D01*
X115343888Y-71716701D01*
X115326561Y-71699373D01*
X115306186Y-71685760D01*
X115283547Y-71676382D01*
X115247262Y-71671000D01*
X115019000Y-71671000D01*
X115019000Y-70569000D01*
X116121000Y-70569000D01*
X116121000Y-71671000D01*
X116121000Y-71671000D01*
G37*
G36*
X140251000Y-71671000D02*
X140022738Y-71671000D01*
X139998352Y-71673402D01*
X139974903Y-71680515D01*
X139953292Y-71692066D01*
X139934350Y-71707612D01*
X139918804Y-71726554D01*
X139907253Y-71748165D01*
X139900140Y-71771614D01*
X139897738Y-71796000D01*
X139900140Y-71820386D01*
X139907253Y-71843835D01*
X139918804Y-71865446D01*
X139934350Y-71884388D01*
X139963808Y-71906236D01*
X140007600Y-71929644D01*
X140091501Y-71998499D01*
X140160356Y-72082400D01*
X140211521Y-72178121D01*
X140243027Y-72281985D01*
X140253666Y-72390000D01*
X140243027Y-72498015D01*
X140211521Y-72601879D01*
X140160356Y-72697600D01*
X140091501Y-72781501D01*
X140007600Y-72850356D01*
X139911879Y-72901521D01*
X139899142Y-72905385D01*
X139876507Y-72914760D01*
X139856133Y-72928374D01*
X139838806Y-72945701D01*
X139825192Y-72966076D01*
X139815814Y-72988715D01*
X139811034Y-73012748D01*
X139811034Y-73037252D01*
X139815815Y-73061286D01*
X139825192Y-73083925D01*
X139838806Y-73104299D01*
X139856133Y-73121626D01*
X139876508Y-73135240D01*
X139899142Y-73144615D01*
X139911879Y-73148479D01*
X140007600Y-73199644D01*
X140091501Y-73268499D01*
X140160356Y-73352400D01*
X140211521Y-73448121D01*
X140243027Y-73551985D01*
X140253666Y-73660000D01*
X140243027Y-73768015D01*
X140211521Y-73871879D01*
X140160356Y-73967600D01*
X140091501Y-74051501D01*
X140007600Y-74120356D01*
X139911879Y-74171521D01*
X139899142Y-74175385D01*
X139876507Y-74184760D01*
X139856133Y-74198374D01*
X139838806Y-74215701D01*
X139825192Y-74236076D01*
X139815814Y-74258715D01*
X139811034Y-74282748D01*
X139811034Y-74307252D01*
X139815815Y-74331286D01*
X139825192Y-74353925D01*
X139838806Y-74374299D01*
X139856133Y-74391626D01*
X139876508Y-74405240D01*
X139899142Y-74414615D01*
X139911879Y-74418479D01*
X140007600Y-74469644D01*
X140091501Y-74538499D01*
X140160356Y-74622400D01*
X140211521Y-74718121D01*
X140243027Y-74821985D01*
X140253666Y-74930000D01*
X140243027Y-75038015D01*
X140211521Y-75141879D01*
X140160356Y-75237600D01*
X140091501Y-75321501D01*
X140007600Y-75390356D01*
X139911879Y-75441521D01*
X139808015Y-75473027D01*
X139727067Y-75481000D01*
X139672933Y-75481000D01*
X139591985Y-75473027D01*
X139488121Y-75441521D01*
X139392400Y-75390356D01*
X139308499Y-75321501D01*
X139239644Y-75237600D01*
X139188479Y-75141879D01*
X139156973Y-75038015D01*
X139146334Y-74930000D01*
X139156973Y-74821985D01*
X139188479Y-74718121D01*
X139239644Y-74622400D01*
X139308499Y-74538499D01*
X139392400Y-74469644D01*
X139488121Y-74418479D01*
X139500858Y-74414615D01*
X139523493Y-74405240D01*
X139543867Y-74391626D01*
X139561194Y-74374299D01*
X139574808Y-74353924D01*
X139584186Y-74331285D01*
X139588966Y-74307252D01*
X139588966Y-74282748D01*
X139584185Y-74258714D01*
X139574808Y-74236075D01*
X139561194Y-74215701D01*
X139543867Y-74198374D01*
X139523492Y-74184760D01*
X139500858Y-74175385D01*
X139488121Y-74171521D01*
X139392400Y-74120356D01*
X139308499Y-74051501D01*
X139239644Y-73967600D01*
X139188479Y-73871879D01*
X139156973Y-73768015D01*
X139146334Y-73660000D01*
X139156973Y-73551985D01*
X139188479Y-73448121D01*
X139239644Y-73352400D01*
X139308499Y-73268499D01*
X139392400Y-73199644D01*
X139488121Y-73148479D01*
X139500858Y-73144615D01*
X139523493Y-73135240D01*
X139543867Y-73121626D01*
X139561194Y-73104299D01*
X139574808Y-73083924D01*
X139584186Y-73061285D01*
X139588966Y-73037252D01*
X139588966Y-73012748D01*
X139584185Y-72988714D01*
X139574808Y-72966075D01*
X139561194Y-72945701D01*
X139543867Y-72928374D01*
X139523492Y-72914760D01*
X139500858Y-72905385D01*
X139488121Y-72901521D01*
X139392400Y-72850356D01*
X139308499Y-72781501D01*
X139239644Y-72697600D01*
X139188479Y-72601879D01*
X139156973Y-72498015D01*
X139146334Y-72390000D01*
X139156973Y-72281985D01*
X139188479Y-72178121D01*
X139239644Y-72082400D01*
X139308499Y-71998499D01*
X139392400Y-71929644D01*
X139436195Y-71906234D01*
X139456561Y-71892626D01*
X139473889Y-71875299D01*
X139487502Y-71854924D01*
X139496880Y-71832285D01*
X139501660Y-71808252D01*
X139501660Y-71783748D01*
X139496879Y-71759714D01*
X139487502Y-71737075D01*
X139473888Y-71716701D01*
X139456561Y-71699373D01*
X139436186Y-71685760D01*
X139413547Y-71676382D01*
X139377262Y-71671000D01*
X139149000Y-71671000D01*
X139149000Y-70569000D01*
X140251000Y-70569000D01*
X140251000Y-71671000D01*
X140251000Y-71671000D01*
G37*
G36*
X131934015Y-62448973D02*
X132037879Y-62480479D01*
X132133600Y-62531644D01*
X132217501Y-62600499D01*
X132286356Y-62684400D01*
X132337521Y-62780121D01*
X132341383Y-62792854D01*
X132350760Y-62815493D01*
X132364374Y-62835867D01*
X132381701Y-62853194D01*
X132402076Y-62866808D01*
X132424715Y-62876186D01*
X132448748Y-62880966D01*
X132473252Y-62880966D01*
X132497286Y-62876185D01*
X132519925Y-62866808D01*
X132540299Y-62853194D01*
X132557626Y-62835867D01*
X132571240Y-62815492D01*
X132580617Y-62792854D01*
X132584479Y-62780121D01*
X132635644Y-62684400D01*
X132704499Y-62600499D01*
X132788400Y-62531644D01*
X132884121Y-62480479D01*
X132987985Y-62448973D01*
X133068933Y-62441000D01*
X133123067Y-62441000D01*
X133204015Y-62448973D01*
X133307879Y-62480479D01*
X133403600Y-62531644D01*
X133487501Y-62600499D01*
X133556356Y-62684400D01*
X133607521Y-62780121D01*
X133611383Y-62792854D01*
X133620760Y-62815493D01*
X133634374Y-62835867D01*
X133651701Y-62853194D01*
X133672076Y-62866808D01*
X133694715Y-62876186D01*
X133718748Y-62880966D01*
X133743252Y-62880966D01*
X133767286Y-62876185D01*
X133789925Y-62866808D01*
X133810299Y-62853194D01*
X133827626Y-62835867D01*
X133841240Y-62815492D01*
X133850617Y-62792854D01*
X133854479Y-62780121D01*
X133905644Y-62684400D01*
X133974499Y-62600499D01*
X134058400Y-62531644D01*
X134154121Y-62480479D01*
X134257985Y-62448973D01*
X134338933Y-62441000D01*
X134393067Y-62441000D01*
X134474015Y-62448973D01*
X134577879Y-62480479D01*
X134673600Y-62531644D01*
X134757501Y-62600499D01*
X134826356Y-62684400D01*
X134849766Y-62728195D01*
X134863374Y-62748561D01*
X134880701Y-62765889D01*
X134901076Y-62779502D01*
X134923715Y-62788880D01*
X134947748Y-62793660D01*
X134972252Y-62793660D01*
X134996286Y-62788879D01*
X135018925Y-62779502D01*
X135039299Y-62765888D01*
X135056627Y-62748561D01*
X135070240Y-62728186D01*
X135079618Y-62705547D01*
X135085000Y-62669262D01*
X135085000Y-62441000D01*
X136187000Y-62441000D01*
X136187000Y-63543000D01*
X135085000Y-63543000D01*
X135085000Y-63314738D01*
X135082598Y-63290352D01*
X135075485Y-63266903D01*
X135063934Y-63245292D01*
X135048388Y-63226350D01*
X135029446Y-63210804D01*
X135007835Y-63199253D01*
X134984386Y-63192140D01*
X134960000Y-63189738D01*
X134935614Y-63192140D01*
X134912165Y-63199253D01*
X134890554Y-63210804D01*
X134871612Y-63226350D01*
X134849764Y-63255808D01*
X134826356Y-63299600D01*
X134757501Y-63383501D01*
X134673600Y-63452356D01*
X134577879Y-63503521D01*
X134474015Y-63535027D01*
X134393067Y-63543000D01*
X134338933Y-63543000D01*
X134257985Y-63535027D01*
X134154121Y-63503521D01*
X134058400Y-63452356D01*
X133974499Y-63383501D01*
X133905644Y-63299600D01*
X133854479Y-63203879D01*
X133850615Y-63191142D01*
X133841240Y-63168507D01*
X133827626Y-63148133D01*
X133810299Y-63130806D01*
X133789924Y-63117192D01*
X133767285Y-63107814D01*
X133743252Y-63103034D01*
X133718748Y-63103034D01*
X133694714Y-63107815D01*
X133672075Y-63117192D01*
X133651701Y-63130806D01*
X133634374Y-63148133D01*
X133620760Y-63168508D01*
X133611385Y-63191142D01*
X133607521Y-63203879D01*
X133556356Y-63299600D01*
X133487501Y-63383501D01*
X133403600Y-63452356D01*
X133307879Y-63503521D01*
X133204015Y-63535027D01*
X133123067Y-63543000D01*
X133068933Y-63543000D01*
X132987985Y-63535027D01*
X132884121Y-63503521D01*
X132788400Y-63452356D01*
X132704499Y-63383501D01*
X132635644Y-63299600D01*
X132584479Y-63203879D01*
X132580615Y-63191142D01*
X132571240Y-63168507D01*
X132557626Y-63148133D01*
X132540299Y-63130806D01*
X132519924Y-63117192D01*
X132497285Y-63107814D01*
X132473252Y-63103034D01*
X132448748Y-63103034D01*
X132424714Y-63107815D01*
X132402075Y-63117192D01*
X132381701Y-63130806D01*
X132364374Y-63148133D01*
X132350760Y-63168508D01*
X132341385Y-63191142D01*
X132337521Y-63203879D01*
X132286356Y-63299600D01*
X132217501Y-63383501D01*
X132133600Y-63452356D01*
X132037879Y-63503521D01*
X131934015Y-63535027D01*
X131853067Y-63543000D01*
X131798933Y-63543000D01*
X131717985Y-63535027D01*
X131614121Y-63503521D01*
X131518400Y-63452356D01*
X131434499Y-63383501D01*
X131365644Y-63299600D01*
X131314479Y-63203879D01*
X131282973Y-63100015D01*
X131272334Y-62992000D01*
X131282973Y-62883985D01*
X131314479Y-62780121D01*
X131365644Y-62684400D01*
X131434499Y-62600499D01*
X131518400Y-62531644D01*
X131614121Y-62480479D01*
X131717985Y-62448973D01*
X131798933Y-62441000D01*
X131853067Y-62441000D01*
X131934015Y-62448973D01*
X131934015Y-62448973D01*
G37*
G36*
X121774015Y-62448973D02*
X121877879Y-62480479D01*
X121973600Y-62531644D01*
X122057501Y-62600499D01*
X122126356Y-62684400D01*
X122149766Y-62728195D01*
X122163374Y-62748561D01*
X122180701Y-62765889D01*
X122201076Y-62779502D01*
X122223715Y-62788880D01*
X122247748Y-62793660D01*
X122272252Y-62793660D01*
X122296286Y-62788879D01*
X122318925Y-62779502D01*
X122339299Y-62765888D01*
X122356627Y-62748561D01*
X122370240Y-62728186D01*
X122379618Y-62705547D01*
X122385000Y-62669262D01*
X122385000Y-62441000D01*
X123487000Y-62441000D01*
X123487000Y-63543000D01*
X122385000Y-63543000D01*
X122385000Y-63314738D01*
X122382598Y-63290352D01*
X122375485Y-63266903D01*
X122363934Y-63245292D01*
X122348388Y-63226350D01*
X122329446Y-63210804D01*
X122307835Y-63199253D01*
X122284386Y-63192140D01*
X122260000Y-63189738D01*
X122235614Y-63192140D01*
X122212165Y-63199253D01*
X122190554Y-63210804D01*
X122171612Y-63226350D01*
X122149764Y-63255808D01*
X122126356Y-63299600D01*
X122057501Y-63383501D01*
X121973600Y-63452356D01*
X121877879Y-63503521D01*
X121774015Y-63535027D01*
X121693067Y-63543000D01*
X121638933Y-63543000D01*
X121557985Y-63535027D01*
X121454121Y-63503521D01*
X121358400Y-63452356D01*
X121274499Y-63383501D01*
X121205644Y-63299600D01*
X121154479Y-63203879D01*
X121122973Y-63100015D01*
X121112334Y-62992000D01*
X121122973Y-62883985D01*
X121154479Y-62780121D01*
X121205644Y-62684400D01*
X121274499Y-62600499D01*
X121358400Y-62531644D01*
X121454121Y-62480479D01*
X121557985Y-62448973D01*
X121638933Y-62441000D01*
X121693067Y-62441000D01*
X121774015Y-62448973D01*
X121774015Y-62448973D01*
G37*
M02*
