  0
SECTION
  2
HEADER
  9
$ANGBASE
  50
0.0
  9
$ANGDIR
  70
  1
  9
$MEASUREMENT
  70
0
  0
ENDSEC
  0
SECTION
  2
TABLES
  0
TABLE
  2
LTYPE
  70
4
  0
LTYPE
  5
40F
  2
CONTINUOUS
  70
0
  3
Solid line
  72
65
  73
0
  40
0.0
  0
LTYPE
  5
410
  2
DASHDOT
 70
0
  3
Dash Dot ____ _ ____ _
 72
65
 73
4
 40
2.0
 49
1.25
 49
-0.25
 49
0.25
 49
-0.25
  0
LTYPE
  5
411
  2
DASHED
 70
0
  3
Dashed __ __ __ __ __
 72
65
 73
2
 40
0.75
 49
0.5
 49
-0.25
  0
LTYPE
  5
43B
  2
DOTTED
 70
0
  3
Dotted .  .  .  .
 72
65
 73
2
 40
0.2
 49
0.0
 49
-0.2
  0
ENDTAB
  0
TABLE
  2
STYLE
  70
4
  0
STYLE
  2
KICAD
  70
0
  40
0
  41
1
  42
1
  50
0
  71
0
  3
isocp.shx
  0
STYLE
  2
KICADB
  70
0
  40
0
  41
1
  42
1
  50
0
  71
0
  3
isocp.shx
  0
STYLE
  2
KICADI
  70
0
  40
0
  41
1
  42
1
  50
15
  71
0
  3
isocp.shx
  0
STYLE
  2
KICADBI
  70
0
  40
0
  41
1
  42
1
  50
15
  71
0
  3
isocp.shx
  0
ENDTAB
  0
TABLE
  2
LAYER
  70
30
  0
LAYER
  2
BLACK
  70
0
  62
7
  6
CONTINUOUS
  0
LAYER
  2
GRAY1
  70
0
  62
251
  6
CONTINUOUS
  0
LAYER
  2
GRAY2
  70
0
  62
8
  6
CONTINUOUS
  0
LAYER
  2
GRAY3
  70
0
  62
9
  6
CONTINUOUS
  0
LAYER
  2
WHITE
  70
0
  62
7
  6
CONTINUOUS
  0
LAYER
  2
LYELLOW
  70
0
  62
51
  6
CONTINUOUS
  0
LAYER
  2
BLUE1
  70
0
  62
178
  6
CONTINUOUS
  0
LAYER
  2
GREEN1
  70
0
  62
98
  6
CONTINUOUS
  0
LAYER
  2
CYAN1
  70
0
  62
138
  6
CONTINUOUS
  0
LAYER
  2
RED1
  70
0
  62
18
  6
CONTINUOUS
  0
LAYER
  2
MAGENTA1
  70
0
  62
228
  6
CONTINUOUS
  0
LAYER
  2
BROWN1
  70
0
  62
58
  6
CONTINUOUS
  0
LAYER
  2
BLUE2
  70
0
  62
5
  6
CONTINUOUS
  0
LAYER
  2
GREEN2
  70
0
  62
3
  6
CONTINUOUS
  0
LAYER
  2
CYAN2
  70
0
  62
4
  6
CONTINUOUS
  0
LAYER
  2
RED2
  70
0
  62
1
  6
CONTINUOUS
  0
LAYER
  2
MAGENTA2
  70
0
  62
6
  6
CONTINUOUS
  0
LAYER
  2
BROWN2
  70
0
  62
54
  6
CONTINUOUS
  0
LAYER
  2
BLUE3
  70
0
  62
171
  6
CONTINUOUS
  0
LAYER
  2
GREEN3
  70
0
  62
91
  6
CONTINUOUS
  0
LAYER
  2
CYAN3
  70
0
  62
131
  6
CONTINUOUS
  0
LAYER
  2
RED3
  70
0
  62
11
  6
CONTINUOUS
  0
LAYER
  2
MAGENTA3
  70
0
  62
221
  6
CONTINUOUS
  0
LAYER
  2
YELLOW3
  70
0
  62
2
  6
CONTINUOUS
  0
LAYER
  2
BLUE4
  70
0
  62
5
  6
CONTINUOUS
  0
LAYER
  2
GREEN4
  70
0
  62
3
  6
CONTINUOUS
  0
LAYER
  2
CYAN4
  70
0
  62
4
  6
CONTINUOUS
  0
LAYER
  2
RED4
  70
0
  62
1
  6
CONTINUOUS
  0
LAYER
  2
MAGENTA4
  70
0
  62
6
  6
CONTINUOUS
  0
LAYER
  2
YELLOW4
  70
0
  62
2
  6
CONTINUOUS
  0
ENDTAB
  0
ENDSEC
  0
SECTION
  2
ENTITIES
0
LINE
8
BLACK
6
CONTINUOUS
10
177.002
20
-166.007
11
177.002
21
-198.007
0
LINE
8
BLACK
6
CONTINUOUS
10
177.002
20
-198.007
11
285.002
21
-198.007
0
LINE
8
BLACK
6
CONTINUOUS
10
285.002
20
-198.007
11
285.002
21
-166.007
0
LINE
8
BLACK
6
CONTINUOUS
10
285.002
20
-166.007
11
177.002
21
-166.007
0
LINE
8
BLACK
6
CONTINUOUS
10
10
20
-10
11
10
21
-200.007
0
LINE
8
BLACK
6
CONTINUOUS
10
10
20
-200.007
11
287.002
21
-200.007
0
LINE
8
BLACK
6
CONTINUOUS
10
287.002
20
-200.007
11
287.002
21
-10
0
LINE
8
BLACK
6
CONTINUOUS
10
287.002
20
-10
11
10
21
-10
0
LINE
8
BLACK
6
CONTINUOUS
10
12
20
-12
11
12
21
-198.007
0
LINE
8
BLACK
6
CONTINUOUS
10
12
20
-198.007
11
285.002
21
-198.007
0
LINE
8
BLACK
6
CONTINUOUS
10
285.002
20
-198.007
11
285.002
21
-12
0
LINE
8
BLACK
6
CONTINUOUS
10
285.002
20
-12
11
12
21
-12
0
LINE
8
BLACK
6
CONTINUOUS
10
60
20
-12
11
60
21
-10
0
LINE
8
BLACK
6
CONTINUOUS
10
110
20
-12
11
110
21
-10
0
LINE
8
BLACK
6
CONTINUOUS
10
160
20
-12
11
160
21
-10
0
LINE
8
BLACK
6
CONTINUOUS
10
210
20
-12
11
210
21
-10
0
LINE
8
BLACK
6
CONTINUOUS
10
260
20
-12
11
260
21
-10
0
LINE
8
BLACK
6
CONTINUOUS
10
36.0655
20
-11.5881
11
35.3226
21
-11.5881
0
LINE
8
BLACK
6
CONTINUOUS
10
35.694
20
-11.5881
11
35.694
21
-10.2881
0
LINE
8
BLACK
6
CONTINUOUS
10
35.694
20
-10.2881
11
35.5702
21
-10.4738
0
LINE
8
BLACK
6
CONTINUOUS
10
35.5702
20
-10.4738
11
35.4464
21
-10.5976
0
LINE
8
BLACK
6
CONTINUOUS
10
35.4464
20
-10.5976
11
35.3226
21
-10.6595
0
LINE
8
BLACK
6
CONTINUOUS
10
85.3226
20
-10.4119
11
85.3845
21
-10.35
0
LINE
8
BLACK
6
CONTINUOUS
10
85.3845
20
-10.35
11
85.5083
21
-10.2881
0
LINE
8
BLACK
6
CONTINUOUS
10
85.5083
20
-10.2881
11
85.8179
21
-10.2881
0
LINE
8
BLACK
6
CONTINUOUS
10
85.8179
20
-10.2881
11
85.9417
21
-10.35
0
LINE
8
BLACK
6
CONTINUOUS
10
85.9417
20
-10.35
11
86.0036
21
-10.4119
0
LINE
8
BLACK
6
CONTINUOUS
10
86.0036
20
-10.4119
11
86.0655
21
-10.5357
0
LINE
8
BLACK
6
CONTINUOUS
10
86.0655
20
-10.5357
11
86.0655
21
-10.6595
0
LINE
8
BLACK
6
CONTINUOUS
10
86.0655
20
-10.6595
11
86.0036
21
-10.8452
0
LINE
8
BLACK
6
CONTINUOUS
10
86.0036
20
-10.8452
11
85.2607
21
-11.5881
0
LINE
8
BLACK
6
CONTINUOUS
10
85.2607
20
-11.5881
11
86.0655
21
-11.5881
0
LINE
8
BLACK
6
CONTINUOUS
10
135.261
20
-10.2881
11
136.065
21
-10.2881
0
LINE
8
BLACK
6
CONTINUOUS
10
136.065
20
-10.2881
11
135.632
21
-10.7833
0
LINE
8
BLACK
6
CONTINUOUS
10
135.632
20
-10.7833
11
135.818
21
-10.7833
0
LINE
8
BLACK
6
CONTINUOUS
10
135.818
20
-10.7833
11
135.942
21
-10.8452
0
LINE
8
BLACK
6
CONTINUOUS
10
135.942
20
-10.8452
11
136.004
21
-10.9071
0
LINE
8
BLACK
6
CONTINUOUS
10
136.004
20
-10.9071
11
136.065
21
-11.031
0
LINE
8
BLACK
6
CONTINUOUS
10
136.065
20
-11.031
11
136.065
21
-11.3405
0
LINE
8
BLACK
6
CONTINUOUS
10
136.065
20
-11.3405
11
136.004
21
-11.4643
0
LINE
8
BLACK
6
CONTINUOUS
10
136.004
20
-11.4643
11
135.942
21
-11.5262
0
LINE
8
BLACK
6
CONTINUOUS
10
135.942
20
-11.5262
11
135.818
21
-11.5881
0
LINE
8
BLACK
6
CONTINUOUS
10
135.818
20
-11.5881
11
135.446
21
-11.5881
0
LINE
8
BLACK
6
CONTINUOUS
10
135.446
20
-11.5881
11
135.323
21
-11.5262
0
LINE
8
BLACK
6
CONTINUOUS
10
135.323
20
-11.5262
11
135.261
21
-11.4643
0
LINE
8
BLACK
6
CONTINUOUS
10
185.942
20
-10.7214
11
185.942
21
-11.5881
0
LINE
8
BLACK
6
CONTINUOUS
10
185.632
20
-10.2262
11
185.323
21
-11.1548
0
LINE
8
BLACK
6
CONTINUOUS
10
185.323
20
-11.1548
11
186.127
21
-11.1548
0
LINE
8
BLACK
6
CONTINUOUS
10
236.004
20
-10.2881
11
235.385
21
-10.2881
0
LINE
8
BLACK
6
CONTINUOUS
10
235.385
20
-10.2881
11
235.323
21
-10.9071
0
LINE
8
BLACK
6
CONTINUOUS
10
235.323
20
-10.9071
11
235.385
21
-10.8452
0
LINE
8
BLACK
6
CONTINUOUS
10
235.385
20
-10.8452
11
235.508
21
-10.7833
0
LINE
8
BLACK
6
CONTINUOUS
10
235.508
20
-10.7833
11
235.818
21
-10.7833
0
LINE
8
BLACK
6
CONTINUOUS
10
235.818
20
-10.7833
11
235.942
21
-10.8452
0
LINE
8
BLACK
6
CONTINUOUS
10
235.942
20
-10.8452
11
236.004
21
-10.9071
0
LINE
8
BLACK
6
CONTINUOUS
10
236.004
20
-10.9071
11
236.065
21
-11.031
0
LINE
8
BLACK
6
CONTINUOUS
10
236.065
20
-11.031
11
236.065
21
-11.3405
0
LINE
8
BLACK
6
CONTINUOUS
10
236.065
20
-11.3405
11
236.004
21
-11.4643
0
LINE
8
BLACK
6
CONTINUOUS
10
236.004
20
-11.4643
11
235.942
21
-11.5262
0
LINE
8
BLACK
6
CONTINUOUS
10
235.942
20
-11.5262
11
235.818
21
-11.5881
0
LINE
8
BLACK
6
CONTINUOUS
10
235.818
20
-11.5881
11
235.508
21
-11.5881
0
LINE
8
BLACK
6
CONTINUOUS
10
235.508
20
-11.5881
11
235.385
21
-11.5262
0
LINE
8
BLACK
6
CONTINUOUS
10
235.385
20
-11.5262
11
235.323
21
-11.4643
0
LINE
8
BLACK
6
CONTINUOUS
10
285.942
20
-10.2881
11
285.694
21
-10.2881
0
LINE
8
BLACK
6
CONTINUOUS
10
285.694
20
-10.2881
11
285.57
21
-10.35
0
LINE
8
BLACK
6
CONTINUOUS
10
285.57
20
-10.35
11
285.508
21
-10.4119
0
LINE
8
BLACK
6
CONTINUOUS
10
285.508
20
-10.4119
11
285.385
21
-10.5976
0
LINE
8
BLACK
6
CONTINUOUS
10
285.385
20
-10.5976
11
285.323
21
-10.8452
0
LINE
8
BLACK
6
CONTINUOUS
10
285.323
20
-10.8452
11
285.323
21
-11.3405
0
LINE
8
BLACK
6
CONTINUOUS
10
285.323
20
-11.3405
11
285.385
21
-11.4643
0
LINE
8
BLACK
6
CONTINUOUS
10
285.385
20
-11.4643
11
285.446
21
-11.5262
0
LINE
8
BLACK
6
CONTINUOUS
10
285.446
20
-11.5262
11
285.57
21
-11.5881
0
LINE
8
BLACK
6
CONTINUOUS
10
285.57
20
-11.5881
11
285.818
21
-11.5881
0
LINE
8
BLACK
6
CONTINUOUS
10
285.818
20
-11.5881
11
285.942
21
-11.5262
0
LINE
8
BLACK
6
CONTINUOUS
10
285.942
20
-11.5262
11
286.004
21
-11.4643
0
LINE
8
BLACK
6
CONTINUOUS
10
286.004
20
-11.4643
11
286.065
21
-11.3405
0
LINE
8
BLACK
6
CONTINUOUS
10
286.065
20
-11.3405
11
286.065
21
-11.031
0
LINE
8
BLACK
6
CONTINUOUS
10
286.065
20
-11.031
11
286.004
21
-10.9071
0
LINE
8
BLACK
6
CONTINUOUS
10
286.004
20
-10.9071
11
285.942
21
-10.8452
0
LINE
8
BLACK
6
CONTINUOUS
10
285.942
20
-10.8452
11
285.818
21
-10.7833
0
LINE
8
BLACK
6
CONTINUOUS
10
285.818
20
-10.7833
11
285.57
21
-10.7833
0
LINE
8
BLACK
6
CONTINUOUS
10
285.57
20
-10.7833
11
285.446
21
-10.8452
0
LINE
8
BLACK
6
CONTINUOUS
10
285.446
20
-10.8452
11
285.385
21
-10.9071
0
LINE
8
BLACK
6
CONTINUOUS
10
285.385
20
-10.9071
11
285.323
21
-11.031
0
LINE
8
BLACK
6
CONTINUOUS
10
60
20
-198.007
11
60
21
-200.007
0
LINE
8
BLACK
6
CONTINUOUS
10
110
20
-198.007
11
110
21
-200.007
0
LINE
8
BLACK
6
CONTINUOUS
10
160
20
-198.007
11
160
21
-200.007
0
LINE
8
BLACK
6
CONTINUOUS
10
210
20
-198.007
11
210
21
-200.007
0
LINE
8
BLACK
6
CONTINUOUS
10
260
20
-198.007
11
260
21
-200.007
0
LINE
8
BLACK
6
CONTINUOUS
10
36.0655
20
-199.595
11
35.3226
21
-199.595
0
LINE
8
BLACK
6
CONTINUOUS
10
35.694
20
-199.595
11
35.694
21
-198.295
0
LINE
8
BLACK
6
CONTINUOUS
10
35.694
20
-198.295
11
35.5702
21
-198.481
0
LINE
8
BLACK
6
CONTINUOUS
10
35.5702
20
-198.481
11
35.4464
21
-198.605
0
LINE
8
BLACK
6
CONTINUOUS
10
35.4464
20
-198.605
11
35.3226
21
-198.667
0
LINE
8
BLACK
6
CONTINUOUS
10
85.3226
20
-198.419
11
85.3845
21
-198.357
0
LINE
8
BLACK
6
CONTINUOUS
10
85.3845
20
-198.357
11
85.5083
21
-198.295
0
LINE
8
BLACK
6
CONTINUOUS
10
85.5083
20
-198.295
11
85.8179
21
-198.295
0
LINE
8
BLACK
6
CONTINUOUS
10
85.8179
20
-198.295
11
85.9417
21
-198.357
0
LINE
8
BLACK
6
CONTINUOUS
10
85.9417
20
-198.357
11
86.0036
21
-198.419
0
LINE
8
BLACK
6
CONTINUOUS
10
86.0036
20
-198.419
11
86.0655
21
-198.543
0
LINE
8
BLACK
6
CONTINUOUS
10
86.0655
20
-198.543
11
86.0655
21
-198.667
0
LINE
8
BLACK
6
CONTINUOUS
10
86.0655
20
-198.667
11
86.0036
21
-198.852
0
LINE
8
BLACK
6
CONTINUOUS
10
86.0036
20
-198.852
11
85.2607
21
-199.595
0
LINE
8
BLACK
6
CONTINUOUS
10
85.2607
20
-199.595
11
86.0655
21
-199.595
0
LINE
8
BLACK
6
CONTINUOUS
10
135.261
20
-198.295
11
136.065
21
-198.295
0
LINE
8
BLACK
6
CONTINUOUS
10
136.065
20
-198.295
11
135.632
21
-198.791
0
LINE
8
BLACK
6
CONTINUOUS
10
135.632
20
-198.791
11
135.818
21
-198.791
0
LINE
8
BLACK
6
CONTINUOUS
10
135.818
20
-198.791
11
135.942
21
-198.852
0
LINE
8
BLACK
6
CONTINUOUS
10
135.942
20
-198.852
11
136.004
21
-198.914
0
LINE
8
BLACK
6
CONTINUOUS
10
136.004
20
-198.914
11
136.065
21
-199.038
0
LINE
8
BLACK
6
CONTINUOUS
10
136.065
20
-199.038
11
136.065
21
-199.348
0
LINE
8
BLACK
6
CONTINUOUS
10
136.065
20
-199.348
11
136.004
21
-199.471
0
LINE
8
BLACK
6
CONTINUOUS
10
136.004
20
-199.471
11
135.942
21
-199.533
0
LINE
8
BLACK
6
CONTINUOUS
10
135.942
20
-199.533
11
135.818
21
-199.595
0
LINE
8
BLACK
6
CONTINUOUS
10
135.818
20
-199.595
11
135.446
21
-199.595
0
LINE
8
BLACK
6
CONTINUOUS
10
135.446
20
-199.595
11
135.323
21
-199.533
0
LINE
8
BLACK
6
CONTINUOUS
10
135.323
20
-199.533
11
135.261
21
-199.471
0
LINE
8
BLACK
6
CONTINUOUS
10
185.942
20
-198.729
11
185.942
21
-199.595
0
LINE
8
BLACK
6
CONTINUOUS
10
185.632
20
-198.233
11
185.323
21
-199.162
0
LINE
8
BLACK
6
CONTINUOUS
10
185.323
20
-199.162
11
186.127
21
-199.162
0
LINE
8
BLACK
6
CONTINUOUS
10
236.004
20
-198.295
11
235.385
21
-198.295
0
LINE
8
BLACK
6
CONTINUOUS
10
235.385
20
-198.295
11
235.323
21
-198.914
0
LINE
8
BLACK
6
CONTINUOUS
10
235.323
20
-198.914
11
235.385
21
-198.852
0
LINE
8
BLACK
6
CONTINUOUS
10
235.385
20
-198.852
11
235.508
21
-198.791
0
LINE
8
BLACK
6
CONTINUOUS
10
235.508
20
-198.791
11
235.818
21
-198.791
0
LINE
8
BLACK
6
CONTINUOUS
10
235.818
20
-198.791
11
235.942
21
-198.852
0
LINE
8
BLACK
6
CONTINUOUS
10
235.942
20
-198.852
11
236.004
21
-198.914
0
LINE
8
BLACK
6
CONTINUOUS
10
236.004
20
-198.914
11
236.065
21
-199.038
0
LINE
8
BLACK
6
CONTINUOUS
10
236.065
20
-199.038
11
236.065
21
-199.348
0
LINE
8
BLACK
6
CONTINUOUS
10
236.065
20
-199.348
11
236.004
21
-199.471
0
LINE
8
BLACK
6
CONTINUOUS
10
236.004
20
-199.471
11
235.942
21
-199.533
0
LINE
8
BLACK
6
CONTINUOUS
10
235.942
20
-199.533
11
235.818
21
-199.595
0
LINE
8
BLACK
6
CONTINUOUS
10
235.818
20
-199.595
11
235.508
21
-199.595
0
LINE
8
BLACK
6
CONTINUOUS
10
235.508
20
-199.595
11
235.385
21
-199.533
0
LINE
8
BLACK
6
CONTINUOUS
10
235.385
20
-199.533
11
235.323
21
-199.471
0
LINE
8
BLACK
6
CONTINUOUS
10
285.942
20
-198.295
11
285.694
21
-198.295
0
LINE
8
BLACK
6
CONTINUOUS
10
285.694
20
-198.295
11
285.57
21
-198.357
0
LINE
8
BLACK
6
CONTINUOUS
10
285.57
20
-198.357
11
285.508
21
-198.419
0
LINE
8
BLACK
6
CONTINUOUS
10
285.508
20
-198.419
11
285.385
21
-198.605
0
LINE
8
BLACK
6
CONTINUOUS
10
285.385
20
-198.605
11
285.323
21
-198.852
0
LINE
8
BLACK
6
CONTINUOUS
10
285.323
20
-198.852
11
285.323
21
-199.348
0
LINE
8
BLACK
6
CONTINUOUS
10
285.323
20
-199.348
11
285.385
21
-199.471
0
LINE
8
BLACK
6
CONTINUOUS
10
285.385
20
-199.471
11
285.446
21
-199.533
0
LINE
8
BLACK
6
CONTINUOUS
10
285.446
20
-199.533
11
285.57
21
-199.595
0
LINE
8
BLACK
6
CONTINUOUS
10
285.57
20
-199.595
11
285.818
21
-199.595
0
LINE
8
BLACK
6
CONTINUOUS
10
285.818
20
-199.595
11
285.942
21
-199.533
0
LINE
8
BLACK
6
CONTINUOUS
10
285.942
20
-199.533
11
286.004
21
-199.471
0
LINE
8
BLACK
6
CONTINUOUS
10
286.004
20
-199.471
11
286.065
21
-199.348
0
LINE
8
BLACK
6
CONTINUOUS
10
286.065
20
-199.348
11
286.065
21
-199.038
0
LINE
8
BLACK
6
CONTINUOUS
10
286.065
20
-199.038
11
286.004
21
-198.914
0
LINE
8
BLACK
6
CONTINUOUS
10
286.004
20
-198.914
11
285.942
21
-198.852
0
LINE
8
BLACK
6
CONTINUOUS
10
285.942
20
-198.852
11
285.818
21
-198.791
0
LINE
8
BLACK
6
CONTINUOUS
10
285.818
20
-198.791
11
285.57
21
-198.791
0
LINE
8
BLACK
6
CONTINUOUS
10
285.57
20
-198.791
11
285.446
21
-198.852
0
LINE
8
BLACK
6
CONTINUOUS
10
285.446
20
-198.852
11
285.385
21
-198.914
0
LINE
8
BLACK
6
CONTINUOUS
10
285.385
20
-198.914
11
285.323
21
-199.038
0
LINE
8
BLACK
6
CONTINUOUS
10
10
20
-60
11
12
21
-60
0
LINE
8
BLACK
6
CONTINUOUS
10
10
20
-110
11
12
21
-110
0
LINE
8
BLACK
6
CONTINUOUS
10
10
20
-160
11
12
21
-160
0
LINE
8
BLACK
6
CONTINUOUS
10
10.6905
20
-35.2167
11
11.3095
21
-35.2167
0
LINE
8
BLACK
6
CONTINUOUS
10
10.5667
20
-35.5881
11
11
21
-34.2881
0
LINE
8
BLACK
6
CONTINUOUS
10
11
20
-34.2881
11
11.4333
21
-35.5881
0
LINE
8
BLACK
6
CONTINUOUS
10
11.0929
20
-84.9071
11
11.2786
21
-84.969
0
LINE
8
BLACK
6
CONTINUOUS
10
11.2786
20
-84.969
11
11.3405
21
-85.031
0
LINE
8
BLACK
6
CONTINUOUS
10
11.3405
20
-85.031
11
11.4024
21
-85.1548
0
LINE
8
BLACK
6
CONTINUOUS
10
11.4024
20
-85.1548
11
11.4024
21
-85.3405
0
LINE
8
BLACK
6
CONTINUOUS
10
11.4024
20
-85.3405
11
11.3405
21
-85.4643
0
LINE
8
BLACK
6
CONTINUOUS
10
11.3405
20
-85.4643
11
11.2786
21
-85.5262
0
LINE
8
BLACK
6
CONTINUOUS
10
11.2786
20
-85.5262
11
11.1548
21
-85.5881
0
LINE
8
BLACK
6
CONTINUOUS
10
11.1548
20
-85.5881
11
10.6595
21
-85.5881
0
LINE
8
BLACK
6
CONTINUOUS
10
10.6595
20
-85.5881
11
10.6595
21
-84.2881
0
LINE
8
BLACK
6
CONTINUOUS
10
10.6595
20
-84.2881
11
11.0929
21
-84.2881
0
LINE
8
BLACK
6
CONTINUOUS
10
11.0929
20
-84.2881
11
11.2167
21
-84.35
0
LINE
8
BLACK
6
CONTINUOUS
10
11.2167
20
-84.35
11
11.2786
21
-84.4119
0
LINE
8
BLACK
6
CONTINUOUS
10
11.2786
20
-84.4119
11
11.3405
21
-84.5357
0
LINE
8
BLACK
6
CONTINUOUS
10
11.3405
20
-84.5357
11
11.3405
21
-84.6595
0
LINE
8
BLACK
6
CONTINUOUS
10
11.3405
20
-84.6595
11
11.2786
21
-84.7833
0
LINE
8
BLACK
6
CONTINUOUS
10
11.2786
20
-84.7833
11
11.2167
21
-84.8452
0
LINE
8
BLACK
6
CONTINUOUS
10
11.2167
20
-84.8452
11
11.0929
21
-84.9071
0
LINE
8
BLACK
6
CONTINUOUS
10
11.0929
20
-84.9071
11
10.6595
21
-84.9071
0
LINE
8
BLACK
6
CONTINUOUS
10
11.4024
20
-135.464
11
11.3405
21
-135.526
0
LINE
8
BLACK
6
CONTINUOUS
10
11.3405
20
-135.526
11
11.1548
21
-135.588
0
LINE
8
BLACK
6
CONTINUOUS
10
11.1548
20
-135.588
11
11.031
21
-135.588
0
LINE
8
BLACK
6
CONTINUOUS
10
11.031
20
-135.588
11
10.8452
21
-135.526
0
LINE
8
BLACK
6
CONTINUOUS
10
10.8452
20
-135.526
11
10.7214
21
-135.402
0
LINE
8
BLACK
6
CONTINUOUS
10
10.7214
20
-135.402
11
10.6595
21
-135.279
0
LINE
8
BLACK
6
CONTINUOUS
10
10.6595
20
-135.279
11
10.5976
21
-135.031
0
LINE
8
BLACK
6
CONTINUOUS
10
10.5976
20
-135.031
11
10.5976
21
-134.845
0
LINE
8
BLACK
6
CONTINUOUS
10
10.5976
20
-134.845
11
10.6595
21
-134.598
0
LINE
8
BLACK
6
CONTINUOUS
10
10.6595
20
-134.598
11
10.7214
21
-134.474
0
LINE
8
BLACK
6
CONTINUOUS
10
10.7214
20
-134.474
11
10.8452
21
-134.35
0
LINE
8
BLACK
6
CONTINUOUS
10
10.8452
20
-134.35
11
11.031
21
-134.288
0
LINE
8
BLACK
6
CONTINUOUS
10
11.031
20
-134.288
11
11.1548
21
-134.288
0
LINE
8
BLACK
6
CONTINUOUS
10
11.1548
20
-134.288
11
11.3405
21
-134.35
0
LINE
8
BLACK
6
CONTINUOUS
10
11.3405
20
-134.35
11
11.4024
21
-134.412
0
LINE
8
BLACK
6
CONTINUOUS
10
10.6595
20
-185.588
11
10.6595
21
-184.288
0
LINE
8
BLACK
6
CONTINUOUS
10
10.6595
20
-184.288
11
10.969
21
-184.288
0
LINE
8
BLACK
6
CONTINUOUS
10
10.969
20
-184.288
11
11.1548
21
-184.35
0
LINE
8
BLACK
6
CONTINUOUS
10
11.1548
20
-184.35
11
11.2786
21
-184.474
0
LINE
8
BLACK
6
CONTINUOUS
10
11.2786
20
-184.474
11
11.3405
21
-184.598
0
LINE
8
BLACK
6
CONTINUOUS
10
11.3405
20
-184.598
11
11.4024
21
-184.845
0
LINE
8
BLACK
6
CONTINUOUS
10
11.4024
20
-184.845
11
11.4024
21
-185.031
0
LINE
8
BLACK
6
CONTINUOUS
10
11.4024
20
-185.031
11
11.3405
21
-185.279
0
LINE
8
BLACK
6
CONTINUOUS
10
11.3405
20
-185.279
11
11.2786
21
-185.402
0
LINE
8
BLACK
6
CONTINUOUS
10
11.2786
20
-185.402
11
11.1548
21
-185.526
0
LINE
8
BLACK
6
CONTINUOUS
10
11.1548
20
-185.526
11
10.969
21
-185.588
0
LINE
8
BLACK
6
CONTINUOUS
10
10.969
20
-185.588
11
10.6595
21
-185.588
0
LINE
8
BLACK
6
CONTINUOUS
10
287.002
20
-60
11
285.002
21
-60
0
LINE
8
BLACK
6
CONTINUOUS
10
287.002
20
-110
11
285.002
21
-110
0
LINE
8
BLACK
6
CONTINUOUS
10
287.002
20
-160
11
285.002
21
-160
0
LINE
8
BLACK
6
CONTINUOUS
10
285.693
20
-35.2167
11
286.312
21
-35.2167
0
LINE
8
BLACK
6
CONTINUOUS
10
285.569
20
-35.5881
11
286.002
21
-34.2881
0
LINE
8
BLACK
6
CONTINUOUS
10
286.002
20
-34.2881
11
286.436
21
-35.5881
0
LINE
8
BLACK
6
CONTINUOUS
10
286.095
20
-84.9071
11
286.281
21
-84.969
0
LINE
8
BLACK
6
CONTINUOUS
10
286.281
20
-84.969
11
286.343
21
-85.031
0
LINE
8
BLACK
6
CONTINUOUS
10
286.343
20
-85.031
11
286.405
21
-85.1548
0
LINE
8
BLACK
6
CONTINUOUS
10
286.405
20
-85.1548
11
286.405
21
-85.3405
0
LINE
8
BLACK
6
CONTINUOUS
10
286.405
20
-85.3405
11
286.343
21
-85.4643
0
LINE
8
BLACK
6
CONTINUOUS
10
286.343
20
-85.4643
11
286.281
21
-85.5262
0
LINE
8
BLACK
6
CONTINUOUS
10
286.281
20
-85.5262
11
286.157
21
-85.5881
0
LINE
8
BLACK
6
CONTINUOUS
10
286.157
20
-85.5881
11
285.662
21
-85.5881
0
LINE
8
BLACK
6
CONTINUOUS
10
285.662
20
-85.5881
11
285.662
21
-84.2881
0
LINE
8
BLACK
6
CONTINUOUS
10
285.662
20
-84.2881
11
286.095
21
-84.2881
0
LINE
8
BLACK
6
CONTINUOUS
10
286.095
20
-84.2881
11
286.219
21
-84.35
0
LINE
8
BLACK
6
CONTINUOUS
10
286.219
20
-84.35
11
286.281
21
-84.4119
0
LINE
8
BLACK
6
CONTINUOUS
10
286.281
20
-84.4119
11
286.343
21
-84.5357
0
LINE
8
BLACK
6
CONTINUOUS
10
286.343
20
-84.5357
11
286.343
21
-84.6595
0
LINE
8
BLACK
6
CONTINUOUS
10
286.343
20
-84.6595
11
286.281
21
-84.7833
0
LINE
8
BLACK
6
CONTINUOUS
10
286.281
20
-84.7833
11
286.219
21
-84.8452
0
LINE
8
BLACK
6
CONTINUOUS
10
286.219
20
-84.8452
11
286.095
21
-84.9071
0
LINE
8
BLACK
6
CONTINUOUS
10
286.095
20
-84.9071
11
285.662
21
-84.9071
0
LINE
8
BLACK
6
CONTINUOUS
10
286.405
20
-135.464
11
286.343
21
-135.526
0
LINE
8
BLACK
6
CONTINUOUS
10
286.343
20
-135.526
11
286.157
21
-135.588
0
LINE
8
BLACK
6
CONTINUOUS
10
286.157
20
-135.588
11
286.033
21
-135.588
0
LINE
8
BLACK
6
CONTINUOUS
10
286.033
20
-135.588
11
285.847
21
-135.526
0
LINE
8
BLACK
6
CONTINUOUS
10
285.847
20
-135.526
11
285.724
21
-135.402
0
LINE
8
BLACK
6
CONTINUOUS
10
285.724
20
-135.402
11
285.662
21
-135.279
0
LINE
8
BLACK
6
CONTINUOUS
10
285.662
20
-135.279
11
285.6
21
-135.031
0
LINE
8
BLACK
6
CONTINUOUS
10
285.6
20
-135.031
11
285.6
21
-134.845
0
LINE
8
BLACK
6
CONTINUOUS
10
285.6
20
-134.845
11
285.662
21
-134.598
0
LINE
8
BLACK
6
CONTINUOUS
10
285.662
20
-134.598
11
285.724
21
-134.474
0
LINE
8
BLACK
6
CONTINUOUS
10
285.724
20
-134.474
11
285.847
21
-134.35
0
LINE
8
BLACK
6
CONTINUOUS
10
285.847
20
-134.35
11
286.033
21
-134.288
0
LINE
8
BLACK
6
CONTINUOUS
10
286.033
20
-134.288
11
286.157
21
-134.288
0
LINE
8
BLACK
6
CONTINUOUS
10
286.157
20
-134.288
11
286.343
21
-134.35
0
LINE
8
BLACK
6
CONTINUOUS
10
286.343
20
-134.35
11
286.405
21
-134.412
0
LINE
8
BLACK
6
CONTINUOUS
10
285.662
20
-185.588
11
285.662
21
-184.288
0
LINE
8
BLACK
6
CONTINUOUS
10
285.662
20
-184.288
11
285.971
21
-184.288
0
LINE
8
BLACK
6
CONTINUOUS
10
285.971
20
-184.288
11
286.157
21
-184.35
0
LINE
8
BLACK
6
CONTINUOUS
10
286.157
20
-184.35
11
286.281
21
-184.474
0
LINE
8
BLACK
6
CONTINUOUS
10
286.281
20
-184.474
11
286.343
21
-184.598
0
LINE
8
BLACK
6
CONTINUOUS
10
286.343
20
-184.598
11
286.405
21
-184.845
0
LINE
8
BLACK
6
CONTINUOUS
10
286.405
20
-184.845
11
286.405
21
-185.031
0
LINE
8
BLACK
6
CONTINUOUS
10
286.405
20
-185.031
11
286.343
21
-185.279
0
LINE
8
BLACK
6
CONTINUOUS
10
286.343
20
-185.279
11
286.281
21
-185.402
0
LINE
8
BLACK
6
CONTINUOUS
10
286.281
20
-185.402
11
286.157
21
-185.526
0
LINE
8
BLACK
6
CONTINUOUS
10
286.157
20
-185.526
11
285.971
21
-185.588
0
LINE
8
BLACK
6
CONTINUOUS
10
285.971
20
-185.588
11
285.662
21
-185.588
0
LINE
8
BLACK
6
CONTINUOUS
10
200.434
20
-193.786
11
200.434
21
-192.286
0
LINE
8
BLACK
6
CONTINUOUS
10
200.434
20
-192.286
11
200.791
21
-192.286
0
LINE
8
BLACK
6
CONTINUOUS
10
200.791
20
-192.286
11
201.006
21
-192.357
0
LINE
8
BLACK
6
CONTINUOUS
10
201.006
20
-192.357
11
201.149
21
-192.5
0
LINE
8
BLACK
6
CONTINUOUS
10
201.149
20
-192.5
11
201.22
21
-192.643
0
LINE
8
BLACK
6
CONTINUOUS
10
201.22
20
-192.643
11
201.291
21
-192.929
0
LINE
8
BLACK
6
CONTINUOUS
10
201.291
20
-192.929
11
201.291
21
-193.143
0
LINE
8
BLACK
6
CONTINUOUS
10
201.291
20
-193.143
11
201.22
21
-193.429
0
LINE
8
BLACK
6
CONTINUOUS
10
201.22
20
-193.429
11
201.149
21
-193.571
0
LINE
8
BLACK
6
CONTINUOUS
10
201.149
20
-193.571
11
201.006
21
-193.714
0
LINE
8
BLACK
6
CONTINUOUS
10
201.006
20
-193.714
11
200.791
21
-193.786
0
LINE
8
BLACK
6
CONTINUOUS
10
200.791
20
-193.786
11
200.434
21
-193.786
0
LINE
8
BLACK
6
CONTINUOUS
10
202.577
20
-193.786
11
202.577
21
-193
0
LINE
8
BLACK
6
CONTINUOUS
10
202.577
20
-193
11
202.506
21
-192.857
0
LINE
8
BLACK
6
CONTINUOUS
10
202.506
20
-192.857
11
202.363
21
-192.786
0
LINE
8
BLACK
6
CONTINUOUS
10
202.363
20
-192.786
11
202.077
21
-192.786
0
LINE
8
BLACK
6
CONTINUOUS
10
202.077
20
-192.786
11
201.934
21
-192.857
0
LINE
8
BLACK
6
CONTINUOUS
10
202.577
20
-193.714
11
202.434
21
-193.786
0
LINE
8
BLACK
6
CONTINUOUS
10
202.434
20
-193.786
11
202.077
21
-193.786
0
LINE
8
BLACK
6
CONTINUOUS
10
202.077
20
-193.786
11
201.934
21
-193.714
0
LINE
8
BLACK
6
CONTINUOUS
10
201.934
20
-193.714
11
201.863
21
-193.571
0
LINE
8
BLACK
6
CONTINUOUS
10
201.863
20
-193.571
11
201.863
21
-193.429
0
LINE
8
BLACK
6
CONTINUOUS
10
201.863
20
-193.429
11
201.934
21
-193.286
0
LINE
8
BLACK
6
CONTINUOUS
10
201.934
20
-193.286
11
202.077
21
-193.214
0
LINE
8
BLACK
6
CONTINUOUS
10
202.077
20
-193.214
11
202.434
21
-193.214
0
LINE
8
BLACK
6
CONTINUOUS
10
202.434
20
-193.214
11
202.577
21
-193.143
0
LINE
8
BLACK
6
CONTINUOUS
10
203.077
20
-192.786
11
203.649
21
-192.786
0
LINE
8
BLACK
6
CONTINUOUS
10
203.291
20
-192.286
11
203.291
21
-193.571
0
LINE
8
BLACK
6
CONTINUOUS
10
203.291
20
-193.571
11
203.363
21
-193.714
0
LINE
8
BLACK
6
CONTINUOUS
10
203.363
20
-193.714
11
203.506
21
-193.786
0
LINE
8
BLACK
6
CONTINUOUS
10
203.506
20
-193.786
11
203.649
21
-193.786
0
LINE
8
BLACK
6
CONTINUOUS
10
204.72
20
-193.714
11
204.577
21
-193.786
0
LINE
8
BLACK
6
CONTINUOUS
10
204.577
20
-193.786
11
204.291
21
-193.786
0
LINE
8
BLACK
6
CONTINUOUS
10
204.291
20
-193.786
11
204.149
21
-193.714
0
LINE
8
BLACK
6
CONTINUOUS
10
204.149
20
-193.714
11
204.077
21
-193.571
0
LINE
8
BLACK
6
CONTINUOUS
10
204.077
20
-193.571
11
204.077
21
-193
0
LINE
8
BLACK
6
CONTINUOUS
10
204.077
20
-193
11
204.149
21
-192.857
0
LINE
8
BLACK
6
CONTINUOUS
10
204.149
20
-192.857
11
204.291
21
-192.786
0
LINE
8
BLACK
6
CONTINUOUS
10
204.291
20
-192.786
11
204.577
21
-192.786
0
LINE
8
BLACK
6
CONTINUOUS
10
204.577
20
-192.786
11
204.72
21
-192.857
0
LINE
8
BLACK
6
CONTINUOUS
10
204.72
20
-192.857
11
204.791
21
-193
0
LINE
8
BLACK
6
CONTINUOUS
10
204.791
20
-193
11
204.791
21
-193.143
0
LINE
8
BLACK
6
CONTINUOUS
10
204.791
20
-193.143
11
204.077
21
-193.286
0
LINE
8
BLACK
6
CONTINUOUS
10
205.434
20
-193.643
11
205.506
21
-193.714
0
LINE
8
BLACK
6
CONTINUOUS
10
205.506
20
-193.714
11
205.434
21
-193.786
0
LINE
8
BLACK
6
CONTINUOUS
10
205.434
20
-193.786
11
205.363
21
-193.714
0
LINE
8
BLACK
6
CONTINUOUS
10
205.363
20
-193.714
11
205.434
21
-193.643
0
LINE
8
BLACK
6
CONTINUOUS
10
205.434
20
-193.643
11
205.434
21
-193.786
0
LINE
8
BLACK
6
CONTINUOUS
10
205.434
20
-192.857
11
205.506
21
-192.929
0
LINE
8
BLACK
6
CONTINUOUS
10
205.506
20
-192.929
11
205.434
21
-193
0
LINE
8
BLACK
6
CONTINUOUS
10
205.434
20
-193
11
205.363
21
-192.929
0
LINE
8
BLACK
6
CONTINUOUS
10
205.363
20
-192.929
11
205.434
21
-192.857
0
LINE
8
BLACK
6
CONTINUOUS
10
205.434
20
-192.857
11
205.434
21
-193
0
LINE
8
BLACK
6
CONTINUOUS
10
177.002
20
-194.507
11
285.002
21
-194.507
0
LINE
8
BLACK
6
CONTINUOUS
10
178.434
20
-196.586
11
178.434
21
-195.086
0
LINE
8
BLACK
6
CONTINUOUS
10
179.291
20
-196.586
11
178.649
21
-195.729
0
LINE
8
BLACK
6
CONTINUOUS
10
179.291
20
-195.086
11
178.434
21
-195.943
0
LINE
8
BLACK
6
CONTINUOUS
10
179.934
20
-196.586
11
179.934
21
-195.586
0
LINE
8
BLACK
6
CONTINUOUS
10
179.934
20
-195.086
11
179.863
21
-195.157
0
LINE
8
BLACK
6
CONTINUOUS
10
179.863
20
-195.157
11
179.934
21
-195.229
0
LINE
8
BLACK
6
CONTINUOUS
10
179.934
20
-195.229
11
180.006
21
-195.157
0
LINE
8
BLACK
6
CONTINUOUS
10
180.006
20
-195.157
11
179.934
21
-195.086
0
LINE
8
BLACK
6
CONTINUOUS
10
179.934
20
-195.086
11
179.934
21
-195.229
0
LINE
8
BLACK
6
CONTINUOUS
10
181.506
20
-196.443
11
181.434
21
-196.514
0
LINE
8
BLACK
6
CONTINUOUS
10
181.434
20
-196.514
11
181.22
21
-196.586
0
LINE
8
BLACK
6
CONTINUOUS
10
181.22
20
-196.586
11
181.077
21
-196.586
0
LINE
8
BLACK
6
CONTINUOUS
10
181.077
20
-196.586
11
180.863
21
-196.514
0
LINE
8
BLACK
6
CONTINUOUS
10
180.863
20
-196.514
11
180.72
21
-196.371
0
LINE
8
BLACK
6
CONTINUOUS
10
180.72
20
-196.371
11
180.649
21
-196.229
0
LINE
8
BLACK
6
CONTINUOUS
10
180.649
20
-196.229
11
180.577
21
-195.943
0
LINE
8
BLACK
6
CONTINUOUS
10
180.577
20
-195.943
11
180.577
21
-195.729
0
LINE
8
BLACK
6
CONTINUOUS
10
180.577
20
-195.729
11
180.649
21
-195.443
0
LINE
8
BLACK
6
CONTINUOUS
10
180.649
20
-195.443
11
180.72
21
-195.3
0
LINE
8
BLACK
6
CONTINUOUS
10
180.72
20
-195.3
11
180.863
21
-195.157
0
LINE
8
BLACK
6
CONTINUOUS
10
180.863
20
-195.157
11
181.077
21
-195.086
0
LINE
8
BLACK
6
CONTINUOUS
10
181.077
20
-195.086
11
181.22
21
-195.086
0
LINE
8
BLACK
6
CONTINUOUS
10
181.22
20
-195.086
11
181.434
21
-195.157
0
LINE
8
BLACK
6
CONTINUOUS
10
181.434
20
-195.157
11
181.506
21
-195.229
0
LINE
8
BLACK
6
CONTINUOUS
10
182.791
20
-196.586
11
182.791
21
-195.8
0
LINE
8
BLACK
6
CONTINUOUS
10
182.791
20
-195.8
11
182.72
21
-195.657
0
LINE
8
BLACK
6
CONTINUOUS
10
182.72
20
-195.657
11
182.577
21
-195.586
0
LINE
8
BLACK
6
CONTINUOUS
10
182.577
20
-195.586
11
182.291
21
-195.586
0
LINE
8
BLACK
6
CONTINUOUS
10
182.291
20
-195.586
11
182.149
21
-195.657
0
LINE
8
BLACK
6
CONTINUOUS
10
182.791
20
-196.514
11
182.649
21
-196.586
0
LINE
8
BLACK
6
CONTINUOUS
10
182.649
20
-196.586
11
182.291
21
-196.586
0
LINE
8
BLACK
6
CONTINUOUS
10
182.291
20
-196.586
11
182.149
21
-196.514
0
LINE
8
BLACK
6
CONTINUOUS
10
182.149
20
-196.514
11
182.077
21
-196.371
0
LINE
8
BLACK
6
CONTINUOUS
10
182.077
20
-196.371
11
182.077
21
-196.229
0
LINE
8
BLACK
6
CONTINUOUS
10
182.077
20
-196.229
11
182.149
21
-196.086
0
LINE
8
BLACK
6
CONTINUOUS
10
182.149
20
-196.086
11
182.291
21
-196.014
0
LINE
8
BLACK
6
CONTINUOUS
10
182.291
20
-196.014
11
182.649
21
-196.014
0
LINE
8
BLACK
6
CONTINUOUS
10
182.649
20
-196.014
11
182.791
21
-195.943
0
LINE
8
BLACK
6
CONTINUOUS
10
184.149
20
-196.586
11
184.149
21
-195.086
0
LINE
8
BLACK
6
CONTINUOUS
10
184.149
20
-196.514
11
184.006
21
-196.586
0
LINE
8
BLACK
6
CONTINUOUS
10
184.006
20
-196.586
11
183.72
21
-196.586
0
LINE
8
BLACK
6
CONTINUOUS
10
183.72
20
-196.586
11
183.577
21
-196.514
0
LINE
8
BLACK
6
CONTINUOUS
10
183.577
20
-196.514
11
183.506
21
-196.443
0
LINE
8
BLACK
6
CONTINUOUS
10
183.506
20
-196.443
11
183.434
21
-196.3
0
LINE
8
BLACK
6
CONTINUOUS
10
183.434
20
-196.3
11
183.434
21
-195.871
0
LINE
8
BLACK
6
CONTINUOUS
10
183.434
20
-195.871
11
183.506
21
-195.729
0
LINE
8
BLACK
6
CONTINUOUS
10
183.506
20
-195.729
11
183.577
21
-195.657
0
LINE
8
BLACK
6
CONTINUOUS
10
183.577
20
-195.657
11
183.72
21
-195.586
0
LINE
8
BLACK
6
CONTINUOUS
10
183.72
20
-195.586
11
184.006
21
-195.586
0
LINE
8
BLACK
6
CONTINUOUS
10
184.006
20
-195.586
11
184.149
21
-195.657
0
LINE
8
BLACK
6
CONTINUOUS
10
186.006
20
-195.8
11
186.506
21
-195.8
0
LINE
8
BLACK
6
CONTINUOUS
10
186.72
20
-196.586
11
186.006
21
-196.586
0
LINE
8
BLACK
6
CONTINUOUS
10
186.006
20
-196.586
11
186.006
21
-195.086
0
LINE
8
BLACK
6
CONTINUOUS
10
186.006
20
-195.086
11
186.72
21
-195.086
0
LINE
8
BLACK
6
CONTINUOUS
10
187.363
20
-196.443
11
187.434
21
-196.514
0
LINE
8
BLACK
6
CONTINUOUS
10
187.434
20
-196.514
11
187.363
21
-196.586
0
LINE
8
BLACK
6
CONTINUOUS
10
187.363
20
-196.586
11
187.291
21
-196.514
0
LINE
8
BLACK
6
CONTINUOUS
10
187.291
20
-196.514
11
187.363
21
-196.443
0
LINE
8
BLACK
6
CONTINUOUS
10
187.363
20
-196.443
11
187.363
21
-196.586
0
LINE
8
BLACK
6
CONTINUOUS
10
188.077
20
-196.586
11
188.077
21
-195.086
0
LINE
8
BLACK
6
CONTINUOUS
10
188.077
20
-195.086
11
188.434
21
-195.086
0
LINE
8
BLACK
6
CONTINUOUS
10
188.434
20
-195.086
11
188.649
21
-195.157
0
LINE
8
BLACK
6
CONTINUOUS
10
188.649
20
-195.157
11
188.791
21
-195.3
0
LINE
8
BLACK
6
CONTINUOUS
10
188.791
20
-195.3
11
188.863
21
-195.443
0
LINE
8
BLACK
6
CONTINUOUS
10
188.863
20
-195.443
11
188.934
21
-195.729
0
LINE
8
BLACK
6
CONTINUOUS
10
188.934
20
-195.729
11
188.934
21
-195.943
0
LINE
8
BLACK
6
CONTINUOUS
10
188.934
20
-195.943
11
188.863
21
-196.229
0
LINE
8
BLACK
6
CONTINUOUS
10
188.863
20
-196.229
11
188.791
21
-196.371
0
LINE
8
BLACK
6
CONTINUOUS
10
188.791
20
-196.371
11
188.649
21
-196.514
0
LINE
8
BLACK
6
CONTINUOUS
10
188.649
20
-196.514
11
188.434
21
-196.586
0
LINE
8
BLACK
6
CONTINUOUS
10
188.434
20
-196.586
11
188.077
21
-196.586
0
LINE
8
BLACK
6
CONTINUOUS
10
189.577
20
-196.443
11
189.649
21
-196.514
0
LINE
8
BLACK
6
CONTINUOUS
10
189.649
20
-196.514
11
189.577
21
-196.586
0
LINE
8
BLACK
6
CONTINUOUS
10
189.577
20
-196.586
11
189.506
21
-196.514
0
LINE
8
BLACK
6
CONTINUOUS
10
189.506
20
-196.514
11
189.577
21
-196.443
0
LINE
8
BLACK
6
CONTINUOUS
10
189.577
20
-196.443
11
189.577
21
-196.586
0
LINE
8
BLACK
6
CONTINUOUS
10
190.22
20
-196.157
11
190.934
21
-196.157
0
LINE
8
BLACK
6
CONTINUOUS
10
190.077
20
-196.586
11
190.577
21
-195.086
0
LINE
8
BLACK
6
CONTINUOUS
10
190.577
20
-195.086
11
191.077
21
-196.586
0
LINE
8
BLACK
6
CONTINUOUS
10
191.577
20
-196.443
11
191.649
21
-196.514
0
LINE
8
BLACK
6
CONTINUOUS
10
191.649
20
-196.514
11
191.577
21
-196.586
0
LINE
8
BLACK
6
CONTINUOUS
10
191.577
20
-196.586
11
191.506
21
-196.514
0
LINE
8
BLACK
6
CONTINUOUS
10
191.506
20
-196.514
11
191.577
21
-196.443
0
LINE
8
BLACK
6
CONTINUOUS
10
191.577
20
-196.443
11
191.577
21
-196.586
0
LINE
8
BLACK
6
CONTINUOUS
10
194.577
20
-196.586
11
194.577
21
-195.086
0
LINE
8
BLACK
6
CONTINUOUS
10
194.72
20
-196.014
11
195.149
21
-196.586
0
LINE
8
BLACK
6
CONTINUOUS
10
195.149
20
-195.586
11
194.577
21
-196.157
0
LINE
8
BLACK
6
CONTINUOUS
10
195.791
20
-196.586
11
195.791
21
-195.586
0
LINE
8
BLACK
6
CONTINUOUS
10
195.791
20
-195.086
11
195.72
21
-195.157
0
LINE
8
BLACK
6
CONTINUOUS
10
195.72
20
-195.157
11
195.791
21
-195.229
0
LINE
8
BLACK
6
CONTINUOUS
10
195.791
20
-195.229
11
195.863
21
-195.157
0
LINE
8
BLACK
6
CONTINUOUS
10
195.863
20
-195.157
11
195.791
21
-195.086
0
LINE
8
BLACK
6
CONTINUOUS
10
195.791
20
-195.086
11
195.791
21
-195.229
0
LINE
8
BLACK
6
CONTINUOUS
10
197.149
20
-196.514
11
197.006
21
-196.586
0
LINE
8
BLACK
6
CONTINUOUS
10
197.006
20
-196.586
11
196.72
21
-196.586
0
LINE
8
BLACK
6
CONTINUOUS
10
196.72
20
-196.586
11
196.577
21
-196.514
0
LINE
8
BLACK
6
CONTINUOUS
10
196.577
20
-196.514
11
196.506
21
-196.443
0
LINE
8
BLACK
6
CONTINUOUS
10
196.506
20
-196.443
11
196.434
21
-196.3
0
LINE
8
BLACK
6
CONTINUOUS
10
196.434
20
-196.3
11
196.434
21
-195.871
0
LINE
8
BLACK
6
CONTINUOUS
10
196.434
20
-195.871
11
196.506
21
-195.729
0
LINE
8
BLACK
6
CONTINUOUS
10
196.506
20
-195.729
11
196.577
21
-195.657
0
LINE
8
BLACK
6
CONTINUOUS
10
196.577
20
-195.657
11
196.72
21
-195.586
0
LINE
8
BLACK
6
CONTINUOUS
10
196.72
20
-195.586
11
197.006
21
-195.586
0
LINE
8
BLACK
6
CONTINUOUS
10
197.006
20
-195.586
11
197.149
21
-195.657
0
LINE
8
BLACK
6
CONTINUOUS
10
198.434
20
-196.586
11
198.434
21
-195.8
0
LINE
8
BLACK
6
CONTINUOUS
10
198.434
20
-195.8
11
198.363
21
-195.657
0
LINE
8
BLACK
6
CONTINUOUS
10
198.363
20
-195.657
11
198.22
21
-195.586
0
LINE
8
BLACK
6
CONTINUOUS
10
198.22
20
-195.586
11
197.934
21
-195.586
0
LINE
8
BLACK
6
CONTINUOUS
10
197.934
20
-195.586
11
197.791
21
-195.657
0
LINE
8
BLACK
6
CONTINUOUS
10
198.434
20
-196.514
11
198.291
21
-196.586
0
LINE
8
BLACK
6
CONTINUOUS
10
198.291
20
-196.586
11
197.934
21
-196.586
0
LINE
8
BLACK
6
CONTINUOUS
10
197.934
20
-196.586
11
197.791
21
-196.514
0
LINE
8
BLACK
6
CONTINUOUS
10
197.791
20
-196.514
11
197.72
21
-196.371
0
LINE
8
BLACK
6
CONTINUOUS
10
197.72
20
-196.371
11
197.72
21
-196.229
0
LINE
8
BLACK
6
CONTINUOUS
10
197.72
20
-196.229
11
197.791
21
-196.086
0
LINE
8
BLACK
6
CONTINUOUS
10
197.791
20
-196.086
11
197.934
21
-196.014
0
LINE
8
BLACK
6
CONTINUOUS
10
197.934
20
-196.014
11
198.291
21
-196.014
0
LINE
8
BLACK
6
CONTINUOUS
10
198.291
20
-196.014
11
198.434
21
-195.943
0
LINE
8
BLACK
6
CONTINUOUS
10
199.791
20
-196.586
11
199.791
21
-195.086
0
LINE
8
BLACK
6
CONTINUOUS
10
199.791
20
-196.514
11
199.649
21
-196.586
0
LINE
8
BLACK
6
CONTINUOUS
10
199.649
20
-196.586
11
199.363
21
-196.586
0
LINE
8
BLACK
6
CONTINUOUS
10
199.363
20
-196.586
11
199.22
21
-196.514
0
LINE
8
BLACK
6
CONTINUOUS
10
199.22
20
-196.514
11
199.149
21
-196.443
0
LINE
8
BLACK
6
CONTINUOUS
10
199.149
20
-196.443
11
199.077
21
-196.3
0
LINE
8
BLACK
6
CONTINUOUS
10
199.077
20
-196.3
11
199.077
21
-195.871
0
LINE
8
BLACK
6
CONTINUOUS
10
199.077
20
-195.871
11
199.149
21
-195.729
0
LINE
8
BLACK
6
CONTINUOUS
10
199.149
20
-195.729
11
199.22
21
-195.657
0
LINE
8
BLACK
6
CONTINUOUS
10
199.22
20
-195.657
11
199.363
21
-195.586
0
LINE
8
BLACK
6
CONTINUOUS
10
199.363
20
-195.586
11
199.649
21
-195.586
0
LINE
8
BLACK
6
CONTINUOUS
10
199.649
20
-195.586
11
199.791
21
-195.657
0
LINE
8
BLACK
6
CONTINUOUS
10
202.077
20
-197.157
11
202.006
21
-197.086
0
LINE
8
BLACK
6
CONTINUOUS
10
202.006
20
-197.086
11
201.863
21
-196.871
0
LINE
8
BLACK
6
CONTINUOUS
10
201.863
20
-196.871
11
201.791
21
-196.729
0
LINE
8
BLACK
6
CONTINUOUS
10
201.791
20
-196.729
11
201.72
21
-196.514
0
LINE
8
BLACK
6
CONTINUOUS
10
201.72
20
-196.514
11
201.649
21
-196.157
0
LINE
8
BLACK
6
CONTINUOUS
10
201.649
20
-196.157
11
201.649
21
-195.871
0
LINE
8
BLACK
6
CONTINUOUS
10
201.649
20
-195.871
11
201.72
21
-195.514
0
LINE
8
BLACK
6
CONTINUOUS
10
201.72
20
-195.514
11
201.791
21
-195.3
0
LINE
8
BLACK
6
CONTINUOUS
10
201.791
20
-195.3
11
201.863
21
-195.157
0
LINE
8
BLACK
6
CONTINUOUS
10
201.863
20
-195.157
11
202.006
21
-194.943
0
LINE
8
BLACK
6
CONTINUOUS
10
202.006
20
-194.943
11
202.077
21
-194.871
0
LINE
8
BLACK
6
CONTINUOUS
10
203.363
20
-195.086
11
202.649
21
-195.086
0
LINE
8
BLACK
6
CONTINUOUS
10
202.649
20
-195.086
11
202.577
21
-195.8
0
LINE
8
BLACK
6
CONTINUOUS
10
202.577
20
-195.8
11
202.649
21
-195.729
0
LINE
8
BLACK
6
CONTINUOUS
10
202.649
20
-195.729
11
202.791
21
-195.657
0
LINE
8
BLACK
6
CONTINUOUS
10
202.791
20
-195.657
11
203.149
21
-195.657
0
LINE
8
BLACK
6
CONTINUOUS
10
203.149
20
-195.657
11
203.291
21
-195.729
0
LINE
8
BLACK
6
CONTINUOUS
10
203.291
20
-195.729
11
203.363
21
-195.8
0
LINE
8
BLACK
6
CONTINUOUS
10
203.363
20
-195.8
11
203.434
21
-195.943
0
LINE
8
BLACK
6
CONTINUOUS
10
203.434
20
-195.943
11
203.434
21
-196.3
0
LINE
8
BLACK
6
CONTINUOUS
10
203.434
20
-196.3
11
203.363
21
-196.443
0
LINE
8
BLACK
6
CONTINUOUS
10
203.363
20
-196.443
11
203.291
21
-196.514
0
LINE
8
BLACK
6
CONTINUOUS
10
203.291
20
-196.514
11
203.149
21
-196.586
0
LINE
8
BLACK
6
CONTINUOUS
10
203.149
20
-196.586
11
202.791
21
-196.586
0
LINE
8
BLACK
6
CONTINUOUS
10
202.791
20
-196.586
11
202.649
21
-196.514
0
LINE
8
BLACK
6
CONTINUOUS
10
202.649
20
-196.514
11
202.577
21
-196.443
0
LINE
8
BLACK
6
CONTINUOUS
10
204.077
20
-196.443
11
204.149
21
-196.514
0
LINE
8
BLACK
6
CONTINUOUS
10
204.149
20
-196.514
11
204.077
21
-196.586
0
LINE
8
BLACK
6
CONTINUOUS
10
204.077
20
-196.586
11
204.006
21
-196.514
0
LINE
8
BLACK
6
CONTINUOUS
10
204.006
20
-196.514
11
204.077
21
-196.443
0
LINE
8
BLACK
6
CONTINUOUS
10
204.077
20
-196.443
11
204.077
21
-196.586
0
LINE
8
BLACK
6
CONTINUOUS
10
205.077
20
-195.086
11
205.22
21
-195.086
0
LINE
8
BLACK
6
CONTINUOUS
10
205.22
20
-195.086
11
205.363
21
-195.157
0
LINE
8
BLACK
6
CONTINUOUS
10
205.363
20
-195.157
11
205.434
21
-195.229
0
LINE
8
BLACK
6
CONTINUOUS
10
205.434
20
-195.229
11
205.506
21
-195.371
0
LINE
8
BLACK
6
CONTINUOUS
10
205.506
20
-195.371
11
205.577
21
-195.657
0
LINE
8
BLACK
6
CONTINUOUS
10
205.577
20
-195.657
11
205.577
21
-196.014
0
LINE
8
BLACK
6
CONTINUOUS
10
205.577
20
-196.014
11
205.506
21
-196.3
0
LINE
8
BLACK
6
CONTINUOUS
10
205.506
20
-196.3
11
205.434
21
-196.443
0
LINE
8
BLACK
6
CONTINUOUS
10
205.434
20
-196.443
11
205.363
21
-196.514
0
LINE
8
BLACK
6
CONTINUOUS
10
205.363
20
-196.514
11
205.22
21
-196.586
0
LINE
8
BLACK
6
CONTINUOUS
10
205.22
20
-196.586
11
205.077
21
-196.586
0
LINE
8
BLACK
6
CONTINUOUS
10
205.077
20
-196.586
11
204.934
21
-196.514
0
LINE
8
BLACK
6
CONTINUOUS
10
204.934
20
-196.514
11
204.863
21
-196.443
0
LINE
8
BLACK
6
CONTINUOUS
10
204.863
20
-196.443
11
204.791
21
-196.3
0
LINE
8
BLACK
6
CONTINUOUS
10
204.791
20
-196.3
11
204.72
21
-196.014
0
LINE
8
BLACK
6
CONTINUOUS
10
204.72
20
-196.014
11
204.72
21
-195.657
0
LINE
8
BLACK
6
CONTINUOUS
10
204.72
20
-195.657
11
204.791
21
-195.371
0
LINE
8
BLACK
6
CONTINUOUS
10
204.791
20
-195.371
11
204.863
21
-195.229
0
LINE
8
BLACK
6
CONTINUOUS
10
204.863
20
-195.229
11
204.934
21
-195.157
0
LINE
8
BLACK
6
CONTINUOUS
10
204.934
20
-195.157
11
205.077
21
-195.086
0
LINE
8
BLACK
6
CONTINUOUS
10
206.22
20
-196.443
11
206.291
21
-196.514
0
LINE
8
BLACK
6
CONTINUOUS
10
206.291
20
-196.514
11
206.22
21
-196.586
0
LINE
8
BLACK
6
CONTINUOUS
10
206.22
20
-196.586
11
206.149
21
-196.514
0
LINE
8
BLACK
6
CONTINUOUS
10
206.149
20
-196.514
11
206.22
21
-196.443
0
LINE
8
BLACK
6
CONTINUOUS
10
206.22
20
-196.443
11
206.22
21
-196.586
0
LINE
8
BLACK
6
CONTINUOUS
10
207.72
20
-196.586
11
206.863
21
-196.586
0
LINE
8
BLACK
6
CONTINUOUS
10
207.291
20
-196.586
11
207.291
21
-195.086
0
LINE
8
BLACK
6
CONTINUOUS
10
207.291
20
-195.086
11
207.149
21
-195.3
0
LINE
8
BLACK
6
CONTINUOUS
10
207.149
20
-195.3
11
207.006
21
-195.443
0
LINE
8
BLACK
6
CONTINUOUS
10
207.006
20
-195.443
11
206.863
21
-195.514
0
LINE
8
BLACK
6
CONTINUOUS
10
208.363
20
-196.014
11
209.506
21
-196.014
0
LINE
8
BLACK
6
CONTINUOUS
10
210.077
20
-195.086
11
211.006
21
-195.086
0
LINE
8
BLACK
6
CONTINUOUS
10
211.006
20
-195.086
11
210.506
21
-195.657
0
LINE
8
BLACK
6
CONTINUOUS
10
210.506
20
-195.657
11
210.72
21
-195.657
0
LINE
8
BLACK
6
CONTINUOUS
10
210.72
20
-195.657
11
210.863
21
-195.729
0
LINE
8
BLACK
6
CONTINUOUS
10
210.863
20
-195.729
11
210.934
21
-195.8
0
LINE
8
BLACK
6
CONTINUOUS
10
210.934
20
-195.8
11
211.006
21
-195.943
0
LINE
8
BLACK
6
CONTINUOUS
10
211.006
20
-195.943
11
211.006
21
-196.3
0
LINE
8
BLACK
6
CONTINUOUS
10
211.006
20
-196.3
11
210.934
21
-196.443
0
LINE
8
BLACK
6
CONTINUOUS
10
210.934
20
-196.443
11
210.863
21
-196.514
0
LINE
8
BLACK
6
CONTINUOUS
10
210.863
20
-196.514
11
210.72
21
-196.586
0
LINE
8
BLACK
6
CONTINUOUS
10
210.72
20
-196.586
11
210.291
21
-196.586
0
LINE
8
BLACK
6
CONTINUOUS
10
210.291
20
-196.586
11
210.149
21
-196.514
0
LINE
8
BLACK
6
CONTINUOUS
10
210.149
20
-196.514
11
210.077
21
-196.443
0
LINE
8
BLACK
6
CONTINUOUS
10
211.649
20
-196.014
11
212.791
21
-196.014
0
LINE
8
BLACK
6
CONTINUOUS
10
214.149
20
-195.586
11
214.149
21
-196.8
0
LINE
8
BLACK
6
CONTINUOUS
10
214.149
20
-196.8
11
214.077
21
-196.943
0
LINE
8
BLACK
6
CONTINUOUS
10
214.077
20
-196.943
11
214.006
21
-197.014
0
LINE
8
BLACK
6
CONTINUOUS
10
214.006
20
-197.014
11
213.863
21
-197.086
0
LINE
8
BLACK
6
CONTINUOUS
10
213.863
20
-197.086
11
213.649
21
-197.086
0
LINE
8
BLACK
6
CONTINUOUS
10
213.649
20
-197.086
11
213.506
21
-197.014
0
LINE
8
BLACK
6
CONTINUOUS
10
214.149
20
-196.514
11
214.006
21
-196.586
0
LINE
8
BLACK
6
CONTINUOUS
10
214.006
20
-196.586
11
213.72
21
-196.586
0
LINE
8
BLACK
6
CONTINUOUS
10
213.72
20
-196.586
11
213.577
21
-196.514
0
LINE
8
BLACK
6
CONTINUOUS
10
213.577
20
-196.514
11
213.506
21
-196.443
0
LINE
8
BLACK
6
CONTINUOUS
10
213.506
20
-196.443
11
213.434
21
-196.3
0
LINE
8
BLACK
6
CONTINUOUS
10
213.434
20
-196.3
11
213.434
21
-195.871
0
LINE
8
BLACK
6
CONTINUOUS
10
213.434
20
-195.871
11
213.506
21
-195.729
0
LINE
8
BLACK
6
CONTINUOUS
10
213.506
20
-195.729
11
213.577
21
-195.657
0
LINE
8
BLACK
6
CONTINUOUS
10
213.577
20
-195.657
11
213.72
21
-195.586
0
LINE
8
BLACK
6
CONTINUOUS
10
213.72
20
-195.586
11
214.006
21
-195.586
0
LINE
8
BLACK
6
CONTINUOUS
10
214.006
20
-195.586
11
214.149
21
-195.657
0
LINE
8
BLACK
6
CONTINUOUS
10
214.934
20
-196.586
11
215.22
21
-196.586
0
LINE
8
BLACK
6
CONTINUOUS
10
215.22
20
-196.586
11
215.363
21
-196.514
0
LINE
8
BLACK
6
CONTINUOUS
10
215.363
20
-196.514
11
215.434
21
-196.443
0
LINE
8
BLACK
6
CONTINUOUS
10
215.434
20
-196.443
11
215.577
21
-196.229
0
LINE
8
BLACK
6
CONTINUOUS
10
215.577
20
-196.229
11
215.649
21
-195.943
0
LINE
8
BLACK
6
CONTINUOUS
10
215.649
20
-195.943
11
215.649
21
-195.371
0
LINE
8
BLACK
6
CONTINUOUS
10
215.649
20
-195.371
11
215.577
21
-195.229
0
LINE
8
BLACK
6
CONTINUOUS
10
215.577
20
-195.229
11
215.506
21
-195.157
0
LINE
8
BLACK
6
CONTINUOUS
10
215.506
20
-195.157
11
215.363
21
-195.086
0
LINE
8
BLACK
6
CONTINUOUS
10
215.363
20
-195.086
11
215.077
21
-195.086
0
LINE
8
BLACK
6
CONTINUOUS
10
215.077
20
-195.086
11
214.934
21
-195.157
0
LINE
8
BLACK
6
CONTINUOUS
10
214.934
20
-195.157
11
214.863
21
-195.229
0
LINE
8
BLACK
6
CONTINUOUS
10
214.863
20
-195.229
11
214.791
21
-195.371
0
LINE
8
BLACK
6
CONTINUOUS
10
214.791
20
-195.371
11
214.791
21
-195.729
0
LINE
8
BLACK
6
CONTINUOUS
10
214.791
20
-195.729
11
214.863
21
-195.871
0
LINE
8
BLACK
6
CONTINUOUS
10
214.863
20
-195.871
11
214.934
21
-195.943
0
LINE
8
BLACK
6
CONTINUOUS
10
214.934
20
-195.943
11
215.077
21
-196.014
0
LINE
8
BLACK
6
CONTINUOUS
10
215.077
20
-196.014
11
215.363
21
-196.014
0
LINE
8
BLACK
6
CONTINUOUS
10
215.363
20
-196.014
11
215.506
21
-195.943
0
LINE
8
BLACK
6
CONTINUOUS
10
215.506
20
-195.943
11
215.577
21
-195.871
0
LINE
8
BLACK
6
CONTINUOUS
10
215.577
20
-195.871
11
215.649
21
-195.729
0
LINE
8
BLACK
6
CONTINUOUS
10
216.934
20
-195.086
11
216.649
21
-195.086
0
LINE
8
BLACK
6
CONTINUOUS
10
216.649
20
-195.086
11
216.506
21
-195.157
0
LINE
8
BLACK
6
CONTINUOUS
10
216.506
20
-195.157
11
216.434
21
-195.229
0
LINE
8
BLACK
6
CONTINUOUS
10
216.434
20
-195.229
11
216.291
21
-195.443
0
LINE
8
BLACK
6
CONTINUOUS
10
216.291
20
-195.443
11
216.22
21
-195.729
0
LINE
8
BLACK
6
CONTINUOUS
10
216.22
20
-195.729
11
216.22
21
-196.3
0
LINE
8
BLACK
6
CONTINUOUS
10
216.22
20
-196.3
11
216.291
21
-196.443
0
LINE
8
BLACK
6
CONTINUOUS
10
216.291
20
-196.443
11
216.363
21
-196.514
0
LINE
8
BLACK
6
CONTINUOUS
10
216.363
20
-196.514
11
216.506
21
-196.586
0
LINE
8
BLACK
6
CONTINUOUS
10
216.506
20
-196.586
11
216.791
21
-196.586
0
LINE
8
BLACK
6
CONTINUOUS
10
216.791
20
-196.586
11
216.934
21
-196.514
0
LINE
8
BLACK
6
CONTINUOUS
10
216.934
20
-196.514
11
217.006
21
-196.443
0
LINE
8
BLACK
6
CONTINUOUS
10
217.006
20
-196.443
11
217.077
21
-196.3
0
LINE
8
BLACK
6
CONTINUOUS
10
217.077
20
-196.3
11
217.077
21
-195.943
0
LINE
8
BLACK
6
CONTINUOUS
10
217.077
20
-195.943
11
217.006
21
-195.8
0
LINE
8
BLACK
6
CONTINUOUS
10
217.006
20
-195.8
11
216.934
21
-195.729
0
LINE
8
BLACK
6
CONTINUOUS
10
216.934
20
-195.729
11
216.791
21
-195.657
0
LINE
8
BLACK
6
CONTINUOUS
10
216.791
20
-195.657
11
216.506
21
-195.657
0
LINE
8
BLACK
6
CONTINUOUS
10
216.506
20
-195.657
11
216.363
21
-195.729
0
LINE
8
BLACK
6
CONTINUOUS
10
216.363
20
-195.729
11
216.291
21
-195.8
0
LINE
8
BLACK
6
CONTINUOUS
10
216.291
20
-195.8
11
216.22
21
-195.943
0
LINE
8
BLACK
6
CONTINUOUS
10
217.577
20
-195.086
11
218.506
21
-195.086
0
LINE
8
BLACK
6
CONTINUOUS
10
218.506
20
-195.086
11
218.006
21
-195.657
0
LINE
8
BLACK
6
CONTINUOUS
10
218.006
20
-195.657
11
218.22
21
-195.657
0
LINE
8
BLACK
6
CONTINUOUS
10
218.22
20
-195.657
11
218.363
21
-195.729
0
LINE
8
BLACK
6
CONTINUOUS
10
218.363
20
-195.729
11
218.434
21
-195.8
0
LINE
8
BLACK
6
CONTINUOUS
10
218.434
20
-195.8
11
218.506
21
-195.943
0
LINE
8
BLACK
6
CONTINUOUS
10
218.506
20
-195.943
11
218.506
21
-196.3
0
LINE
8
BLACK
6
CONTINUOUS
10
218.506
20
-196.3
11
218.434
21
-196.443
0
LINE
8
BLACK
6
CONTINUOUS
10
218.434
20
-196.443
11
218.363
21
-196.514
0
LINE
8
BLACK
6
CONTINUOUS
10
218.363
20
-196.514
11
218.22
21
-196.586
0
LINE
8
BLACK
6
CONTINUOUS
10
218.22
20
-196.586
11
217.791
21
-196.586
0
LINE
8
BLACK
6
CONTINUOUS
10
217.791
20
-196.586
11
217.649
21
-196.514
0
LINE
8
BLACK
6
CONTINUOUS
10
217.649
20
-196.514
11
217.577
21
-196.443
0
LINE
8
BLACK
6
CONTINUOUS
10
219.72
20
-196.514
11
219.577
21
-196.586
0
LINE
8
BLACK
6
CONTINUOUS
10
219.577
20
-196.586
11
219.291
21
-196.586
0
LINE
8
BLACK
6
CONTINUOUS
10
219.291
20
-196.586
11
219.149
21
-196.514
0
LINE
8
BLACK
6
CONTINUOUS
10
219.149
20
-196.514
11
219.077
21
-196.371
0
LINE
8
BLACK
6
CONTINUOUS
10
219.077
20
-196.371
11
219.077
21
-195.8
0
LINE
8
BLACK
6
CONTINUOUS
10
219.077
20
-195.8
11
219.149
21
-195.657
0
LINE
8
BLACK
6
CONTINUOUS
10
219.149
20
-195.657
11
219.291
21
-195.586
0
LINE
8
BLACK
6
CONTINUOUS
10
219.291
20
-195.586
11
219.577
21
-195.586
0
LINE
8
BLACK
6
CONTINUOUS
10
219.577
20
-195.586
11
219.72
21
-195.657
0
LINE
8
BLACK
6
CONTINUOUS
10
219.72
20
-195.657
11
219.791
21
-195.8
0
LINE
8
BLACK
6
CONTINUOUS
10
219.791
20
-195.8
11
219.791
21
-195.943
0
LINE
8
BLACK
6
CONTINUOUS
10
219.791
20
-195.943
11
219.077
21
-196.086
0
LINE
8
BLACK
6
CONTINUOUS
10
220.22
20
-195.586
11
220.791
21
-195.586
0
LINE
8
BLACK
6
CONTINUOUS
10
220.434
20
-196.586
11
220.434
21
-195.3
0
LINE
8
BLACK
6
CONTINUOUS
10
220.434
20
-195.3
11
220.506
21
-195.157
0
LINE
8
BLACK
6
CONTINUOUS
10
220.506
20
-195.157
11
220.649
21
-195.086
0
LINE
8
BLACK
6
CONTINUOUS
10
220.649
20
-195.086
11
220.791
21
-195.086
0
LINE
8
BLACK
6
CONTINUOUS
10
221.506
20
-195.729
11
221.363
21
-195.657
0
LINE
8
BLACK
6
CONTINUOUS
10
221.363
20
-195.657
11
221.291
21
-195.586
0
LINE
8
BLACK
6
CONTINUOUS
10
221.291
20
-195.586
11
221.22
21
-195.443
0
LINE
8
BLACK
6
CONTINUOUS
10
221.22
20
-195.443
11
221.22
21
-195.371
0
LINE
8
BLACK
6
CONTINUOUS
10
221.22
20
-195.371
11
221.291
21
-195.229
0
LINE
8
BLACK
6
CONTINUOUS
10
221.291
20
-195.229
11
221.363
21
-195.157
0
LINE
8
BLACK
6
CONTINUOUS
10
221.363
20
-195.157
11
221.506
21
-195.086
0
LINE
8
BLACK
6
CONTINUOUS
10
221.506
20
-195.086
11
221.791
21
-195.086
0
LINE
8
BLACK
6
CONTINUOUS
10
221.791
20
-195.086
11
221.934
21
-195.157
0
LINE
8
BLACK
6
CONTINUOUS
10
221.934
20
-195.157
11
222.006
21
-195.229
0
LINE
8
BLACK
6
CONTINUOUS
10
222.006
20
-195.229
11
222.077
21
-195.371
0
LINE
8
BLACK
6
CONTINUOUS
10
222.077
20
-195.371
11
222.077
21
-195.443
0
LINE
8
BLACK
6
CONTINUOUS
10
222.077
20
-195.443
11
222.006
21
-195.586
0
LINE
8
BLACK
6
CONTINUOUS
10
222.006
20
-195.586
11
221.934
21
-195.657
0
LINE
8
BLACK
6
CONTINUOUS
10
221.934
20
-195.657
11
221.791
21
-195.729
0
LINE
8
BLACK
6
CONTINUOUS
10
221.791
20
-195.729
11
221.506
21
-195.729
0
LINE
8
BLACK
6
CONTINUOUS
10
221.506
20
-195.729
11
221.363
21
-195.8
0
LINE
8
BLACK
6
CONTINUOUS
10
221.363
20
-195.8
11
221.291
21
-195.871
0
LINE
8
BLACK
6
CONTINUOUS
10
221.291
20
-195.871
11
221.22
21
-196.014
0
LINE
8
BLACK
6
CONTINUOUS
10
221.22
20
-196.014
11
221.22
21
-196.3
0
LINE
8
BLACK
6
CONTINUOUS
10
221.22
20
-196.3
11
221.291
21
-196.443
0
LINE
8
BLACK
6
CONTINUOUS
10
221.291
20
-196.443
11
221.363
21
-196.514
0
LINE
8
BLACK
6
CONTINUOUS
10
221.363
20
-196.514
11
221.506
21
-196.586
0
LINE
8
BLACK
6
CONTINUOUS
10
221.506
20
-196.586
11
221.791
21
-196.586
0
LINE
8
BLACK
6
CONTINUOUS
10
221.791
20
-196.586
11
221.934
21
-196.514
0
LINE
8
BLACK
6
CONTINUOUS
10
221.934
20
-196.514
11
222.006
21
-196.443
0
LINE
8
BLACK
6
CONTINUOUS
10
222.006
20
-196.443
11
222.077
21
-196.3
0
LINE
8
BLACK
6
CONTINUOUS
10
222.077
20
-196.3
11
222.077
21
-196.014
0
LINE
8
BLACK
6
CONTINUOUS
10
222.077
20
-196.014
11
222.006
21
-195.871
0
LINE
8
BLACK
6
CONTINUOUS
10
222.006
20
-195.871
11
221.934
21
-195.8
0
LINE
8
BLACK
6
CONTINUOUS
10
221.934
20
-195.8
11
221.791
21
-195.729
0
LINE
8
BLACK
6
CONTINUOUS
10
222.72
20
-196.586
11
222.72
21
-195.086
0
LINE
8
BLACK
6
CONTINUOUS
10
222.72
20
-195.657
11
222.863
21
-195.586
0
LINE
8
BLACK
6
CONTINUOUS
10
222.863
20
-195.586
11
223.149
21
-195.586
0
LINE
8
BLACK
6
CONTINUOUS
10
223.149
20
-195.586
11
223.291
21
-195.657
0
LINE
8
BLACK
6
CONTINUOUS
10
223.291
20
-195.657
11
223.363
21
-195.729
0
LINE
8
BLACK
6
CONTINUOUS
10
223.363
20
-195.729
11
223.434
21
-195.871
0
LINE
8
BLACK
6
CONTINUOUS
10
223.434
20
-195.871
11
223.434
21
-196.3
0
LINE
8
BLACK
6
CONTINUOUS
10
223.434
20
-196.3
11
223.363
21
-196.443
0
LINE
8
BLACK
6
CONTINUOUS
10
223.363
20
-196.443
11
223.291
21
-196.514
0
LINE
8
BLACK
6
CONTINUOUS
10
223.291
20
-196.514
11
223.149
21
-196.586
0
LINE
8
BLACK
6
CONTINUOUS
10
223.149
20
-196.586
11
222.863
21
-196.586
0
LINE
8
BLACK
6
CONTINUOUS
10
222.863
20
-196.586
11
222.72
21
-196.514
0
LINE
8
BLACK
6
CONTINUOUS
10
224.077
20
-196.586
11
224.077
21
-195.086
0
LINE
8
BLACK
6
CONTINUOUS
10
224.077
20
-195.657
11
224.22
21
-195.586
0
LINE
8
BLACK
6
CONTINUOUS
10
224.22
20
-195.586
11
224.506
21
-195.586
0
LINE
8
BLACK
6
CONTINUOUS
10
224.506
20
-195.586
11
224.649
21
-195.657
0
LINE
8
BLACK
6
CONTINUOUS
10
224.649
20
-195.657
11
224.72
21
-195.729
0
LINE
8
BLACK
6
CONTINUOUS
10
224.72
20
-195.729
11
224.791
21
-195.871
0
LINE
8
BLACK
6
CONTINUOUS
10
224.791
20
-195.871
11
224.791
21
-196.3
0
LINE
8
BLACK
6
CONTINUOUS
10
224.791
20
-196.3
11
224.72
21
-196.443
0
LINE
8
BLACK
6
CONTINUOUS
10
224.72
20
-196.443
11
224.649
21
-196.514
0
LINE
8
BLACK
6
CONTINUOUS
10
224.649
20
-196.514
11
224.506
21
-196.586
0
LINE
8
BLACK
6
CONTINUOUS
10
224.506
20
-196.586
11
224.22
21
-196.586
0
LINE
8
BLACK
6
CONTINUOUS
10
224.22
20
-196.586
11
224.077
21
-196.514
0
LINE
8
BLACK
6
CONTINUOUS
10
226.149
20
-195.086
11
225.434
21
-195.086
0
LINE
8
BLACK
6
CONTINUOUS
10
225.434
20
-195.086
11
225.363
21
-195.8
0
LINE
8
BLACK
6
CONTINUOUS
10
225.363
20
-195.8
11
225.434
21
-195.729
0
LINE
8
BLACK
6
CONTINUOUS
10
225.434
20
-195.729
11
225.577
21
-195.657
0
LINE
8
BLACK
6
CONTINUOUS
10
225.577
20
-195.657
11
225.934
21
-195.657
0
LINE
8
BLACK
6
CONTINUOUS
10
225.934
20
-195.657
11
226.077
21
-195.729
0
LINE
8
BLACK
6
CONTINUOUS
10
226.077
20
-195.729
11
226.149
21
-195.8
0
LINE
8
BLACK
6
CONTINUOUS
10
226.149
20
-195.8
11
226.22
21
-195.943
0
LINE
8
BLACK
6
CONTINUOUS
10
226.22
20
-195.943
11
226.22
21
-196.3
0
LINE
8
BLACK
6
CONTINUOUS
10
226.22
20
-196.3
11
226.149
21
-196.443
0
LINE
8
BLACK
6
CONTINUOUS
10
226.149
20
-196.443
11
226.077
21
-196.514
0
LINE
8
BLACK
6
CONTINUOUS
10
226.077
20
-196.514
11
225.934
21
-196.586
0
LINE
8
BLACK
6
CONTINUOUS
10
225.934
20
-196.586
11
225.577
21
-196.586
0
LINE
8
BLACK
6
CONTINUOUS
10
225.577
20
-196.586
11
225.434
21
-196.514
0
LINE
8
BLACK
6
CONTINUOUS
10
225.434
20
-196.514
11
225.363
21
-196.443
0
LINE
8
BLACK
6
CONTINUOUS
10
226.72
20
-197.157
11
226.791
21
-197.086
0
LINE
8
BLACK
6
CONTINUOUS
10
226.791
20
-197.086
11
226.934
21
-196.871
0
LINE
8
BLACK
6
CONTINUOUS
10
226.934
20
-196.871
11
227.006
21
-196.729
0
LINE
8
BLACK
6
CONTINUOUS
10
227.006
20
-196.729
11
227.077
21
-196.514
0
LINE
8
BLACK
6
CONTINUOUS
10
227.077
20
-196.514
11
227.149
21
-196.157
0
LINE
8
BLACK
6
CONTINUOUS
10
227.149
20
-196.157
11
227.149
21
-195.871
0
LINE
8
BLACK
6
CONTINUOUS
10
227.149
20
-195.871
11
227.077
21
-195.514
0
LINE
8
BLACK
6
CONTINUOUS
10
227.077
20
-195.514
11
227.006
21
-195.3
0
LINE
8
BLACK
6
CONTINUOUS
10
227.006
20
-195.3
11
226.934
21
-195.157
0
LINE
8
BLACK
6
CONTINUOUS
10
226.934
20
-195.157
11
226.791
21
-194.943
0
LINE
8
BLACK
6
CONTINUOUS
10
226.791
20
-194.943
11
226.72
21
-194.871
0
LINE
8
BLACK
6
CONTINUOUS
10
177.002
20
-191.507
11
285.002
21
-191.507
0
LINE
8
BLACK
6
CONTINUOUS
10
264.411
20
-193.786
11
263.911
21
-193.071
0
LINE
8
BLACK
6
CONTINUOUS
10
263.554
20
-193.786
11
263.554
21
-192.286
0
LINE
8
BLACK
6
CONTINUOUS
10
263.554
20
-192.286
11
264.126
21
-192.286
0
LINE
8
BLACK
6
CONTINUOUS
10
264.126
20
-192.286
11
264.269
21
-192.357
0
LINE
8
BLACK
6
CONTINUOUS
10
264.269
20
-192.357
11
264.34
21
-192.429
0
LINE
8
BLACK
6
CONTINUOUS
10
264.34
20
-192.429
11
264.411
21
-192.571
0
LINE
8
BLACK
6
CONTINUOUS
10
264.411
20
-192.571
11
264.411
21
-192.786
0
LINE
8
BLACK
6
CONTINUOUS
10
264.411
20
-192.786
11
264.34
21
-192.929
0
LINE
8
BLACK
6
CONTINUOUS
10
264.34
20
-192.929
11
264.269
21
-193
0
LINE
8
BLACK
6
CONTINUOUS
10
264.269
20
-193
11
264.126
21
-193.071
0
LINE
8
BLACK
6
CONTINUOUS
10
264.126
20
-193.071
11
263.554
21
-193.071
0
LINE
8
BLACK
6
CONTINUOUS
10
265.626
20
-193.714
11
265.483
21
-193.786
0
LINE
8
BLACK
6
CONTINUOUS
10
265.483
20
-193.786
11
265.197
21
-193.786
0
LINE
8
BLACK
6
CONTINUOUS
10
265.197
20
-193.786
11
265.054
21
-193.714
0
LINE
8
BLACK
6
CONTINUOUS
10
265.054
20
-193.714
11
264.983
21
-193.571
0
LINE
8
BLACK
6
CONTINUOUS
10
264.983
20
-193.571
11
264.983
21
-193
0
LINE
8
BLACK
6
CONTINUOUS
10
264.983
20
-193
11
265.054
21
-192.857
0
LINE
8
BLACK
6
CONTINUOUS
10
265.054
20
-192.857
11
265.197
21
-192.786
0
LINE
8
BLACK
6
CONTINUOUS
10
265.197
20
-192.786
11
265.483
21
-192.786
0
LINE
8
BLACK
6
CONTINUOUS
10
265.483
20
-192.786
11
265.626
21
-192.857
0
LINE
8
BLACK
6
CONTINUOUS
10
265.626
20
-192.857
11
265.697
21
-193
0
LINE
8
BLACK
6
CONTINUOUS
10
265.697
20
-193
11
265.697
21
-193.143
0
LINE
8
BLACK
6
CONTINUOUS
10
265.697
20
-193.143
11
264.983
21
-193.286
0
LINE
8
BLACK
6
CONTINUOUS
10
266.197
20
-192.786
11
266.554
21
-193.786
0
LINE
8
BLACK
6
CONTINUOUS
10
266.554
20
-193.786
11
266.911
21
-192.786
0
LINE
8
BLACK
6
CONTINUOUS
10
267.483
20
-193.643
11
267.554
21
-193.714
0
LINE
8
BLACK
6
CONTINUOUS
10
267.554
20
-193.714
11
267.483
21
-193.786
0
LINE
8
BLACK
6
CONTINUOUS
10
267.483
20
-193.786
11
267.411
21
-193.714
0
LINE
8
BLACK
6
CONTINUOUS
10
267.411
20
-193.714
11
267.483
21
-193.643
0
LINE
8
BLACK
6
CONTINUOUS
10
267.483
20
-193.643
11
267.483
21
-193.786
0
LINE
8
BLACK
6
CONTINUOUS
10
267.483
20
-192.857
11
267.554
21
-192.929
0
LINE
8
BLACK
6
CONTINUOUS
10
267.554
20
-192.929
11
267.483
21
-193
0
LINE
8
BLACK
6
CONTINUOUS
10
267.483
20
-193
11
267.411
21
-192.929
0
LINE
8
BLACK
6
CONTINUOUS
10
267.411
20
-192.929
11
267.483
21
-192.857
0
LINE
8
BLACK
6
CONTINUOUS
10
267.483
20
-192.857
11
267.483
21
-193
0
LINE
8
BLACK
6
CONTINUOUS
10
178.363
20
-193.714
11
178.577
21
-193.786
0
LINE
8
BLACK
6
CONTINUOUS
10
178.577
20
-193.786
11
178.934
21
-193.786
0
LINE
8
BLACK
6
CONTINUOUS
10
178.934
20
-193.786
11
179.077
21
-193.714
0
LINE
8
BLACK
6
CONTINUOUS
10
179.077
20
-193.714
11
179.149
21
-193.643
0
LINE
8
BLACK
6
CONTINUOUS
10
179.149
20
-193.643
11
179.22
21
-193.5
0
LINE
8
BLACK
6
CONTINUOUS
10
179.22
20
-193.5
11
179.22
21
-193.357
0
LINE
8
BLACK
6
CONTINUOUS
10
179.22
20
-193.357
11
179.149
21
-193.214
0
LINE
8
BLACK
6
CONTINUOUS
10
179.149
20
-193.214
11
179.077
21
-193.143
0
LINE
8
BLACK
6
CONTINUOUS
10
179.077
20
-193.143
11
178.934
21
-193.071
0
LINE
8
BLACK
6
CONTINUOUS
10
178.934
20
-193.071
11
178.649
21
-193
0
LINE
8
BLACK
6
CONTINUOUS
10
178.649
20
-193
11
178.506
21
-192.929
0
LINE
8
BLACK
6
CONTINUOUS
10
178.506
20
-192.929
11
178.434
21
-192.857
0
LINE
8
BLACK
6
CONTINUOUS
10
178.434
20
-192.857
11
178.363
21
-192.714
0
LINE
8
BLACK
6
CONTINUOUS
10
178.363
20
-192.714
11
178.363
21
-192.571
0
LINE
8
BLACK
6
CONTINUOUS
10
178.363
20
-192.571
11
178.434
21
-192.429
0
LINE
8
BLACK
6
CONTINUOUS
10
178.434
20
-192.429
11
178.506
21
-192.357
0
LINE
8
BLACK
6
CONTINUOUS
10
178.506
20
-192.357
11
178.649
21
-192.286
0
LINE
8
BLACK
6
CONTINUOUS
10
178.649
20
-192.286
11
179.006
21
-192.286
0
LINE
8
BLACK
6
CONTINUOUS
10
179.006
20
-192.286
11
179.22
21
-192.357
0
LINE
8
BLACK
6
CONTINUOUS
10
179.863
20
-193.786
11
179.863
21
-192.786
0
LINE
8
BLACK
6
CONTINUOUS
10
179.863
20
-192.286
11
179.791
21
-192.357
0
LINE
8
BLACK
6
CONTINUOUS
10
179.791
20
-192.357
11
179.863
21
-192.429
0
LINE
8
BLACK
6
CONTINUOUS
10
179.863
20
-192.429
11
179.934
21
-192.357
0
LINE
8
BLACK
6
CONTINUOUS
10
179.934
20
-192.357
11
179.863
21
-192.286
0
LINE
8
BLACK
6
CONTINUOUS
10
179.863
20
-192.286
11
179.863
21
-192.429
0
LINE
8
BLACK
6
CONTINUOUS
10
180.434
20
-192.786
11
181.22
21
-192.786
0
LINE
8
BLACK
6
CONTINUOUS
10
181.22
20
-192.786
11
180.434
21
-193.786
0
LINE
8
BLACK
6
CONTINUOUS
10
180.434
20
-193.786
11
181.22
21
-193.786
0
LINE
8
BLACK
6
CONTINUOUS
10
182.363
20
-193.714
11
182.22
21
-193.786
0
LINE
8
BLACK
6
CONTINUOUS
10
182.22
20
-193.786
11
181.934
21
-193.786
0
LINE
8
BLACK
6
CONTINUOUS
10
181.934
20
-193.786
11
181.791
21
-193.714
0
LINE
8
BLACK
6
CONTINUOUS
10
181.791
20
-193.714
11
181.72
21
-193.571
0
LINE
8
BLACK
6
CONTINUOUS
10
181.72
20
-193.571
11
181.72
21
-193
0
LINE
8
BLACK
6
CONTINUOUS
10
181.72
20
-193
11
181.791
21
-192.857
0
LINE
8
BLACK
6
CONTINUOUS
10
181.791
20
-192.857
11
181.934
21
-192.786
0
LINE
8
BLACK
6
CONTINUOUS
10
181.934
20
-192.786
11
182.22
21
-192.786
0
LINE
8
BLACK
6
CONTINUOUS
10
182.22
20
-192.786
11
182.363
21
-192.857
0
LINE
8
BLACK
6
CONTINUOUS
10
182.363
20
-192.857
11
182.434
21
-193
0
LINE
8
BLACK
6
CONTINUOUS
10
182.434
20
-193
11
182.434
21
-193.143
0
LINE
8
BLACK
6
CONTINUOUS
10
182.434
20
-193.143
11
181.72
21
-193.286
0
LINE
8
BLACK
6
CONTINUOUS
10
183.077
20
-193.643
11
183.149
21
-193.714
0
LINE
8
BLACK
6
CONTINUOUS
10
183.149
20
-193.714
11
183.077
21
-193.786
0
LINE
8
BLACK
6
CONTINUOUS
10
183.077
20
-193.786
11
183.006
21
-193.714
0
LINE
8
BLACK
6
CONTINUOUS
10
183.006
20
-193.714
11
183.077
21
-193.643
0
LINE
8
BLACK
6
CONTINUOUS
10
183.077
20
-193.643
11
183.077
21
-193.786
0
LINE
8
BLACK
6
CONTINUOUS
10
183.077
20
-192.857
11
183.149
21
-192.929
0
LINE
8
BLACK
6
CONTINUOUS
10
183.149
20
-192.929
11
183.077
21
-193
0
LINE
8
BLACK
6
CONTINUOUS
10
183.077
20
-193
11
183.006
21
-192.929
0
LINE
8
BLACK
6
CONTINUOUS
10
183.006
20
-192.929
11
183.077
21
-192.857
0
LINE
8
BLACK
6
CONTINUOUS
10
183.077
20
-192.857
11
183.077
21
-193
0
LINE
8
BLACK
6
CONTINUOUS
10
184.863
20
-193.357
11
185.577
21
-193.357
0
LINE
8
BLACK
6
CONTINUOUS
10
184.72
20
-193.786
11
185.22
21
-192.286
0
LINE
8
BLACK
6
CONTINUOUS
10
185.22
20
-192.286
11
185.72
21
-193.786
0
LINE
8
BLACK
6
CONTINUOUS
10
186.863
20
-192.786
11
186.863
21
-193.786
0
LINE
8
BLACK
6
CONTINUOUS
10
186.506
20
-192.214
11
186.149
21
-193.286
0
LINE
8
BLACK
6
CONTINUOUS
10
186.149
20
-193.286
11
187.077
21
-193.286
0
LINE
8
BLACK
6
CONTINUOUS
10
263.434
20
-196.586
11
263.434
21
-195.086
0
LINE
8
BLACK
6
CONTINUOUS
10
264.791
20
-196.586
11
264.791
21
-195.086
0
LINE
8
BLACK
6
CONTINUOUS
10
264.791
20
-196.514
11
264.649
21
-196.586
0
LINE
8
BLACK
6
CONTINUOUS
10
264.649
20
-196.586
11
264.363
21
-196.586
0
LINE
8
BLACK
6
CONTINUOUS
10
264.363
20
-196.586
11
264.22
21
-196.514
0
LINE
8
BLACK
6
CONTINUOUS
10
264.22
20
-196.514
11
264.149
21
-196.443
0
LINE
8
BLACK
6
CONTINUOUS
10
264.149
20
-196.443
11
264.077
21
-196.3
0
LINE
8
BLACK
6
CONTINUOUS
10
264.077
20
-196.3
11
264.077
21
-195.871
0
LINE
8
BLACK
6
CONTINUOUS
10
264.077
20
-195.871
11
264.149
21
-195.729
0
LINE
8
BLACK
6
CONTINUOUS
10
264.149
20
-195.729
11
264.22
21
-195.657
0
LINE
8
BLACK
6
CONTINUOUS
10
264.22
20
-195.657
11
264.363
21
-195.586
0
LINE
8
BLACK
6
CONTINUOUS
10
264.363
20
-195.586
11
264.649
21
-195.586
0
LINE
8
BLACK
6
CONTINUOUS
10
264.649
20
-195.586
11
264.791
21
-195.657
0
LINE
8
BLACK
6
CONTINUOUS
10
265.506
20
-196.443
11
265.577
21
-196.514
0
LINE
8
BLACK
6
CONTINUOUS
10
265.577
20
-196.514
11
265.506
21
-196.586
0
LINE
8
BLACK
6
CONTINUOUS
10
265.506
20
-196.586
11
265.434
21
-196.514
0
LINE
8
BLACK
6
CONTINUOUS
10
265.434
20
-196.514
11
265.506
21
-196.443
0
LINE
8
BLACK
6
CONTINUOUS
10
265.506
20
-196.443
11
265.506
21
-196.586
0
LINE
8
BLACK
6
CONTINUOUS
10
265.506
20
-195.657
11
265.577
21
-195.729
0
LINE
8
BLACK
6
CONTINUOUS
10
265.577
20
-195.729
11
265.506
21
-195.8
0
LINE
8
BLACK
6
CONTINUOUS
10
265.506
20
-195.8
11
265.434
21
-195.729
0
LINE
8
BLACK
6
CONTINUOUS
10
265.434
20
-195.729
11
265.506
21
-195.657
0
LINE
8
BLACK
6
CONTINUOUS
10
265.506
20
-195.657
11
265.506
21
-195.8
0
LINE
8
BLACK
6
CONTINUOUS
10
268.149
20
-196.586
11
267.291
21
-196.586
0
LINE
8
BLACK
6
CONTINUOUS
10
267.72
20
-196.586
11
267.72
21
-195.086
0
LINE
8
BLACK
6
CONTINUOUS
10
267.72
20
-195.086
11
267.577
21
-195.3
0
LINE
8
BLACK
6
CONTINUOUS
10
267.577
20
-195.3
11
267.434
21
-195.443
0
LINE
8
BLACK
6
CONTINUOUS
10
267.434
20
-195.443
11
267.291
21
-195.514
0
LINE
8
BLACK
6
CONTINUOUS
10
269.863
20
-195.014
11
268.577
21
-196.943
0
LINE
8
BLACK
6
CONTINUOUS
10
271.149
20
-196.586
11
270.291
21
-196.586
0
LINE
8
BLACK
6
CONTINUOUS
10
270.72
20
-196.586
11
270.72
21
-195.086
0
LINE
8
BLACK
6
CONTINUOUS
10
270.72
20
-195.086
11
270.577
21
-195.3
0
LINE
8
BLACK
6
CONTINUOUS
10
270.577
20
-195.3
11
270.434
21
-195.443
0
LINE
8
BLACK
6
CONTINUOUS
10
270.434
20
-195.443
11
270.291
21
-195.514
0
LINE
8
BLACK
6
CONTINUOUS
10
177.002
20
-187.507
11
285.002
21
-187.507
0
LINE
8
BLACK
6
CONTINUOUS
10
178.715
20
-188.212
11
179.857
21
-188.212
0
LINE
8
BLACK
6
CONTINUOUS
10
179.036
20
-190.212
11
179.286
21
-188.212
0
LINE
8
BLACK
6
CONTINUOUS
10
180.274
20
-190.212
11
180.441
21
-188.879
0
LINE
8
BLACK
6
CONTINUOUS
10
180.524
20
-188.212
11
180.417
21
-188.307
0
LINE
8
BLACK
6
CONTINUOUS
10
180.417
20
-188.307
11
180.5
21
-188.402
0
LINE
8
BLACK
6
CONTINUOUS
10
180.5
20
-188.402
11
180.607
21
-188.307
0
LINE
8
BLACK
6
CONTINUOUS
10
180.607
20
-188.307
11
180.524
21
-188.212
0
LINE
8
BLACK
6
CONTINUOUS
10
180.524
20
-188.212
11
180.5
21
-188.402
0
LINE
8
BLACK
6
CONTINUOUS
10
181.107
20
-188.879
11
181.869
21
-188.879
0
LINE
8
BLACK
6
CONTINUOUS
10
181.476
20
-188.212
11
181.262
21
-189.926
0
LINE
8
BLACK
6
CONTINUOUS
10
181.262
20
-189.926
11
181.334
21
-190.117
0
LINE
8
BLACK
6
CONTINUOUS
10
181.334
20
-190.117
11
181.512
21
-190.212
0
LINE
8
BLACK
6
CONTINUOUS
10
181.512
20
-190.212
11
181.703
21
-190.212
0
LINE
8
BLACK
6
CONTINUOUS
10
182.655
20
-190.212
11
182.476
21
-190.117
0
LINE
8
BLACK
6
CONTINUOUS
10
182.476
20
-190.117
11
182.405
21
-189.926
0
LINE
8
BLACK
6
CONTINUOUS
10
182.405
20
-189.926
11
182.619
21
-188.212
0
LINE
8
BLACK
6
CONTINUOUS
10
184.191
20
-190.117
11
183.988
21
-190.212
0
LINE
8
BLACK
6
CONTINUOUS
10
183.988
20
-190.212
11
183.607
21
-190.212
0
LINE
8
BLACK
6
CONTINUOUS
10
183.607
20
-190.212
11
183.429
21
-190.117
0
LINE
8
BLACK
6
CONTINUOUS
10
183.429
20
-190.117
11
183.357
21
-189.926
0
LINE
8
BLACK
6
CONTINUOUS
10
183.357
20
-189.926
11
183.453
21
-189.164
0
LINE
8
BLACK
6
CONTINUOUS
10
183.453
20
-189.164
11
183.572
21
-188.974
0
LINE
8
BLACK
6
CONTINUOUS
10
183.572
20
-188.974
11
183.774
21
-188.879
0
LINE
8
BLACK
6
CONTINUOUS
10
183.774
20
-188.879
11
184.155
21
-188.879
0
LINE
8
BLACK
6
CONTINUOUS
10
184.155
20
-188.879
11
184.334
21
-188.974
0
LINE
8
BLACK
6
CONTINUOUS
10
184.334
20
-188.974
11
184.405
21
-189.164
0
LINE
8
BLACK
6
CONTINUOUS
10
184.405
20
-189.164
11
184.381
21
-189.355
0
LINE
8
BLACK
6
CONTINUOUS
10
184.381
20
-189.355
11
183.405
21
-189.545
0
LINE
8
BLACK
6
CONTINUOUS
10
185.155
20
-190.021
11
185.238
21
-190.117
0
LINE
8
BLACK
6
CONTINUOUS
10
185.238
20
-190.117
11
185.131
21
-190.212
0
LINE
8
BLACK
6
CONTINUOUS
10
185.131
20
-190.212
11
185.048
21
-190.117
0
LINE
8
BLACK
6
CONTINUOUS
10
185.048
20
-190.117
11
185.155
21
-190.021
0
LINE
8
BLACK
6
CONTINUOUS
10
185.155
20
-190.021
11
185.131
21
-190.212
0
LINE
8
BLACK
6
CONTINUOUS
10
185.286
20
-188.974
11
185.369
21
-189.069
0
LINE
8
BLACK
6
CONTINUOUS
10
185.369
20
-189.069
11
185.262
21
-189.164
0
LINE
8
BLACK
6
CONTINUOUS
10
185.262
20
-189.164
11
185.179
21
-189.069
0
LINE
8
BLACK
6
CONTINUOUS
10
185.179
20
-189.069
11
185.286
21
-188.974
0
LINE
8
BLACK
6
CONTINUOUS
10
185.286
20
-188.974
11
185.262
21
-189.164
0
LINE
8
BLACK
6
CONTINUOUS
10
178.934
20
-185.6
11
178.434
21
-185.6
0
LINE
8
BLACK
6
CONTINUOUS
10
178.434
20
-186.386
11
178.434
21
-184.886
0
LINE
8
BLACK
6
CONTINUOUS
10
178.434
20
-184.886
11
179.149
21
-184.886
0
LINE
8
BLACK
6
CONTINUOUS
10
179.72
20
-186.386
11
179.72
21
-185.386
0
LINE
8
BLACK
6
CONTINUOUS
10
179.72
20
-184.886
11
179.649
21
-184.957
0
LINE
8
BLACK
6
CONTINUOUS
10
179.649
20
-184.957
11
179.72
21
-185.029
0
LINE
8
BLACK
6
CONTINUOUS
10
179.72
20
-185.029
11
179.791
21
-184.957
0
LINE
8
BLACK
6
CONTINUOUS
10
179.791
20
-184.957
11
179.72
21
-184.886
0
LINE
8
BLACK
6
CONTINUOUS
10
179.72
20
-184.886
11
179.72
21
-185.029
0
LINE
8
BLACK
6
CONTINUOUS
10
180.649
20
-186.386
11
180.506
21
-186.314
0
LINE
8
BLACK
6
CONTINUOUS
10
180.506
20
-186.314
11
180.434
21
-186.171
0
LINE
8
BLACK
6
CONTINUOUS
10
180.434
20
-186.171
11
180.434
21
-184.886
0
LINE
8
BLACK
6
CONTINUOUS
10
181.791
20
-186.314
11
181.649
21
-186.386
0
LINE
8
BLACK
6
CONTINUOUS
10
181.649
20
-186.386
11
181.363
21
-186.386
0
LINE
8
BLACK
6
CONTINUOUS
10
181.363
20
-186.386
11
181.22
21
-186.314
0
LINE
8
BLACK
6
CONTINUOUS
10
181.22
20
-186.314
11
181.149
21
-186.171
0
LINE
8
BLACK
6
CONTINUOUS
10
181.149
20
-186.171
11
181.149
21
-185.6
0
LINE
8
BLACK
6
CONTINUOUS
10
181.149
20
-185.6
11
181.22
21
-185.457
0
LINE
8
BLACK
6
CONTINUOUS
10
181.22
20
-185.457
11
181.363
21
-185.386
0
LINE
8
BLACK
6
CONTINUOUS
10
181.363
20
-185.386
11
181.649
21
-185.386
0
LINE
8
BLACK
6
CONTINUOUS
10
181.649
20
-185.386
11
181.791
21
-185.457
0
LINE
8
BLACK
6
CONTINUOUS
10
181.791
20
-185.457
11
181.863
21
-185.6
0
LINE
8
BLACK
6
CONTINUOUS
10
181.863
20
-185.6
11
181.863
21
-185.743
0
LINE
8
BLACK
6
CONTINUOUS
10
181.863
20
-185.743
11
181.149
21
-185.886
0
LINE
8
BLACK
6
CONTINUOUS
10
182.506
20
-186.243
11
182.577
21
-186.314
0
LINE
8
BLACK
6
CONTINUOUS
10
182.577
20
-186.314
11
182.506
21
-186.386
0
LINE
8
BLACK
6
CONTINUOUS
10
182.506
20
-186.386
11
182.434
21
-186.314
0
LINE
8
BLACK
6
CONTINUOUS
10
182.434
20
-186.314
11
182.506
21
-186.243
0
LINE
8
BLACK
6
CONTINUOUS
10
182.506
20
-186.243
11
182.506
21
-186.386
0
LINE
8
BLACK
6
CONTINUOUS
10
182.506
20
-185.457
11
182.577
21
-185.529
0
LINE
8
BLACK
6
CONTINUOUS
10
182.577
20
-185.529
11
182.506
21
-185.6
0
LINE
8
BLACK
6
CONTINUOUS
10
182.506
20
-185.6
11
182.434
21
-185.529
0
LINE
8
BLACK
6
CONTINUOUS
10
182.434
20
-185.529
11
182.506
21
-185.457
0
LINE
8
BLACK
6
CONTINUOUS
10
182.506
20
-185.457
11
182.506
21
-185.6
0
LINE
8
BLACK
6
CONTINUOUS
10
184.291
20
-186.314
11
184.434
21
-186.386
0
LINE
8
BLACK
6
CONTINUOUS
10
184.434
20
-186.386
11
184.72
21
-186.386
0
LINE
8
BLACK
6
CONTINUOUS
10
184.72
20
-186.386
11
184.863
21
-186.314
0
LINE
8
BLACK
6
CONTINUOUS
10
184.863
20
-186.314
11
184.934
21
-186.171
0
LINE
8
BLACK
6
CONTINUOUS
10
184.934
20
-186.171
11
184.934
21
-186.1
0
LINE
8
BLACK
6
CONTINUOUS
10
184.934
20
-186.1
11
184.863
21
-185.957
0
LINE
8
BLACK
6
CONTINUOUS
10
184.863
20
-185.957
11
184.72
21
-185.886
0
LINE
8
BLACK
6
CONTINUOUS
10
184.72
20
-185.886
11
184.506
21
-185.886
0
LINE
8
BLACK
6
CONTINUOUS
10
184.506
20
-185.886
11
184.363
21
-185.814
0
LINE
8
BLACK
6
CONTINUOUS
10
184.363
20
-185.814
11
184.291
21
-185.671
0
LINE
8
BLACK
6
CONTINUOUS
10
184.291
20
-185.671
11
184.291
21
-185.6
0
LINE
8
BLACK
6
CONTINUOUS
10
184.291
20
-185.6
11
184.363
21
-185.457
0
LINE
8
BLACK
6
CONTINUOUS
10
184.363
20
-185.457
11
184.506
21
-185.386
0
LINE
8
BLACK
6
CONTINUOUS
10
184.506
20
-185.386
11
184.72
21
-185.386
0
LINE
8
BLACK
6
CONTINUOUS
10
184.72
20
-185.386
11
184.863
21
-185.457
0
LINE
8
BLACK
6
CONTINUOUS
10
186.22
20
-186.386
11
186.22
21
-185.6
0
LINE
8
BLACK
6
CONTINUOUS
10
186.22
20
-185.6
11
186.149
21
-185.457
0
LINE
8
BLACK
6
CONTINUOUS
10
186.149
20
-185.457
11
186.006
21
-185.386
0
LINE
8
BLACK
6
CONTINUOUS
10
186.006
20
-185.386
11
185.72
21
-185.386
0
LINE
8
BLACK
6
CONTINUOUS
10
185.72
20
-185.386
11
185.577
21
-185.457
0
LINE
8
BLACK
6
CONTINUOUS
10
186.22
20
-186.314
11
186.077
21
-186.386
0
LINE
8
BLACK
6
CONTINUOUS
10
186.077
20
-186.386
11
185.72
21
-186.386
0
LINE
8
BLACK
6
CONTINUOUS
10
185.72
20
-186.386
11
185.577
21
-186.314
0
LINE
8
BLACK
6
CONTINUOUS
10
185.577
20
-186.314
11
185.506
21
-186.171
0
LINE
8
BLACK
6
CONTINUOUS
10
185.506
20
-186.171
11
185.506
21
-186.029
0
LINE
8
BLACK
6
CONTINUOUS
10
185.506
20
-186.029
11
185.577
21
-185.886
0
LINE
8
BLACK
6
CONTINUOUS
10
185.577
20
-185.886
11
185.72
21
-185.814
0
LINE
8
BLACK
6
CONTINUOUS
10
185.72
20
-185.814
11
186.077
21
-185.814
0
LINE
8
BLACK
6
CONTINUOUS
10
186.077
20
-185.814
11
186.22
21
-185.743
0
LINE
8
BLACK
6
CONTINUOUS
10
187.577
20
-185.386
11
187.577
21
-186.6
0
LINE
8
BLACK
6
CONTINUOUS
10
187.577
20
-186.6
11
187.506
21
-186.743
0
LINE
8
BLACK
6
CONTINUOUS
10
187.506
20
-186.743
11
187.434
21
-186.814
0
LINE
8
BLACK
6
CONTINUOUS
10
187.434
20
-186.814
11
187.291
21
-186.886
0
LINE
8
BLACK
6
CONTINUOUS
10
187.291
20
-186.886
11
187.077
21
-186.886
0
LINE
8
BLACK
6
CONTINUOUS
10
187.077
20
-186.886
11
186.934
21
-186.814
0
LINE
8
BLACK
6
CONTINUOUS
10
187.577
20
-186.314
11
187.434
21
-186.386
0
LINE
8
BLACK
6
CONTINUOUS
10
187.434
20
-186.386
11
187.149
21
-186.386
0
LINE
8
BLACK
6
CONTINUOUS
10
187.149
20
-186.386
11
187.006
21
-186.314
0
LINE
8
BLACK
6
CONTINUOUS
10
187.006
20
-186.314
11
186.934
21
-186.243
0
LINE
8
BLACK
6
CONTINUOUS
10
186.934
20
-186.243
11
186.863
21
-186.1
0
LINE
8
BLACK
6
CONTINUOUS
10
186.863
20
-186.1
11
186.863
21
-185.671
0
LINE
8
BLACK
6
CONTINUOUS
10
186.863
20
-185.671
11
186.934
21
-185.529
0
LINE
8
BLACK
6
CONTINUOUS
10
186.934
20
-185.529
11
187.006
21
-185.457
0
LINE
8
BLACK
6
CONTINUOUS
10
187.006
20
-185.457
11
187.149
21
-185.386
0
LINE
8
BLACK
6
CONTINUOUS
10
187.149
20
-185.386
11
187.434
21
-185.386
0
LINE
8
BLACK
6
CONTINUOUS
10
187.434
20
-185.386
11
187.577
21
-185.457
0
LINE
8
BLACK
6
CONTINUOUS
10
188.291
20
-186.386
11
188.291
21
-185.386
0
LINE
8
BLACK
6
CONTINUOUS
10
188.291
20
-184.886
11
188.22
21
-184.957
0
LINE
8
BLACK
6
CONTINUOUS
10
188.22
20
-184.957
11
188.291
21
-185.029
0
LINE
8
BLACK
6
CONTINUOUS
10
188.291
20
-185.029
11
188.363
21
-184.957
0
LINE
8
BLACK
6
CONTINUOUS
10
188.363
20
-184.957
11
188.291
21
-184.886
0
LINE
8
BLACK
6
CONTINUOUS
10
188.291
20
-184.886
11
188.291
21
-185.029
0
LINE
8
BLACK
6
CONTINUOUS
10
188.791
20
-185.386
11
189.363
21
-185.386
0
LINE
8
BLACK
6
CONTINUOUS
10
189.006
20
-184.886
11
189.006
21
-186.171
0
LINE
8
BLACK
6
CONTINUOUS
10
189.006
20
-186.171
11
189.077
21
-186.314
0
LINE
8
BLACK
6
CONTINUOUS
10
189.077
20
-186.314
11
189.22
21
-186.386
0
LINE
8
BLACK
6
CONTINUOUS
10
189.22
20
-186.386
11
189.363
21
-186.386
0
LINE
8
BLACK
6
CONTINUOUS
10
189.649
20
-185.386
11
190.22
21
-185.386
0
LINE
8
BLACK
6
CONTINUOUS
10
189.863
20
-184.886
11
189.863
21
-186.171
0
LINE
8
BLACK
6
CONTINUOUS
10
189.863
20
-186.171
11
189.934
21
-186.314
0
LINE
8
BLACK
6
CONTINUOUS
10
189.934
20
-186.314
11
190.077
21
-186.386
0
LINE
8
BLACK
6
CONTINUOUS
10
190.077
20
-186.386
11
190.22
21
-186.386
0
LINE
8
BLACK
6
CONTINUOUS
10
191.363
20
-186.386
11
191.363
21
-185.6
0
LINE
8
BLACK
6
CONTINUOUS
10
191.363
20
-185.6
11
191.291
21
-185.457
0
LINE
8
BLACK
6
CONTINUOUS
10
191.291
20
-185.457
11
191.149
21
-185.386
0
LINE
8
BLACK
6
CONTINUOUS
10
191.149
20
-185.386
11
190.863
21
-185.386
0
LINE
8
BLACK
6
CONTINUOUS
10
190.863
20
-185.386
11
190.72
21
-185.457
0
LINE
8
BLACK
6
CONTINUOUS
10
191.363
20
-186.314
11
191.22
21
-186.386
0
LINE
8
BLACK
6
CONTINUOUS
10
191.22
20
-186.386
11
190.863
21
-186.386
0
LINE
8
BLACK
6
CONTINUOUS
10
190.863
20
-186.386
11
190.72
21
-186.314
0
LINE
8
BLACK
6
CONTINUOUS
10
190.72
20
-186.314
11
190.649
21
-186.171
0
LINE
8
BLACK
6
CONTINUOUS
10
190.649
20
-186.171
11
190.649
21
-186.029
0
LINE
8
BLACK
6
CONTINUOUS
10
190.649
20
-186.029
11
190.72
21
-185.886
0
LINE
8
BLACK
6
CONTINUOUS
10
190.72
20
-185.886
11
190.863
21
-185.814
0
LINE
8
BLACK
6
CONTINUOUS
10
190.863
20
-185.814
11
191.22
21
-185.814
0
LINE
8
BLACK
6
CONTINUOUS
10
191.22
20
-185.814
11
191.363
21
-185.743
0
LINE
8
BLACK
6
CONTINUOUS
10
192.077
20
-185.814
11
193.22
21
-185.814
0
LINE
8
BLACK
6
CONTINUOUS
10
193.863
20
-186.314
11
194.006
21
-186.386
0
LINE
8
BLACK
6
CONTINUOUS
10
194.006
20
-186.386
11
194.291
21
-186.386
0
LINE
8
BLACK
6
CONTINUOUS
10
194.291
20
-186.386
11
194.434
21
-186.314
0
LINE
8
BLACK
6
CONTINUOUS
10
194.434
20
-186.314
11
194.506
21
-186.171
0
LINE
8
BLACK
6
CONTINUOUS
10
194.506
20
-186.171
11
194.506
21
-186.1
0
LINE
8
BLACK
6
CONTINUOUS
10
194.506
20
-186.1
11
194.434
21
-185.957
0
LINE
8
BLACK
6
CONTINUOUS
10
194.434
20
-185.957
11
194.291
21
-185.886
0
LINE
8
BLACK
6
CONTINUOUS
10
194.291
20
-185.886
11
194.077
21
-185.886
0
LINE
8
BLACK
6
CONTINUOUS
10
194.077
20
-185.886
11
193.934
21
-185.814
0
LINE
8
BLACK
6
CONTINUOUS
10
193.934
20
-185.814
11
193.863
21
-185.671
0
LINE
8
BLACK
6
CONTINUOUS
10
193.863
20
-185.671
11
193.863
21
-185.6
0
LINE
8
BLACK
6
CONTINUOUS
10
193.863
20
-185.6
11
193.934
21
-185.457
0
LINE
8
BLACK
6
CONTINUOUS
10
193.934
20
-185.457
11
194.077
21
-185.386
0
LINE
8
BLACK
6
CONTINUOUS
10
194.077
20
-185.386
11
194.291
21
-185.386
0
LINE
8
BLACK
6
CONTINUOUS
10
194.291
20
-185.386
11
194.434
21
-185.457
0
LINE
8
BLACK
6
CONTINUOUS
10
195.149
20
-186.386
11
195.149
21
-184.886
0
LINE
8
BLACK
6
CONTINUOUS
10
195.791
20
-186.386
11
195.791
21
-185.6
0
LINE
8
BLACK
6
CONTINUOUS
10
195.791
20
-185.6
11
195.72
21
-185.457
0
LINE
8
BLACK
6
CONTINUOUS
10
195.72
20
-185.457
11
195.577
21
-185.386
0
LINE
8
BLACK
6
CONTINUOUS
10
195.577
20
-185.386
11
195.363
21
-185.386
0
LINE
8
BLACK
6
CONTINUOUS
10
195.363
20
-185.386
11
195.22
21
-185.457
0
LINE
8
BLACK
6
CONTINUOUS
10
195.22
20
-185.457
11
195.149
21
-185.529
0
LINE
8
BLACK
6
CONTINUOUS
10
196.506
20
-186.386
11
196.506
21
-185.386
0
LINE
8
BLACK
6
CONTINUOUS
10
196.506
20
-184.886
11
196.434
21
-184.957
0
LINE
8
BLACK
6
CONTINUOUS
10
196.434
20
-184.957
11
196.506
21
-185.029
0
LINE
8
BLACK
6
CONTINUOUS
10
196.506
20
-185.029
11
196.577
21
-184.957
0
LINE
8
BLACK
6
CONTINUOUS
10
196.577
20
-184.957
11
196.506
21
-184.886
0
LINE
8
BLACK
6
CONTINUOUS
10
196.506
20
-184.886
11
196.506
21
-185.029
0
LINE
8
BLACK
6
CONTINUOUS
10
197.791
20
-186.314
11
197.649
21
-186.386
0
LINE
8
BLACK
6
CONTINUOUS
10
197.649
20
-186.386
11
197.363
21
-186.386
0
LINE
8
BLACK
6
CONTINUOUS
10
197.363
20
-186.386
11
197.22
21
-186.314
0
LINE
8
BLACK
6
CONTINUOUS
10
197.22
20
-186.314
11
197.149
21
-186.171
0
LINE
8
BLACK
6
CONTINUOUS
10
197.149
20
-186.171
11
197.149
21
-185.6
0
LINE
8
BLACK
6
CONTINUOUS
10
197.149
20
-185.6
11
197.22
21
-185.457
0
LINE
8
BLACK
6
CONTINUOUS
10
197.22
20
-185.457
11
197.363
21
-185.386
0
LINE
8
BLACK
6
CONTINUOUS
10
197.363
20
-185.386
11
197.649
21
-185.386
0
LINE
8
BLACK
6
CONTINUOUS
10
197.649
20
-185.386
11
197.791
21
-185.457
0
LINE
8
BLACK
6
CONTINUOUS
10
197.791
20
-185.457
11
197.863
21
-185.6
0
LINE
8
BLACK
6
CONTINUOUS
10
197.863
20
-185.6
11
197.863
21
-185.743
0
LINE
8
BLACK
6
CONTINUOUS
10
197.863
20
-185.743
11
197.149
21
-185.886
0
LINE
8
BLACK
6
CONTINUOUS
10
198.72
20
-186.386
11
198.577
21
-186.314
0
LINE
8
BLACK
6
CONTINUOUS
10
198.577
20
-186.314
11
198.506
21
-186.171
0
LINE
8
BLACK
6
CONTINUOUS
10
198.506
20
-186.171
11
198.506
21
-184.886
0
LINE
8
BLACK
6
CONTINUOUS
10
199.934
20
-186.386
11
199.934
21
-184.886
0
LINE
8
BLACK
6
CONTINUOUS
10
199.934
20
-186.314
11
199.791
21
-186.386
0
LINE
8
BLACK
6
CONTINUOUS
10
199.791
20
-186.386
11
199.506
21
-186.386
0
LINE
8
BLACK
6
CONTINUOUS
10
199.506
20
-186.386
11
199.363
21
-186.314
0
LINE
8
BLACK
6
CONTINUOUS
10
199.363
20
-186.314
11
199.291
21
-186.243
0
LINE
8
BLACK
6
CONTINUOUS
10
199.291
20
-186.243
11
199.22
21
-186.1
0
LINE
8
BLACK
6
CONTINUOUS
10
199.22
20
-186.1
11
199.22
21
-185.671
0
LINE
8
BLACK
6
CONTINUOUS
10
199.22
20
-185.671
11
199.291
21
-185.529
0
LINE
8
BLACK
6
CONTINUOUS
10
199.291
20
-185.529
11
199.363
21
-185.457
0
LINE
8
BLACK
6
CONTINUOUS
10
199.363
20
-185.457
11
199.506
21
-185.386
0
LINE
8
BLACK
6
CONTINUOUS
10
199.506
20
-185.386
11
199.791
21
-185.386
0
LINE
8
BLACK
6
CONTINUOUS
10
199.791
20
-185.386
11
199.934
21
-185.457
0
LINE
8
BLACK
6
CONTINUOUS
10
200.649
20
-186.243
11
200.72
21
-186.314
0
LINE
8
BLACK
6
CONTINUOUS
10
200.72
20
-186.314
11
200.649
21
-186.386
0
LINE
8
BLACK
6
CONTINUOUS
10
200.649
20
-186.386
11
200.577
21
-186.314
0
LINE
8
BLACK
6
CONTINUOUS
10
200.577
20
-186.314
11
200.649
21
-186.243
0
LINE
8
BLACK
6
CONTINUOUS
10
200.649
20
-186.243
11
200.649
21
-186.386
0
LINE
8
BLACK
6
CONTINUOUS
10
201.363
20
-186.386
11
201.363
21
-184.886
0
LINE
8
BLACK
6
CONTINUOUS
10
201.506
20
-185.814
11
201.934
21
-186.386
0
LINE
8
BLACK
6
CONTINUOUS
10
201.934
20
-185.386
11
201.363
21
-185.957
0
LINE
8
BLACK
6
CONTINUOUS
10
202.577
20
-186.386
11
202.577
21
-185.386
0
LINE
8
BLACK
6
CONTINUOUS
10
202.577
20
-184.886
11
202.506
21
-184.957
0
LINE
8
BLACK
6
CONTINUOUS
10
202.506
20
-184.957
11
202.577
21
-185.029
0
LINE
8
BLACK
6
CONTINUOUS
10
202.577
20
-185.029
11
202.649
21
-184.957
0
LINE
8
BLACK
6
CONTINUOUS
10
202.649
20
-184.957
11
202.577
21
-184.886
0
LINE
8
BLACK
6
CONTINUOUS
10
202.577
20
-184.886
11
202.577
21
-185.029
0
LINE
8
BLACK
6
CONTINUOUS
10
203.934
20
-186.314
11
203.791
21
-186.386
0
LINE
8
BLACK
6
CONTINUOUS
10
203.791
20
-186.386
11
203.506
21
-186.386
0
LINE
8
BLACK
6
CONTINUOUS
10
203.506
20
-186.386
11
203.363
21
-186.314
0
LINE
8
BLACK
6
CONTINUOUS
10
203.363
20
-186.314
11
203.291
21
-186.243
0
LINE
8
BLACK
6
CONTINUOUS
10
203.291
20
-186.243
11
203.22
21
-186.1
0
LINE
8
BLACK
6
CONTINUOUS
10
203.22
20
-186.1
11
203.22
21
-185.671
0
LINE
8
BLACK
6
CONTINUOUS
10
203.22
20
-185.671
11
203.291
21
-185.529
0
LINE
8
BLACK
6
CONTINUOUS
10
203.291
20
-185.529
11
203.363
21
-185.457
0
LINE
8
BLACK
6
CONTINUOUS
10
203.363
20
-185.457
11
203.506
21
-185.386
0
LINE
8
BLACK
6
CONTINUOUS
10
203.506
20
-185.386
11
203.791
21
-185.386
0
LINE
8
BLACK
6
CONTINUOUS
10
203.791
20
-185.386
11
203.934
21
-185.457
0
LINE
8
BLACK
6
CONTINUOUS
10
205.22
20
-186.386
11
205.22
21
-185.6
0
LINE
8
BLACK
6
CONTINUOUS
10
205.22
20
-185.6
11
205.149
21
-185.457
0
LINE
8
BLACK
6
CONTINUOUS
10
205.149
20
-185.457
11
205.006
21
-185.386
0
LINE
8
BLACK
6
CONTINUOUS
10
205.006
20
-185.386
11
204.72
21
-185.386
0
LINE
8
BLACK
6
CONTINUOUS
10
204.72
20
-185.386
11
204.577
21
-185.457
0
LINE
8
BLACK
6
CONTINUOUS
10
205.22
20
-186.314
11
205.077
21
-186.386
0
LINE
8
BLACK
6
CONTINUOUS
10
205.077
20
-186.386
11
204.72
21
-186.386
0
LINE
8
BLACK
6
CONTINUOUS
10
204.72
20
-186.386
11
204.577
21
-186.314
0
LINE
8
BLACK
6
CONTINUOUS
10
204.577
20
-186.314
11
204.506
21
-186.171
0
LINE
8
BLACK
6
CONTINUOUS
10
204.506
20
-186.171
11
204.506
21
-186.029
0
LINE
8
BLACK
6
CONTINUOUS
10
204.506
20
-186.029
11
204.577
21
-185.886
0
LINE
8
BLACK
6
CONTINUOUS
10
204.577
20
-185.886
11
204.72
21
-185.814
0
LINE
8
BLACK
6
CONTINUOUS
10
204.72
20
-185.814
11
205.077
21
-185.814
0
LINE
8
BLACK
6
CONTINUOUS
10
205.077
20
-185.814
11
205.22
21
-185.743
0
LINE
8
BLACK
6
CONTINUOUS
10
206.577
20
-186.386
11
206.577
21
-184.886
0
LINE
8
BLACK
6
CONTINUOUS
10
206.577
20
-186.314
11
206.434
21
-186.386
0
LINE
8
BLACK
6
CONTINUOUS
10
206.434
20
-186.386
11
206.149
21
-186.386
0
LINE
8
BLACK
6
CONTINUOUS
10
206.149
20
-186.386
11
206.006
21
-186.314
0
LINE
8
BLACK
6
CONTINUOUS
10
206.006
20
-186.314
11
205.934
21
-186.243
0
LINE
8
BLACK
6
CONTINUOUS
10
205.934
20
-186.243
11
205.863
21
-186.1
0
LINE
8
BLACK
6
CONTINUOUS
10
205.863
20
-186.1
11
205.863
21
-185.671
0
LINE
8
BLACK
6
CONTINUOUS
10
205.863
20
-185.671
11
205.934
21
-185.529
0
LINE
8
BLACK
6
CONTINUOUS
10
205.934
20
-185.529
11
206.006
21
-185.457
0
LINE
8
BLACK
6
CONTINUOUS
10
206.006
20
-185.457
11
206.149
21
-185.386
0
LINE
8
BLACK
6
CONTINUOUS
10
206.149
20
-185.386
11
206.434
21
-185.386
0
LINE
8
BLACK
6
CONTINUOUS
10
206.434
20
-185.386
11
206.577
21
-185.457
0
LINE
8
BLACK
6
CONTINUOUS
10
206.934
20
-186.529
11
208.077
21
-186.529
0
LINE
8
BLACK
6
CONTINUOUS
10
208.434
20
-185.386
11
208.434
21
-186.886
0
LINE
8
BLACK
6
CONTINUOUS
10
208.434
20
-185.457
11
208.577
21
-185.386
0
LINE
8
BLACK
6
CONTINUOUS
10
208.577
20
-185.386
11
208.863
21
-185.386
0
LINE
8
BLACK
6
CONTINUOUS
10
208.863
20
-185.386
11
209.006
21
-185.457
0
LINE
8
BLACK
6
CONTINUOUS
10
209.006
20
-185.457
11
209.077
21
-185.529
0
LINE
8
BLACK
6
CONTINUOUS
10
209.077
20
-185.529
11
209.149
21
-185.671
0
LINE
8
BLACK
6
CONTINUOUS
10
209.149
20
-185.671
11
209.149
21
-186.1
0
LINE
8
BLACK
6
CONTINUOUS
10
209.149
20
-186.1
11
209.077
21
-186.243
0
LINE
8
BLACK
6
CONTINUOUS
10
209.077
20
-186.243
11
209.006
21
-186.314
0
LINE
8
BLACK
6
CONTINUOUS
10
209.006
20
-186.314
11
208.863
21
-186.386
0
LINE
8
BLACK
6
CONTINUOUS
10
208.863
20
-186.386
11
208.577
21
-186.386
0
LINE
8
BLACK
6
CONTINUOUS
10
208.577
20
-186.386
11
208.434
21
-186.314
0
LINE
8
BLACK
6
CONTINUOUS
10
210.434
20
-186.314
11
210.291
21
-186.386
0
LINE
8
BLACK
6
CONTINUOUS
10
210.291
20
-186.386
11
210.006
21
-186.386
0
LINE
8
BLACK
6
CONTINUOUS
10
210.006
20
-186.386
11
209.863
21
-186.314
0
LINE
8
BLACK
6
CONTINUOUS
10
209.863
20
-186.314
11
209.791
21
-186.243
0
LINE
8
BLACK
6
CONTINUOUS
10
209.791
20
-186.243
11
209.72
21
-186.1
0
LINE
8
BLACK
6
CONTINUOUS
10
209.72
20
-186.1
11
209.72
21
-185.671
0
LINE
8
BLACK
6
CONTINUOUS
10
209.72
20
-185.671
11
209.791
21
-185.529
0
LINE
8
BLACK
6
CONTINUOUS
10
209.791
20
-185.529
11
209.863
21
-185.457
0
LINE
8
BLACK
6
CONTINUOUS
10
209.863
20
-185.457
11
210.006
21
-185.386
0
LINE
8
BLACK
6
CONTINUOUS
10
210.006
20
-185.386
11
210.291
21
-185.386
0
LINE
8
BLACK
6
CONTINUOUS
10
210.291
20
-185.386
11
210.434
21
-185.457
0
LINE
8
BLACK
6
CONTINUOUS
10
211.077
20
-186.386
11
211.077
21
-184.886
0
LINE
8
BLACK
6
CONTINUOUS
10
211.077
20
-185.457
11
211.22
21
-185.386
0
LINE
8
BLACK
6
CONTINUOUS
10
211.22
20
-185.386
11
211.506
21
-185.386
0
LINE
8
BLACK
6
CONTINUOUS
10
211.506
20
-185.386
11
211.649
21
-185.457
0
LINE
8
BLACK
6
CONTINUOUS
10
211.649
20
-185.457
11
211.72
21
-185.529
0
LINE
8
BLACK
6
CONTINUOUS
10
211.72
20
-185.529
11
211.791
21
-185.671
0
LINE
8
BLACK
6
CONTINUOUS
10
211.791
20
-185.671
11
211.791
21
-186.1
0
LINE
8
BLACK
6
CONTINUOUS
10
211.791
20
-186.1
11
211.72
21
-186.243
0
LINE
8
BLACK
6
CONTINUOUS
10
211.72
20
-186.243
11
211.649
21
-186.314
0
LINE
8
BLACK
6
CONTINUOUS
10
211.649
20
-186.314
11
211.506
21
-186.386
0
LINE
8
BLACK
6
CONTINUOUS
10
211.506
20
-186.386
11
211.22
21
-186.386
0
LINE
8
BLACK
6
CONTINUOUS
10
211.22
20
-186.386
11
211.077
21
-186.314
0
LINE
8
BLACK
6
CONTINUOUS
10
177.002
20
-181.507
11
285.002
21
-181.507
0
LINE
8
BLACK
6
CONTINUOUS
10
178.363
20
-183.614
11
178.577
21
-183.686
0
LINE
8
BLACK
6
CONTINUOUS
10
178.577
20
-183.686
11
178.934
21
-183.686
0
LINE
8
BLACK
6
CONTINUOUS
10
178.934
20
-183.686
11
179.077
21
-183.614
0
LINE
8
BLACK
6
CONTINUOUS
10
179.077
20
-183.614
11
179.149
21
-183.543
0
LINE
8
BLACK
6
CONTINUOUS
10
179.149
20
-183.543
11
179.22
21
-183.4
0
LINE
8
BLACK
6
CONTINUOUS
10
179.22
20
-183.4
11
179.22
21
-183.257
0
LINE
8
BLACK
6
CONTINUOUS
10
179.22
20
-183.257
11
179.149
21
-183.114
0
LINE
8
BLACK
6
CONTINUOUS
10
179.149
20
-183.114
11
179.077
21
-183.043
0
LINE
8
BLACK
6
CONTINUOUS
10
179.077
20
-183.043
11
178.934
21
-182.971
0
LINE
8
BLACK
6
CONTINUOUS
10
178.934
20
-182.971
11
178.649
21
-182.9
0
LINE
8
BLACK
6
CONTINUOUS
10
178.649
20
-182.9
11
178.506
21
-182.829
0
LINE
8
BLACK
6
CONTINUOUS
10
178.506
20
-182.829
11
178.434
21
-182.757
0
LINE
8
BLACK
6
CONTINUOUS
10
178.434
20
-182.757
11
178.363
21
-182.614
0
LINE
8
BLACK
6
CONTINUOUS
10
178.363
20
-182.614
11
178.363
21
-182.471
0
LINE
8
BLACK
6
CONTINUOUS
10
178.363
20
-182.471
11
178.434
21
-182.329
0
LINE
8
BLACK
6
CONTINUOUS
10
178.434
20
-182.329
11
178.506
21
-182.257
0
LINE
8
BLACK
6
CONTINUOUS
10
178.506
20
-182.257
11
178.649
21
-182.186
0
LINE
8
BLACK
6
CONTINUOUS
10
178.649
20
-182.186
11
179.006
21
-182.186
0
LINE
8
BLACK
6
CONTINUOUS
10
179.006
20
-182.186
11
179.22
21
-182.257
0
LINE
8
BLACK
6
CONTINUOUS
10
179.863
20
-183.686
11
179.863
21
-182.186
0
LINE
8
BLACK
6
CONTINUOUS
10
180.506
20
-183.686
11
180.506
21
-182.9
0
LINE
8
BLACK
6
CONTINUOUS
10
180.506
20
-182.9
11
180.434
21
-182.757
0
LINE
8
BLACK
6
CONTINUOUS
10
180.434
20
-182.757
11
180.291
21
-182.686
0
LINE
8
BLACK
6
CONTINUOUS
10
180.291
20
-182.686
11
180.077
21
-182.686
0
LINE
8
BLACK
6
CONTINUOUS
10
180.077
20
-182.686
11
179.934
21
-182.757
0
LINE
8
BLACK
6
CONTINUOUS
10
179.934
20
-182.757
11
179.863
21
-182.829
0
LINE
8
BLACK
6
CONTINUOUS
10
181.791
20
-183.614
11
181.649
21
-183.686
0
LINE
8
BLACK
6
CONTINUOUS
10
181.649
20
-183.686
11
181.363
21
-183.686
0
LINE
8
BLACK
6
CONTINUOUS
10
181.363
20
-183.686
11
181.22
21
-183.614
0
LINE
8
BLACK
6
CONTINUOUS
10
181.22
20
-183.614
11
181.149
21
-183.471
0
LINE
8
BLACK
6
CONTINUOUS
10
181.149
20
-183.471
11
181.149
21
-182.9
0
LINE
8
BLACK
6
CONTINUOUS
10
181.149
20
-182.9
11
181.22
21
-182.757
0
LINE
8
BLACK
6
CONTINUOUS
10
181.22
20
-182.757
11
181.363
21
-182.686
0
LINE
8
BLACK
6
CONTINUOUS
10
181.363
20
-182.686
11
181.649
21
-182.686
0
LINE
8
BLACK
6
CONTINUOUS
10
181.649
20
-182.686
11
181.791
21
-182.757
0
LINE
8
BLACK
6
CONTINUOUS
10
181.791
20
-182.757
11
181.863
21
-182.9
0
LINE
8
BLACK
6
CONTINUOUS
10
181.863
20
-182.9
11
181.863
21
-183.043
0
LINE
8
BLACK
6
CONTINUOUS
10
181.863
20
-183.043
11
181.149
21
-183.186
0
LINE
8
BLACK
6
CONTINUOUS
10
183.077
20
-183.614
11
182.934
21
-183.686
0
LINE
8
BLACK
6
CONTINUOUS
10
182.934
20
-183.686
11
182.649
21
-183.686
0
LINE
8
BLACK
6
CONTINUOUS
10
182.649
20
-183.686
11
182.506
21
-183.614
0
LINE
8
BLACK
6
CONTINUOUS
10
182.506
20
-183.614
11
182.434
21
-183.471
0
LINE
8
BLACK
6
CONTINUOUS
10
182.434
20
-183.471
11
182.434
21
-182.9
0
LINE
8
BLACK
6
CONTINUOUS
10
182.434
20
-182.9
11
182.506
21
-182.757
0
LINE
8
BLACK
6
CONTINUOUS
10
182.506
20
-182.757
11
182.649
21
-182.686
0
LINE
8
BLACK
6
CONTINUOUS
10
182.649
20
-182.686
11
182.934
21
-182.686
0
LINE
8
BLACK
6
CONTINUOUS
10
182.934
20
-182.686
11
183.077
21
-182.757
0
LINE
8
BLACK
6
CONTINUOUS
10
183.077
20
-182.757
11
183.149
21
-182.9
0
LINE
8
BLACK
6
CONTINUOUS
10
183.149
20
-182.9
11
183.149
21
-183.043
0
LINE
8
BLACK
6
CONTINUOUS
10
183.149
20
-183.043
11
182.434
21
-183.186
0
LINE
8
BLACK
6
CONTINUOUS
10
183.577
20
-182.686
11
184.149
21
-182.686
0
LINE
8
BLACK
6
CONTINUOUS
10
183.791
20
-182.186
11
183.791
21
-183.471
0
LINE
8
BLACK
6
CONTINUOUS
10
183.791
20
-183.471
11
183.863
21
-183.614
0
LINE
8
BLACK
6
CONTINUOUS
10
183.863
20
-183.614
11
184.006
21
-183.686
0
LINE
8
BLACK
6
CONTINUOUS
10
184.006
20
-183.686
11
184.149
21
-183.686
0
LINE
8
BLACK
6
CONTINUOUS
10
184.649
20
-183.543
11
184.72
21
-183.614
0
LINE
8
BLACK
6
CONTINUOUS
10
184.72
20
-183.614
11
184.649
21
-183.686
0
LINE
8
BLACK
6
CONTINUOUS
10
184.649
20
-183.686
11
184.577
21
-183.614
0
LINE
8
BLACK
6
CONTINUOUS
10
184.577
20
-183.614
11
184.649
21
-183.543
0
LINE
8
BLACK
6
CONTINUOUS
10
184.649
20
-183.543
11
184.649
21
-183.686
0
LINE
8
BLACK
6
CONTINUOUS
10
184.649
20
-182.757
11
184.72
21
-182.829
0
LINE
8
BLACK
6
CONTINUOUS
10
184.72
20
-182.829
11
184.649
21
-182.9
0
LINE
8
BLACK
6
CONTINUOUS
10
184.649
20
-182.9
11
184.577
21
-182.829
0
LINE
8
BLACK
6
CONTINUOUS
10
184.577
20
-182.829
11
184.649
21
-182.757
0
LINE
8
BLACK
6
CONTINUOUS
10
184.649
20
-182.757
11
184.649
21
-182.9
0
LINE
8
BLACK
6
CONTINUOUS
10
197.002
20
-191.507
11
197.002
21
-194.507
0
LINE
8
BLACK
6
CONTINUOUS
10
261.002
20
-191.507
11
261.002
21
-198.007
0
LINE
8
BLACK
6
CONTINUOUS
10
114.415
20
-151.603
11
114.402
21
-151.599
0
LINE
8
BLACK
6
CONTINUOUS
10
114.402
20
-151.599
11
114.389
21
-151.596
0
LINE
8
BLACK
6
CONTINUOUS
10
114.389
20
-151.596
11
113.873
21
-151.361
0
LINE
8
BLACK
6
CONTINUOUS
10
113.873
20
-151.361
11
113.873
21
-151.361
0
LINE
8
BLACK
6
CONTINUOUS
10
113.873
20
-151.361
11
113.873
21
-151.361
0
LINE
8
BLACK
6
CONTINUOUS
10
113.873
20
-151.361
11
113.872
21
-151.36
0
LINE
8
BLACK
6
CONTINUOUS
10
113.872
20
-151.36
11
113.861
21
-151.353
0
LINE
8
BLACK
6
CONTINUOUS
10
113.861
20
-151.353
11
113.849
21
-151.346
0
LINE
8
BLACK
6
CONTINUOUS
10
113.849
20
-151.346
11
113.42
21
-150.976
0
LINE
8
BLACK
6
CONTINUOUS
10
113.42
20
-150.976
11
113.42
21
-150.976
0
LINE
8
BLACK
6
CONTINUOUS
10
113.42
20
-150.976
11
113.42
21
-150.976
0
LINE
8
BLACK
6
CONTINUOUS
10
113.42
20
-150.976
11
113.419
21
-150.975
0
LINE
8
BLACK
6
CONTINUOUS
10
113.419
20
-150.975
11
113.41
21
-150.964
0
LINE
8
BLACK
6
CONTINUOUS
10
113.41
20
-150.964
11
113.401
21
-150.954
0
LINE
8
BLACK
6
CONTINUOUS
10
113.401
20
-150.954
11
113.093
21
-150.478
0
LINE
8
BLACK
6
CONTINUOUS
10
113.093
20
-150.478
11
113.092
21
-150.477
0
LINE
8
BLACK
6
CONTINUOUS
10
113.092
20
-150.477
11
113.086
21
-150.465
0
LINE
8
BLACK
6
CONTINUOUS
10
113.086
20
-150.465
11
113.081
21
-150.453
0
LINE
8
BLACK
6
CONTINUOUS
10
113.081
20
-150.453
11
112.918
21
-149.909
0
LINE
8
BLACK
6
CONTINUOUS
10
112.918
20
-149.909
11
112.918
21
-149.908
0
LINE
8
BLACK
6
CONTINUOUS
10
112.918
20
-149.908
11
112.916
21
-149.898
0
LINE
8
BLACK
6
CONTINUOUS
10
112.916
20
-149.898
11
112.914
21
-149.888
0
LINE
8
BLACK
6
CONTINUOUS
10
112.914
20
-149.888
11
112.893
21
-149.597
0
LINE
8
BLACK
6
CONTINUOUS
10
112.893
20
-149.597
11
112.892
21
-149.594
0
LINE
8
BLACK
6
CONTINUOUS
10
112.892
20
-149.594
11
112.892
21
-62.1263
0
LINE
8
BLACK
6
CONTINUOUS
10
112.892
20
-62.1263
11
112.893
21
-62.1193
0
LINE
8
BLACK
6
CONTINUOUS
10
112.893
20
-62.1193
11
112.973
21
-61.5595
0
LINE
8
BLACK
6
CONTINUOUS
10
112.973
20
-61.5595
11
112.973
21
-61.5595
0
LINE
8
BLACK
6
CONTINUOUS
10
112.973
20
-61.5595
11
112.973
21
-61.5595
0
LINE
8
BLACK
6
CONTINUOUS
10
112.973
20
-61.5595
11
112.974
21
-61.5583
0
LINE
8
BLACK
6
CONTINUOUS
10
112.974
20
-61.5583
11
112.978
21
-61.5453
0
LINE
8
BLACK
6
CONTINUOUS
10
112.978
20
-61.5453
11
112.981
21
-61.5323
0
LINE
8
BLACK
6
CONTINUOUS
10
112.981
20
-61.5323
11
113.216
21
-61.0161
0
LINE
8
BLACK
6
CONTINUOUS
10
113.216
20
-61.0161
11
113.216
21
-61.0161
0
LINE
8
BLACK
6
CONTINUOUS
10
113.216
20
-61.0161
11
113.216
21
-61.0161
0
LINE
8
BLACK
6
CONTINUOUS
10
113.216
20
-61.0161
11
113.217
21
-61.015
0
LINE
8
BLACK
6
CONTINUOUS
10
113.217
20
-61.015
11
113.224
21
-61.0036
0
LINE
8
BLACK
6
CONTINUOUS
10
113.224
20
-61.0036
11
113.231
21
-60.9922
0
LINE
8
BLACK
6
CONTINUOUS
10
113.231
20
-60.9922
11
113.601
21
-60.5626
0
LINE
8
BLACK
6
CONTINUOUS
10
113.601
20
-60.5626
11
113.601
21
-60.5626
0
LINE
8
BLACK
6
CONTINUOUS
10
113.601
20
-60.5626
11
113.601
21
-60.5626
0
LINE
8
BLACK
6
CONTINUOUS
10
113.601
20
-60.5626
11
113.602
21
-60.5617
0
LINE
8
BLACK
6
CONTINUOUS
10
113.602
20
-60.5617
11
113.613
21
-60.5529
0
LINE
8
BLACK
6
CONTINUOUS
10
113.613
20
-60.5529
11
113.623
21
-60.544
0
LINE
8
BLACK
6
CONTINUOUS
10
113.623
20
-60.544
11
114.099
21
-60.2355
0
LINE
8
BLACK
6
CONTINUOUS
10
114.099
20
-60.2355
11
114.099
21
-60.2355
0
LINE
8
BLACK
6
CONTINUOUS
10
114.099
20
-60.2355
11
114.099
21
-60.2355
0
LINE
8
BLACK
6
CONTINUOUS
10
114.099
20
-60.2355
11
114.1
21
-60.2349
0
LINE
8
BLACK
6
CONTINUOUS
10
114.1
20
-60.2349
11
114.112
21
-60.2293
0
LINE
8
BLACK
6
CONTINUOUS
10
114.112
20
-60.2293
11
114.124
21
-60.2236
0
LINE
8
BLACK
6
CONTINUOUS
10
114.124
20
-60.2236
11
114.668
21
-60.0612
0
LINE
8
BLACK
6
CONTINUOUS
10
114.668
20
-60.0612
11
114.669
21
-60.0608
0
LINE
8
BLACK
6
CONTINUOUS
10
114.669
20
-60.0608
11
114.679
21
-60.0594
0
LINE
8
BLACK
6
CONTINUOUS
10
114.679
20
-60.0594
11
114.689
21
-60.0572
0
LINE
8
BLACK
6
CONTINUOUS
10
114.689
20
-60.0572
11
114.98
21
-60.0356
0
LINE
8
BLACK
6
CONTINUOUS
10
114.98
20
-60.0356
11
114.983
21
-60.035
0
LINE
8
BLACK
6
CONTINUOUS
10
114.983
20
-60.035
11
140.151
21
-60.035
0
LINE
8
BLACK
6
CONTINUOUS
10
140.151
20
-60.035
11
140.158
21
-60.0362
0
LINE
8
BLACK
6
CONTINUOUS
10
140.158
20
-60.0362
11
140.718
21
-60.1164
0
LINE
8
BLACK
6
CONTINUOUS
10
140.718
20
-60.1164
11
140.718
21
-60.1164
0
LINE
8
BLACK
6
CONTINUOUS
10
140.718
20
-60.1164
11
140.718
21
-60.1164
0
LINE
8
BLACK
6
CONTINUOUS
10
140.718
20
-60.1164
11
140.719
21
-60.1166
0
LINE
8
BLACK
6
CONTINUOUS
10
140.719
20
-60.1166
11
140.732
21
-60.1205
0
LINE
8
BLACK
6
CONTINUOUS
10
140.732
20
-60.1205
11
140.745
21
-60.1244
0
LINE
8
BLACK
6
CONTINUOUS
10
140.745
20
-60.1244
11
141.261
21
-60.3591
0
LINE
8
BLACK
6
CONTINUOUS
10
141.261
20
-60.3591
11
141.261
21
-60.3591
0
LINE
8
BLACK
6
CONTINUOUS
10
141.261
20
-60.3591
11
141.261
21
-60.3591
0
LINE
8
BLACK
6
CONTINUOUS
10
141.261
20
-60.3591
11
141.262
21
-60.3596
0
LINE
8
BLACK
6
CONTINUOUS
10
141.262
20
-60.3596
11
141.273
21
-60.367
0
LINE
8
BLACK
6
CONTINUOUS
10
141.273
20
-60.367
11
141.285
21
-60.3743
0
LINE
8
BLACK
6
CONTINUOUS
10
141.285
20
-60.3743
11
141.714
21
-60.7445
0
LINE
8
BLACK
6
CONTINUOUS
10
141.714
20
-60.7445
11
141.714
21
-60.7445
0
LINE
8
BLACK
6
CONTINUOUS
10
141.714
20
-60.7445
11
141.714
21
-60.7445
0
LINE
8
BLACK
6
CONTINUOUS
10
141.714
20
-60.7445
11
141.715
21
-60.7453
0
LINE
8
BLACK
6
CONTINUOUS
10
141.715
20
-60.7453
11
141.724
21
-60.7556
0
LINE
8
BLACK
6
CONTINUOUS
10
141.724
20
-60.7556
11
141.733
21
-60.7659
0
LINE
8
BLACK
6
CONTINUOUS
10
141.733
20
-60.7659
11
142.041
21
-61.2417
0
LINE
8
BLACK
6
CONTINUOUS
10
142.041
20
-61.2417
11
142.041
21
-61.2417
0
LINE
8
BLACK
6
CONTINUOUS
10
142.041
20
-61.2417
11
142.041
21
-61.2417
0
LINE
8
BLACK
6
CONTINUOUS
10
142.041
20
-61.2417
11
142.042
21
-61.2427
0
LINE
8
BLACK
6
CONTINUOUS
10
142.042
20
-61.2427
11
142.048
21
-61.2551
0
LINE
8
BLACK
6
CONTINUOUS
10
142.048
20
-61.2551
11
142.053
21
-61.2674
0
LINE
8
BLACK
6
CONTINUOUS
10
142.053
20
-61.2674
11
142.216
21
-61.8107
0
LINE
8
BLACK
6
CONTINUOUS
10
142.216
20
-61.8107
11
142.216
21
-61.8119
0
LINE
8
BLACK
6
CONTINUOUS
10
142.216
20
-61.8119
11
142.218
21
-61.822
0
LINE
8
BLACK
6
CONTINUOUS
10
142.218
20
-61.822
11
142.22
21
-61.832
0
LINE
8
BLACK
6
CONTINUOUS
10
142.22
20
-61.832
11
142.241
21
-62.1226
0
LINE
8
BLACK
6
CONTINUOUS
10
142.241
20
-62.1226
11
142.242
21
-62.1263
0
LINE
8
BLACK
6
CONTINUOUS
10
142.242
20
-62.1263
11
142.242
21
-149.594
0
LINE
8
BLACK
6
CONTINUOUS
10
142.242
20
-149.594
11
142.241
21
-149.601
0
LINE
8
BLACK
6
CONTINUOUS
10
142.241
20
-149.601
11
142.161
21
-150.161
0
LINE
8
BLACK
6
CONTINUOUS
10
142.161
20
-150.161
11
142.16
21
-150.162
0
LINE
8
BLACK
6
CONTINUOUS
10
142.16
20
-150.162
11
142.156
21
-150.175
0
LINE
8
BLACK
6
CONTINUOUS
10
142.156
20
-150.175
11
142.153
21
-150.188
0
LINE
8
BLACK
6
CONTINUOUS
10
142.153
20
-150.188
11
141.918
21
-150.704
0
LINE
8
BLACK
6
CONTINUOUS
10
141.918
20
-150.704
11
141.918
21
-150.704
0
LINE
8
BLACK
6
CONTINUOUS
10
141.918
20
-150.704
11
141.918
21
-150.704
0
LINE
8
BLACK
6
CONTINUOUS
10
141.918
20
-150.704
11
141.917
21
-150.705
0
LINE
8
BLACK
6
CONTINUOUS
10
141.917
20
-150.705
11
141.91
21
-150.716
0
LINE
8
BLACK
6
CONTINUOUS
10
141.91
20
-150.716
11
141.903
21
-150.728
0
LINE
8
BLACK
6
CONTINUOUS
10
141.903
20
-150.728
11
141.533
21
-151.157
0
LINE
8
BLACK
6
CONTINUOUS
10
141.533
20
-151.157
11
141.533
21
-151.157
0
LINE
8
BLACK
6
CONTINUOUS
10
141.533
20
-151.157
11
141.533
21
-151.157
0
LINE
8
BLACK
6
CONTINUOUS
10
141.533
20
-151.157
11
141.532
21
-151.158
0
LINE
8
BLACK
6
CONTINUOUS
10
141.532
20
-151.158
11
141.521
21
-151.167
0
LINE
8
BLACK
6
CONTINUOUS
10
141.521
20
-151.167
11
141.511
21
-151.176
0
LINE
8
BLACK
6
CONTINUOUS
10
141.511
20
-151.176
11
141.035
21
-151.484
0
LINE
8
BLACK
6
CONTINUOUS
10
141.035
20
-151.484
11
141.034
21
-151.485
0
LINE
8
BLACK
6
CONTINUOUS
10
141.034
20
-151.485
11
141.022
21
-151.491
0
LINE
8
BLACK
6
CONTINUOUS
10
141.022
20
-151.491
11
141.01
21
-151.496
0
LINE
8
BLACK
6
CONTINUOUS
10
141.01
20
-151.496
11
140.466
21
-151.659
0
LINE
8
BLACK
6
CONTINUOUS
10
140.466
20
-151.659
11
140.465
21
-151.659
0
LINE
8
BLACK
6
CONTINUOUS
10
140.465
20
-151.659
11
140.455
21
-151.661
0
LINE
8
BLACK
6
CONTINUOUS
10
140.455
20
-151.661
11
140.445
21
-151.663
0
LINE
8
BLACK
6
CONTINUOUS
10
140.445
20
-151.663
11
140.154
21
-151.684
0
LINE
8
BLACK
6
CONTINUOUS
10
140.154
20
-151.684
11
140.151
21
-151.685
0
LINE
8
BLACK
6
CONTINUOUS
10
140.151
20
-151.685
11
114.983
21
-151.685
0
LINE
8
BLACK
6
CONTINUOUS
10
114.983
20
-151.685
11
114.976
21
-151.684
0
LINE
8
BLACK
6
CONTINUOUS
10
114.976
20
-151.684
11
114.416
21
-151.604
0
LINE
8
BLACK
6
CONTINUOUS
10
114.416
20
-151.604
11
114.416
21
-151.604
0
LINE
8
BLACK
6
CONTINUOUS
10
114.416
20
-151.604
11
114.415
21
-151.603
0
LINE
8
BLACK
6
CONTINUOUS
10
114.996
20
-60.235
11
114.715
21
-60.2559
0
LINE
8
BLACK
6
CONTINUOUS
10
114.715
20
-60.2559
11
114.195
21
-60.4111
0
LINE
8
BLACK
6
CONTINUOUS
10
114.195
20
-60.4111
11
113.744
21
-60.704
0
LINE
8
BLACK
6
CONTINUOUS
10
113.744
20
-60.704
11
113.392
21
-61.1119
0
LINE
8
BLACK
6
CONTINUOUS
10
113.392
20
-61.1119
11
113.169
21
-61.602
0
LINE
8
BLACK
6
CONTINUOUS
10
113.169
20
-61.602
11
113.092
21
-62.1421
0
LINE
8
BLACK
6
CONTINUOUS
10
113.092
20
-62.1421
11
113.092
21
-149.581
0
LINE
8
BLACK
6
CONTINUOUS
10
113.092
20
-149.581
11
113.113
21
-149.862
0
LINE
8
BLACK
6
CONTINUOUS
10
113.113
20
-149.862
11
113.268
21
-150.382
0
LINE
8
BLACK
6
CONTINUOUS
10
113.268
20
-150.382
11
113.561
21
-150.833
0
LINE
8
BLACK
6
CONTINUOUS
10
113.561
20
-150.833
11
113.969
21
-151.185
0
LINE
8
BLACK
6
CONTINUOUS
10
113.969
20
-151.185
11
114.459
21
-151.408
0
LINE
8
BLACK
6
CONTINUOUS
10
114.459
20
-151.408
11
114.999
21
-151.485
0
LINE
8
BLACK
6
CONTINUOUS
10
114.999
20
-151.485
11
140.138
21
-151.485
0
LINE
8
BLACK
6
CONTINUOUS
10
140.138
20
-151.485
11
140.419
21
-151.464
0
LINE
8
BLACK
6
CONTINUOUS
10
140.419
20
-151.464
11
140.939
21
-151.309
0
LINE
8
BLACK
6
CONTINUOUS
10
140.939
20
-151.309
11
141.39
21
-151.016
0
LINE
8
BLACK
6
CONTINUOUS
10
141.39
20
-151.016
11
141.742
21
-150.608
0
LINE
8
BLACK
6
CONTINUOUS
10
141.742
20
-150.608
11
141.965
21
-150.118
0
LINE
8
BLACK
6
CONTINUOUS
10
141.965
20
-150.118
11
142.042
21
-149.578
0
LINE
8
BLACK
6
CONTINUOUS
10
142.042
20
-149.578
11
142.042
21
-62.1387
0
LINE
8
BLACK
6
CONTINUOUS
10
142.042
20
-62.1387
11
142.021
21
-61.8576
0
LINE
8
BLACK
6
CONTINUOUS
10
142.021
20
-61.8576
11
141.866
21
-61.3385
0
LINE
8
BLACK
6
CONTINUOUS
10
141.866
20
-61.3385
11
141.573
21
-60.8867
0
LINE
8
BLACK
6
CONTINUOUS
10
141.573
20
-60.8867
11
141.165
21
-60.5352
0
LINE
8
BLACK
6
CONTINUOUS
10
141.165
20
-60.5352
11
140.675
21
-60.3123
0
LINE
8
BLACK
6
CONTINUOUS
10
140.675
20
-60.3123
11
140.135
21
-60.235
0
LINE
8
BLACK
6
CONTINUOUS
10
140.135
20
-60.235
11
114.996
21
-60.235
0
LINE
8
BLACK
6
CONTINUOUS
10
116.347
20
-150.478
11
115.956
21
-150.839
0
LINE
8
BLACK
6
CONTINUOUS
10
115.956
20
-150.839
11
115.47
21
-151.054
0
LINE
8
BLACK
6
CONTINUOUS
10
115.47
20
-151.054
11
114.94
21
-151.1
0
LINE
8
BLACK
6
CONTINUOUS
10
114.94
20
-151.1
11
114.424
21
-150.972
0
LINE
8
BLACK
6
CONTINUOUS
10
114.424
20
-150.972
11
113.977
21
-150.683
0
LINE
8
BLACK
6
CONTINUOUS
10
113.977
20
-150.683
11
113.647
21
-150.265
0
LINE
8
BLACK
6
CONTINUOUS
10
113.647
20
-150.265
11
113.471
21
-149.764
0
LINE
8
BLACK
6
CONTINUOUS
10
113.471
20
-149.764
11
113.467
21
-149.232
0
LINE
8
BLACK
6
CONTINUOUS
10
113.467
20
-149.232
11
113.635
21
-148.727
0
LINE
8
BLACK
6
CONTINUOUS
10
113.635
20
-148.727
11
113.958
21
-148.304
0
LINE
8
BLACK
6
CONTINUOUS
10
113.958
20
-148.304
11
114.4
21
-148.009
0
LINE
8
BLACK
6
CONTINUOUS
10
114.4
20
-148.009
11
114.915
21
-147.872
0
LINE
8
BLACK
6
CONTINUOUS
10
114.915
20
-147.872
11
115.445
21
-147.91
0
LINE
8
BLACK
6
CONTINUOUS
10
115.445
20
-147.91
11
115.935
21
-148.117
0
LINE
8
BLACK
6
CONTINUOUS
10
115.935
20
-148.117
11
116.331
21
-148.472
0
LINE
8
BLACK
6
CONTINUOUS
10
116.331
20
-148.472
11
116.591
21
-148.936
0
LINE
8
BLACK
6
CONTINUOUS
10
116.591
20
-148.936
11
116.687
21
-149.46
0
LINE
8
BLACK
6
CONTINUOUS
10
116.687
20
-149.46
11
116.687
21
-149.485
0
LINE
8
BLACK
6
CONTINUOUS
10
116.687
20
-149.485
11
116.6
21
-150.01
0
LINE
8
BLACK
6
CONTINUOUS
10
116.6
20
-150.01
11
116.347
21
-150.478
0
LINE
8
BLACK
6
CONTINUOUS
10
116.173
20
-148.627
11
115.836
21
-148.315
0
LINE
8
BLACK
6
CONTINUOUS
10
115.836
20
-148.315
11
115.415
21
-148.129
0
LINE
8
BLACK
6
CONTINUOUS
10
115.415
20
-148.129
11
114.957
21
-148.089
0
LINE
8
BLACK
6
CONTINUOUS
10
114.957
20
-148.089
11
114.511
21
-148.2
0
LINE
8
BLACK
6
CONTINUOUS
10
114.511
20
-148.2
11
114.125
21
-148.45
0
LINE
8
BLACK
6
CONTINUOUS
10
114.125
20
-148.45
11
113.84
21
-148.811
0
LINE
8
BLACK
6
CONTINUOUS
10
113.84
20
-148.811
11
113.688
21
-149.244
0
LINE
8
BLACK
6
CONTINUOUS
10
113.688
20
-149.244
11
113.684
21
-149.704
0
LINE
8
BLACK
6
CONTINUOUS
10
113.684
20
-149.704
11
113.83
21
-150.14
0
LINE
8
BLACK
6
CONTINUOUS
10
113.83
20
-150.14
11
114.109
21
-150.506
0
LINE
8
BLACK
6
CONTINUOUS
10
114.109
20
-150.506
11
114.491
21
-150.761
0
LINE
8
BLACK
6
CONTINUOUS
10
114.491
20
-150.761
11
114.935
21
-150.879
0
LINE
8
BLACK
6
CONTINUOUS
10
114.935
20
-150.879
11
115.394
21
-150.846
0
LINE
8
BLACK
6
CONTINUOUS
10
115.394
20
-150.846
11
115.817
21
-150.667
0
LINE
8
BLACK
6
CONTINUOUS
10
115.817
20
-150.667
11
116.16
21
-150.36
0
LINE
8
BLACK
6
CONTINUOUS
10
116.16
20
-150.36
11
116.384
21
-149.959
0
LINE
8
BLACK
6
CONTINUOUS
10
116.384
20
-149.959
11
116.467
21
-149.507
0
LINE
8
BLACK
6
CONTINUOUS
10
116.467
20
-149.507
11
116.467
21
-149.485
0
LINE
8
BLACK
6
CONTINUOUS
10
116.467
20
-149.485
11
116.392
21
-149.032
0
LINE
8
BLACK
6
CONTINUOUS
10
116.392
20
-149.032
11
116.173
21
-148.627
0
LINE
8
BLACK
6
CONTINUOUS
10
141.347
20
-150.478
11
140.956
21
-150.839
0
LINE
8
BLACK
6
CONTINUOUS
10
140.956
20
-150.839
11
140.47
21
-151.054
0
LINE
8
BLACK
6
CONTINUOUS
10
140.47
20
-151.054
11
139.94
21
-151.1
0
LINE
8
BLACK
6
CONTINUOUS
10
139.94
20
-151.1
11
139.424
21
-150.972
0
LINE
8
BLACK
6
CONTINUOUS
10
139.424
20
-150.972
11
138.977
21
-150.683
0
LINE
8
BLACK
6
CONTINUOUS
10
138.977
20
-150.683
11
138.647
21
-150.265
0
LINE
8
BLACK
6
CONTINUOUS
10
138.647
20
-150.265
11
138.471
21
-149.764
0
LINE
8
BLACK
6
CONTINUOUS
10
138.471
20
-149.764
11
138.467
21
-149.232
0
LINE
8
BLACK
6
CONTINUOUS
10
138.467
20
-149.232
11
138.635
21
-148.727
0
LINE
8
BLACK
6
CONTINUOUS
10
138.635
20
-148.727
11
138.958
21
-148.304
0
LINE
8
BLACK
6
CONTINUOUS
10
138.958
20
-148.304
11
139.4
21
-148.009
0
LINE
8
BLACK
6
CONTINUOUS
10
139.4
20
-148.009
11
139.915
21
-147.872
0
LINE
8
BLACK
6
CONTINUOUS
10
139.915
20
-147.872
11
140.445
21
-147.91
0
LINE
8
BLACK
6
CONTINUOUS
10
140.445
20
-147.91
11
140.935
21
-148.117
0
LINE
8
BLACK
6
CONTINUOUS
10
140.935
20
-148.117
11
141.331
21
-148.472
0
LINE
8
BLACK
6
CONTINUOUS
10
141.331
20
-148.472
11
141.591
21
-148.936
0
LINE
8
BLACK
6
CONTINUOUS
10
141.591
20
-148.936
11
141.687
21
-149.46
0
LINE
8
BLACK
6
CONTINUOUS
10
141.687
20
-149.46
11
141.687
21
-149.485
0
LINE
8
BLACK
6
CONTINUOUS
10
141.687
20
-149.485
11
141.6
21
-150.01
0
LINE
8
BLACK
6
CONTINUOUS
10
141.6
20
-150.01
11
141.347
21
-150.478
0
LINE
8
BLACK
6
CONTINUOUS
10
141.173
20
-148.627
11
140.836
21
-148.315
0
LINE
8
BLACK
6
CONTINUOUS
10
140.836
20
-148.315
11
140.415
21
-148.129
0
LINE
8
BLACK
6
CONTINUOUS
10
140.415
20
-148.129
11
139.957
21
-148.089
0
LINE
8
BLACK
6
CONTINUOUS
10
139.957
20
-148.089
11
139.511
21
-148.2
0
LINE
8
BLACK
6
CONTINUOUS
10
139.511
20
-148.2
11
139.125
21
-148.45
0
LINE
8
BLACK
6
CONTINUOUS
10
139.125
20
-148.45
11
138.84
21
-148.811
0
LINE
8
BLACK
6
CONTINUOUS
10
138.84
20
-148.811
11
138.688
21
-149.244
0
LINE
8
BLACK
6
CONTINUOUS
10
138.688
20
-149.244
11
138.684
21
-149.704
0
LINE
8
BLACK
6
CONTINUOUS
10
138.684
20
-149.704
11
138.83
21
-150.14
0
LINE
8
BLACK
6
CONTINUOUS
10
138.83
20
-150.14
11
139.109
21
-150.506
0
LINE
8
BLACK
6
CONTINUOUS
10
139.109
20
-150.506
11
139.491
21
-150.761
0
LINE
8
BLACK
6
CONTINUOUS
10
139.491
20
-150.761
11
139.935
21
-150.879
0
LINE
8
BLACK
6
CONTINUOUS
10
139.935
20
-150.879
11
140.394
21
-150.846
0
LINE
8
BLACK
6
CONTINUOUS
10
140.394
20
-150.846
11
140.817
21
-150.667
0
LINE
8
BLACK
6
CONTINUOUS
10
140.817
20
-150.667
11
141.16
21
-150.36
0
LINE
8
BLACK
6
CONTINUOUS
10
141.16
20
-150.36
11
141.384
21
-149.959
0
LINE
8
BLACK
6
CONTINUOUS
10
141.384
20
-149.959
11
141.467
21
-149.507
0
LINE
8
BLACK
6
CONTINUOUS
10
141.467
20
-149.507
11
141.467
21
-149.485
0
LINE
8
BLACK
6
CONTINUOUS
10
141.467
20
-149.485
11
141.392
21
-149.032
0
LINE
8
BLACK
6
CONTINUOUS
10
141.392
20
-149.032
11
141.173
21
-148.627
0
LINE
8
BLACK
6
CONTINUOUS
10
116.347
20
-63.2279
11
115.956
21
-63.589
0
LINE
8
BLACK
6
CONTINUOUS
10
115.956
20
-63.589
11
115.47
21
-63.8041
0
LINE
8
BLACK
6
CONTINUOUS
10
115.47
20
-63.8041
11
114.94
21
-63.85
0
LINE
8
BLACK
6
CONTINUOUS
10
114.94
20
-63.85
11
114.424
21
-63.7218
0
LINE
8
BLACK
6
CONTINUOUS
10
114.424
20
-63.7218
11
113.977
21
-63.4332
0
LINE
8
BLACK
6
CONTINUOUS
10
113.977
20
-63.4332
11
113.647
21
-63.0154
0
LINE
8
BLACK
6
CONTINUOUS
10
113.647
20
-63.0154
11
113.471
21
-62.5135
0
LINE
8
BLACK
6
CONTINUOUS
10
113.471
20
-62.5135
11
113.467
21
-61.9816
0
LINE
8
BLACK
6
CONTINUOUS
10
113.467
20
-61.9816
11
113.635
21
-61.477
0
LINE
8
BLACK
6
CONTINUOUS
10
113.635
20
-61.477
11
113.958
21
-61.0541
0
LINE
8
BLACK
6
CONTINUOUS
10
113.958
20
-61.0541
11
114.4
21
-60.7585
0
LINE
8
BLACK
6
CONTINUOUS
10
114.4
20
-60.7585
11
114.915
21
-60.6222
0
LINE
8
BLACK
6
CONTINUOUS
10
114.915
20
-60.6222
11
115.445
21
-60.6598
0
LINE
8
BLACK
6
CONTINUOUS
10
115.445
20
-60.6598
11
115.935
21
-60.8672
0
LINE
8
BLACK
6
CONTINUOUS
10
115.935
20
-60.8672
11
116.331
21
-61.2221
0
LINE
8
BLACK
6
CONTINUOUS
10
116.331
20
-61.2221
11
116.591
21
-61.6862
0
LINE
8
BLACK
6
CONTINUOUS
10
116.591
20
-61.6862
11
116.687
21
-62.2096
0
LINE
8
BLACK
6
CONTINUOUS
10
116.687
20
-62.2096
11
116.687
21
-62.235
0
LINE
8
BLACK
6
CONTINUOUS
10
116.687
20
-62.235
11
116.6
21
-62.7597
0
LINE
8
BLACK
6
CONTINUOUS
10
116.6
20
-62.7597
11
116.347
21
-63.2279
0
LINE
8
BLACK
6
CONTINUOUS
10
116.173
20
-61.3769
11
115.836
21
-61.0649
0
LINE
8
BLACK
6
CONTINUOUS
10
115.836
20
-61.0649
11
115.415
21
-60.879
0
LINE
8
BLACK
6
CONTINUOUS
10
115.415
20
-60.879
11
114.957
21
-60.8393
0
LINE
8
BLACK
6
CONTINUOUS
10
114.957
20
-60.8393
11
114.511
21
-60.9501
0
LINE
8
BLACK
6
CONTINUOUS
10
114.511
20
-60.9501
11
114.125
21
-61.1995
0
LINE
8
BLACK
6
CONTINUOUS
10
114.125
20
-61.1995
11
113.84
21
-61.5605
0
LINE
8
BLACK
6
CONTINUOUS
10
113.84
20
-61.5605
11
113.688
21
-61.9943
0
LINE
8
BLACK
6
CONTINUOUS
10
113.688
20
-61.9943
11
113.684
21
-62.454
0
LINE
8
BLACK
6
CONTINUOUS
10
113.684
20
-62.454
11
113.83
21
-62.8901
0
LINE
8
BLACK
6
CONTINUOUS
10
113.83
20
-62.8901
11
114.109
21
-63.2556
0
LINE
8
BLACK
6
CONTINUOUS
10
114.109
20
-63.2556
11
114.491
21
-63.511
0
LINE
8
BLACK
6
CONTINUOUS
10
114.491
20
-63.511
11
114.935
21
-63.6288
0
LINE
8
BLACK
6
CONTINUOUS
10
114.935
20
-63.6288
11
115.394
21
-63.5963
0
LINE
8
BLACK
6
CONTINUOUS
10
115.394
20
-63.5963
11
115.817
21
-63.4171
0
LINE
8
BLACK
6
CONTINUOUS
10
115.817
20
-63.4171
11
116.16
21
-63.1103
0
LINE
8
BLACK
6
CONTINUOUS
10
116.16
20
-63.1103
11
116.384
21
-62.7092
0
LINE
8
BLACK
6
CONTINUOUS
10
116.384
20
-62.7092
11
116.467
21
-62.257
0
LINE
8
BLACK
6
CONTINUOUS
10
116.467
20
-62.257
11
116.467
21
-62.235
0
LINE
8
BLACK
6
CONTINUOUS
10
116.467
20
-62.235
11
116.392
21
-61.7815
0
LINE
8
BLACK
6
CONTINUOUS
10
116.392
20
-61.7815
11
116.173
21
-61.3769
0
LINE
8
BLACK
6
CONTINUOUS
10
141.347
20
-63.2279
11
140.956
21
-63.589
0
LINE
8
BLACK
6
CONTINUOUS
10
140.956
20
-63.589
11
140.47
21
-63.8041
0
LINE
8
BLACK
6
CONTINUOUS
10
140.47
20
-63.8041
11
139.94
21
-63.85
0
LINE
8
BLACK
6
CONTINUOUS
10
139.94
20
-63.85
11
139.424
21
-63.7218
0
LINE
8
BLACK
6
CONTINUOUS
10
139.424
20
-63.7218
11
138.977
21
-63.4332
0
LINE
8
BLACK
6
CONTINUOUS
10
138.977
20
-63.4332
11
138.647
21
-63.0154
0
LINE
8
BLACK
6
CONTINUOUS
10
138.647
20
-63.0154
11
138.471
21
-62.5135
0
LINE
8
BLACK
6
CONTINUOUS
10
138.471
20
-62.5135
11
138.467
21
-61.9816
0
LINE
8
BLACK
6
CONTINUOUS
10
138.467
20
-61.9816
11
138.635
21
-61.477
0
LINE
8
BLACK
6
CONTINUOUS
10
138.635
20
-61.477
11
138.958
21
-61.0541
0
LINE
8
BLACK
6
CONTINUOUS
10
138.958
20
-61.0541
11
139.4
21
-60.7585
0
LINE
8
BLACK
6
CONTINUOUS
10
139.4
20
-60.7585
11
139.915
21
-60.6222
0
LINE
8
BLACK
6
CONTINUOUS
10
139.915
20
-60.6222
11
140.445
21
-60.6598
0
LINE
8
BLACK
6
CONTINUOUS
10
140.445
20
-60.6598
11
140.935
21
-60.8672
0
LINE
8
BLACK
6
CONTINUOUS
10
140.935
20
-60.8672
11
141.331
21
-61.2221
0
LINE
8
BLACK
6
CONTINUOUS
10
141.331
20
-61.2221
11
141.591
21
-61.6862
0
LINE
8
BLACK
6
CONTINUOUS
10
141.591
20
-61.6862
11
141.687
21
-62.2096
0
LINE
8
BLACK
6
CONTINUOUS
10
141.687
20
-62.2096
11
141.687
21
-62.235
0
LINE
8
BLACK
6
CONTINUOUS
10
141.687
20
-62.235
11
141.6
21
-62.7597
0
LINE
8
BLACK
6
CONTINUOUS
10
141.6
20
-62.7597
11
141.347
21
-63.2279
0
LINE
8
BLACK
6
CONTINUOUS
10
141.173
20
-61.3769
11
140.836
21
-61.0649
0
LINE
8
BLACK
6
CONTINUOUS
10
140.836
20
-61.0649
11
140.415
21
-60.879
0
LINE
8
BLACK
6
CONTINUOUS
10
140.415
20
-60.879
11
139.957
21
-60.8393
0
LINE
8
BLACK
6
CONTINUOUS
10
139.957
20
-60.8393
11
139.511
21
-60.9501
0
LINE
8
BLACK
6
CONTINUOUS
10
139.511
20
-60.9501
11
139.125
21
-61.1995
0
LINE
8
BLACK
6
CONTINUOUS
10
139.125
20
-61.1995
11
138.84
21
-61.5605
0
LINE
8
BLACK
6
CONTINUOUS
10
138.84
20
-61.5605
11
138.688
21
-61.9943
0
LINE
8
BLACK
6
CONTINUOUS
10
138.688
20
-61.9943
11
138.684
21
-62.454
0
LINE
8
BLACK
6
CONTINUOUS
10
138.684
20
-62.454
11
138.83
21
-62.8901
0
LINE
8
BLACK
6
CONTINUOUS
10
138.83
20
-62.8901
11
139.109
21
-63.2556
0
LINE
8
BLACK
6
CONTINUOUS
10
139.109
20
-63.2556
11
139.491
21
-63.511
0
LINE
8
BLACK
6
CONTINUOUS
10
139.491
20
-63.511
11
139.935
21
-63.6288
0
LINE
8
BLACK
6
CONTINUOUS
10
139.935
20
-63.6288
11
140.394
21
-63.5963
0
LINE
8
BLACK
6
CONTINUOUS
10
140.394
20
-63.5963
11
140.817
21
-63.4171
0
LINE
8
BLACK
6
CONTINUOUS
10
140.817
20
-63.4171
11
141.16
21
-63.1103
0
LINE
8
BLACK
6
CONTINUOUS
10
141.16
20
-63.1103
11
141.384
21
-62.7092
0
LINE
8
BLACK
6
CONTINUOUS
10
141.384
20
-62.7092
11
141.467
21
-62.257
0
LINE
8
BLACK
6
CONTINUOUS
10
141.467
20
-62.257
11
141.467
21
-62.235
0
LINE
8
BLACK
6
CONTINUOUS
10
141.467
20
-62.235
11
141.392
21
-61.7815
0
LINE
8
BLACK
6
CONTINUOUS
10
141.392
20
-61.7815
11
141.173
21
-61.3769
  0
ENDSEC
  0
EOF
