G04 #@! TF.GenerationSoftware,KiCad,Pcbnew,(5.0.1-3-g963ef8bb5)*
G04 #@! TF.CreationDate,2020-07-04T09:07:15+03:00*
G04 #@! TF.ProjectId,sagitta-shield,736167697474612D736869656C642E6B,rev?*
G04 #@! TF.SameCoordinates,Original*
G04 #@! TF.FileFunction,Soldermask,Top*
G04 #@! TF.FilePolarity,Negative*
%FSLAX46Y46*%
G04 Gerber Fmt 4.6, Leading zero omitted, Abs format (unit mm)*
G04 Created by KiCad (PCBNEW (5.0.1-3-g963ef8bb5)) date 2020 July 04, Saturday 09:07:15*
%MOMM*%
%LPD*%
G01*
G04 APERTURE LIST*
%ADD10C,0.100000*%
G04 APERTURE END LIST*
D10*
G36*
X136138000Y-147457000D02*
X133236000Y-147457000D01*
X133236000Y-146355000D01*
X136138000Y-146355000D01*
X136138000Y-147457000D01*
X136138000Y-147457000D01*
G37*
G36*
X130988000Y-147457000D02*
X130086000Y-147457000D01*
X130086000Y-146355000D01*
X130988000Y-146355000D01*
X130988000Y-147457000D01*
X130988000Y-147457000D01*
G37*
G36*
X124988000Y-147457000D02*
X123686000Y-147457000D01*
X123686000Y-146355000D01*
X124988000Y-146355000D01*
X124988000Y-147457000D01*
X124988000Y-147457000D01*
G37*
G36*
X120688000Y-146357000D02*
X119386000Y-146357000D01*
X119386000Y-144605000D01*
X120688000Y-144605000D01*
X120688000Y-146357000D01*
X120688000Y-146357000D01*
G37*
G36*
X118562862Y-144598374D02*
X118583480Y-144604628D01*
X118602480Y-144614784D01*
X118619132Y-144628450D01*
X118632798Y-144645102D01*
X118642954Y-144664102D01*
X118649208Y-144684720D01*
X118651924Y-144712298D01*
X118651924Y-145221018D01*
X118649208Y-145248596D01*
X118642954Y-145269214D01*
X118632798Y-145288214D01*
X118619132Y-145304866D01*
X118602480Y-145318532D01*
X118583480Y-145328688D01*
X118562862Y-145334942D01*
X118535284Y-145337658D01*
X118076564Y-145337658D01*
X118048986Y-145334942D01*
X118028368Y-145328688D01*
X118009368Y-145318532D01*
X117992716Y-145304866D01*
X117979050Y-145288214D01*
X117968894Y-145269214D01*
X117962640Y-145248596D01*
X117959924Y-145221018D01*
X117959924Y-144712298D01*
X117962640Y-144684720D01*
X117968894Y-144664102D01*
X117979050Y-144645102D01*
X117992716Y-144628450D01*
X118009368Y-144614784D01*
X118028368Y-144604628D01*
X118048986Y-144598374D01*
X118076564Y-144595658D01*
X118535284Y-144595658D01*
X118562862Y-144598374D01*
X118562862Y-144598374D01*
G37*
G36*
X117592862Y-144598374D02*
X117613480Y-144604628D01*
X117632480Y-144614784D01*
X117649132Y-144628450D01*
X117662798Y-144645102D01*
X117672954Y-144664102D01*
X117679208Y-144684720D01*
X117681924Y-144712298D01*
X117681924Y-145221018D01*
X117679208Y-145248596D01*
X117672954Y-145269214D01*
X117662798Y-145288214D01*
X117649132Y-145304866D01*
X117632480Y-145318532D01*
X117613480Y-145328688D01*
X117592862Y-145334942D01*
X117565284Y-145337658D01*
X117106564Y-145337658D01*
X117078986Y-145334942D01*
X117058368Y-145328688D01*
X117039368Y-145318532D01*
X117022716Y-145304866D01*
X117009050Y-145288214D01*
X116998894Y-145269214D01*
X116992640Y-145248596D01*
X116989924Y-145221018D01*
X116989924Y-144712298D01*
X116992640Y-144684720D01*
X116998894Y-144664102D01*
X117009050Y-144645102D01*
X117022716Y-144628450D01*
X117039368Y-144614784D01*
X117058368Y-144604628D01*
X117078986Y-144598374D01*
X117106564Y-144595658D01*
X117565284Y-144595658D01*
X117592862Y-144598374D01*
X117592862Y-144598374D01*
G37*
G36*
X117592862Y-143582374D02*
X117613480Y-143588628D01*
X117632480Y-143598784D01*
X117649132Y-143612450D01*
X117662798Y-143629102D01*
X117672954Y-143648102D01*
X117679208Y-143668720D01*
X117681924Y-143696298D01*
X117681924Y-144205018D01*
X117679208Y-144232596D01*
X117672954Y-144253214D01*
X117662798Y-144272214D01*
X117649132Y-144288866D01*
X117632480Y-144302532D01*
X117613480Y-144312688D01*
X117592862Y-144318942D01*
X117565284Y-144321658D01*
X117106564Y-144321658D01*
X117078986Y-144318942D01*
X117058368Y-144312688D01*
X117039368Y-144302532D01*
X117022716Y-144288866D01*
X117009050Y-144272214D01*
X116998894Y-144253214D01*
X116992640Y-144232596D01*
X116989924Y-144205018D01*
X116989924Y-143696298D01*
X116992640Y-143668720D01*
X116998894Y-143648102D01*
X117009050Y-143629102D01*
X117022716Y-143612450D01*
X117039368Y-143598784D01*
X117058368Y-143588628D01*
X117078986Y-143582374D01*
X117106564Y-143579658D01*
X117565284Y-143579658D01*
X117592862Y-143582374D01*
X117592862Y-143582374D01*
G37*
G36*
X118562862Y-143582374D02*
X118583480Y-143588628D01*
X118602480Y-143598784D01*
X118619132Y-143612450D01*
X118632798Y-143629102D01*
X118642954Y-143648102D01*
X118649208Y-143668720D01*
X118651924Y-143696298D01*
X118651924Y-144205018D01*
X118649208Y-144232596D01*
X118642954Y-144253214D01*
X118632798Y-144272214D01*
X118619132Y-144288866D01*
X118602480Y-144302532D01*
X118583480Y-144312688D01*
X118562862Y-144318942D01*
X118535284Y-144321658D01*
X118076564Y-144321658D01*
X118048986Y-144318942D01*
X118028368Y-144312688D01*
X118009368Y-144302532D01*
X117992716Y-144288866D01*
X117979050Y-144272214D01*
X117968894Y-144253214D01*
X117962640Y-144232596D01*
X117959924Y-144205018D01*
X117959924Y-143696298D01*
X117962640Y-143668720D01*
X117968894Y-143648102D01*
X117979050Y-143629102D01*
X117992716Y-143612450D01*
X118009368Y-143598784D01*
X118028368Y-143588628D01*
X118048986Y-143582374D01*
X118076564Y-143579658D01*
X118535284Y-143579658D01*
X118562862Y-143582374D01*
X118562862Y-143582374D01*
G37*
G36*
X120688000Y-144307000D02*
X119386000Y-144307000D01*
X119386000Y-143505000D01*
X120688000Y-143505000D01*
X120688000Y-144307000D01*
X120688000Y-144307000D01*
G37*
G36*
X120688000Y-143207000D02*
X119386000Y-143207000D01*
X119386000Y-142405000D01*
X120688000Y-142405000D01*
X120688000Y-143207000D01*
X120688000Y-143207000D01*
G37*
G36*
X120688000Y-142107000D02*
X119386000Y-142107000D01*
X119386000Y-141305000D01*
X120688000Y-141305000D01*
X120688000Y-142107000D01*
X120688000Y-142107000D01*
G37*
G36*
X120688000Y-141007000D02*
X119386000Y-141007000D01*
X119386000Y-140205000D01*
X120688000Y-140205000D01*
X120688000Y-141007000D01*
X120688000Y-141007000D01*
G37*
G36*
X120688000Y-139907000D02*
X119386000Y-139907000D01*
X119386000Y-139105000D01*
X120688000Y-139105000D01*
X120688000Y-139907000D01*
X120688000Y-139907000D01*
G37*
G36*
X118562862Y-139010374D02*
X118583480Y-139016628D01*
X118602480Y-139026784D01*
X118619132Y-139040450D01*
X118632798Y-139057102D01*
X118642954Y-139076102D01*
X118649208Y-139096720D01*
X118651924Y-139124298D01*
X118651924Y-139633018D01*
X118649208Y-139660596D01*
X118642954Y-139681214D01*
X118632798Y-139700214D01*
X118619132Y-139716866D01*
X118602480Y-139730532D01*
X118583480Y-139740688D01*
X118562862Y-139746942D01*
X118535284Y-139749658D01*
X118076564Y-139749658D01*
X118048986Y-139746942D01*
X118028368Y-139740688D01*
X118009368Y-139730532D01*
X117992716Y-139716866D01*
X117979050Y-139700214D01*
X117968894Y-139681214D01*
X117962640Y-139660596D01*
X117959924Y-139633018D01*
X117959924Y-139124298D01*
X117962640Y-139096720D01*
X117968894Y-139076102D01*
X117979050Y-139057102D01*
X117992716Y-139040450D01*
X118009368Y-139026784D01*
X118028368Y-139016628D01*
X118048986Y-139010374D01*
X118076564Y-139007658D01*
X118535284Y-139007658D01*
X118562862Y-139010374D01*
X118562862Y-139010374D01*
G37*
G36*
X117592862Y-139010374D02*
X117613480Y-139016628D01*
X117632480Y-139026784D01*
X117649132Y-139040450D01*
X117662798Y-139057102D01*
X117672954Y-139076102D01*
X117679208Y-139096720D01*
X117681924Y-139124298D01*
X117681924Y-139633018D01*
X117679208Y-139660596D01*
X117672954Y-139681214D01*
X117662798Y-139700214D01*
X117649132Y-139716866D01*
X117632480Y-139730532D01*
X117613480Y-139740688D01*
X117592862Y-139746942D01*
X117565284Y-139749658D01*
X117106564Y-139749658D01*
X117078986Y-139746942D01*
X117058368Y-139740688D01*
X117039368Y-139730532D01*
X117022716Y-139716866D01*
X117009050Y-139700214D01*
X116998894Y-139681214D01*
X116992640Y-139660596D01*
X116989924Y-139633018D01*
X116989924Y-139124298D01*
X116992640Y-139096720D01*
X116998894Y-139076102D01*
X117009050Y-139057102D01*
X117022716Y-139040450D01*
X117039368Y-139026784D01*
X117058368Y-139016628D01*
X117078986Y-139010374D01*
X117106564Y-139007658D01*
X117565284Y-139007658D01*
X117592862Y-139010374D01*
X117592862Y-139010374D01*
G37*
G36*
X120688000Y-138807000D02*
X119386000Y-138807000D01*
X119386000Y-138005000D01*
X120688000Y-138005000D01*
X120688000Y-138807000D01*
X120688000Y-138807000D01*
G37*
G36*
X117569862Y-137994374D02*
X117590480Y-138000628D01*
X117609480Y-138010784D01*
X117626132Y-138024450D01*
X117639798Y-138041102D01*
X117649954Y-138060102D01*
X117656208Y-138080720D01*
X117658924Y-138108298D01*
X117658924Y-138617018D01*
X117656208Y-138644596D01*
X117649954Y-138665214D01*
X117639798Y-138684214D01*
X117626132Y-138700866D01*
X117609480Y-138714532D01*
X117590480Y-138724688D01*
X117569862Y-138730942D01*
X117542284Y-138733658D01*
X117083564Y-138733658D01*
X117055986Y-138730942D01*
X117035368Y-138724688D01*
X117016368Y-138714532D01*
X116999716Y-138700866D01*
X116986050Y-138684214D01*
X116975894Y-138665214D01*
X116969640Y-138644596D01*
X116966924Y-138617018D01*
X116966924Y-138108298D01*
X116969640Y-138080720D01*
X116975894Y-138060102D01*
X116986050Y-138041102D01*
X116999716Y-138024450D01*
X117016368Y-138010784D01*
X117035368Y-138000628D01*
X117055986Y-137994374D01*
X117083564Y-137991658D01*
X117542284Y-137991658D01*
X117569862Y-137994374D01*
X117569862Y-137994374D01*
G37*
G36*
X118539862Y-137994374D02*
X118560480Y-138000628D01*
X118579480Y-138010784D01*
X118596132Y-138024450D01*
X118609798Y-138041102D01*
X118619954Y-138060102D01*
X118626208Y-138080720D01*
X118628924Y-138108298D01*
X118628924Y-138617018D01*
X118626208Y-138644596D01*
X118619954Y-138665214D01*
X118609798Y-138684214D01*
X118596132Y-138700866D01*
X118579480Y-138714532D01*
X118560480Y-138724688D01*
X118539862Y-138730942D01*
X118512284Y-138733658D01*
X118053564Y-138733658D01*
X118025986Y-138730942D01*
X118005368Y-138724688D01*
X117986368Y-138714532D01*
X117969716Y-138700866D01*
X117956050Y-138684214D01*
X117945894Y-138665214D01*
X117939640Y-138644596D01*
X117936924Y-138617018D01*
X117936924Y-138108298D01*
X117939640Y-138080720D01*
X117945894Y-138060102D01*
X117956050Y-138041102D01*
X117969716Y-138024450D01*
X117986368Y-138010784D01*
X118005368Y-138000628D01*
X118025986Y-137994374D01*
X118053564Y-137991658D01*
X118512284Y-137991658D01*
X118539862Y-137994374D01*
X118539862Y-137994374D01*
G37*
G36*
X117569862Y-136978374D02*
X117590480Y-136984628D01*
X117609480Y-136994784D01*
X117626132Y-137008450D01*
X117639798Y-137025102D01*
X117649954Y-137044102D01*
X117656208Y-137064720D01*
X117658924Y-137092298D01*
X117658924Y-137601018D01*
X117656208Y-137628596D01*
X117649954Y-137649214D01*
X117639798Y-137668214D01*
X117626132Y-137684866D01*
X117609480Y-137698532D01*
X117590480Y-137708688D01*
X117569862Y-137714942D01*
X117542284Y-137717658D01*
X117083564Y-137717658D01*
X117055986Y-137714942D01*
X117035368Y-137708688D01*
X117016368Y-137698532D01*
X116999716Y-137684866D01*
X116986050Y-137668214D01*
X116975894Y-137649214D01*
X116969640Y-137628596D01*
X116966924Y-137601018D01*
X116966924Y-137092298D01*
X116969640Y-137064720D01*
X116975894Y-137044102D01*
X116986050Y-137025102D01*
X116999716Y-137008450D01*
X117016368Y-136994784D01*
X117035368Y-136984628D01*
X117055986Y-136978374D01*
X117083564Y-136975658D01*
X117542284Y-136975658D01*
X117569862Y-136978374D01*
X117569862Y-136978374D01*
G37*
G36*
X118539862Y-136978374D02*
X118560480Y-136984628D01*
X118579480Y-136994784D01*
X118596132Y-137008450D01*
X118609798Y-137025102D01*
X118619954Y-137044102D01*
X118626208Y-137064720D01*
X118628924Y-137092298D01*
X118628924Y-137601018D01*
X118626208Y-137628596D01*
X118619954Y-137649214D01*
X118609798Y-137668214D01*
X118596132Y-137684866D01*
X118579480Y-137698532D01*
X118560480Y-137708688D01*
X118539862Y-137714942D01*
X118512284Y-137717658D01*
X118053564Y-137717658D01*
X118025986Y-137714942D01*
X118005368Y-137708688D01*
X117986368Y-137698532D01*
X117969716Y-137684866D01*
X117956050Y-137668214D01*
X117945894Y-137649214D01*
X117939640Y-137628596D01*
X117936924Y-137601018D01*
X117936924Y-137092298D01*
X117939640Y-137064720D01*
X117945894Y-137044102D01*
X117956050Y-137025102D01*
X117969716Y-137008450D01*
X117986368Y-136994784D01*
X118005368Y-136984628D01*
X118025986Y-136978374D01*
X118053564Y-136975658D01*
X118512284Y-136975658D01*
X118539862Y-136978374D01*
X118539862Y-136978374D01*
G37*
G36*
X120688000Y-137707000D02*
X119386000Y-137707000D01*
X119386000Y-136905000D01*
X120688000Y-136905000D01*
X120688000Y-137707000D01*
X120688000Y-137707000D01*
G37*
G36*
X120688000Y-136307000D02*
X119386000Y-136307000D01*
X119386000Y-135205000D01*
X120688000Y-135205000D01*
X120688000Y-136307000D01*
X120688000Y-136307000D01*
G37*
G36*
X136138000Y-134107000D02*
X134136000Y-134107000D01*
X134136000Y-132705000D01*
X136138000Y-132705000D01*
X136138000Y-134107000D01*
X136138000Y-134107000D01*
G37*
G36*
X141819070Y-131982600D02*
X140017070Y-131982600D01*
X140017070Y-130180600D01*
X141819070Y-130180600D01*
X141819070Y-131982600D01*
X141819070Y-131982600D01*
G37*
G36*
X115119200Y-131982600D02*
X113317200Y-131982600D01*
X113317200Y-130180600D01*
X115119200Y-130180600D01*
X115119200Y-131982600D01*
X115119200Y-131982600D01*
G37*
G36*
X122299591Y-129360585D02*
X122333569Y-129370893D01*
X122364887Y-129387633D01*
X122392339Y-129410161D01*
X122414867Y-129437613D01*
X122431607Y-129468931D01*
X122441915Y-129502909D01*
X122446000Y-129544390D01*
X122446000Y-130145610D01*
X122441915Y-130187091D01*
X122431607Y-130221069D01*
X122414867Y-130252387D01*
X122392339Y-130279839D01*
X122364887Y-130302367D01*
X122333569Y-130319107D01*
X122299591Y-130329415D01*
X122258110Y-130333500D01*
X121581890Y-130333500D01*
X121540409Y-130329415D01*
X121506431Y-130319107D01*
X121475113Y-130302367D01*
X121447661Y-130279839D01*
X121425133Y-130252387D01*
X121408393Y-130221069D01*
X121398085Y-130187091D01*
X121394000Y-130145610D01*
X121394000Y-129544390D01*
X121398085Y-129502909D01*
X121408393Y-129468931D01*
X121425133Y-129437613D01*
X121447661Y-129410161D01*
X121475113Y-129387633D01*
X121506431Y-129370893D01*
X121540409Y-129360585D01*
X121581890Y-129356500D01*
X122258110Y-129356500D01*
X122299591Y-129360585D01*
X122299591Y-129360585D01*
G37*
G36*
X126363591Y-129335085D02*
X126397569Y-129345393D01*
X126428887Y-129362133D01*
X126456339Y-129384661D01*
X126478867Y-129412113D01*
X126495607Y-129443431D01*
X126505915Y-129477409D01*
X126510000Y-129518890D01*
X126510000Y-130120110D01*
X126505915Y-130161591D01*
X126495607Y-130195569D01*
X126478867Y-130226887D01*
X126456339Y-130254339D01*
X126428887Y-130276867D01*
X126397569Y-130293607D01*
X126363591Y-130303915D01*
X126322110Y-130308000D01*
X125645890Y-130308000D01*
X125604409Y-130303915D01*
X125570431Y-130293607D01*
X125539113Y-130276867D01*
X125511661Y-130254339D01*
X125489133Y-130226887D01*
X125472393Y-130195569D01*
X125462085Y-130161591D01*
X125458000Y-130120110D01*
X125458000Y-129518890D01*
X125462085Y-129477409D01*
X125472393Y-129443431D01*
X125489133Y-129412113D01*
X125511661Y-129384661D01*
X125539113Y-129362133D01*
X125570431Y-129345393D01*
X125604409Y-129335085D01*
X125645890Y-129331000D01*
X126322110Y-129331000D01*
X126363591Y-129335085D01*
X126363591Y-129335085D01*
G37*
G36*
X141028513Y-127653611D02*
X141094697Y-127660129D01*
X141207923Y-127694476D01*
X141264537Y-127711649D01*
X141382293Y-127774592D01*
X141421061Y-127795314D01*
X141442164Y-127812633D01*
X141558256Y-127907906D01*
X141641518Y-128009363D01*
X141670848Y-128045101D01*
X141670849Y-128045103D01*
X141754513Y-128201625D01*
X141754513Y-128201626D01*
X141806033Y-128371465D01*
X141823429Y-128548092D01*
X141806033Y-128724719D01*
X141771686Y-128837945D01*
X141754513Y-128894559D01*
X141680418Y-129033179D01*
X141670848Y-129051083D01*
X141641518Y-129086821D01*
X141558256Y-129188278D01*
X141456799Y-129271540D01*
X141421061Y-129300870D01*
X141421059Y-129300871D01*
X141264537Y-129384535D01*
X141207923Y-129401708D01*
X141094697Y-129436055D01*
X141028512Y-129442574D01*
X140962330Y-129449092D01*
X140873810Y-129449092D01*
X140807628Y-129442574D01*
X140741443Y-129436055D01*
X140628217Y-129401708D01*
X140571603Y-129384535D01*
X140415081Y-129300871D01*
X140415079Y-129300870D01*
X140379341Y-129271540D01*
X140277884Y-129188278D01*
X140194622Y-129086821D01*
X140165292Y-129051083D01*
X140155722Y-129033179D01*
X140081627Y-128894559D01*
X140064454Y-128837945D01*
X140030107Y-128724719D01*
X140012711Y-128548092D01*
X140030107Y-128371465D01*
X140081627Y-128201626D01*
X140081627Y-128201625D01*
X140165291Y-128045103D01*
X140165292Y-128045101D01*
X140194622Y-128009363D01*
X140277884Y-127907906D01*
X140393976Y-127812633D01*
X140415079Y-127795314D01*
X140453847Y-127774592D01*
X140571603Y-127711649D01*
X140628217Y-127694476D01*
X140741443Y-127660129D01*
X140807627Y-127653611D01*
X140873810Y-127647092D01*
X140962330Y-127647092D01*
X141028513Y-127653611D01*
X141028513Y-127653611D01*
G37*
G36*
X114328373Y-127647092D02*
X114394827Y-127653637D01*
X114508053Y-127687984D01*
X114564667Y-127705157D01*
X114668566Y-127760693D01*
X114721191Y-127788822D01*
X114756929Y-127818152D01*
X114858386Y-127901414D01*
X114939497Y-128000250D01*
X114970978Y-128038609D01*
X114970979Y-128038611D01*
X115054643Y-128195133D01*
X115071816Y-128251747D01*
X115106163Y-128364973D01*
X115123559Y-128541600D01*
X115106163Y-128718227D01*
X115093946Y-128758500D01*
X115054643Y-128888067D01*
X114980548Y-129026687D01*
X114970978Y-129044591D01*
X114965650Y-129051083D01*
X114858386Y-129181786D01*
X114756929Y-129265048D01*
X114721191Y-129294378D01*
X114721189Y-129294379D01*
X114564667Y-129378043D01*
X114533052Y-129387633D01*
X114394827Y-129429563D01*
X114328912Y-129436055D01*
X114262460Y-129442600D01*
X114173940Y-129442600D01*
X114107488Y-129436055D01*
X114041573Y-129429563D01*
X113903348Y-129387633D01*
X113871733Y-129378043D01*
X113715211Y-129294379D01*
X113715209Y-129294378D01*
X113679471Y-129265048D01*
X113578014Y-129181786D01*
X113470750Y-129051083D01*
X113465422Y-129044591D01*
X113455852Y-129026687D01*
X113381757Y-128888067D01*
X113342454Y-128758500D01*
X113330237Y-128718227D01*
X113312841Y-128541600D01*
X113330237Y-128364973D01*
X113364584Y-128251747D01*
X113381757Y-128195133D01*
X113465421Y-128038611D01*
X113465422Y-128038609D01*
X113496903Y-128000250D01*
X113578014Y-127901414D01*
X113679471Y-127818152D01*
X113715209Y-127788822D01*
X113767834Y-127760693D01*
X113871733Y-127705157D01*
X113928347Y-127687984D01*
X114041573Y-127653637D01*
X114108027Y-127647092D01*
X114173940Y-127640600D01*
X114262460Y-127640600D01*
X114328373Y-127647092D01*
X114328373Y-127647092D01*
G37*
G36*
X122299591Y-127785585D02*
X122333569Y-127795893D01*
X122364887Y-127812633D01*
X122392339Y-127835161D01*
X122414867Y-127862613D01*
X122431607Y-127893931D01*
X122441915Y-127927909D01*
X122446000Y-127969390D01*
X122446000Y-128570610D01*
X122441915Y-128612091D01*
X122431607Y-128646069D01*
X122414867Y-128677387D01*
X122392339Y-128704839D01*
X122364887Y-128727367D01*
X122333569Y-128744107D01*
X122299591Y-128754415D01*
X122258110Y-128758500D01*
X121581890Y-128758500D01*
X121540409Y-128754415D01*
X121506431Y-128744107D01*
X121475113Y-128727367D01*
X121447661Y-128704839D01*
X121425133Y-128677387D01*
X121408393Y-128646069D01*
X121398085Y-128612091D01*
X121394000Y-128570610D01*
X121394000Y-127969390D01*
X121398085Y-127927909D01*
X121408393Y-127893931D01*
X121425133Y-127862613D01*
X121447661Y-127835161D01*
X121475113Y-127812633D01*
X121506431Y-127795893D01*
X121540409Y-127785585D01*
X121581890Y-127781500D01*
X122258110Y-127781500D01*
X122299591Y-127785585D01*
X122299591Y-127785585D01*
G37*
G36*
X126363591Y-127760085D02*
X126397569Y-127770393D01*
X126428887Y-127787133D01*
X126456339Y-127809661D01*
X126478867Y-127837113D01*
X126495607Y-127868431D01*
X126505915Y-127902409D01*
X126510000Y-127943890D01*
X126510000Y-128545110D01*
X126505915Y-128586591D01*
X126495607Y-128620569D01*
X126478867Y-128651887D01*
X126456339Y-128679339D01*
X126428887Y-128701867D01*
X126397569Y-128718607D01*
X126363591Y-128728915D01*
X126322110Y-128733000D01*
X125645890Y-128733000D01*
X125604409Y-128728915D01*
X125570431Y-128718607D01*
X125539113Y-128701867D01*
X125511661Y-128679339D01*
X125489133Y-128651887D01*
X125472393Y-128620569D01*
X125462085Y-128586591D01*
X125458000Y-128545110D01*
X125458000Y-127943890D01*
X125462085Y-127902409D01*
X125472393Y-127868431D01*
X125489133Y-127837113D01*
X125511661Y-127809661D01*
X125539113Y-127787133D01*
X125570431Y-127770393D01*
X125604409Y-127760085D01*
X125645890Y-127756000D01*
X126322110Y-127756000D01*
X126363591Y-127760085D01*
X126363591Y-127760085D01*
G37*
G36*
X121714938Y-126504716D02*
X121735556Y-126510970D01*
X121754556Y-126521126D01*
X121771208Y-126534792D01*
X121784874Y-126551444D01*
X121795030Y-126570444D01*
X121801284Y-126591062D01*
X121804000Y-126618640D01*
X121804000Y-127127360D01*
X121801284Y-127154938D01*
X121795030Y-127175556D01*
X121784874Y-127194556D01*
X121771208Y-127211208D01*
X121754556Y-127224874D01*
X121735556Y-127235030D01*
X121714938Y-127241284D01*
X121687360Y-127244000D01*
X121228640Y-127244000D01*
X121201062Y-127241284D01*
X121180444Y-127235030D01*
X121161444Y-127224874D01*
X121144792Y-127211208D01*
X121131126Y-127194556D01*
X121120970Y-127175556D01*
X121114716Y-127154938D01*
X121112000Y-127127360D01*
X121112000Y-126618640D01*
X121114716Y-126591062D01*
X121120970Y-126570444D01*
X121131126Y-126551444D01*
X121144792Y-126534792D01*
X121161444Y-126521126D01*
X121180444Y-126510970D01*
X121201062Y-126504716D01*
X121228640Y-126502000D01*
X121687360Y-126502000D01*
X121714938Y-126504716D01*
X121714938Y-126504716D01*
G37*
G36*
X122684938Y-126504716D02*
X122705556Y-126510970D01*
X122724556Y-126521126D01*
X122741208Y-126534792D01*
X122754874Y-126551444D01*
X122765030Y-126570444D01*
X122771284Y-126591062D01*
X122774000Y-126618640D01*
X122774000Y-127127360D01*
X122771284Y-127154938D01*
X122765030Y-127175556D01*
X122754874Y-127194556D01*
X122741208Y-127211208D01*
X122724556Y-127224874D01*
X122705556Y-127235030D01*
X122684938Y-127241284D01*
X122657360Y-127244000D01*
X122198640Y-127244000D01*
X122171062Y-127241284D01*
X122150444Y-127235030D01*
X122131444Y-127224874D01*
X122114792Y-127211208D01*
X122101126Y-127194556D01*
X122090970Y-127175556D01*
X122084716Y-127154938D01*
X122082000Y-127127360D01*
X122082000Y-126618640D01*
X122084716Y-126591062D01*
X122090970Y-126570444D01*
X122101126Y-126551444D01*
X122114792Y-126534792D01*
X122131444Y-126521126D01*
X122150444Y-126510970D01*
X122171062Y-126504716D01*
X122198640Y-126502000D01*
X122657360Y-126502000D01*
X122684938Y-126504716D01*
X122684938Y-126504716D01*
G37*
G36*
X126702938Y-126504716D02*
X126723556Y-126510970D01*
X126742556Y-126521126D01*
X126759208Y-126534792D01*
X126772874Y-126551444D01*
X126783030Y-126570444D01*
X126789284Y-126591062D01*
X126792000Y-126618640D01*
X126792000Y-127127360D01*
X126789284Y-127154938D01*
X126783030Y-127175556D01*
X126772874Y-127194556D01*
X126759208Y-127211208D01*
X126742556Y-127224874D01*
X126723556Y-127235030D01*
X126702938Y-127241284D01*
X126675360Y-127244000D01*
X126216640Y-127244000D01*
X126189062Y-127241284D01*
X126168444Y-127235030D01*
X126149444Y-127224874D01*
X126132792Y-127211208D01*
X126119126Y-127194556D01*
X126108970Y-127175556D01*
X126102716Y-127154938D01*
X126100000Y-127127360D01*
X126100000Y-126618640D01*
X126102716Y-126591062D01*
X126108970Y-126570444D01*
X126119126Y-126551444D01*
X126132792Y-126534792D01*
X126149444Y-126521126D01*
X126168444Y-126510970D01*
X126189062Y-126504716D01*
X126216640Y-126502000D01*
X126675360Y-126502000D01*
X126702938Y-126504716D01*
X126702938Y-126504716D01*
G37*
G36*
X125732938Y-126504716D02*
X125753556Y-126510970D01*
X125772556Y-126521126D01*
X125789208Y-126534792D01*
X125802874Y-126551444D01*
X125813030Y-126570444D01*
X125819284Y-126591062D01*
X125822000Y-126618640D01*
X125822000Y-127127360D01*
X125819284Y-127154938D01*
X125813030Y-127175556D01*
X125802874Y-127194556D01*
X125789208Y-127211208D01*
X125772556Y-127224874D01*
X125753556Y-127235030D01*
X125732938Y-127241284D01*
X125705360Y-127244000D01*
X125246640Y-127244000D01*
X125219062Y-127241284D01*
X125198444Y-127235030D01*
X125179444Y-127224874D01*
X125162792Y-127211208D01*
X125149126Y-127194556D01*
X125138970Y-127175556D01*
X125132716Y-127154938D01*
X125130000Y-127127360D01*
X125130000Y-126618640D01*
X125132716Y-126591062D01*
X125138970Y-126570444D01*
X125149126Y-126551444D01*
X125162792Y-126534792D01*
X125179444Y-126521126D01*
X125198444Y-126510970D01*
X125219062Y-126504716D01*
X125246640Y-126502000D01*
X125705360Y-126502000D01*
X125732938Y-126504716D01*
X125732938Y-126504716D01*
G37*
G36*
X141028512Y-125113610D02*
X141094697Y-125120129D01*
X141207923Y-125154476D01*
X141264537Y-125171649D01*
X141403157Y-125245744D01*
X141421061Y-125255314D01*
X141456799Y-125284644D01*
X141558256Y-125367906D01*
X141641518Y-125469363D01*
X141670848Y-125505101D01*
X141670849Y-125505103D01*
X141754513Y-125661625D01*
X141754513Y-125661626D01*
X141806033Y-125831465D01*
X141823429Y-126008092D01*
X141806033Y-126184719D01*
X141771686Y-126297945D01*
X141754513Y-126354559D01*
X141680418Y-126493179D01*
X141670848Y-126511083D01*
X141654374Y-126531156D01*
X141558256Y-126648278D01*
X141456799Y-126731540D01*
X141421061Y-126760870D01*
X141421059Y-126760871D01*
X141264537Y-126844535D01*
X141207923Y-126861708D01*
X141094697Y-126896055D01*
X141028512Y-126902574D01*
X140962330Y-126909092D01*
X140873810Y-126909092D01*
X140807628Y-126902574D01*
X140741443Y-126896055D01*
X140628217Y-126861708D01*
X140571603Y-126844535D01*
X140415081Y-126760871D01*
X140415079Y-126760870D01*
X140379341Y-126731540D01*
X140277884Y-126648278D01*
X140181766Y-126531156D01*
X140165292Y-126511083D01*
X140155722Y-126493179D01*
X140081627Y-126354559D01*
X140064454Y-126297945D01*
X140030107Y-126184719D01*
X140012711Y-126008092D01*
X140030107Y-125831465D01*
X140081627Y-125661626D01*
X140081627Y-125661625D01*
X140165291Y-125505103D01*
X140165292Y-125505101D01*
X140194622Y-125469363D01*
X140277884Y-125367906D01*
X140379341Y-125284644D01*
X140415079Y-125255314D01*
X140432983Y-125245744D01*
X140571603Y-125171649D01*
X140628217Y-125154476D01*
X140741443Y-125120129D01*
X140807628Y-125113610D01*
X140873810Y-125107092D01*
X140962330Y-125107092D01*
X141028512Y-125113610D01*
X141028512Y-125113610D01*
G37*
G36*
X114328373Y-125107092D02*
X114394827Y-125113637D01*
X114508053Y-125147984D01*
X114564667Y-125165157D01*
X114576812Y-125171649D01*
X114721191Y-125248822D01*
X114729100Y-125255313D01*
X114858386Y-125361414D01*
X114941648Y-125462871D01*
X114970978Y-125498609D01*
X114970979Y-125498611D01*
X115054643Y-125655133D01*
X115071816Y-125711747D01*
X115106163Y-125824973D01*
X115123559Y-126001600D01*
X115106163Y-126178227D01*
X115071816Y-126291453D01*
X115054643Y-126348067D01*
X114980548Y-126486687D01*
X114970978Y-126504591D01*
X114941648Y-126540329D01*
X114858386Y-126641786D01*
X114756929Y-126725048D01*
X114721191Y-126754378D01*
X114721189Y-126754379D01*
X114564667Y-126838043D01*
X114543265Y-126844535D01*
X114394827Y-126889563D01*
X114328912Y-126896055D01*
X114262460Y-126902600D01*
X114173940Y-126902600D01*
X114107488Y-126896055D01*
X114041573Y-126889563D01*
X113893135Y-126844535D01*
X113871733Y-126838043D01*
X113715211Y-126754379D01*
X113715209Y-126754378D01*
X113679471Y-126725048D01*
X113578014Y-126641786D01*
X113494752Y-126540329D01*
X113465422Y-126504591D01*
X113455852Y-126486687D01*
X113381757Y-126348067D01*
X113364584Y-126291453D01*
X113330237Y-126178227D01*
X113312841Y-126001600D01*
X113330237Y-125824973D01*
X113364584Y-125711747D01*
X113381757Y-125655133D01*
X113465421Y-125498611D01*
X113465422Y-125498609D01*
X113494752Y-125462871D01*
X113578014Y-125361414D01*
X113707300Y-125255313D01*
X113715209Y-125248822D01*
X113859588Y-125171649D01*
X113871733Y-125165157D01*
X113928347Y-125147984D01*
X114041573Y-125113637D01*
X114108027Y-125107092D01*
X114173940Y-125100600D01*
X114262460Y-125100600D01*
X114328373Y-125107092D01*
X114328373Y-125107092D01*
G37*
G36*
X141028513Y-122567119D02*
X141094697Y-122573637D01*
X141207923Y-122607984D01*
X141264537Y-122625157D01*
X141403157Y-122699252D01*
X141421061Y-122708822D01*
X141456799Y-122738152D01*
X141558256Y-122821414D01*
X141641518Y-122922871D01*
X141670848Y-122958609D01*
X141670849Y-122958611D01*
X141754513Y-123115133D01*
X141754513Y-123115134D01*
X141806033Y-123284973D01*
X141823429Y-123461600D01*
X141806033Y-123638227D01*
X141771686Y-123751453D01*
X141754513Y-123808067D01*
X141680418Y-123946687D01*
X141670848Y-123964591D01*
X141641518Y-124000329D01*
X141558256Y-124101786D01*
X141456799Y-124185048D01*
X141421061Y-124214378D01*
X141421059Y-124214379D01*
X141264537Y-124298043D01*
X141207923Y-124315216D01*
X141094697Y-124349563D01*
X141028513Y-124356081D01*
X140962330Y-124362600D01*
X140873810Y-124362600D01*
X140807627Y-124356081D01*
X140741443Y-124349563D01*
X140628217Y-124315216D01*
X140571603Y-124298043D01*
X140415081Y-124214379D01*
X140415079Y-124214378D01*
X140379341Y-124185048D01*
X140277884Y-124101786D01*
X140194622Y-124000329D01*
X140165292Y-123964591D01*
X140155722Y-123946687D01*
X140081627Y-123808067D01*
X140064454Y-123751453D01*
X140030107Y-123638227D01*
X140012711Y-123461600D01*
X140030107Y-123284973D01*
X140081627Y-123115134D01*
X140081627Y-123115133D01*
X140165291Y-122958611D01*
X140165292Y-122958609D01*
X140194622Y-122922871D01*
X140277884Y-122821414D01*
X140379341Y-122738152D01*
X140415079Y-122708822D01*
X140432983Y-122699252D01*
X140571603Y-122625157D01*
X140628217Y-122607984D01*
X140741443Y-122573637D01*
X140807627Y-122567119D01*
X140873810Y-122560600D01*
X140962330Y-122560600D01*
X141028513Y-122567119D01*
X141028513Y-122567119D01*
G37*
G36*
X114328643Y-122567119D02*
X114394827Y-122573637D01*
X114508053Y-122607984D01*
X114564667Y-122625157D01*
X114703287Y-122699252D01*
X114721191Y-122708822D01*
X114756929Y-122738152D01*
X114858386Y-122821414D01*
X114941648Y-122922871D01*
X114970978Y-122958609D01*
X114970979Y-122958611D01*
X115054643Y-123115133D01*
X115054643Y-123115134D01*
X115106163Y-123284973D01*
X115123559Y-123461600D01*
X115106163Y-123638227D01*
X115071816Y-123751453D01*
X115054643Y-123808067D01*
X114980548Y-123946687D01*
X114970978Y-123964591D01*
X114941648Y-124000329D01*
X114858386Y-124101786D01*
X114756929Y-124185048D01*
X114721191Y-124214378D01*
X114721189Y-124214379D01*
X114564667Y-124298043D01*
X114508053Y-124315216D01*
X114394827Y-124349563D01*
X114328643Y-124356081D01*
X114262460Y-124362600D01*
X114173940Y-124362600D01*
X114107757Y-124356081D01*
X114041573Y-124349563D01*
X113928347Y-124315216D01*
X113871733Y-124298043D01*
X113715211Y-124214379D01*
X113715209Y-124214378D01*
X113679471Y-124185048D01*
X113578014Y-124101786D01*
X113494752Y-124000329D01*
X113465422Y-123964591D01*
X113455852Y-123946687D01*
X113381757Y-123808067D01*
X113364584Y-123751453D01*
X113330237Y-123638227D01*
X113312841Y-123461600D01*
X113330237Y-123284973D01*
X113381757Y-123115134D01*
X113381757Y-123115133D01*
X113465421Y-122958611D01*
X113465422Y-122958609D01*
X113494752Y-122922871D01*
X113578014Y-122821414D01*
X113679471Y-122738152D01*
X113715209Y-122708822D01*
X113733113Y-122699252D01*
X113871733Y-122625157D01*
X113928347Y-122607984D01*
X114041573Y-122573637D01*
X114107757Y-122567119D01*
X114173940Y-122560600D01*
X114262460Y-122560600D01*
X114328643Y-122567119D01*
X114328643Y-122567119D01*
G37*
G36*
X141028512Y-120027118D02*
X141094697Y-120033637D01*
X141207923Y-120067984D01*
X141264537Y-120085157D01*
X141403157Y-120159252D01*
X141421061Y-120168822D01*
X141456799Y-120198152D01*
X141558256Y-120281414D01*
X141641518Y-120382871D01*
X141670848Y-120418609D01*
X141670849Y-120418611D01*
X141754513Y-120575133D01*
X141754513Y-120575134D01*
X141806033Y-120744973D01*
X141823429Y-120921600D01*
X141806033Y-121098227D01*
X141771686Y-121211453D01*
X141754513Y-121268067D01*
X141680418Y-121406687D01*
X141670848Y-121424591D01*
X141641518Y-121460329D01*
X141558256Y-121561786D01*
X141456799Y-121645048D01*
X141421061Y-121674378D01*
X141421059Y-121674379D01*
X141264537Y-121758043D01*
X141207923Y-121775216D01*
X141094697Y-121809563D01*
X141028512Y-121816082D01*
X140962330Y-121822600D01*
X140873810Y-121822600D01*
X140807628Y-121816082D01*
X140741443Y-121809563D01*
X140628217Y-121775216D01*
X140571603Y-121758043D01*
X140415081Y-121674379D01*
X140415079Y-121674378D01*
X140379341Y-121645048D01*
X140277884Y-121561786D01*
X140194622Y-121460329D01*
X140165292Y-121424591D01*
X140155722Y-121406687D01*
X140081627Y-121268067D01*
X140064454Y-121211453D01*
X140030107Y-121098227D01*
X140012711Y-120921600D01*
X140030107Y-120744973D01*
X140081627Y-120575134D01*
X140081627Y-120575133D01*
X140165291Y-120418611D01*
X140165292Y-120418609D01*
X140194622Y-120382871D01*
X140277884Y-120281414D01*
X140379341Y-120198152D01*
X140415079Y-120168822D01*
X140432983Y-120159252D01*
X140571603Y-120085157D01*
X140628217Y-120067984D01*
X140741443Y-120033637D01*
X140807628Y-120027118D01*
X140873810Y-120020600D01*
X140962330Y-120020600D01*
X141028512Y-120027118D01*
X141028512Y-120027118D01*
G37*
G36*
X114328642Y-120027118D02*
X114394827Y-120033637D01*
X114508053Y-120067984D01*
X114564667Y-120085157D01*
X114703287Y-120159252D01*
X114721191Y-120168822D01*
X114756929Y-120198152D01*
X114858386Y-120281414D01*
X114941648Y-120382871D01*
X114970978Y-120418609D01*
X114970979Y-120418611D01*
X115054643Y-120575133D01*
X115054643Y-120575134D01*
X115106163Y-120744973D01*
X115123559Y-120921600D01*
X115106163Y-121098227D01*
X115071816Y-121211453D01*
X115054643Y-121268067D01*
X114980548Y-121406687D01*
X114970978Y-121424591D01*
X114941648Y-121460329D01*
X114858386Y-121561786D01*
X114756929Y-121645048D01*
X114721191Y-121674378D01*
X114721189Y-121674379D01*
X114564667Y-121758043D01*
X114508053Y-121775216D01*
X114394827Y-121809563D01*
X114328642Y-121816082D01*
X114262460Y-121822600D01*
X114173940Y-121822600D01*
X114107758Y-121816082D01*
X114041573Y-121809563D01*
X113928347Y-121775216D01*
X113871733Y-121758043D01*
X113715211Y-121674379D01*
X113715209Y-121674378D01*
X113679471Y-121645048D01*
X113578014Y-121561786D01*
X113494752Y-121460329D01*
X113465422Y-121424591D01*
X113455852Y-121406687D01*
X113381757Y-121268067D01*
X113364584Y-121211453D01*
X113330237Y-121098227D01*
X113312841Y-120921600D01*
X113330237Y-120744973D01*
X113381757Y-120575134D01*
X113381757Y-120575133D01*
X113465421Y-120418611D01*
X113465422Y-120418609D01*
X113494752Y-120382871D01*
X113578014Y-120281414D01*
X113679471Y-120198152D01*
X113715209Y-120168822D01*
X113733113Y-120159252D01*
X113871733Y-120085157D01*
X113928347Y-120067984D01*
X114041573Y-120033637D01*
X114107758Y-120027118D01*
X114173940Y-120020600D01*
X114262460Y-120020600D01*
X114328642Y-120027118D01*
X114328642Y-120027118D01*
G37*
G36*
X141023898Y-117493156D02*
X141094697Y-117500129D01*
X141201225Y-117532444D01*
X141264537Y-117551649D01*
X141361072Y-117603249D01*
X141421061Y-117635314D01*
X141423115Y-117637000D01*
X141558256Y-117747906D01*
X141641518Y-117849363D01*
X141670848Y-117885101D01*
X141670849Y-117885103D01*
X141754513Y-118041625D01*
X141756812Y-118049204D01*
X141806033Y-118211465D01*
X141823429Y-118388092D01*
X141806033Y-118564719D01*
X141777702Y-118658114D01*
X141754513Y-118734559D01*
X141754277Y-118735000D01*
X141670848Y-118891083D01*
X141641518Y-118926821D01*
X141558256Y-119028278D01*
X141456799Y-119111540D01*
X141421061Y-119140870D01*
X141421059Y-119140871D01*
X141264537Y-119224535D01*
X141207923Y-119241708D01*
X141094697Y-119276055D01*
X141028512Y-119282574D01*
X140962330Y-119289092D01*
X140873810Y-119289092D01*
X140807628Y-119282574D01*
X140741443Y-119276055D01*
X140628217Y-119241708D01*
X140571603Y-119224535D01*
X140415081Y-119140871D01*
X140415079Y-119140870D01*
X140379341Y-119111540D01*
X140277884Y-119028278D01*
X140194622Y-118926821D01*
X140165292Y-118891083D01*
X140081863Y-118735000D01*
X140081627Y-118734559D01*
X140058438Y-118658114D01*
X140030107Y-118564719D01*
X140012711Y-118388092D01*
X140030107Y-118211465D01*
X140079328Y-118049204D01*
X140081627Y-118041625D01*
X140165291Y-117885103D01*
X140165292Y-117885101D01*
X140194622Y-117849363D01*
X140277884Y-117747906D01*
X140413025Y-117637000D01*
X140415079Y-117635314D01*
X140475068Y-117603249D01*
X140571603Y-117551649D01*
X140634915Y-117532444D01*
X140741443Y-117500129D01*
X140812242Y-117493156D01*
X140873810Y-117487092D01*
X140962330Y-117487092D01*
X141023898Y-117493156D01*
X141023898Y-117493156D01*
G37*
G36*
X114328373Y-117487092D02*
X114394827Y-117493637D01*
X114508053Y-117527984D01*
X114564667Y-117545157D01*
X114612633Y-117570796D01*
X114721191Y-117628822D01*
X114756929Y-117658152D01*
X114858386Y-117741414D01*
X114941648Y-117842871D01*
X114970978Y-117878609D01*
X114970979Y-117878611D01*
X115054643Y-118035133D01*
X115057233Y-118043671D01*
X115106163Y-118204973D01*
X115123559Y-118381600D01*
X115106163Y-118558227D01*
X115094780Y-118595751D01*
X115054643Y-118728067D01*
X115050937Y-118735000D01*
X114970978Y-118884591D01*
X114965650Y-118891083D01*
X114858386Y-119021786D01*
X114756929Y-119105048D01*
X114721191Y-119134378D01*
X114721189Y-119134379D01*
X114564667Y-119218043D01*
X114543265Y-119224535D01*
X114394827Y-119269563D01*
X114328912Y-119276055D01*
X114262460Y-119282600D01*
X114173940Y-119282600D01*
X114107488Y-119276055D01*
X114041573Y-119269563D01*
X113893135Y-119224535D01*
X113871733Y-119218043D01*
X113715211Y-119134379D01*
X113715209Y-119134378D01*
X113679471Y-119105048D01*
X113578014Y-119021786D01*
X113470750Y-118891083D01*
X113465422Y-118884591D01*
X113385463Y-118735000D01*
X113381757Y-118728067D01*
X113341620Y-118595751D01*
X113330237Y-118558227D01*
X113312841Y-118381600D01*
X113330237Y-118204973D01*
X113379167Y-118043671D01*
X113381757Y-118035133D01*
X113465421Y-117878611D01*
X113465422Y-117878609D01*
X113494752Y-117842871D01*
X113578014Y-117741414D01*
X113679471Y-117658152D01*
X113715209Y-117628822D01*
X113823767Y-117570796D01*
X113871733Y-117545157D01*
X113928347Y-117527984D01*
X114041573Y-117493637D01*
X114108027Y-117487092D01*
X114173940Y-117480600D01*
X114262460Y-117480600D01*
X114328373Y-117487092D01*
X114328373Y-117487092D01*
G37*
G36*
X116507938Y-117995716D02*
X116528556Y-118001970D01*
X116547556Y-118012126D01*
X116564208Y-118025792D01*
X116577874Y-118042444D01*
X116588030Y-118061444D01*
X116594284Y-118082062D01*
X116597000Y-118109640D01*
X116597000Y-118618360D01*
X116594284Y-118645938D01*
X116588030Y-118666556D01*
X116577874Y-118685556D01*
X116564208Y-118702208D01*
X116547556Y-118715874D01*
X116528556Y-118726030D01*
X116507938Y-118732284D01*
X116480360Y-118735000D01*
X116021640Y-118735000D01*
X115994062Y-118732284D01*
X115973444Y-118726030D01*
X115954444Y-118715874D01*
X115937792Y-118702208D01*
X115924126Y-118685556D01*
X115913970Y-118666556D01*
X115907716Y-118645938D01*
X115905000Y-118618360D01*
X115905000Y-118109640D01*
X115907716Y-118082062D01*
X115913970Y-118061444D01*
X115924126Y-118042444D01*
X115937792Y-118025792D01*
X115954444Y-118012126D01*
X115973444Y-118001970D01*
X115994062Y-117995716D01*
X116021640Y-117993000D01*
X116480360Y-117993000D01*
X116507938Y-117995716D01*
X116507938Y-117995716D01*
G37*
G36*
X117477938Y-117995716D02*
X117498556Y-118001970D01*
X117517556Y-118012126D01*
X117534208Y-118025792D01*
X117547874Y-118042444D01*
X117558030Y-118061444D01*
X117564284Y-118082062D01*
X117567000Y-118109640D01*
X117567000Y-118618360D01*
X117564284Y-118645938D01*
X117558030Y-118666556D01*
X117547874Y-118685556D01*
X117534208Y-118702208D01*
X117517556Y-118715874D01*
X117498556Y-118726030D01*
X117477938Y-118732284D01*
X117450360Y-118735000D01*
X116991640Y-118735000D01*
X116964062Y-118732284D01*
X116943444Y-118726030D01*
X116924444Y-118715874D01*
X116907792Y-118702208D01*
X116894126Y-118685556D01*
X116883970Y-118666556D01*
X116877716Y-118645938D01*
X116875000Y-118618360D01*
X116875000Y-118109640D01*
X116877716Y-118082062D01*
X116883970Y-118061444D01*
X116894126Y-118042444D01*
X116907792Y-118025792D01*
X116924444Y-118012126D01*
X116943444Y-118001970D01*
X116964062Y-117995716D01*
X116991640Y-117993000D01*
X117450360Y-117993000D01*
X117477938Y-117995716D01*
X117477938Y-117995716D01*
G37*
G36*
X139473938Y-117466716D02*
X139494556Y-117472970D01*
X139513556Y-117483126D01*
X139530208Y-117496792D01*
X139543874Y-117513444D01*
X139554030Y-117532444D01*
X139560284Y-117553062D01*
X139563000Y-117580640D01*
X139563000Y-118039360D01*
X139560284Y-118066938D01*
X139554030Y-118087556D01*
X139543874Y-118106556D01*
X139530208Y-118123208D01*
X139513556Y-118136874D01*
X139494556Y-118147030D01*
X139473938Y-118153284D01*
X139446360Y-118156000D01*
X138937640Y-118156000D01*
X138910062Y-118153284D01*
X138889444Y-118147030D01*
X138870444Y-118136874D01*
X138853792Y-118123208D01*
X138840126Y-118106556D01*
X138829970Y-118087556D01*
X138823716Y-118066938D01*
X138821000Y-118039360D01*
X138821000Y-117580640D01*
X138823716Y-117553062D01*
X138829970Y-117532444D01*
X138840126Y-117513444D01*
X138853792Y-117496792D01*
X138870444Y-117483126D01*
X138889444Y-117472970D01*
X138910062Y-117466716D01*
X138937640Y-117464000D01*
X139446360Y-117464000D01*
X139473938Y-117466716D01*
X139473938Y-117466716D01*
G37*
G36*
X139473938Y-116496716D02*
X139494556Y-116502970D01*
X139513556Y-116513126D01*
X139530208Y-116526792D01*
X139543874Y-116543444D01*
X139554030Y-116562444D01*
X139560284Y-116583062D01*
X139563000Y-116610640D01*
X139563000Y-117069360D01*
X139560284Y-117096938D01*
X139554030Y-117117556D01*
X139543874Y-117136556D01*
X139530208Y-117153208D01*
X139513556Y-117166874D01*
X139494556Y-117177030D01*
X139473938Y-117183284D01*
X139446360Y-117186000D01*
X138937640Y-117186000D01*
X138910062Y-117183284D01*
X138889444Y-117177030D01*
X138870444Y-117166874D01*
X138853792Y-117153208D01*
X138840126Y-117136556D01*
X138829970Y-117117556D01*
X138823716Y-117096938D01*
X138821000Y-117069360D01*
X138821000Y-116610640D01*
X138823716Y-116583062D01*
X138829970Y-116562444D01*
X138840126Y-116543444D01*
X138853792Y-116526792D01*
X138870444Y-116513126D01*
X138889444Y-116502970D01*
X138910062Y-116496716D01*
X138937640Y-116494000D01*
X139446360Y-116494000D01*
X139473938Y-116496716D01*
X139473938Y-116496716D01*
G37*
G36*
X137268015Y-114518973D02*
X137371879Y-114550479D01*
X137467600Y-114601644D01*
X137551501Y-114670499D01*
X137620356Y-114754400D01*
X137671521Y-114850121D01*
X137703027Y-114953985D01*
X137713666Y-115062000D01*
X137703027Y-115170015D01*
X137671521Y-115273879D01*
X137620356Y-115369600D01*
X137551501Y-115453501D01*
X137467600Y-115522356D01*
X137423805Y-115545766D01*
X137403439Y-115559374D01*
X137386111Y-115576701D01*
X137372498Y-115597076D01*
X137363120Y-115619715D01*
X137358340Y-115643748D01*
X137358340Y-115668252D01*
X137363121Y-115692286D01*
X137372498Y-115714925D01*
X137386112Y-115735299D01*
X137403439Y-115752627D01*
X137423814Y-115766240D01*
X137446453Y-115775618D01*
X137482738Y-115781000D01*
X137711000Y-115781000D01*
X137711000Y-116883000D01*
X136609000Y-116883000D01*
X136609000Y-115781000D01*
X136837262Y-115781000D01*
X136861648Y-115778598D01*
X136885097Y-115771485D01*
X136906708Y-115759934D01*
X136925650Y-115744388D01*
X136941196Y-115725446D01*
X136952747Y-115703835D01*
X136959860Y-115680386D01*
X136962262Y-115656000D01*
X136959860Y-115631614D01*
X136952747Y-115608165D01*
X136941196Y-115586554D01*
X136925650Y-115567612D01*
X136896192Y-115545764D01*
X136852400Y-115522356D01*
X136768499Y-115453501D01*
X136699644Y-115369600D01*
X136648479Y-115273879D01*
X136616973Y-115170015D01*
X136606334Y-115062000D01*
X136616973Y-114953985D01*
X136648479Y-114850121D01*
X136699644Y-114754400D01*
X136768499Y-114670499D01*
X136852400Y-114601644D01*
X136948121Y-114550479D01*
X137051985Y-114518973D01*
X137132933Y-114511000D01*
X137187067Y-114511000D01*
X137268015Y-114518973D01*
X137268015Y-114518973D01*
G37*
G36*
X141028513Y-114953611D02*
X141094697Y-114960129D01*
X141207923Y-114994476D01*
X141264537Y-115011649D01*
X141403157Y-115085744D01*
X141421061Y-115095314D01*
X141456799Y-115124644D01*
X141558256Y-115207906D01*
X141641518Y-115309363D01*
X141670848Y-115345101D01*
X141670849Y-115345103D01*
X141754513Y-115501625D01*
X141767901Y-115545760D01*
X141806033Y-115671465D01*
X141823429Y-115848092D01*
X141806033Y-116024719D01*
X141792904Y-116068000D01*
X141754513Y-116194559D01*
X141680418Y-116333179D01*
X141670848Y-116351083D01*
X141641518Y-116386821D01*
X141558256Y-116488278D01*
X141467883Y-116562444D01*
X141421061Y-116600870D01*
X141421059Y-116600871D01*
X141264537Y-116684535D01*
X141207923Y-116701708D01*
X141094697Y-116736055D01*
X141028513Y-116742573D01*
X140962330Y-116749092D01*
X140873810Y-116749092D01*
X140807627Y-116742573D01*
X140741443Y-116736055D01*
X140628217Y-116701708D01*
X140571603Y-116684535D01*
X140415081Y-116600871D01*
X140415079Y-116600870D01*
X140368257Y-116562444D01*
X140277884Y-116488278D01*
X140194622Y-116386821D01*
X140165292Y-116351083D01*
X140155722Y-116333179D01*
X140081627Y-116194559D01*
X140043236Y-116068000D01*
X140030107Y-116024719D01*
X140012711Y-115848092D01*
X140030107Y-115671465D01*
X140068239Y-115545760D01*
X140081627Y-115501625D01*
X140165291Y-115345103D01*
X140165292Y-115345101D01*
X140194622Y-115309363D01*
X140277884Y-115207906D01*
X140379341Y-115124644D01*
X140415079Y-115095314D01*
X140432983Y-115085744D01*
X140571603Y-115011649D01*
X140628217Y-114994476D01*
X140741443Y-114960129D01*
X140807627Y-114953611D01*
X140873810Y-114947092D01*
X140962330Y-114947092D01*
X141028513Y-114953611D01*
X141028513Y-114953611D01*
G37*
G36*
X114328373Y-114947092D02*
X114394827Y-114953637D01*
X114508053Y-114987984D01*
X114564667Y-115005157D01*
X114576812Y-115011649D01*
X114721191Y-115088822D01*
X114729100Y-115095313D01*
X114858386Y-115201414D01*
X114941648Y-115302871D01*
X114970978Y-115338609D01*
X114970979Y-115338611D01*
X115054643Y-115495133D01*
X115062901Y-115522356D01*
X115106163Y-115664973D01*
X115123559Y-115841600D01*
X115106163Y-116018227D01*
X115071816Y-116131453D01*
X115054643Y-116188067D01*
X114980548Y-116326687D01*
X114970978Y-116344591D01*
X114965650Y-116351083D01*
X114858386Y-116481786D01*
X114783254Y-116543444D01*
X114721191Y-116594378D01*
X114721189Y-116594379D01*
X114564667Y-116678043D01*
X114543265Y-116684535D01*
X114394827Y-116729563D01*
X114328912Y-116736055D01*
X114262460Y-116742600D01*
X114173940Y-116742600D01*
X114107488Y-116736055D01*
X114041573Y-116729563D01*
X113893135Y-116684535D01*
X113871733Y-116678043D01*
X113715211Y-116594379D01*
X113715209Y-116594378D01*
X113653146Y-116543444D01*
X113578014Y-116481786D01*
X113470750Y-116351083D01*
X113465422Y-116344591D01*
X113455852Y-116326687D01*
X113381757Y-116188067D01*
X113364584Y-116131453D01*
X113330237Y-116018227D01*
X113312841Y-115841600D01*
X113330237Y-115664973D01*
X113373499Y-115522356D01*
X113381757Y-115495133D01*
X113465421Y-115338611D01*
X113465422Y-115338609D01*
X113494752Y-115302871D01*
X113578014Y-115201414D01*
X113707300Y-115095313D01*
X113715209Y-115088822D01*
X113859588Y-115011649D01*
X113871733Y-115005157D01*
X113928347Y-114987984D01*
X114041573Y-114953637D01*
X114108027Y-114947092D01*
X114173940Y-114940600D01*
X114262460Y-114940600D01*
X114328373Y-114947092D01*
X114328373Y-114947092D01*
G37*
G36*
X122557938Y-115328716D02*
X122578556Y-115334970D01*
X122597556Y-115345126D01*
X122614208Y-115358792D01*
X122627874Y-115375444D01*
X122638030Y-115394444D01*
X122644284Y-115415062D01*
X122647000Y-115442640D01*
X122647000Y-115951360D01*
X122644284Y-115978938D01*
X122638030Y-115999556D01*
X122627874Y-116018556D01*
X122614208Y-116035208D01*
X122597556Y-116048874D01*
X122578556Y-116059030D01*
X122557938Y-116065284D01*
X122530360Y-116068000D01*
X122071640Y-116068000D01*
X122044062Y-116065284D01*
X122023444Y-116059030D01*
X122004444Y-116048874D01*
X121987792Y-116035208D01*
X121974126Y-116018556D01*
X121963970Y-115999556D01*
X121957716Y-115978938D01*
X121955000Y-115951360D01*
X121955000Y-115442640D01*
X121957716Y-115415062D01*
X121963970Y-115394444D01*
X121974126Y-115375444D01*
X121987792Y-115358792D01*
X122004444Y-115345126D01*
X122023444Y-115334970D01*
X122044062Y-115328716D01*
X122071640Y-115326000D01*
X122530360Y-115326000D01*
X122557938Y-115328716D01*
X122557938Y-115328716D01*
G37*
G36*
X121587938Y-115328716D02*
X121608556Y-115334970D01*
X121627556Y-115345126D01*
X121644208Y-115358792D01*
X121657874Y-115375444D01*
X121668030Y-115394444D01*
X121674284Y-115415062D01*
X121677000Y-115442640D01*
X121677000Y-115951360D01*
X121674284Y-115978938D01*
X121668030Y-115999556D01*
X121657874Y-116018556D01*
X121644208Y-116035208D01*
X121627556Y-116048874D01*
X121608556Y-116059030D01*
X121587938Y-116065284D01*
X121560360Y-116068000D01*
X121101640Y-116068000D01*
X121074062Y-116065284D01*
X121053444Y-116059030D01*
X121034444Y-116048874D01*
X121017792Y-116035208D01*
X121004126Y-116018556D01*
X120993970Y-115999556D01*
X120987716Y-115978938D01*
X120985000Y-115951360D01*
X120985000Y-115442640D01*
X120987716Y-115415062D01*
X120993970Y-115394444D01*
X121004126Y-115375444D01*
X121017792Y-115358792D01*
X121034444Y-115345126D01*
X121053444Y-115334970D01*
X121074062Y-115328716D01*
X121101640Y-115326000D01*
X121560360Y-115326000D01*
X121587938Y-115328716D01*
X121587938Y-115328716D01*
G37*
G36*
X139473938Y-114187716D02*
X139494556Y-114193970D01*
X139513556Y-114204126D01*
X139530208Y-114217792D01*
X139543874Y-114234444D01*
X139554030Y-114253444D01*
X139560284Y-114274062D01*
X139563000Y-114301640D01*
X139563000Y-114760360D01*
X139560284Y-114787938D01*
X139554030Y-114808556D01*
X139543874Y-114827556D01*
X139530208Y-114844208D01*
X139513556Y-114857874D01*
X139494556Y-114868030D01*
X139473938Y-114874284D01*
X139446360Y-114877000D01*
X138937640Y-114877000D01*
X138910062Y-114874284D01*
X138889444Y-114868030D01*
X138870444Y-114857874D01*
X138853792Y-114844208D01*
X138840126Y-114827556D01*
X138829970Y-114808556D01*
X138823716Y-114787938D01*
X138821000Y-114760360D01*
X138821000Y-114301640D01*
X138823716Y-114274062D01*
X138829970Y-114253444D01*
X138840126Y-114234444D01*
X138853792Y-114217792D01*
X138870444Y-114204126D01*
X138889444Y-114193970D01*
X138910062Y-114187716D01*
X138937640Y-114185000D01*
X139446360Y-114185000D01*
X139473938Y-114187716D01*
X139473938Y-114187716D01*
G37*
G36*
X121901015Y-111851973D02*
X122004879Y-111883479D01*
X122100600Y-111934644D01*
X122184501Y-112003499D01*
X122253356Y-112087400D01*
X122304521Y-112183121D01*
X122336027Y-112286985D01*
X122346666Y-112395000D01*
X122336027Y-112503015D01*
X122304521Y-112606879D01*
X122253356Y-112702600D01*
X122184501Y-112786501D01*
X122100600Y-112855356D01*
X122056805Y-112878766D01*
X122036439Y-112892374D01*
X122019111Y-112909701D01*
X122005498Y-112930076D01*
X121996120Y-112952715D01*
X121991340Y-112976748D01*
X121991340Y-113001252D01*
X121996121Y-113025286D01*
X122005498Y-113047925D01*
X122019112Y-113068299D01*
X122036439Y-113085627D01*
X122056814Y-113099240D01*
X122079453Y-113108618D01*
X122115738Y-113114000D01*
X122344000Y-113114000D01*
X122344000Y-114216000D01*
X121242000Y-114216000D01*
X121242000Y-113114000D01*
X121470262Y-113114000D01*
X121494648Y-113111598D01*
X121518097Y-113104485D01*
X121539708Y-113092934D01*
X121558650Y-113077388D01*
X121574196Y-113058446D01*
X121585747Y-113036835D01*
X121592860Y-113013386D01*
X121595262Y-112989000D01*
X121592860Y-112964614D01*
X121585747Y-112941165D01*
X121574196Y-112919554D01*
X121558650Y-112900612D01*
X121529192Y-112878764D01*
X121485400Y-112855356D01*
X121401499Y-112786501D01*
X121332644Y-112702600D01*
X121281479Y-112606879D01*
X121249973Y-112503015D01*
X121239334Y-112395000D01*
X121249973Y-112286985D01*
X121281479Y-112183121D01*
X121332644Y-112087400D01*
X121401499Y-112003499D01*
X121485400Y-111934644D01*
X121581121Y-111883479D01*
X121684985Y-111851973D01*
X121765933Y-111844000D01*
X121820067Y-111844000D01*
X121901015Y-111851973D01*
X121901015Y-111851973D01*
G37*
G36*
X114328643Y-112407119D02*
X114394827Y-112413637D01*
X114508053Y-112447984D01*
X114564667Y-112465157D01*
X114635493Y-112503015D01*
X114721191Y-112548822D01*
X114756929Y-112578152D01*
X114858386Y-112661414D01*
X114941648Y-112762871D01*
X114970978Y-112798609D01*
X114970979Y-112798611D01*
X115054643Y-112955133D01*
X115054643Y-112955134D01*
X115106163Y-113124973D01*
X115123559Y-113301600D01*
X115106163Y-113478227D01*
X115071816Y-113591453D01*
X115054643Y-113648067D01*
X115024150Y-113705114D01*
X114970978Y-113804591D01*
X114943103Y-113838556D01*
X114858386Y-113941786D01*
X114756929Y-114025048D01*
X114721191Y-114054378D01*
X114721189Y-114054379D01*
X114564667Y-114138043D01*
X114508053Y-114155216D01*
X114394827Y-114189563D01*
X114350081Y-114193970D01*
X114262460Y-114202600D01*
X114173940Y-114202600D01*
X114086319Y-114193970D01*
X114041573Y-114189563D01*
X113928347Y-114155216D01*
X113871733Y-114138043D01*
X113715211Y-114054379D01*
X113715209Y-114054378D01*
X113679471Y-114025048D01*
X113578014Y-113941786D01*
X113493297Y-113838556D01*
X113465422Y-113804591D01*
X113412250Y-113705114D01*
X113381757Y-113648067D01*
X113364584Y-113591453D01*
X113330237Y-113478227D01*
X113312841Y-113301600D01*
X113330237Y-113124973D01*
X113381757Y-112955134D01*
X113381757Y-112955133D01*
X113465421Y-112798611D01*
X113465422Y-112798609D01*
X113494752Y-112762871D01*
X113578014Y-112661414D01*
X113679471Y-112578152D01*
X113715209Y-112548822D01*
X113800907Y-112503015D01*
X113871733Y-112465157D01*
X113928347Y-112447984D01*
X114041573Y-112413637D01*
X114107757Y-112407119D01*
X114173940Y-112400600D01*
X114262460Y-112400600D01*
X114328643Y-112407119D01*
X114328643Y-112407119D01*
G37*
G36*
X141028513Y-112407119D02*
X141094697Y-112413637D01*
X141207923Y-112447984D01*
X141264537Y-112465157D01*
X141335363Y-112503015D01*
X141421061Y-112548822D01*
X141456799Y-112578152D01*
X141558256Y-112661414D01*
X141641518Y-112762871D01*
X141670848Y-112798609D01*
X141670849Y-112798611D01*
X141754513Y-112955133D01*
X141754513Y-112955134D01*
X141806033Y-113124973D01*
X141823429Y-113301600D01*
X141806033Y-113478227D01*
X141771686Y-113591453D01*
X141754513Y-113648067D01*
X141724020Y-113705114D01*
X141670848Y-113804591D01*
X141642973Y-113838556D01*
X141558256Y-113941786D01*
X141456799Y-114025048D01*
X141421061Y-114054378D01*
X141421059Y-114054379D01*
X141264537Y-114138043D01*
X141207923Y-114155216D01*
X141094697Y-114189563D01*
X141049951Y-114193970D01*
X140962330Y-114202600D01*
X140873810Y-114202600D01*
X140786189Y-114193970D01*
X140741443Y-114189563D01*
X140628217Y-114155216D01*
X140571603Y-114138043D01*
X140415081Y-114054379D01*
X140415079Y-114054378D01*
X140379341Y-114025048D01*
X140277884Y-113941786D01*
X140193167Y-113838556D01*
X140165292Y-113804591D01*
X140112120Y-113705114D01*
X140081627Y-113648067D01*
X140064454Y-113591453D01*
X140030107Y-113478227D01*
X140012711Y-113301600D01*
X140030107Y-113124973D01*
X140081627Y-112955134D01*
X140081627Y-112955133D01*
X140165291Y-112798611D01*
X140165292Y-112798609D01*
X140194622Y-112762871D01*
X140277884Y-112661414D01*
X140379341Y-112578152D01*
X140415079Y-112548822D01*
X140500777Y-112503015D01*
X140571603Y-112465157D01*
X140628217Y-112447984D01*
X140741443Y-112413637D01*
X140807627Y-112407119D01*
X140873810Y-112400600D01*
X140962330Y-112400600D01*
X141028513Y-112407119D01*
X141028513Y-112407119D01*
G37*
G36*
X139473938Y-113217716D02*
X139494556Y-113223970D01*
X139513556Y-113234126D01*
X139530208Y-113247792D01*
X139543874Y-113264444D01*
X139554030Y-113283444D01*
X139560284Y-113304062D01*
X139563000Y-113331640D01*
X139563000Y-113790360D01*
X139560284Y-113817938D01*
X139554030Y-113838556D01*
X139543874Y-113857556D01*
X139530208Y-113874208D01*
X139513556Y-113887874D01*
X139494556Y-113898030D01*
X139473938Y-113904284D01*
X139446360Y-113907000D01*
X138937640Y-113907000D01*
X138910062Y-113904284D01*
X138889444Y-113898030D01*
X138870444Y-113887874D01*
X138853792Y-113874208D01*
X138840126Y-113857556D01*
X138829970Y-113838556D01*
X138823716Y-113817938D01*
X138821000Y-113790360D01*
X138821000Y-113331640D01*
X138823716Y-113304062D01*
X138829970Y-113283444D01*
X138840126Y-113264444D01*
X138853792Y-113247792D01*
X138870444Y-113234126D01*
X138889444Y-113223970D01*
X138910062Y-113217716D01*
X138937640Y-113215000D01*
X139446360Y-113215000D01*
X139473938Y-113217716D01*
X139473938Y-113217716D01*
G37*
G36*
X116507938Y-113042716D02*
X116528556Y-113048970D01*
X116547556Y-113059126D01*
X116564208Y-113072792D01*
X116577874Y-113089444D01*
X116588030Y-113108444D01*
X116594284Y-113129062D01*
X116597000Y-113156640D01*
X116597000Y-113665360D01*
X116594284Y-113692938D01*
X116588030Y-113713556D01*
X116577874Y-113732556D01*
X116564208Y-113749208D01*
X116547556Y-113762874D01*
X116528556Y-113773030D01*
X116507938Y-113779284D01*
X116480360Y-113782000D01*
X116021640Y-113782000D01*
X115994062Y-113779284D01*
X115973444Y-113773030D01*
X115954444Y-113762874D01*
X115937792Y-113749208D01*
X115924126Y-113732556D01*
X115913970Y-113713556D01*
X115907716Y-113692938D01*
X115905000Y-113665360D01*
X115905000Y-113156640D01*
X115907716Y-113129062D01*
X115913970Y-113108444D01*
X115924126Y-113089444D01*
X115937792Y-113072792D01*
X115954444Y-113059126D01*
X115973444Y-113048970D01*
X115994062Y-113042716D01*
X116021640Y-113040000D01*
X116480360Y-113040000D01*
X116507938Y-113042716D01*
X116507938Y-113042716D01*
G37*
G36*
X117477938Y-113042716D02*
X117498556Y-113048970D01*
X117517556Y-113059126D01*
X117534208Y-113072792D01*
X117547874Y-113089444D01*
X117558030Y-113108444D01*
X117564284Y-113129062D01*
X117567000Y-113156640D01*
X117567000Y-113665360D01*
X117564284Y-113692938D01*
X117558030Y-113713556D01*
X117547874Y-113732556D01*
X117534208Y-113749208D01*
X117517556Y-113762874D01*
X117498556Y-113773030D01*
X117477938Y-113779284D01*
X117450360Y-113782000D01*
X116991640Y-113782000D01*
X116964062Y-113779284D01*
X116943444Y-113773030D01*
X116924444Y-113762874D01*
X116907792Y-113749208D01*
X116894126Y-113732556D01*
X116883970Y-113713556D01*
X116877716Y-113692938D01*
X116875000Y-113665360D01*
X116875000Y-113156640D01*
X116877716Y-113129062D01*
X116883970Y-113108444D01*
X116894126Y-113089444D01*
X116907792Y-113072792D01*
X116924444Y-113059126D01*
X116943444Y-113048970D01*
X116964062Y-113042716D01*
X116991640Y-113040000D01*
X117450360Y-113040000D01*
X117477938Y-113042716D01*
X117477938Y-113042716D01*
G37*
G36*
X141028513Y-109867119D02*
X141094697Y-109873637D01*
X141207923Y-109907984D01*
X141264537Y-109925157D01*
X141390525Y-109992500D01*
X141421061Y-110008822D01*
X141456799Y-110038152D01*
X141558256Y-110121414D01*
X141641518Y-110222871D01*
X141670848Y-110258609D01*
X141670849Y-110258611D01*
X141754513Y-110415133D01*
X141754513Y-110415134D01*
X141806033Y-110584973D01*
X141823429Y-110761600D01*
X141806033Y-110938227D01*
X141771686Y-111051453D01*
X141754513Y-111108067D01*
X141724020Y-111165114D01*
X141670848Y-111264591D01*
X141641518Y-111300329D01*
X141558256Y-111401786D01*
X141456799Y-111485048D01*
X141421061Y-111514378D01*
X141421059Y-111514379D01*
X141264537Y-111598043D01*
X141207923Y-111615216D01*
X141094697Y-111649563D01*
X141028513Y-111656081D01*
X140962330Y-111662600D01*
X140873810Y-111662600D01*
X140807627Y-111656081D01*
X140741443Y-111649563D01*
X140628217Y-111615216D01*
X140571603Y-111598043D01*
X140415081Y-111514379D01*
X140415079Y-111514378D01*
X140379341Y-111485048D01*
X140277884Y-111401786D01*
X140194622Y-111300329D01*
X140165292Y-111264591D01*
X140112120Y-111165114D01*
X140081627Y-111108067D01*
X140064454Y-111051453D01*
X140030107Y-110938227D01*
X140012711Y-110761600D01*
X140030107Y-110584973D01*
X140081627Y-110415134D01*
X140081627Y-110415133D01*
X140165291Y-110258611D01*
X140165292Y-110258609D01*
X140194622Y-110222871D01*
X140277884Y-110121414D01*
X140379341Y-110038152D01*
X140415079Y-110008822D01*
X140445615Y-109992500D01*
X140571603Y-109925157D01*
X140628217Y-109907984D01*
X140741443Y-109873637D01*
X140807627Y-109867119D01*
X140873810Y-109860600D01*
X140962330Y-109860600D01*
X141028513Y-109867119D01*
X141028513Y-109867119D01*
G37*
G36*
X114328643Y-109867119D02*
X114394827Y-109873637D01*
X114508053Y-109907984D01*
X114564667Y-109925157D01*
X114690655Y-109992500D01*
X114721191Y-110008822D01*
X114756929Y-110038152D01*
X114858386Y-110121414D01*
X114941648Y-110222871D01*
X114970978Y-110258609D01*
X114970979Y-110258611D01*
X115054643Y-110415133D01*
X115054643Y-110415134D01*
X115106163Y-110584973D01*
X115123559Y-110761600D01*
X115106163Y-110938227D01*
X115071816Y-111051453D01*
X115054643Y-111108067D01*
X115024150Y-111165114D01*
X114970978Y-111264591D01*
X114941648Y-111300329D01*
X114858386Y-111401786D01*
X114756929Y-111485048D01*
X114721191Y-111514378D01*
X114721189Y-111514379D01*
X114564667Y-111598043D01*
X114508053Y-111615216D01*
X114394827Y-111649563D01*
X114328643Y-111656081D01*
X114262460Y-111662600D01*
X114173940Y-111662600D01*
X114107757Y-111656081D01*
X114041573Y-111649563D01*
X113928347Y-111615216D01*
X113871733Y-111598043D01*
X113715211Y-111514379D01*
X113715209Y-111514378D01*
X113679471Y-111485048D01*
X113578014Y-111401786D01*
X113494752Y-111300329D01*
X113465422Y-111264591D01*
X113412250Y-111165114D01*
X113381757Y-111108067D01*
X113364584Y-111051453D01*
X113330237Y-110938227D01*
X113312841Y-110761600D01*
X113330237Y-110584973D01*
X113381757Y-110415134D01*
X113381757Y-110415133D01*
X113465421Y-110258611D01*
X113465422Y-110258609D01*
X113494752Y-110222871D01*
X113578014Y-110121414D01*
X113679471Y-110038152D01*
X113715209Y-110008822D01*
X113745745Y-109992500D01*
X113871733Y-109925157D01*
X113928347Y-109907984D01*
X114041573Y-109873637D01*
X114107757Y-109867119D01*
X114173940Y-109860600D01*
X114262460Y-109860600D01*
X114328643Y-109867119D01*
X114328643Y-109867119D01*
G37*
G36*
X117431938Y-110502716D02*
X117452556Y-110508970D01*
X117471556Y-110519126D01*
X117488208Y-110532792D01*
X117501874Y-110549444D01*
X117512030Y-110568444D01*
X117518284Y-110589062D01*
X117521000Y-110616640D01*
X117521000Y-111125360D01*
X117518284Y-111152938D01*
X117512030Y-111173556D01*
X117501874Y-111192556D01*
X117488208Y-111209208D01*
X117471556Y-111222874D01*
X117452556Y-111233030D01*
X117431938Y-111239284D01*
X117404360Y-111242000D01*
X116945640Y-111242000D01*
X116918062Y-111239284D01*
X116897444Y-111233030D01*
X116878444Y-111222874D01*
X116861792Y-111209208D01*
X116848126Y-111192556D01*
X116837970Y-111173556D01*
X116831716Y-111152938D01*
X116829000Y-111125360D01*
X116829000Y-110616640D01*
X116831716Y-110589062D01*
X116837970Y-110568444D01*
X116848126Y-110549444D01*
X116861792Y-110532792D01*
X116878444Y-110519126D01*
X116897444Y-110508970D01*
X116918062Y-110502716D01*
X116945640Y-110500000D01*
X117404360Y-110500000D01*
X117431938Y-110502716D01*
X117431938Y-110502716D01*
G37*
G36*
X116461938Y-110502716D02*
X116482556Y-110508970D01*
X116501556Y-110519126D01*
X116518208Y-110532792D01*
X116531874Y-110549444D01*
X116542030Y-110568444D01*
X116548284Y-110589062D01*
X116551000Y-110616640D01*
X116551000Y-111125360D01*
X116548284Y-111152938D01*
X116542030Y-111173556D01*
X116531874Y-111192556D01*
X116518208Y-111209208D01*
X116501556Y-111222874D01*
X116482556Y-111233030D01*
X116461938Y-111239284D01*
X116434360Y-111242000D01*
X115975640Y-111242000D01*
X115948062Y-111239284D01*
X115927444Y-111233030D01*
X115908444Y-111222874D01*
X115891792Y-111209208D01*
X115878126Y-111192556D01*
X115867970Y-111173556D01*
X115861716Y-111152938D01*
X115859000Y-111125360D01*
X115859000Y-110616640D01*
X115861716Y-110589062D01*
X115867970Y-110568444D01*
X115878126Y-110549444D01*
X115891792Y-110532792D01*
X115908444Y-110519126D01*
X115927444Y-110508970D01*
X115948062Y-110502716D01*
X115975640Y-110500000D01*
X116434360Y-110500000D01*
X116461938Y-110502716D01*
X116461938Y-110502716D01*
G37*
G36*
X132631000Y-107612000D02*
X132402738Y-107612000D01*
X132378352Y-107614402D01*
X132354903Y-107621515D01*
X132333292Y-107633066D01*
X132314350Y-107648612D01*
X132298804Y-107667554D01*
X132287253Y-107689165D01*
X132280140Y-107712614D01*
X132277738Y-107737000D01*
X132280140Y-107761386D01*
X132287253Y-107784835D01*
X132298804Y-107806446D01*
X132314350Y-107825388D01*
X132343808Y-107847236D01*
X132387600Y-107870644D01*
X132471501Y-107939499D01*
X132540356Y-108023400D01*
X132591521Y-108119121D01*
X132623027Y-108222985D01*
X132633666Y-108331000D01*
X132623027Y-108439015D01*
X132591521Y-108542879D01*
X132540356Y-108638600D01*
X132471501Y-108722501D01*
X132387600Y-108791356D01*
X132291879Y-108842521D01*
X132279142Y-108846385D01*
X132256507Y-108855760D01*
X132236133Y-108869374D01*
X132218806Y-108886701D01*
X132205192Y-108907076D01*
X132195814Y-108929715D01*
X132191034Y-108953748D01*
X132191034Y-108978252D01*
X132195815Y-109002286D01*
X132205192Y-109024925D01*
X132218806Y-109045299D01*
X132236133Y-109062626D01*
X132256508Y-109076240D01*
X132279142Y-109085615D01*
X132291879Y-109089479D01*
X132387600Y-109140644D01*
X132471501Y-109209499D01*
X132540356Y-109293400D01*
X132591521Y-109389121D01*
X132623027Y-109492985D01*
X132633666Y-109601000D01*
X132623027Y-109709015D01*
X132591521Y-109812879D01*
X132540356Y-109908600D01*
X132471501Y-109992501D01*
X132387600Y-110061356D01*
X132291879Y-110112521D01*
X132188015Y-110144027D01*
X132107067Y-110152000D01*
X132052933Y-110152000D01*
X131971985Y-110144027D01*
X131868121Y-110112521D01*
X131772400Y-110061356D01*
X131688499Y-109992501D01*
X131619644Y-109908600D01*
X131568479Y-109812879D01*
X131536973Y-109709015D01*
X131526334Y-109601000D01*
X131536973Y-109492985D01*
X131568479Y-109389121D01*
X131619644Y-109293400D01*
X131688499Y-109209499D01*
X131772400Y-109140644D01*
X131868121Y-109089479D01*
X131880858Y-109085615D01*
X131903493Y-109076240D01*
X131923867Y-109062626D01*
X131941194Y-109045299D01*
X131954808Y-109024924D01*
X131964186Y-109002285D01*
X131968966Y-108978252D01*
X131968966Y-108953748D01*
X131964185Y-108929714D01*
X131954808Y-108907075D01*
X131941194Y-108886701D01*
X131923867Y-108869374D01*
X131903492Y-108855760D01*
X131880858Y-108846385D01*
X131868121Y-108842521D01*
X131772400Y-108791356D01*
X131688499Y-108722501D01*
X131619644Y-108638600D01*
X131568479Y-108542879D01*
X131536973Y-108439015D01*
X131526334Y-108331000D01*
X131536973Y-108222985D01*
X131568479Y-108119121D01*
X131619644Y-108023400D01*
X131688499Y-107939499D01*
X131772400Y-107870644D01*
X131816195Y-107847234D01*
X131836561Y-107833626D01*
X131853889Y-107816299D01*
X131867502Y-107795924D01*
X131876880Y-107773285D01*
X131881660Y-107749252D01*
X131881660Y-107724748D01*
X131876879Y-107700714D01*
X131867502Y-107678075D01*
X131853888Y-107657701D01*
X131836561Y-107640373D01*
X131816186Y-107626760D01*
X131793547Y-107617382D01*
X131757262Y-107612000D01*
X131529000Y-107612000D01*
X131529000Y-106510000D01*
X132631000Y-106510000D01*
X132631000Y-107612000D01*
X132631000Y-107612000D01*
G37*
G36*
X122344000Y-107612000D02*
X122115738Y-107612000D01*
X122091352Y-107614402D01*
X122067903Y-107621515D01*
X122046292Y-107633066D01*
X122027350Y-107648612D01*
X122011804Y-107667554D01*
X122000253Y-107689165D01*
X121993140Y-107712614D01*
X121990738Y-107737000D01*
X121993140Y-107761386D01*
X122000253Y-107784835D01*
X122011804Y-107806446D01*
X122027350Y-107825388D01*
X122056808Y-107847236D01*
X122100600Y-107870644D01*
X122184501Y-107939499D01*
X122253356Y-108023400D01*
X122304521Y-108119121D01*
X122336027Y-108222985D01*
X122346666Y-108331000D01*
X122336027Y-108439015D01*
X122304521Y-108542879D01*
X122253356Y-108638600D01*
X122184501Y-108722501D01*
X122100600Y-108791356D01*
X122004879Y-108842521D01*
X121992142Y-108846385D01*
X121969507Y-108855760D01*
X121949133Y-108869374D01*
X121931806Y-108886701D01*
X121918192Y-108907076D01*
X121908814Y-108929715D01*
X121904034Y-108953748D01*
X121904034Y-108978252D01*
X121908815Y-109002286D01*
X121918192Y-109024925D01*
X121931806Y-109045299D01*
X121949133Y-109062626D01*
X121969508Y-109076240D01*
X121992142Y-109085615D01*
X122004879Y-109089479D01*
X122100600Y-109140644D01*
X122184501Y-109209499D01*
X122253356Y-109293400D01*
X122304521Y-109389121D01*
X122336027Y-109492985D01*
X122346666Y-109601000D01*
X122336027Y-109709015D01*
X122304521Y-109812879D01*
X122253356Y-109908600D01*
X122184501Y-109992501D01*
X122100600Y-110061356D01*
X122004879Y-110112521D01*
X121901015Y-110144027D01*
X121820067Y-110152000D01*
X121765933Y-110152000D01*
X121684985Y-110144027D01*
X121581121Y-110112521D01*
X121485400Y-110061356D01*
X121401499Y-109992501D01*
X121332644Y-109908600D01*
X121281479Y-109812879D01*
X121249973Y-109709015D01*
X121239334Y-109601000D01*
X121249973Y-109492985D01*
X121281479Y-109389121D01*
X121332644Y-109293400D01*
X121401499Y-109209499D01*
X121485400Y-109140644D01*
X121581121Y-109089479D01*
X121593858Y-109085615D01*
X121616493Y-109076240D01*
X121636867Y-109062626D01*
X121654194Y-109045299D01*
X121667808Y-109024924D01*
X121677186Y-109002285D01*
X121681966Y-108978252D01*
X121681966Y-108953748D01*
X121677185Y-108929714D01*
X121667808Y-108907075D01*
X121654194Y-108886701D01*
X121636867Y-108869374D01*
X121616492Y-108855760D01*
X121593858Y-108846385D01*
X121581121Y-108842521D01*
X121485400Y-108791356D01*
X121401499Y-108722501D01*
X121332644Y-108638600D01*
X121281479Y-108542879D01*
X121249973Y-108439015D01*
X121239334Y-108331000D01*
X121249973Y-108222985D01*
X121281479Y-108119121D01*
X121332644Y-108023400D01*
X121401499Y-107939499D01*
X121485400Y-107870644D01*
X121529195Y-107847234D01*
X121549561Y-107833626D01*
X121566889Y-107816299D01*
X121580502Y-107795924D01*
X121589880Y-107773285D01*
X121594660Y-107749252D01*
X121594660Y-107724748D01*
X121589879Y-107700714D01*
X121580502Y-107678075D01*
X121566888Y-107657701D01*
X121549561Y-107640373D01*
X121529186Y-107626760D01*
X121506547Y-107617382D01*
X121470262Y-107612000D01*
X121242000Y-107612000D01*
X121242000Y-106510000D01*
X122344000Y-106510000D01*
X122344000Y-107612000D01*
X122344000Y-107612000D01*
G37*
G36*
X137901938Y-108724716D02*
X137922556Y-108730970D01*
X137941556Y-108741126D01*
X137958208Y-108754792D01*
X137971874Y-108771444D01*
X137982030Y-108790444D01*
X137988284Y-108811062D01*
X137991000Y-108838640D01*
X137991000Y-109347360D01*
X137988284Y-109374938D01*
X137982030Y-109395556D01*
X137971874Y-109414556D01*
X137958208Y-109431208D01*
X137941556Y-109444874D01*
X137922556Y-109455030D01*
X137901938Y-109461284D01*
X137874360Y-109464000D01*
X137415640Y-109464000D01*
X137388062Y-109461284D01*
X137367444Y-109455030D01*
X137348444Y-109444874D01*
X137331792Y-109431208D01*
X137318126Y-109414556D01*
X137307970Y-109395556D01*
X137301716Y-109374938D01*
X137299000Y-109347360D01*
X137299000Y-108838640D01*
X137301716Y-108811062D01*
X137307970Y-108790444D01*
X137318126Y-108771444D01*
X137331792Y-108754792D01*
X137348444Y-108741126D01*
X137367444Y-108730970D01*
X137388062Y-108724716D01*
X137415640Y-108722000D01*
X137874360Y-108722000D01*
X137901938Y-108724716D01*
X137901938Y-108724716D01*
G37*
G36*
X136931938Y-108724716D02*
X136952556Y-108730970D01*
X136971556Y-108741126D01*
X136988208Y-108754792D01*
X137001874Y-108771444D01*
X137012030Y-108790444D01*
X137018284Y-108811062D01*
X137021000Y-108838640D01*
X137021000Y-109347360D01*
X137018284Y-109374938D01*
X137012030Y-109395556D01*
X137001874Y-109414556D01*
X136988208Y-109431208D01*
X136971556Y-109444874D01*
X136952556Y-109455030D01*
X136931938Y-109461284D01*
X136904360Y-109464000D01*
X136445640Y-109464000D01*
X136418062Y-109461284D01*
X136397444Y-109455030D01*
X136378444Y-109444874D01*
X136361792Y-109431208D01*
X136348126Y-109414556D01*
X136337970Y-109395556D01*
X136331716Y-109374938D01*
X136329000Y-109347360D01*
X136329000Y-108838640D01*
X136331716Y-108811062D01*
X136337970Y-108790444D01*
X136348126Y-108771444D01*
X136361792Y-108754792D01*
X136378444Y-108741126D01*
X136397444Y-108730970D01*
X136418062Y-108724716D01*
X136445640Y-108722000D01*
X136904360Y-108722000D01*
X136931938Y-108724716D01*
X136931938Y-108724716D01*
G37*
G36*
X141028512Y-107327118D02*
X141094697Y-107333637D01*
X141207923Y-107367984D01*
X141264537Y-107385157D01*
X141403157Y-107459252D01*
X141421061Y-107468822D01*
X141456799Y-107498152D01*
X141558256Y-107581414D01*
X141613403Y-107648612D01*
X141670848Y-107718609D01*
X141670849Y-107718611D01*
X141754513Y-107875133D01*
X141754513Y-107875134D01*
X141806033Y-108044973D01*
X141823429Y-108221600D01*
X141806033Y-108398227D01*
X141793660Y-108439015D01*
X141754513Y-108568067D01*
X141716812Y-108638600D01*
X141670848Y-108724591D01*
X141641518Y-108760329D01*
X141558256Y-108861786D01*
X141475484Y-108929714D01*
X141421061Y-108974378D01*
X141421059Y-108974379D01*
X141264537Y-109058043D01*
X141207923Y-109075216D01*
X141094697Y-109109563D01*
X141028513Y-109116081D01*
X140962330Y-109122600D01*
X140873810Y-109122600D01*
X140807627Y-109116081D01*
X140741443Y-109109563D01*
X140628217Y-109075216D01*
X140571603Y-109058043D01*
X140415081Y-108974379D01*
X140415079Y-108974378D01*
X140360656Y-108929714D01*
X140277884Y-108861786D01*
X140194622Y-108760329D01*
X140165292Y-108724591D01*
X140119328Y-108638600D01*
X140081627Y-108568067D01*
X140042480Y-108439015D01*
X140030107Y-108398227D01*
X140012711Y-108221600D01*
X140030107Y-108044973D01*
X140081627Y-107875134D01*
X140081627Y-107875133D01*
X140165291Y-107718611D01*
X140165292Y-107718609D01*
X140222737Y-107648612D01*
X140277884Y-107581414D01*
X140379341Y-107498152D01*
X140415079Y-107468822D01*
X140432983Y-107459252D01*
X140571603Y-107385157D01*
X140628217Y-107367984D01*
X140741443Y-107333637D01*
X140807628Y-107327118D01*
X140873810Y-107320600D01*
X140962330Y-107320600D01*
X141028512Y-107327118D01*
X141028512Y-107327118D01*
G37*
G36*
X114328642Y-107327118D02*
X114394827Y-107333637D01*
X114508053Y-107367984D01*
X114564667Y-107385157D01*
X114703287Y-107459252D01*
X114721191Y-107468822D01*
X114756929Y-107498152D01*
X114858386Y-107581414D01*
X114913533Y-107648612D01*
X114970978Y-107718609D01*
X114970979Y-107718611D01*
X115054643Y-107875133D01*
X115054643Y-107875134D01*
X115106163Y-108044973D01*
X115123559Y-108221600D01*
X115106163Y-108398227D01*
X115093790Y-108439015D01*
X115054643Y-108568067D01*
X115016942Y-108638600D01*
X114970978Y-108724591D01*
X114941648Y-108760329D01*
X114858386Y-108861786D01*
X114775614Y-108929714D01*
X114721191Y-108974378D01*
X114721189Y-108974379D01*
X114564667Y-109058043D01*
X114508053Y-109075216D01*
X114394827Y-109109563D01*
X114328643Y-109116081D01*
X114262460Y-109122600D01*
X114173940Y-109122600D01*
X114107757Y-109116081D01*
X114041573Y-109109563D01*
X113928347Y-109075216D01*
X113871733Y-109058043D01*
X113715211Y-108974379D01*
X113715209Y-108974378D01*
X113660786Y-108929714D01*
X113578014Y-108861786D01*
X113494752Y-108760329D01*
X113465422Y-108724591D01*
X113419458Y-108638600D01*
X113381757Y-108568067D01*
X113342610Y-108439015D01*
X113330237Y-108398227D01*
X113312841Y-108221600D01*
X113330237Y-108044973D01*
X113381757Y-107875134D01*
X113381757Y-107875133D01*
X113465421Y-107718611D01*
X113465422Y-107718609D01*
X113522867Y-107648612D01*
X113578014Y-107581414D01*
X113679471Y-107498152D01*
X113715209Y-107468822D01*
X113733113Y-107459252D01*
X113871733Y-107385157D01*
X113928347Y-107367984D01*
X114041573Y-107333637D01*
X114107758Y-107327118D01*
X114173940Y-107320600D01*
X114262460Y-107320600D01*
X114328642Y-107327118D01*
X114328642Y-107327118D01*
G37*
G36*
X138119000Y-108181000D02*
X137217000Y-108181000D01*
X137217000Y-107179000D01*
X138119000Y-107179000D01*
X138119000Y-108181000D01*
X138119000Y-108181000D01*
G37*
G36*
X114328643Y-104787119D02*
X114394827Y-104793637D01*
X114508053Y-104827984D01*
X114564667Y-104845157D01*
X114703287Y-104919252D01*
X114721191Y-104928822D01*
X114756929Y-104958152D01*
X114858386Y-105041414D01*
X114941648Y-105142871D01*
X114970978Y-105178609D01*
X114970979Y-105178611D01*
X115054643Y-105335133D01*
X115054643Y-105335134D01*
X115106163Y-105504973D01*
X115123559Y-105681600D01*
X115106163Y-105858227D01*
X115071816Y-105971453D01*
X115054643Y-106028067D01*
X114980548Y-106166687D01*
X114970978Y-106184591D01*
X114941648Y-106220329D01*
X114858386Y-106321786D01*
X114756929Y-106405048D01*
X114721191Y-106434378D01*
X114721189Y-106434379D01*
X114564667Y-106518043D01*
X114508053Y-106535216D01*
X114394827Y-106569563D01*
X114328642Y-106576082D01*
X114262460Y-106582600D01*
X114173940Y-106582600D01*
X114107758Y-106576082D01*
X114041573Y-106569563D01*
X113928347Y-106535216D01*
X113871733Y-106518043D01*
X113715211Y-106434379D01*
X113715209Y-106434378D01*
X113679471Y-106405048D01*
X113578014Y-106321786D01*
X113494752Y-106220329D01*
X113465422Y-106184591D01*
X113455852Y-106166687D01*
X113381757Y-106028067D01*
X113364584Y-105971453D01*
X113330237Y-105858227D01*
X113312841Y-105681600D01*
X113330237Y-105504973D01*
X113381757Y-105335134D01*
X113381757Y-105335133D01*
X113465421Y-105178611D01*
X113465422Y-105178609D01*
X113494752Y-105142871D01*
X113578014Y-105041414D01*
X113679471Y-104958152D01*
X113715209Y-104928822D01*
X113733113Y-104919252D01*
X113871733Y-104845157D01*
X113928347Y-104827984D01*
X114041573Y-104793637D01*
X114107757Y-104787119D01*
X114173940Y-104780600D01*
X114262460Y-104780600D01*
X114328643Y-104787119D01*
X114328643Y-104787119D01*
G37*
G36*
X141028513Y-104787119D02*
X141094697Y-104793637D01*
X141207923Y-104827984D01*
X141264537Y-104845157D01*
X141403157Y-104919252D01*
X141421061Y-104928822D01*
X141456799Y-104958152D01*
X141558256Y-105041414D01*
X141641518Y-105142871D01*
X141670848Y-105178609D01*
X141670849Y-105178611D01*
X141754513Y-105335133D01*
X141754513Y-105335134D01*
X141806033Y-105504973D01*
X141823429Y-105681600D01*
X141806033Y-105858227D01*
X141771686Y-105971453D01*
X141754513Y-106028067D01*
X141680418Y-106166687D01*
X141670848Y-106184591D01*
X141641518Y-106220329D01*
X141558256Y-106321786D01*
X141456799Y-106405048D01*
X141421061Y-106434378D01*
X141421059Y-106434379D01*
X141264537Y-106518043D01*
X141207923Y-106535216D01*
X141094697Y-106569563D01*
X141028512Y-106576082D01*
X140962330Y-106582600D01*
X140873810Y-106582600D01*
X140807628Y-106576082D01*
X140741443Y-106569563D01*
X140628217Y-106535216D01*
X140571603Y-106518043D01*
X140415081Y-106434379D01*
X140415079Y-106434378D01*
X140379341Y-106405048D01*
X140277884Y-106321786D01*
X140194622Y-106220329D01*
X140165292Y-106184591D01*
X140155722Y-106166687D01*
X140081627Y-106028067D01*
X140064454Y-105971453D01*
X140030107Y-105858227D01*
X140012711Y-105681600D01*
X140030107Y-105504973D01*
X140081627Y-105335134D01*
X140081627Y-105335133D01*
X140165291Y-105178611D01*
X140165292Y-105178609D01*
X140194622Y-105142871D01*
X140277884Y-105041414D01*
X140379341Y-104958152D01*
X140415079Y-104928822D01*
X140432983Y-104919252D01*
X140571603Y-104845157D01*
X140628217Y-104827984D01*
X140741443Y-104793637D01*
X140807627Y-104787119D01*
X140873810Y-104780600D01*
X140962330Y-104780600D01*
X141028513Y-104787119D01*
X141028513Y-104787119D01*
G37*
G36*
X137169000Y-106181000D02*
X136267000Y-106181000D01*
X136267000Y-105179000D01*
X137169000Y-105179000D01*
X137169000Y-106181000D01*
X137169000Y-106181000D01*
G37*
G36*
X139069000Y-106181000D02*
X138167000Y-106181000D01*
X138167000Y-105179000D01*
X139069000Y-105179000D01*
X139069000Y-106181000D01*
X139069000Y-106181000D01*
G37*
G36*
X141028512Y-102247118D02*
X141094697Y-102253637D01*
X141207923Y-102287984D01*
X141264537Y-102305157D01*
X141403157Y-102379252D01*
X141421061Y-102388822D01*
X141456799Y-102418152D01*
X141558256Y-102501414D01*
X141641518Y-102602871D01*
X141670848Y-102638609D01*
X141670849Y-102638611D01*
X141754513Y-102795133D01*
X141754513Y-102795134D01*
X141806033Y-102964973D01*
X141823429Y-103141600D01*
X141806033Y-103318227D01*
X141771686Y-103431453D01*
X141754513Y-103488067D01*
X141680418Y-103626687D01*
X141670848Y-103644591D01*
X141641518Y-103680329D01*
X141558256Y-103781786D01*
X141456799Y-103865048D01*
X141421061Y-103894378D01*
X141421059Y-103894379D01*
X141264537Y-103978043D01*
X141207923Y-103995216D01*
X141094697Y-104029563D01*
X141028513Y-104036081D01*
X140962330Y-104042600D01*
X140873810Y-104042600D01*
X140807628Y-104036082D01*
X140741443Y-104029563D01*
X140628217Y-103995216D01*
X140571603Y-103978043D01*
X140415081Y-103894379D01*
X140415079Y-103894378D01*
X140379341Y-103865048D01*
X140277884Y-103781786D01*
X140194622Y-103680329D01*
X140165292Y-103644591D01*
X140155722Y-103626687D01*
X140081627Y-103488067D01*
X140064454Y-103431453D01*
X140030107Y-103318227D01*
X140012711Y-103141600D01*
X140030107Y-102964973D01*
X140081627Y-102795134D01*
X140081627Y-102795133D01*
X140165291Y-102638611D01*
X140165292Y-102638609D01*
X140194622Y-102602871D01*
X140277884Y-102501414D01*
X140379341Y-102418152D01*
X140415079Y-102388822D01*
X140432983Y-102379252D01*
X140571603Y-102305157D01*
X140628217Y-102287984D01*
X140741443Y-102253637D01*
X140807628Y-102247118D01*
X140873810Y-102240600D01*
X140962330Y-102240600D01*
X141028512Y-102247118D01*
X141028512Y-102247118D01*
G37*
G36*
X114328642Y-102247118D02*
X114394827Y-102253637D01*
X114508053Y-102287984D01*
X114564667Y-102305157D01*
X114703287Y-102379252D01*
X114721191Y-102388822D01*
X114756929Y-102418152D01*
X114858386Y-102501414D01*
X114941648Y-102602871D01*
X114970978Y-102638609D01*
X114970979Y-102638611D01*
X115054643Y-102795133D01*
X115054643Y-102795134D01*
X115106163Y-102964973D01*
X115123559Y-103141600D01*
X115106163Y-103318227D01*
X115071816Y-103431453D01*
X115054643Y-103488067D01*
X114980548Y-103626687D01*
X114970978Y-103644591D01*
X114941648Y-103680329D01*
X114858386Y-103781786D01*
X114756929Y-103865048D01*
X114721191Y-103894378D01*
X114721189Y-103894379D01*
X114564667Y-103978043D01*
X114508053Y-103995216D01*
X114394827Y-104029563D01*
X114328643Y-104036081D01*
X114262460Y-104042600D01*
X114173940Y-104042600D01*
X114107758Y-104036082D01*
X114041573Y-104029563D01*
X113928347Y-103995216D01*
X113871733Y-103978043D01*
X113715211Y-103894379D01*
X113715209Y-103894378D01*
X113679471Y-103865048D01*
X113578014Y-103781786D01*
X113494752Y-103680329D01*
X113465422Y-103644591D01*
X113455852Y-103626687D01*
X113381757Y-103488067D01*
X113364584Y-103431453D01*
X113330237Y-103318227D01*
X113312841Y-103141600D01*
X113330237Y-102964973D01*
X113381757Y-102795134D01*
X113381757Y-102795133D01*
X113465421Y-102638611D01*
X113465422Y-102638609D01*
X113494752Y-102602871D01*
X113578014Y-102501414D01*
X113679471Y-102418152D01*
X113715209Y-102388822D01*
X113733113Y-102379252D01*
X113871733Y-102305157D01*
X113928347Y-102287984D01*
X114041573Y-102253637D01*
X114107758Y-102247118D01*
X114173940Y-102240600D01*
X114262460Y-102240600D01*
X114328642Y-102247118D01*
X114328642Y-102247118D01*
G37*
G36*
X141028512Y-99707118D02*
X141094697Y-99713637D01*
X141207923Y-99747984D01*
X141264537Y-99765157D01*
X141403157Y-99839252D01*
X141421061Y-99848822D01*
X141456799Y-99878152D01*
X141558256Y-99961414D01*
X141641518Y-100062871D01*
X141670848Y-100098609D01*
X141670849Y-100098611D01*
X141754513Y-100255133D01*
X141754513Y-100255134D01*
X141806033Y-100424973D01*
X141823429Y-100601600D01*
X141806033Y-100778227D01*
X141771686Y-100891453D01*
X141754513Y-100948067D01*
X141680418Y-101086687D01*
X141670848Y-101104591D01*
X141641518Y-101140329D01*
X141558256Y-101241786D01*
X141456799Y-101325048D01*
X141421061Y-101354378D01*
X141421059Y-101354379D01*
X141264537Y-101438043D01*
X141207923Y-101455216D01*
X141094697Y-101489563D01*
X141028513Y-101496081D01*
X140962330Y-101502600D01*
X140873810Y-101502600D01*
X140807627Y-101496081D01*
X140741443Y-101489563D01*
X140628217Y-101455216D01*
X140571603Y-101438043D01*
X140415081Y-101354379D01*
X140415079Y-101354378D01*
X140379341Y-101325048D01*
X140277884Y-101241786D01*
X140194622Y-101140329D01*
X140165292Y-101104591D01*
X140155722Y-101086687D01*
X140081627Y-100948067D01*
X140064454Y-100891453D01*
X140030107Y-100778227D01*
X140012711Y-100601600D01*
X140030107Y-100424973D01*
X140081627Y-100255134D01*
X140081627Y-100255133D01*
X140165291Y-100098611D01*
X140165292Y-100098609D01*
X140194622Y-100062871D01*
X140277884Y-99961414D01*
X140379341Y-99878152D01*
X140415079Y-99848822D01*
X140432983Y-99839252D01*
X140571603Y-99765157D01*
X140628217Y-99747984D01*
X140741443Y-99713637D01*
X140807628Y-99707118D01*
X140873810Y-99700600D01*
X140962330Y-99700600D01*
X141028512Y-99707118D01*
X141028512Y-99707118D01*
G37*
G36*
X114328642Y-99707118D02*
X114394827Y-99713637D01*
X114508053Y-99747984D01*
X114564667Y-99765157D01*
X114703287Y-99839252D01*
X114721191Y-99848822D01*
X114756929Y-99878152D01*
X114858386Y-99961414D01*
X114941648Y-100062871D01*
X114970978Y-100098609D01*
X114970979Y-100098611D01*
X115054643Y-100255133D01*
X115054643Y-100255134D01*
X115106163Y-100424973D01*
X115123559Y-100601600D01*
X115106163Y-100778227D01*
X115071816Y-100891453D01*
X115054643Y-100948067D01*
X114980548Y-101086687D01*
X114970978Y-101104591D01*
X114941648Y-101140329D01*
X114858386Y-101241786D01*
X114756929Y-101325048D01*
X114721191Y-101354378D01*
X114721189Y-101354379D01*
X114564667Y-101438043D01*
X114508053Y-101455216D01*
X114394827Y-101489563D01*
X114328643Y-101496081D01*
X114262460Y-101502600D01*
X114173940Y-101502600D01*
X114107757Y-101496081D01*
X114041573Y-101489563D01*
X113928347Y-101455216D01*
X113871733Y-101438043D01*
X113715211Y-101354379D01*
X113715209Y-101354378D01*
X113679471Y-101325048D01*
X113578014Y-101241786D01*
X113494752Y-101140329D01*
X113465422Y-101104591D01*
X113455852Y-101086687D01*
X113381757Y-100948067D01*
X113364584Y-100891453D01*
X113330237Y-100778227D01*
X113312841Y-100601600D01*
X113330237Y-100424973D01*
X113381757Y-100255134D01*
X113381757Y-100255133D01*
X113465421Y-100098611D01*
X113465422Y-100098609D01*
X113494752Y-100062871D01*
X113578014Y-99961414D01*
X113679471Y-99878152D01*
X113715209Y-99848822D01*
X113733113Y-99839252D01*
X113871733Y-99765157D01*
X113928347Y-99747984D01*
X114041573Y-99713637D01*
X114107758Y-99707118D01*
X114173940Y-99700600D01*
X114262460Y-99700600D01*
X114328642Y-99707118D01*
X114328642Y-99707118D01*
G37*
G36*
X141028512Y-97167118D02*
X141094697Y-97173637D01*
X141207923Y-97207984D01*
X141264537Y-97225157D01*
X141403157Y-97299252D01*
X141421061Y-97308822D01*
X141456799Y-97338152D01*
X141558256Y-97421414D01*
X141641518Y-97522871D01*
X141670848Y-97558609D01*
X141670849Y-97558611D01*
X141754513Y-97715133D01*
X141754513Y-97715134D01*
X141806033Y-97884973D01*
X141823429Y-98061600D01*
X141806033Y-98238227D01*
X141771686Y-98351453D01*
X141754513Y-98408067D01*
X141680418Y-98546687D01*
X141670848Y-98564591D01*
X141641518Y-98600329D01*
X141558256Y-98701786D01*
X141456799Y-98785048D01*
X141421061Y-98814378D01*
X141421059Y-98814379D01*
X141264537Y-98898043D01*
X141207923Y-98915216D01*
X141094697Y-98949563D01*
X141028513Y-98956081D01*
X140962330Y-98962600D01*
X140873810Y-98962600D01*
X140807627Y-98956081D01*
X140741443Y-98949563D01*
X140628217Y-98915216D01*
X140571603Y-98898043D01*
X140415081Y-98814379D01*
X140415079Y-98814378D01*
X140379341Y-98785048D01*
X140277884Y-98701786D01*
X140194622Y-98600329D01*
X140165292Y-98564591D01*
X140155722Y-98546687D01*
X140081627Y-98408067D01*
X140064454Y-98351453D01*
X140030107Y-98238227D01*
X140012711Y-98061600D01*
X140030107Y-97884973D01*
X140081627Y-97715134D01*
X140081627Y-97715133D01*
X140165291Y-97558611D01*
X140165292Y-97558609D01*
X140194622Y-97522871D01*
X140277884Y-97421414D01*
X140379341Y-97338152D01*
X140415079Y-97308822D01*
X140432983Y-97299252D01*
X140571603Y-97225157D01*
X140628217Y-97207984D01*
X140741443Y-97173637D01*
X140807628Y-97167118D01*
X140873810Y-97160600D01*
X140962330Y-97160600D01*
X141028512Y-97167118D01*
X141028512Y-97167118D01*
G37*
G36*
X114328642Y-97167118D02*
X114394827Y-97173637D01*
X114508053Y-97207984D01*
X114564667Y-97225157D01*
X114703287Y-97299252D01*
X114721191Y-97308822D01*
X114756929Y-97338152D01*
X114858386Y-97421414D01*
X114941648Y-97522871D01*
X114970978Y-97558609D01*
X114970979Y-97558611D01*
X115054643Y-97715133D01*
X115054643Y-97715134D01*
X115106163Y-97884973D01*
X115123559Y-98061600D01*
X115106163Y-98238227D01*
X115071816Y-98351453D01*
X115054643Y-98408067D01*
X114980548Y-98546687D01*
X114970978Y-98564591D01*
X114941648Y-98600329D01*
X114858386Y-98701786D01*
X114756929Y-98785048D01*
X114721191Y-98814378D01*
X114721189Y-98814379D01*
X114564667Y-98898043D01*
X114508053Y-98915216D01*
X114394827Y-98949563D01*
X114328643Y-98956081D01*
X114262460Y-98962600D01*
X114173940Y-98962600D01*
X114107757Y-98956081D01*
X114041573Y-98949563D01*
X113928347Y-98915216D01*
X113871733Y-98898043D01*
X113715211Y-98814379D01*
X113715209Y-98814378D01*
X113679471Y-98785048D01*
X113578014Y-98701786D01*
X113494752Y-98600329D01*
X113465422Y-98564591D01*
X113455852Y-98546687D01*
X113381757Y-98408067D01*
X113364584Y-98351453D01*
X113330237Y-98238227D01*
X113312841Y-98061600D01*
X113330237Y-97884973D01*
X113381757Y-97715134D01*
X113381757Y-97715133D01*
X113465421Y-97558611D01*
X113465422Y-97558609D01*
X113494752Y-97522871D01*
X113578014Y-97421414D01*
X113679471Y-97338152D01*
X113715209Y-97308822D01*
X113733113Y-97299252D01*
X113871733Y-97225157D01*
X113928347Y-97207984D01*
X114041573Y-97173637D01*
X114107758Y-97167118D01*
X114173940Y-97160600D01*
X114262460Y-97160600D01*
X114328642Y-97167118D01*
X114328642Y-97167118D01*
G37*
G36*
X138455938Y-95897716D02*
X138476556Y-95903970D01*
X138495556Y-95914126D01*
X138512208Y-95927792D01*
X138525874Y-95944444D01*
X138536030Y-95963444D01*
X138542284Y-95984062D01*
X138545000Y-96011640D01*
X138545000Y-96520360D01*
X138542284Y-96547938D01*
X138536030Y-96568556D01*
X138525874Y-96587556D01*
X138512208Y-96604208D01*
X138495556Y-96617874D01*
X138476556Y-96628030D01*
X138455938Y-96634284D01*
X138428360Y-96637000D01*
X137969640Y-96637000D01*
X137942062Y-96634284D01*
X137921444Y-96628030D01*
X137902444Y-96617874D01*
X137885792Y-96604208D01*
X137872126Y-96587556D01*
X137861970Y-96568556D01*
X137855716Y-96547938D01*
X137853000Y-96520360D01*
X137853000Y-96011640D01*
X137855716Y-95984062D01*
X137861970Y-95963444D01*
X137872126Y-95944444D01*
X137885792Y-95927792D01*
X137902444Y-95914126D01*
X137921444Y-95903970D01*
X137942062Y-95897716D01*
X137969640Y-95895000D01*
X138428360Y-95895000D01*
X138455938Y-95897716D01*
X138455938Y-95897716D01*
G37*
G36*
X139425938Y-95897716D02*
X139446556Y-95903970D01*
X139465556Y-95914126D01*
X139482208Y-95927792D01*
X139495874Y-95944444D01*
X139506030Y-95963444D01*
X139512284Y-95984062D01*
X139515000Y-96011640D01*
X139515000Y-96520360D01*
X139512284Y-96547938D01*
X139506030Y-96568556D01*
X139495874Y-96587556D01*
X139482208Y-96604208D01*
X139465556Y-96617874D01*
X139446556Y-96628030D01*
X139425938Y-96634284D01*
X139398360Y-96637000D01*
X138939640Y-96637000D01*
X138912062Y-96634284D01*
X138891444Y-96628030D01*
X138872444Y-96617874D01*
X138855792Y-96604208D01*
X138842126Y-96587556D01*
X138831970Y-96568556D01*
X138825716Y-96547938D01*
X138823000Y-96520360D01*
X138823000Y-96011640D01*
X138825716Y-95984062D01*
X138831970Y-95963444D01*
X138842126Y-95944444D01*
X138855792Y-95927792D01*
X138872444Y-95914126D01*
X138891444Y-95903970D01*
X138912062Y-95897716D01*
X138939640Y-95895000D01*
X139398360Y-95895000D01*
X139425938Y-95897716D01*
X139425938Y-95897716D01*
G37*
G36*
X114327439Y-94627000D02*
X114394827Y-94633637D01*
X114508053Y-94667984D01*
X114564667Y-94685157D01*
X114674079Y-94743640D01*
X114721191Y-94768822D01*
X114756929Y-94798152D01*
X114858386Y-94881414D01*
X114929495Y-94968062D01*
X114970978Y-95018609D01*
X114970979Y-95018611D01*
X115054643Y-95175133D01*
X115054643Y-95175134D01*
X115106163Y-95344973D01*
X115123559Y-95521600D01*
X115106163Y-95698227D01*
X115071816Y-95811453D01*
X115054643Y-95868067D01*
X115024662Y-95924156D01*
X114970978Y-96024591D01*
X114941648Y-96060329D01*
X114858386Y-96161786D01*
X114756929Y-96245048D01*
X114721191Y-96274378D01*
X114721189Y-96274379D01*
X114564667Y-96358043D01*
X114508053Y-96375216D01*
X114394827Y-96409563D01*
X114328642Y-96416082D01*
X114262460Y-96422600D01*
X114173940Y-96422600D01*
X114107758Y-96416082D01*
X114041573Y-96409563D01*
X113928347Y-96375216D01*
X113871733Y-96358043D01*
X113715211Y-96274379D01*
X113715209Y-96274378D01*
X113679471Y-96245048D01*
X113578014Y-96161786D01*
X113494752Y-96060329D01*
X113465422Y-96024591D01*
X113411738Y-95924156D01*
X113381757Y-95868067D01*
X113364584Y-95811453D01*
X113330237Y-95698227D01*
X113312841Y-95521600D01*
X113330237Y-95344973D01*
X113381757Y-95175134D01*
X113381757Y-95175133D01*
X113465421Y-95018611D01*
X113465422Y-95018609D01*
X113506905Y-94968062D01*
X113578014Y-94881414D01*
X113679471Y-94798152D01*
X113715209Y-94768822D01*
X113762321Y-94743640D01*
X113871733Y-94685157D01*
X113928347Y-94667984D01*
X114041573Y-94633637D01*
X114108961Y-94627000D01*
X114173940Y-94620600D01*
X114262460Y-94620600D01*
X114327439Y-94627000D01*
X114327439Y-94627000D01*
G37*
G36*
X141027309Y-94627000D02*
X141094697Y-94633637D01*
X141207923Y-94667984D01*
X141264537Y-94685157D01*
X141373949Y-94743640D01*
X141421061Y-94768822D01*
X141456799Y-94798152D01*
X141558256Y-94881414D01*
X141629365Y-94968062D01*
X141670848Y-95018609D01*
X141670849Y-95018611D01*
X141754513Y-95175133D01*
X141754513Y-95175134D01*
X141806033Y-95344973D01*
X141823429Y-95521600D01*
X141806033Y-95698227D01*
X141771686Y-95811453D01*
X141754513Y-95868067D01*
X141724532Y-95924156D01*
X141670848Y-96024591D01*
X141641518Y-96060329D01*
X141558256Y-96161786D01*
X141456799Y-96245048D01*
X141421061Y-96274378D01*
X141421059Y-96274379D01*
X141264537Y-96358043D01*
X141207923Y-96375216D01*
X141094697Y-96409563D01*
X141028512Y-96416082D01*
X140962330Y-96422600D01*
X140873810Y-96422600D01*
X140807628Y-96416082D01*
X140741443Y-96409563D01*
X140628217Y-96375216D01*
X140571603Y-96358043D01*
X140415081Y-96274379D01*
X140415079Y-96274378D01*
X140379341Y-96245048D01*
X140277884Y-96161786D01*
X140194622Y-96060329D01*
X140165292Y-96024591D01*
X140111608Y-95924156D01*
X140081627Y-95868067D01*
X140064454Y-95811453D01*
X140030107Y-95698227D01*
X140012711Y-95521600D01*
X140030107Y-95344973D01*
X140081627Y-95175134D01*
X140081627Y-95175133D01*
X140165291Y-95018611D01*
X140165292Y-95018609D01*
X140206775Y-94968062D01*
X140277884Y-94881414D01*
X140379341Y-94798152D01*
X140415079Y-94768822D01*
X140462191Y-94743640D01*
X140571603Y-94685157D01*
X140628217Y-94667984D01*
X140741443Y-94633637D01*
X140808831Y-94627000D01*
X140873810Y-94620600D01*
X140962330Y-94620600D01*
X141027309Y-94627000D01*
X141027309Y-94627000D01*
G37*
G36*
X139425938Y-94881716D02*
X139446556Y-94887970D01*
X139465556Y-94898126D01*
X139482208Y-94911792D01*
X139495874Y-94928444D01*
X139506030Y-94947444D01*
X139512284Y-94968062D01*
X139515000Y-94995640D01*
X139515000Y-95504360D01*
X139512284Y-95531938D01*
X139506030Y-95552556D01*
X139495874Y-95571556D01*
X139482208Y-95588208D01*
X139465556Y-95601874D01*
X139446556Y-95612030D01*
X139425938Y-95618284D01*
X139398360Y-95621000D01*
X138939640Y-95621000D01*
X138912062Y-95618284D01*
X138891444Y-95612030D01*
X138872444Y-95601874D01*
X138855792Y-95588208D01*
X138842126Y-95571556D01*
X138831970Y-95552556D01*
X138825716Y-95531938D01*
X138823000Y-95504360D01*
X138823000Y-94995640D01*
X138825716Y-94968062D01*
X138831970Y-94947444D01*
X138842126Y-94928444D01*
X138855792Y-94911792D01*
X138872444Y-94898126D01*
X138891444Y-94887970D01*
X138912062Y-94881716D01*
X138939640Y-94879000D01*
X139398360Y-94879000D01*
X139425938Y-94881716D01*
X139425938Y-94881716D01*
G37*
G36*
X138455938Y-94881716D02*
X138476556Y-94887970D01*
X138495556Y-94898126D01*
X138512208Y-94911792D01*
X138525874Y-94928444D01*
X138536030Y-94947444D01*
X138542284Y-94968062D01*
X138545000Y-94995640D01*
X138545000Y-95504360D01*
X138542284Y-95531938D01*
X138536030Y-95552556D01*
X138525874Y-95571556D01*
X138512208Y-95588208D01*
X138495556Y-95601874D01*
X138476556Y-95612030D01*
X138455938Y-95618284D01*
X138428360Y-95621000D01*
X137969640Y-95621000D01*
X137942062Y-95618284D01*
X137921444Y-95612030D01*
X137902444Y-95601874D01*
X137885792Y-95588208D01*
X137872126Y-95571556D01*
X137861970Y-95552556D01*
X137855716Y-95531938D01*
X137853000Y-95504360D01*
X137853000Y-94995640D01*
X137855716Y-94968062D01*
X137861970Y-94947444D01*
X137872126Y-94928444D01*
X137885792Y-94911792D01*
X137902444Y-94898126D01*
X137921444Y-94887970D01*
X137942062Y-94881716D01*
X137969640Y-94879000D01*
X138428360Y-94879000D01*
X138455938Y-94881716D01*
X138455938Y-94881716D01*
G37*
G36*
X130075938Y-94629716D02*
X130096556Y-94635970D01*
X130115556Y-94646126D01*
X130132208Y-94659792D01*
X130145874Y-94676444D01*
X130156030Y-94695444D01*
X130162284Y-94716062D01*
X130165000Y-94743640D01*
X130165000Y-95202360D01*
X130162284Y-95229938D01*
X130156030Y-95250556D01*
X130145874Y-95269556D01*
X130132208Y-95286208D01*
X130115556Y-95299874D01*
X130096556Y-95310030D01*
X130075938Y-95316284D01*
X130048360Y-95319000D01*
X129539640Y-95319000D01*
X129512062Y-95316284D01*
X129491444Y-95310030D01*
X129472444Y-95299874D01*
X129455792Y-95286208D01*
X129442126Y-95269556D01*
X129431970Y-95250556D01*
X129425716Y-95229938D01*
X129423000Y-95202360D01*
X129423000Y-94743640D01*
X129425716Y-94716062D01*
X129431970Y-94695444D01*
X129442126Y-94676444D01*
X129455792Y-94659792D01*
X129472444Y-94646126D01*
X129491444Y-94635970D01*
X129512062Y-94629716D01*
X129539640Y-94627000D01*
X130048360Y-94627000D01*
X130075938Y-94629716D01*
X130075938Y-94629716D01*
G37*
G36*
X129059938Y-94629716D02*
X129080556Y-94635970D01*
X129099556Y-94646126D01*
X129116208Y-94659792D01*
X129129874Y-94676444D01*
X129140030Y-94695444D01*
X129146284Y-94716062D01*
X129149000Y-94743640D01*
X129149000Y-95202360D01*
X129146284Y-95229938D01*
X129140030Y-95250556D01*
X129129874Y-95269556D01*
X129116208Y-95286208D01*
X129099556Y-95299874D01*
X129080556Y-95310030D01*
X129059938Y-95316284D01*
X129032360Y-95319000D01*
X128523640Y-95319000D01*
X128496062Y-95316284D01*
X128475444Y-95310030D01*
X128456444Y-95299874D01*
X128439792Y-95286208D01*
X128426126Y-95269556D01*
X128415970Y-95250556D01*
X128409716Y-95229938D01*
X128407000Y-95202360D01*
X128407000Y-94743640D01*
X128409716Y-94716062D01*
X128415970Y-94695444D01*
X128426126Y-94676444D01*
X128439792Y-94659792D01*
X128456444Y-94646126D01*
X128475444Y-94635970D01*
X128496062Y-94629716D01*
X128523640Y-94627000D01*
X129032360Y-94627000D01*
X129059938Y-94629716D01*
X129059938Y-94629716D01*
G37*
G36*
X130075938Y-93659716D02*
X130096556Y-93665970D01*
X130115556Y-93676126D01*
X130132208Y-93689792D01*
X130145874Y-93706444D01*
X130156030Y-93725444D01*
X130162284Y-93746062D01*
X130165000Y-93773640D01*
X130165000Y-94232360D01*
X130162284Y-94259938D01*
X130156030Y-94280556D01*
X130145874Y-94299556D01*
X130132208Y-94316208D01*
X130115556Y-94329874D01*
X130096556Y-94340030D01*
X130075938Y-94346284D01*
X130048360Y-94349000D01*
X129539640Y-94349000D01*
X129512062Y-94346284D01*
X129491444Y-94340030D01*
X129472444Y-94329874D01*
X129455792Y-94316208D01*
X129442126Y-94299556D01*
X129431970Y-94280556D01*
X129425716Y-94259938D01*
X129423000Y-94232360D01*
X129423000Y-93773640D01*
X129425716Y-93746062D01*
X129431970Y-93725444D01*
X129442126Y-93706444D01*
X129455792Y-93689792D01*
X129472444Y-93676126D01*
X129491444Y-93665970D01*
X129512062Y-93659716D01*
X129539640Y-93657000D01*
X130048360Y-93657000D01*
X130075938Y-93659716D01*
X130075938Y-93659716D01*
G37*
G36*
X129059938Y-93659716D02*
X129080556Y-93665970D01*
X129099556Y-93676126D01*
X129116208Y-93689792D01*
X129129874Y-93706444D01*
X129140030Y-93725444D01*
X129146284Y-93746062D01*
X129149000Y-93773640D01*
X129149000Y-94232360D01*
X129146284Y-94259938D01*
X129140030Y-94280556D01*
X129129874Y-94299556D01*
X129116208Y-94316208D01*
X129099556Y-94329874D01*
X129080556Y-94340030D01*
X129059938Y-94346284D01*
X129032360Y-94349000D01*
X128523640Y-94349000D01*
X128496062Y-94346284D01*
X128475444Y-94340030D01*
X128456444Y-94329874D01*
X128439792Y-94316208D01*
X128426126Y-94299556D01*
X128415970Y-94280556D01*
X128409716Y-94259938D01*
X128407000Y-94232360D01*
X128407000Y-93773640D01*
X128409716Y-93746062D01*
X128415970Y-93725444D01*
X128426126Y-93706444D01*
X128439792Y-93689792D01*
X128456444Y-93676126D01*
X128475444Y-93665970D01*
X128496062Y-93659716D01*
X128523640Y-93657000D01*
X129032360Y-93657000D01*
X129059938Y-93659716D01*
X129059938Y-93659716D01*
G37*
G36*
X141028513Y-92093611D02*
X141094697Y-92100129D01*
X141207923Y-92134476D01*
X141264537Y-92151649D01*
X141403157Y-92225744D01*
X141421061Y-92235314D01*
X141456799Y-92264644D01*
X141558256Y-92347906D01*
X141617808Y-92420472D01*
X141670848Y-92485101D01*
X141670849Y-92485103D01*
X141754513Y-92641625D01*
X141754513Y-92641626D01*
X141806033Y-92811465D01*
X141823429Y-92988092D01*
X141806033Y-93164719D01*
X141771686Y-93277945D01*
X141754513Y-93334559D01*
X141680418Y-93473179D01*
X141670848Y-93491083D01*
X141641518Y-93526821D01*
X141558256Y-93628278D01*
X141463009Y-93706444D01*
X141421061Y-93740870D01*
X141403157Y-93750440D01*
X141264537Y-93824535D01*
X141207923Y-93841708D01*
X141094697Y-93876055D01*
X141028513Y-93882573D01*
X140962330Y-93889092D01*
X140873810Y-93889092D01*
X140807627Y-93882573D01*
X140741443Y-93876055D01*
X140628217Y-93841708D01*
X140571603Y-93824535D01*
X140432983Y-93750440D01*
X140415079Y-93740870D01*
X140373131Y-93706444D01*
X140277884Y-93628278D01*
X140194622Y-93526821D01*
X140165292Y-93491083D01*
X140155722Y-93473179D01*
X140081627Y-93334559D01*
X140064454Y-93277945D01*
X140030107Y-93164719D01*
X140012711Y-92988092D01*
X140030107Y-92811465D01*
X140081627Y-92641626D01*
X140081627Y-92641625D01*
X140165291Y-92485103D01*
X140165292Y-92485101D01*
X140218332Y-92420472D01*
X140277884Y-92347906D01*
X140379341Y-92264644D01*
X140415079Y-92235314D01*
X140432983Y-92225744D01*
X140571603Y-92151649D01*
X140628217Y-92134476D01*
X140741443Y-92100129D01*
X140807627Y-92093611D01*
X140873810Y-92087092D01*
X140962330Y-92087092D01*
X141028513Y-92093611D01*
X141028513Y-92093611D01*
G37*
G36*
X114328373Y-92087092D02*
X114394827Y-92093637D01*
X114508053Y-92127984D01*
X114564667Y-92145157D01*
X114576812Y-92151649D01*
X114721191Y-92228822D01*
X114729100Y-92235313D01*
X114858386Y-92341414D01*
X114923266Y-92420472D01*
X114970978Y-92478609D01*
X114970979Y-92478611D01*
X115054643Y-92635133D01*
X115071816Y-92691747D01*
X115106163Y-92804973D01*
X115123559Y-92981600D01*
X115106163Y-93158227D01*
X115071816Y-93271453D01*
X115054643Y-93328067D01*
X114980548Y-93466687D01*
X114970978Y-93484591D01*
X114965650Y-93491083D01*
X114858386Y-93621786D01*
X114775519Y-93689792D01*
X114721191Y-93734378D01*
X114721189Y-93734379D01*
X114564667Y-93818043D01*
X114543265Y-93824535D01*
X114394827Y-93869563D01*
X114328912Y-93876055D01*
X114262460Y-93882600D01*
X114173940Y-93882600D01*
X114107488Y-93876055D01*
X114041573Y-93869563D01*
X113893135Y-93824535D01*
X113871733Y-93818043D01*
X113715211Y-93734379D01*
X113715209Y-93734378D01*
X113660881Y-93689792D01*
X113578014Y-93621786D01*
X113470750Y-93491083D01*
X113465422Y-93484591D01*
X113455852Y-93466687D01*
X113381757Y-93328067D01*
X113364584Y-93271453D01*
X113330237Y-93158227D01*
X113312841Y-92981600D01*
X113330237Y-92804973D01*
X113364584Y-92691747D01*
X113381757Y-92635133D01*
X113465421Y-92478611D01*
X113465422Y-92478609D01*
X113513134Y-92420472D01*
X113578014Y-92341414D01*
X113707300Y-92235313D01*
X113715209Y-92228822D01*
X113859588Y-92151649D01*
X113871733Y-92145157D01*
X113928347Y-92127984D01*
X114041573Y-92093637D01*
X114108027Y-92087092D01*
X114173940Y-92080600D01*
X114262460Y-92080600D01*
X114328373Y-92087092D01*
X114328373Y-92087092D01*
G37*
G36*
X127190292Y-92297322D02*
X127197311Y-92299451D01*
X127203774Y-92302906D01*
X127209441Y-92307557D01*
X127214092Y-92313224D01*
X127217547Y-92319687D01*
X127219676Y-92326706D01*
X127220601Y-92336098D01*
X127225381Y-92360131D01*
X127234759Y-92382770D01*
X127248373Y-92403145D01*
X127265700Y-92420472D01*
X127286074Y-92434086D01*
X127308713Y-92443463D01*
X127332747Y-92448244D01*
X127357251Y-92448244D01*
X127381284Y-92443464D01*
X127403923Y-92434086D01*
X127424298Y-92420472D01*
X127441625Y-92403145D01*
X127455239Y-92382771D01*
X127464616Y-92360132D01*
X127469397Y-92336098D01*
X127470322Y-92326706D01*
X127472451Y-92319687D01*
X127475906Y-92313224D01*
X127480557Y-92307557D01*
X127486224Y-92302906D01*
X127492687Y-92299451D01*
X127499706Y-92297322D01*
X127513139Y-92295999D01*
X127826859Y-92295999D01*
X127840292Y-92297322D01*
X127847311Y-92299451D01*
X127853774Y-92302906D01*
X127859441Y-92307557D01*
X127864092Y-92313224D01*
X127867547Y-92319687D01*
X127869676Y-92326706D01*
X127870601Y-92336098D01*
X127875381Y-92360131D01*
X127884759Y-92382770D01*
X127898373Y-92403145D01*
X127915700Y-92420472D01*
X127936074Y-92434086D01*
X127958713Y-92443463D01*
X127982747Y-92448244D01*
X128007251Y-92448244D01*
X128031284Y-92443464D01*
X128053923Y-92434086D01*
X128074298Y-92420472D01*
X128091625Y-92403145D01*
X128105239Y-92382771D01*
X128114616Y-92360132D01*
X128119397Y-92336098D01*
X128120322Y-92326706D01*
X128122451Y-92319687D01*
X128125906Y-92313224D01*
X128130557Y-92307557D01*
X128136224Y-92302906D01*
X128142687Y-92299451D01*
X128149706Y-92297322D01*
X128163139Y-92295999D01*
X128476859Y-92295999D01*
X128490292Y-92297322D01*
X128497311Y-92299451D01*
X128503774Y-92302906D01*
X128509441Y-92307557D01*
X128514092Y-92313224D01*
X128517547Y-92319687D01*
X128519676Y-92326706D01*
X128520601Y-92336098D01*
X128525381Y-92360131D01*
X128534759Y-92382770D01*
X128548373Y-92403145D01*
X128565700Y-92420472D01*
X128586074Y-92434086D01*
X128608713Y-92443463D01*
X128632747Y-92448244D01*
X128657251Y-92448244D01*
X128681284Y-92443464D01*
X128703923Y-92434086D01*
X128724298Y-92420472D01*
X128741625Y-92403145D01*
X128755239Y-92382771D01*
X128764616Y-92360132D01*
X128769397Y-92336098D01*
X128770322Y-92326706D01*
X128772451Y-92319687D01*
X128775906Y-92313224D01*
X128780557Y-92307557D01*
X128786224Y-92302906D01*
X128792687Y-92299451D01*
X128799706Y-92297322D01*
X128813139Y-92295999D01*
X129126859Y-92295999D01*
X129140292Y-92297322D01*
X129147311Y-92299451D01*
X129153774Y-92302906D01*
X129159441Y-92307557D01*
X129164092Y-92313224D01*
X129167547Y-92319687D01*
X129169676Y-92326706D01*
X129170601Y-92336098D01*
X129175381Y-92360131D01*
X129184759Y-92382770D01*
X129198373Y-92403145D01*
X129215700Y-92420472D01*
X129236074Y-92434086D01*
X129258713Y-92443463D01*
X129282747Y-92448244D01*
X129307251Y-92448244D01*
X129331284Y-92443464D01*
X129353923Y-92434086D01*
X129374298Y-92420472D01*
X129391625Y-92403145D01*
X129405239Y-92382771D01*
X129414616Y-92360132D01*
X129419397Y-92336098D01*
X129420322Y-92326706D01*
X129422451Y-92319687D01*
X129425906Y-92313224D01*
X129430557Y-92307557D01*
X129436224Y-92302906D01*
X129442687Y-92299451D01*
X129449706Y-92297322D01*
X129463139Y-92295999D01*
X129776859Y-92295999D01*
X129790292Y-92297322D01*
X129797311Y-92299451D01*
X129803774Y-92302906D01*
X129809441Y-92307557D01*
X129814092Y-92313224D01*
X129817547Y-92319687D01*
X129819676Y-92326706D01*
X129820999Y-92340139D01*
X129820999Y-93103859D01*
X129819676Y-93117292D01*
X129817547Y-93124311D01*
X129814092Y-93130774D01*
X129809441Y-93136441D01*
X129803774Y-93141092D01*
X129797311Y-93144547D01*
X129790292Y-93146676D01*
X129776859Y-93147999D01*
X129463139Y-93147999D01*
X129449706Y-93146676D01*
X129442687Y-93144547D01*
X129436224Y-93141092D01*
X129430557Y-93136441D01*
X129425906Y-93130774D01*
X129422451Y-93124311D01*
X129420322Y-93117292D01*
X129419397Y-93107900D01*
X129414617Y-93083867D01*
X129405239Y-93061228D01*
X129391625Y-93040853D01*
X129374298Y-93023526D01*
X129353924Y-93009912D01*
X129331285Y-93000535D01*
X129307251Y-92995754D01*
X129282747Y-92995754D01*
X129258714Y-93000534D01*
X129236075Y-93009912D01*
X129215700Y-93023526D01*
X129198373Y-93040853D01*
X129184759Y-93061227D01*
X129175382Y-93083866D01*
X129170601Y-93107900D01*
X129169676Y-93117292D01*
X129167547Y-93124311D01*
X129164092Y-93130774D01*
X129159441Y-93136441D01*
X129153774Y-93141092D01*
X129147311Y-93144547D01*
X129140292Y-93146676D01*
X129126859Y-93147999D01*
X128813139Y-93147999D01*
X128799706Y-93146676D01*
X128792687Y-93144547D01*
X128786224Y-93141092D01*
X128780557Y-93136441D01*
X128775906Y-93130774D01*
X128772451Y-93124311D01*
X128770322Y-93117292D01*
X128769397Y-93107900D01*
X128764617Y-93083867D01*
X128755239Y-93061228D01*
X128741625Y-93040853D01*
X128724298Y-93023526D01*
X128703924Y-93009912D01*
X128681285Y-93000535D01*
X128657251Y-92995754D01*
X128632747Y-92995754D01*
X128608714Y-93000534D01*
X128586075Y-93009912D01*
X128565700Y-93023526D01*
X128548373Y-93040853D01*
X128534759Y-93061227D01*
X128525382Y-93083866D01*
X128520601Y-93107900D01*
X128519676Y-93117292D01*
X128517547Y-93124311D01*
X128514092Y-93130774D01*
X128509441Y-93136441D01*
X128503774Y-93141092D01*
X128497311Y-93144547D01*
X128490292Y-93146676D01*
X128476859Y-93147999D01*
X128163139Y-93147999D01*
X128149706Y-93146676D01*
X128142687Y-93144547D01*
X128136224Y-93141092D01*
X128130557Y-93136441D01*
X128125906Y-93130774D01*
X128122451Y-93124311D01*
X128120322Y-93117292D01*
X128119397Y-93107900D01*
X128114617Y-93083867D01*
X128105239Y-93061228D01*
X128091625Y-93040853D01*
X128074298Y-93023526D01*
X128053924Y-93009912D01*
X128031285Y-93000535D01*
X128007251Y-92995754D01*
X127982747Y-92995754D01*
X127958714Y-93000534D01*
X127936075Y-93009912D01*
X127915700Y-93023526D01*
X127898373Y-93040853D01*
X127884759Y-93061227D01*
X127875382Y-93083866D01*
X127870601Y-93107900D01*
X127869676Y-93117292D01*
X127867547Y-93124311D01*
X127864092Y-93130774D01*
X127859441Y-93136441D01*
X127853774Y-93141092D01*
X127847311Y-93144547D01*
X127840292Y-93146676D01*
X127826859Y-93147999D01*
X127513139Y-93147999D01*
X127499706Y-93146676D01*
X127492687Y-93144547D01*
X127486224Y-93141092D01*
X127480557Y-93136441D01*
X127475906Y-93130774D01*
X127472451Y-93124311D01*
X127470322Y-93117292D01*
X127469397Y-93107900D01*
X127464617Y-93083867D01*
X127455239Y-93061228D01*
X127441625Y-93040853D01*
X127424298Y-93023526D01*
X127403924Y-93009912D01*
X127381285Y-93000535D01*
X127357251Y-92995754D01*
X127332747Y-92995754D01*
X127308714Y-93000534D01*
X127286075Y-93009912D01*
X127265700Y-93023526D01*
X127248373Y-93040853D01*
X127234759Y-93061227D01*
X127225382Y-93083866D01*
X127220601Y-93107900D01*
X127219676Y-93117292D01*
X127217547Y-93124311D01*
X127214092Y-93130774D01*
X127209441Y-93136441D01*
X127203774Y-93141092D01*
X127197311Y-93144547D01*
X127190292Y-93146676D01*
X127176859Y-93147999D01*
X126863139Y-93147999D01*
X126849706Y-93146676D01*
X126842687Y-93144547D01*
X126836224Y-93141092D01*
X126830557Y-93136441D01*
X126825906Y-93130774D01*
X126822451Y-93124311D01*
X126820322Y-93117292D01*
X126818999Y-93103859D01*
X126818999Y-92340139D01*
X126820322Y-92326706D01*
X126822451Y-92319687D01*
X126825906Y-92313224D01*
X126830557Y-92307557D01*
X126836224Y-92302906D01*
X126842687Y-92299451D01*
X126849706Y-92297322D01*
X126863139Y-92295999D01*
X127176859Y-92295999D01*
X127190292Y-92297322D01*
X127190292Y-92297322D01*
G37*
G36*
X138284015Y-90388973D02*
X138387879Y-90420479D01*
X138483600Y-90471644D01*
X138567501Y-90540499D01*
X138636356Y-90624400D01*
X138687521Y-90720121D01*
X138719027Y-90823985D01*
X138729666Y-90932000D01*
X138719027Y-91040015D01*
X138687521Y-91143879D01*
X138636356Y-91239600D01*
X138567501Y-91323501D01*
X138483600Y-91392356D01*
X138439805Y-91415766D01*
X138419439Y-91429374D01*
X138402111Y-91446701D01*
X138388498Y-91467076D01*
X138379120Y-91489715D01*
X138374340Y-91513748D01*
X138374340Y-91538252D01*
X138379121Y-91562286D01*
X138388498Y-91584925D01*
X138402112Y-91605299D01*
X138419439Y-91622627D01*
X138439814Y-91636240D01*
X138462453Y-91645618D01*
X138498738Y-91651000D01*
X138727000Y-91651000D01*
X138727000Y-92753000D01*
X137625000Y-92753000D01*
X137625000Y-91651000D01*
X137853262Y-91651000D01*
X137877648Y-91648598D01*
X137901097Y-91641485D01*
X137922708Y-91629934D01*
X137941650Y-91614388D01*
X137957196Y-91595446D01*
X137968747Y-91573835D01*
X137975860Y-91550386D01*
X137978262Y-91526000D01*
X137975860Y-91501614D01*
X137968747Y-91478165D01*
X137957196Y-91456554D01*
X137941650Y-91437612D01*
X137912192Y-91415764D01*
X137868400Y-91392356D01*
X137784499Y-91323501D01*
X137715644Y-91239600D01*
X137664479Y-91143879D01*
X137632973Y-91040015D01*
X137622334Y-90932000D01*
X137632973Y-90823985D01*
X137664479Y-90720121D01*
X137715644Y-90624400D01*
X137784499Y-90540499D01*
X137868400Y-90471644D01*
X137964121Y-90420479D01*
X138067985Y-90388973D01*
X138148933Y-90381000D01*
X138203067Y-90381000D01*
X138284015Y-90388973D01*
X138284015Y-90388973D01*
G37*
G36*
X133176677Y-90827465D02*
X133214364Y-90838898D01*
X133249103Y-90857466D01*
X133279548Y-90882452D01*
X133304534Y-90912897D01*
X133323102Y-90947636D01*
X133334535Y-90985323D01*
X133339000Y-91030661D01*
X133339000Y-91867339D01*
X133334535Y-91912677D01*
X133323102Y-91950364D01*
X133304534Y-91985103D01*
X133279548Y-92015548D01*
X133249103Y-92040534D01*
X133214364Y-92059102D01*
X133176677Y-92070535D01*
X133131339Y-92075000D01*
X132044661Y-92075000D01*
X131999323Y-92070535D01*
X131961636Y-92059102D01*
X131926897Y-92040534D01*
X131896452Y-92015548D01*
X131871466Y-91985103D01*
X131852898Y-91950364D01*
X131841465Y-91912677D01*
X131837000Y-91867339D01*
X131837000Y-91030661D01*
X131841465Y-90985323D01*
X131852898Y-90947636D01*
X131871466Y-90912897D01*
X131896452Y-90882452D01*
X131926897Y-90857466D01*
X131961636Y-90838898D01*
X131999323Y-90827465D01*
X132044661Y-90823000D01*
X133131339Y-90823000D01*
X133176677Y-90827465D01*
X133176677Y-90827465D01*
G37*
G36*
X129924122Y-88524498D02*
X129952386Y-88533072D01*
X129978436Y-88546996D01*
X130001266Y-88565732D01*
X130020002Y-88588562D01*
X130033926Y-88614612D01*
X130042500Y-88642876D01*
X130045999Y-88678406D01*
X130045999Y-91815592D01*
X130042500Y-91851122D01*
X130033926Y-91879386D01*
X130020002Y-91905436D01*
X130001266Y-91928266D01*
X129978436Y-91947002D01*
X129952386Y-91960926D01*
X129924122Y-91969500D01*
X129888592Y-91972999D01*
X126751406Y-91972999D01*
X126715876Y-91969500D01*
X126687612Y-91960926D01*
X126661562Y-91947002D01*
X126638732Y-91928266D01*
X126619996Y-91905436D01*
X126606072Y-91879386D01*
X126597498Y-91851122D01*
X126593999Y-91815592D01*
X126593999Y-88678406D01*
X126597498Y-88642876D01*
X126606072Y-88614612D01*
X126619996Y-88588562D01*
X126638732Y-88565732D01*
X126661562Y-88546996D01*
X126687612Y-88533072D01*
X126715876Y-88524498D01*
X126751406Y-88520999D01*
X129888592Y-88520999D01*
X129924122Y-88524498D01*
X129924122Y-88524498D01*
G37*
G36*
X131190292Y-88747322D02*
X131197311Y-88749451D01*
X131203774Y-88752906D01*
X131209441Y-88757557D01*
X131214092Y-88763224D01*
X131217547Y-88769687D01*
X131219676Y-88776706D01*
X131220999Y-88790139D01*
X131220999Y-89103859D01*
X131219676Y-89117292D01*
X131217547Y-89124311D01*
X131214092Y-89130774D01*
X131209441Y-89136441D01*
X131203774Y-89141092D01*
X131197311Y-89144547D01*
X131190292Y-89146676D01*
X131180900Y-89147601D01*
X131156867Y-89152381D01*
X131134228Y-89161759D01*
X131113853Y-89175373D01*
X131096526Y-89192700D01*
X131082912Y-89213074D01*
X131073535Y-89235713D01*
X131068754Y-89259747D01*
X131068754Y-89284251D01*
X131073534Y-89308284D01*
X131082912Y-89330923D01*
X131096526Y-89351298D01*
X131113853Y-89368625D01*
X131134227Y-89382239D01*
X131156866Y-89391616D01*
X131180900Y-89396397D01*
X131190292Y-89397322D01*
X131197311Y-89399451D01*
X131203774Y-89402906D01*
X131209441Y-89407557D01*
X131214092Y-89413224D01*
X131217547Y-89419687D01*
X131219676Y-89426706D01*
X131220999Y-89440139D01*
X131220999Y-89753859D01*
X131219676Y-89767292D01*
X131217547Y-89774311D01*
X131214092Y-89780774D01*
X131209441Y-89786441D01*
X131203774Y-89791092D01*
X131197311Y-89794547D01*
X131190292Y-89796676D01*
X131180900Y-89797601D01*
X131156867Y-89802381D01*
X131134228Y-89811759D01*
X131113853Y-89825373D01*
X131096526Y-89842700D01*
X131082912Y-89863074D01*
X131073535Y-89885713D01*
X131068754Y-89909747D01*
X131068754Y-89934251D01*
X131073534Y-89958284D01*
X131082912Y-89980923D01*
X131096526Y-90001298D01*
X131113853Y-90018625D01*
X131134227Y-90032239D01*
X131156866Y-90041616D01*
X131180900Y-90046397D01*
X131190292Y-90047322D01*
X131197311Y-90049451D01*
X131203774Y-90052906D01*
X131209441Y-90057557D01*
X131214092Y-90063224D01*
X131217547Y-90069687D01*
X131219676Y-90076706D01*
X131220999Y-90090139D01*
X131220999Y-90403859D01*
X131219676Y-90417292D01*
X131217547Y-90424311D01*
X131214092Y-90430774D01*
X131209441Y-90436441D01*
X131203774Y-90441092D01*
X131197311Y-90444547D01*
X131190292Y-90446676D01*
X131180900Y-90447601D01*
X131156867Y-90452381D01*
X131134228Y-90461759D01*
X131113853Y-90475373D01*
X131096526Y-90492700D01*
X131082912Y-90513074D01*
X131073535Y-90535713D01*
X131068754Y-90559747D01*
X131068754Y-90584251D01*
X131073534Y-90608284D01*
X131082912Y-90630923D01*
X131096526Y-90651298D01*
X131113853Y-90668625D01*
X131134227Y-90682239D01*
X131156866Y-90691616D01*
X131180900Y-90696397D01*
X131190292Y-90697322D01*
X131197311Y-90699451D01*
X131203774Y-90702906D01*
X131209441Y-90707557D01*
X131214092Y-90713224D01*
X131217547Y-90719687D01*
X131219676Y-90726706D01*
X131220999Y-90740139D01*
X131220999Y-91053859D01*
X131219676Y-91067292D01*
X131217547Y-91074311D01*
X131214092Y-91080774D01*
X131209441Y-91086441D01*
X131203774Y-91091092D01*
X131197311Y-91094547D01*
X131190292Y-91096676D01*
X131180900Y-91097601D01*
X131156867Y-91102381D01*
X131134228Y-91111759D01*
X131113853Y-91125373D01*
X131096526Y-91142700D01*
X131082912Y-91163074D01*
X131073535Y-91185713D01*
X131068754Y-91209747D01*
X131068754Y-91234251D01*
X131073534Y-91258284D01*
X131082912Y-91280923D01*
X131096526Y-91301298D01*
X131113853Y-91318625D01*
X131134227Y-91332239D01*
X131156866Y-91341616D01*
X131180900Y-91346397D01*
X131190292Y-91347322D01*
X131197311Y-91349451D01*
X131203774Y-91352906D01*
X131209441Y-91357557D01*
X131214092Y-91363224D01*
X131217547Y-91369687D01*
X131219676Y-91376706D01*
X131220999Y-91390139D01*
X131220999Y-91703859D01*
X131219676Y-91717292D01*
X131217547Y-91724311D01*
X131214092Y-91730774D01*
X131209441Y-91736441D01*
X131203774Y-91741092D01*
X131197311Y-91744547D01*
X131190292Y-91746676D01*
X131176859Y-91747999D01*
X130413139Y-91747999D01*
X130399706Y-91746676D01*
X130392687Y-91744547D01*
X130386224Y-91741092D01*
X130380557Y-91736441D01*
X130375906Y-91730774D01*
X130372451Y-91724311D01*
X130370322Y-91717292D01*
X130368999Y-91703859D01*
X130368999Y-91390139D01*
X130370322Y-91376706D01*
X130372451Y-91369687D01*
X130375906Y-91363224D01*
X130380557Y-91357557D01*
X130386224Y-91352906D01*
X130392687Y-91349451D01*
X130399706Y-91347322D01*
X130409098Y-91346397D01*
X130433131Y-91341617D01*
X130455770Y-91332239D01*
X130476145Y-91318625D01*
X130493472Y-91301298D01*
X130507086Y-91280924D01*
X130516463Y-91258285D01*
X130521244Y-91234251D01*
X130521244Y-91209747D01*
X130516464Y-91185714D01*
X130507086Y-91163075D01*
X130493472Y-91142700D01*
X130476145Y-91125373D01*
X130455771Y-91111759D01*
X130433132Y-91102382D01*
X130409098Y-91097601D01*
X130399706Y-91096676D01*
X130392687Y-91094547D01*
X130386224Y-91091092D01*
X130380557Y-91086441D01*
X130375906Y-91080774D01*
X130372451Y-91074311D01*
X130370322Y-91067292D01*
X130368999Y-91053859D01*
X130368999Y-90740139D01*
X130370322Y-90726706D01*
X130372451Y-90719687D01*
X130375906Y-90713224D01*
X130380557Y-90707557D01*
X130386224Y-90702906D01*
X130392687Y-90699451D01*
X130399706Y-90697322D01*
X130409098Y-90696397D01*
X130433131Y-90691617D01*
X130455770Y-90682239D01*
X130476145Y-90668625D01*
X130493472Y-90651298D01*
X130507086Y-90630924D01*
X130516463Y-90608285D01*
X130521244Y-90584251D01*
X130521244Y-90559747D01*
X130516464Y-90535714D01*
X130507086Y-90513075D01*
X130493472Y-90492700D01*
X130476145Y-90475373D01*
X130455771Y-90461759D01*
X130433132Y-90452382D01*
X130409098Y-90447601D01*
X130399706Y-90446676D01*
X130392687Y-90444547D01*
X130386224Y-90441092D01*
X130380557Y-90436441D01*
X130375906Y-90430774D01*
X130372451Y-90424311D01*
X130370322Y-90417292D01*
X130368999Y-90403859D01*
X130368999Y-90090139D01*
X130370322Y-90076706D01*
X130372451Y-90069687D01*
X130375906Y-90063224D01*
X130380557Y-90057557D01*
X130386224Y-90052906D01*
X130392687Y-90049451D01*
X130399706Y-90047322D01*
X130409098Y-90046397D01*
X130433131Y-90041617D01*
X130455770Y-90032239D01*
X130476145Y-90018625D01*
X130493472Y-90001298D01*
X130507086Y-89980924D01*
X130516463Y-89958285D01*
X130521244Y-89934251D01*
X130521244Y-89909747D01*
X130516464Y-89885714D01*
X130507086Y-89863075D01*
X130493472Y-89842700D01*
X130476145Y-89825373D01*
X130455771Y-89811759D01*
X130433132Y-89802382D01*
X130409098Y-89797601D01*
X130399706Y-89796676D01*
X130392687Y-89794547D01*
X130386224Y-89791092D01*
X130380557Y-89786441D01*
X130375906Y-89780774D01*
X130372451Y-89774311D01*
X130370322Y-89767292D01*
X130368999Y-89753859D01*
X130368999Y-89440139D01*
X130370322Y-89426706D01*
X130372451Y-89419687D01*
X130375906Y-89413224D01*
X130380557Y-89407557D01*
X130386224Y-89402906D01*
X130392687Y-89399451D01*
X130399706Y-89397322D01*
X130409098Y-89396397D01*
X130433131Y-89391617D01*
X130455770Y-89382239D01*
X130476145Y-89368625D01*
X130493472Y-89351298D01*
X130507086Y-89330924D01*
X130516463Y-89308285D01*
X130521244Y-89284251D01*
X130521244Y-89259747D01*
X130516464Y-89235714D01*
X130507086Y-89213075D01*
X130493472Y-89192700D01*
X130476145Y-89175373D01*
X130455771Y-89161759D01*
X130433132Y-89152382D01*
X130409098Y-89147601D01*
X130399706Y-89146676D01*
X130392687Y-89144547D01*
X130386224Y-89141092D01*
X130380557Y-89136441D01*
X130375906Y-89130774D01*
X130372451Y-89124311D01*
X130370322Y-89117292D01*
X130368999Y-89103859D01*
X130368999Y-88790139D01*
X130370322Y-88776706D01*
X130372451Y-88769687D01*
X130375906Y-88763224D01*
X130380557Y-88757557D01*
X130386224Y-88752906D01*
X130392687Y-88749451D01*
X130399706Y-88747322D01*
X130413139Y-88745999D01*
X131176859Y-88745999D01*
X131190292Y-88747322D01*
X131190292Y-88747322D01*
G37*
G36*
X126240292Y-88747322D02*
X126247311Y-88749451D01*
X126253774Y-88752906D01*
X126259441Y-88757557D01*
X126264092Y-88763224D01*
X126267547Y-88769687D01*
X126269676Y-88776706D01*
X126270999Y-88790139D01*
X126270999Y-89103859D01*
X126269676Y-89117292D01*
X126267547Y-89124311D01*
X126264092Y-89130774D01*
X126259441Y-89136441D01*
X126253774Y-89141092D01*
X126247311Y-89144547D01*
X126240292Y-89146676D01*
X126230900Y-89147601D01*
X126206867Y-89152381D01*
X126184228Y-89161759D01*
X126163853Y-89175373D01*
X126146526Y-89192700D01*
X126132912Y-89213074D01*
X126123535Y-89235713D01*
X126118754Y-89259747D01*
X126118754Y-89284251D01*
X126123534Y-89308284D01*
X126132912Y-89330923D01*
X126146526Y-89351298D01*
X126163853Y-89368625D01*
X126184227Y-89382239D01*
X126206866Y-89391616D01*
X126230900Y-89396397D01*
X126240292Y-89397322D01*
X126247311Y-89399451D01*
X126253774Y-89402906D01*
X126259441Y-89407557D01*
X126264092Y-89413224D01*
X126267547Y-89419687D01*
X126269676Y-89426706D01*
X126270999Y-89440139D01*
X126270999Y-89753859D01*
X126269676Y-89767292D01*
X126267547Y-89774311D01*
X126264092Y-89780774D01*
X126259441Y-89786441D01*
X126253774Y-89791092D01*
X126247311Y-89794547D01*
X126240292Y-89796676D01*
X126230900Y-89797601D01*
X126206867Y-89802381D01*
X126184228Y-89811759D01*
X126163853Y-89825373D01*
X126146526Y-89842700D01*
X126132912Y-89863074D01*
X126123535Y-89885713D01*
X126118754Y-89909747D01*
X126118754Y-89934251D01*
X126123534Y-89958284D01*
X126132912Y-89980923D01*
X126146526Y-90001298D01*
X126163853Y-90018625D01*
X126184227Y-90032239D01*
X126206866Y-90041616D01*
X126230900Y-90046397D01*
X126240292Y-90047322D01*
X126247311Y-90049451D01*
X126253774Y-90052906D01*
X126259441Y-90057557D01*
X126264092Y-90063224D01*
X126267547Y-90069687D01*
X126269676Y-90076706D01*
X126270999Y-90090139D01*
X126270999Y-90403859D01*
X126269676Y-90417292D01*
X126267547Y-90424311D01*
X126264092Y-90430774D01*
X126259441Y-90436441D01*
X126253774Y-90441092D01*
X126247311Y-90444547D01*
X126240292Y-90446676D01*
X126230900Y-90447601D01*
X126206867Y-90452381D01*
X126184228Y-90461759D01*
X126163853Y-90475373D01*
X126146526Y-90492700D01*
X126132912Y-90513074D01*
X126123535Y-90535713D01*
X126118754Y-90559747D01*
X126118754Y-90584251D01*
X126123534Y-90608284D01*
X126132912Y-90630923D01*
X126146526Y-90651298D01*
X126163853Y-90668625D01*
X126184227Y-90682239D01*
X126206866Y-90691616D01*
X126230900Y-90696397D01*
X126240292Y-90697322D01*
X126247311Y-90699451D01*
X126253774Y-90702906D01*
X126259441Y-90707557D01*
X126264092Y-90713224D01*
X126267547Y-90719687D01*
X126269676Y-90726706D01*
X126270999Y-90740139D01*
X126270999Y-91053859D01*
X126269676Y-91067292D01*
X126267547Y-91074311D01*
X126264092Y-91080774D01*
X126259441Y-91086441D01*
X126253774Y-91091092D01*
X126247311Y-91094547D01*
X126240292Y-91096676D01*
X126230900Y-91097601D01*
X126206867Y-91102381D01*
X126184228Y-91111759D01*
X126163853Y-91125373D01*
X126146526Y-91142700D01*
X126132912Y-91163074D01*
X126123535Y-91185713D01*
X126118754Y-91209747D01*
X126118754Y-91234251D01*
X126123534Y-91258284D01*
X126132912Y-91280923D01*
X126146526Y-91301298D01*
X126163853Y-91318625D01*
X126184227Y-91332239D01*
X126206866Y-91341616D01*
X126230900Y-91346397D01*
X126240292Y-91347322D01*
X126247311Y-91349451D01*
X126253774Y-91352906D01*
X126259441Y-91357557D01*
X126264092Y-91363224D01*
X126267547Y-91369687D01*
X126269676Y-91376706D01*
X126270999Y-91390139D01*
X126270999Y-91703859D01*
X126269676Y-91717292D01*
X126267547Y-91724311D01*
X126264092Y-91730774D01*
X126259441Y-91736441D01*
X126253774Y-91741092D01*
X126247311Y-91744547D01*
X126240292Y-91746676D01*
X126226859Y-91747999D01*
X125463139Y-91747999D01*
X125449706Y-91746676D01*
X125442687Y-91744547D01*
X125436224Y-91741092D01*
X125430557Y-91736441D01*
X125425906Y-91730774D01*
X125422451Y-91724311D01*
X125420322Y-91717292D01*
X125418999Y-91703859D01*
X125418999Y-91390139D01*
X125420322Y-91376706D01*
X125422451Y-91369687D01*
X125425906Y-91363224D01*
X125430557Y-91357557D01*
X125436224Y-91352906D01*
X125442687Y-91349451D01*
X125449706Y-91347322D01*
X125459098Y-91346397D01*
X125483131Y-91341617D01*
X125505770Y-91332239D01*
X125526145Y-91318625D01*
X125543472Y-91301298D01*
X125557086Y-91280924D01*
X125566463Y-91258285D01*
X125571244Y-91234251D01*
X125571244Y-91209747D01*
X125566464Y-91185714D01*
X125557086Y-91163075D01*
X125543472Y-91142700D01*
X125526145Y-91125373D01*
X125505771Y-91111759D01*
X125483132Y-91102382D01*
X125459098Y-91097601D01*
X125449706Y-91096676D01*
X125442687Y-91094547D01*
X125436224Y-91091092D01*
X125430557Y-91086441D01*
X125425906Y-91080774D01*
X125422451Y-91074311D01*
X125420322Y-91067292D01*
X125418999Y-91053859D01*
X125418999Y-90740139D01*
X125420322Y-90726706D01*
X125422451Y-90719687D01*
X125425906Y-90713224D01*
X125430557Y-90707557D01*
X125436224Y-90702906D01*
X125442687Y-90699451D01*
X125449706Y-90697322D01*
X125459098Y-90696397D01*
X125483131Y-90691617D01*
X125505770Y-90682239D01*
X125526145Y-90668625D01*
X125543472Y-90651298D01*
X125557086Y-90630924D01*
X125566463Y-90608285D01*
X125571244Y-90584251D01*
X125571244Y-90559747D01*
X125566464Y-90535714D01*
X125557086Y-90513075D01*
X125543472Y-90492700D01*
X125526145Y-90475373D01*
X125505771Y-90461759D01*
X125483132Y-90452382D01*
X125459098Y-90447601D01*
X125449706Y-90446676D01*
X125442687Y-90444547D01*
X125436224Y-90441092D01*
X125430557Y-90436441D01*
X125425906Y-90430774D01*
X125422451Y-90424311D01*
X125420322Y-90417292D01*
X125418999Y-90403859D01*
X125418999Y-90090139D01*
X125420322Y-90076706D01*
X125422451Y-90069687D01*
X125425906Y-90063224D01*
X125430557Y-90057557D01*
X125436224Y-90052906D01*
X125442687Y-90049451D01*
X125449706Y-90047322D01*
X125459098Y-90046397D01*
X125483131Y-90041617D01*
X125505770Y-90032239D01*
X125526145Y-90018625D01*
X125543472Y-90001298D01*
X125557086Y-89980924D01*
X125566463Y-89958285D01*
X125571244Y-89934251D01*
X125571244Y-89909747D01*
X125566464Y-89885714D01*
X125557086Y-89863075D01*
X125543472Y-89842700D01*
X125526145Y-89825373D01*
X125505771Y-89811759D01*
X125483132Y-89802382D01*
X125459098Y-89797601D01*
X125449706Y-89796676D01*
X125442687Y-89794547D01*
X125436224Y-89791092D01*
X125430557Y-89786441D01*
X125425906Y-89780774D01*
X125422451Y-89774311D01*
X125420322Y-89767292D01*
X125418999Y-89753859D01*
X125418999Y-89440139D01*
X125420322Y-89426706D01*
X125422451Y-89419687D01*
X125425906Y-89413224D01*
X125430557Y-89407557D01*
X125436224Y-89402906D01*
X125442687Y-89399451D01*
X125449706Y-89397322D01*
X125459098Y-89396397D01*
X125483131Y-89391617D01*
X125505770Y-89382239D01*
X125526145Y-89368625D01*
X125543472Y-89351298D01*
X125557086Y-89330924D01*
X125566463Y-89308285D01*
X125571244Y-89284251D01*
X125571244Y-89259747D01*
X125566464Y-89235714D01*
X125557086Y-89213075D01*
X125543472Y-89192700D01*
X125526145Y-89175373D01*
X125505771Y-89161759D01*
X125483132Y-89152382D01*
X125459098Y-89147601D01*
X125449706Y-89146676D01*
X125442687Y-89144547D01*
X125436224Y-89141092D01*
X125430557Y-89136441D01*
X125425906Y-89130774D01*
X125422451Y-89124311D01*
X125420322Y-89117292D01*
X125418999Y-89103859D01*
X125418999Y-88790139D01*
X125420322Y-88776706D01*
X125422451Y-88769687D01*
X125425906Y-88763224D01*
X125430557Y-88757557D01*
X125436224Y-88752906D01*
X125442687Y-88749451D01*
X125449706Y-88747322D01*
X125463139Y-88745999D01*
X126226859Y-88745999D01*
X126240292Y-88747322D01*
X126240292Y-88747322D01*
G37*
G36*
X114328642Y-89547118D02*
X114394827Y-89553637D01*
X114508053Y-89587984D01*
X114564667Y-89605157D01*
X114703287Y-89679252D01*
X114721191Y-89688822D01*
X114755655Y-89717106D01*
X114858386Y-89801414D01*
X114927567Y-89885713D01*
X114970978Y-89938609D01*
X114970979Y-89938611D01*
X115054643Y-90095133D01*
X115054643Y-90095134D01*
X115106163Y-90264973D01*
X115123559Y-90441600D01*
X115106163Y-90618227D01*
X115075254Y-90720121D01*
X115054643Y-90788067D01*
X115035444Y-90823985D01*
X114970978Y-90944591D01*
X114941648Y-90980329D01*
X114858386Y-91081786D01*
X114782724Y-91143879D01*
X114721191Y-91194378D01*
X114721189Y-91194379D01*
X114564667Y-91278043D01*
X114555169Y-91280924D01*
X114394827Y-91329563D01*
X114328642Y-91336082D01*
X114262460Y-91342600D01*
X114173940Y-91342600D01*
X114107758Y-91336082D01*
X114041573Y-91329563D01*
X113881231Y-91280924D01*
X113871733Y-91278043D01*
X113715211Y-91194379D01*
X113715209Y-91194378D01*
X113653676Y-91143879D01*
X113578014Y-91081786D01*
X113494752Y-90980329D01*
X113465422Y-90944591D01*
X113400956Y-90823985D01*
X113381757Y-90788067D01*
X113361146Y-90720121D01*
X113330237Y-90618227D01*
X113312841Y-90441600D01*
X113330237Y-90264973D01*
X113381757Y-90095134D01*
X113381757Y-90095133D01*
X113465421Y-89938611D01*
X113465422Y-89938609D01*
X113508833Y-89885713D01*
X113578014Y-89801414D01*
X113680745Y-89717106D01*
X113715209Y-89688822D01*
X113733113Y-89679252D01*
X113871733Y-89605157D01*
X113928347Y-89587984D01*
X114041573Y-89553637D01*
X114107758Y-89547118D01*
X114173940Y-89540600D01*
X114262460Y-89540600D01*
X114328642Y-89547118D01*
X114328642Y-89547118D01*
G37*
G36*
X141028512Y-89547118D02*
X141094697Y-89553637D01*
X141207923Y-89587984D01*
X141264537Y-89605157D01*
X141403157Y-89679252D01*
X141421061Y-89688822D01*
X141455525Y-89717106D01*
X141558256Y-89801414D01*
X141627437Y-89885713D01*
X141670848Y-89938609D01*
X141670849Y-89938611D01*
X141754513Y-90095133D01*
X141754513Y-90095134D01*
X141806033Y-90264973D01*
X141823429Y-90441600D01*
X141806033Y-90618227D01*
X141775124Y-90720121D01*
X141754513Y-90788067D01*
X141735314Y-90823985D01*
X141670848Y-90944591D01*
X141641518Y-90980329D01*
X141558256Y-91081786D01*
X141482594Y-91143879D01*
X141421061Y-91194378D01*
X141421059Y-91194379D01*
X141264537Y-91278043D01*
X141255039Y-91280924D01*
X141094697Y-91329563D01*
X141028512Y-91336082D01*
X140962330Y-91342600D01*
X140873810Y-91342600D01*
X140807628Y-91336082D01*
X140741443Y-91329563D01*
X140581101Y-91280924D01*
X140571603Y-91278043D01*
X140415081Y-91194379D01*
X140415079Y-91194378D01*
X140353546Y-91143879D01*
X140277884Y-91081786D01*
X140194622Y-90980329D01*
X140165292Y-90944591D01*
X140100826Y-90823985D01*
X140081627Y-90788067D01*
X140061016Y-90720121D01*
X140030107Y-90618227D01*
X140012711Y-90441600D01*
X140030107Y-90264973D01*
X140081627Y-90095134D01*
X140081627Y-90095133D01*
X140165291Y-89938611D01*
X140165292Y-89938609D01*
X140208703Y-89885713D01*
X140277884Y-89801414D01*
X140380615Y-89717106D01*
X140415079Y-89688822D01*
X140432983Y-89679252D01*
X140571603Y-89605157D01*
X140628217Y-89587984D01*
X140741443Y-89553637D01*
X140807628Y-89547118D01*
X140873810Y-89540600D01*
X140962330Y-89540600D01*
X141028512Y-89547118D01*
X141028512Y-89547118D01*
G37*
G36*
X133176677Y-88777465D02*
X133214364Y-88788898D01*
X133249103Y-88807466D01*
X133279548Y-88832452D01*
X133304534Y-88862897D01*
X133323102Y-88897636D01*
X133334535Y-88935323D01*
X133339000Y-88980661D01*
X133339000Y-89817339D01*
X133334535Y-89862677D01*
X133323102Y-89900364D01*
X133304534Y-89935103D01*
X133279548Y-89965548D01*
X133249103Y-89990534D01*
X133214364Y-90009102D01*
X133176677Y-90020535D01*
X133131339Y-90025000D01*
X132044661Y-90025000D01*
X131999323Y-90020535D01*
X131961636Y-90009102D01*
X131926897Y-89990534D01*
X131896452Y-89965548D01*
X131871466Y-89935103D01*
X131852898Y-89900364D01*
X131841465Y-89862677D01*
X131837000Y-89817339D01*
X131837000Y-88980661D01*
X131841465Y-88935323D01*
X131852898Y-88897636D01*
X131871466Y-88862897D01*
X131896452Y-88832452D01*
X131926897Y-88807466D01*
X131961636Y-88788898D01*
X131999323Y-88777465D01*
X132044661Y-88773000D01*
X133131339Y-88773000D01*
X133176677Y-88777465D01*
X133176677Y-88777465D01*
G37*
G36*
X114328643Y-87007119D02*
X114394827Y-87013637D01*
X114508053Y-87047984D01*
X114564667Y-87065157D01*
X114703287Y-87139252D01*
X114721191Y-87148822D01*
X114756929Y-87178152D01*
X114858386Y-87261414D01*
X114927802Y-87345999D01*
X114970978Y-87398609D01*
X114970979Y-87398611D01*
X115054643Y-87555133D01*
X115068518Y-87600874D01*
X115106163Y-87724973D01*
X115123559Y-87901600D01*
X115106163Y-88078227D01*
X115079145Y-88167292D01*
X115054643Y-88248067D01*
X114980548Y-88386687D01*
X114970978Y-88404591D01*
X114941648Y-88440329D01*
X114858386Y-88541786D01*
X114759631Y-88622831D01*
X114721191Y-88654378D01*
X114721189Y-88654379D01*
X114564667Y-88738043D01*
X114532073Y-88747930D01*
X114394827Y-88789563D01*
X114328643Y-88796081D01*
X114262460Y-88802600D01*
X114173940Y-88802600D01*
X114107757Y-88796081D01*
X114041573Y-88789563D01*
X113904327Y-88747930D01*
X113871733Y-88738043D01*
X113715211Y-88654379D01*
X113715209Y-88654378D01*
X113676769Y-88622831D01*
X113578014Y-88541786D01*
X113494752Y-88440329D01*
X113465422Y-88404591D01*
X113455852Y-88386687D01*
X113381757Y-88248067D01*
X113357255Y-88167292D01*
X113330237Y-88078227D01*
X113312841Y-87901600D01*
X113330237Y-87724973D01*
X113367882Y-87600874D01*
X113381757Y-87555133D01*
X113465421Y-87398611D01*
X113465422Y-87398609D01*
X113508598Y-87345999D01*
X113578014Y-87261414D01*
X113679471Y-87178152D01*
X113715209Y-87148822D01*
X113733113Y-87139252D01*
X113871733Y-87065157D01*
X113928347Y-87047984D01*
X114041573Y-87013637D01*
X114107757Y-87007119D01*
X114173940Y-87000600D01*
X114262460Y-87000600D01*
X114328643Y-87007119D01*
X114328643Y-87007119D01*
G37*
G36*
X141028513Y-87007119D02*
X141094697Y-87013637D01*
X141207923Y-87047984D01*
X141264537Y-87065157D01*
X141403157Y-87139252D01*
X141421061Y-87148822D01*
X141456799Y-87178152D01*
X141558256Y-87261414D01*
X141627672Y-87345999D01*
X141670848Y-87398609D01*
X141670849Y-87398611D01*
X141754513Y-87555133D01*
X141768388Y-87600874D01*
X141806033Y-87724973D01*
X141823429Y-87901600D01*
X141806033Y-88078227D01*
X141779015Y-88167292D01*
X141754513Y-88248067D01*
X141680418Y-88386687D01*
X141670848Y-88404591D01*
X141641518Y-88440329D01*
X141558256Y-88541786D01*
X141459501Y-88622831D01*
X141421061Y-88654378D01*
X141421059Y-88654379D01*
X141264537Y-88738043D01*
X141231943Y-88747930D01*
X141094697Y-88789563D01*
X141028513Y-88796081D01*
X140962330Y-88802600D01*
X140873810Y-88802600D01*
X140807627Y-88796081D01*
X140741443Y-88789563D01*
X140604197Y-88747930D01*
X140571603Y-88738043D01*
X140415081Y-88654379D01*
X140415079Y-88654378D01*
X140376639Y-88622831D01*
X140277884Y-88541786D01*
X140194622Y-88440329D01*
X140165292Y-88404591D01*
X140155722Y-88386687D01*
X140081627Y-88248067D01*
X140057125Y-88167292D01*
X140030107Y-88078227D01*
X140012711Y-87901600D01*
X140030107Y-87724973D01*
X140067752Y-87600874D01*
X140081627Y-87555133D01*
X140165291Y-87398611D01*
X140165292Y-87398609D01*
X140208468Y-87345999D01*
X140277884Y-87261414D01*
X140379341Y-87178152D01*
X140415079Y-87148822D01*
X140432983Y-87139252D01*
X140571603Y-87065157D01*
X140628217Y-87047984D01*
X140741443Y-87013637D01*
X140807627Y-87007119D01*
X140873810Y-87000600D01*
X140962330Y-87000600D01*
X141028513Y-87007119D01*
X141028513Y-87007119D01*
G37*
G36*
X138478938Y-87896716D02*
X138499556Y-87902970D01*
X138518556Y-87913126D01*
X138535208Y-87926792D01*
X138548874Y-87943444D01*
X138559030Y-87962444D01*
X138565284Y-87983062D01*
X138568000Y-88010640D01*
X138568000Y-88519360D01*
X138565284Y-88546938D01*
X138559030Y-88567556D01*
X138548874Y-88586556D01*
X138535208Y-88603208D01*
X138518556Y-88616874D01*
X138499556Y-88627030D01*
X138478938Y-88633284D01*
X138451360Y-88636000D01*
X137992640Y-88636000D01*
X137965062Y-88633284D01*
X137944444Y-88627030D01*
X137925444Y-88616874D01*
X137908792Y-88603208D01*
X137895126Y-88586556D01*
X137884970Y-88567556D01*
X137878716Y-88546938D01*
X137876000Y-88519360D01*
X137876000Y-88010640D01*
X137878716Y-87983062D01*
X137884970Y-87962444D01*
X137895126Y-87943444D01*
X137908792Y-87926792D01*
X137925444Y-87913126D01*
X137944444Y-87902970D01*
X137965062Y-87896716D01*
X137992640Y-87894000D01*
X138451360Y-87894000D01*
X138478938Y-87896716D01*
X138478938Y-87896716D01*
G37*
G36*
X139448938Y-87896716D02*
X139469556Y-87902970D01*
X139488556Y-87913126D01*
X139505208Y-87926792D01*
X139518874Y-87943444D01*
X139529030Y-87962444D01*
X139535284Y-87983062D01*
X139538000Y-88010640D01*
X139538000Y-88519360D01*
X139535284Y-88546938D01*
X139529030Y-88567556D01*
X139518874Y-88586556D01*
X139505208Y-88603208D01*
X139488556Y-88616874D01*
X139469556Y-88627030D01*
X139448938Y-88633284D01*
X139421360Y-88636000D01*
X138962640Y-88636000D01*
X138935062Y-88633284D01*
X138914444Y-88627030D01*
X138895444Y-88616874D01*
X138878792Y-88603208D01*
X138865126Y-88586556D01*
X138854970Y-88567556D01*
X138848716Y-88546938D01*
X138846000Y-88519360D01*
X138846000Y-88010640D01*
X138848716Y-87983062D01*
X138854970Y-87962444D01*
X138865126Y-87943444D01*
X138878792Y-87926792D01*
X138895444Y-87913126D01*
X138914444Y-87902970D01*
X138935062Y-87896716D01*
X138962640Y-87894000D01*
X139421360Y-87894000D01*
X139448938Y-87896716D01*
X139448938Y-87896716D01*
G37*
G36*
X127190292Y-87347322D02*
X127197311Y-87349451D01*
X127203774Y-87352906D01*
X127209441Y-87357557D01*
X127214092Y-87363224D01*
X127217547Y-87369687D01*
X127219676Y-87376706D01*
X127220601Y-87386098D01*
X127225381Y-87410131D01*
X127234759Y-87432770D01*
X127248373Y-87453145D01*
X127265700Y-87470472D01*
X127286074Y-87484086D01*
X127308713Y-87493463D01*
X127332747Y-87498244D01*
X127357251Y-87498244D01*
X127381284Y-87493464D01*
X127403923Y-87484086D01*
X127424298Y-87470472D01*
X127441625Y-87453145D01*
X127455239Y-87432771D01*
X127464616Y-87410132D01*
X127469397Y-87386098D01*
X127470322Y-87376706D01*
X127472451Y-87369687D01*
X127475906Y-87363224D01*
X127480557Y-87357557D01*
X127486224Y-87352906D01*
X127492687Y-87349451D01*
X127499706Y-87347322D01*
X127513139Y-87345999D01*
X127826859Y-87345999D01*
X127840292Y-87347322D01*
X127847311Y-87349451D01*
X127853774Y-87352906D01*
X127859441Y-87357557D01*
X127864092Y-87363224D01*
X127867547Y-87369687D01*
X127869676Y-87376706D01*
X127870601Y-87386098D01*
X127875381Y-87410131D01*
X127884759Y-87432770D01*
X127898373Y-87453145D01*
X127915700Y-87470472D01*
X127936074Y-87484086D01*
X127958713Y-87493463D01*
X127982747Y-87498244D01*
X128007251Y-87498244D01*
X128031284Y-87493464D01*
X128053923Y-87484086D01*
X128074298Y-87470472D01*
X128091625Y-87453145D01*
X128105239Y-87432771D01*
X128114616Y-87410132D01*
X128119397Y-87386098D01*
X128120322Y-87376706D01*
X128122451Y-87369687D01*
X128125906Y-87363224D01*
X128130557Y-87357557D01*
X128136224Y-87352906D01*
X128142687Y-87349451D01*
X128149706Y-87347322D01*
X128163139Y-87345999D01*
X128476859Y-87345999D01*
X128490292Y-87347322D01*
X128497311Y-87349451D01*
X128503774Y-87352906D01*
X128509441Y-87357557D01*
X128514092Y-87363224D01*
X128517547Y-87369687D01*
X128519676Y-87376706D01*
X128520601Y-87386098D01*
X128525381Y-87410131D01*
X128534759Y-87432770D01*
X128548373Y-87453145D01*
X128565700Y-87470472D01*
X128586074Y-87484086D01*
X128608713Y-87493463D01*
X128632747Y-87498244D01*
X128657251Y-87498244D01*
X128681284Y-87493464D01*
X128703923Y-87484086D01*
X128724298Y-87470472D01*
X128741625Y-87453145D01*
X128755239Y-87432771D01*
X128764616Y-87410132D01*
X128769397Y-87386098D01*
X128770322Y-87376706D01*
X128772451Y-87369687D01*
X128775906Y-87363224D01*
X128780557Y-87357557D01*
X128786224Y-87352906D01*
X128792687Y-87349451D01*
X128799706Y-87347322D01*
X128813139Y-87345999D01*
X129126859Y-87345999D01*
X129140292Y-87347322D01*
X129147311Y-87349451D01*
X129153774Y-87352906D01*
X129159441Y-87357557D01*
X129164092Y-87363224D01*
X129167547Y-87369687D01*
X129169676Y-87376706D01*
X129170601Y-87386098D01*
X129175381Y-87410131D01*
X129184759Y-87432770D01*
X129198373Y-87453145D01*
X129215700Y-87470472D01*
X129236074Y-87484086D01*
X129258713Y-87493463D01*
X129282747Y-87498244D01*
X129307251Y-87498244D01*
X129331284Y-87493464D01*
X129353923Y-87484086D01*
X129374298Y-87470472D01*
X129391625Y-87453145D01*
X129405239Y-87432771D01*
X129414616Y-87410132D01*
X129419397Y-87386098D01*
X129420322Y-87376706D01*
X129422451Y-87369687D01*
X129425906Y-87363224D01*
X129430557Y-87357557D01*
X129436224Y-87352906D01*
X129442687Y-87349451D01*
X129449706Y-87347322D01*
X129463139Y-87345999D01*
X129776859Y-87345999D01*
X129790292Y-87347322D01*
X129797311Y-87349451D01*
X129803774Y-87352906D01*
X129809441Y-87357557D01*
X129814092Y-87363224D01*
X129817547Y-87369687D01*
X129819676Y-87376706D01*
X129820999Y-87390139D01*
X129820999Y-88153859D01*
X129819676Y-88167292D01*
X129817547Y-88174311D01*
X129814092Y-88180774D01*
X129809441Y-88186441D01*
X129803774Y-88191092D01*
X129797311Y-88194547D01*
X129790292Y-88196676D01*
X129776859Y-88197999D01*
X129463139Y-88197999D01*
X129449706Y-88196676D01*
X129442687Y-88194547D01*
X129436224Y-88191092D01*
X129430557Y-88186441D01*
X129425906Y-88180774D01*
X129422451Y-88174311D01*
X129420322Y-88167292D01*
X129419397Y-88157900D01*
X129414617Y-88133867D01*
X129405239Y-88111228D01*
X129391625Y-88090853D01*
X129374298Y-88073526D01*
X129353924Y-88059912D01*
X129331285Y-88050535D01*
X129307251Y-88045754D01*
X129282747Y-88045754D01*
X129258714Y-88050534D01*
X129236075Y-88059912D01*
X129215700Y-88073526D01*
X129198373Y-88090853D01*
X129184759Y-88111227D01*
X129175382Y-88133866D01*
X129170601Y-88157900D01*
X129169676Y-88167292D01*
X129167547Y-88174311D01*
X129164092Y-88180774D01*
X129159441Y-88186441D01*
X129153774Y-88191092D01*
X129147311Y-88194547D01*
X129140292Y-88196676D01*
X129126859Y-88197999D01*
X128813139Y-88197999D01*
X128799706Y-88196676D01*
X128792687Y-88194547D01*
X128786224Y-88191092D01*
X128780557Y-88186441D01*
X128775906Y-88180774D01*
X128772451Y-88174311D01*
X128770322Y-88167292D01*
X128769397Y-88157900D01*
X128764617Y-88133867D01*
X128755239Y-88111228D01*
X128741625Y-88090853D01*
X128724298Y-88073526D01*
X128703924Y-88059912D01*
X128681285Y-88050535D01*
X128657251Y-88045754D01*
X128632747Y-88045754D01*
X128608714Y-88050534D01*
X128586075Y-88059912D01*
X128565700Y-88073526D01*
X128548373Y-88090853D01*
X128534759Y-88111227D01*
X128525382Y-88133866D01*
X128520601Y-88157900D01*
X128519676Y-88167292D01*
X128517547Y-88174311D01*
X128514092Y-88180774D01*
X128509441Y-88186441D01*
X128503774Y-88191092D01*
X128497311Y-88194547D01*
X128490292Y-88196676D01*
X128476859Y-88197999D01*
X128163139Y-88197999D01*
X128149706Y-88196676D01*
X128142687Y-88194547D01*
X128136224Y-88191092D01*
X128130557Y-88186441D01*
X128125906Y-88180774D01*
X128122451Y-88174311D01*
X128120322Y-88167292D01*
X128119397Y-88157900D01*
X128114617Y-88133867D01*
X128105239Y-88111228D01*
X128091625Y-88090853D01*
X128074298Y-88073526D01*
X128053924Y-88059912D01*
X128031285Y-88050535D01*
X128007251Y-88045754D01*
X127982747Y-88045754D01*
X127958714Y-88050534D01*
X127936075Y-88059912D01*
X127915700Y-88073526D01*
X127898373Y-88090853D01*
X127884759Y-88111227D01*
X127875382Y-88133866D01*
X127870601Y-88157900D01*
X127869676Y-88167292D01*
X127867547Y-88174311D01*
X127864092Y-88180774D01*
X127859441Y-88186441D01*
X127853774Y-88191092D01*
X127847311Y-88194547D01*
X127840292Y-88196676D01*
X127826859Y-88197999D01*
X127513139Y-88197999D01*
X127499706Y-88196676D01*
X127492687Y-88194547D01*
X127486224Y-88191092D01*
X127480557Y-88186441D01*
X127475906Y-88180774D01*
X127472451Y-88174311D01*
X127470322Y-88167292D01*
X127469397Y-88157900D01*
X127464617Y-88133867D01*
X127455239Y-88111228D01*
X127441625Y-88090853D01*
X127424298Y-88073526D01*
X127403924Y-88059912D01*
X127381285Y-88050535D01*
X127357251Y-88045754D01*
X127332747Y-88045754D01*
X127308714Y-88050534D01*
X127286075Y-88059912D01*
X127265700Y-88073526D01*
X127248373Y-88090853D01*
X127234759Y-88111227D01*
X127225382Y-88133866D01*
X127220601Y-88157900D01*
X127219676Y-88167292D01*
X127217547Y-88174311D01*
X127214092Y-88180774D01*
X127209441Y-88186441D01*
X127203774Y-88191092D01*
X127197311Y-88194547D01*
X127190292Y-88196676D01*
X127176859Y-88197999D01*
X126863139Y-88197999D01*
X126849706Y-88196676D01*
X126842687Y-88194547D01*
X126836224Y-88191092D01*
X126830557Y-88186441D01*
X126825906Y-88180774D01*
X126822451Y-88174311D01*
X126820322Y-88167292D01*
X126818999Y-88153859D01*
X126818999Y-87390139D01*
X126820322Y-87376706D01*
X126822451Y-87369687D01*
X126825906Y-87363224D01*
X126830557Y-87357557D01*
X126836224Y-87352906D01*
X126842687Y-87349451D01*
X126849706Y-87347322D01*
X126863139Y-87345999D01*
X127176859Y-87345999D01*
X127190292Y-87347322D01*
X127190292Y-87347322D01*
G37*
G36*
X139425938Y-86880716D02*
X139446556Y-86886970D01*
X139465556Y-86897126D01*
X139482208Y-86910792D01*
X139495874Y-86927444D01*
X139506030Y-86946444D01*
X139512284Y-86967062D01*
X139515000Y-86994640D01*
X139515000Y-87503360D01*
X139512284Y-87530938D01*
X139506030Y-87551556D01*
X139495874Y-87570556D01*
X139482208Y-87587208D01*
X139465556Y-87600874D01*
X139446556Y-87611030D01*
X139425938Y-87617284D01*
X139398360Y-87620000D01*
X138939640Y-87620000D01*
X138912062Y-87617284D01*
X138891444Y-87611030D01*
X138872444Y-87600874D01*
X138855792Y-87587208D01*
X138842126Y-87570556D01*
X138831970Y-87551556D01*
X138825716Y-87530938D01*
X138823000Y-87503360D01*
X138823000Y-86994640D01*
X138825716Y-86967062D01*
X138831970Y-86946444D01*
X138842126Y-86927444D01*
X138855792Y-86910792D01*
X138872444Y-86897126D01*
X138891444Y-86886970D01*
X138912062Y-86880716D01*
X138939640Y-86878000D01*
X139398360Y-86878000D01*
X139425938Y-86880716D01*
X139425938Y-86880716D01*
G37*
G36*
X138455938Y-86880716D02*
X138476556Y-86886970D01*
X138495556Y-86897126D01*
X138512208Y-86910792D01*
X138525874Y-86927444D01*
X138536030Y-86946444D01*
X138542284Y-86967062D01*
X138545000Y-86994640D01*
X138545000Y-87503360D01*
X138542284Y-87530938D01*
X138536030Y-87551556D01*
X138525874Y-87570556D01*
X138512208Y-87587208D01*
X138495556Y-87600874D01*
X138476556Y-87611030D01*
X138455938Y-87617284D01*
X138428360Y-87620000D01*
X137969640Y-87620000D01*
X137942062Y-87617284D01*
X137921444Y-87611030D01*
X137902444Y-87600874D01*
X137885792Y-87587208D01*
X137872126Y-87570556D01*
X137861970Y-87551556D01*
X137855716Y-87530938D01*
X137853000Y-87503360D01*
X137853000Y-86994640D01*
X137855716Y-86967062D01*
X137861970Y-86946444D01*
X137872126Y-86927444D01*
X137885792Y-86910792D01*
X137902444Y-86897126D01*
X137921444Y-86886970D01*
X137942062Y-86880716D01*
X137969640Y-86878000D01*
X138428360Y-86878000D01*
X138455938Y-86880716D01*
X138455938Y-86880716D01*
G37*
G36*
X141028512Y-84473610D02*
X141094697Y-84480129D01*
X141207819Y-84514444D01*
X141264537Y-84531649D01*
X141358062Y-84581640D01*
X141421061Y-84615314D01*
X141448704Y-84638000D01*
X141558256Y-84727906D01*
X141641518Y-84829363D01*
X141670848Y-84865101D01*
X141670849Y-84865103D01*
X141754513Y-85021625D01*
X141754513Y-85021626D01*
X141806033Y-85191465D01*
X141823429Y-85368092D01*
X141806033Y-85544719D01*
X141771686Y-85657945D01*
X141754513Y-85714559D01*
X141680418Y-85853179D01*
X141670848Y-85871083D01*
X141641518Y-85906821D01*
X141558256Y-86008278D01*
X141456799Y-86091540D01*
X141421061Y-86120870D01*
X141421059Y-86120871D01*
X141264537Y-86204535D01*
X141207923Y-86221708D01*
X141094697Y-86256055D01*
X141028512Y-86262574D01*
X140962330Y-86269092D01*
X140873810Y-86269092D01*
X140807628Y-86262574D01*
X140741443Y-86256055D01*
X140628217Y-86221708D01*
X140571603Y-86204535D01*
X140415081Y-86120871D01*
X140415079Y-86120870D01*
X140379341Y-86091540D01*
X140277884Y-86008278D01*
X140194622Y-85906821D01*
X140165292Y-85871083D01*
X140155722Y-85853179D01*
X140081627Y-85714559D01*
X140064454Y-85657945D01*
X140030107Y-85544719D01*
X140012711Y-85368092D01*
X140030107Y-85191465D01*
X140081627Y-85021626D01*
X140081627Y-85021625D01*
X140165291Y-84865103D01*
X140165292Y-84865101D01*
X140194622Y-84829363D01*
X140277884Y-84727906D01*
X140387436Y-84638000D01*
X140415079Y-84615314D01*
X140478078Y-84581640D01*
X140571603Y-84531649D01*
X140628321Y-84514444D01*
X140741443Y-84480129D01*
X140807628Y-84473610D01*
X140873810Y-84467092D01*
X140962330Y-84467092D01*
X141028512Y-84473610D01*
X141028512Y-84473610D01*
G37*
G36*
X114307133Y-84465000D02*
X114394827Y-84473637D01*
X114508053Y-84507984D01*
X114564667Y-84525157D01*
X114703287Y-84599252D01*
X114721191Y-84608822D01*
X114729100Y-84615313D01*
X114858386Y-84721414D01*
X114941648Y-84822871D01*
X114970978Y-84858609D01*
X114970979Y-84858611D01*
X115054643Y-85015133D01*
X115060366Y-85034000D01*
X115106163Y-85184973D01*
X115123559Y-85361600D01*
X115106163Y-85538227D01*
X115071816Y-85651453D01*
X115054643Y-85708067D01*
X114980548Y-85846687D01*
X114970978Y-85864591D01*
X114965650Y-85871083D01*
X114858386Y-86001786D01*
X114756929Y-86085048D01*
X114721191Y-86114378D01*
X114721189Y-86114379D01*
X114564667Y-86198043D01*
X114543265Y-86204535D01*
X114394827Y-86249563D01*
X114328912Y-86256055D01*
X114262460Y-86262600D01*
X114173940Y-86262600D01*
X114107488Y-86256055D01*
X114041573Y-86249563D01*
X113893135Y-86204535D01*
X113871733Y-86198043D01*
X113715211Y-86114379D01*
X113715209Y-86114378D01*
X113679471Y-86085048D01*
X113578014Y-86001786D01*
X113470750Y-85871083D01*
X113465422Y-85864591D01*
X113455852Y-85846687D01*
X113381757Y-85708067D01*
X113364584Y-85651453D01*
X113330237Y-85538227D01*
X113312841Y-85361600D01*
X113330237Y-85184973D01*
X113376034Y-85034000D01*
X113381757Y-85015133D01*
X113465421Y-84858611D01*
X113465422Y-84858609D01*
X113494752Y-84822871D01*
X113578014Y-84721414D01*
X113707300Y-84615313D01*
X113715209Y-84608822D01*
X113733113Y-84599252D01*
X113871733Y-84525157D01*
X113928347Y-84507984D01*
X114041573Y-84473637D01*
X114129267Y-84465000D01*
X114173940Y-84460600D01*
X114262460Y-84460600D01*
X114307133Y-84465000D01*
X114307133Y-84465000D01*
G37*
G36*
X139402938Y-84467716D02*
X139423556Y-84473970D01*
X139442556Y-84484126D01*
X139459208Y-84497792D01*
X139472874Y-84514444D01*
X139483030Y-84533444D01*
X139489284Y-84554062D01*
X139492000Y-84581640D01*
X139492000Y-85090360D01*
X139489284Y-85117938D01*
X139483030Y-85138556D01*
X139472874Y-85157556D01*
X139459208Y-85174208D01*
X139442556Y-85187874D01*
X139423556Y-85198030D01*
X139402938Y-85204284D01*
X139375360Y-85207000D01*
X138916640Y-85207000D01*
X138889062Y-85204284D01*
X138868444Y-85198030D01*
X138849444Y-85187874D01*
X138832792Y-85174208D01*
X138819126Y-85157556D01*
X138808970Y-85138556D01*
X138802716Y-85117938D01*
X138800000Y-85090360D01*
X138800000Y-84581640D01*
X138802716Y-84554062D01*
X138808970Y-84533444D01*
X138819126Y-84514444D01*
X138832792Y-84497792D01*
X138849444Y-84484126D01*
X138868444Y-84473970D01*
X138889062Y-84467716D01*
X138916640Y-84465000D01*
X139375360Y-84465000D01*
X139402938Y-84467716D01*
X139402938Y-84467716D01*
G37*
G36*
X138432938Y-84467716D02*
X138453556Y-84473970D01*
X138472556Y-84484126D01*
X138489208Y-84497792D01*
X138502874Y-84514444D01*
X138513030Y-84533444D01*
X138519284Y-84554062D01*
X138522000Y-84581640D01*
X138522000Y-85090360D01*
X138519284Y-85117938D01*
X138513030Y-85138556D01*
X138502874Y-85157556D01*
X138489208Y-85174208D01*
X138472556Y-85187874D01*
X138453556Y-85198030D01*
X138432938Y-85204284D01*
X138405360Y-85207000D01*
X137946640Y-85207000D01*
X137919062Y-85204284D01*
X137898444Y-85198030D01*
X137879444Y-85187874D01*
X137862792Y-85174208D01*
X137849126Y-85157556D01*
X137838970Y-85138556D01*
X137832716Y-85117938D01*
X137830000Y-85090360D01*
X137830000Y-84581640D01*
X137832716Y-84554062D01*
X137838970Y-84533444D01*
X137849126Y-84514444D01*
X137862792Y-84497792D01*
X137879444Y-84484126D01*
X137898444Y-84473970D01*
X137919062Y-84467716D01*
X137946640Y-84465000D01*
X138405360Y-84465000D01*
X138432938Y-84467716D01*
X138432938Y-84467716D01*
G37*
G36*
X127148999Y-82130737D02*
X127163534Y-82135147D01*
X127176717Y-82140607D01*
X127200751Y-82145387D01*
X127225255Y-82145387D01*
X127249288Y-82140606D01*
X127271927Y-82131228D01*
X127273765Y-82130000D01*
X128505053Y-82130000D01*
X128517165Y-82136474D01*
X128540614Y-82143587D01*
X128565000Y-82145989D01*
X128589386Y-82143587D01*
X128607564Y-82137083D01*
X128607608Y-82137227D01*
X128629001Y-82130737D01*
X128645140Y-82129148D01*
X129182860Y-82129148D01*
X129201198Y-82130954D01*
X129213450Y-82131556D01*
X129231869Y-82131556D01*
X129254149Y-82133750D01*
X129338236Y-82150476D01*
X129359655Y-82156974D01*
X129438871Y-82189785D01*
X129458607Y-82200335D01*
X129529897Y-82247969D01*
X129547208Y-82262176D01*
X129607824Y-82322792D01*
X129622031Y-82340103D01*
X129669665Y-82411393D01*
X129680215Y-82431129D01*
X129713026Y-82510345D01*
X129719524Y-82531764D01*
X129736250Y-82615851D01*
X129738444Y-82638131D01*
X129738444Y-82656550D01*
X129739046Y-82668802D01*
X129740852Y-82687140D01*
X129740852Y-83174861D01*
X129739046Y-83193198D01*
X129738444Y-83205450D01*
X129738444Y-83223869D01*
X129736250Y-83246149D01*
X129719524Y-83330236D01*
X129713026Y-83351655D01*
X129680215Y-83430871D01*
X129669665Y-83450607D01*
X129622031Y-83521897D01*
X129607824Y-83539208D01*
X129547208Y-83599824D01*
X129529897Y-83614031D01*
X129458607Y-83661665D01*
X129438871Y-83672215D01*
X129359655Y-83705026D01*
X129338236Y-83711524D01*
X129254149Y-83728250D01*
X129231869Y-83730444D01*
X129213450Y-83730444D01*
X129201198Y-83731046D01*
X129182861Y-83732852D01*
X128645140Y-83732852D01*
X128629001Y-83731263D01*
X128614466Y-83726853D01*
X128601283Y-83721393D01*
X128577249Y-83716613D01*
X128552745Y-83716613D01*
X128528712Y-83721394D01*
X128506073Y-83730772D01*
X128504235Y-83732000D01*
X127272947Y-83732000D01*
X127260835Y-83725526D01*
X127237386Y-83718413D01*
X127213000Y-83716011D01*
X127188614Y-83718413D01*
X127170436Y-83724917D01*
X127170392Y-83724773D01*
X127148999Y-83731263D01*
X127132860Y-83732852D01*
X126595139Y-83732852D01*
X126576802Y-83731046D01*
X126564550Y-83730444D01*
X126546131Y-83730444D01*
X126523851Y-83728250D01*
X126439764Y-83711524D01*
X126418345Y-83705026D01*
X126339129Y-83672215D01*
X126319393Y-83661665D01*
X126248103Y-83614031D01*
X126230792Y-83599824D01*
X126170176Y-83539208D01*
X126155969Y-83521897D01*
X126108335Y-83450607D01*
X126097785Y-83430871D01*
X126064974Y-83351655D01*
X126058476Y-83330236D01*
X126041750Y-83246149D01*
X126039556Y-83223869D01*
X126039556Y-83205450D01*
X126038954Y-83193198D01*
X126037148Y-83174861D01*
X126037148Y-82687140D01*
X126038954Y-82668802D01*
X126039556Y-82656550D01*
X126039556Y-82638131D01*
X126041750Y-82615851D01*
X126058476Y-82531764D01*
X126064974Y-82510345D01*
X126097785Y-82431129D01*
X126108335Y-82411393D01*
X126155969Y-82340103D01*
X126170176Y-82322792D01*
X126230792Y-82262176D01*
X126248103Y-82247969D01*
X126319393Y-82200335D01*
X126339129Y-82189785D01*
X126418345Y-82156974D01*
X126439764Y-82150476D01*
X126523851Y-82133750D01*
X126546131Y-82131556D01*
X126564550Y-82131556D01*
X126576802Y-82130954D01*
X126595140Y-82129148D01*
X127132860Y-82129148D01*
X127148999Y-82130737D01*
X127148999Y-82130737D01*
G37*
G36*
X141028513Y-81933611D02*
X141094697Y-81940129D01*
X141207923Y-81974476D01*
X141264537Y-81991649D01*
X141403157Y-82065744D01*
X141421061Y-82075314D01*
X141456799Y-82104644D01*
X141558256Y-82187906D01*
X141641518Y-82289363D01*
X141670848Y-82325101D01*
X141670849Y-82325103D01*
X141754513Y-82481625D01*
X141754513Y-82481626D01*
X141806033Y-82651465D01*
X141823429Y-82828092D01*
X141806033Y-83004719D01*
X141771686Y-83117945D01*
X141754513Y-83174559D01*
X141738001Y-83205450D01*
X141670848Y-83331083D01*
X141653965Y-83351655D01*
X141558256Y-83468278D01*
X141477643Y-83534434D01*
X141421061Y-83580870D01*
X141421059Y-83580871D01*
X141264537Y-83664535D01*
X141210258Y-83681000D01*
X141094697Y-83716055D01*
X141040488Y-83721394D01*
X140962330Y-83729092D01*
X140873810Y-83729092D01*
X140795652Y-83721394D01*
X140741443Y-83716055D01*
X140625882Y-83681000D01*
X140571603Y-83664535D01*
X140415081Y-83580871D01*
X140415079Y-83580870D01*
X140358497Y-83534434D01*
X140277884Y-83468278D01*
X140182175Y-83351655D01*
X140165292Y-83331083D01*
X140098139Y-83205450D01*
X140081627Y-83174559D01*
X140064454Y-83117945D01*
X140030107Y-83004719D01*
X140012711Y-82828092D01*
X140030107Y-82651465D01*
X140081627Y-82481626D01*
X140081627Y-82481625D01*
X140165291Y-82325103D01*
X140165292Y-82325101D01*
X140194622Y-82289363D01*
X140277884Y-82187906D01*
X140379341Y-82104644D01*
X140415079Y-82075314D01*
X140432983Y-82065744D01*
X140571603Y-81991649D01*
X140628217Y-81974476D01*
X140741443Y-81940129D01*
X140807627Y-81933611D01*
X140873810Y-81927092D01*
X140962330Y-81927092D01*
X141028513Y-81933611D01*
X141028513Y-81933611D01*
G37*
G36*
X114328373Y-81927092D02*
X114394827Y-81933637D01*
X114508053Y-81967984D01*
X114564667Y-81985157D01*
X114576812Y-81991649D01*
X114721191Y-82068822D01*
X114729100Y-82075313D01*
X114858386Y-82181414D01*
X114941648Y-82282871D01*
X114970978Y-82318609D01*
X114970979Y-82318611D01*
X115054643Y-82475133D01*
X115070031Y-82525860D01*
X115106163Y-82644973D01*
X115123559Y-82821600D01*
X115106163Y-82998227D01*
X115071816Y-83111453D01*
X115054643Y-83168067D01*
X115005786Y-83259471D01*
X114970978Y-83324591D01*
X114948767Y-83351655D01*
X114858386Y-83461786D01*
X114756929Y-83545048D01*
X114721191Y-83574378D01*
X114721189Y-83574379D01*
X114564667Y-83658043D01*
X114517947Y-83672215D01*
X114394827Y-83709563D01*
X114329358Y-83716011D01*
X114262460Y-83722600D01*
X114173940Y-83722600D01*
X114107042Y-83716011D01*
X114041573Y-83709563D01*
X113918453Y-83672215D01*
X113871733Y-83658043D01*
X113715211Y-83574379D01*
X113715209Y-83574378D01*
X113679471Y-83545048D01*
X113578014Y-83461786D01*
X113487633Y-83351655D01*
X113465422Y-83324591D01*
X113430614Y-83259471D01*
X113381757Y-83168067D01*
X113364584Y-83111453D01*
X113330237Y-82998227D01*
X113312841Y-82821600D01*
X113330237Y-82644973D01*
X113366369Y-82525860D01*
X113381757Y-82475133D01*
X113465421Y-82318611D01*
X113465422Y-82318609D01*
X113494752Y-82282871D01*
X113578014Y-82181414D01*
X113707300Y-82075313D01*
X113715209Y-82068822D01*
X113859588Y-81991649D01*
X113871733Y-81985157D01*
X113928347Y-81967984D01*
X114041573Y-81933637D01*
X114108027Y-81927092D01*
X114173940Y-81920600D01*
X114262460Y-81920600D01*
X114328373Y-81927092D01*
X114328373Y-81927092D01*
G37*
G36*
X128532198Y-78667954D02*
X128544450Y-78668556D01*
X128562869Y-78668556D01*
X128585149Y-78670750D01*
X128669236Y-78687476D01*
X128690655Y-78693974D01*
X128769871Y-78726785D01*
X128789607Y-78737335D01*
X128860897Y-78784969D01*
X128878208Y-78799176D01*
X128938824Y-78859792D01*
X128953031Y-78877103D01*
X129000665Y-78948393D01*
X129011215Y-78968129D01*
X129044026Y-79047345D01*
X129050524Y-79068764D01*
X129067250Y-79152851D01*
X129069444Y-79175131D01*
X129069444Y-79193550D01*
X129070046Y-79205802D01*
X129071852Y-79224140D01*
X129071852Y-79711860D01*
X129070263Y-79727999D01*
X129067347Y-79737611D01*
X129062612Y-79746469D01*
X129056237Y-79754237D01*
X129043798Y-79764446D01*
X129033432Y-79771372D01*
X129016105Y-79788698D01*
X129002490Y-79809073D01*
X128993112Y-79831711D01*
X128988331Y-79855745D01*
X128988331Y-79880249D01*
X128993111Y-79904283D01*
X129002487Y-79926922D01*
X129016101Y-79947297D01*
X129033427Y-79964624D01*
X129043796Y-79971552D01*
X129056237Y-79981763D01*
X129062612Y-79989531D01*
X129067347Y-79998389D01*
X129070263Y-80008001D01*
X129071852Y-80024140D01*
X129071852Y-80511861D01*
X129070046Y-80530198D01*
X129069444Y-80542450D01*
X129069444Y-80560869D01*
X129067250Y-80583149D01*
X129050524Y-80667236D01*
X129044026Y-80688655D01*
X129011215Y-80767871D01*
X129000665Y-80787607D01*
X128953031Y-80858897D01*
X128938824Y-80876208D01*
X128878208Y-80936824D01*
X128860897Y-80951031D01*
X128789607Y-80998665D01*
X128769871Y-81009215D01*
X128690655Y-81042026D01*
X128669236Y-81048524D01*
X128585149Y-81065250D01*
X128562869Y-81067444D01*
X128544450Y-81067444D01*
X128532198Y-81068046D01*
X128513861Y-81069852D01*
X128026139Y-81069852D01*
X128007802Y-81068046D01*
X127995550Y-81067444D01*
X127977131Y-81067444D01*
X127954851Y-81065250D01*
X127870764Y-81048524D01*
X127849345Y-81042026D01*
X127770129Y-81009215D01*
X127750393Y-80998665D01*
X127679103Y-80951031D01*
X127661792Y-80936824D01*
X127601176Y-80876208D01*
X127586969Y-80858897D01*
X127539335Y-80787607D01*
X127528785Y-80767871D01*
X127495974Y-80688655D01*
X127489476Y-80667236D01*
X127472750Y-80583149D01*
X127470556Y-80560869D01*
X127470556Y-80542450D01*
X127469954Y-80530198D01*
X127468148Y-80511861D01*
X127468148Y-80024140D01*
X127469737Y-80008001D01*
X127472653Y-79998389D01*
X127477388Y-79989531D01*
X127483763Y-79981763D01*
X127496202Y-79971554D01*
X127506568Y-79964628D01*
X127523895Y-79947302D01*
X127537510Y-79926927D01*
X127546888Y-79904289D01*
X127551669Y-79880255D01*
X127551669Y-79855751D01*
X127546889Y-79831717D01*
X127537513Y-79809078D01*
X127523899Y-79788703D01*
X127506573Y-79771376D01*
X127496204Y-79764448D01*
X127483763Y-79754237D01*
X127477388Y-79746469D01*
X127472653Y-79737611D01*
X127469737Y-79727999D01*
X127468148Y-79711860D01*
X127468148Y-79224140D01*
X127469954Y-79205802D01*
X127470556Y-79193550D01*
X127470556Y-79175131D01*
X127472750Y-79152851D01*
X127489476Y-79068764D01*
X127495974Y-79047345D01*
X127528785Y-78968129D01*
X127539335Y-78948393D01*
X127586969Y-78877103D01*
X127601176Y-78859792D01*
X127661792Y-78799176D01*
X127679103Y-78784969D01*
X127750393Y-78737335D01*
X127770129Y-78726785D01*
X127849345Y-78693974D01*
X127870764Y-78687476D01*
X127954851Y-78670750D01*
X127977131Y-78668556D01*
X127995550Y-78668556D01*
X128007802Y-78667954D01*
X128026140Y-78666148D01*
X128513860Y-78666148D01*
X128532198Y-78667954D01*
X128532198Y-78667954D01*
G37*
G36*
X125481218Y-76032078D02*
X125585082Y-76063584D01*
X125680803Y-76114749D01*
X125764704Y-76183604D01*
X125833559Y-76267505D01*
X125884724Y-76363226D01*
X125916230Y-76467090D01*
X125926869Y-76575105D01*
X125916230Y-76683120D01*
X125884724Y-76786984D01*
X125833559Y-76882705D01*
X125764704Y-76966606D01*
X125680803Y-77035461D01*
X125585082Y-77086626D01*
X125572345Y-77090490D01*
X125549710Y-77099865D01*
X125529336Y-77113479D01*
X125512009Y-77130806D01*
X125498395Y-77151181D01*
X125489017Y-77173820D01*
X125484237Y-77197853D01*
X125484237Y-77222357D01*
X125489018Y-77246391D01*
X125498395Y-77269030D01*
X125512009Y-77289404D01*
X125529336Y-77306731D01*
X125549711Y-77320345D01*
X125572345Y-77329720D01*
X125585082Y-77333584D01*
X125680803Y-77384749D01*
X125764704Y-77453604D01*
X125833559Y-77537505D01*
X125884724Y-77633226D01*
X125916230Y-77737090D01*
X125926869Y-77845105D01*
X125916230Y-77953120D01*
X125884724Y-78056984D01*
X125833559Y-78152705D01*
X125764704Y-78236606D01*
X125680803Y-78305461D01*
X125585082Y-78356626D01*
X125572345Y-78360490D01*
X125549710Y-78369865D01*
X125529336Y-78383479D01*
X125512009Y-78400806D01*
X125498395Y-78421181D01*
X125489017Y-78443820D01*
X125484237Y-78467853D01*
X125484237Y-78492357D01*
X125489018Y-78516391D01*
X125498395Y-78539030D01*
X125512009Y-78559404D01*
X125529336Y-78576731D01*
X125549711Y-78590345D01*
X125572345Y-78599720D01*
X125585082Y-78603584D01*
X125680803Y-78654749D01*
X125764704Y-78723604D01*
X125833559Y-78807505D01*
X125884724Y-78903226D01*
X125916230Y-79007090D01*
X125926869Y-79115105D01*
X125916230Y-79223120D01*
X125884724Y-79326984D01*
X125833559Y-79422705D01*
X125764704Y-79506606D01*
X125680803Y-79575461D01*
X125637008Y-79598871D01*
X125616642Y-79612479D01*
X125599314Y-79629806D01*
X125585701Y-79650181D01*
X125576323Y-79672820D01*
X125571543Y-79696853D01*
X125571543Y-79721357D01*
X125576324Y-79745391D01*
X125585701Y-79768030D01*
X125599315Y-79788404D01*
X125616642Y-79805732D01*
X125637017Y-79819345D01*
X125659656Y-79828723D01*
X125695941Y-79834105D01*
X125924203Y-79834105D01*
X125924203Y-80936105D01*
X124822203Y-80936105D01*
X124822203Y-79834105D01*
X125050465Y-79834105D01*
X125074851Y-79831703D01*
X125098300Y-79824590D01*
X125119911Y-79813039D01*
X125138853Y-79797493D01*
X125154399Y-79778551D01*
X125165950Y-79756940D01*
X125173063Y-79733491D01*
X125175465Y-79709105D01*
X125173063Y-79684719D01*
X125165950Y-79661270D01*
X125154399Y-79639659D01*
X125138853Y-79620717D01*
X125109395Y-79598869D01*
X125065603Y-79575461D01*
X124981702Y-79506606D01*
X124912847Y-79422705D01*
X124861682Y-79326984D01*
X124830176Y-79223120D01*
X124819537Y-79115105D01*
X124830176Y-79007090D01*
X124861682Y-78903226D01*
X124912847Y-78807505D01*
X124981702Y-78723604D01*
X125065603Y-78654749D01*
X125161324Y-78603584D01*
X125174061Y-78599720D01*
X125196696Y-78590345D01*
X125217070Y-78576731D01*
X125234397Y-78559404D01*
X125248011Y-78539029D01*
X125257389Y-78516390D01*
X125262169Y-78492357D01*
X125262169Y-78467853D01*
X125257388Y-78443819D01*
X125248011Y-78421180D01*
X125234397Y-78400806D01*
X125217070Y-78383479D01*
X125196695Y-78369865D01*
X125174061Y-78360490D01*
X125161324Y-78356626D01*
X125065603Y-78305461D01*
X124981702Y-78236606D01*
X124912847Y-78152705D01*
X124861682Y-78056984D01*
X124830176Y-77953120D01*
X124819537Y-77845105D01*
X124830176Y-77737090D01*
X124861682Y-77633226D01*
X124912847Y-77537505D01*
X124981702Y-77453604D01*
X125065603Y-77384749D01*
X125161324Y-77333584D01*
X125174061Y-77329720D01*
X125196696Y-77320345D01*
X125217070Y-77306731D01*
X125234397Y-77289404D01*
X125248011Y-77269029D01*
X125257389Y-77246390D01*
X125262169Y-77222357D01*
X125262169Y-77197853D01*
X125257388Y-77173819D01*
X125248011Y-77151180D01*
X125234397Y-77130806D01*
X125217070Y-77113479D01*
X125196695Y-77099865D01*
X125174061Y-77090490D01*
X125161324Y-77086626D01*
X125065603Y-77035461D01*
X124981702Y-76966606D01*
X124912847Y-76882705D01*
X124861682Y-76786984D01*
X124830176Y-76683120D01*
X124819537Y-76575105D01*
X124830176Y-76467090D01*
X124861682Y-76363226D01*
X124912847Y-76267505D01*
X124981702Y-76183604D01*
X125065603Y-76114749D01*
X125161324Y-76063584D01*
X125265188Y-76032078D01*
X125346136Y-76024105D01*
X125400270Y-76024105D01*
X125481218Y-76032078D01*
X125481218Y-76032078D01*
G37*
G36*
X123339794Y-78910190D02*
X123373772Y-78920498D01*
X123405090Y-78937238D01*
X123432542Y-78959766D01*
X123455070Y-78987218D01*
X123471810Y-79018536D01*
X123482118Y-79052514D01*
X123486203Y-79093995D01*
X123486203Y-79695215D01*
X123482118Y-79736696D01*
X123471810Y-79770674D01*
X123455070Y-79801992D01*
X123432542Y-79829444D01*
X123405090Y-79851972D01*
X123373772Y-79868712D01*
X123339794Y-79879020D01*
X123298313Y-79883105D01*
X122622093Y-79883105D01*
X122580612Y-79879020D01*
X122546634Y-79868712D01*
X122515316Y-79851972D01*
X122487864Y-79829444D01*
X122465336Y-79801992D01*
X122448596Y-79770674D01*
X122438288Y-79736696D01*
X122434203Y-79695215D01*
X122434203Y-79093995D01*
X122438288Y-79052514D01*
X122448596Y-79018536D01*
X122465336Y-78987218D01*
X122487864Y-78959766D01*
X122515316Y-78937238D01*
X122546634Y-78920498D01*
X122580612Y-78910190D01*
X122622093Y-78906105D01*
X123298313Y-78906105D01*
X123339794Y-78910190D01*
X123339794Y-78910190D01*
G37*
G36*
X123339794Y-77335190D02*
X123373772Y-77345498D01*
X123405090Y-77362238D01*
X123432542Y-77384766D01*
X123455070Y-77412218D01*
X123471810Y-77443536D01*
X123482118Y-77477514D01*
X123486203Y-77518995D01*
X123486203Y-78120215D01*
X123482118Y-78161696D01*
X123471810Y-78195674D01*
X123455070Y-78226992D01*
X123432542Y-78254444D01*
X123405090Y-78276972D01*
X123373772Y-78293712D01*
X123339794Y-78304020D01*
X123298313Y-78308105D01*
X122622093Y-78308105D01*
X122580612Y-78304020D01*
X122546634Y-78293712D01*
X122515316Y-78276972D01*
X122487864Y-78254444D01*
X122465336Y-78226992D01*
X122448596Y-78195674D01*
X122438288Y-78161696D01*
X122434203Y-78120215D01*
X122434203Y-77518995D01*
X122438288Y-77477514D01*
X122448596Y-77443536D01*
X122465336Y-77412218D01*
X122487864Y-77384766D01*
X122515316Y-77362238D01*
X122546634Y-77345498D01*
X122580612Y-77335190D01*
X122622093Y-77331105D01*
X123298313Y-77331105D01*
X123339794Y-77335190D01*
X123339794Y-77335190D01*
G37*
G36*
X128532198Y-75238954D02*
X128544450Y-75239556D01*
X128562869Y-75239556D01*
X128585149Y-75241750D01*
X128669236Y-75258476D01*
X128690655Y-75264974D01*
X128769871Y-75297785D01*
X128789607Y-75308335D01*
X128860897Y-75355969D01*
X128878208Y-75370176D01*
X128938824Y-75430792D01*
X128953031Y-75448103D01*
X129000665Y-75519393D01*
X129011215Y-75539129D01*
X129044026Y-75618345D01*
X129050524Y-75639764D01*
X129067250Y-75723851D01*
X129069444Y-75746131D01*
X129069444Y-75764550D01*
X129070046Y-75776802D01*
X129071852Y-75795140D01*
X129071852Y-76282860D01*
X129070263Y-76298999D01*
X129067347Y-76308611D01*
X129062612Y-76317469D01*
X129056237Y-76325237D01*
X129043798Y-76335446D01*
X129033432Y-76342372D01*
X129016105Y-76359698D01*
X129002490Y-76380073D01*
X128993112Y-76402711D01*
X128988331Y-76426745D01*
X128988331Y-76451249D01*
X128993111Y-76475283D01*
X129002487Y-76497922D01*
X129016101Y-76518297D01*
X129033427Y-76535624D01*
X129043796Y-76542552D01*
X129056237Y-76552763D01*
X129062612Y-76560531D01*
X129067347Y-76569389D01*
X129070263Y-76579001D01*
X129071852Y-76595140D01*
X129071852Y-77082861D01*
X129070046Y-77101198D01*
X129069444Y-77113450D01*
X129069444Y-77131869D01*
X129067250Y-77154149D01*
X129050524Y-77238236D01*
X129044026Y-77259655D01*
X129011215Y-77338871D01*
X129000665Y-77358607D01*
X128953031Y-77429897D01*
X128938824Y-77447208D01*
X128878208Y-77507824D01*
X128860897Y-77522031D01*
X128789607Y-77569665D01*
X128769871Y-77580215D01*
X128690655Y-77613026D01*
X128669236Y-77619524D01*
X128585149Y-77636250D01*
X128562869Y-77638444D01*
X128544450Y-77638444D01*
X128532198Y-77639046D01*
X128513861Y-77640852D01*
X128026139Y-77640852D01*
X128007802Y-77639046D01*
X127995550Y-77638444D01*
X127977131Y-77638444D01*
X127954851Y-77636250D01*
X127870764Y-77619524D01*
X127849345Y-77613026D01*
X127770129Y-77580215D01*
X127750393Y-77569665D01*
X127679103Y-77522031D01*
X127661792Y-77507824D01*
X127601176Y-77447208D01*
X127586969Y-77429897D01*
X127539335Y-77358607D01*
X127528785Y-77338871D01*
X127495974Y-77259655D01*
X127489476Y-77238236D01*
X127472750Y-77154149D01*
X127470556Y-77131869D01*
X127470556Y-77113450D01*
X127469954Y-77101198D01*
X127468148Y-77082861D01*
X127468148Y-76595140D01*
X127469737Y-76579001D01*
X127472653Y-76569389D01*
X127477388Y-76560531D01*
X127483763Y-76552763D01*
X127496202Y-76542554D01*
X127506568Y-76535628D01*
X127523895Y-76518302D01*
X127537510Y-76497927D01*
X127546888Y-76475289D01*
X127551669Y-76451255D01*
X127551669Y-76426751D01*
X127546889Y-76402717D01*
X127537513Y-76380078D01*
X127523899Y-76359703D01*
X127506573Y-76342376D01*
X127496204Y-76335448D01*
X127483763Y-76325237D01*
X127477388Y-76317469D01*
X127472653Y-76308611D01*
X127469737Y-76298999D01*
X127468148Y-76282860D01*
X127468148Y-75795140D01*
X127469954Y-75776802D01*
X127470556Y-75764550D01*
X127470556Y-75746131D01*
X127472750Y-75723851D01*
X127489476Y-75639764D01*
X127495974Y-75618345D01*
X127528785Y-75539129D01*
X127539335Y-75519393D01*
X127586969Y-75448103D01*
X127601176Y-75430792D01*
X127661792Y-75370176D01*
X127679103Y-75355969D01*
X127750393Y-75308335D01*
X127770129Y-75297785D01*
X127849345Y-75264974D01*
X127870764Y-75258476D01*
X127954851Y-75241750D01*
X127977131Y-75239556D01*
X127995550Y-75239556D01*
X128007802Y-75238954D01*
X128026140Y-75237148D01*
X128513860Y-75237148D01*
X128532198Y-75238954D01*
X128532198Y-75238954D01*
G37*
G36*
X140251000Y-71671000D02*
X140022738Y-71671000D01*
X139998352Y-71673402D01*
X139974903Y-71680515D01*
X139953292Y-71692066D01*
X139934350Y-71707612D01*
X139918804Y-71726554D01*
X139907253Y-71748165D01*
X139900140Y-71771614D01*
X139897738Y-71796000D01*
X139900140Y-71820386D01*
X139907253Y-71843835D01*
X139918804Y-71865446D01*
X139934350Y-71884388D01*
X139963808Y-71906236D01*
X140007600Y-71929644D01*
X140091501Y-71998499D01*
X140160356Y-72082400D01*
X140211521Y-72178121D01*
X140243027Y-72281985D01*
X140253666Y-72390000D01*
X140243027Y-72498015D01*
X140211521Y-72601879D01*
X140160356Y-72697600D01*
X140091501Y-72781501D01*
X140007600Y-72850356D01*
X139911879Y-72901521D01*
X139899142Y-72905385D01*
X139876507Y-72914760D01*
X139856133Y-72928374D01*
X139838806Y-72945701D01*
X139825192Y-72966076D01*
X139815814Y-72988715D01*
X139811034Y-73012748D01*
X139811034Y-73037252D01*
X139815815Y-73061286D01*
X139825192Y-73083925D01*
X139838806Y-73104299D01*
X139856133Y-73121626D01*
X139876508Y-73135240D01*
X139899142Y-73144615D01*
X139911879Y-73148479D01*
X140007600Y-73199644D01*
X140091501Y-73268499D01*
X140160356Y-73352400D01*
X140211521Y-73448121D01*
X140243027Y-73551985D01*
X140253666Y-73660000D01*
X140243027Y-73768015D01*
X140211521Y-73871879D01*
X140160356Y-73967600D01*
X140091501Y-74051501D01*
X140007600Y-74120356D01*
X139911879Y-74171521D01*
X139899142Y-74175385D01*
X139876507Y-74184760D01*
X139856133Y-74198374D01*
X139838806Y-74215701D01*
X139825192Y-74236076D01*
X139815814Y-74258715D01*
X139811034Y-74282748D01*
X139811034Y-74307252D01*
X139815815Y-74331286D01*
X139825192Y-74353925D01*
X139838806Y-74374299D01*
X139856133Y-74391626D01*
X139876508Y-74405240D01*
X139899142Y-74414615D01*
X139911879Y-74418479D01*
X140007600Y-74469644D01*
X140091501Y-74538499D01*
X140160356Y-74622400D01*
X140211521Y-74718121D01*
X140243027Y-74821985D01*
X140253666Y-74930000D01*
X140243027Y-75038015D01*
X140211521Y-75141879D01*
X140160356Y-75237600D01*
X140091501Y-75321501D01*
X140007600Y-75390356D01*
X139911879Y-75441521D01*
X139808015Y-75473027D01*
X139727067Y-75481000D01*
X139672933Y-75481000D01*
X139591985Y-75473027D01*
X139488121Y-75441521D01*
X139392400Y-75390356D01*
X139308499Y-75321501D01*
X139239644Y-75237600D01*
X139188479Y-75141879D01*
X139156973Y-75038015D01*
X139146334Y-74930000D01*
X139156973Y-74821985D01*
X139188479Y-74718121D01*
X139239644Y-74622400D01*
X139308499Y-74538499D01*
X139392400Y-74469644D01*
X139488121Y-74418479D01*
X139500858Y-74414615D01*
X139523493Y-74405240D01*
X139543867Y-74391626D01*
X139561194Y-74374299D01*
X139574808Y-74353924D01*
X139584186Y-74331285D01*
X139588966Y-74307252D01*
X139588966Y-74282748D01*
X139584185Y-74258714D01*
X139574808Y-74236075D01*
X139561194Y-74215701D01*
X139543867Y-74198374D01*
X139523492Y-74184760D01*
X139500858Y-74175385D01*
X139488121Y-74171521D01*
X139392400Y-74120356D01*
X139308499Y-74051501D01*
X139239644Y-73967600D01*
X139188479Y-73871879D01*
X139156973Y-73768015D01*
X139146334Y-73660000D01*
X139156973Y-73551985D01*
X139188479Y-73448121D01*
X139239644Y-73352400D01*
X139308499Y-73268499D01*
X139392400Y-73199644D01*
X139488121Y-73148479D01*
X139500858Y-73144615D01*
X139523493Y-73135240D01*
X139543867Y-73121626D01*
X139561194Y-73104299D01*
X139574808Y-73083924D01*
X139584186Y-73061285D01*
X139588966Y-73037252D01*
X139588966Y-73012748D01*
X139584185Y-72988714D01*
X139574808Y-72966075D01*
X139561194Y-72945701D01*
X139543867Y-72928374D01*
X139523492Y-72914760D01*
X139500858Y-72905385D01*
X139488121Y-72901521D01*
X139392400Y-72850356D01*
X139308499Y-72781501D01*
X139239644Y-72697600D01*
X139188479Y-72601879D01*
X139156973Y-72498015D01*
X139146334Y-72390000D01*
X139156973Y-72281985D01*
X139188479Y-72178121D01*
X139239644Y-72082400D01*
X139308499Y-71998499D01*
X139392400Y-71929644D01*
X139436195Y-71906234D01*
X139456561Y-71892626D01*
X139473889Y-71875299D01*
X139487502Y-71854924D01*
X139496880Y-71832285D01*
X139501660Y-71808252D01*
X139501660Y-71783748D01*
X139496879Y-71759714D01*
X139487502Y-71737075D01*
X139473888Y-71716701D01*
X139456561Y-71699373D01*
X139436186Y-71685760D01*
X139413547Y-71676382D01*
X139377262Y-71671000D01*
X139149000Y-71671000D01*
X139149000Y-70569000D01*
X140251000Y-70569000D01*
X140251000Y-71671000D01*
X140251000Y-71671000D01*
G37*
G36*
X116121000Y-71671000D02*
X115892738Y-71671000D01*
X115868352Y-71673402D01*
X115844903Y-71680515D01*
X115823292Y-71692066D01*
X115804350Y-71707612D01*
X115788804Y-71726554D01*
X115777253Y-71748165D01*
X115770140Y-71771614D01*
X115767738Y-71796000D01*
X115770140Y-71820386D01*
X115777253Y-71843835D01*
X115788804Y-71865446D01*
X115804350Y-71884388D01*
X115833808Y-71906236D01*
X115877600Y-71929644D01*
X115961501Y-71998499D01*
X116030356Y-72082400D01*
X116081521Y-72178121D01*
X116113027Y-72281985D01*
X116123666Y-72390000D01*
X116113027Y-72498015D01*
X116081521Y-72601879D01*
X116030356Y-72697600D01*
X115961501Y-72781501D01*
X115877600Y-72850356D01*
X115781879Y-72901521D01*
X115769142Y-72905385D01*
X115746507Y-72914760D01*
X115726133Y-72928374D01*
X115708806Y-72945701D01*
X115695192Y-72966076D01*
X115685814Y-72988715D01*
X115681034Y-73012748D01*
X115681034Y-73037252D01*
X115685815Y-73061286D01*
X115695192Y-73083925D01*
X115708806Y-73104299D01*
X115726133Y-73121626D01*
X115746508Y-73135240D01*
X115769142Y-73144615D01*
X115781879Y-73148479D01*
X115877600Y-73199644D01*
X115961501Y-73268499D01*
X116030356Y-73352400D01*
X116081521Y-73448121D01*
X116113027Y-73551985D01*
X116123666Y-73660000D01*
X116113027Y-73768015D01*
X116081521Y-73871879D01*
X116030356Y-73967600D01*
X115961501Y-74051501D01*
X115877600Y-74120356D01*
X115781879Y-74171521D01*
X115769142Y-74175385D01*
X115746507Y-74184760D01*
X115726133Y-74198374D01*
X115708806Y-74215701D01*
X115695192Y-74236076D01*
X115685814Y-74258715D01*
X115681034Y-74282748D01*
X115681034Y-74307252D01*
X115685815Y-74331286D01*
X115695192Y-74353925D01*
X115708806Y-74374299D01*
X115726133Y-74391626D01*
X115746508Y-74405240D01*
X115769142Y-74414615D01*
X115781879Y-74418479D01*
X115877600Y-74469644D01*
X115961501Y-74538499D01*
X116030356Y-74622400D01*
X116081521Y-74718121D01*
X116113027Y-74821985D01*
X116123666Y-74930000D01*
X116113027Y-75038015D01*
X116081521Y-75141879D01*
X116030356Y-75237600D01*
X115961501Y-75321501D01*
X115877600Y-75390356D01*
X115781879Y-75441521D01*
X115678015Y-75473027D01*
X115597067Y-75481000D01*
X115542933Y-75481000D01*
X115461985Y-75473027D01*
X115358121Y-75441521D01*
X115262400Y-75390356D01*
X115178499Y-75321501D01*
X115109644Y-75237600D01*
X115058479Y-75141879D01*
X115026973Y-75038015D01*
X115016334Y-74930000D01*
X115026973Y-74821985D01*
X115058479Y-74718121D01*
X115109644Y-74622400D01*
X115178499Y-74538499D01*
X115262400Y-74469644D01*
X115358121Y-74418479D01*
X115370858Y-74414615D01*
X115393493Y-74405240D01*
X115413867Y-74391626D01*
X115431194Y-74374299D01*
X115444808Y-74353924D01*
X115454186Y-74331285D01*
X115458966Y-74307252D01*
X115458966Y-74282748D01*
X115454185Y-74258714D01*
X115444808Y-74236075D01*
X115431194Y-74215701D01*
X115413867Y-74198374D01*
X115393492Y-74184760D01*
X115370858Y-74175385D01*
X115358121Y-74171521D01*
X115262400Y-74120356D01*
X115178499Y-74051501D01*
X115109644Y-73967600D01*
X115058479Y-73871879D01*
X115026973Y-73768015D01*
X115016334Y-73660000D01*
X115026973Y-73551985D01*
X115058479Y-73448121D01*
X115109644Y-73352400D01*
X115178499Y-73268499D01*
X115262400Y-73199644D01*
X115358121Y-73148479D01*
X115370858Y-73144615D01*
X115393493Y-73135240D01*
X115413867Y-73121626D01*
X115431194Y-73104299D01*
X115444808Y-73083924D01*
X115454186Y-73061285D01*
X115458966Y-73037252D01*
X115458966Y-73012748D01*
X115454185Y-72988714D01*
X115444808Y-72966075D01*
X115431194Y-72945701D01*
X115413867Y-72928374D01*
X115393492Y-72914760D01*
X115370858Y-72905385D01*
X115358121Y-72901521D01*
X115262400Y-72850356D01*
X115178499Y-72781501D01*
X115109644Y-72697600D01*
X115058479Y-72601879D01*
X115026973Y-72498015D01*
X115016334Y-72390000D01*
X115026973Y-72281985D01*
X115058479Y-72178121D01*
X115109644Y-72082400D01*
X115178499Y-71998499D01*
X115262400Y-71929644D01*
X115306195Y-71906234D01*
X115326561Y-71892626D01*
X115343889Y-71875299D01*
X115357502Y-71854924D01*
X115366880Y-71832285D01*
X115371660Y-71808252D01*
X115371660Y-71783748D01*
X115366879Y-71759714D01*
X115357502Y-71737075D01*
X115343888Y-71716701D01*
X115326561Y-71699373D01*
X115306186Y-71685760D01*
X115283547Y-71676382D01*
X115247262Y-71671000D01*
X115019000Y-71671000D01*
X115019000Y-70569000D01*
X116121000Y-70569000D01*
X116121000Y-71671000D01*
X116121000Y-71671000D01*
G37*
G36*
X136355000Y-68232000D02*
X135153000Y-68232000D01*
X135153000Y-65880000D01*
X136355000Y-65880000D01*
X136355000Y-68232000D01*
X136355000Y-68232000D01*
G37*
G36*
X132055000Y-68232000D02*
X130853000Y-68232000D01*
X130853000Y-65880000D01*
X132055000Y-65880000D01*
X132055000Y-68232000D01*
X132055000Y-68232000D01*
G37*
G36*
X118920938Y-65925716D02*
X118941556Y-65931970D01*
X118960556Y-65942126D01*
X118977208Y-65955792D01*
X118990874Y-65972444D01*
X119001030Y-65991444D01*
X119007284Y-66012062D01*
X119010000Y-66039640D01*
X119010000Y-66548360D01*
X119007284Y-66575938D01*
X119001030Y-66596556D01*
X118990874Y-66615556D01*
X118977208Y-66632208D01*
X118960556Y-66645874D01*
X118941556Y-66656030D01*
X118920938Y-66662284D01*
X118893360Y-66665000D01*
X118434640Y-66665000D01*
X118407062Y-66662284D01*
X118386444Y-66656030D01*
X118367444Y-66645874D01*
X118350792Y-66632208D01*
X118337126Y-66615556D01*
X118326970Y-66596556D01*
X118320716Y-66575938D01*
X118318000Y-66548360D01*
X118318000Y-66039640D01*
X118320716Y-66012062D01*
X118326970Y-65991444D01*
X118337126Y-65972444D01*
X118350792Y-65955792D01*
X118367444Y-65942126D01*
X118386444Y-65931970D01*
X118407062Y-65925716D01*
X118434640Y-65923000D01*
X118893360Y-65923000D01*
X118920938Y-65925716D01*
X118920938Y-65925716D01*
G37*
G36*
X119890938Y-65925716D02*
X119911556Y-65931970D01*
X119930556Y-65942126D01*
X119947208Y-65955792D01*
X119960874Y-65972444D01*
X119971030Y-65991444D01*
X119977284Y-66012062D01*
X119980000Y-66039640D01*
X119980000Y-66548360D01*
X119977284Y-66575938D01*
X119971030Y-66596556D01*
X119960874Y-66615556D01*
X119947208Y-66632208D01*
X119930556Y-66645874D01*
X119911556Y-66656030D01*
X119890938Y-66662284D01*
X119863360Y-66665000D01*
X119404640Y-66665000D01*
X119377062Y-66662284D01*
X119356444Y-66656030D01*
X119337444Y-66645874D01*
X119320792Y-66632208D01*
X119307126Y-66615556D01*
X119296970Y-66596556D01*
X119290716Y-66575938D01*
X119288000Y-66548360D01*
X119288000Y-66039640D01*
X119290716Y-66012062D01*
X119296970Y-65991444D01*
X119307126Y-65972444D01*
X119320792Y-65955792D01*
X119337444Y-65942126D01*
X119356444Y-65931970D01*
X119377062Y-65925716D01*
X119404640Y-65923000D01*
X119863360Y-65923000D01*
X119890938Y-65925716D01*
X119890938Y-65925716D01*
G37*
G36*
X119890938Y-64909716D02*
X119911556Y-64915970D01*
X119930556Y-64926126D01*
X119947208Y-64939792D01*
X119960874Y-64956444D01*
X119971030Y-64975444D01*
X119977284Y-64996062D01*
X119980000Y-65023640D01*
X119980000Y-65532360D01*
X119977284Y-65559938D01*
X119971030Y-65580556D01*
X119960874Y-65599556D01*
X119947208Y-65616208D01*
X119930556Y-65629874D01*
X119911556Y-65640030D01*
X119890938Y-65646284D01*
X119863360Y-65649000D01*
X119404640Y-65649000D01*
X119377062Y-65646284D01*
X119356444Y-65640030D01*
X119337444Y-65629874D01*
X119320792Y-65616208D01*
X119307126Y-65599556D01*
X119296970Y-65580556D01*
X119290716Y-65559938D01*
X119288000Y-65532360D01*
X119288000Y-65023640D01*
X119290716Y-64996062D01*
X119296970Y-64975444D01*
X119307126Y-64956444D01*
X119320792Y-64939792D01*
X119337444Y-64926126D01*
X119356444Y-64915970D01*
X119377062Y-64909716D01*
X119404640Y-64907000D01*
X119863360Y-64907000D01*
X119890938Y-64909716D01*
X119890938Y-64909716D01*
G37*
G36*
X118920938Y-64909716D02*
X118941556Y-64915970D01*
X118960556Y-64926126D01*
X118977208Y-64939792D01*
X118990874Y-64956444D01*
X119001030Y-64975444D01*
X119007284Y-64996062D01*
X119010000Y-65023640D01*
X119010000Y-65532360D01*
X119007284Y-65559938D01*
X119001030Y-65580556D01*
X118990874Y-65599556D01*
X118977208Y-65616208D01*
X118960556Y-65629874D01*
X118941556Y-65640030D01*
X118920938Y-65646284D01*
X118893360Y-65649000D01*
X118434640Y-65649000D01*
X118407062Y-65646284D01*
X118386444Y-65640030D01*
X118367444Y-65629874D01*
X118350792Y-65616208D01*
X118337126Y-65599556D01*
X118326970Y-65580556D01*
X118320716Y-65559938D01*
X118318000Y-65532360D01*
X118318000Y-65023640D01*
X118320716Y-64996062D01*
X118326970Y-64975444D01*
X118337126Y-64956444D01*
X118350792Y-64939792D01*
X118367444Y-64926126D01*
X118386444Y-64915970D01*
X118407062Y-64909716D01*
X118434640Y-64907000D01*
X118893360Y-64907000D01*
X118920938Y-64909716D01*
X118920938Y-64909716D01*
G37*
G36*
X121774015Y-62448973D02*
X121877879Y-62480479D01*
X121973600Y-62531644D01*
X122057501Y-62600499D01*
X122126356Y-62684400D01*
X122149766Y-62728195D01*
X122163374Y-62748561D01*
X122180701Y-62765889D01*
X122201076Y-62779502D01*
X122223715Y-62788880D01*
X122247748Y-62793660D01*
X122272252Y-62793660D01*
X122296286Y-62788879D01*
X122318925Y-62779502D01*
X122339299Y-62765888D01*
X122356627Y-62748561D01*
X122370240Y-62728186D01*
X122379618Y-62705547D01*
X122385000Y-62669262D01*
X122385000Y-62441000D01*
X123487000Y-62441000D01*
X123487000Y-63543000D01*
X122385000Y-63543000D01*
X122385000Y-63314738D01*
X122382598Y-63290352D01*
X122375485Y-63266903D01*
X122363934Y-63245292D01*
X122348388Y-63226350D01*
X122329446Y-63210804D01*
X122307835Y-63199253D01*
X122284386Y-63192140D01*
X122260000Y-63189738D01*
X122235614Y-63192140D01*
X122212165Y-63199253D01*
X122190554Y-63210804D01*
X122171612Y-63226350D01*
X122149764Y-63255808D01*
X122126356Y-63299600D01*
X122057501Y-63383501D01*
X121973600Y-63452356D01*
X121877879Y-63503521D01*
X121774015Y-63535027D01*
X121693067Y-63543000D01*
X121638933Y-63543000D01*
X121557985Y-63535027D01*
X121454121Y-63503521D01*
X121358400Y-63452356D01*
X121274499Y-63383501D01*
X121205644Y-63299600D01*
X121154479Y-63203879D01*
X121122973Y-63100015D01*
X121112334Y-62992000D01*
X121122973Y-62883985D01*
X121154479Y-62780121D01*
X121205644Y-62684400D01*
X121274499Y-62600499D01*
X121358400Y-62531644D01*
X121454121Y-62480479D01*
X121557985Y-62448973D01*
X121638933Y-62441000D01*
X121693067Y-62441000D01*
X121774015Y-62448973D01*
X121774015Y-62448973D01*
G37*
G36*
X131934015Y-62448973D02*
X132037879Y-62480479D01*
X132133600Y-62531644D01*
X132217501Y-62600499D01*
X132286356Y-62684400D01*
X132337521Y-62780121D01*
X132341383Y-62792854D01*
X132350760Y-62815493D01*
X132364374Y-62835867D01*
X132381701Y-62853194D01*
X132402076Y-62866808D01*
X132424715Y-62876186D01*
X132448748Y-62880966D01*
X132473252Y-62880966D01*
X132497286Y-62876185D01*
X132519925Y-62866808D01*
X132540299Y-62853194D01*
X132557626Y-62835867D01*
X132571240Y-62815492D01*
X132580617Y-62792854D01*
X132584479Y-62780121D01*
X132635644Y-62684400D01*
X132704499Y-62600499D01*
X132788400Y-62531644D01*
X132884121Y-62480479D01*
X132987985Y-62448973D01*
X133068933Y-62441000D01*
X133123067Y-62441000D01*
X133204015Y-62448973D01*
X133307879Y-62480479D01*
X133403600Y-62531644D01*
X133487501Y-62600499D01*
X133556356Y-62684400D01*
X133607521Y-62780121D01*
X133611383Y-62792854D01*
X133620760Y-62815493D01*
X133634374Y-62835867D01*
X133651701Y-62853194D01*
X133672076Y-62866808D01*
X133694715Y-62876186D01*
X133718748Y-62880966D01*
X133743252Y-62880966D01*
X133767286Y-62876185D01*
X133789925Y-62866808D01*
X133810299Y-62853194D01*
X133827626Y-62835867D01*
X133841240Y-62815492D01*
X133850617Y-62792854D01*
X133854479Y-62780121D01*
X133905644Y-62684400D01*
X133974499Y-62600499D01*
X134058400Y-62531644D01*
X134154121Y-62480479D01*
X134257985Y-62448973D01*
X134338933Y-62441000D01*
X134393067Y-62441000D01*
X134474015Y-62448973D01*
X134577879Y-62480479D01*
X134673600Y-62531644D01*
X134757501Y-62600499D01*
X134826356Y-62684400D01*
X134849766Y-62728195D01*
X134863374Y-62748561D01*
X134880701Y-62765889D01*
X134901076Y-62779502D01*
X134923715Y-62788880D01*
X134947748Y-62793660D01*
X134972252Y-62793660D01*
X134996286Y-62788879D01*
X135018925Y-62779502D01*
X135039299Y-62765888D01*
X135056627Y-62748561D01*
X135070240Y-62728186D01*
X135079618Y-62705547D01*
X135085000Y-62669262D01*
X135085000Y-62441000D01*
X136187000Y-62441000D01*
X136187000Y-63543000D01*
X135085000Y-63543000D01*
X135085000Y-63314738D01*
X135082598Y-63290352D01*
X135075485Y-63266903D01*
X135063934Y-63245292D01*
X135048388Y-63226350D01*
X135029446Y-63210804D01*
X135007835Y-63199253D01*
X134984386Y-63192140D01*
X134960000Y-63189738D01*
X134935614Y-63192140D01*
X134912165Y-63199253D01*
X134890554Y-63210804D01*
X134871612Y-63226350D01*
X134849764Y-63255808D01*
X134826356Y-63299600D01*
X134757501Y-63383501D01*
X134673600Y-63452356D01*
X134577879Y-63503521D01*
X134474015Y-63535027D01*
X134393067Y-63543000D01*
X134338933Y-63543000D01*
X134257985Y-63535027D01*
X134154121Y-63503521D01*
X134058400Y-63452356D01*
X133974499Y-63383501D01*
X133905644Y-63299600D01*
X133854479Y-63203879D01*
X133850615Y-63191142D01*
X133841240Y-63168507D01*
X133827626Y-63148133D01*
X133810299Y-63130806D01*
X133789924Y-63117192D01*
X133767285Y-63107814D01*
X133743252Y-63103034D01*
X133718748Y-63103034D01*
X133694714Y-63107815D01*
X133672075Y-63117192D01*
X133651701Y-63130806D01*
X133634374Y-63148133D01*
X133620760Y-63168508D01*
X133611385Y-63191142D01*
X133607521Y-63203879D01*
X133556356Y-63299600D01*
X133487501Y-63383501D01*
X133403600Y-63452356D01*
X133307879Y-63503521D01*
X133204015Y-63535027D01*
X133123067Y-63543000D01*
X133068933Y-63543000D01*
X132987985Y-63535027D01*
X132884121Y-63503521D01*
X132788400Y-63452356D01*
X132704499Y-63383501D01*
X132635644Y-63299600D01*
X132584479Y-63203879D01*
X132580615Y-63191142D01*
X132571240Y-63168507D01*
X132557626Y-63148133D01*
X132540299Y-63130806D01*
X132519924Y-63117192D01*
X132497285Y-63107814D01*
X132473252Y-63103034D01*
X132448748Y-63103034D01*
X132424714Y-63107815D01*
X132402075Y-63117192D01*
X132381701Y-63130806D01*
X132364374Y-63148133D01*
X132350760Y-63168508D01*
X132341385Y-63191142D01*
X132337521Y-63203879D01*
X132286356Y-63299600D01*
X132217501Y-63383501D01*
X132133600Y-63452356D01*
X132037879Y-63503521D01*
X131934015Y-63535027D01*
X131853067Y-63543000D01*
X131798933Y-63543000D01*
X131717985Y-63535027D01*
X131614121Y-63503521D01*
X131518400Y-63452356D01*
X131434499Y-63383501D01*
X131365644Y-63299600D01*
X131314479Y-63203879D01*
X131282973Y-63100015D01*
X131272334Y-62992000D01*
X131282973Y-62883985D01*
X131314479Y-62780121D01*
X131365644Y-62684400D01*
X131434499Y-62600499D01*
X131518400Y-62531644D01*
X131614121Y-62480479D01*
X131717985Y-62448973D01*
X131798933Y-62441000D01*
X131853067Y-62441000D01*
X131934015Y-62448973D01*
X131934015Y-62448973D01*
G37*
M02*
