G04 #@! TF.GenerationSoftware,KiCad,Pcbnew,(5.1.12)-1*
G04 #@! TF.CreationDate,2021-12-15T05:31:51+03:00*
G04 #@! TF.ProjectId,sagitta-shield,73616769-7474-4612-9d73-6869656c642e,rev?*
G04 #@! TF.SameCoordinates,Original*
G04 #@! TF.FileFunction,Soldermask,Top*
G04 #@! TF.FilePolarity,Negative*
%FSLAX46Y46*%
G04 Gerber Fmt 4.6, Leading zero omitted, Abs format (unit mm)*
G04 Created by KiCad (PCBNEW (5.1.12)-1) date 2021-12-15 05:31:51*
%MOMM*%
%LPD*%
G01*
G04 APERTURE LIST*
%ADD10C,0.100000*%
%ADD11C,0.150000*%
%ADD12C,0.300000*%
%ADD13C,0.400000*%
%ADD14O,1.452000X1.452000*%
%ADD15O,1.802000X1.802000*%
G04 APERTURE END LIST*
D10*
D11*
X177002200Y-166007200D02*
X177002200Y-198007200D01*
X285002200Y-198007200D01*
X285002200Y-166007200D01*
X177002200Y-166007200D01*
D10*
D11*
X10000000Y-10000000D02*
X10000000Y-200007200D01*
X287002200Y-200007200D01*
X287002200Y-10000000D01*
X10000000Y-10000000D01*
D10*
D11*
X12000000Y-12000000D02*
X12000000Y-198007200D01*
X285002200Y-198007200D01*
X285002200Y-12000000D01*
X12000000Y-12000000D01*
D10*
D11*
X60000000Y-12000000D02*
X60000000Y-10000000D01*
D10*
D11*
X110000000Y-12000000D02*
X110000000Y-10000000D01*
D10*
D11*
X160000000Y-12000000D02*
X160000000Y-10000000D01*
D10*
D11*
X210000000Y-12000000D02*
X210000000Y-10000000D01*
D10*
D11*
X260000000Y-12000000D02*
X260000000Y-10000000D01*
D10*
D11*
X36065476Y-11588095D02*
X35322619Y-11588095D01*
X35694047Y-11588095D02*
X35694047Y-10288095D01*
X35570238Y-10473809D01*
X35446428Y-10597619D01*
X35322619Y-10659523D01*
D10*
D11*
X85322619Y-10411904D02*
X85384523Y-10350000D01*
X85508333Y-10288095D01*
X85817857Y-10288095D01*
X85941666Y-10350000D01*
X86003571Y-10411904D01*
X86065476Y-10535714D01*
X86065476Y-10659523D01*
X86003571Y-10845238D01*
X85260714Y-11588095D01*
X86065476Y-11588095D01*
D10*
D11*
X135260714Y-10288095D02*
X136065476Y-10288095D01*
X135632142Y-10783333D01*
X135817857Y-10783333D01*
X135941666Y-10845238D01*
X136003571Y-10907142D01*
X136065476Y-11030952D01*
X136065476Y-11340476D01*
X136003571Y-11464285D01*
X135941666Y-11526190D01*
X135817857Y-11588095D01*
X135446428Y-11588095D01*
X135322619Y-11526190D01*
X135260714Y-11464285D01*
D10*
D11*
X185941666Y-10721428D02*
X185941666Y-11588095D01*
X185632142Y-10226190D02*
X185322619Y-11154761D01*
X186127380Y-11154761D01*
D10*
D11*
X236003571Y-10288095D02*
X235384523Y-10288095D01*
X235322619Y-10907142D01*
X235384523Y-10845238D01*
X235508333Y-10783333D01*
X235817857Y-10783333D01*
X235941666Y-10845238D01*
X236003571Y-10907142D01*
X236065476Y-11030952D01*
X236065476Y-11340476D01*
X236003571Y-11464285D01*
X235941666Y-11526190D01*
X235817857Y-11588095D01*
X235508333Y-11588095D01*
X235384523Y-11526190D01*
X235322619Y-11464285D01*
D10*
D11*
X285941666Y-10288095D02*
X285694047Y-10288095D01*
X285570238Y-10350000D01*
X285508333Y-10411904D01*
X285384523Y-10597619D01*
X285322619Y-10845238D01*
X285322619Y-11340476D01*
X285384523Y-11464285D01*
X285446428Y-11526190D01*
X285570238Y-11588095D01*
X285817857Y-11588095D01*
X285941666Y-11526190D01*
X286003571Y-11464285D01*
X286065476Y-11340476D01*
X286065476Y-11030952D01*
X286003571Y-10907142D01*
X285941666Y-10845238D01*
X285817857Y-10783333D01*
X285570238Y-10783333D01*
X285446428Y-10845238D01*
X285384523Y-10907142D01*
X285322619Y-11030952D01*
D10*
D11*
X60000000Y-198007200D02*
X60000000Y-200007200D01*
D10*
D11*
X110000000Y-198007200D02*
X110000000Y-200007200D01*
D10*
D11*
X160000000Y-198007200D02*
X160000000Y-200007200D01*
D10*
D11*
X210000000Y-198007200D02*
X210000000Y-200007200D01*
D10*
D11*
X260000000Y-198007200D02*
X260000000Y-200007200D01*
D10*
D11*
X36065476Y-199595295D02*
X35322619Y-199595295D01*
X35694047Y-199595295D02*
X35694047Y-198295295D01*
X35570238Y-198481009D01*
X35446428Y-198604819D01*
X35322619Y-198666723D01*
D10*
D11*
X85322619Y-198419104D02*
X85384523Y-198357200D01*
X85508333Y-198295295D01*
X85817857Y-198295295D01*
X85941666Y-198357200D01*
X86003571Y-198419104D01*
X86065476Y-198542914D01*
X86065476Y-198666723D01*
X86003571Y-198852438D01*
X85260714Y-199595295D01*
X86065476Y-199595295D01*
D10*
D11*
X135260714Y-198295295D02*
X136065476Y-198295295D01*
X135632142Y-198790533D01*
X135817857Y-198790533D01*
X135941666Y-198852438D01*
X136003571Y-198914342D01*
X136065476Y-199038152D01*
X136065476Y-199347676D01*
X136003571Y-199471485D01*
X135941666Y-199533390D01*
X135817857Y-199595295D01*
X135446428Y-199595295D01*
X135322619Y-199533390D01*
X135260714Y-199471485D01*
D10*
D11*
X185941666Y-198728628D02*
X185941666Y-199595295D01*
X185632142Y-198233390D02*
X185322619Y-199161961D01*
X186127380Y-199161961D01*
D10*
D11*
X236003571Y-198295295D02*
X235384523Y-198295295D01*
X235322619Y-198914342D01*
X235384523Y-198852438D01*
X235508333Y-198790533D01*
X235817857Y-198790533D01*
X235941666Y-198852438D01*
X236003571Y-198914342D01*
X236065476Y-199038152D01*
X236065476Y-199347676D01*
X236003571Y-199471485D01*
X235941666Y-199533390D01*
X235817857Y-199595295D01*
X235508333Y-199595295D01*
X235384523Y-199533390D01*
X235322619Y-199471485D01*
D10*
D11*
X285941666Y-198295295D02*
X285694047Y-198295295D01*
X285570238Y-198357200D01*
X285508333Y-198419104D01*
X285384523Y-198604819D01*
X285322619Y-198852438D01*
X285322619Y-199347676D01*
X285384523Y-199471485D01*
X285446428Y-199533390D01*
X285570238Y-199595295D01*
X285817857Y-199595295D01*
X285941666Y-199533390D01*
X286003571Y-199471485D01*
X286065476Y-199347676D01*
X286065476Y-199038152D01*
X286003571Y-198914342D01*
X285941666Y-198852438D01*
X285817857Y-198790533D01*
X285570238Y-198790533D01*
X285446428Y-198852438D01*
X285384523Y-198914342D01*
X285322619Y-199038152D01*
D10*
D11*
X10000000Y-60000000D02*
X12000000Y-60000000D01*
D10*
D11*
X10000000Y-110000000D02*
X12000000Y-110000000D01*
D10*
D11*
X10000000Y-160000000D02*
X12000000Y-160000000D01*
D10*
D11*
X10690476Y-35216666D02*
X11309523Y-35216666D01*
X10566666Y-35588095D02*
X11000000Y-34288095D01*
X11433333Y-35588095D01*
D10*
D11*
X11092857Y-84907142D02*
X11278571Y-84969047D01*
X11340476Y-85030952D01*
X11402380Y-85154761D01*
X11402380Y-85340476D01*
X11340476Y-85464285D01*
X11278571Y-85526190D01*
X11154761Y-85588095D01*
X10659523Y-85588095D01*
X10659523Y-84288095D01*
X11092857Y-84288095D01*
X11216666Y-84350000D01*
X11278571Y-84411904D01*
X11340476Y-84535714D01*
X11340476Y-84659523D01*
X11278571Y-84783333D01*
X11216666Y-84845238D01*
X11092857Y-84907142D01*
X10659523Y-84907142D01*
D10*
D11*
X11402380Y-135464285D02*
X11340476Y-135526190D01*
X11154761Y-135588095D01*
X11030952Y-135588095D01*
X10845238Y-135526190D01*
X10721428Y-135402380D01*
X10659523Y-135278571D01*
X10597619Y-135030952D01*
X10597619Y-134845238D01*
X10659523Y-134597619D01*
X10721428Y-134473809D01*
X10845238Y-134350000D01*
X11030952Y-134288095D01*
X11154761Y-134288095D01*
X11340476Y-134350000D01*
X11402380Y-134411904D01*
D10*
D11*
X10659523Y-185588095D02*
X10659523Y-184288095D01*
X10969047Y-184288095D01*
X11154761Y-184350000D01*
X11278571Y-184473809D01*
X11340476Y-184597619D01*
X11402380Y-184845238D01*
X11402380Y-185030952D01*
X11340476Y-185278571D01*
X11278571Y-185402380D01*
X11154761Y-185526190D01*
X10969047Y-185588095D01*
X10659523Y-185588095D01*
D10*
D11*
X287002200Y-60000000D02*
X285002200Y-60000000D01*
D10*
D11*
X287002200Y-110000000D02*
X285002200Y-110000000D01*
D10*
D11*
X287002200Y-160000000D02*
X285002200Y-160000000D01*
D10*
D11*
X285692676Y-35216666D02*
X286311723Y-35216666D01*
X285568866Y-35588095D02*
X286002200Y-34288095D01*
X286435533Y-35588095D01*
D10*
D11*
X286095057Y-84907142D02*
X286280771Y-84969047D01*
X286342676Y-85030952D01*
X286404580Y-85154761D01*
X286404580Y-85340476D01*
X286342676Y-85464285D01*
X286280771Y-85526190D01*
X286156961Y-85588095D01*
X285661723Y-85588095D01*
X285661723Y-84288095D01*
X286095057Y-84288095D01*
X286218866Y-84350000D01*
X286280771Y-84411904D01*
X286342676Y-84535714D01*
X286342676Y-84659523D01*
X286280771Y-84783333D01*
X286218866Y-84845238D01*
X286095057Y-84907142D01*
X285661723Y-84907142D01*
D10*
D11*
X286404580Y-135464285D02*
X286342676Y-135526190D01*
X286156961Y-135588095D01*
X286033152Y-135588095D01*
X285847438Y-135526190D01*
X285723628Y-135402380D01*
X285661723Y-135278571D01*
X285599819Y-135030952D01*
X285599819Y-134845238D01*
X285661723Y-134597619D01*
X285723628Y-134473809D01*
X285847438Y-134350000D01*
X286033152Y-134288095D01*
X286156961Y-134288095D01*
X286342676Y-134350000D01*
X286404580Y-134411904D01*
D10*
D11*
X285661723Y-185588095D02*
X285661723Y-184288095D01*
X285971247Y-184288095D01*
X286156961Y-184350000D01*
X286280771Y-184473809D01*
X286342676Y-184597619D01*
X286404580Y-184845238D01*
X286404580Y-185030952D01*
X286342676Y-185278571D01*
X286280771Y-185402380D01*
X286156961Y-185526190D01*
X285971247Y-185588095D01*
X285661723Y-185588095D01*
D10*
D11*
X200434342Y-193785771D02*
X200434342Y-192285771D01*
X200791485Y-192285771D01*
X201005771Y-192357200D01*
X201148628Y-192500057D01*
X201220057Y-192642914D01*
X201291485Y-192928628D01*
X201291485Y-193142914D01*
X201220057Y-193428628D01*
X201148628Y-193571485D01*
X201005771Y-193714342D01*
X200791485Y-193785771D01*
X200434342Y-193785771D01*
X202577200Y-193785771D02*
X202577200Y-193000057D01*
X202505771Y-192857200D01*
X202362914Y-192785771D01*
X202077200Y-192785771D01*
X201934342Y-192857200D01*
X202577200Y-193714342D02*
X202434342Y-193785771D01*
X202077200Y-193785771D01*
X201934342Y-193714342D01*
X201862914Y-193571485D01*
X201862914Y-193428628D01*
X201934342Y-193285771D01*
X202077200Y-193214342D01*
X202434342Y-193214342D01*
X202577200Y-193142914D01*
X203077200Y-192785771D02*
X203648628Y-192785771D01*
X203291485Y-192285771D02*
X203291485Y-193571485D01*
X203362914Y-193714342D01*
X203505771Y-193785771D01*
X203648628Y-193785771D01*
X204720057Y-193714342D02*
X204577200Y-193785771D01*
X204291485Y-193785771D01*
X204148628Y-193714342D01*
X204077200Y-193571485D01*
X204077200Y-193000057D01*
X204148628Y-192857200D01*
X204291485Y-192785771D01*
X204577200Y-192785771D01*
X204720057Y-192857200D01*
X204791485Y-193000057D01*
X204791485Y-193142914D01*
X204077200Y-193285771D01*
X205434342Y-193642914D02*
X205505771Y-193714342D01*
X205434342Y-193785771D01*
X205362914Y-193714342D01*
X205434342Y-193642914D01*
X205434342Y-193785771D01*
X205434342Y-192857200D02*
X205505771Y-192928628D01*
X205434342Y-193000057D01*
X205362914Y-192928628D01*
X205434342Y-192857200D01*
X205434342Y-193000057D01*
D10*
D11*
X177002200Y-194507200D02*
X285002200Y-194507200D01*
D10*
D11*
X178434342Y-196585771D02*
X178434342Y-195085771D01*
X179291485Y-196585771D02*
X178648628Y-195728628D01*
X179291485Y-195085771D02*
X178434342Y-195942914D01*
X179934342Y-196585771D02*
X179934342Y-195585771D01*
X179934342Y-195085771D02*
X179862914Y-195157200D01*
X179934342Y-195228628D01*
X180005771Y-195157200D01*
X179934342Y-195085771D01*
X179934342Y-195228628D01*
X181505771Y-196442914D02*
X181434342Y-196514342D01*
X181220057Y-196585771D01*
X181077200Y-196585771D01*
X180862914Y-196514342D01*
X180720057Y-196371485D01*
X180648628Y-196228628D01*
X180577200Y-195942914D01*
X180577200Y-195728628D01*
X180648628Y-195442914D01*
X180720057Y-195300057D01*
X180862914Y-195157200D01*
X181077200Y-195085771D01*
X181220057Y-195085771D01*
X181434342Y-195157200D01*
X181505771Y-195228628D01*
X182791485Y-196585771D02*
X182791485Y-195800057D01*
X182720057Y-195657200D01*
X182577200Y-195585771D01*
X182291485Y-195585771D01*
X182148628Y-195657200D01*
X182791485Y-196514342D02*
X182648628Y-196585771D01*
X182291485Y-196585771D01*
X182148628Y-196514342D01*
X182077200Y-196371485D01*
X182077200Y-196228628D01*
X182148628Y-196085771D01*
X182291485Y-196014342D01*
X182648628Y-196014342D01*
X182791485Y-195942914D01*
X184148628Y-196585771D02*
X184148628Y-195085771D01*
X184148628Y-196514342D02*
X184005771Y-196585771D01*
X183720057Y-196585771D01*
X183577200Y-196514342D01*
X183505771Y-196442914D01*
X183434342Y-196300057D01*
X183434342Y-195871485D01*
X183505771Y-195728628D01*
X183577200Y-195657200D01*
X183720057Y-195585771D01*
X184005771Y-195585771D01*
X184148628Y-195657200D01*
X186005771Y-195800057D02*
X186505771Y-195800057D01*
X186720057Y-196585771D02*
X186005771Y-196585771D01*
X186005771Y-195085771D01*
X186720057Y-195085771D01*
X187362914Y-196442914D02*
X187434342Y-196514342D01*
X187362914Y-196585771D01*
X187291485Y-196514342D01*
X187362914Y-196442914D01*
X187362914Y-196585771D01*
X188077200Y-196585771D02*
X188077200Y-195085771D01*
X188434342Y-195085771D01*
X188648628Y-195157200D01*
X188791485Y-195300057D01*
X188862914Y-195442914D01*
X188934342Y-195728628D01*
X188934342Y-195942914D01*
X188862914Y-196228628D01*
X188791485Y-196371485D01*
X188648628Y-196514342D01*
X188434342Y-196585771D01*
X188077200Y-196585771D01*
X189577200Y-196442914D02*
X189648628Y-196514342D01*
X189577200Y-196585771D01*
X189505771Y-196514342D01*
X189577200Y-196442914D01*
X189577200Y-196585771D01*
X190220057Y-196157200D02*
X190934342Y-196157200D01*
X190077200Y-196585771D02*
X190577200Y-195085771D01*
X191077200Y-196585771D01*
X191577200Y-196442914D02*
X191648628Y-196514342D01*
X191577200Y-196585771D01*
X191505771Y-196514342D01*
X191577200Y-196442914D01*
X191577200Y-196585771D01*
X194577200Y-196585771D02*
X194577200Y-195085771D01*
X194720057Y-196014342D02*
X195148628Y-196585771D01*
X195148628Y-195585771D02*
X194577200Y-196157200D01*
X195791485Y-196585771D02*
X195791485Y-195585771D01*
X195791485Y-195085771D02*
X195720057Y-195157200D01*
X195791485Y-195228628D01*
X195862914Y-195157200D01*
X195791485Y-195085771D01*
X195791485Y-195228628D01*
X197148628Y-196514342D02*
X197005771Y-196585771D01*
X196720057Y-196585771D01*
X196577200Y-196514342D01*
X196505771Y-196442914D01*
X196434342Y-196300057D01*
X196434342Y-195871485D01*
X196505771Y-195728628D01*
X196577200Y-195657200D01*
X196720057Y-195585771D01*
X197005771Y-195585771D01*
X197148628Y-195657200D01*
X198434342Y-196585771D02*
X198434342Y-195800057D01*
X198362914Y-195657200D01*
X198220057Y-195585771D01*
X197934342Y-195585771D01*
X197791485Y-195657200D01*
X198434342Y-196514342D02*
X198291485Y-196585771D01*
X197934342Y-196585771D01*
X197791485Y-196514342D01*
X197720057Y-196371485D01*
X197720057Y-196228628D01*
X197791485Y-196085771D01*
X197934342Y-196014342D01*
X198291485Y-196014342D01*
X198434342Y-195942914D01*
X199791485Y-196585771D02*
X199791485Y-195085771D01*
X199791485Y-196514342D02*
X199648628Y-196585771D01*
X199362914Y-196585771D01*
X199220057Y-196514342D01*
X199148628Y-196442914D01*
X199077200Y-196300057D01*
X199077200Y-195871485D01*
X199148628Y-195728628D01*
X199220057Y-195657200D01*
X199362914Y-195585771D01*
X199648628Y-195585771D01*
X199791485Y-195657200D01*
X202077200Y-197157200D02*
X202005771Y-197085771D01*
X201862914Y-196871485D01*
X201791485Y-196728628D01*
X201720057Y-196514342D01*
X201648628Y-196157200D01*
X201648628Y-195871485D01*
X201720057Y-195514342D01*
X201791485Y-195300057D01*
X201862914Y-195157200D01*
X202005771Y-194942914D01*
X202077200Y-194871485D01*
X203362914Y-195085771D02*
X202648628Y-195085771D01*
X202577200Y-195800057D01*
X202648628Y-195728628D01*
X202791485Y-195657200D01*
X203148628Y-195657200D01*
X203291485Y-195728628D01*
X203362914Y-195800057D01*
X203434342Y-195942914D01*
X203434342Y-196300057D01*
X203362914Y-196442914D01*
X203291485Y-196514342D01*
X203148628Y-196585771D01*
X202791485Y-196585771D01*
X202648628Y-196514342D01*
X202577200Y-196442914D01*
X204077200Y-196442914D02*
X204148628Y-196514342D01*
X204077200Y-196585771D01*
X204005771Y-196514342D01*
X204077200Y-196442914D01*
X204077200Y-196585771D01*
X205577200Y-196585771D02*
X204720057Y-196585771D01*
X205148628Y-196585771D02*
X205148628Y-195085771D01*
X205005771Y-195300057D01*
X204862914Y-195442914D01*
X204720057Y-195514342D01*
X206220057Y-196442914D02*
X206291485Y-196514342D01*
X206220057Y-196585771D01*
X206148628Y-196514342D01*
X206220057Y-196442914D01*
X206220057Y-196585771D01*
X207720057Y-196585771D02*
X206862914Y-196585771D01*
X207291485Y-196585771D02*
X207291485Y-195085771D01*
X207148628Y-195300057D01*
X207005771Y-195442914D01*
X206862914Y-195514342D01*
X208291485Y-195228628D02*
X208362914Y-195157200D01*
X208505771Y-195085771D01*
X208862914Y-195085771D01*
X209005771Y-195157200D01*
X209077200Y-195228628D01*
X209148628Y-195371485D01*
X209148628Y-195514342D01*
X209077200Y-195728628D01*
X208220057Y-196585771D01*
X209148628Y-196585771D01*
X209648628Y-197157200D02*
X209720057Y-197085771D01*
X209862914Y-196871485D01*
X209934342Y-196728628D01*
X210005771Y-196514342D01*
X210077200Y-196157200D01*
X210077200Y-195871485D01*
X210005771Y-195514342D01*
X209934342Y-195300057D01*
X209862914Y-195157200D01*
X209720057Y-194942914D01*
X209648628Y-194871485D01*
X210791485Y-196014342D02*
X211934342Y-196014342D01*
X213434342Y-196585771D02*
X212577200Y-196585771D01*
X213005771Y-196585771D02*
X213005771Y-195085771D01*
X212862914Y-195300057D01*
X212720057Y-195442914D01*
X212577200Y-195514342D01*
D10*
D11*
X177002200Y-191507200D02*
X285002200Y-191507200D01*
D10*
D12*
X264411485Y-193785771D02*
X263911485Y-193071485D01*
X263554342Y-193785771D02*
X263554342Y-192285771D01*
X264125771Y-192285771D01*
X264268628Y-192357200D01*
X264340057Y-192428628D01*
X264411485Y-192571485D01*
X264411485Y-192785771D01*
X264340057Y-192928628D01*
X264268628Y-193000057D01*
X264125771Y-193071485D01*
X263554342Y-193071485D01*
X265625771Y-193714342D02*
X265482914Y-193785771D01*
X265197200Y-193785771D01*
X265054342Y-193714342D01*
X264982914Y-193571485D01*
X264982914Y-193000057D01*
X265054342Y-192857200D01*
X265197200Y-192785771D01*
X265482914Y-192785771D01*
X265625771Y-192857200D01*
X265697200Y-193000057D01*
X265697200Y-193142914D01*
X264982914Y-193285771D01*
X266197200Y-192785771D02*
X266554342Y-193785771D01*
X266911485Y-192785771D01*
X267482914Y-193642914D02*
X267554342Y-193714342D01*
X267482914Y-193785771D01*
X267411485Y-193714342D01*
X267482914Y-193642914D01*
X267482914Y-193785771D01*
X267482914Y-192857200D02*
X267554342Y-192928628D01*
X267482914Y-193000057D01*
X267411485Y-192928628D01*
X267482914Y-192857200D01*
X267482914Y-193000057D01*
D10*
D11*
X178362914Y-193714342D02*
X178577200Y-193785771D01*
X178934342Y-193785771D01*
X179077200Y-193714342D01*
X179148628Y-193642914D01*
X179220057Y-193500057D01*
X179220057Y-193357200D01*
X179148628Y-193214342D01*
X179077200Y-193142914D01*
X178934342Y-193071485D01*
X178648628Y-193000057D01*
X178505771Y-192928628D01*
X178434342Y-192857200D01*
X178362914Y-192714342D01*
X178362914Y-192571485D01*
X178434342Y-192428628D01*
X178505771Y-192357200D01*
X178648628Y-192285771D01*
X179005771Y-192285771D01*
X179220057Y-192357200D01*
X179862914Y-193785771D02*
X179862914Y-192785771D01*
X179862914Y-192285771D02*
X179791485Y-192357200D01*
X179862914Y-192428628D01*
X179934342Y-192357200D01*
X179862914Y-192285771D01*
X179862914Y-192428628D01*
X180434342Y-192785771D02*
X181220057Y-192785771D01*
X180434342Y-193785771D01*
X181220057Y-193785771D01*
X182362914Y-193714342D02*
X182220057Y-193785771D01*
X181934342Y-193785771D01*
X181791485Y-193714342D01*
X181720057Y-193571485D01*
X181720057Y-193000057D01*
X181791485Y-192857200D01*
X181934342Y-192785771D01*
X182220057Y-192785771D01*
X182362914Y-192857200D01*
X182434342Y-193000057D01*
X182434342Y-193142914D01*
X181720057Y-193285771D01*
X183077200Y-193642914D02*
X183148628Y-193714342D01*
X183077200Y-193785771D01*
X183005771Y-193714342D01*
X183077200Y-193642914D01*
X183077200Y-193785771D01*
X183077200Y-192857200D02*
X183148628Y-192928628D01*
X183077200Y-193000057D01*
X183005771Y-192928628D01*
X183077200Y-192857200D01*
X183077200Y-193000057D01*
X184862914Y-193357200D02*
X185577200Y-193357200D01*
X184720057Y-193785771D02*
X185220057Y-192285771D01*
X185720057Y-193785771D01*
X186862914Y-192785771D02*
X186862914Y-193785771D01*
X186505771Y-192214342D02*
X186148628Y-193285771D01*
X187077200Y-193285771D01*
D10*
D11*
X263434342Y-196585771D02*
X263434342Y-195085771D01*
X264791485Y-196585771D02*
X264791485Y-195085771D01*
X264791485Y-196514342D02*
X264648628Y-196585771D01*
X264362914Y-196585771D01*
X264220057Y-196514342D01*
X264148628Y-196442914D01*
X264077200Y-196300057D01*
X264077200Y-195871485D01*
X264148628Y-195728628D01*
X264220057Y-195657200D01*
X264362914Y-195585771D01*
X264648628Y-195585771D01*
X264791485Y-195657200D01*
X265505771Y-196442914D02*
X265577200Y-196514342D01*
X265505771Y-196585771D01*
X265434342Y-196514342D01*
X265505771Y-196442914D01*
X265505771Y-196585771D01*
X265505771Y-195657200D02*
X265577200Y-195728628D01*
X265505771Y-195800057D01*
X265434342Y-195728628D01*
X265505771Y-195657200D01*
X265505771Y-195800057D01*
X268148628Y-196585771D02*
X267291485Y-196585771D01*
X267720057Y-196585771D02*
X267720057Y-195085771D01*
X267577200Y-195300057D01*
X267434342Y-195442914D01*
X267291485Y-195514342D01*
X269862914Y-195014342D02*
X268577200Y-196942914D01*
X271148628Y-196585771D02*
X270291485Y-196585771D01*
X270720057Y-196585771D02*
X270720057Y-195085771D01*
X270577200Y-195300057D01*
X270434342Y-195442914D01*
X270291485Y-195514342D01*
D10*
D11*
X177002200Y-187507200D02*
X285002200Y-187507200D01*
D10*
D13*
X178714580Y-188211961D02*
X179857438Y-188211961D01*
X179036009Y-190211961D02*
X179286009Y-188211961D01*
X180274104Y-190211961D02*
X180440771Y-188878628D01*
X180524104Y-188211961D02*
X180416961Y-188307200D01*
X180500295Y-188402438D01*
X180607438Y-188307200D01*
X180524104Y-188211961D01*
X180500295Y-188402438D01*
X181107438Y-188878628D02*
X181869342Y-188878628D01*
X181476485Y-188211961D02*
X181262200Y-189926247D01*
X181333628Y-190116723D01*
X181512200Y-190211961D01*
X181702676Y-190211961D01*
X182655057Y-190211961D02*
X182476485Y-190116723D01*
X182405057Y-189926247D01*
X182619342Y-188211961D01*
X184190771Y-190116723D02*
X183988390Y-190211961D01*
X183607438Y-190211961D01*
X183428866Y-190116723D01*
X183357438Y-189926247D01*
X183452676Y-189164342D01*
X183571723Y-188973866D01*
X183774104Y-188878628D01*
X184155057Y-188878628D01*
X184333628Y-188973866D01*
X184405057Y-189164342D01*
X184381247Y-189354819D01*
X183405057Y-189545295D01*
X185155057Y-190021485D02*
X185238390Y-190116723D01*
X185131247Y-190211961D01*
X185047914Y-190116723D01*
X185155057Y-190021485D01*
X185131247Y-190211961D01*
X185286009Y-188973866D02*
X185369342Y-189069104D01*
X185262200Y-189164342D01*
X185178866Y-189069104D01*
X185286009Y-188973866D01*
X185262200Y-189164342D01*
D10*
D11*
X178934342Y-185600057D02*
X178434342Y-185600057D01*
X178434342Y-186385771D02*
X178434342Y-184885771D01*
X179148628Y-184885771D01*
X179720057Y-186385771D02*
X179720057Y-185385771D01*
X179720057Y-184885771D02*
X179648628Y-184957200D01*
X179720057Y-185028628D01*
X179791485Y-184957200D01*
X179720057Y-184885771D01*
X179720057Y-185028628D01*
X180648628Y-186385771D02*
X180505771Y-186314342D01*
X180434342Y-186171485D01*
X180434342Y-184885771D01*
X181791485Y-186314342D02*
X181648628Y-186385771D01*
X181362914Y-186385771D01*
X181220057Y-186314342D01*
X181148628Y-186171485D01*
X181148628Y-185600057D01*
X181220057Y-185457200D01*
X181362914Y-185385771D01*
X181648628Y-185385771D01*
X181791485Y-185457200D01*
X181862914Y-185600057D01*
X181862914Y-185742914D01*
X181148628Y-185885771D01*
X182505771Y-186242914D02*
X182577200Y-186314342D01*
X182505771Y-186385771D01*
X182434342Y-186314342D01*
X182505771Y-186242914D01*
X182505771Y-186385771D01*
X182505771Y-185457200D02*
X182577200Y-185528628D01*
X182505771Y-185600057D01*
X182434342Y-185528628D01*
X182505771Y-185457200D01*
X182505771Y-185600057D01*
X184291485Y-186314342D02*
X184434342Y-186385771D01*
X184720057Y-186385771D01*
X184862914Y-186314342D01*
X184934342Y-186171485D01*
X184934342Y-186100057D01*
X184862914Y-185957200D01*
X184720057Y-185885771D01*
X184505771Y-185885771D01*
X184362914Y-185814342D01*
X184291485Y-185671485D01*
X184291485Y-185600057D01*
X184362914Y-185457200D01*
X184505771Y-185385771D01*
X184720057Y-185385771D01*
X184862914Y-185457200D01*
X186220057Y-186385771D02*
X186220057Y-185600057D01*
X186148628Y-185457200D01*
X186005771Y-185385771D01*
X185720057Y-185385771D01*
X185577200Y-185457200D01*
X186220057Y-186314342D02*
X186077200Y-186385771D01*
X185720057Y-186385771D01*
X185577200Y-186314342D01*
X185505771Y-186171485D01*
X185505771Y-186028628D01*
X185577200Y-185885771D01*
X185720057Y-185814342D01*
X186077200Y-185814342D01*
X186220057Y-185742914D01*
X187577200Y-185385771D02*
X187577200Y-186600057D01*
X187505771Y-186742914D01*
X187434342Y-186814342D01*
X187291485Y-186885771D01*
X187077200Y-186885771D01*
X186934342Y-186814342D01*
X187577200Y-186314342D02*
X187434342Y-186385771D01*
X187148628Y-186385771D01*
X187005771Y-186314342D01*
X186934342Y-186242914D01*
X186862914Y-186100057D01*
X186862914Y-185671485D01*
X186934342Y-185528628D01*
X187005771Y-185457200D01*
X187148628Y-185385771D01*
X187434342Y-185385771D01*
X187577200Y-185457200D01*
X188291485Y-186385771D02*
X188291485Y-185385771D01*
X188291485Y-184885771D02*
X188220057Y-184957200D01*
X188291485Y-185028628D01*
X188362914Y-184957200D01*
X188291485Y-184885771D01*
X188291485Y-185028628D01*
X188791485Y-185385771D02*
X189362914Y-185385771D01*
X189005771Y-184885771D02*
X189005771Y-186171485D01*
X189077200Y-186314342D01*
X189220057Y-186385771D01*
X189362914Y-186385771D01*
X189648628Y-185385771D02*
X190220057Y-185385771D01*
X189862914Y-184885771D02*
X189862914Y-186171485D01*
X189934342Y-186314342D01*
X190077200Y-186385771D01*
X190220057Y-186385771D01*
X191362914Y-186385771D02*
X191362914Y-185600057D01*
X191291485Y-185457200D01*
X191148628Y-185385771D01*
X190862914Y-185385771D01*
X190720057Y-185457200D01*
X191362914Y-186314342D02*
X191220057Y-186385771D01*
X190862914Y-186385771D01*
X190720057Y-186314342D01*
X190648628Y-186171485D01*
X190648628Y-186028628D01*
X190720057Y-185885771D01*
X190862914Y-185814342D01*
X191220057Y-185814342D01*
X191362914Y-185742914D01*
X192077200Y-185814342D02*
X193220057Y-185814342D01*
X193862914Y-186314342D02*
X194005771Y-186385771D01*
X194291485Y-186385771D01*
X194434342Y-186314342D01*
X194505771Y-186171485D01*
X194505771Y-186100057D01*
X194434342Y-185957200D01*
X194291485Y-185885771D01*
X194077200Y-185885771D01*
X193934342Y-185814342D01*
X193862914Y-185671485D01*
X193862914Y-185600057D01*
X193934342Y-185457200D01*
X194077200Y-185385771D01*
X194291485Y-185385771D01*
X194434342Y-185457200D01*
X195148628Y-186385771D02*
X195148628Y-184885771D01*
X195791485Y-186385771D02*
X195791485Y-185600057D01*
X195720057Y-185457200D01*
X195577200Y-185385771D01*
X195362914Y-185385771D01*
X195220057Y-185457200D01*
X195148628Y-185528628D01*
X196505771Y-186385771D02*
X196505771Y-185385771D01*
X196505771Y-184885771D02*
X196434342Y-184957200D01*
X196505771Y-185028628D01*
X196577200Y-184957200D01*
X196505771Y-184885771D01*
X196505771Y-185028628D01*
X197791485Y-186314342D02*
X197648628Y-186385771D01*
X197362914Y-186385771D01*
X197220057Y-186314342D01*
X197148628Y-186171485D01*
X197148628Y-185600057D01*
X197220057Y-185457200D01*
X197362914Y-185385771D01*
X197648628Y-185385771D01*
X197791485Y-185457200D01*
X197862914Y-185600057D01*
X197862914Y-185742914D01*
X197148628Y-185885771D01*
X198720057Y-186385771D02*
X198577200Y-186314342D01*
X198505771Y-186171485D01*
X198505771Y-184885771D01*
X199934342Y-186385771D02*
X199934342Y-184885771D01*
X199934342Y-186314342D02*
X199791485Y-186385771D01*
X199505771Y-186385771D01*
X199362914Y-186314342D01*
X199291485Y-186242914D01*
X199220057Y-186100057D01*
X199220057Y-185671485D01*
X199291485Y-185528628D01*
X199362914Y-185457200D01*
X199505771Y-185385771D01*
X199791485Y-185385771D01*
X199934342Y-185457200D01*
X200648628Y-186242914D02*
X200720057Y-186314342D01*
X200648628Y-186385771D01*
X200577200Y-186314342D01*
X200648628Y-186242914D01*
X200648628Y-186385771D01*
X201362914Y-186385771D02*
X201362914Y-184885771D01*
X201505771Y-185814342D02*
X201934342Y-186385771D01*
X201934342Y-185385771D02*
X201362914Y-185957200D01*
X202577200Y-186385771D02*
X202577200Y-185385771D01*
X202577200Y-184885771D02*
X202505771Y-184957200D01*
X202577200Y-185028628D01*
X202648628Y-184957200D01*
X202577200Y-184885771D01*
X202577200Y-185028628D01*
X203934342Y-186314342D02*
X203791485Y-186385771D01*
X203505771Y-186385771D01*
X203362914Y-186314342D01*
X203291485Y-186242914D01*
X203220057Y-186100057D01*
X203220057Y-185671485D01*
X203291485Y-185528628D01*
X203362914Y-185457200D01*
X203505771Y-185385771D01*
X203791485Y-185385771D01*
X203934342Y-185457200D01*
X205220057Y-186385771D02*
X205220057Y-185600057D01*
X205148628Y-185457200D01*
X205005771Y-185385771D01*
X204720057Y-185385771D01*
X204577200Y-185457200D01*
X205220057Y-186314342D02*
X205077200Y-186385771D01*
X204720057Y-186385771D01*
X204577200Y-186314342D01*
X204505771Y-186171485D01*
X204505771Y-186028628D01*
X204577200Y-185885771D01*
X204720057Y-185814342D01*
X205077200Y-185814342D01*
X205220057Y-185742914D01*
X206577200Y-186385771D02*
X206577200Y-184885771D01*
X206577200Y-186314342D02*
X206434342Y-186385771D01*
X206148628Y-186385771D01*
X206005771Y-186314342D01*
X205934342Y-186242914D01*
X205862914Y-186100057D01*
X205862914Y-185671485D01*
X205934342Y-185528628D01*
X206005771Y-185457200D01*
X206148628Y-185385771D01*
X206434342Y-185385771D01*
X206577200Y-185457200D01*
X206934342Y-186528628D02*
X208077200Y-186528628D01*
X208434342Y-185385771D02*
X208434342Y-186885771D01*
X208434342Y-185457200D02*
X208577200Y-185385771D01*
X208862914Y-185385771D01*
X209005771Y-185457200D01*
X209077200Y-185528628D01*
X209148628Y-185671485D01*
X209148628Y-186100057D01*
X209077200Y-186242914D01*
X209005771Y-186314342D01*
X208862914Y-186385771D01*
X208577200Y-186385771D01*
X208434342Y-186314342D01*
X210434342Y-186314342D02*
X210291485Y-186385771D01*
X210005771Y-186385771D01*
X209862914Y-186314342D01*
X209791485Y-186242914D01*
X209720057Y-186100057D01*
X209720057Y-185671485D01*
X209791485Y-185528628D01*
X209862914Y-185457200D01*
X210005771Y-185385771D01*
X210291485Y-185385771D01*
X210434342Y-185457200D01*
X211077200Y-186385771D02*
X211077200Y-184885771D01*
X211077200Y-185457200D02*
X211220057Y-185385771D01*
X211505771Y-185385771D01*
X211648628Y-185457200D01*
X211720057Y-185528628D01*
X211791485Y-185671485D01*
X211791485Y-186100057D01*
X211720057Y-186242914D01*
X211648628Y-186314342D01*
X211505771Y-186385771D01*
X211220057Y-186385771D01*
X211077200Y-186314342D01*
D10*
D11*
X177002200Y-181507200D02*
X285002200Y-181507200D01*
D10*
D11*
X178362914Y-183614342D02*
X178577200Y-183685771D01*
X178934342Y-183685771D01*
X179077200Y-183614342D01*
X179148628Y-183542914D01*
X179220057Y-183400057D01*
X179220057Y-183257200D01*
X179148628Y-183114342D01*
X179077200Y-183042914D01*
X178934342Y-182971485D01*
X178648628Y-182900057D01*
X178505771Y-182828628D01*
X178434342Y-182757200D01*
X178362914Y-182614342D01*
X178362914Y-182471485D01*
X178434342Y-182328628D01*
X178505771Y-182257200D01*
X178648628Y-182185771D01*
X179005771Y-182185771D01*
X179220057Y-182257200D01*
X179862914Y-183685771D02*
X179862914Y-182185771D01*
X180505771Y-183685771D02*
X180505771Y-182900057D01*
X180434342Y-182757200D01*
X180291485Y-182685771D01*
X180077200Y-182685771D01*
X179934342Y-182757200D01*
X179862914Y-182828628D01*
X181791485Y-183614342D02*
X181648628Y-183685771D01*
X181362914Y-183685771D01*
X181220057Y-183614342D01*
X181148628Y-183471485D01*
X181148628Y-182900057D01*
X181220057Y-182757200D01*
X181362914Y-182685771D01*
X181648628Y-182685771D01*
X181791485Y-182757200D01*
X181862914Y-182900057D01*
X181862914Y-183042914D01*
X181148628Y-183185771D01*
X183077200Y-183614342D02*
X182934342Y-183685771D01*
X182648628Y-183685771D01*
X182505771Y-183614342D01*
X182434342Y-183471485D01*
X182434342Y-182900057D01*
X182505771Y-182757200D01*
X182648628Y-182685771D01*
X182934342Y-182685771D01*
X183077200Y-182757200D01*
X183148628Y-182900057D01*
X183148628Y-183042914D01*
X182434342Y-183185771D01*
X183577200Y-182685771D02*
X184148628Y-182685771D01*
X183791485Y-182185771D02*
X183791485Y-183471485D01*
X183862914Y-183614342D01*
X184005771Y-183685771D01*
X184148628Y-183685771D01*
X184648628Y-183542914D02*
X184720057Y-183614342D01*
X184648628Y-183685771D01*
X184577200Y-183614342D01*
X184648628Y-183542914D01*
X184648628Y-183685771D01*
X184648628Y-182757200D02*
X184720057Y-182828628D01*
X184648628Y-182900057D01*
X184577200Y-182828628D01*
X184648628Y-182757200D01*
X184648628Y-182900057D01*
D10*
D11*
X197002200Y-191507200D02*
X197002200Y-194507200D01*
D10*
D11*
X261002200Y-191507200D02*
X261002200Y-198007200D01*
D14*
X116078000Y-73056000D03*
X116078000Y-71056000D03*
X116078000Y-69056000D03*
G36*
G01*
X115352000Y-67731000D02*
X115352000Y-66381000D01*
G75*
G02*
X115403000Y-66330000I51000J0D01*
G01*
X116753000Y-66330000D01*
G75*
G02*
X116804000Y-66381000I0J-51000D01*
G01*
X116804000Y-67731000D01*
G75*
G02*
X116753000Y-67782000I-51000J0D01*
G01*
X115403000Y-67782000D01*
G75*
G02*
X115352000Y-67731000I0J51000D01*
G01*
G37*
X118618000Y-73056000D03*
X118618000Y-71056000D03*
X118618000Y-69056000D03*
G36*
G01*
X117892000Y-67731000D02*
X117892000Y-66381000D01*
G75*
G02*
X117943000Y-66330000I51000J0D01*
G01*
X119293000Y-66330000D01*
G75*
G02*
X119344000Y-66381000I0J-51000D01*
G01*
X119344000Y-67731000D01*
G75*
G02*
X119293000Y-67782000I-51000J0D01*
G01*
X117943000Y-67782000D01*
G75*
G02*
X117892000Y-67731000I0J51000D01*
G01*
G37*
X121158000Y-73056000D03*
X121158000Y-71056000D03*
X121158000Y-69056000D03*
G36*
G01*
X120432000Y-67731000D02*
X120432000Y-66381000D01*
G75*
G02*
X120483000Y-66330000I51000J0D01*
G01*
X121833000Y-66330000D01*
G75*
G02*
X121884000Y-66381000I0J-51000D01*
G01*
X121884000Y-67731000D01*
G75*
G02*
X121833000Y-67782000I-51000J0D01*
G01*
X120483000Y-67782000D01*
G75*
G02*
X120432000Y-67731000I0J51000D01*
G01*
G37*
X138176000Y-90202000D03*
G36*
G01*
X138902000Y-91527000D02*
X138902000Y-92877000D01*
G75*
G02*
X138851000Y-92928000I-51000J0D01*
G01*
X137501000Y-92928000D01*
G75*
G02*
X137450000Y-92877000I0J51000D01*
G01*
X137450000Y-91527000D01*
G75*
G02*
X137501000Y-91476000I51000J0D01*
G01*
X138851000Y-91476000D01*
G75*
G02*
X138902000Y-91527000I0J-51000D01*
G01*
G37*
X137160000Y-114332000D03*
G36*
G01*
X137886000Y-115657000D02*
X137886000Y-117007000D01*
G75*
G02*
X137835000Y-117058000I-51000J0D01*
G01*
X136485000Y-117058000D01*
G75*
G02*
X136434000Y-117007000I0J51000D01*
G01*
X136434000Y-115657000D01*
G75*
G02*
X136485000Y-115606000I51000J0D01*
G01*
X137835000Y-115606000D01*
G75*
G02*
X137886000Y-115657000I0J-51000D01*
G01*
G37*
X120650000Y-98076000D03*
G36*
G01*
X121376000Y-99401000D02*
X121376000Y-100751000D01*
G75*
G02*
X121325000Y-100802000I-51000J0D01*
G01*
X119975000Y-100802000D01*
G75*
G02*
X119924000Y-100751000I0J51000D01*
G01*
X119924000Y-99401000D01*
G75*
G02*
X119975000Y-99350000I51000J0D01*
G01*
X121325000Y-99350000D01*
G75*
G02*
X121376000Y-99401000I0J-51000D01*
G01*
G37*
D15*
X114274600Y-100711000D03*
X114274600Y-108331000D03*
X114274600Y-82931000D03*
X114274600Y-115951000D03*
X114274600Y-105791000D03*
X114274600Y-93091000D03*
X114274600Y-110871000D03*
X114274600Y-118491000D03*
X114274600Y-88011000D03*
X114274600Y-103251000D03*
X114274600Y-128651000D03*
X114274600Y-121031000D03*
X114274600Y-113411000D03*
X114274600Y-90551000D03*
X114274600Y-98171000D03*
X114274600Y-85471000D03*
X114274600Y-95631000D03*
G36*
G01*
X115175600Y-130341000D02*
X115175600Y-132041000D01*
G75*
G02*
X115124600Y-132092000I-51000J0D01*
G01*
X113424600Y-132092000D01*
G75*
G02*
X113373600Y-132041000I0J51000D01*
G01*
X113373600Y-130341000D01*
G75*
G02*
X113424600Y-130290000I51000J0D01*
G01*
X115124600Y-130290000D01*
G75*
G02*
X115175600Y-130341000I0J-51000D01*
G01*
G37*
X114274600Y-126111000D03*
X114274600Y-123571000D03*
X140974470Y-82937492D03*
X140974470Y-85477492D03*
X140974470Y-88011000D03*
X140974470Y-90551000D03*
X140974470Y-93097492D03*
X140974470Y-95631000D03*
X140974470Y-98171000D03*
X140974470Y-100711000D03*
X140974470Y-103251000D03*
X140974470Y-105791000D03*
X140974470Y-108331000D03*
X140974470Y-110871000D03*
X140974470Y-113411000D03*
X140974470Y-115957492D03*
X140974470Y-118497492D03*
X140974470Y-121031000D03*
X140974470Y-123571000D03*
X140974470Y-126117492D03*
X140974470Y-128657492D03*
G36*
G01*
X141875470Y-130341000D02*
X141875470Y-132041000D01*
G75*
G02*
X141824470Y-132092000I-51000J0D01*
G01*
X140124470Y-132092000D01*
G75*
G02*
X140073470Y-132041000I0J51000D01*
G01*
X140073470Y-130341000D01*
G75*
G02*
X140124470Y-130290000I51000J0D01*
G01*
X141824470Y-130290000D01*
G75*
G02*
X141875470Y-130341000I0J-51000D01*
G01*
G37*
X125984000Y-70104000D03*
X125984000Y-67564000D03*
X125984000Y-65024000D03*
G36*
G01*
X125083000Y-63334000D02*
X125083000Y-61634000D01*
G75*
G02*
X125134000Y-61583000I51000J0D01*
G01*
X126834000Y-61583000D01*
G75*
G02*
X126885000Y-61634000I0J-51000D01*
G01*
X126885000Y-63334000D01*
G75*
G02*
X126834000Y-63385000I-51000J0D01*
G01*
X125134000Y-63385000D01*
G75*
G02*
X125083000Y-63334000I0J51000D01*
G01*
G37*
X129032000Y-70104000D03*
X129032000Y-67564000D03*
X129032000Y-65024000D03*
G36*
G01*
X128131000Y-63334000D02*
X128131000Y-61634000D01*
G75*
G02*
X128182000Y-61583000I51000J0D01*
G01*
X129882000Y-61583000D01*
G75*
G02*
X129933000Y-61634000I0J-51000D01*
G01*
X129933000Y-63334000D01*
G75*
G02*
X129882000Y-63385000I-51000J0D01*
G01*
X128182000Y-63385000D01*
G75*
G02*
X128131000Y-63334000I0J51000D01*
G01*
G37*
X136652000Y-70104000D03*
X136652000Y-67564000D03*
X136652000Y-65024000D03*
G36*
G01*
X135751000Y-63334000D02*
X135751000Y-61634000D01*
G75*
G02*
X135802000Y-61583000I51000J0D01*
G01*
X137502000Y-61583000D01*
G75*
G02*
X137553000Y-61634000I0J-51000D01*
G01*
X137553000Y-63334000D01*
G75*
G02*
X137502000Y-63385000I-51000J0D01*
G01*
X135802000Y-63385000D01*
G75*
G02*
X135751000Y-63334000I0J51000D01*
G01*
G37*
X134112000Y-70104000D03*
X134112000Y-67564000D03*
X134112000Y-65024000D03*
G36*
G01*
X133211000Y-63334000D02*
X133211000Y-61634000D01*
G75*
G02*
X133262000Y-61583000I51000J0D01*
G01*
X134962000Y-61583000D01*
G75*
G02*
X135013000Y-61634000I0J-51000D01*
G01*
X135013000Y-63334000D01*
G75*
G02*
X134962000Y-63385000I-51000J0D01*
G01*
X133262000Y-63385000D01*
G75*
G02*
X133211000Y-63334000I0J51000D01*
G01*
G37*
G36*
G01*
X130045999Y-88778609D02*
X130045999Y-91715389D01*
G75*
G02*
X129788389Y-91972999I-257610J0D01*
G01*
X126851609Y-91972999D01*
G75*
G02*
X126593999Y-91715389I0J257610D01*
G01*
X126593999Y-88778609D01*
G75*
G02*
X126851609Y-88520999I257610J0D01*
G01*
X129788389Y-88520999D01*
G75*
G02*
X130045999Y-88778609I0J-257610D01*
G01*
G37*
G36*
G01*
X131220999Y-91446499D02*
X131220999Y-91647499D01*
G75*
G02*
X131120499Y-91747999I-100500J0D01*
G01*
X130469499Y-91747999D01*
G75*
G02*
X130368999Y-91647499I0J100500D01*
G01*
X130368999Y-91446499D01*
G75*
G02*
X130469499Y-91345999I100500J0D01*
G01*
X131120499Y-91345999D01*
G75*
G02*
X131220999Y-91446499I0J-100500D01*
G01*
G37*
G36*
G01*
X131220999Y-90796499D02*
X131220999Y-90997499D01*
G75*
G02*
X131120499Y-91097999I-100500J0D01*
G01*
X130469499Y-91097999D01*
G75*
G02*
X130368999Y-90997499I0J100500D01*
G01*
X130368999Y-90796499D01*
G75*
G02*
X130469499Y-90695999I100500J0D01*
G01*
X131120499Y-90695999D01*
G75*
G02*
X131220999Y-90796499I0J-100500D01*
G01*
G37*
G36*
G01*
X131220999Y-90146499D02*
X131220999Y-90347499D01*
G75*
G02*
X131120499Y-90447999I-100500J0D01*
G01*
X130469499Y-90447999D01*
G75*
G02*
X130368999Y-90347499I0J100500D01*
G01*
X130368999Y-90146499D01*
G75*
G02*
X130469499Y-90045999I100500J0D01*
G01*
X131120499Y-90045999D01*
G75*
G02*
X131220999Y-90146499I0J-100500D01*
G01*
G37*
G36*
G01*
X131220999Y-89496499D02*
X131220999Y-89697499D01*
G75*
G02*
X131120499Y-89797999I-100500J0D01*
G01*
X130469499Y-89797999D01*
G75*
G02*
X130368999Y-89697499I0J100500D01*
G01*
X130368999Y-89496499D01*
G75*
G02*
X130469499Y-89395999I100500J0D01*
G01*
X131120499Y-89395999D01*
G75*
G02*
X131220999Y-89496499I0J-100500D01*
G01*
G37*
G36*
G01*
X131220999Y-88846499D02*
X131220999Y-89047499D01*
G75*
G02*
X131120499Y-89147999I-100500J0D01*
G01*
X130469499Y-89147999D01*
G75*
G02*
X130368999Y-89047499I0J100500D01*
G01*
X130368999Y-88846499D01*
G75*
G02*
X130469499Y-88745999I100500J0D01*
G01*
X131120499Y-88745999D01*
G75*
G02*
X131220999Y-88846499I0J-100500D01*
G01*
G37*
G36*
G01*
X129820999Y-87446499D02*
X129820999Y-88097499D01*
G75*
G02*
X129720499Y-88197999I-100500J0D01*
G01*
X129519499Y-88197999D01*
G75*
G02*
X129418999Y-88097499I0J100500D01*
G01*
X129418999Y-87446499D01*
G75*
G02*
X129519499Y-87345999I100500J0D01*
G01*
X129720499Y-87345999D01*
G75*
G02*
X129820999Y-87446499I0J-100500D01*
G01*
G37*
G36*
G01*
X129170999Y-87446499D02*
X129170999Y-88097499D01*
G75*
G02*
X129070499Y-88197999I-100500J0D01*
G01*
X128869499Y-88197999D01*
G75*
G02*
X128768999Y-88097499I0J100500D01*
G01*
X128768999Y-87446499D01*
G75*
G02*
X128869499Y-87345999I100500J0D01*
G01*
X129070499Y-87345999D01*
G75*
G02*
X129170999Y-87446499I0J-100500D01*
G01*
G37*
G36*
G01*
X128520999Y-87446499D02*
X128520999Y-88097499D01*
G75*
G02*
X128420499Y-88197999I-100500J0D01*
G01*
X128219499Y-88197999D01*
G75*
G02*
X128118999Y-88097499I0J100500D01*
G01*
X128118999Y-87446499D01*
G75*
G02*
X128219499Y-87345999I100500J0D01*
G01*
X128420499Y-87345999D01*
G75*
G02*
X128520999Y-87446499I0J-100500D01*
G01*
G37*
G36*
G01*
X127870999Y-87446499D02*
X127870999Y-88097499D01*
G75*
G02*
X127770499Y-88197999I-100500J0D01*
G01*
X127569499Y-88197999D01*
G75*
G02*
X127468999Y-88097499I0J100500D01*
G01*
X127468999Y-87446499D01*
G75*
G02*
X127569499Y-87345999I100500J0D01*
G01*
X127770499Y-87345999D01*
G75*
G02*
X127870999Y-87446499I0J-100500D01*
G01*
G37*
G36*
G01*
X127220999Y-87446499D02*
X127220999Y-88097499D01*
G75*
G02*
X127120499Y-88197999I-100500J0D01*
G01*
X126919499Y-88197999D01*
G75*
G02*
X126818999Y-88097499I0J100500D01*
G01*
X126818999Y-87446499D01*
G75*
G02*
X126919499Y-87345999I100500J0D01*
G01*
X127120499Y-87345999D01*
G75*
G02*
X127220999Y-87446499I0J-100500D01*
G01*
G37*
G36*
G01*
X126270999Y-88846499D02*
X126270999Y-89047499D01*
G75*
G02*
X126170499Y-89147999I-100500J0D01*
G01*
X125519499Y-89147999D01*
G75*
G02*
X125418999Y-89047499I0J100500D01*
G01*
X125418999Y-88846499D01*
G75*
G02*
X125519499Y-88745999I100500J0D01*
G01*
X126170499Y-88745999D01*
G75*
G02*
X126270999Y-88846499I0J-100500D01*
G01*
G37*
G36*
G01*
X126270999Y-89496499D02*
X126270999Y-89697499D01*
G75*
G02*
X126170499Y-89797999I-100500J0D01*
G01*
X125519499Y-89797999D01*
G75*
G02*
X125418999Y-89697499I0J100500D01*
G01*
X125418999Y-89496499D01*
G75*
G02*
X125519499Y-89395999I100500J0D01*
G01*
X126170499Y-89395999D01*
G75*
G02*
X126270999Y-89496499I0J-100500D01*
G01*
G37*
G36*
G01*
X126270999Y-90146499D02*
X126270999Y-90347499D01*
G75*
G02*
X126170499Y-90447999I-100500J0D01*
G01*
X125519499Y-90447999D01*
G75*
G02*
X125418999Y-90347499I0J100500D01*
G01*
X125418999Y-90146499D01*
G75*
G02*
X125519499Y-90045999I100500J0D01*
G01*
X126170499Y-90045999D01*
G75*
G02*
X126270999Y-90146499I0J-100500D01*
G01*
G37*
G36*
G01*
X126270999Y-90796499D02*
X126270999Y-90997499D01*
G75*
G02*
X126170499Y-91097999I-100500J0D01*
G01*
X125519499Y-91097999D01*
G75*
G02*
X125418999Y-90997499I0J100500D01*
G01*
X125418999Y-90796499D01*
G75*
G02*
X125519499Y-90695999I100500J0D01*
G01*
X126170499Y-90695999D01*
G75*
G02*
X126270999Y-90796499I0J-100500D01*
G01*
G37*
G36*
G01*
X126270999Y-91446499D02*
X126270999Y-91647499D01*
G75*
G02*
X126170499Y-91747999I-100500J0D01*
G01*
X125519499Y-91747999D01*
G75*
G02*
X125418999Y-91647499I0J100500D01*
G01*
X125418999Y-91446499D01*
G75*
G02*
X125519499Y-91345999I100500J0D01*
G01*
X126170499Y-91345999D01*
G75*
G02*
X126270999Y-91446499I0J-100500D01*
G01*
G37*
G36*
G01*
X127220999Y-92396499D02*
X127220999Y-93047499D01*
G75*
G02*
X127120499Y-93147999I-100500J0D01*
G01*
X126919499Y-93147999D01*
G75*
G02*
X126818999Y-93047499I0J100500D01*
G01*
X126818999Y-92396499D01*
G75*
G02*
X126919499Y-92295999I100500J0D01*
G01*
X127120499Y-92295999D01*
G75*
G02*
X127220999Y-92396499I0J-100500D01*
G01*
G37*
G36*
G01*
X127870999Y-92396499D02*
X127870999Y-93047499D01*
G75*
G02*
X127770499Y-93147999I-100500J0D01*
G01*
X127569499Y-93147999D01*
G75*
G02*
X127468999Y-93047499I0J100500D01*
G01*
X127468999Y-92396499D01*
G75*
G02*
X127569499Y-92295999I100500J0D01*
G01*
X127770499Y-92295999D01*
G75*
G02*
X127870999Y-92396499I0J-100500D01*
G01*
G37*
G36*
G01*
X128520999Y-92396499D02*
X128520999Y-93047499D01*
G75*
G02*
X128420499Y-93147999I-100500J0D01*
G01*
X128219499Y-93147999D01*
G75*
G02*
X128118999Y-93047499I0J100500D01*
G01*
X128118999Y-92396499D01*
G75*
G02*
X128219499Y-92295999I100500J0D01*
G01*
X128420499Y-92295999D01*
G75*
G02*
X128520999Y-92396499I0J-100500D01*
G01*
G37*
G36*
G01*
X129170999Y-92396499D02*
X129170999Y-93047499D01*
G75*
G02*
X129070499Y-93147999I-100500J0D01*
G01*
X128869499Y-93147999D01*
G75*
G02*
X128768999Y-93047499I0J100500D01*
G01*
X128768999Y-92396499D01*
G75*
G02*
X128869499Y-92295999I100500J0D01*
G01*
X129070499Y-92295999D01*
G75*
G02*
X129170999Y-92396499I0J-100500D01*
G01*
G37*
G36*
G01*
X129820999Y-92396499D02*
X129820999Y-93047499D01*
G75*
G02*
X129720499Y-93147999I-100500J0D01*
G01*
X129519499Y-93147999D01*
G75*
G02*
X129418999Y-93047499I0J100500D01*
G01*
X129418999Y-92396499D01*
G75*
G02*
X129519499Y-92295999I100500J0D01*
G01*
X129720499Y-92295999D01*
G75*
G02*
X129820999Y-92396499I0J-100500D01*
G01*
G37*
G36*
G01*
X120637001Y-146357000D02*
X119436999Y-146357000D01*
G75*
G02*
X119386000Y-146306001I0J50999D01*
G01*
X119386000Y-145605999D01*
G75*
G02*
X119436999Y-145555000I50999J0D01*
G01*
X120637001Y-145555000D01*
G75*
G02*
X120688000Y-145605999I0J-50999D01*
G01*
X120688000Y-146306001D01*
G75*
G02*
X120637001Y-146357000I-50999J0D01*
G01*
G37*
G36*
G01*
X120637001Y-145407000D02*
X119436999Y-145407000D01*
G75*
G02*
X119386000Y-145356001I0J50999D01*
G01*
X119386000Y-144655999D01*
G75*
G02*
X119436999Y-144605000I50999J0D01*
G01*
X120637001Y-144605000D01*
G75*
G02*
X120688000Y-144655999I0J-50999D01*
G01*
X120688000Y-145356001D01*
G75*
G02*
X120637001Y-145407000I-50999J0D01*
G01*
G37*
G36*
G01*
X120637001Y-137707000D02*
X119436999Y-137707000D01*
G75*
G02*
X119386000Y-137656001I0J50999D01*
G01*
X119386000Y-136955999D01*
G75*
G02*
X119436999Y-136905000I50999J0D01*
G01*
X120637001Y-136905000D01*
G75*
G02*
X120688000Y-136955999I0J-50999D01*
G01*
X120688000Y-137656001D01*
G75*
G02*
X120637001Y-137707000I-50999J0D01*
G01*
G37*
G36*
G01*
X120637001Y-138807000D02*
X119436999Y-138807000D01*
G75*
G02*
X119386000Y-138756001I0J50999D01*
G01*
X119386000Y-138055999D01*
G75*
G02*
X119436999Y-138005000I50999J0D01*
G01*
X120637001Y-138005000D01*
G75*
G02*
X120688000Y-138055999I0J-50999D01*
G01*
X120688000Y-138756001D01*
G75*
G02*
X120637001Y-138807000I-50999J0D01*
G01*
G37*
G36*
G01*
X120637001Y-139907000D02*
X119436999Y-139907000D01*
G75*
G02*
X119386000Y-139856001I0J50999D01*
G01*
X119386000Y-139155999D01*
G75*
G02*
X119436999Y-139105000I50999J0D01*
G01*
X120637001Y-139105000D01*
G75*
G02*
X120688000Y-139155999I0J-50999D01*
G01*
X120688000Y-139856001D01*
G75*
G02*
X120637001Y-139907000I-50999J0D01*
G01*
G37*
G36*
G01*
X120637001Y-141007000D02*
X119436999Y-141007000D01*
G75*
G02*
X119386000Y-140956001I0J50999D01*
G01*
X119386000Y-140255999D01*
G75*
G02*
X119436999Y-140205000I50999J0D01*
G01*
X120637001Y-140205000D01*
G75*
G02*
X120688000Y-140255999I0J-50999D01*
G01*
X120688000Y-140956001D01*
G75*
G02*
X120637001Y-141007000I-50999J0D01*
G01*
G37*
G36*
G01*
X120637001Y-142107000D02*
X119436999Y-142107000D01*
G75*
G02*
X119386000Y-142056001I0J50999D01*
G01*
X119386000Y-141355999D01*
G75*
G02*
X119436999Y-141305000I50999J0D01*
G01*
X120637001Y-141305000D01*
G75*
G02*
X120688000Y-141355999I0J-50999D01*
G01*
X120688000Y-142056001D01*
G75*
G02*
X120637001Y-142107000I-50999J0D01*
G01*
G37*
G36*
G01*
X120637001Y-143207000D02*
X119436999Y-143207000D01*
G75*
G02*
X119386000Y-143156001I0J50999D01*
G01*
X119386000Y-142455999D01*
G75*
G02*
X119436999Y-142405000I50999J0D01*
G01*
X120637001Y-142405000D01*
G75*
G02*
X120688000Y-142455999I0J-50999D01*
G01*
X120688000Y-143156001D01*
G75*
G02*
X120637001Y-143207000I-50999J0D01*
G01*
G37*
G36*
G01*
X120637001Y-144307000D02*
X119436999Y-144307000D01*
G75*
G02*
X119386000Y-144256001I0J50999D01*
G01*
X119386000Y-143555999D01*
G75*
G02*
X119436999Y-143505000I50999J0D01*
G01*
X120637001Y-143505000D01*
G75*
G02*
X120688000Y-143555999I0J-50999D01*
G01*
X120688000Y-144256001D01*
G75*
G02*
X120637001Y-144307000I-50999J0D01*
G01*
G37*
G36*
G01*
X120637000Y-136307000D02*
X119437000Y-136307000D01*
G75*
G02*
X119386000Y-136256000I0J51000D01*
G01*
X119386000Y-135256000D01*
G75*
G02*
X119437000Y-135205000I51000J0D01*
G01*
X120637000Y-135205000D01*
G75*
G02*
X120688000Y-135256000I0J-51000D01*
G01*
X120688000Y-136256000D01*
G75*
G02*
X120637000Y-136307000I-51000J0D01*
G01*
G37*
G36*
G01*
X124937000Y-147457000D02*
X123737000Y-147457000D01*
G75*
G02*
X123686000Y-147406000I0J51000D01*
G01*
X123686000Y-146406000D01*
G75*
G02*
X123737000Y-146355000I51000J0D01*
G01*
X124937000Y-146355000D01*
G75*
G02*
X124988000Y-146406000I0J-51000D01*
G01*
X124988000Y-147406000D01*
G75*
G02*
X124937000Y-147457000I-51000J0D01*
G01*
G37*
G36*
G01*
X130937000Y-147457000D02*
X130137000Y-147457000D01*
G75*
G02*
X130086000Y-147406000I0J51000D01*
G01*
X130086000Y-146406000D01*
G75*
G02*
X130137000Y-146355000I51000J0D01*
G01*
X130937000Y-146355000D01*
G75*
G02*
X130988000Y-146406000I0J-51000D01*
G01*
X130988000Y-147406000D01*
G75*
G02*
X130937000Y-147457000I-51000J0D01*
G01*
G37*
G36*
G01*
X136087000Y-147457000D02*
X133287000Y-147457000D01*
G75*
G02*
X133236000Y-147406000I0J51000D01*
G01*
X133236000Y-146406000D01*
G75*
G02*
X133287000Y-146355000I51000J0D01*
G01*
X136087000Y-146355000D01*
G75*
G02*
X136138000Y-146406000I0J-51000D01*
G01*
X136138000Y-147406000D01*
G75*
G02*
X136087000Y-147457000I-51000J0D01*
G01*
G37*
G36*
G01*
X136087000Y-134107000D02*
X134187000Y-134107000D01*
G75*
G02*
X134136000Y-134056000I0J51000D01*
G01*
X134136000Y-132756000D01*
G75*
G02*
X134187000Y-132705000I51000J0D01*
G01*
X136087000Y-132705000D01*
G75*
G02*
X136138000Y-132756000I0J-51000D01*
G01*
X136138000Y-134056000D01*
G75*
G02*
X136087000Y-134107000I-51000J0D01*
G01*
G37*
G36*
G01*
X133901000Y-74817000D02*
X133901000Y-74567000D01*
G75*
G02*
X133952000Y-74516000I51000J0D01*
G01*
X135052000Y-74516000D01*
G75*
G02*
X135103000Y-74567000I0J-51000D01*
G01*
X135103000Y-74817000D01*
G75*
G02*
X135052000Y-74868000I-51000J0D01*
G01*
X133952000Y-74868000D01*
G75*
G02*
X133901000Y-74817000I0J51000D01*
G01*
G37*
G36*
G01*
X133901000Y-75317000D02*
X133901000Y-75067000D01*
G75*
G02*
X133952000Y-75016000I51000J0D01*
G01*
X135052000Y-75016000D01*
G75*
G02*
X135103000Y-75067000I0J-51000D01*
G01*
X135103000Y-75317000D01*
G75*
G02*
X135052000Y-75368000I-51000J0D01*
G01*
X133952000Y-75368000D01*
G75*
G02*
X133901000Y-75317000I0J51000D01*
G01*
G37*
G36*
G01*
X133901000Y-75817000D02*
X133901000Y-75567000D01*
G75*
G02*
X133952000Y-75516000I51000J0D01*
G01*
X135052000Y-75516000D01*
G75*
G02*
X135103000Y-75567000I0J-51000D01*
G01*
X135103000Y-75817000D01*
G75*
G02*
X135052000Y-75868000I-51000J0D01*
G01*
X133952000Y-75868000D01*
G75*
G02*
X133901000Y-75817000I0J51000D01*
G01*
G37*
G36*
G01*
X133901000Y-76317000D02*
X133901000Y-76067000D01*
G75*
G02*
X133952000Y-76016000I51000J0D01*
G01*
X135052000Y-76016000D01*
G75*
G02*
X135103000Y-76067000I0J-51000D01*
G01*
X135103000Y-76317000D01*
G75*
G02*
X135052000Y-76368000I-51000J0D01*
G01*
X133952000Y-76368000D01*
G75*
G02*
X133901000Y-76317000I0J51000D01*
G01*
G37*
G36*
G01*
X133901000Y-76817000D02*
X133901000Y-76567000D01*
G75*
G02*
X133952000Y-76516000I51000J0D01*
G01*
X135052000Y-76516000D01*
G75*
G02*
X135103000Y-76567000I0J-51000D01*
G01*
X135103000Y-76817000D01*
G75*
G02*
X135052000Y-76868000I-51000J0D01*
G01*
X133952000Y-76868000D01*
G75*
G02*
X133901000Y-76817000I0J51000D01*
G01*
G37*
G36*
G01*
X138201000Y-76817000D02*
X138201000Y-76567000D01*
G75*
G02*
X138252000Y-76516000I51000J0D01*
G01*
X139352000Y-76516000D01*
G75*
G02*
X139403000Y-76567000I0J-51000D01*
G01*
X139403000Y-76817000D01*
G75*
G02*
X139352000Y-76868000I-51000J0D01*
G01*
X138252000Y-76868000D01*
G75*
G02*
X138201000Y-76817000I0J51000D01*
G01*
G37*
G36*
G01*
X138201000Y-76317000D02*
X138201000Y-76067000D01*
G75*
G02*
X138252000Y-76016000I51000J0D01*
G01*
X139352000Y-76016000D01*
G75*
G02*
X139403000Y-76067000I0J-51000D01*
G01*
X139403000Y-76317000D01*
G75*
G02*
X139352000Y-76368000I-51000J0D01*
G01*
X138252000Y-76368000D01*
G75*
G02*
X138201000Y-76317000I0J51000D01*
G01*
G37*
G36*
G01*
X138201000Y-75817000D02*
X138201000Y-75567000D01*
G75*
G02*
X138252000Y-75516000I51000J0D01*
G01*
X139352000Y-75516000D01*
G75*
G02*
X139403000Y-75567000I0J-51000D01*
G01*
X139403000Y-75817000D01*
G75*
G02*
X139352000Y-75868000I-51000J0D01*
G01*
X138252000Y-75868000D01*
G75*
G02*
X138201000Y-75817000I0J51000D01*
G01*
G37*
G36*
G01*
X138201000Y-75317000D02*
X138201000Y-75067000D01*
G75*
G02*
X138252000Y-75016000I51000J0D01*
G01*
X139352000Y-75016000D01*
G75*
G02*
X139403000Y-75067000I0J-51000D01*
G01*
X139403000Y-75317000D01*
G75*
G02*
X139352000Y-75368000I-51000J0D01*
G01*
X138252000Y-75368000D01*
G75*
G02*
X138201000Y-75317000I0J51000D01*
G01*
G37*
G36*
G01*
X138201000Y-74817000D02*
X138201000Y-74567000D01*
G75*
G02*
X138252000Y-74516000I51000J0D01*
G01*
X139352000Y-74516000D01*
G75*
G02*
X139403000Y-74567000I0J-51000D01*
G01*
X139403000Y-74817000D01*
G75*
G02*
X139352000Y-74868000I-51000J0D01*
G01*
X138252000Y-74868000D01*
G75*
G02*
X138201000Y-74817000I0J51000D01*
G01*
G37*
G36*
G01*
X138218000Y-105179000D02*
X139018000Y-105179000D01*
G75*
G02*
X139069000Y-105230000I0J-51000D01*
G01*
X139069000Y-106130000D01*
G75*
G02*
X139018000Y-106181000I-51000J0D01*
G01*
X138218000Y-106181000D01*
G75*
G02*
X138167000Y-106130000I0J51000D01*
G01*
X138167000Y-105230000D01*
G75*
G02*
X138218000Y-105179000I51000J0D01*
G01*
G37*
G36*
G01*
X136318000Y-105179000D02*
X137118000Y-105179000D01*
G75*
G02*
X137169000Y-105230000I0J-51000D01*
G01*
X137169000Y-106130000D01*
G75*
G02*
X137118000Y-106181000I-51000J0D01*
G01*
X136318000Y-106181000D01*
G75*
G02*
X136267000Y-106130000I0J51000D01*
G01*
X136267000Y-105230000D01*
G75*
G02*
X136318000Y-105179000I51000J0D01*
G01*
G37*
G36*
G01*
X137268000Y-107179000D02*
X138068000Y-107179000D01*
G75*
G02*
X138119000Y-107230000I0J-51000D01*
G01*
X138119000Y-108130000D01*
G75*
G02*
X138068000Y-108181000I-51000J0D01*
G01*
X137268000Y-108181000D01*
G75*
G02*
X137217000Y-108130000I0J51000D01*
G01*
X137217000Y-107230000D01*
G75*
G02*
X137268000Y-107179000I51000J0D01*
G01*
G37*
G36*
G01*
X128958500Y-95474000D02*
X128597500Y-95474000D01*
G75*
G02*
X128417000Y-95293500I0J180500D01*
G01*
X128417000Y-94817500D01*
G75*
G02*
X128597500Y-94637000I180500J0D01*
G01*
X128958500Y-94637000D01*
G75*
G02*
X129139000Y-94817500I0J-180500D01*
G01*
X129139000Y-95293500D01*
G75*
G02*
X128958500Y-95474000I-180500J0D01*
G01*
G37*
G36*
G01*
X128958500Y-94339000D02*
X128597500Y-94339000D01*
G75*
G02*
X128417000Y-94158500I0J180500D01*
G01*
X128417000Y-93682500D01*
G75*
G02*
X128597500Y-93502000I180500J0D01*
G01*
X128958500Y-93502000D01*
G75*
G02*
X129139000Y-93682500I0J-180500D01*
G01*
X129139000Y-94158500D01*
G75*
G02*
X128958500Y-94339000I-180500J0D01*
G01*
G37*
G36*
G01*
X139372500Y-66399000D02*
X139011500Y-66399000D01*
G75*
G02*
X138831000Y-66218500I0J180500D01*
G01*
X138831000Y-65742500D01*
G75*
G02*
X139011500Y-65562000I180500J0D01*
G01*
X139372500Y-65562000D01*
G75*
G02*
X139553000Y-65742500I0J-180500D01*
G01*
X139553000Y-66218500D01*
G75*
G02*
X139372500Y-66399000I-180500J0D01*
G01*
G37*
G36*
G01*
X139372500Y-67534000D02*
X139011500Y-67534000D01*
G75*
G02*
X138831000Y-67353500I0J180500D01*
G01*
X138831000Y-66877500D01*
G75*
G02*
X139011500Y-66697000I180500J0D01*
G01*
X139372500Y-66697000D01*
G75*
G02*
X139553000Y-66877500I0J-180500D01*
G01*
X139553000Y-67353500D01*
G75*
G02*
X139372500Y-67534000I-180500J0D01*
G01*
G37*
G36*
G01*
X127245000Y-81353000D02*
X127771000Y-81353000D01*
G75*
G02*
X128034000Y-81616000I0J-263000D01*
G01*
X128034000Y-82267000D01*
G75*
G02*
X127771000Y-82530000I-263000J0D01*
G01*
X127245000Y-82530000D01*
G75*
G02*
X126982000Y-82267000I0J263000D01*
G01*
X126982000Y-81616000D01*
G75*
G02*
X127245000Y-81353000I263000J0D01*
G01*
G37*
G36*
G01*
X127245000Y-83078000D02*
X127771000Y-83078000D01*
G75*
G02*
X128034000Y-83341000I0J-263000D01*
G01*
X128034000Y-83992000D01*
G75*
G02*
X127771000Y-84255000I-263000J0D01*
G01*
X127245000Y-84255000D01*
G75*
G02*
X126982000Y-83992000I0J263000D01*
G01*
X126982000Y-83341000D01*
G75*
G02*
X127245000Y-83078000I263000J0D01*
G01*
G37*
G36*
G01*
X129974500Y-94339000D02*
X129613500Y-94339000D01*
G75*
G02*
X129433000Y-94158500I0J180500D01*
G01*
X129433000Y-93682500D01*
G75*
G02*
X129613500Y-93502000I180500J0D01*
G01*
X129974500Y-93502000D01*
G75*
G02*
X130155000Y-93682500I0J-180500D01*
G01*
X130155000Y-94158500D01*
G75*
G02*
X129974500Y-94339000I-180500J0D01*
G01*
G37*
G36*
G01*
X129974500Y-95474000D02*
X129613500Y-95474000D01*
G75*
G02*
X129433000Y-95293500I0J180500D01*
G01*
X129433000Y-94817500D01*
G75*
G02*
X129613500Y-94637000I180500J0D01*
G01*
X129974500Y-94637000D01*
G75*
G02*
X130155000Y-94817500I0J-180500D01*
G01*
X130155000Y-95293500D01*
G75*
G02*
X129974500Y-95474000I-180500J0D01*
G01*
G37*
G36*
G01*
X118782500Y-141297500D02*
X118782500Y-141658500D01*
G75*
G02*
X118602000Y-141839000I-180500J0D01*
G01*
X118126000Y-141839000D01*
G75*
G02*
X117945500Y-141658500I0J180500D01*
G01*
X117945500Y-141297500D01*
G75*
G02*
X118126000Y-141117000I180500J0D01*
G01*
X118602000Y-141117000D01*
G75*
G02*
X118782500Y-141297500I0J-180500D01*
G01*
G37*
G36*
G01*
X117647500Y-141297500D02*
X117647500Y-141658500D01*
G75*
G02*
X117467000Y-141839000I-180500J0D01*
G01*
X116991000Y-141839000D01*
G75*
G02*
X116810500Y-141658500I0J180500D01*
G01*
X116810500Y-141297500D01*
G75*
G02*
X116991000Y-141117000I180500J0D01*
G01*
X117467000Y-141117000D01*
G75*
G02*
X117647500Y-141297500I0J-180500D01*
G01*
G37*
G36*
G01*
X137309000Y-109273500D02*
X137309000Y-108912500D01*
G75*
G02*
X137489500Y-108732000I180500J0D01*
G01*
X137965500Y-108732000D01*
G75*
G02*
X138146000Y-108912500I0J-180500D01*
G01*
X138146000Y-109273500D01*
G75*
G02*
X137965500Y-109454000I-180500J0D01*
G01*
X137489500Y-109454000D01*
G75*
G02*
X137309000Y-109273500I0J180500D01*
G01*
G37*
G36*
G01*
X136174000Y-109273500D02*
X136174000Y-108912500D01*
G75*
G02*
X136354500Y-108732000I180500J0D01*
G01*
X136830500Y-108732000D01*
G75*
G02*
X137011000Y-108912500I0J-180500D01*
G01*
X137011000Y-109273500D01*
G75*
G02*
X136830500Y-109454000I-180500J0D01*
G01*
X136354500Y-109454000D01*
G75*
G02*
X136174000Y-109273500I0J180500D01*
G01*
G37*
G36*
G01*
X115897500Y-99598000D02*
X116258500Y-99598000D01*
G75*
G02*
X116439000Y-99778500I0J-180500D01*
G01*
X116439000Y-100254500D01*
G75*
G02*
X116258500Y-100435000I-180500J0D01*
G01*
X115897500Y-100435000D01*
G75*
G02*
X115717000Y-100254500I0J180500D01*
G01*
X115717000Y-99778500D01*
G75*
G02*
X115897500Y-99598000I180500J0D01*
G01*
G37*
G36*
G01*
X115897500Y-100733000D02*
X116258500Y-100733000D01*
G75*
G02*
X116439000Y-100913500I0J-180500D01*
G01*
X116439000Y-101389500D01*
G75*
G02*
X116258500Y-101570000I-180500J0D01*
G01*
X115897500Y-101570000D01*
G75*
G02*
X115717000Y-101389500I0J180500D01*
G01*
X115717000Y-100913500D01*
G75*
G02*
X115897500Y-100733000I180500J0D01*
G01*
G37*
G36*
G01*
X115897500Y-97177000D02*
X116258500Y-97177000D01*
G75*
G02*
X116439000Y-97357500I0J-180500D01*
G01*
X116439000Y-97833500D01*
G75*
G02*
X116258500Y-98014000I-180500J0D01*
G01*
X115897500Y-98014000D01*
G75*
G02*
X115717000Y-97833500I0J180500D01*
G01*
X115717000Y-97357500D01*
G75*
G02*
X115897500Y-97177000I180500J0D01*
G01*
G37*
G36*
G01*
X115897500Y-96042000D02*
X116258500Y-96042000D01*
G75*
G02*
X116439000Y-96222500I0J-180500D01*
G01*
X116439000Y-96698500D01*
G75*
G02*
X116258500Y-96879000I-180500J0D01*
G01*
X115897500Y-96879000D01*
G75*
G02*
X115717000Y-96698500I0J180500D01*
G01*
X115717000Y-96222500D01*
G75*
G02*
X115897500Y-96042000I180500J0D01*
G01*
G37*
G36*
G01*
X121739500Y-104289000D02*
X122100500Y-104289000D01*
G75*
G02*
X122281000Y-104469500I0J-180500D01*
G01*
X122281000Y-104945500D01*
G75*
G02*
X122100500Y-105126000I-180500J0D01*
G01*
X121739500Y-105126000D01*
G75*
G02*
X121559000Y-104945500I0J180500D01*
G01*
X121559000Y-104469500D01*
G75*
G02*
X121739500Y-104289000I180500J0D01*
G01*
G37*
G36*
G01*
X121739500Y-103154000D02*
X122100500Y-103154000D01*
G75*
G02*
X122281000Y-103334500I0J-180500D01*
G01*
X122281000Y-103810500D01*
G75*
G02*
X122100500Y-103991000I-180500J0D01*
G01*
X121739500Y-103991000D01*
G75*
G02*
X121559000Y-103810500I0J180500D01*
G01*
X121559000Y-103334500D01*
G75*
G02*
X121739500Y-103154000I180500J0D01*
G01*
G37*
G36*
G01*
X123878500Y-64740000D02*
X123517500Y-64740000D01*
G75*
G02*
X123337000Y-64559500I0J180500D01*
G01*
X123337000Y-64083500D01*
G75*
G02*
X123517500Y-63903000I180500J0D01*
G01*
X123878500Y-63903000D01*
G75*
G02*
X124059000Y-64083500I0J-180500D01*
G01*
X124059000Y-64559500D01*
G75*
G02*
X123878500Y-64740000I-180500J0D01*
G01*
G37*
G36*
G01*
X123878500Y-63605000D02*
X123517500Y-63605000D01*
G75*
G02*
X123337000Y-63424500I0J180500D01*
G01*
X123337000Y-62948500D01*
G75*
G02*
X123517500Y-62768000I180500J0D01*
G01*
X123878500Y-62768000D01*
G75*
G02*
X124059000Y-62948500I0J-180500D01*
G01*
X124059000Y-63424500D01*
G75*
G02*
X123878500Y-63605000I-180500J0D01*
G01*
G37*
G36*
G01*
X136174000Y-78412500D02*
X136174000Y-78051500D01*
G75*
G02*
X136354500Y-77871000I180500J0D01*
G01*
X136830500Y-77871000D01*
G75*
G02*
X137011000Y-78051500I0J-180500D01*
G01*
X137011000Y-78412500D01*
G75*
G02*
X136830500Y-78593000I-180500J0D01*
G01*
X136354500Y-78593000D01*
G75*
G02*
X136174000Y-78412500I0J180500D01*
G01*
G37*
G36*
G01*
X137309000Y-78412500D02*
X137309000Y-78051500D01*
G75*
G02*
X137489500Y-77871000I180500J0D01*
G01*
X137965500Y-77871000D01*
G75*
G02*
X138146000Y-78051500I0J-180500D01*
G01*
X138146000Y-78412500D01*
G75*
G02*
X137965500Y-78593000I-180500J0D01*
G01*
X137489500Y-78593000D01*
G75*
G02*
X137309000Y-78412500I0J180500D01*
G01*
G37*
G36*
G01*
X126247000Y-130483000D02*
X125721000Y-130483000D01*
G75*
G02*
X125458000Y-130220000I0J263000D01*
G01*
X125458000Y-129594000D01*
G75*
G02*
X125721000Y-129331000I263000J0D01*
G01*
X126247000Y-129331000D01*
G75*
G02*
X126510000Y-129594000I0J-263000D01*
G01*
X126510000Y-130220000D01*
G75*
G02*
X126247000Y-130483000I-263000J0D01*
G01*
G37*
G36*
G01*
X126247000Y-128733000D02*
X125721000Y-128733000D01*
G75*
G02*
X125458000Y-128470000I0J263000D01*
G01*
X125458000Y-127844000D01*
G75*
G02*
X125721000Y-127581000I263000J0D01*
G01*
X126247000Y-127581000D01*
G75*
G02*
X126510000Y-127844000I0J-263000D01*
G01*
X126510000Y-128470000D01*
G75*
G02*
X126247000Y-128733000I-263000J0D01*
G01*
G37*
G36*
G01*
X122183000Y-128758500D02*
X121657000Y-128758500D01*
G75*
G02*
X121394000Y-128495500I0J263000D01*
G01*
X121394000Y-127869500D01*
G75*
G02*
X121657000Y-127606500I263000J0D01*
G01*
X122183000Y-127606500D01*
G75*
G02*
X122446000Y-127869500I0J-263000D01*
G01*
X122446000Y-128495500D01*
G75*
G02*
X122183000Y-128758500I-263000J0D01*
G01*
G37*
G36*
G01*
X122183000Y-130508500D02*
X121657000Y-130508500D01*
G75*
G02*
X121394000Y-130245500I0J263000D01*
G01*
X121394000Y-129619500D01*
G75*
G02*
X121657000Y-129356500I263000J0D01*
G01*
X122183000Y-129356500D01*
G75*
G02*
X122446000Y-129619500I0J-263000D01*
G01*
X122446000Y-130245500D01*
G75*
G02*
X122183000Y-130508500I-263000J0D01*
G01*
G37*
G36*
G01*
X117986924Y-138548158D02*
X117986924Y-138177158D01*
G75*
G02*
X118172424Y-137991658I185500J0D01*
G01*
X118618424Y-137991658D01*
G75*
G02*
X118803924Y-138177158I0J-185500D01*
G01*
X118803924Y-138548158D01*
G75*
G02*
X118618424Y-138733658I-185500J0D01*
G01*
X118172424Y-138733658D01*
G75*
G02*
X117986924Y-138548158I0J185500D01*
G01*
G37*
G36*
G01*
X116791924Y-138548158D02*
X116791924Y-138177158D01*
G75*
G02*
X116977424Y-137991658I185500J0D01*
G01*
X117423424Y-137991658D01*
G75*
G02*
X117608924Y-138177158I0J-185500D01*
G01*
X117608924Y-138548158D01*
G75*
G02*
X117423424Y-138733658I-185500J0D01*
G01*
X116977424Y-138733658D01*
G75*
G02*
X116791924Y-138548158I0J185500D01*
G01*
G37*
G36*
G01*
X116814924Y-139564158D02*
X116814924Y-139193158D01*
G75*
G02*
X117000424Y-139007658I185500J0D01*
G01*
X117446424Y-139007658D01*
G75*
G02*
X117631924Y-139193158I0J-185500D01*
G01*
X117631924Y-139564158D01*
G75*
G02*
X117446424Y-139749658I-185500J0D01*
G01*
X117000424Y-139749658D01*
G75*
G02*
X116814924Y-139564158I0J185500D01*
G01*
G37*
G36*
G01*
X118009924Y-139564158D02*
X118009924Y-139193158D01*
G75*
G02*
X118195424Y-139007658I185500J0D01*
G01*
X118641424Y-139007658D01*
G75*
G02*
X118826924Y-139193158I0J-185500D01*
G01*
X118826924Y-139564158D01*
G75*
G02*
X118641424Y-139749658I-185500J0D01*
G01*
X118195424Y-139749658D01*
G75*
G02*
X118009924Y-139564158I0J185500D01*
G01*
G37*
G36*
G01*
X132851000Y-91875000D02*
X132325000Y-91875000D01*
G75*
G02*
X132062000Y-91612000I0J263000D01*
G01*
X132062000Y-91061000D01*
G75*
G02*
X132325000Y-90798000I263000J0D01*
G01*
X132851000Y-90798000D01*
G75*
G02*
X133114000Y-91061000I0J-263000D01*
G01*
X133114000Y-91612000D01*
G75*
G02*
X132851000Y-91875000I-263000J0D01*
G01*
G37*
G36*
G01*
X132851000Y-90050000D02*
X132325000Y-90050000D01*
G75*
G02*
X132062000Y-89787000I0J263000D01*
G01*
X132062000Y-89236000D01*
G75*
G02*
X132325000Y-88973000I263000J0D01*
G01*
X132851000Y-88973000D01*
G75*
G02*
X133114000Y-89236000I0J-263000D01*
G01*
X133114000Y-89787000D01*
G75*
G02*
X132851000Y-90050000I-263000J0D01*
G01*
G37*
G36*
G01*
X118009924Y-144136158D02*
X118009924Y-143765158D01*
G75*
G02*
X118195424Y-143579658I185500J0D01*
G01*
X118641424Y-143579658D01*
G75*
G02*
X118826924Y-143765158I0J-185500D01*
G01*
X118826924Y-144136158D01*
G75*
G02*
X118641424Y-144321658I-185500J0D01*
G01*
X118195424Y-144321658D01*
G75*
G02*
X118009924Y-144136158I0J185500D01*
G01*
G37*
G36*
G01*
X116814924Y-144136158D02*
X116814924Y-143765158D01*
G75*
G02*
X117000424Y-143579658I185500J0D01*
G01*
X117446424Y-143579658D01*
G75*
G02*
X117631924Y-143765158I0J-185500D01*
G01*
X117631924Y-144136158D01*
G75*
G02*
X117446424Y-144321658I-185500J0D01*
G01*
X117000424Y-144321658D01*
G75*
G02*
X116814924Y-144136158I0J185500D01*
G01*
G37*
G36*
G01*
X116791924Y-137532158D02*
X116791924Y-137161158D01*
G75*
G02*
X116977424Y-136975658I185500J0D01*
G01*
X117423424Y-136975658D01*
G75*
G02*
X117608924Y-137161158I0J-185500D01*
G01*
X117608924Y-137532158D01*
G75*
G02*
X117423424Y-137717658I-185500J0D01*
G01*
X116977424Y-137717658D01*
G75*
G02*
X116791924Y-137532158I0J185500D01*
G01*
G37*
G36*
G01*
X117986924Y-137532158D02*
X117986924Y-137161158D01*
G75*
G02*
X118172424Y-136975658I185500J0D01*
G01*
X118618424Y-136975658D01*
G75*
G02*
X118803924Y-137161158I0J-185500D01*
G01*
X118803924Y-137532158D01*
G75*
G02*
X118618424Y-137717658I-185500J0D01*
G01*
X118172424Y-137717658D01*
G75*
G02*
X117986924Y-137532158I0J185500D01*
G01*
G37*
G36*
G01*
X126150000Y-127058500D02*
X126150000Y-126687500D01*
G75*
G02*
X126335500Y-126502000I185500J0D01*
G01*
X126781500Y-126502000D01*
G75*
G02*
X126967000Y-126687500I0J-185500D01*
G01*
X126967000Y-127058500D01*
G75*
G02*
X126781500Y-127244000I-185500J0D01*
G01*
X126335500Y-127244000D01*
G75*
G02*
X126150000Y-127058500I0J185500D01*
G01*
G37*
G36*
G01*
X124955000Y-127058500D02*
X124955000Y-126687500D01*
G75*
G02*
X125140500Y-126502000I185500J0D01*
G01*
X125586500Y-126502000D01*
G75*
G02*
X125772000Y-126687500I0J-185500D01*
G01*
X125772000Y-127058500D01*
G75*
G02*
X125586500Y-127244000I-185500J0D01*
G01*
X125140500Y-127244000D01*
G75*
G02*
X124955000Y-127058500I0J185500D01*
G01*
G37*
G36*
G01*
X120937000Y-127058500D02*
X120937000Y-126687500D01*
G75*
G02*
X121122500Y-126502000I185500J0D01*
G01*
X121568500Y-126502000D01*
G75*
G02*
X121754000Y-126687500I0J-185500D01*
G01*
X121754000Y-127058500D01*
G75*
G02*
X121568500Y-127244000I-185500J0D01*
G01*
X121122500Y-127244000D01*
G75*
G02*
X120937000Y-127058500I0J185500D01*
G01*
G37*
G36*
G01*
X122132000Y-127058500D02*
X122132000Y-126687500D01*
G75*
G02*
X122317500Y-126502000I185500J0D01*
G01*
X122763500Y-126502000D01*
G75*
G02*
X122949000Y-126687500I0J-185500D01*
G01*
X122949000Y-127058500D01*
G75*
G02*
X122763500Y-127244000I-185500J0D01*
G01*
X122317500Y-127244000D01*
G75*
G02*
X122132000Y-127058500I0J185500D01*
G01*
G37*
G36*
G01*
X117592000Y-108018500D02*
X117592000Y-108389500D01*
G75*
G02*
X117406500Y-108575000I-185500J0D01*
G01*
X116960500Y-108575000D01*
G75*
G02*
X116775000Y-108389500I0J185500D01*
G01*
X116775000Y-108018500D01*
G75*
G02*
X116960500Y-107833000I185500J0D01*
G01*
X117406500Y-107833000D01*
G75*
G02*
X117592000Y-108018500I0J-185500D01*
G01*
G37*
G36*
G01*
X116397000Y-108018500D02*
X116397000Y-108389500D01*
G75*
G02*
X116211500Y-108575000I-185500J0D01*
G01*
X115765500Y-108575000D01*
G75*
G02*
X115580000Y-108389500I0J185500D01*
G01*
X115580000Y-108018500D01*
G75*
G02*
X115765500Y-107833000I185500J0D01*
G01*
X116211500Y-107833000D01*
G75*
G02*
X116397000Y-108018500I0J-185500D01*
G01*
G37*
G36*
G01*
X116501000Y-110685500D02*
X116501000Y-111056500D01*
G75*
G02*
X116315500Y-111242000I-185500J0D01*
G01*
X115869500Y-111242000D01*
G75*
G02*
X115684000Y-111056500I0J185500D01*
G01*
X115684000Y-110685500D01*
G75*
G02*
X115869500Y-110500000I185500J0D01*
G01*
X116315500Y-110500000D01*
G75*
G02*
X116501000Y-110685500I0J-185500D01*
G01*
G37*
G36*
G01*
X117696000Y-110685500D02*
X117696000Y-111056500D01*
G75*
G02*
X117510500Y-111242000I-185500J0D01*
G01*
X117064500Y-111242000D01*
G75*
G02*
X116879000Y-111056500I0J185500D01*
G01*
X116879000Y-110685500D01*
G75*
G02*
X117064500Y-110500000I185500J0D01*
G01*
X117510500Y-110500000D01*
G75*
G02*
X117696000Y-110685500I0J-185500D01*
G01*
G37*
G36*
G01*
X117742000Y-113225500D02*
X117742000Y-113596500D01*
G75*
G02*
X117556500Y-113782000I-185500J0D01*
G01*
X117110500Y-113782000D01*
G75*
G02*
X116925000Y-113596500I0J185500D01*
G01*
X116925000Y-113225500D01*
G75*
G02*
X117110500Y-113040000I185500J0D01*
G01*
X117556500Y-113040000D01*
G75*
G02*
X117742000Y-113225500I0J-185500D01*
G01*
G37*
G36*
G01*
X116547000Y-113225500D02*
X116547000Y-113596500D01*
G75*
G02*
X116361500Y-113782000I-185500J0D01*
G01*
X115915500Y-113782000D01*
G75*
G02*
X115730000Y-113596500I0J185500D01*
G01*
X115730000Y-113225500D01*
G75*
G02*
X115915500Y-113040000I185500J0D01*
G01*
X116361500Y-113040000D01*
G75*
G02*
X116547000Y-113225500I0J-185500D01*
G01*
G37*
G36*
G01*
X117742000Y-118178500D02*
X117742000Y-118549500D01*
G75*
G02*
X117556500Y-118735000I-185500J0D01*
G01*
X117110500Y-118735000D01*
G75*
G02*
X116925000Y-118549500I0J185500D01*
G01*
X116925000Y-118178500D01*
G75*
G02*
X117110500Y-117993000I185500J0D01*
G01*
X117556500Y-117993000D01*
G75*
G02*
X117742000Y-118178500I0J-185500D01*
G01*
G37*
G36*
G01*
X116547000Y-118178500D02*
X116547000Y-118549500D01*
G75*
G02*
X116361500Y-118735000I-185500J0D01*
G01*
X115915500Y-118735000D01*
G75*
G02*
X115730000Y-118549500I0J185500D01*
G01*
X115730000Y-118178500D01*
G75*
G02*
X115915500Y-117993000I185500J0D01*
G01*
X116361500Y-117993000D01*
G75*
G02*
X116547000Y-118178500I0J-185500D01*
G01*
G37*
G36*
G01*
X116517500Y-104713000D02*
X116146500Y-104713000D01*
G75*
G02*
X115961000Y-104527500I0J185500D01*
G01*
X115961000Y-104081500D01*
G75*
G02*
X116146500Y-103896000I185500J0D01*
G01*
X116517500Y-103896000D01*
G75*
G02*
X116703000Y-104081500I0J-185500D01*
G01*
X116703000Y-104527500D01*
G75*
G02*
X116517500Y-104713000I-185500J0D01*
G01*
G37*
G36*
G01*
X116517500Y-105908000D02*
X116146500Y-105908000D01*
G75*
G02*
X115961000Y-105722500I0J185500D01*
G01*
X115961000Y-105276500D01*
G75*
G02*
X116146500Y-105091000I185500J0D01*
G01*
X116517500Y-105091000D01*
G75*
G02*
X116703000Y-105276500I0J-185500D01*
G01*
X116703000Y-105722500D01*
G75*
G02*
X116517500Y-105908000I-185500J0D01*
G01*
G37*
G36*
G01*
X138873000Y-87434500D02*
X138873000Y-87063500D01*
G75*
G02*
X139058500Y-86878000I185500J0D01*
G01*
X139504500Y-86878000D01*
G75*
G02*
X139690000Y-87063500I0J-185500D01*
G01*
X139690000Y-87434500D01*
G75*
G02*
X139504500Y-87620000I-185500J0D01*
G01*
X139058500Y-87620000D01*
G75*
G02*
X138873000Y-87434500I0J185500D01*
G01*
G37*
G36*
G01*
X137678000Y-87434500D02*
X137678000Y-87063500D01*
G75*
G02*
X137863500Y-86878000I185500J0D01*
G01*
X138309500Y-86878000D01*
G75*
G02*
X138495000Y-87063500I0J-185500D01*
G01*
X138495000Y-87434500D01*
G75*
G02*
X138309500Y-87620000I-185500J0D01*
G01*
X137863500Y-87620000D01*
G75*
G02*
X137678000Y-87434500I0J185500D01*
G01*
G37*
G36*
G01*
X137678000Y-96451500D02*
X137678000Y-96080500D01*
G75*
G02*
X137863500Y-95895000I185500J0D01*
G01*
X138309500Y-95895000D01*
G75*
G02*
X138495000Y-96080500I0J-185500D01*
G01*
X138495000Y-96451500D01*
G75*
G02*
X138309500Y-96637000I-185500J0D01*
G01*
X137863500Y-96637000D01*
G75*
G02*
X137678000Y-96451500I0J185500D01*
G01*
G37*
G36*
G01*
X138873000Y-96451500D02*
X138873000Y-96080500D01*
G75*
G02*
X139058500Y-95895000I185500J0D01*
G01*
X139504500Y-95895000D01*
G75*
G02*
X139690000Y-96080500I0J-185500D01*
G01*
X139690000Y-96451500D01*
G75*
G02*
X139504500Y-96637000I-185500J0D01*
G01*
X139058500Y-96637000D01*
G75*
G02*
X138873000Y-96451500I0J185500D01*
G01*
G37*
G36*
G01*
X139123500Y-85842000D02*
X138752500Y-85842000D01*
G75*
G02*
X138567000Y-85656500I0J185500D01*
G01*
X138567000Y-85210500D01*
G75*
G02*
X138752500Y-85025000I185500J0D01*
G01*
X139123500Y-85025000D01*
G75*
G02*
X139309000Y-85210500I0J-185500D01*
G01*
X139309000Y-85656500D01*
G75*
G02*
X139123500Y-85842000I-185500J0D01*
G01*
G37*
G36*
G01*
X139123500Y-84647000D02*
X138752500Y-84647000D01*
G75*
G02*
X138567000Y-84461500I0J185500D01*
G01*
X138567000Y-84015500D01*
G75*
G02*
X138752500Y-83830000I185500J0D01*
G01*
X139123500Y-83830000D01*
G75*
G02*
X139309000Y-84015500I0J-185500D01*
G01*
X139309000Y-84461500D01*
G75*
G02*
X139123500Y-84647000I-185500J0D01*
G01*
G37*
G36*
G01*
X139713000Y-88079500D02*
X139713000Y-88450500D01*
G75*
G02*
X139527500Y-88636000I-185500J0D01*
G01*
X139081500Y-88636000D01*
G75*
G02*
X138896000Y-88450500I0J185500D01*
G01*
X138896000Y-88079500D01*
G75*
G02*
X139081500Y-87894000I185500J0D01*
G01*
X139527500Y-87894000D01*
G75*
G02*
X139713000Y-88079500I0J-185500D01*
G01*
G37*
G36*
G01*
X138518000Y-88079500D02*
X138518000Y-88450500D01*
G75*
G02*
X138332500Y-88636000I-185500J0D01*
G01*
X137886500Y-88636000D01*
G75*
G02*
X137701000Y-88450500I0J185500D01*
G01*
X137701000Y-88079500D01*
G75*
G02*
X137886500Y-87894000I185500J0D01*
G01*
X138332500Y-87894000D01*
G75*
G02*
X138518000Y-88079500I0J-185500D01*
G01*
G37*
G36*
G01*
X138495000Y-95064500D02*
X138495000Y-95435500D01*
G75*
G02*
X138309500Y-95621000I-185500J0D01*
G01*
X137863500Y-95621000D01*
G75*
G02*
X137678000Y-95435500I0J185500D01*
G01*
X137678000Y-95064500D01*
G75*
G02*
X137863500Y-94879000I185500J0D01*
G01*
X138309500Y-94879000D01*
G75*
G02*
X138495000Y-95064500I0J-185500D01*
G01*
G37*
G36*
G01*
X139690000Y-95064500D02*
X139690000Y-95435500D01*
G75*
G02*
X139504500Y-95621000I-185500J0D01*
G01*
X139058500Y-95621000D01*
G75*
G02*
X138873000Y-95435500I0J185500D01*
G01*
X138873000Y-95064500D01*
G75*
G02*
X139058500Y-94879000I185500J0D01*
G01*
X139504500Y-94879000D01*
G75*
G02*
X139690000Y-95064500I0J-185500D01*
G01*
G37*
G36*
G01*
X139006500Y-113040000D02*
X139377500Y-113040000D01*
G75*
G02*
X139563000Y-113225500I0J-185500D01*
G01*
X139563000Y-113671500D01*
G75*
G02*
X139377500Y-113857000I-185500J0D01*
G01*
X139006500Y-113857000D01*
G75*
G02*
X138821000Y-113671500I0J185500D01*
G01*
X138821000Y-113225500D01*
G75*
G02*
X139006500Y-113040000I185500J0D01*
G01*
G37*
G36*
G01*
X139006500Y-114235000D02*
X139377500Y-114235000D01*
G75*
G02*
X139563000Y-114420500I0J-185500D01*
G01*
X139563000Y-114866500D01*
G75*
G02*
X139377500Y-115052000I-185500J0D01*
G01*
X139006500Y-115052000D01*
G75*
G02*
X138821000Y-114866500I0J185500D01*
G01*
X138821000Y-114420500D01*
G75*
G02*
X139006500Y-114235000I185500J0D01*
G01*
G37*
G36*
G01*
X139377500Y-117136000D02*
X139006500Y-117136000D01*
G75*
G02*
X138821000Y-116950500I0J185500D01*
G01*
X138821000Y-116504500D01*
G75*
G02*
X139006500Y-116319000I185500J0D01*
G01*
X139377500Y-116319000D01*
G75*
G02*
X139563000Y-116504500I0J-185500D01*
G01*
X139563000Y-116950500D01*
G75*
G02*
X139377500Y-117136000I-185500J0D01*
G01*
G37*
G36*
G01*
X139377500Y-118331000D02*
X139006500Y-118331000D01*
G75*
G02*
X138821000Y-118145500I0J185500D01*
G01*
X138821000Y-117699500D01*
G75*
G02*
X139006500Y-117514000I185500J0D01*
G01*
X139377500Y-117514000D01*
G75*
G02*
X139563000Y-117699500I0J-185500D01*
G01*
X139563000Y-118145500D01*
G75*
G02*
X139377500Y-118331000I-185500J0D01*
G01*
G37*
G36*
G01*
X138241000Y-120972500D02*
X138241000Y-121343500D01*
G75*
G02*
X138055500Y-121529000I-185500J0D01*
G01*
X137609500Y-121529000D01*
G75*
G02*
X137424000Y-121343500I0J185500D01*
G01*
X137424000Y-120972500D01*
G75*
G02*
X137609500Y-120787000I185500J0D01*
G01*
X138055500Y-120787000D01*
G75*
G02*
X138241000Y-120972500I0J-185500D01*
G01*
G37*
G36*
G01*
X139436000Y-120972500D02*
X139436000Y-121343500D01*
G75*
G02*
X139250500Y-121529000I-185500J0D01*
G01*
X138804500Y-121529000D01*
G75*
G02*
X138619000Y-121343500I0J185500D01*
G01*
X138619000Y-120972500D01*
G75*
G02*
X138804500Y-120787000I185500J0D01*
G01*
X139250500Y-120787000D01*
G75*
G02*
X139436000Y-120972500I0J-185500D01*
G01*
G37*
G36*
G01*
X117879000Y-103590000D02*
X117879000Y-102790000D01*
G75*
G02*
X117930000Y-102739000I51000J0D01*
G01*
X118830000Y-102739000D01*
G75*
G02*
X118881000Y-102790000I0J-51000D01*
G01*
X118881000Y-103590000D01*
G75*
G02*
X118830000Y-103641000I-51000J0D01*
G01*
X117930000Y-103641000D01*
G75*
G02*
X117879000Y-103590000I0J51000D01*
G01*
G37*
G36*
G01*
X117879000Y-105490000D02*
X117879000Y-104690000D01*
G75*
G02*
X117930000Y-104639000I51000J0D01*
G01*
X118830000Y-104639000D01*
G75*
G02*
X118881000Y-104690000I0J-51000D01*
G01*
X118881000Y-105490000D01*
G75*
G02*
X118830000Y-105541000I-51000J0D01*
G01*
X117930000Y-105541000D01*
G75*
G02*
X117879000Y-105490000I0J51000D01*
G01*
G37*
G36*
G01*
X119879000Y-104540000D02*
X119879000Y-103740000D01*
G75*
G02*
X119930000Y-103689000I51000J0D01*
G01*
X120830000Y-103689000D01*
G75*
G02*
X120881000Y-103740000I0J-51000D01*
G01*
X120881000Y-104540000D01*
G75*
G02*
X120830000Y-104591000I-51000J0D01*
G01*
X119930000Y-104591000D01*
G75*
G02*
X119879000Y-104540000I0J51000D01*
G01*
G37*
D10*
G36*
X120689732Y-145406000D02*
G01*
X120690000Y-145407000D01*
X120690000Y-145555000D01*
X120689000Y-145556732D01*
X120688000Y-145557000D01*
X119386000Y-145557000D01*
X119384268Y-145556000D01*
X119384000Y-145555000D01*
X119384000Y-145407000D01*
X119385000Y-145405268D01*
X119386000Y-145405000D01*
X120688000Y-145405000D01*
X120689732Y-145406000D01*
G37*
G36*
X127827055Y-92294009D02*
G01*
X127840490Y-92295332D01*
X127840875Y-92295408D01*
X127847890Y-92297536D01*
X127848252Y-92297686D01*
X127854718Y-92301143D01*
X127855044Y-92301361D01*
X127860710Y-92306011D01*
X127860987Y-92306288D01*
X127865637Y-92311954D01*
X127865855Y-92312280D01*
X127869312Y-92318746D01*
X127869462Y-92319108D01*
X127871590Y-92326123D01*
X127871666Y-92326508D01*
X127872582Y-92335807D01*
X127877306Y-92359559D01*
X127886533Y-92381833D01*
X127899927Y-92401880D01*
X127916974Y-92418927D01*
X127937022Y-92432322D01*
X127959296Y-92441549D01*
X127982946Y-92446253D01*
X128007052Y-92446253D01*
X128030702Y-92441549D01*
X128052976Y-92432322D01*
X128073023Y-92418928D01*
X128090070Y-92401881D01*
X128103465Y-92381833D01*
X128112692Y-92359559D01*
X128117416Y-92335807D01*
X128118332Y-92326508D01*
X128118408Y-92326123D01*
X128120536Y-92319108D01*
X128120686Y-92318746D01*
X128124143Y-92312280D01*
X128124361Y-92311954D01*
X128129011Y-92306288D01*
X128129288Y-92306011D01*
X128134954Y-92301361D01*
X128135280Y-92301143D01*
X128141746Y-92297686D01*
X128142108Y-92297536D01*
X128149123Y-92295408D01*
X128149508Y-92295332D01*
X128162943Y-92294009D01*
X128163139Y-92293999D01*
X128219499Y-92293999D01*
X128221231Y-92294999D01*
X128221231Y-92296999D01*
X128219695Y-92297989D01*
X128200287Y-92299900D01*
X128181808Y-92305506D01*
X128164780Y-92314607D01*
X128149856Y-92326856D01*
X128137607Y-92341780D01*
X128128506Y-92358808D01*
X128122900Y-92377287D01*
X128120999Y-92396593D01*
X128120999Y-93047405D01*
X128122900Y-93066711D01*
X128128506Y-93085190D01*
X128137607Y-93102218D01*
X128149856Y-93117142D01*
X128164780Y-93129391D01*
X128181808Y-93138492D01*
X128200287Y-93144098D01*
X128219695Y-93146009D01*
X128221321Y-93147174D01*
X128221125Y-93149164D01*
X128219499Y-93149999D01*
X128163139Y-93149999D01*
X128162943Y-93149989D01*
X128149508Y-93148666D01*
X128149123Y-93148590D01*
X128142108Y-93146462D01*
X128141746Y-93146312D01*
X128135280Y-93142855D01*
X128134954Y-93142637D01*
X128129288Y-93137987D01*
X128129011Y-93137710D01*
X128124361Y-93132044D01*
X128124143Y-93131718D01*
X128120686Y-93125252D01*
X128120536Y-93124890D01*
X128118408Y-93117875D01*
X128118332Y-93117490D01*
X128117416Y-93108191D01*
X128112692Y-93084439D01*
X128103465Y-93062165D01*
X128090071Y-93042118D01*
X128073024Y-93025071D01*
X128052976Y-93011676D01*
X128030702Y-93002449D01*
X128007052Y-92997745D01*
X127982946Y-92997745D01*
X127959296Y-93002449D01*
X127937022Y-93011676D01*
X127916975Y-93025070D01*
X127899928Y-93042117D01*
X127886533Y-93062165D01*
X127877306Y-93084439D01*
X127872582Y-93108191D01*
X127871666Y-93117490D01*
X127871590Y-93117875D01*
X127869462Y-93124890D01*
X127869312Y-93125252D01*
X127865855Y-93131718D01*
X127865637Y-93132044D01*
X127860987Y-93137710D01*
X127860710Y-93137987D01*
X127855044Y-93142637D01*
X127854718Y-93142855D01*
X127848252Y-93146312D01*
X127847890Y-93146462D01*
X127840875Y-93148590D01*
X127840490Y-93148666D01*
X127827055Y-93149989D01*
X127826859Y-93149999D01*
X127770499Y-93149999D01*
X127768767Y-93148999D01*
X127768767Y-93146999D01*
X127770303Y-93146009D01*
X127789711Y-93144098D01*
X127808190Y-93138492D01*
X127825218Y-93129391D01*
X127840142Y-93117142D01*
X127852391Y-93102218D01*
X127861492Y-93085190D01*
X127867098Y-93066711D01*
X127868999Y-93047405D01*
X127868999Y-92396593D01*
X127867098Y-92377287D01*
X127861492Y-92358808D01*
X127852391Y-92341780D01*
X127840142Y-92326856D01*
X127825218Y-92314607D01*
X127808190Y-92305506D01*
X127789711Y-92299900D01*
X127770303Y-92297989D01*
X127768677Y-92296824D01*
X127768873Y-92294834D01*
X127770499Y-92293999D01*
X127826859Y-92293999D01*
X127827055Y-92294009D01*
G37*
G36*
X129127055Y-92294009D02*
G01*
X129140490Y-92295332D01*
X129140875Y-92295408D01*
X129147890Y-92297536D01*
X129148252Y-92297686D01*
X129154718Y-92301143D01*
X129155044Y-92301361D01*
X129160710Y-92306011D01*
X129160987Y-92306288D01*
X129165637Y-92311954D01*
X129165855Y-92312280D01*
X129169312Y-92318746D01*
X129169462Y-92319108D01*
X129171590Y-92326123D01*
X129171666Y-92326508D01*
X129172582Y-92335807D01*
X129177306Y-92359559D01*
X129186533Y-92381833D01*
X129199927Y-92401880D01*
X129216974Y-92418927D01*
X129237022Y-92432322D01*
X129259296Y-92441549D01*
X129282946Y-92446253D01*
X129307052Y-92446253D01*
X129330702Y-92441549D01*
X129352976Y-92432322D01*
X129373023Y-92418928D01*
X129390070Y-92401881D01*
X129403465Y-92381833D01*
X129412692Y-92359559D01*
X129417416Y-92335807D01*
X129418332Y-92326508D01*
X129418408Y-92326123D01*
X129420536Y-92319108D01*
X129420686Y-92318746D01*
X129424143Y-92312280D01*
X129424361Y-92311954D01*
X129429011Y-92306288D01*
X129429288Y-92306011D01*
X129434954Y-92301361D01*
X129435280Y-92301143D01*
X129441746Y-92297686D01*
X129442108Y-92297536D01*
X129449123Y-92295408D01*
X129449508Y-92295332D01*
X129462943Y-92294009D01*
X129463139Y-92293999D01*
X129519499Y-92293999D01*
X129521231Y-92294999D01*
X129521231Y-92296999D01*
X129519695Y-92297989D01*
X129500287Y-92299900D01*
X129481808Y-92305506D01*
X129464780Y-92314607D01*
X129449856Y-92326856D01*
X129437607Y-92341780D01*
X129428506Y-92358808D01*
X129422900Y-92377287D01*
X129420999Y-92396593D01*
X129420999Y-93047405D01*
X129422900Y-93066711D01*
X129428506Y-93085190D01*
X129437607Y-93102218D01*
X129449856Y-93117142D01*
X129464780Y-93129391D01*
X129481808Y-93138492D01*
X129500287Y-93144098D01*
X129519695Y-93146009D01*
X129521321Y-93147174D01*
X129521125Y-93149164D01*
X129519499Y-93149999D01*
X129463139Y-93149999D01*
X129462943Y-93149989D01*
X129449508Y-93148666D01*
X129449123Y-93148590D01*
X129442108Y-93146462D01*
X129441746Y-93146312D01*
X129435280Y-93142855D01*
X129434954Y-93142637D01*
X129429288Y-93137987D01*
X129429011Y-93137710D01*
X129424361Y-93132044D01*
X129424143Y-93131718D01*
X129420686Y-93125252D01*
X129420536Y-93124890D01*
X129418408Y-93117875D01*
X129418332Y-93117490D01*
X129417416Y-93108191D01*
X129412692Y-93084439D01*
X129403465Y-93062165D01*
X129390071Y-93042118D01*
X129373024Y-93025071D01*
X129352976Y-93011676D01*
X129330702Y-93002449D01*
X129307052Y-92997745D01*
X129282946Y-92997745D01*
X129259296Y-93002449D01*
X129237022Y-93011676D01*
X129216975Y-93025070D01*
X129199928Y-93042117D01*
X129186533Y-93062165D01*
X129177306Y-93084439D01*
X129172582Y-93108191D01*
X129171666Y-93117490D01*
X129171590Y-93117875D01*
X129169462Y-93124890D01*
X129169312Y-93125252D01*
X129165855Y-93131718D01*
X129165637Y-93132044D01*
X129160987Y-93137710D01*
X129160710Y-93137987D01*
X129155044Y-93142637D01*
X129154718Y-93142855D01*
X129148252Y-93146312D01*
X129147890Y-93146462D01*
X129140875Y-93148590D01*
X129140490Y-93148666D01*
X129127055Y-93149989D01*
X129126859Y-93149999D01*
X129070499Y-93149999D01*
X129068767Y-93148999D01*
X129068767Y-93146999D01*
X129070303Y-93146009D01*
X129089711Y-93144098D01*
X129108190Y-93138492D01*
X129125218Y-93129391D01*
X129140142Y-93117142D01*
X129152391Y-93102218D01*
X129161492Y-93085190D01*
X129167098Y-93066711D01*
X129168999Y-93047405D01*
X129168999Y-92396593D01*
X129167098Y-92377287D01*
X129161492Y-92358808D01*
X129152391Y-92341780D01*
X129140142Y-92326856D01*
X129125218Y-92314607D01*
X129108190Y-92305506D01*
X129089711Y-92299900D01*
X129070303Y-92297989D01*
X129068677Y-92296824D01*
X129068873Y-92294834D01*
X129070499Y-92293999D01*
X129126859Y-92293999D01*
X129127055Y-92294009D01*
G37*
G36*
X127177055Y-92294009D02*
G01*
X127190490Y-92295332D01*
X127190875Y-92295408D01*
X127197890Y-92297536D01*
X127198252Y-92297686D01*
X127204718Y-92301143D01*
X127205044Y-92301361D01*
X127210710Y-92306011D01*
X127210987Y-92306288D01*
X127215637Y-92311954D01*
X127215855Y-92312280D01*
X127219312Y-92318746D01*
X127219462Y-92319108D01*
X127221590Y-92326123D01*
X127221666Y-92326508D01*
X127222582Y-92335807D01*
X127227306Y-92359559D01*
X127236533Y-92381833D01*
X127249927Y-92401880D01*
X127266974Y-92418927D01*
X127287022Y-92432322D01*
X127309296Y-92441549D01*
X127332946Y-92446253D01*
X127357052Y-92446253D01*
X127380702Y-92441549D01*
X127402976Y-92432322D01*
X127423023Y-92418928D01*
X127440070Y-92401881D01*
X127453465Y-92381833D01*
X127462692Y-92359559D01*
X127467416Y-92335807D01*
X127468332Y-92326508D01*
X127468408Y-92326123D01*
X127470536Y-92319108D01*
X127470686Y-92318746D01*
X127474143Y-92312280D01*
X127474361Y-92311954D01*
X127479011Y-92306288D01*
X127479288Y-92306011D01*
X127484954Y-92301361D01*
X127485280Y-92301143D01*
X127491746Y-92297686D01*
X127492108Y-92297536D01*
X127499123Y-92295408D01*
X127499508Y-92295332D01*
X127512943Y-92294009D01*
X127513139Y-92293999D01*
X127569499Y-92293999D01*
X127571231Y-92294999D01*
X127571231Y-92296999D01*
X127569695Y-92297989D01*
X127550287Y-92299900D01*
X127531808Y-92305506D01*
X127514780Y-92314607D01*
X127499856Y-92326856D01*
X127487607Y-92341780D01*
X127478506Y-92358808D01*
X127472900Y-92377287D01*
X127470999Y-92396593D01*
X127470999Y-93047405D01*
X127472900Y-93066711D01*
X127478506Y-93085190D01*
X127487607Y-93102218D01*
X127499856Y-93117142D01*
X127514780Y-93129391D01*
X127531808Y-93138492D01*
X127550287Y-93144098D01*
X127569695Y-93146009D01*
X127571321Y-93147174D01*
X127571125Y-93149164D01*
X127569499Y-93149999D01*
X127513139Y-93149999D01*
X127512943Y-93149989D01*
X127499508Y-93148666D01*
X127499123Y-93148590D01*
X127492108Y-93146462D01*
X127491746Y-93146312D01*
X127485280Y-93142855D01*
X127484954Y-93142637D01*
X127479288Y-93137987D01*
X127479011Y-93137710D01*
X127474361Y-93132044D01*
X127474143Y-93131718D01*
X127470686Y-93125252D01*
X127470536Y-93124890D01*
X127468408Y-93117875D01*
X127468332Y-93117490D01*
X127467416Y-93108191D01*
X127462692Y-93084439D01*
X127453465Y-93062165D01*
X127440071Y-93042118D01*
X127423024Y-93025071D01*
X127402976Y-93011676D01*
X127380702Y-93002449D01*
X127357052Y-92997745D01*
X127332946Y-92997745D01*
X127309296Y-93002449D01*
X127287022Y-93011676D01*
X127266975Y-93025070D01*
X127249928Y-93042117D01*
X127236533Y-93062165D01*
X127227306Y-93084439D01*
X127222582Y-93108191D01*
X127221666Y-93117490D01*
X127221590Y-93117875D01*
X127219462Y-93124890D01*
X127219312Y-93125252D01*
X127215855Y-93131718D01*
X127215637Y-93132044D01*
X127210987Y-93137710D01*
X127210710Y-93137987D01*
X127205044Y-93142637D01*
X127204718Y-93142855D01*
X127198252Y-93146312D01*
X127197890Y-93146462D01*
X127190875Y-93148590D01*
X127190490Y-93148666D01*
X127177055Y-93149989D01*
X127176859Y-93149999D01*
X127120499Y-93149999D01*
X127118767Y-93148999D01*
X127118767Y-93146999D01*
X127120303Y-93146009D01*
X127139711Y-93144098D01*
X127158190Y-93138492D01*
X127175218Y-93129391D01*
X127190142Y-93117142D01*
X127202391Y-93102218D01*
X127211492Y-93085190D01*
X127217098Y-93066711D01*
X127218999Y-93047405D01*
X127218999Y-92396593D01*
X127217098Y-92377287D01*
X127211492Y-92358808D01*
X127202391Y-92341780D01*
X127190142Y-92326856D01*
X127175218Y-92314607D01*
X127158190Y-92305506D01*
X127139711Y-92299900D01*
X127120303Y-92297989D01*
X127118677Y-92296824D01*
X127118873Y-92294834D01*
X127120499Y-92293999D01*
X127176859Y-92293999D01*
X127177055Y-92294009D01*
G37*
G36*
X128477055Y-92294009D02*
G01*
X128490490Y-92295332D01*
X128490875Y-92295408D01*
X128497890Y-92297536D01*
X128498252Y-92297686D01*
X128504718Y-92301143D01*
X128505044Y-92301361D01*
X128510710Y-92306011D01*
X128510987Y-92306288D01*
X128515637Y-92311954D01*
X128515855Y-92312280D01*
X128519312Y-92318746D01*
X128519462Y-92319108D01*
X128521590Y-92326123D01*
X128521666Y-92326508D01*
X128522582Y-92335807D01*
X128527306Y-92359559D01*
X128536533Y-92381833D01*
X128549927Y-92401880D01*
X128566974Y-92418927D01*
X128587022Y-92432322D01*
X128609296Y-92441549D01*
X128632946Y-92446253D01*
X128657052Y-92446253D01*
X128680702Y-92441549D01*
X128702976Y-92432322D01*
X128723023Y-92418928D01*
X128740070Y-92401881D01*
X128753465Y-92381833D01*
X128762692Y-92359559D01*
X128767416Y-92335807D01*
X128768332Y-92326508D01*
X128768408Y-92326123D01*
X128770536Y-92319108D01*
X128770686Y-92318746D01*
X128774143Y-92312280D01*
X128774361Y-92311954D01*
X128779011Y-92306288D01*
X128779288Y-92306011D01*
X128784954Y-92301361D01*
X128785280Y-92301143D01*
X128791746Y-92297686D01*
X128792108Y-92297536D01*
X128799123Y-92295408D01*
X128799508Y-92295332D01*
X128812943Y-92294009D01*
X128813139Y-92293999D01*
X128869499Y-92293999D01*
X128871231Y-92294999D01*
X128871231Y-92296999D01*
X128869695Y-92297989D01*
X128850287Y-92299900D01*
X128831808Y-92305506D01*
X128814780Y-92314607D01*
X128799856Y-92326856D01*
X128787607Y-92341780D01*
X128778506Y-92358808D01*
X128772900Y-92377287D01*
X128770999Y-92396593D01*
X128770999Y-93047405D01*
X128772900Y-93066711D01*
X128778506Y-93085190D01*
X128787607Y-93102218D01*
X128799856Y-93117142D01*
X128814780Y-93129391D01*
X128831808Y-93138492D01*
X128850287Y-93144098D01*
X128869695Y-93146009D01*
X128871321Y-93147174D01*
X128871125Y-93149164D01*
X128869499Y-93149999D01*
X128813139Y-93149999D01*
X128812943Y-93149989D01*
X128799508Y-93148666D01*
X128799123Y-93148590D01*
X128792108Y-93146462D01*
X128791746Y-93146312D01*
X128785280Y-93142855D01*
X128784954Y-93142637D01*
X128779288Y-93137987D01*
X128779011Y-93137710D01*
X128774361Y-93132044D01*
X128774143Y-93131718D01*
X128770686Y-93125252D01*
X128770536Y-93124890D01*
X128768408Y-93117875D01*
X128768332Y-93117490D01*
X128767416Y-93108191D01*
X128762692Y-93084439D01*
X128753465Y-93062165D01*
X128740071Y-93042118D01*
X128723024Y-93025071D01*
X128702976Y-93011676D01*
X128680702Y-93002449D01*
X128657052Y-92997745D01*
X128632946Y-92997745D01*
X128609296Y-93002449D01*
X128587022Y-93011676D01*
X128566975Y-93025070D01*
X128549928Y-93042117D01*
X128536533Y-93062165D01*
X128527306Y-93084439D01*
X128522582Y-93108191D01*
X128521666Y-93117490D01*
X128521590Y-93117875D01*
X128519462Y-93124890D01*
X128519312Y-93125252D01*
X128515855Y-93131718D01*
X128515637Y-93132044D01*
X128510987Y-93137710D01*
X128510710Y-93137987D01*
X128505044Y-93142637D01*
X128504718Y-93142855D01*
X128498252Y-93146312D01*
X128497890Y-93146462D01*
X128490875Y-93148590D01*
X128490490Y-93148666D01*
X128477055Y-93149989D01*
X128476859Y-93149999D01*
X128420499Y-93149999D01*
X128418767Y-93148999D01*
X128418767Y-93146999D01*
X128420303Y-93146009D01*
X128439711Y-93144098D01*
X128458190Y-93138492D01*
X128475218Y-93129391D01*
X128490142Y-93117142D01*
X128502391Y-93102218D01*
X128511492Y-93085190D01*
X128517098Y-93066711D01*
X128518999Y-93047405D01*
X128518999Y-92396593D01*
X128517098Y-92377287D01*
X128511492Y-92358808D01*
X128502391Y-92341780D01*
X128490142Y-92326856D01*
X128475218Y-92314607D01*
X128458190Y-92305506D01*
X128439711Y-92299900D01*
X128420303Y-92297989D01*
X128418677Y-92296824D01*
X128418873Y-92294834D01*
X128420499Y-92293999D01*
X128476859Y-92293999D01*
X128477055Y-92294009D01*
G37*
G36*
X130047164Y-91713763D02*
G01*
X130047999Y-91715389D01*
X130047999Y-91815593D01*
X130047989Y-91815789D01*
X130044490Y-91851319D01*
X130044414Y-91851704D01*
X130035840Y-91879968D01*
X130035690Y-91880330D01*
X130021766Y-91906380D01*
X130021548Y-91906706D01*
X130002812Y-91929535D01*
X130002535Y-91929812D01*
X129979706Y-91948548D01*
X129979380Y-91948766D01*
X129953330Y-91962690D01*
X129952968Y-91962840D01*
X129924704Y-91971414D01*
X129924319Y-91971490D01*
X129888789Y-91974989D01*
X129888593Y-91974999D01*
X129788389Y-91974999D01*
X129786657Y-91973999D01*
X129786657Y-91971999D01*
X129788193Y-91971009D01*
X129838251Y-91966079D01*
X129886203Y-91951533D01*
X129930393Y-91927913D01*
X129969126Y-91896126D01*
X130000913Y-91857393D01*
X130024533Y-91813203D01*
X130039079Y-91765251D01*
X130044009Y-91715193D01*
X130045174Y-91713567D01*
X130047164Y-91713763D01*
G37*
G36*
X126595989Y-91715193D02*
G01*
X126600919Y-91765251D01*
X126615465Y-91813203D01*
X126639085Y-91857393D01*
X126670872Y-91896126D01*
X126709605Y-91927913D01*
X126753795Y-91951533D01*
X126801747Y-91966079D01*
X126851805Y-91971009D01*
X126853431Y-91972174D01*
X126853235Y-91974164D01*
X126851609Y-91974999D01*
X126751405Y-91974999D01*
X126751209Y-91974989D01*
X126715679Y-91971490D01*
X126715294Y-91971414D01*
X126687030Y-91962840D01*
X126686668Y-91962690D01*
X126660618Y-91948766D01*
X126660292Y-91948548D01*
X126637463Y-91929812D01*
X126637186Y-91929535D01*
X126618450Y-91906706D01*
X126618232Y-91906380D01*
X126604308Y-91880330D01*
X126604158Y-91879968D01*
X126595584Y-91851704D01*
X126595508Y-91851319D01*
X126592009Y-91815789D01*
X126591999Y-91815593D01*
X126591999Y-91715389D01*
X126592999Y-91713657D01*
X126594999Y-91713657D01*
X126595989Y-91715193D01*
G37*
G36*
X126272164Y-90995873D02*
G01*
X126272999Y-90997499D01*
X126272999Y-91053859D01*
X126272989Y-91054055D01*
X126271666Y-91067490D01*
X126271590Y-91067875D01*
X126269462Y-91074890D01*
X126269312Y-91075252D01*
X126265855Y-91081718D01*
X126265637Y-91082044D01*
X126260987Y-91087710D01*
X126260710Y-91087987D01*
X126255044Y-91092637D01*
X126254718Y-91092855D01*
X126248252Y-91096312D01*
X126247890Y-91096462D01*
X126240875Y-91098590D01*
X126240490Y-91098666D01*
X126231191Y-91099582D01*
X126207439Y-91104306D01*
X126185165Y-91113533D01*
X126165118Y-91126927D01*
X126148071Y-91143974D01*
X126134676Y-91164022D01*
X126125449Y-91186296D01*
X126120745Y-91209946D01*
X126120745Y-91234052D01*
X126125449Y-91257702D01*
X126134676Y-91279976D01*
X126148070Y-91300023D01*
X126165117Y-91317070D01*
X126185165Y-91330465D01*
X126207439Y-91339692D01*
X126231191Y-91344416D01*
X126240490Y-91345332D01*
X126240875Y-91345408D01*
X126247890Y-91347536D01*
X126248252Y-91347686D01*
X126254718Y-91351143D01*
X126255044Y-91351361D01*
X126260710Y-91356011D01*
X126260987Y-91356288D01*
X126265637Y-91361954D01*
X126265855Y-91362280D01*
X126269312Y-91368746D01*
X126269462Y-91369108D01*
X126271590Y-91376123D01*
X126271666Y-91376508D01*
X126272989Y-91389943D01*
X126272999Y-91390139D01*
X126272999Y-91446499D01*
X126271999Y-91448231D01*
X126269999Y-91448231D01*
X126269009Y-91446695D01*
X126267098Y-91427287D01*
X126261492Y-91408808D01*
X126252391Y-91391780D01*
X126240142Y-91376856D01*
X126225218Y-91364607D01*
X126208190Y-91355506D01*
X126189711Y-91349900D01*
X126170405Y-91347999D01*
X125519593Y-91347999D01*
X125500287Y-91349900D01*
X125481808Y-91355506D01*
X125464780Y-91364607D01*
X125449856Y-91376856D01*
X125437607Y-91391780D01*
X125428506Y-91408808D01*
X125422900Y-91427287D01*
X125420989Y-91446695D01*
X125419824Y-91448321D01*
X125417834Y-91448125D01*
X125416999Y-91446499D01*
X125416999Y-91390139D01*
X125417009Y-91389943D01*
X125418332Y-91376508D01*
X125418408Y-91376123D01*
X125420536Y-91369108D01*
X125420686Y-91368746D01*
X125424143Y-91362280D01*
X125424361Y-91361954D01*
X125429011Y-91356288D01*
X125429288Y-91356011D01*
X125434954Y-91351361D01*
X125435280Y-91351143D01*
X125441746Y-91347686D01*
X125442108Y-91347536D01*
X125449123Y-91345408D01*
X125449508Y-91345332D01*
X125458807Y-91344416D01*
X125482559Y-91339692D01*
X125504833Y-91330465D01*
X125524880Y-91317071D01*
X125541927Y-91300024D01*
X125555322Y-91279976D01*
X125564549Y-91257702D01*
X125569253Y-91234052D01*
X125569253Y-91209946D01*
X125564549Y-91186296D01*
X125555322Y-91164022D01*
X125541928Y-91143975D01*
X125524881Y-91126928D01*
X125504833Y-91113533D01*
X125482559Y-91104306D01*
X125458807Y-91099582D01*
X125449508Y-91098666D01*
X125449123Y-91098590D01*
X125442108Y-91096462D01*
X125441746Y-91096312D01*
X125435280Y-91092855D01*
X125434954Y-91092637D01*
X125429288Y-91087987D01*
X125429011Y-91087710D01*
X125424361Y-91082044D01*
X125424143Y-91081718D01*
X125420686Y-91075252D01*
X125420536Y-91074890D01*
X125418408Y-91067875D01*
X125418332Y-91067490D01*
X125417009Y-91054055D01*
X125416999Y-91053859D01*
X125416999Y-90997499D01*
X125417999Y-90995767D01*
X125419999Y-90995767D01*
X125420989Y-90997303D01*
X125422900Y-91016711D01*
X125428506Y-91035190D01*
X125437607Y-91052218D01*
X125449856Y-91067142D01*
X125464780Y-91079391D01*
X125481808Y-91088492D01*
X125500287Y-91094098D01*
X125519593Y-91095999D01*
X126170405Y-91095999D01*
X126189711Y-91094098D01*
X126208190Y-91088492D01*
X126225218Y-91079391D01*
X126240142Y-91067142D01*
X126252391Y-91052218D01*
X126261492Y-91035190D01*
X126267098Y-91016711D01*
X126269009Y-90997303D01*
X126270174Y-90995677D01*
X126272164Y-90995873D01*
G37*
G36*
X131222164Y-90995873D02*
G01*
X131222999Y-90997499D01*
X131222999Y-91053859D01*
X131222989Y-91054055D01*
X131221666Y-91067490D01*
X131221590Y-91067875D01*
X131219462Y-91074890D01*
X131219312Y-91075252D01*
X131215855Y-91081718D01*
X131215637Y-91082044D01*
X131210987Y-91087710D01*
X131210710Y-91087987D01*
X131205044Y-91092637D01*
X131204718Y-91092855D01*
X131198252Y-91096312D01*
X131197890Y-91096462D01*
X131190875Y-91098590D01*
X131190490Y-91098666D01*
X131181191Y-91099582D01*
X131157439Y-91104306D01*
X131135165Y-91113533D01*
X131115118Y-91126927D01*
X131098071Y-91143974D01*
X131084676Y-91164022D01*
X131075449Y-91186296D01*
X131070745Y-91209946D01*
X131070745Y-91234052D01*
X131075449Y-91257702D01*
X131084676Y-91279976D01*
X131098070Y-91300023D01*
X131115117Y-91317070D01*
X131135165Y-91330465D01*
X131157439Y-91339692D01*
X131181191Y-91344416D01*
X131190490Y-91345332D01*
X131190875Y-91345408D01*
X131197890Y-91347536D01*
X131198252Y-91347686D01*
X131204718Y-91351143D01*
X131205044Y-91351361D01*
X131210710Y-91356011D01*
X131210987Y-91356288D01*
X131215637Y-91361954D01*
X131215855Y-91362280D01*
X131219312Y-91368746D01*
X131219462Y-91369108D01*
X131221590Y-91376123D01*
X131221666Y-91376508D01*
X131222989Y-91389943D01*
X131222999Y-91390139D01*
X131222999Y-91446499D01*
X131221999Y-91448231D01*
X131219999Y-91448231D01*
X131219009Y-91446695D01*
X131217098Y-91427287D01*
X131211492Y-91408808D01*
X131202391Y-91391780D01*
X131190142Y-91376856D01*
X131175218Y-91364607D01*
X131158190Y-91355506D01*
X131139711Y-91349900D01*
X131120405Y-91347999D01*
X130469593Y-91347999D01*
X130450287Y-91349900D01*
X130431808Y-91355506D01*
X130414780Y-91364607D01*
X130399856Y-91376856D01*
X130387607Y-91391780D01*
X130378506Y-91408808D01*
X130372900Y-91427287D01*
X130370989Y-91446695D01*
X130369824Y-91448321D01*
X130367834Y-91448125D01*
X130366999Y-91446499D01*
X130366999Y-91390139D01*
X130367009Y-91389943D01*
X130368332Y-91376508D01*
X130368408Y-91376123D01*
X130370536Y-91369108D01*
X130370686Y-91368746D01*
X130374143Y-91362280D01*
X130374361Y-91361954D01*
X130379011Y-91356288D01*
X130379288Y-91356011D01*
X130384954Y-91351361D01*
X130385280Y-91351143D01*
X130391746Y-91347686D01*
X130392108Y-91347536D01*
X130399123Y-91345408D01*
X130399508Y-91345332D01*
X130408807Y-91344416D01*
X130432559Y-91339692D01*
X130454833Y-91330465D01*
X130474880Y-91317071D01*
X130491927Y-91300024D01*
X130505322Y-91279976D01*
X130514549Y-91257702D01*
X130519253Y-91234052D01*
X130519253Y-91209946D01*
X130514549Y-91186296D01*
X130505322Y-91164022D01*
X130491928Y-91143975D01*
X130474881Y-91126928D01*
X130454833Y-91113533D01*
X130432559Y-91104306D01*
X130408807Y-91099582D01*
X130399508Y-91098666D01*
X130399123Y-91098590D01*
X130392108Y-91096462D01*
X130391746Y-91096312D01*
X130385280Y-91092855D01*
X130384954Y-91092637D01*
X130379288Y-91087987D01*
X130379011Y-91087710D01*
X130374361Y-91082044D01*
X130374143Y-91081718D01*
X130370686Y-91075252D01*
X130370536Y-91074890D01*
X130368408Y-91067875D01*
X130368332Y-91067490D01*
X130367009Y-91054055D01*
X130366999Y-91053859D01*
X130366999Y-90997499D01*
X130367999Y-90995767D01*
X130369999Y-90995767D01*
X130370989Y-90997303D01*
X130372900Y-91016711D01*
X130378506Y-91035190D01*
X130387607Y-91052218D01*
X130399856Y-91067142D01*
X130414780Y-91079391D01*
X130431808Y-91088492D01*
X130450287Y-91094098D01*
X130469593Y-91095999D01*
X131120405Y-91095999D01*
X131139711Y-91094098D01*
X131158190Y-91088492D01*
X131175218Y-91079391D01*
X131190142Y-91067142D01*
X131202391Y-91052218D01*
X131211492Y-91035190D01*
X131217098Y-91016711D01*
X131219009Y-90997303D01*
X131220174Y-90995677D01*
X131222164Y-90995873D01*
G37*
G36*
X126272164Y-90345873D02*
G01*
X126272999Y-90347499D01*
X126272999Y-90403859D01*
X126272989Y-90404055D01*
X126271666Y-90417490D01*
X126271590Y-90417875D01*
X126269462Y-90424890D01*
X126269312Y-90425252D01*
X126265855Y-90431718D01*
X126265637Y-90432044D01*
X126260987Y-90437710D01*
X126260710Y-90437987D01*
X126255044Y-90442637D01*
X126254718Y-90442855D01*
X126248252Y-90446312D01*
X126247890Y-90446462D01*
X126240875Y-90448590D01*
X126240490Y-90448666D01*
X126231191Y-90449582D01*
X126207439Y-90454306D01*
X126185165Y-90463533D01*
X126165118Y-90476927D01*
X126148071Y-90493974D01*
X126134676Y-90514022D01*
X126125449Y-90536296D01*
X126120745Y-90559946D01*
X126120745Y-90584052D01*
X126125449Y-90607702D01*
X126134676Y-90629976D01*
X126148070Y-90650023D01*
X126165117Y-90667070D01*
X126185165Y-90680465D01*
X126207439Y-90689692D01*
X126231191Y-90694416D01*
X126240490Y-90695332D01*
X126240875Y-90695408D01*
X126247890Y-90697536D01*
X126248252Y-90697686D01*
X126254718Y-90701143D01*
X126255044Y-90701361D01*
X126260710Y-90706011D01*
X126260987Y-90706288D01*
X126265637Y-90711954D01*
X126265855Y-90712280D01*
X126269312Y-90718746D01*
X126269462Y-90719108D01*
X126271590Y-90726123D01*
X126271666Y-90726508D01*
X126272989Y-90739943D01*
X126272999Y-90740139D01*
X126272999Y-90796499D01*
X126271999Y-90798231D01*
X126269999Y-90798231D01*
X126269009Y-90796695D01*
X126267098Y-90777287D01*
X126261492Y-90758808D01*
X126252391Y-90741780D01*
X126240142Y-90726856D01*
X126225218Y-90714607D01*
X126208190Y-90705506D01*
X126189711Y-90699900D01*
X126170405Y-90697999D01*
X125519593Y-90697999D01*
X125500287Y-90699900D01*
X125481808Y-90705506D01*
X125464780Y-90714607D01*
X125449856Y-90726856D01*
X125437607Y-90741780D01*
X125428506Y-90758808D01*
X125422900Y-90777287D01*
X125420989Y-90796695D01*
X125419824Y-90798321D01*
X125417834Y-90798125D01*
X125416999Y-90796499D01*
X125416999Y-90740139D01*
X125417009Y-90739943D01*
X125418332Y-90726508D01*
X125418408Y-90726123D01*
X125420536Y-90719108D01*
X125420686Y-90718746D01*
X125424143Y-90712280D01*
X125424361Y-90711954D01*
X125429011Y-90706288D01*
X125429288Y-90706011D01*
X125434954Y-90701361D01*
X125435280Y-90701143D01*
X125441746Y-90697686D01*
X125442108Y-90697536D01*
X125449123Y-90695408D01*
X125449508Y-90695332D01*
X125458807Y-90694416D01*
X125482559Y-90689692D01*
X125504833Y-90680465D01*
X125524880Y-90667071D01*
X125541927Y-90650024D01*
X125555322Y-90629976D01*
X125564549Y-90607702D01*
X125569253Y-90584052D01*
X125569253Y-90559946D01*
X125564549Y-90536296D01*
X125555322Y-90514022D01*
X125541928Y-90493975D01*
X125524881Y-90476928D01*
X125504833Y-90463533D01*
X125482559Y-90454306D01*
X125458807Y-90449582D01*
X125449508Y-90448666D01*
X125449123Y-90448590D01*
X125442108Y-90446462D01*
X125441746Y-90446312D01*
X125435280Y-90442855D01*
X125434954Y-90442637D01*
X125429288Y-90437987D01*
X125429011Y-90437710D01*
X125424361Y-90432044D01*
X125424143Y-90431718D01*
X125420686Y-90425252D01*
X125420536Y-90424890D01*
X125418408Y-90417875D01*
X125418332Y-90417490D01*
X125417009Y-90404055D01*
X125416999Y-90403859D01*
X125416999Y-90347499D01*
X125417999Y-90345767D01*
X125419999Y-90345767D01*
X125420989Y-90347303D01*
X125422900Y-90366711D01*
X125428506Y-90385190D01*
X125437607Y-90402218D01*
X125449856Y-90417142D01*
X125464780Y-90429391D01*
X125481808Y-90438492D01*
X125500287Y-90444098D01*
X125519593Y-90445999D01*
X126170405Y-90445999D01*
X126189711Y-90444098D01*
X126208190Y-90438492D01*
X126225218Y-90429391D01*
X126240142Y-90417142D01*
X126252391Y-90402218D01*
X126261492Y-90385190D01*
X126267098Y-90366711D01*
X126269009Y-90347303D01*
X126270174Y-90345677D01*
X126272164Y-90345873D01*
G37*
G36*
X131222164Y-90345873D02*
G01*
X131222999Y-90347499D01*
X131222999Y-90403859D01*
X131222989Y-90404055D01*
X131221666Y-90417490D01*
X131221590Y-90417875D01*
X131219462Y-90424890D01*
X131219312Y-90425252D01*
X131215855Y-90431718D01*
X131215637Y-90432044D01*
X131210987Y-90437710D01*
X131210710Y-90437987D01*
X131205044Y-90442637D01*
X131204718Y-90442855D01*
X131198252Y-90446312D01*
X131197890Y-90446462D01*
X131190875Y-90448590D01*
X131190490Y-90448666D01*
X131181191Y-90449582D01*
X131157439Y-90454306D01*
X131135165Y-90463533D01*
X131115118Y-90476927D01*
X131098071Y-90493974D01*
X131084676Y-90514022D01*
X131075449Y-90536296D01*
X131070745Y-90559946D01*
X131070745Y-90584052D01*
X131075449Y-90607702D01*
X131084676Y-90629976D01*
X131098070Y-90650023D01*
X131115117Y-90667070D01*
X131135165Y-90680465D01*
X131157439Y-90689692D01*
X131181191Y-90694416D01*
X131190490Y-90695332D01*
X131190875Y-90695408D01*
X131197890Y-90697536D01*
X131198252Y-90697686D01*
X131204718Y-90701143D01*
X131205044Y-90701361D01*
X131210710Y-90706011D01*
X131210987Y-90706288D01*
X131215637Y-90711954D01*
X131215855Y-90712280D01*
X131219312Y-90718746D01*
X131219462Y-90719108D01*
X131221590Y-90726123D01*
X131221666Y-90726508D01*
X131222989Y-90739943D01*
X131222999Y-90740139D01*
X131222999Y-90796499D01*
X131221999Y-90798231D01*
X131219999Y-90798231D01*
X131219009Y-90796695D01*
X131217098Y-90777287D01*
X131211492Y-90758808D01*
X131202391Y-90741780D01*
X131190142Y-90726856D01*
X131175218Y-90714607D01*
X131158190Y-90705506D01*
X131139711Y-90699900D01*
X131120405Y-90697999D01*
X130469593Y-90697999D01*
X130450287Y-90699900D01*
X130431808Y-90705506D01*
X130414780Y-90714607D01*
X130399856Y-90726856D01*
X130387607Y-90741780D01*
X130378506Y-90758808D01*
X130372900Y-90777287D01*
X130370989Y-90796695D01*
X130369824Y-90798321D01*
X130367834Y-90798125D01*
X130366999Y-90796499D01*
X130366999Y-90740139D01*
X130367009Y-90739943D01*
X130368332Y-90726508D01*
X130368408Y-90726123D01*
X130370536Y-90719108D01*
X130370686Y-90718746D01*
X130374143Y-90712280D01*
X130374361Y-90711954D01*
X130379011Y-90706288D01*
X130379288Y-90706011D01*
X130384954Y-90701361D01*
X130385280Y-90701143D01*
X130391746Y-90697686D01*
X130392108Y-90697536D01*
X130399123Y-90695408D01*
X130399508Y-90695332D01*
X130408807Y-90694416D01*
X130432559Y-90689692D01*
X130454833Y-90680465D01*
X130474880Y-90667071D01*
X130491927Y-90650024D01*
X130505322Y-90629976D01*
X130514549Y-90607702D01*
X130519253Y-90584052D01*
X130519253Y-90559946D01*
X130514549Y-90536296D01*
X130505322Y-90514022D01*
X130491928Y-90493975D01*
X130474881Y-90476928D01*
X130454833Y-90463533D01*
X130432559Y-90454306D01*
X130408807Y-90449582D01*
X130399508Y-90448666D01*
X130399123Y-90448590D01*
X130392108Y-90446462D01*
X130391746Y-90446312D01*
X130385280Y-90442855D01*
X130384954Y-90442637D01*
X130379288Y-90437987D01*
X130379011Y-90437710D01*
X130374361Y-90432044D01*
X130374143Y-90431718D01*
X130370686Y-90425252D01*
X130370536Y-90424890D01*
X130368408Y-90417875D01*
X130368332Y-90417490D01*
X130367009Y-90404055D01*
X130366999Y-90403859D01*
X130366999Y-90347499D01*
X130367999Y-90345767D01*
X130369999Y-90345767D01*
X130370989Y-90347303D01*
X130372900Y-90366711D01*
X130378506Y-90385190D01*
X130387607Y-90402218D01*
X130399856Y-90417142D01*
X130414780Y-90429391D01*
X130431808Y-90438492D01*
X130450287Y-90444098D01*
X130469593Y-90445999D01*
X131120405Y-90445999D01*
X131139711Y-90444098D01*
X131158190Y-90438492D01*
X131175218Y-90429391D01*
X131190142Y-90417142D01*
X131202391Y-90402218D01*
X131211492Y-90385190D01*
X131217098Y-90366711D01*
X131219009Y-90347303D01*
X131220174Y-90345677D01*
X131222164Y-90345873D01*
G37*
G36*
X131222164Y-89695873D02*
G01*
X131222999Y-89697499D01*
X131222999Y-89753859D01*
X131222989Y-89754055D01*
X131221666Y-89767490D01*
X131221590Y-89767875D01*
X131219462Y-89774890D01*
X131219312Y-89775252D01*
X131215855Y-89781718D01*
X131215637Y-89782044D01*
X131210987Y-89787710D01*
X131210710Y-89787987D01*
X131205044Y-89792637D01*
X131204718Y-89792855D01*
X131198252Y-89796312D01*
X131197890Y-89796462D01*
X131190875Y-89798590D01*
X131190490Y-89798666D01*
X131181191Y-89799582D01*
X131157439Y-89804306D01*
X131135165Y-89813533D01*
X131115118Y-89826927D01*
X131098071Y-89843974D01*
X131084676Y-89864022D01*
X131075449Y-89886296D01*
X131070745Y-89909946D01*
X131070745Y-89934052D01*
X131075449Y-89957702D01*
X131084676Y-89979976D01*
X131098070Y-90000023D01*
X131115117Y-90017070D01*
X131135165Y-90030465D01*
X131157439Y-90039692D01*
X131181191Y-90044416D01*
X131190490Y-90045332D01*
X131190875Y-90045408D01*
X131197890Y-90047536D01*
X131198252Y-90047686D01*
X131204718Y-90051143D01*
X131205044Y-90051361D01*
X131210710Y-90056011D01*
X131210987Y-90056288D01*
X131215637Y-90061954D01*
X131215855Y-90062280D01*
X131219312Y-90068746D01*
X131219462Y-90069108D01*
X131221590Y-90076123D01*
X131221666Y-90076508D01*
X131222989Y-90089943D01*
X131222999Y-90090139D01*
X131222999Y-90146499D01*
X131221999Y-90148231D01*
X131219999Y-90148231D01*
X131219009Y-90146695D01*
X131217098Y-90127287D01*
X131211492Y-90108808D01*
X131202391Y-90091780D01*
X131190142Y-90076856D01*
X131175218Y-90064607D01*
X131158190Y-90055506D01*
X131139711Y-90049900D01*
X131120405Y-90047999D01*
X130469593Y-90047999D01*
X130450287Y-90049900D01*
X130431808Y-90055506D01*
X130414780Y-90064607D01*
X130399856Y-90076856D01*
X130387607Y-90091780D01*
X130378506Y-90108808D01*
X130372900Y-90127287D01*
X130370989Y-90146695D01*
X130369824Y-90148321D01*
X130367834Y-90148125D01*
X130366999Y-90146499D01*
X130366999Y-90090139D01*
X130367009Y-90089943D01*
X130368332Y-90076508D01*
X130368408Y-90076123D01*
X130370536Y-90069108D01*
X130370686Y-90068746D01*
X130374143Y-90062280D01*
X130374361Y-90061954D01*
X130379011Y-90056288D01*
X130379288Y-90056011D01*
X130384954Y-90051361D01*
X130385280Y-90051143D01*
X130391746Y-90047686D01*
X130392108Y-90047536D01*
X130399123Y-90045408D01*
X130399508Y-90045332D01*
X130408807Y-90044416D01*
X130432559Y-90039692D01*
X130454833Y-90030465D01*
X130474880Y-90017071D01*
X130491927Y-90000024D01*
X130505322Y-89979976D01*
X130514549Y-89957702D01*
X130519253Y-89934052D01*
X130519253Y-89909946D01*
X130514549Y-89886296D01*
X130505322Y-89864022D01*
X130491928Y-89843975D01*
X130474881Y-89826928D01*
X130454833Y-89813533D01*
X130432559Y-89804306D01*
X130408807Y-89799582D01*
X130399508Y-89798666D01*
X130399123Y-89798590D01*
X130392108Y-89796462D01*
X130391746Y-89796312D01*
X130385280Y-89792855D01*
X130384954Y-89792637D01*
X130379288Y-89787987D01*
X130379011Y-89787710D01*
X130374361Y-89782044D01*
X130374143Y-89781718D01*
X130370686Y-89775252D01*
X130370536Y-89774890D01*
X130368408Y-89767875D01*
X130368332Y-89767490D01*
X130367009Y-89754055D01*
X130366999Y-89753859D01*
X130366999Y-89697499D01*
X130367999Y-89695767D01*
X130369999Y-89695767D01*
X130370989Y-89697303D01*
X130372900Y-89716711D01*
X130378506Y-89735190D01*
X130387607Y-89752218D01*
X130399856Y-89767142D01*
X130414780Y-89779391D01*
X130431808Y-89788492D01*
X130450287Y-89794098D01*
X130469593Y-89795999D01*
X131120405Y-89795999D01*
X131139711Y-89794098D01*
X131158190Y-89788492D01*
X131175218Y-89779391D01*
X131190142Y-89767142D01*
X131202391Y-89752218D01*
X131211492Y-89735190D01*
X131217098Y-89716711D01*
X131219009Y-89697303D01*
X131220174Y-89695677D01*
X131222164Y-89695873D01*
G37*
G36*
X126272164Y-89695873D02*
G01*
X126272999Y-89697499D01*
X126272999Y-89753859D01*
X126272989Y-89754055D01*
X126271666Y-89767490D01*
X126271590Y-89767875D01*
X126269462Y-89774890D01*
X126269312Y-89775252D01*
X126265855Y-89781718D01*
X126265637Y-89782044D01*
X126260987Y-89787710D01*
X126260710Y-89787987D01*
X126255044Y-89792637D01*
X126254718Y-89792855D01*
X126248252Y-89796312D01*
X126247890Y-89796462D01*
X126240875Y-89798590D01*
X126240490Y-89798666D01*
X126231191Y-89799582D01*
X126207439Y-89804306D01*
X126185165Y-89813533D01*
X126165118Y-89826927D01*
X126148071Y-89843974D01*
X126134676Y-89864022D01*
X126125449Y-89886296D01*
X126120745Y-89909946D01*
X126120745Y-89934052D01*
X126125449Y-89957702D01*
X126134676Y-89979976D01*
X126148070Y-90000023D01*
X126165117Y-90017070D01*
X126185165Y-90030465D01*
X126207439Y-90039692D01*
X126231191Y-90044416D01*
X126240490Y-90045332D01*
X126240875Y-90045408D01*
X126247890Y-90047536D01*
X126248252Y-90047686D01*
X126254718Y-90051143D01*
X126255044Y-90051361D01*
X126260710Y-90056011D01*
X126260987Y-90056288D01*
X126265637Y-90061954D01*
X126265855Y-90062280D01*
X126269312Y-90068746D01*
X126269462Y-90069108D01*
X126271590Y-90076123D01*
X126271666Y-90076508D01*
X126272989Y-90089943D01*
X126272999Y-90090139D01*
X126272999Y-90146499D01*
X126271999Y-90148231D01*
X126269999Y-90148231D01*
X126269009Y-90146695D01*
X126267098Y-90127287D01*
X126261492Y-90108808D01*
X126252391Y-90091780D01*
X126240142Y-90076856D01*
X126225218Y-90064607D01*
X126208190Y-90055506D01*
X126189711Y-90049900D01*
X126170405Y-90047999D01*
X125519593Y-90047999D01*
X125500287Y-90049900D01*
X125481808Y-90055506D01*
X125464780Y-90064607D01*
X125449856Y-90076856D01*
X125437607Y-90091780D01*
X125428506Y-90108808D01*
X125422900Y-90127287D01*
X125420989Y-90146695D01*
X125419824Y-90148321D01*
X125417834Y-90148125D01*
X125416999Y-90146499D01*
X125416999Y-90090139D01*
X125417009Y-90089943D01*
X125418332Y-90076508D01*
X125418408Y-90076123D01*
X125420536Y-90069108D01*
X125420686Y-90068746D01*
X125424143Y-90062280D01*
X125424361Y-90061954D01*
X125429011Y-90056288D01*
X125429288Y-90056011D01*
X125434954Y-90051361D01*
X125435280Y-90051143D01*
X125441746Y-90047686D01*
X125442108Y-90047536D01*
X125449123Y-90045408D01*
X125449508Y-90045332D01*
X125458807Y-90044416D01*
X125482559Y-90039692D01*
X125504833Y-90030465D01*
X125524880Y-90017071D01*
X125541927Y-90000024D01*
X125555322Y-89979976D01*
X125564549Y-89957702D01*
X125569253Y-89934052D01*
X125569253Y-89909946D01*
X125564549Y-89886296D01*
X125555322Y-89864022D01*
X125541928Y-89843975D01*
X125524881Y-89826928D01*
X125504833Y-89813533D01*
X125482559Y-89804306D01*
X125458807Y-89799582D01*
X125449508Y-89798666D01*
X125449123Y-89798590D01*
X125442108Y-89796462D01*
X125441746Y-89796312D01*
X125435280Y-89792855D01*
X125434954Y-89792637D01*
X125429288Y-89787987D01*
X125429011Y-89787710D01*
X125424361Y-89782044D01*
X125424143Y-89781718D01*
X125420686Y-89775252D01*
X125420536Y-89774890D01*
X125418408Y-89767875D01*
X125418332Y-89767490D01*
X125417009Y-89754055D01*
X125416999Y-89753859D01*
X125416999Y-89697499D01*
X125417999Y-89695767D01*
X125419999Y-89695767D01*
X125420989Y-89697303D01*
X125422900Y-89716711D01*
X125428506Y-89735190D01*
X125437607Y-89752218D01*
X125449856Y-89767142D01*
X125464780Y-89779391D01*
X125481808Y-89788492D01*
X125500287Y-89794098D01*
X125519593Y-89795999D01*
X126170405Y-89795999D01*
X126189711Y-89794098D01*
X126208190Y-89788492D01*
X126225218Y-89779391D01*
X126240142Y-89767142D01*
X126252391Y-89752218D01*
X126261492Y-89735190D01*
X126267098Y-89716711D01*
X126269009Y-89697303D01*
X126270174Y-89695677D01*
X126272164Y-89695873D01*
G37*
G36*
X131222164Y-89045873D02*
G01*
X131222999Y-89047499D01*
X131222999Y-89103859D01*
X131222989Y-89104055D01*
X131221666Y-89117490D01*
X131221590Y-89117875D01*
X131219462Y-89124890D01*
X131219312Y-89125252D01*
X131215855Y-89131718D01*
X131215637Y-89132044D01*
X131210987Y-89137710D01*
X131210710Y-89137987D01*
X131205044Y-89142637D01*
X131204718Y-89142855D01*
X131198252Y-89146312D01*
X131197890Y-89146462D01*
X131190875Y-89148590D01*
X131190490Y-89148666D01*
X131181191Y-89149582D01*
X131157439Y-89154306D01*
X131135165Y-89163533D01*
X131115118Y-89176927D01*
X131098071Y-89193974D01*
X131084676Y-89214022D01*
X131075449Y-89236296D01*
X131070745Y-89259946D01*
X131070745Y-89284052D01*
X131075449Y-89307702D01*
X131084676Y-89329976D01*
X131098070Y-89350023D01*
X131115117Y-89367070D01*
X131135165Y-89380465D01*
X131157439Y-89389692D01*
X131181191Y-89394416D01*
X131190490Y-89395332D01*
X131190875Y-89395408D01*
X131197890Y-89397536D01*
X131198252Y-89397686D01*
X131204718Y-89401143D01*
X131205044Y-89401361D01*
X131210710Y-89406011D01*
X131210987Y-89406288D01*
X131215637Y-89411954D01*
X131215855Y-89412280D01*
X131219312Y-89418746D01*
X131219462Y-89419108D01*
X131221590Y-89426123D01*
X131221666Y-89426508D01*
X131222989Y-89439943D01*
X131222999Y-89440139D01*
X131222999Y-89496499D01*
X131221999Y-89498231D01*
X131219999Y-89498231D01*
X131219009Y-89496695D01*
X131217098Y-89477287D01*
X131211492Y-89458808D01*
X131202391Y-89441780D01*
X131190142Y-89426856D01*
X131175218Y-89414607D01*
X131158190Y-89405506D01*
X131139711Y-89399900D01*
X131120405Y-89397999D01*
X130469593Y-89397999D01*
X130450287Y-89399900D01*
X130431808Y-89405506D01*
X130414780Y-89414607D01*
X130399856Y-89426856D01*
X130387607Y-89441780D01*
X130378506Y-89458808D01*
X130372900Y-89477287D01*
X130370989Y-89496695D01*
X130369824Y-89498321D01*
X130367834Y-89498125D01*
X130366999Y-89496499D01*
X130366999Y-89440139D01*
X130367009Y-89439943D01*
X130368332Y-89426508D01*
X130368408Y-89426123D01*
X130370536Y-89419108D01*
X130370686Y-89418746D01*
X130374143Y-89412280D01*
X130374361Y-89411954D01*
X130379011Y-89406288D01*
X130379288Y-89406011D01*
X130384954Y-89401361D01*
X130385280Y-89401143D01*
X130391746Y-89397686D01*
X130392108Y-89397536D01*
X130399123Y-89395408D01*
X130399508Y-89395332D01*
X130408807Y-89394416D01*
X130432559Y-89389692D01*
X130454833Y-89380465D01*
X130474880Y-89367071D01*
X130491927Y-89350024D01*
X130505322Y-89329976D01*
X130514549Y-89307702D01*
X130519253Y-89284052D01*
X130519253Y-89259946D01*
X130514549Y-89236296D01*
X130505322Y-89214022D01*
X130491928Y-89193975D01*
X130474881Y-89176928D01*
X130454833Y-89163533D01*
X130432559Y-89154306D01*
X130408807Y-89149582D01*
X130399508Y-89148666D01*
X130399123Y-89148590D01*
X130392108Y-89146462D01*
X130391746Y-89146312D01*
X130385280Y-89142855D01*
X130384954Y-89142637D01*
X130379288Y-89137987D01*
X130379011Y-89137710D01*
X130374361Y-89132044D01*
X130374143Y-89131718D01*
X130370686Y-89125252D01*
X130370536Y-89124890D01*
X130368408Y-89117875D01*
X130368332Y-89117490D01*
X130367009Y-89104055D01*
X130366999Y-89103859D01*
X130366999Y-89047499D01*
X130367999Y-89045767D01*
X130369999Y-89045767D01*
X130370989Y-89047303D01*
X130372900Y-89066711D01*
X130378506Y-89085190D01*
X130387607Y-89102218D01*
X130399856Y-89117142D01*
X130414780Y-89129391D01*
X130431808Y-89138492D01*
X130450287Y-89144098D01*
X130469593Y-89145999D01*
X131120405Y-89145999D01*
X131139711Y-89144098D01*
X131158190Y-89138492D01*
X131175218Y-89129391D01*
X131190142Y-89117142D01*
X131202391Y-89102218D01*
X131211492Y-89085190D01*
X131217098Y-89066711D01*
X131219009Y-89047303D01*
X131220174Y-89045677D01*
X131222164Y-89045873D01*
G37*
G36*
X126272164Y-89045873D02*
G01*
X126272999Y-89047499D01*
X126272999Y-89103859D01*
X126272989Y-89104055D01*
X126271666Y-89117490D01*
X126271590Y-89117875D01*
X126269462Y-89124890D01*
X126269312Y-89125252D01*
X126265855Y-89131718D01*
X126265637Y-89132044D01*
X126260987Y-89137710D01*
X126260710Y-89137987D01*
X126255044Y-89142637D01*
X126254718Y-89142855D01*
X126248252Y-89146312D01*
X126247890Y-89146462D01*
X126240875Y-89148590D01*
X126240490Y-89148666D01*
X126231191Y-89149582D01*
X126207439Y-89154306D01*
X126185165Y-89163533D01*
X126165118Y-89176927D01*
X126148071Y-89193974D01*
X126134676Y-89214022D01*
X126125449Y-89236296D01*
X126120745Y-89259946D01*
X126120745Y-89284052D01*
X126125449Y-89307702D01*
X126134676Y-89329976D01*
X126148070Y-89350023D01*
X126165117Y-89367070D01*
X126185165Y-89380465D01*
X126207439Y-89389692D01*
X126231191Y-89394416D01*
X126240490Y-89395332D01*
X126240875Y-89395408D01*
X126247890Y-89397536D01*
X126248252Y-89397686D01*
X126254718Y-89401143D01*
X126255044Y-89401361D01*
X126260710Y-89406011D01*
X126260987Y-89406288D01*
X126265637Y-89411954D01*
X126265855Y-89412280D01*
X126269312Y-89418746D01*
X126269462Y-89419108D01*
X126271590Y-89426123D01*
X126271666Y-89426508D01*
X126272989Y-89439943D01*
X126272999Y-89440139D01*
X126272999Y-89496499D01*
X126271999Y-89498231D01*
X126269999Y-89498231D01*
X126269009Y-89496695D01*
X126267098Y-89477287D01*
X126261492Y-89458808D01*
X126252391Y-89441780D01*
X126240142Y-89426856D01*
X126225218Y-89414607D01*
X126208190Y-89405506D01*
X126189711Y-89399900D01*
X126170405Y-89397999D01*
X125519593Y-89397999D01*
X125500287Y-89399900D01*
X125481808Y-89405506D01*
X125464780Y-89414607D01*
X125449856Y-89426856D01*
X125437607Y-89441780D01*
X125428506Y-89458808D01*
X125422900Y-89477287D01*
X125420989Y-89496695D01*
X125419824Y-89498321D01*
X125417834Y-89498125D01*
X125416999Y-89496499D01*
X125416999Y-89440139D01*
X125417009Y-89439943D01*
X125418332Y-89426508D01*
X125418408Y-89426123D01*
X125420536Y-89419108D01*
X125420686Y-89418746D01*
X125424143Y-89412280D01*
X125424361Y-89411954D01*
X125429011Y-89406288D01*
X125429288Y-89406011D01*
X125434954Y-89401361D01*
X125435280Y-89401143D01*
X125441746Y-89397686D01*
X125442108Y-89397536D01*
X125449123Y-89395408D01*
X125449508Y-89395332D01*
X125458807Y-89394416D01*
X125482559Y-89389692D01*
X125504833Y-89380465D01*
X125524880Y-89367071D01*
X125541927Y-89350024D01*
X125555322Y-89329976D01*
X125564549Y-89307702D01*
X125569253Y-89284052D01*
X125569253Y-89259946D01*
X125564549Y-89236296D01*
X125555322Y-89214022D01*
X125541928Y-89193975D01*
X125524881Y-89176928D01*
X125504833Y-89163533D01*
X125482559Y-89154306D01*
X125458807Y-89149582D01*
X125449508Y-89148666D01*
X125449123Y-89148590D01*
X125442108Y-89146462D01*
X125441746Y-89146312D01*
X125435280Y-89142855D01*
X125434954Y-89142637D01*
X125429288Y-89137987D01*
X125429011Y-89137710D01*
X125424361Y-89132044D01*
X125424143Y-89131718D01*
X125420686Y-89125252D01*
X125420536Y-89124890D01*
X125418408Y-89117875D01*
X125418332Y-89117490D01*
X125417009Y-89104055D01*
X125416999Y-89103859D01*
X125416999Y-89047499D01*
X125417999Y-89045767D01*
X125419999Y-89045767D01*
X125420989Y-89047303D01*
X125422900Y-89066711D01*
X125428506Y-89085190D01*
X125437607Y-89102218D01*
X125449856Y-89117142D01*
X125464780Y-89129391D01*
X125481808Y-89138492D01*
X125500287Y-89144098D01*
X125519593Y-89145999D01*
X126170405Y-89145999D01*
X126189711Y-89144098D01*
X126208190Y-89138492D01*
X126225218Y-89129391D01*
X126240142Y-89117142D01*
X126252391Y-89102218D01*
X126261492Y-89085190D01*
X126267098Y-89066711D01*
X126269009Y-89047303D01*
X126270174Y-89045677D01*
X126272164Y-89045873D01*
G37*
G36*
X126853341Y-88519999D02*
G01*
X126853341Y-88521999D01*
X126851805Y-88522989D01*
X126801747Y-88527919D01*
X126753795Y-88542465D01*
X126709605Y-88566085D01*
X126670872Y-88597872D01*
X126639085Y-88636605D01*
X126615465Y-88680795D01*
X126600919Y-88728747D01*
X126595989Y-88778805D01*
X126594824Y-88780431D01*
X126592834Y-88780235D01*
X126591999Y-88778609D01*
X126591999Y-88678405D01*
X126592009Y-88678209D01*
X126595508Y-88642679D01*
X126595584Y-88642294D01*
X126604158Y-88614030D01*
X126604308Y-88613668D01*
X126618232Y-88587618D01*
X126618450Y-88587292D01*
X126637186Y-88564463D01*
X126637463Y-88564186D01*
X126660292Y-88545450D01*
X126660618Y-88545232D01*
X126686668Y-88531308D01*
X126687030Y-88531158D01*
X126715294Y-88522584D01*
X126715679Y-88522508D01*
X126751209Y-88519009D01*
X126751405Y-88518999D01*
X126851609Y-88518999D01*
X126853341Y-88519999D01*
G37*
G36*
X129888789Y-88519009D02*
G01*
X129924319Y-88522508D01*
X129924704Y-88522584D01*
X129952968Y-88531158D01*
X129953330Y-88531308D01*
X129979380Y-88545232D01*
X129979706Y-88545450D01*
X130002535Y-88564186D01*
X130002812Y-88564463D01*
X130021548Y-88587292D01*
X130021766Y-88587618D01*
X130035690Y-88613668D01*
X130035840Y-88614030D01*
X130044414Y-88642294D01*
X130044490Y-88642679D01*
X130047989Y-88678209D01*
X130047999Y-88678405D01*
X130047999Y-88778609D01*
X130046999Y-88780341D01*
X130044999Y-88780341D01*
X130044009Y-88778805D01*
X130039079Y-88728747D01*
X130024533Y-88680795D01*
X130000913Y-88636605D01*
X129969126Y-88597872D01*
X129930393Y-88566085D01*
X129886203Y-88542465D01*
X129838251Y-88527919D01*
X129788193Y-88522989D01*
X129786567Y-88521824D01*
X129786763Y-88519834D01*
X129788389Y-88518999D01*
X129888593Y-88518999D01*
X129888789Y-88519009D01*
G37*
G36*
X127827055Y-87344009D02*
G01*
X127840490Y-87345332D01*
X127840875Y-87345408D01*
X127847890Y-87347536D01*
X127848252Y-87347686D01*
X127854718Y-87351143D01*
X127855044Y-87351361D01*
X127860710Y-87356011D01*
X127860987Y-87356288D01*
X127865637Y-87361954D01*
X127865855Y-87362280D01*
X127869312Y-87368746D01*
X127869462Y-87369108D01*
X127871590Y-87376123D01*
X127871666Y-87376508D01*
X127872582Y-87385807D01*
X127877306Y-87409559D01*
X127886533Y-87431833D01*
X127899927Y-87451880D01*
X127916974Y-87468927D01*
X127937022Y-87482322D01*
X127959296Y-87491549D01*
X127982946Y-87496253D01*
X128007052Y-87496253D01*
X128030702Y-87491549D01*
X128052976Y-87482322D01*
X128073023Y-87468928D01*
X128090070Y-87451881D01*
X128103465Y-87431833D01*
X128112692Y-87409559D01*
X128117416Y-87385807D01*
X128118332Y-87376508D01*
X128118408Y-87376123D01*
X128120536Y-87369108D01*
X128120686Y-87368746D01*
X128124143Y-87362280D01*
X128124361Y-87361954D01*
X128129011Y-87356288D01*
X128129288Y-87356011D01*
X128134954Y-87351361D01*
X128135280Y-87351143D01*
X128141746Y-87347686D01*
X128142108Y-87347536D01*
X128149123Y-87345408D01*
X128149508Y-87345332D01*
X128162943Y-87344009D01*
X128163139Y-87343999D01*
X128219499Y-87343999D01*
X128221231Y-87344999D01*
X128221231Y-87346999D01*
X128219695Y-87347989D01*
X128200287Y-87349900D01*
X128181808Y-87355506D01*
X128164780Y-87364607D01*
X128149856Y-87376856D01*
X128137607Y-87391780D01*
X128128506Y-87408808D01*
X128122900Y-87427287D01*
X128120999Y-87446593D01*
X128120999Y-88097405D01*
X128122900Y-88116711D01*
X128128506Y-88135190D01*
X128137607Y-88152218D01*
X128149856Y-88167142D01*
X128164780Y-88179391D01*
X128181808Y-88188492D01*
X128200287Y-88194098D01*
X128219695Y-88196009D01*
X128221321Y-88197174D01*
X128221125Y-88199164D01*
X128219499Y-88199999D01*
X128163139Y-88199999D01*
X128162943Y-88199989D01*
X128149508Y-88198666D01*
X128149123Y-88198590D01*
X128142108Y-88196462D01*
X128141746Y-88196312D01*
X128135280Y-88192855D01*
X128134954Y-88192637D01*
X128129288Y-88187987D01*
X128129011Y-88187710D01*
X128124361Y-88182044D01*
X128124143Y-88181718D01*
X128120686Y-88175252D01*
X128120536Y-88174890D01*
X128118408Y-88167875D01*
X128118332Y-88167490D01*
X128117416Y-88158191D01*
X128112692Y-88134439D01*
X128103465Y-88112165D01*
X128090071Y-88092118D01*
X128073024Y-88075071D01*
X128052976Y-88061676D01*
X128030702Y-88052449D01*
X128007052Y-88047745D01*
X127982946Y-88047745D01*
X127959296Y-88052449D01*
X127937022Y-88061676D01*
X127916975Y-88075070D01*
X127899928Y-88092117D01*
X127886533Y-88112165D01*
X127877306Y-88134439D01*
X127872582Y-88158191D01*
X127871666Y-88167490D01*
X127871590Y-88167875D01*
X127869462Y-88174890D01*
X127869312Y-88175252D01*
X127865855Y-88181718D01*
X127865637Y-88182044D01*
X127860987Y-88187710D01*
X127860710Y-88187987D01*
X127855044Y-88192637D01*
X127854718Y-88192855D01*
X127848252Y-88196312D01*
X127847890Y-88196462D01*
X127840875Y-88198590D01*
X127840490Y-88198666D01*
X127827055Y-88199989D01*
X127826859Y-88199999D01*
X127770499Y-88199999D01*
X127768767Y-88198999D01*
X127768767Y-88196999D01*
X127770303Y-88196009D01*
X127789711Y-88194098D01*
X127808190Y-88188492D01*
X127825218Y-88179391D01*
X127840142Y-88167142D01*
X127852391Y-88152218D01*
X127861492Y-88135190D01*
X127867098Y-88116711D01*
X127868999Y-88097405D01*
X127868999Y-87446593D01*
X127867098Y-87427287D01*
X127861492Y-87408808D01*
X127852391Y-87391780D01*
X127840142Y-87376856D01*
X127825218Y-87364607D01*
X127808190Y-87355506D01*
X127789711Y-87349900D01*
X127770303Y-87347989D01*
X127768677Y-87346824D01*
X127768873Y-87344834D01*
X127770499Y-87343999D01*
X127826859Y-87343999D01*
X127827055Y-87344009D01*
G37*
G36*
X128477055Y-87344009D02*
G01*
X128490490Y-87345332D01*
X128490875Y-87345408D01*
X128497890Y-87347536D01*
X128498252Y-87347686D01*
X128504718Y-87351143D01*
X128505044Y-87351361D01*
X128510710Y-87356011D01*
X128510987Y-87356288D01*
X128515637Y-87361954D01*
X128515855Y-87362280D01*
X128519312Y-87368746D01*
X128519462Y-87369108D01*
X128521590Y-87376123D01*
X128521666Y-87376508D01*
X128522582Y-87385807D01*
X128527306Y-87409559D01*
X128536533Y-87431833D01*
X128549927Y-87451880D01*
X128566974Y-87468927D01*
X128587022Y-87482322D01*
X128609296Y-87491549D01*
X128632946Y-87496253D01*
X128657052Y-87496253D01*
X128680702Y-87491549D01*
X128702976Y-87482322D01*
X128723023Y-87468928D01*
X128740070Y-87451881D01*
X128753465Y-87431833D01*
X128762692Y-87409559D01*
X128767416Y-87385807D01*
X128768332Y-87376508D01*
X128768408Y-87376123D01*
X128770536Y-87369108D01*
X128770686Y-87368746D01*
X128774143Y-87362280D01*
X128774361Y-87361954D01*
X128779011Y-87356288D01*
X128779288Y-87356011D01*
X128784954Y-87351361D01*
X128785280Y-87351143D01*
X128791746Y-87347686D01*
X128792108Y-87347536D01*
X128799123Y-87345408D01*
X128799508Y-87345332D01*
X128812943Y-87344009D01*
X128813139Y-87343999D01*
X128869499Y-87343999D01*
X128871231Y-87344999D01*
X128871231Y-87346999D01*
X128869695Y-87347989D01*
X128850287Y-87349900D01*
X128831808Y-87355506D01*
X128814780Y-87364607D01*
X128799856Y-87376856D01*
X128787607Y-87391780D01*
X128778506Y-87408808D01*
X128772900Y-87427287D01*
X128770999Y-87446593D01*
X128770999Y-88097405D01*
X128772900Y-88116711D01*
X128778506Y-88135190D01*
X128787607Y-88152218D01*
X128799856Y-88167142D01*
X128814780Y-88179391D01*
X128831808Y-88188492D01*
X128850287Y-88194098D01*
X128869695Y-88196009D01*
X128871321Y-88197174D01*
X128871125Y-88199164D01*
X128869499Y-88199999D01*
X128813139Y-88199999D01*
X128812943Y-88199989D01*
X128799508Y-88198666D01*
X128799123Y-88198590D01*
X128792108Y-88196462D01*
X128791746Y-88196312D01*
X128785280Y-88192855D01*
X128784954Y-88192637D01*
X128779288Y-88187987D01*
X128779011Y-88187710D01*
X128774361Y-88182044D01*
X128774143Y-88181718D01*
X128770686Y-88175252D01*
X128770536Y-88174890D01*
X128768408Y-88167875D01*
X128768332Y-88167490D01*
X128767416Y-88158191D01*
X128762692Y-88134439D01*
X128753465Y-88112165D01*
X128740071Y-88092118D01*
X128723024Y-88075071D01*
X128702976Y-88061676D01*
X128680702Y-88052449D01*
X128657052Y-88047745D01*
X128632946Y-88047745D01*
X128609296Y-88052449D01*
X128587022Y-88061676D01*
X128566975Y-88075070D01*
X128549928Y-88092117D01*
X128536533Y-88112165D01*
X128527306Y-88134439D01*
X128522582Y-88158191D01*
X128521666Y-88167490D01*
X128521590Y-88167875D01*
X128519462Y-88174890D01*
X128519312Y-88175252D01*
X128515855Y-88181718D01*
X128515637Y-88182044D01*
X128510987Y-88187710D01*
X128510710Y-88187987D01*
X128505044Y-88192637D01*
X128504718Y-88192855D01*
X128498252Y-88196312D01*
X128497890Y-88196462D01*
X128490875Y-88198590D01*
X128490490Y-88198666D01*
X128477055Y-88199989D01*
X128476859Y-88199999D01*
X128420499Y-88199999D01*
X128418767Y-88198999D01*
X128418767Y-88196999D01*
X128420303Y-88196009D01*
X128439711Y-88194098D01*
X128458190Y-88188492D01*
X128475218Y-88179391D01*
X128490142Y-88167142D01*
X128502391Y-88152218D01*
X128511492Y-88135190D01*
X128517098Y-88116711D01*
X128518999Y-88097405D01*
X128518999Y-87446593D01*
X128517098Y-87427287D01*
X128511492Y-87408808D01*
X128502391Y-87391780D01*
X128490142Y-87376856D01*
X128475218Y-87364607D01*
X128458190Y-87355506D01*
X128439711Y-87349900D01*
X128420303Y-87347989D01*
X128418677Y-87346824D01*
X128418873Y-87344834D01*
X128420499Y-87343999D01*
X128476859Y-87343999D01*
X128477055Y-87344009D01*
G37*
G36*
X127177055Y-87344009D02*
G01*
X127190490Y-87345332D01*
X127190875Y-87345408D01*
X127197890Y-87347536D01*
X127198252Y-87347686D01*
X127204718Y-87351143D01*
X127205044Y-87351361D01*
X127210710Y-87356011D01*
X127210987Y-87356288D01*
X127215637Y-87361954D01*
X127215855Y-87362280D01*
X127219312Y-87368746D01*
X127219462Y-87369108D01*
X127221590Y-87376123D01*
X127221666Y-87376508D01*
X127222582Y-87385807D01*
X127227306Y-87409559D01*
X127236533Y-87431833D01*
X127249927Y-87451880D01*
X127266974Y-87468927D01*
X127287022Y-87482322D01*
X127309296Y-87491549D01*
X127332946Y-87496253D01*
X127357052Y-87496253D01*
X127380702Y-87491549D01*
X127402976Y-87482322D01*
X127423023Y-87468928D01*
X127440070Y-87451881D01*
X127453465Y-87431833D01*
X127462692Y-87409559D01*
X127467416Y-87385807D01*
X127468332Y-87376508D01*
X127468408Y-87376123D01*
X127470536Y-87369108D01*
X127470686Y-87368746D01*
X127474143Y-87362280D01*
X127474361Y-87361954D01*
X127479011Y-87356288D01*
X127479288Y-87356011D01*
X127484954Y-87351361D01*
X127485280Y-87351143D01*
X127491746Y-87347686D01*
X127492108Y-87347536D01*
X127499123Y-87345408D01*
X127499508Y-87345332D01*
X127512943Y-87344009D01*
X127513139Y-87343999D01*
X127569499Y-87343999D01*
X127571231Y-87344999D01*
X127571231Y-87346999D01*
X127569695Y-87347989D01*
X127550287Y-87349900D01*
X127531808Y-87355506D01*
X127514780Y-87364607D01*
X127499856Y-87376856D01*
X127487607Y-87391780D01*
X127478506Y-87408808D01*
X127472900Y-87427287D01*
X127470999Y-87446593D01*
X127470999Y-88097405D01*
X127472900Y-88116711D01*
X127478506Y-88135190D01*
X127487607Y-88152218D01*
X127499856Y-88167142D01*
X127514780Y-88179391D01*
X127531808Y-88188492D01*
X127550287Y-88194098D01*
X127569695Y-88196009D01*
X127571321Y-88197174D01*
X127571125Y-88199164D01*
X127569499Y-88199999D01*
X127513139Y-88199999D01*
X127512943Y-88199989D01*
X127499508Y-88198666D01*
X127499123Y-88198590D01*
X127492108Y-88196462D01*
X127491746Y-88196312D01*
X127485280Y-88192855D01*
X127484954Y-88192637D01*
X127479288Y-88187987D01*
X127479011Y-88187710D01*
X127474361Y-88182044D01*
X127474143Y-88181718D01*
X127470686Y-88175252D01*
X127470536Y-88174890D01*
X127468408Y-88167875D01*
X127468332Y-88167490D01*
X127467416Y-88158191D01*
X127462692Y-88134439D01*
X127453465Y-88112165D01*
X127440071Y-88092118D01*
X127423024Y-88075071D01*
X127402976Y-88061676D01*
X127380702Y-88052449D01*
X127357052Y-88047745D01*
X127332946Y-88047745D01*
X127309296Y-88052449D01*
X127287022Y-88061676D01*
X127266975Y-88075070D01*
X127249928Y-88092117D01*
X127236533Y-88112165D01*
X127227306Y-88134439D01*
X127222582Y-88158191D01*
X127221666Y-88167490D01*
X127221590Y-88167875D01*
X127219462Y-88174890D01*
X127219312Y-88175252D01*
X127215855Y-88181718D01*
X127215637Y-88182044D01*
X127210987Y-88187710D01*
X127210710Y-88187987D01*
X127205044Y-88192637D01*
X127204718Y-88192855D01*
X127198252Y-88196312D01*
X127197890Y-88196462D01*
X127190875Y-88198590D01*
X127190490Y-88198666D01*
X127177055Y-88199989D01*
X127176859Y-88199999D01*
X127120499Y-88199999D01*
X127118767Y-88198999D01*
X127118767Y-88196999D01*
X127120303Y-88196009D01*
X127139711Y-88194098D01*
X127158190Y-88188492D01*
X127175218Y-88179391D01*
X127190142Y-88167142D01*
X127202391Y-88152218D01*
X127211492Y-88135190D01*
X127217098Y-88116711D01*
X127218999Y-88097405D01*
X127218999Y-87446593D01*
X127217098Y-87427287D01*
X127211492Y-87408808D01*
X127202391Y-87391780D01*
X127190142Y-87376856D01*
X127175218Y-87364607D01*
X127158190Y-87355506D01*
X127139711Y-87349900D01*
X127120303Y-87347989D01*
X127118677Y-87346824D01*
X127118873Y-87344834D01*
X127120499Y-87343999D01*
X127176859Y-87343999D01*
X127177055Y-87344009D01*
G37*
G36*
X129127055Y-87344009D02*
G01*
X129140490Y-87345332D01*
X129140875Y-87345408D01*
X129147890Y-87347536D01*
X129148252Y-87347686D01*
X129154718Y-87351143D01*
X129155044Y-87351361D01*
X129160710Y-87356011D01*
X129160987Y-87356288D01*
X129165637Y-87361954D01*
X129165855Y-87362280D01*
X129169312Y-87368746D01*
X129169462Y-87369108D01*
X129171590Y-87376123D01*
X129171666Y-87376508D01*
X129172582Y-87385807D01*
X129177306Y-87409559D01*
X129186533Y-87431833D01*
X129199927Y-87451880D01*
X129216974Y-87468927D01*
X129237022Y-87482322D01*
X129259296Y-87491549D01*
X129282946Y-87496253D01*
X129307052Y-87496253D01*
X129330702Y-87491549D01*
X129352976Y-87482322D01*
X129373023Y-87468928D01*
X129390070Y-87451881D01*
X129403465Y-87431833D01*
X129412692Y-87409559D01*
X129417416Y-87385807D01*
X129418332Y-87376508D01*
X129418408Y-87376123D01*
X129420536Y-87369108D01*
X129420686Y-87368746D01*
X129424143Y-87362280D01*
X129424361Y-87361954D01*
X129429011Y-87356288D01*
X129429288Y-87356011D01*
X129434954Y-87351361D01*
X129435280Y-87351143D01*
X129441746Y-87347686D01*
X129442108Y-87347536D01*
X129449123Y-87345408D01*
X129449508Y-87345332D01*
X129462943Y-87344009D01*
X129463139Y-87343999D01*
X129519499Y-87343999D01*
X129521231Y-87344999D01*
X129521231Y-87346999D01*
X129519695Y-87347989D01*
X129500287Y-87349900D01*
X129481808Y-87355506D01*
X129464780Y-87364607D01*
X129449856Y-87376856D01*
X129437607Y-87391780D01*
X129428506Y-87408808D01*
X129422900Y-87427287D01*
X129420999Y-87446593D01*
X129420999Y-88097405D01*
X129422900Y-88116711D01*
X129428506Y-88135190D01*
X129437607Y-88152218D01*
X129449856Y-88167142D01*
X129464780Y-88179391D01*
X129481808Y-88188492D01*
X129500287Y-88194098D01*
X129519695Y-88196009D01*
X129521321Y-88197174D01*
X129521125Y-88199164D01*
X129519499Y-88199999D01*
X129463139Y-88199999D01*
X129462943Y-88199989D01*
X129449508Y-88198666D01*
X129449123Y-88198590D01*
X129442108Y-88196462D01*
X129441746Y-88196312D01*
X129435280Y-88192855D01*
X129434954Y-88192637D01*
X129429288Y-88187987D01*
X129429011Y-88187710D01*
X129424361Y-88182044D01*
X129424143Y-88181718D01*
X129420686Y-88175252D01*
X129420536Y-88174890D01*
X129418408Y-88167875D01*
X129418332Y-88167490D01*
X129417416Y-88158191D01*
X129412692Y-88134439D01*
X129403465Y-88112165D01*
X129390071Y-88092118D01*
X129373024Y-88075071D01*
X129352976Y-88061676D01*
X129330702Y-88052449D01*
X129307052Y-88047745D01*
X129282946Y-88047745D01*
X129259296Y-88052449D01*
X129237022Y-88061676D01*
X129216975Y-88075070D01*
X129199928Y-88092117D01*
X129186533Y-88112165D01*
X129177306Y-88134439D01*
X129172582Y-88158191D01*
X129171666Y-88167490D01*
X129171590Y-88167875D01*
X129169462Y-88174890D01*
X129169312Y-88175252D01*
X129165855Y-88181718D01*
X129165637Y-88182044D01*
X129160987Y-88187710D01*
X129160710Y-88187987D01*
X129155044Y-88192637D01*
X129154718Y-88192855D01*
X129148252Y-88196312D01*
X129147890Y-88196462D01*
X129140875Y-88198590D01*
X129140490Y-88198666D01*
X129127055Y-88199989D01*
X129126859Y-88199999D01*
X129070499Y-88199999D01*
X129068767Y-88198999D01*
X129068767Y-88196999D01*
X129070303Y-88196009D01*
X129089711Y-88194098D01*
X129108190Y-88188492D01*
X129125218Y-88179391D01*
X129140142Y-88167142D01*
X129152391Y-88152218D01*
X129161492Y-88135190D01*
X129167098Y-88116711D01*
X129168999Y-88097405D01*
X129168999Y-87446593D01*
X129167098Y-87427287D01*
X129161492Y-87408808D01*
X129152391Y-87391780D01*
X129140142Y-87376856D01*
X129125218Y-87364607D01*
X129108190Y-87355506D01*
X129089711Y-87349900D01*
X129070303Y-87347989D01*
X129068677Y-87346824D01*
X129068873Y-87344834D01*
X129070499Y-87343999D01*
X129126859Y-87343999D01*
X129127055Y-87344009D01*
G37*
G36*
X135104732Y-76367000D02*
G01*
X135105000Y-76368000D01*
X135105000Y-76516000D01*
X135104000Y-76517732D01*
X135103000Y-76518000D01*
X133901000Y-76518000D01*
X133899268Y-76517000D01*
X133899000Y-76516000D01*
X133899000Y-76368000D01*
X133900000Y-76366268D01*
X133901000Y-76366000D01*
X135103000Y-76366000D01*
X135104732Y-76367000D01*
G37*
G36*
X139404732Y-76367000D02*
G01*
X139405000Y-76368000D01*
X139405000Y-76516000D01*
X139404000Y-76517732D01*
X139403000Y-76518000D01*
X138201000Y-76518000D01*
X138199268Y-76517000D01*
X138199000Y-76516000D01*
X138199000Y-76368000D01*
X138200000Y-76366268D01*
X138201000Y-76366000D01*
X139403000Y-76366000D01*
X139404732Y-76367000D01*
G37*
G36*
X139404732Y-75867000D02*
G01*
X139405000Y-75868000D01*
X139405000Y-76016000D01*
X139404000Y-76017732D01*
X139403000Y-76018000D01*
X138201000Y-76018000D01*
X138199268Y-76017000D01*
X138199000Y-76016000D01*
X138199000Y-75868000D01*
X138200000Y-75866268D01*
X138201000Y-75866000D01*
X139403000Y-75866000D01*
X139404732Y-75867000D01*
G37*
G36*
X135104732Y-75867000D02*
G01*
X135105000Y-75868000D01*
X135105000Y-76016000D01*
X135104000Y-76017732D01*
X135103000Y-76018000D01*
X133901000Y-76018000D01*
X133899268Y-76017000D01*
X133899000Y-76016000D01*
X133899000Y-75868000D01*
X133900000Y-75866268D01*
X133901000Y-75866000D01*
X135103000Y-75866000D01*
X135104732Y-75867000D01*
G37*
G36*
X139404732Y-75367000D02*
G01*
X139405000Y-75368000D01*
X139405000Y-75516000D01*
X139404000Y-75517732D01*
X139403000Y-75518000D01*
X138201000Y-75518000D01*
X138199268Y-75517000D01*
X138199000Y-75516000D01*
X138199000Y-75368000D01*
X138200000Y-75366268D01*
X138201000Y-75366000D01*
X139403000Y-75366000D01*
X139404732Y-75367000D01*
G37*
G36*
X135104732Y-75367000D02*
G01*
X135105000Y-75368000D01*
X135105000Y-75516000D01*
X135104000Y-75517732D01*
X135103000Y-75518000D01*
X133901000Y-75518000D01*
X133899268Y-75517000D01*
X133899000Y-75516000D01*
X133899000Y-75368000D01*
X133900000Y-75366268D01*
X133901000Y-75366000D01*
X135103000Y-75366000D01*
X135104732Y-75367000D01*
G37*
G36*
X139404732Y-74867000D02*
G01*
X139405000Y-74868000D01*
X139405000Y-75016000D01*
X139404000Y-75017732D01*
X139403000Y-75018000D01*
X138201000Y-75018000D01*
X138199268Y-75017000D01*
X138199000Y-75016000D01*
X138199000Y-74868000D01*
X138200000Y-74866268D01*
X138201000Y-74866000D01*
X139403000Y-74866000D01*
X139404732Y-74867000D01*
G37*
G36*
X135104732Y-74867000D02*
G01*
X135105000Y-74868000D01*
X135105000Y-75016000D01*
X135104000Y-75017732D01*
X135103000Y-75018000D01*
X133901000Y-75018000D01*
X133899268Y-75017000D01*
X133899000Y-75016000D01*
X133899000Y-74868000D01*
X133900000Y-74866268D01*
X133901000Y-74866000D01*
X135103000Y-74866000D01*
X135104732Y-74867000D01*
G37*
M02*
