G04 #@! TF.GenerationSoftware,KiCad,Pcbnew,(5.1.12)-1*
G04 #@! TF.CreationDate,2021-12-15T05:31:51+03:00*
G04 #@! TF.ProjectId,sagitta-shield,73616769-7474-4612-9d73-6869656c642e,rev?*
G04 #@! TF.SameCoordinates,Original*
G04 #@! TF.FileFunction,Legend,Top*
G04 #@! TF.FilePolarity,Positive*
%FSLAX46Y46*%
G04 Gerber Fmt 4.6, Leading zero omitted, Abs format (unit mm)*
G04 Created by KiCad (PCBNEW (5.1.12)-1) date 2021-12-15 05:31:51*
%MOMM*%
%LPD*%
G01*
G04 APERTURE LIST*
%ADD10C,0.100000*%
%ADD11C,0.150000*%
%ADD12C,0.300000*%
%ADD13C,0.400000*%
%ADD14C,0.120000*%
%ADD15C,0.250000*%
%ADD16C,0.010000*%
G04 APERTURE END LIST*
D10*
D11*
X177002200Y-166007200D02*
X177002200Y-198007200D01*
X285002200Y-198007200D01*
X285002200Y-166007200D01*
X177002200Y-166007200D01*
D10*
D11*
X10000000Y-10000000D02*
X10000000Y-200007200D01*
X287002200Y-200007200D01*
X287002200Y-10000000D01*
X10000000Y-10000000D01*
D10*
D11*
X12000000Y-12000000D02*
X12000000Y-198007200D01*
X285002200Y-198007200D01*
X285002200Y-12000000D01*
X12000000Y-12000000D01*
D10*
D11*
X60000000Y-12000000D02*
X60000000Y-10000000D01*
D10*
D11*
X110000000Y-12000000D02*
X110000000Y-10000000D01*
D10*
D11*
X160000000Y-12000000D02*
X160000000Y-10000000D01*
D10*
D11*
X210000000Y-12000000D02*
X210000000Y-10000000D01*
D10*
D11*
X260000000Y-12000000D02*
X260000000Y-10000000D01*
D10*
D11*
X36065476Y-11588095D02*
X35322619Y-11588095D01*
X35694047Y-11588095D02*
X35694047Y-10288095D01*
X35570238Y-10473809D01*
X35446428Y-10597619D01*
X35322619Y-10659523D01*
D10*
D11*
X85322619Y-10411904D02*
X85384523Y-10350000D01*
X85508333Y-10288095D01*
X85817857Y-10288095D01*
X85941666Y-10350000D01*
X86003571Y-10411904D01*
X86065476Y-10535714D01*
X86065476Y-10659523D01*
X86003571Y-10845238D01*
X85260714Y-11588095D01*
X86065476Y-11588095D01*
D10*
D11*
X135260714Y-10288095D02*
X136065476Y-10288095D01*
X135632142Y-10783333D01*
X135817857Y-10783333D01*
X135941666Y-10845238D01*
X136003571Y-10907142D01*
X136065476Y-11030952D01*
X136065476Y-11340476D01*
X136003571Y-11464285D01*
X135941666Y-11526190D01*
X135817857Y-11588095D01*
X135446428Y-11588095D01*
X135322619Y-11526190D01*
X135260714Y-11464285D01*
D10*
D11*
X185941666Y-10721428D02*
X185941666Y-11588095D01*
X185632142Y-10226190D02*
X185322619Y-11154761D01*
X186127380Y-11154761D01*
D10*
D11*
X236003571Y-10288095D02*
X235384523Y-10288095D01*
X235322619Y-10907142D01*
X235384523Y-10845238D01*
X235508333Y-10783333D01*
X235817857Y-10783333D01*
X235941666Y-10845238D01*
X236003571Y-10907142D01*
X236065476Y-11030952D01*
X236065476Y-11340476D01*
X236003571Y-11464285D01*
X235941666Y-11526190D01*
X235817857Y-11588095D01*
X235508333Y-11588095D01*
X235384523Y-11526190D01*
X235322619Y-11464285D01*
D10*
D11*
X285941666Y-10288095D02*
X285694047Y-10288095D01*
X285570238Y-10350000D01*
X285508333Y-10411904D01*
X285384523Y-10597619D01*
X285322619Y-10845238D01*
X285322619Y-11340476D01*
X285384523Y-11464285D01*
X285446428Y-11526190D01*
X285570238Y-11588095D01*
X285817857Y-11588095D01*
X285941666Y-11526190D01*
X286003571Y-11464285D01*
X286065476Y-11340476D01*
X286065476Y-11030952D01*
X286003571Y-10907142D01*
X285941666Y-10845238D01*
X285817857Y-10783333D01*
X285570238Y-10783333D01*
X285446428Y-10845238D01*
X285384523Y-10907142D01*
X285322619Y-11030952D01*
D10*
D11*
X60000000Y-198007200D02*
X60000000Y-200007200D01*
D10*
D11*
X110000000Y-198007200D02*
X110000000Y-200007200D01*
D10*
D11*
X160000000Y-198007200D02*
X160000000Y-200007200D01*
D10*
D11*
X210000000Y-198007200D02*
X210000000Y-200007200D01*
D10*
D11*
X260000000Y-198007200D02*
X260000000Y-200007200D01*
D10*
D11*
X36065476Y-199595295D02*
X35322619Y-199595295D01*
X35694047Y-199595295D02*
X35694047Y-198295295D01*
X35570238Y-198481009D01*
X35446428Y-198604819D01*
X35322619Y-198666723D01*
D10*
D11*
X85322619Y-198419104D02*
X85384523Y-198357200D01*
X85508333Y-198295295D01*
X85817857Y-198295295D01*
X85941666Y-198357200D01*
X86003571Y-198419104D01*
X86065476Y-198542914D01*
X86065476Y-198666723D01*
X86003571Y-198852438D01*
X85260714Y-199595295D01*
X86065476Y-199595295D01*
D10*
D11*
X135260714Y-198295295D02*
X136065476Y-198295295D01*
X135632142Y-198790533D01*
X135817857Y-198790533D01*
X135941666Y-198852438D01*
X136003571Y-198914342D01*
X136065476Y-199038152D01*
X136065476Y-199347676D01*
X136003571Y-199471485D01*
X135941666Y-199533390D01*
X135817857Y-199595295D01*
X135446428Y-199595295D01*
X135322619Y-199533390D01*
X135260714Y-199471485D01*
D10*
D11*
X185941666Y-198728628D02*
X185941666Y-199595295D01*
X185632142Y-198233390D02*
X185322619Y-199161961D01*
X186127380Y-199161961D01*
D10*
D11*
X236003571Y-198295295D02*
X235384523Y-198295295D01*
X235322619Y-198914342D01*
X235384523Y-198852438D01*
X235508333Y-198790533D01*
X235817857Y-198790533D01*
X235941666Y-198852438D01*
X236003571Y-198914342D01*
X236065476Y-199038152D01*
X236065476Y-199347676D01*
X236003571Y-199471485D01*
X235941666Y-199533390D01*
X235817857Y-199595295D01*
X235508333Y-199595295D01*
X235384523Y-199533390D01*
X235322619Y-199471485D01*
D10*
D11*
X285941666Y-198295295D02*
X285694047Y-198295295D01*
X285570238Y-198357200D01*
X285508333Y-198419104D01*
X285384523Y-198604819D01*
X285322619Y-198852438D01*
X285322619Y-199347676D01*
X285384523Y-199471485D01*
X285446428Y-199533390D01*
X285570238Y-199595295D01*
X285817857Y-199595295D01*
X285941666Y-199533390D01*
X286003571Y-199471485D01*
X286065476Y-199347676D01*
X286065476Y-199038152D01*
X286003571Y-198914342D01*
X285941666Y-198852438D01*
X285817857Y-198790533D01*
X285570238Y-198790533D01*
X285446428Y-198852438D01*
X285384523Y-198914342D01*
X285322619Y-199038152D01*
D10*
D11*
X10000000Y-60000000D02*
X12000000Y-60000000D01*
D10*
D11*
X10000000Y-110000000D02*
X12000000Y-110000000D01*
D10*
D11*
X10000000Y-160000000D02*
X12000000Y-160000000D01*
D10*
D11*
X10690476Y-35216666D02*
X11309523Y-35216666D01*
X10566666Y-35588095D02*
X11000000Y-34288095D01*
X11433333Y-35588095D01*
D10*
D11*
X11092857Y-84907142D02*
X11278571Y-84969047D01*
X11340476Y-85030952D01*
X11402380Y-85154761D01*
X11402380Y-85340476D01*
X11340476Y-85464285D01*
X11278571Y-85526190D01*
X11154761Y-85588095D01*
X10659523Y-85588095D01*
X10659523Y-84288095D01*
X11092857Y-84288095D01*
X11216666Y-84350000D01*
X11278571Y-84411904D01*
X11340476Y-84535714D01*
X11340476Y-84659523D01*
X11278571Y-84783333D01*
X11216666Y-84845238D01*
X11092857Y-84907142D01*
X10659523Y-84907142D01*
D10*
D11*
X11402380Y-135464285D02*
X11340476Y-135526190D01*
X11154761Y-135588095D01*
X11030952Y-135588095D01*
X10845238Y-135526190D01*
X10721428Y-135402380D01*
X10659523Y-135278571D01*
X10597619Y-135030952D01*
X10597619Y-134845238D01*
X10659523Y-134597619D01*
X10721428Y-134473809D01*
X10845238Y-134350000D01*
X11030952Y-134288095D01*
X11154761Y-134288095D01*
X11340476Y-134350000D01*
X11402380Y-134411904D01*
D10*
D11*
X10659523Y-185588095D02*
X10659523Y-184288095D01*
X10969047Y-184288095D01*
X11154761Y-184350000D01*
X11278571Y-184473809D01*
X11340476Y-184597619D01*
X11402380Y-184845238D01*
X11402380Y-185030952D01*
X11340476Y-185278571D01*
X11278571Y-185402380D01*
X11154761Y-185526190D01*
X10969047Y-185588095D01*
X10659523Y-185588095D01*
D10*
D11*
X287002200Y-60000000D02*
X285002200Y-60000000D01*
D10*
D11*
X287002200Y-110000000D02*
X285002200Y-110000000D01*
D10*
D11*
X287002200Y-160000000D02*
X285002200Y-160000000D01*
D10*
D11*
X285692676Y-35216666D02*
X286311723Y-35216666D01*
X285568866Y-35588095D02*
X286002200Y-34288095D01*
X286435533Y-35588095D01*
D10*
D11*
X286095057Y-84907142D02*
X286280771Y-84969047D01*
X286342676Y-85030952D01*
X286404580Y-85154761D01*
X286404580Y-85340476D01*
X286342676Y-85464285D01*
X286280771Y-85526190D01*
X286156961Y-85588095D01*
X285661723Y-85588095D01*
X285661723Y-84288095D01*
X286095057Y-84288095D01*
X286218866Y-84350000D01*
X286280771Y-84411904D01*
X286342676Y-84535714D01*
X286342676Y-84659523D01*
X286280771Y-84783333D01*
X286218866Y-84845238D01*
X286095057Y-84907142D01*
X285661723Y-84907142D01*
D10*
D11*
X286404580Y-135464285D02*
X286342676Y-135526190D01*
X286156961Y-135588095D01*
X286033152Y-135588095D01*
X285847438Y-135526190D01*
X285723628Y-135402380D01*
X285661723Y-135278571D01*
X285599819Y-135030952D01*
X285599819Y-134845238D01*
X285661723Y-134597619D01*
X285723628Y-134473809D01*
X285847438Y-134350000D01*
X286033152Y-134288095D01*
X286156961Y-134288095D01*
X286342676Y-134350000D01*
X286404580Y-134411904D01*
D10*
D11*
X285661723Y-185588095D02*
X285661723Y-184288095D01*
X285971247Y-184288095D01*
X286156961Y-184350000D01*
X286280771Y-184473809D01*
X286342676Y-184597619D01*
X286404580Y-184845238D01*
X286404580Y-185030952D01*
X286342676Y-185278571D01*
X286280771Y-185402380D01*
X286156961Y-185526190D01*
X285971247Y-185588095D01*
X285661723Y-185588095D01*
D10*
D11*
X200434342Y-193785771D02*
X200434342Y-192285771D01*
X200791485Y-192285771D01*
X201005771Y-192357200D01*
X201148628Y-192500057D01*
X201220057Y-192642914D01*
X201291485Y-192928628D01*
X201291485Y-193142914D01*
X201220057Y-193428628D01*
X201148628Y-193571485D01*
X201005771Y-193714342D01*
X200791485Y-193785771D01*
X200434342Y-193785771D01*
X202577200Y-193785771D02*
X202577200Y-193000057D01*
X202505771Y-192857200D01*
X202362914Y-192785771D01*
X202077200Y-192785771D01*
X201934342Y-192857200D01*
X202577200Y-193714342D02*
X202434342Y-193785771D01*
X202077200Y-193785771D01*
X201934342Y-193714342D01*
X201862914Y-193571485D01*
X201862914Y-193428628D01*
X201934342Y-193285771D01*
X202077200Y-193214342D01*
X202434342Y-193214342D01*
X202577200Y-193142914D01*
X203077200Y-192785771D02*
X203648628Y-192785771D01*
X203291485Y-192285771D02*
X203291485Y-193571485D01*
X203362914Y-193714342D01*
X203505771Y-193785771D01*
X203648628Y-193785771D01*
X204720057Y-193714342D02*
X204577200Y-193785771D01*
X204291485Y-193785771D01*
X204148628Y-193714342D01*
X204077200Y-193571485D01*
X204077200Y-193000057D01*
X204148628Y-192857200D01*
X204291485Y-192785771D01*
X204577200Y-192785771D01*
X204720057Y-192857200D01*
X204791485Y-193000057D01*
X204791485Y-193142914D01*
X204077200Y-193285771D01*
X205434342Y-193642914D02*
X205505771Y-193714342D01*
X205434342Y-193785771D01*
X205362914Y-193714342D01*
X205434342Y-193642914D01*
X205434342Y-193785771D01*
X205434342Y-192857200D02*
X205505771Y-192928628D01*
X205434342Y-193000057D01*
X205362914Y-192928628D01*
X205434342Y-192857200D01*
X205434342Y-193000057D01*
D10*
D11*
X177002200Y-194507200D02*
X285002200Y-194507200D01*
D10*
D11*
X178434342Y-196585771D02*
X178434342Y-195085771D01*
X179291485Y-196585771D02*
X178648628Y-195728628D01*
X179291485Y-195085771D02*
X178434342Y-195942914D01*
X179934342Y-196585771D02*
X179934342Y-195585771D01*
X179934342Y-195085771D02*
X179862914Y-195157200D01*
X179934342Y-195228628D01*
X180005771Y-195157200D01*
X179934342Y-195085771D01*
X179934342Y-195228628D01*
X181505771Y-196442914D02*
X181434342Y-196514342D01*
X181220057Y-196585771D01*
X181077200Y-196585771D01*
X180862914Y-196514342D01*
X180720057Y-196371485D01*
X180648628Y-196228628D01*
X180577200Y-195942914D01*
X180577200Y-195728628D01*
X180648628Y-195442914D01*
X180720057Y-195300057D01*
X180862914Y-195157200D01*
X181077200Y-195085771D01*
X181220057Y-195085771D01*
X181434342Y-195157200D01*
X181505771Y-195228628D01*
X182791485Y-196585771D02*
X182791485Y-195800057D01*
X182720057Y-195657200D01*
X182577200Y-195585771D01*
X182291485Y-195585771D01*
X182148628Y-195657200D01*
X182791485Y-196514342D02*
X182648628Y-196585771D01*
X182291485Y-196585771D01*
X182148628Y-196514342D01*
X182077200Y-196371485D01*
X182077200Y-196228628D01*
X182148628Y-196085771D01*
X182291485Y-196014342D01*
X182648628Y-196014342D01*
X182791485Y-195942914D01*
X184148628Y-196585771D02*
X184148628Y-195085771D01*
X184148628Y-196514342D02*
X184005771Y-196585771D01*
X183720057Y-196585771D01*
X183577200Y-196514342D01*
X183505771Y-196442914D01*
X183434342Y-196300057D01*
X183434342Y-195871485D01*
X183505771Y-195728628D01*
X183577200Y-195657200D01*
X183720057Y-195585771D01*
X184005771Y-195585771D01*
X184148628Y-195657200D01*
X186005771Y-195800057D02*
X186505771Y-195800057D01*
X186720057Y-196585771D02*
X186005771Y-196585771D01*
X186005771Y-195085771D01*
X186720057Y-195085771D01*
X187362914Y-196442914D02*
X187434342Y-196514342D01*
X187362914Y-196585771D01*
X187291485Y-196514342D01*
X187362914Y-196442914D01*
X187362914Y-196585771D01*
X188077200Y-196585771D02*
X188077200Y-195085771D01*
X188434342Y-195085771D01*
X188648628Y-195157200D01*
X188791485Y-195300057D01*
X188862914Y-195442914D01*
X188934342Y-195728628D01*
X188934342Y-195942914D01*
X188862914Y-196228628D01*
X188791485Y-196371485D01*
X188648628Y-196514342D01*
X188434342Y-196585771D01*
X188077200Y-196585771D01*
X189577200Y-196442914D02*
X189648628Y-196514342D01*
X189577200Y-196585771D01*
X189505771Y-196514342D01*
X189577200Y-196442914D01*
X189577200Y-196585771D01*
X190220057Y-196157200D02*
X190934342Y-196157200D01*
X190077200Y-196585771D02*
X190577200Y-195085771D01*
X191077200Y-196585771D01*
X191577200Y-196442914D02*
X191648628Y-196514342D01*
X191577200Y-196585771D01*
X191505771Y-196514342D01*
X191577200Y-196442914D01*
X191577200Y-196585771D01*
X194577200Y-196585771D02*
X194577200Y-195085771D01*
X194720057Y-196014342D02*
X195148628Y-196585771D01*
X195148628Y-195585771D02*
X194577200Y-196157200D01*
X195791485Y-196585771D02*
X195791485Y-195585771D01*
X195791485Y-195085771D02*
X195720057Y-195157200D01*
X195791485Y-195228628D01*
X195862914Y-195157200D01*
X195791485Y-195085771D01*
X195791485Y-195228628D01*
X197148628Y-196514342D02*
X197005771Y-196585771D01*
X196720057Y-196585771D01*
X196577200Y-196514342D01*
X196505771Y-196442914D01*
X196434342Y-196300057D01*
X196434342Y-195871485D01*
X196505771Y-195728628D01*
X196577200Y-195657200D01*
X196720057Y-195585771D01*
X197005771Y-195585771D01*
X197148628Y-195657200D01*
X198434342Y-196585771D02*
X198434342Y-195800057D01*
X198362914Y-195657200D01*
X198220057Y-195585771D01*
X197934342Y-195585771D01*
X197791485Y-195657200D01*
X198434342Y-196514342D02*
X198291485Y-196585771D01*
X197934342Y-196585771D01*
X197791485Y-196514342D01*
X197720057Y-196371485D01*
X197720057Y-196228628D01*
X197791485Y-196085771D01*
X197934342Y-196014342D01*
X198291485Y-196014342D01*
X198434342Y-195942914D01*
X199791485Y-196585771D02*
X199791485Y-195085771D01*
X199791485Y-196514342D02*
X199648628Y-196585771D01*
X199362914Y-196585771D01*
X199220057Y-196514342D01*
X199148628Y-196442914D01*
X199077200Y-196300057D01*
X199077200Y-195871485D01*
X199148628Y-195728628D01*
X199220057Y-195657200D01*
X199362914Y-195585771D01*
X199648628Y-195585771D01*
X199791485Y-195657200D01*
X202077200Y-197157200D02*
X202005771Y-197085771D01*
X201862914Y-196871485D01*
X201791485Y-196728628D01*
X201720057Y-196514342D01*
X201648628Y-196157200D01*
X201648628Y-195871485D01*
X201720057Y-195514342D01*
X201791485Y-195300057D01*
X201862914Y-195157200D01*
X202005771Y-194942914D01*
X202077200Y-194871485D01*
X203362914Y-195085771D02*
X202648628Y-195085771D01*
X202577200Y-195800057D01*
X202648628Y-195728628D01*
X202791485Y-195657200D01*
X203148628Y-195657200D01*
X203291485Y-195728628D01*
X203362914Y-195800057D01*
X203434342Y-195942914D01*
X203434342Y-196300057D01*
X203362914Y-196442914D01*
X203291485Y-196514342D01*
X203148628Y-196585771D01*
X202791485Y-196585771D01*
X202648628Y-196514342D01*
X202577200Y-196442914D01*
X204077200Y-196442914D02*
X204148628Y-196514342D01*
X204077200Y-196585771D01*
X204005771Y-196514342D01*
X204077200Y-196442914D01*
X204077200Y-196585771D01*
X205577200Y-196585771D02*
X204720057Y-196585771D01*
X205148628Y-196585771D02*
X205148628Y-195085771D01*
X205005771Y-195300057D01*
X204862914Y-195442914D01*
X204720057Y-195514342D01*
X206220057Y-196442914D02*
X206291485Y-196514342D01*
X206220057Y-196585771D01*
X206148628Y-196514342D01*
X206220057Y-196442914D01*
X206220057Y-196585771D01*
X207720057Y-196585771D02*
X206862914Y-196585771D01*
X207291485Y-196585771D02*
X207291485Y-195085771D01*
X207148628Y-195300057D01*
X207005771Y-195442914D01*
X206862914Y-195514342D01*
X208291485Y-195228628D02*
X208362914Y-195157200D01*
X208505771Y-195085771D01*
X208862914Y-195085771D01*
X209005771Y-195157200D01*
X209077200Y-195228628D01*
X209148628Y-195371485D01*
X209148628Y-195514342D01*
X209077200Y-195728628D01*
X208220057Y-196585771D01*
X209148628Y-196585771D01*
X209648628Y-197157200D02*
X209720057Y-197085771D01*
X209862914Y-196871485D01*
X209934342Y-196728628D01*
X210005771Y-196514342D01*
X210077200Y-196157200D01*
X210077200Y-195871485D01*
X210005771Y-195514342D01*
X209934342Y-195300057D01*
X209862914Y-195157200D01*
X209720057Y-194942914D01*
X209648628Y-194871485D01*
X210791485Y-196014342D02*
X211934342Y-196014342D01*
X213434342Y-196585771D02*
X212577200Y-196585771D01*
X213005771Y-196585771D02*
X213005771Y-195085771D01*
X212862914Y-195300057D01*
X212720057Y-195442914D01*
X212577200Y-195514342D01*
D10*
D11*
X177002200Y-191507200D02*
X285002200Y-191507200D01*
D10*
D12*
X264411485Y-193785771D02*
X263911485Y-193071485D01*
X263554342Y-193785771D02*
X263554342Y-192285771D01*
X264125771Y-192285771D01*
X264268628Y-192357200D01*
X264340057Y-192428628D01*
X264411485Y-192571485D01*
X264411485Y-192785771D01*
X264340057Y-192928628D01*
X264268628Y-193000057D01*
X264125771Y-193071485D01*
X263554342Y-193071485D01*
X265625771Y-193714342D02*
X265482914Y-193785771D01*
X265197200Y-193785771D01*
X265054342Y-193714342D01*
X264982914Y-193571485D01*
X264982914Y-193000057D01*
X265054342Y-192857200D01*
X265197200Y-192785771D01*
X265482914Y-192785771D01*
X265625771Y-192857200D01*
X265697200Y-193000057D01*
X265697200Y-193142914D01*
X264982914Y-193285771D01*
X266197200Y-192785771D02*
X266554342Y-193785771D01*
X266911485Y-192785771D01*
X267482914Y-193642914D02*
X267554342Y-193714342D01*
X267482914Y-193785771D01*
X267411485Y-193714342D01*
X267482914Y-193642914D01*
X267482914Y-193785771D01*
X267482914Y-192857200D02*
X267554342Y-192928628D01*
X267482914Y-193000057D01*
X267411485Y-192928628D01*
X267482914Y-192857200D01*
X267482914Y-193000057D01*
D10*
D11*
X178362914Y-193714342D02*
X178577200Y-193785771D01*
X178934342Y-193785771D01*
X179077200Y-193714342D01*
X179148628Y-193642914D01*
X179220057Y-193500057D01*
X179220057Y-193357200D01*
X179148628Y-193214342D01*
X179077200Y-193142914D01*
X178934342Y-193071485D01*
X178648628Y-193000057D01*
X178505771Y-192928628D01*
X178434342Y-192857200D01*
X178362914Y-192714342D01*
X178362914Y-192571485D01*
X178434342Y-192428628D01*
X178505771Y-192357200D01*
X178648628Y-192285771D01*
X179005771Y-192285771D01*
X179220057Y-192357200D01*
X179862914Y-193785771D02*
X179862914Y-192785771D01*
X179862914Y-192285771D02*
X179791485Y-192357200D01*
X179862914Y-192428628D01*
X179934342Y-192357200D01*
X179862914Y-192285771D01*
X179862914Y-192428628D01*
X180434342Y-192785771D02*
X181220057Y-192785771D01*
X180434342Y-193785771D01*
X181220057Y-193785771D01*
X182362914Y-193714342D02*
X182220057Y-193785771D01*
X181934342Y-193785771D01*
X181791485Y-193714342D01*
X181720057Y-193571485D01*
X181720057Y-193000057D01*
X181791485Y-192857200D01*
X181934342Y-192785771D01*
X182220057Y-192785771D01*
X182362914Y-192857200D01*
X182434342Y-193000057D01*
X182434342Y-193142914D01*
X181720057Y-193285771D01*
X183077200Y-193642914D02*
X183148628Y-193714342D01*
X183077200Y-193785771D01*
X183005771Y-193714342D01*
X183077200Y-193642914D01*
X183077200Y-193785771D01*
X183077200Y-192857200D02*
X183148628Y-192928628D01*
X183077200Y-193000057D01*
X183005771Y-192928628D01*
X183077200Y-192857200D01*
X183077200Y-193000057D01*
X184862914Y-193357200D02*
X185577200Y-193357200D01*
X184720057Y-193785771D02*
X185220057Y-192285771D01*
X185720057Y-193785771D01*
X186862914Y-192785771D02*
X186862914Y-193785771D01*
X186505771Y-192214342D02*
X186148628Y-193285771D01*
X187077200Y-193285771D01*
D10*
D11*
X263434342Y-196585771D02*
X263434342Y-195085771D01*
X264791485Y-196585771D02*
X264791485Y-195085771D01*
X264791485Y-196514342D02*
X264648628Y-196585771D01*
X264362914Y-196585771D01*
X264220057Y-196514342D01*
X264148628Y-196442914D01*
X264077200Y-196300057D01*
X264077200Y-195871485D01*
X264148628Y-195728628D01*
X264220057Y-195657200D01*
X264362914Y-195585771D01*
X264648628Y-195585771D01*
X264791485Y-195657200D01*
X265505771Y-196442914D02*
X265577200Y-196514342D01*
X265505771Y-196585771D01*
X265434342Y-196514342D01*
X265505771Y-196442914D01*
X265505771Y-196585771D01*
X265505771Y-195657200D02*
X265577200Y-195728628D01*
X265505771Y-195800057D01*
X265434342Y-195728628D01*
X265505771Y-195657200D01*
X265505771Y-195800057D01*
X268148628Y-196585771D02*
X267291485Y-196585771D01*
X267720057Y-196585771D02*
X267720057Y-195085771D01*
X267577200Y-195300057D01*
X267434342Y-195442914D01*
X267291485Y-195514342D01*
X269862914Y-195014342D02*
X268577200Y-196942914D01*
X271148628Y-196585771D02*
X270291485Y-196585771D01*
X270720057Y-196585771D02*
X270720057Y-195085771D01*
X270577200Y-195300057D01*
X270434342Y-195442914D01*
X270291485Y-195514342D01*
D10*
D11*
X177002200Y-187507200D02*
X285002200Y-187507200D01*
D10*
D13*
X178714580Y-188211961D02*
X179857438Y-188211961D01*
X179036009Y-190211961D02*
X179286009Y-188211961D01*
X180274104Y-190211961D02*
X180440771Y-188878628D01*
X180524104Y-188211961D02*
X180416961Y-188307200D01*
X180500295Y-188402438D01*
X180607438Y-188307200D01*
X180524104Y-188211961D01*
X180500295Y-188402438D01*
X181107438Y-188878628D02*
X181869342Y-188878628D01*
X181476485Y-188211961D02*
X181262200Y-189926247D01*
X181333628Y-190116723D01*
X181512200Y-190211961D01*
X181702676Y-190211961D01*
X182655057Y-190211961D02*
X182476485Y-190116723D01*
X182405057Y-189926247D01*
X182619342Y-188211961D01*
X184190771Y-190116723D02*
X183988390Y-190211961D01*
X183607438Y-190211961D01*
X183428866Y-190116723D01*
X183357438Y-189926247D01*
X183452676Y-189164342D01*
X183571723Y-188973866D01*
X183774104Y-188878628D01*
X184155057Y-188878628D01*
X184333628Y-188973866D01*
X184405057Y-189164342D01*
X184381247Y-189354819D01*
X183405057Y-189545295D01*
X185155057Y-190021485D02*
X185238390Y-190116723D01*
X185131247Y-190211961D01*
X185047914Y-190116723D01*
X185155057Y-190021485D01*
X185131247Y-190211961D01*
X185286009Y-188973866D02*
X185369342Y-189069104D01*
X185262200Y-189164342D01*
X185178866Y-189069104D01*
X185286009Y-188973866D01*
X185262200Y-189164342D01*
D10*
D11*
X178934342Y-185600057D02*
X178434342Y-185600057D01*
X178434342Y-186385771D02*
X178434342Y-184885771D01*
X179148628Y-184885771D01*
X179720057Y-186385771D02*
X179720057Y-185385771D01*
X179720057Y-184885771D02*
X179648628Y-184957200D01*
X179720057Y-185028628D01*
X179791485Y-184957200D01*
X179720057Y-184885771D01*
X179720057Y-185028628D01*
X180648628Y-186385771D02*
X180505771Y-186314342D01*
X180434342Y-186171485D01*
X180434342Y-184885771D01*
X181791485Y-186314342D02*
X181648628Y-186385771D01*
X181362914Y-186385771D01*
X181220057Y-186314342D01*
X181148628Y-186171485D01*
X181148628Y-185600057D01*
X181220057Y-185457200D01*
X181362914Y-185385771D01*
X181648628Y-185385771D01*
X181791485Y-185457200D01*
X181862914Y-185600057D01*
X181862914Y-185742914D01*
X181148628Y-185885771D01*
X182505771Y-186242914D02*
X182577200Y-186314342D01*
X182505771Y-186385771D01*
X182434342Y-186314342D01*
X182505771Y-186242914D01*
X182505771Y-186385771D01*
X182505771Y-185457200D02*
X182577200Y-185528628D01*
X182505771Y-185600057D01*
X182434342Y-185528628D01*
X182505771Y-185457200D01*
X182505771Y-185600057D01*
X184291485Y-186314342D02*
X184434342Y-186385771D01*
X184720057Y-186385771D01*
X184862914Y-186314342D01*
X184934342Y-186171485D01*
X184934342Y-186100057D01*
X184862914Y-185957200D01*
X184720057Y-185885771D01*
X184505771Y-185885771D01*
X184362914Y-185814342D01*
X184291485Y-185671485D01*
X184291485Y-185600057D01*
X184362914Y-185457200D01*
X184505771Y-185385771D01*
X184720057Y-185385771D01*
X184862914Y-185457200D01*
X186220057Y-186385771D02*
X186220057Y-185600057D01*
X186148628Y-185457200D01*
X186005771Y-185385771D01*
X185720057Y-185385771D01*
X185577200Y-185457200D01*
X186220057Y-186314342D02*
X186077200Y-186385771D01*
X185720057Y-186385771D01*
X185577200Y-186314342D01*
X185505771Y-186171485D01*
X185505771Y-186028628D01*
X185577200Y-185885771D01*
X185720057Y-185814342D01*
X186077200Y-185814342D01*
X186220057Y-185742914D01*
X187577200Y-185385771D02*
X187577200Y-186600057D01*
X187505771Y-186742914D01*
X187434342Y-186814342D01*
X187291485Y-186885771D01*
X187077200Y-186885771D01*
X186934342Y-186814342D01*
X187577200Y-186314342D02*
X187434342Y-186385771D01*
X187148628Y-186385771D01*
X187005771Y-186314342D01*
X186934342Y-186242914D01*
X186862914Y-186100057D01*
X186862914Y-185671485D01*
X186934342Y-185528628D01*
X187005771Y-185457200D01*
X187148628Y-185385771D01*
X187434342Y-185385771D01*
X187577200Y-185457200D01*
X188291485Y-186385771D02*
X188291485Y-185385771D01*
X188291485Y-184885771D02*
X188220057Y-184957200D01*
X188291485Y-185028628D01*
X188362914Y-184957200D01*
X188291485Y-184885771D01*
X188291485Y-185028628D01*
X188791485Y-185385771D02*
X189362914Y-185385771D01*
X189005771Y-184885771D02*
X189005771Y-186171485D01*
X189077200Y-186314342D01*
X189220057Y-186385771D01*
X189362914Y-186385771D01*
X189648628Y-185385771D02*
X190220057Y-185385771D01*
X189862914Y-184885771D02*
X189862914Y-186171485D01*
X189934342Y-186314342D01*
X190077200Y-186385771D01*
X190220057Y-186385771D01*
X191362914Y-186385771D02*
X191362914Y-185600057D01*
X191291485Y-185457200D01*
X191148628Y-185385771D01*
X190862914Y-185385771D01*
X190720057Y-185457200D01*
X191362914Y-186314342D02*
X191220057Y-186385771D01*
X190862914Y-186385771D01*
X190720057Y-186314342D01*
X190648628Y-186171485D01*
X190648628Y-186028628D01*
X190720057Y-185885771D01*
X190862914Y-185814342D01*
X191220057Y-185814342D01*
X191362914Y-185742914D01*
X192077200Y-185814342D02*
X193220057Y-185814342D01*
X193862914Y-186314342D02*
X194005771Y-186385771D01*
X194291485Y-186385771D01*
X194434342Y-186314342D01*
X194505771Y-186171485D01*
X194505771Y-186100057D01*
X194434342Y-185957200D01*
X194291485Y-185885771D01*
X194077200Y-185885771D01*
X193934342Y-185814342D01*
X193862914Y-185671485D01*
X193862914Y-185600057D01*
X193934342Y-185457200D01*
X194077200Y-185385771D01*
X194291485Y-185385771D01*
X194434342Y-185457200D01*
X195148628Y-186385771D02*
X195148628Y-184885771D01*
X195791485Y-186385771D02*
X195791485Y-185600057D01*
X195720057Y-185457200D01*
X195577200Y-185385771D01*
X195362914Y-185385771D01*
X195220057Y-185457200D01*
X195148628Y-185528628D01*
X196505771Y-186385771D02*
X196505771Y-185385771D01*
X196505771Y-184885771D02*
X196434342Y-184957200D01*
X196505771Y-185028628D01*
X196577200Y-184957200D01*
X196505771Y-184885771D01*
X196505771Y-185028628D01*
X197791485Y-186314342D02*
X197648628Y-186385771D01*
X197362914Y-186385771D01*
X197220057Y-186314342D01*
X197148628Y-186171485D01*
X197148628Y-185600057D01*
X197220057Y-185457200D01*
X197362914Y-185385771D01*
X197648628Y-185385771D01*
X197791485Y-185457200D01*
X197862914Y-185600057D01*
X197862914Y-185742914D01*
X197148628Y-185885771D01*
X198720057Y-186385771D02*
X198577200Y-186314342D01*
X198505771Y-186171485D01*
X198505771Y-184885771D01*
X199934342Y-186385771D02*
X199934342Y-184885771D01*
X199934342Y-186314342D02*
X199791485Y-186385771D01*
X199505771Y-186385771D01*
X199362914Y-186314342D01*
X199291485Y-186242914D01*
X199220057Y-186100057D01*
X199220057Y-185671485D01*
X199291485Y-185528628D01*
X199362914Y-185457200D01*
X199505771Y-185385771D01*
X199791485Y-185385771D01*
X199934342Y-185457200D01*
X200648628Y-186242914D02*
X200720057Y-186314342D01*
X200648628Y-186385771D01*
X200577200Y-186314342D01*
X200648628Y-186242914D01*
X200648628Y-186385771D01*
X201362914Y-186385771D02*
X201362914Y-184885771D01*
X201505771Y-185814342D02*
X201934342Y-186385771D01*
X201934342Y-185385771D02*
X201362914Y-185957200D01*
X202577200Y-186385771D02*
X202577200Y-185385771D01*
X202577200Y-184885771D02*
X202505771Y-184957200D01*
X202577200Y-185028628D01*
X202648628Y-184957200D01*
X202577200Y-184885771D01*
X202577200Y-185028628D01*
X203934342Y-186314342D02*
X203791485Y-186385771D01*
X203505771Y-186385771D01*
X203362914Y-186314342D01*
X203291485Y-186242914D01*
X203220057Y-186100057D01*
X203220057Y-185671485D01*
X203291485Y-185528628D01*
X203362914Y-185457200D01*
X203505771Y-185385771D01*
X203791485Y-185385771D01*
X203934342Y-185457200D01*
X205220057Y-186385771D02*
X205220057Y-185600057D01*
X205148628Y-185457200D01*
X205005771Y-185385771D01*
X204720057Y-185385771D01*
X204577200Y-185457200D01*
X205220057Y-186314342D02*
X205077200Y-186385771D01*
X204720057Y-186385771D01*
X204577200Y-186314342D01*
X204505771Y-186171485D01*
X204505771Y-186028628D01*
X204577200Y-185885771D01*
X204720057Y-185814342D01*
X205077200Y-185814342D01*
X205220057Y-185742914D01*
X206577200Y-186385771D02*
X206577200Y-184885771D01*
X206577200Y-186314342D02*
X206434342Y-186385771D01*
X206148628Y-186385771D01*
X206005771Y-186314342D01*
X205934342Y-186242914D01*
X205862914Y-186100057D01*
X205862914Y-185671485D01*
X205934342Y-185528628D01*
X206005771Y-185457200D01*
X206148628Y-185385771D01*
X206434342Y-185385771D01*
X206577200Y-185457200D01*
X206934342Y-186528628D02*
X208077200Y-186528628D01*
X208434342Y-185385771D02*
X208434342Y-186885771D01*
X208434342Y-185457200D02*
X208577200Y-185385771D01*
X208862914Y-185385771D01*
X209005771Y-185457200D01*
X209077200Y-185528628D01*
X209148628Y-185671485D01*
X209148628Y-186100057D01*
X209077200Y-186242914D01*
X209005771Y-186314342D01*
X208862914Y-186385771D01*
X208577200Y-186385771D01*
X208434342Y-186314342D01*
X210434342Y-186314342D02*
X210291485Y-186385771D01*
X210005771Y-186385771D01*
X209862914Y-186314342D01*
X209791485Y-186242914D01*
X209720057Y-186100057D01*
X209720057Y-185671485D01*
X209791485Y-185528628D01*
X209862914Y-185457200D01*
X210005771Y-185385771D01*
X210291485Y-185385771D01*
X210434342Y-185457200D01*
X211077200Y-186385771D02*
X211077200Y-184885771D01*
X211077200Y-185457200D02*
X211220057Y-185385771D01*
X211505771Y-185385771D01*
X211648628Y-185457200D01*
X211720057Y-185528628D01*
X211791485Y-185671485D01*
X211791485Y-186100057D01*
X211720057Y-186242914D01*
X211648628Y-186314342D01*
X211505771Y-186385771D01*
X211220057Y-186385771D01*
X211077200Y-186314342D01*
D10*
D11*
X177002200Y-181507200D02*
X285002200Y-181507200D01*
D10*
D11*
X178362914Y-183614342D02*
X178577200Y-183685771D01*
X178934342Y-183685771D01*
X179077200Y-183614342D01*
X179148628Y-183542914D01*
X179220057Y-183400057D01*
X179220057Y-183257200D01*
X179148628Y-183114342D01*
X179077200Y-183042914D01*
X178934342Y-182971485D01*
X178648628Y-182900057D01*
X178505771Y-182828628D01*
X178434342Y-182757200D01*
X178362914Y-182614342D01*
X178362914Y-182471485D01*
X178434342Y-182328628D01*
X178505771Y-182257200D01*
X178648628Y-182185771D01*
X179005771Y-182185771D01*
X179220057Y-182257200D01*
X179862914Y-183685771D02*
X179862914Y-182185771D01*
X180505771Y-183685771D02*
X180505771Y-182900057D01*
X180434342Y-182757200D01*
X180291485Y-182685771D01*
X180077200Y-182685771D01*
X179934342Y-182757200D01*
X179862914Y-182828628D01*
X181791485Y-183614342D02*
X181648628Y-183685771D01*
X181362914Y-183685771D01*
X181220057Y-183614342D01*
X181148628Y-183471485D01*
X181148628Y-182900057D01*
X181220057Y-182757200D01*
X181362914Y-182685771D01*
X181648628Y-182685771D01*
X181791485Y-182757200D01*
X181862914Y-182900057D01*
X181862914Y-183042914D01*
X181148628Y-183185771D01*
X183077200Y-183614342D02*
X182934342Y-183685771D01*
X182648628Y-183685771D01*
X182505771Y-183614342D01*
X182434342Y-183471485D01*
X182434342Y-182900057D01*
X182505771Y-182757200D01*
X182648628Y-182685771D01*
X182934342Y-182685771D01*
X183077200Y-182757200D01*
X183148628Y-182900057D01*
X183148628Y-183042914D01*
X182434342Y-183185771D01*
X183577200Y-182685771D02*
X184148628Y-182685771D01*
X183791485Y-182185771D02*
X183791485Y-183471485D01*
X183862914Y-183614342D01*
X184005771Y-183685771D01*
X184148628Y-183685771D01*
X184648628Y-183542914D02*
X184720057Y-183614342D01*
X184648628Y-183685771D01*
X184577200Y-183614342D01*
X184648628Y-183542914D01*
X184648628Y-183685771D01*
X184648628Y-182757200D02*
X184720057Y-182828628D01*
X184648628Y-182900057D01*
X184577200Y-182828628D01*
X184648628Y-182757200D01*
X184648628Y-182900057D01*
D10*
D11*
X197002200Y-191507200D02*
X197002200Y-194507200D01*
D10*
D11*
X261002200Y-191507200D02*
X261002200Y-198007200D01*
X119165333Y-150430666D02*
X119165333Y-149964000D01*
X119165333Y-150097333D02*
X119198666Y-150030666D01*
X119232000Y-149997333D01*
X119298666Y-149964000D01*
X119365333Y-149964000D01*
X119865333Y-150397333D02*
X119798666Y-150430666D01*
X119665333Y-150430666D01*
X119598666Y-150397333D01*
X119565333Y-150330666D01*
X119565333Y-150064000D01*
X119598666Y-149997333D01*
X119665333Y-149964000D01*
X119798666Y-149964000D01*
X119865333Y-149997333D01*
X119898666Y-150064000D01*
X119898666Y-150130666D01*
X119565333Y-150197333D01*
X120132000Y-149964000D02*
X120298666Y-150430666D01*
X120465333Y-149964000D01*
X120865333Y-149730666D02*
X120932000Y-149730666D01*
X120998666Y-149764000D01*
X121032000Y-149797333D01*
X121065333Y-149864000D01*
X121098666Y-149997333D01*
X121098666Y-150164000D01*
X121065333Y-150297333D01*
X121032000Y-150364000D01*
X120998666Y-150397333D01*
X120932000Y-150430666D01*
X120865333Y-150430666D01*
X120798666Y-150397333D01*
X120765333Y-150364000D01*
X120732000Y-150297333D01*
X120698666Y-150164000D01*
X120698666Y-149997333D01*
X120732000Y-149864000D01*
X120765333Y-149797333D01*
X120798666Y-149764000D01*
X120865333Y-149730666D01*
X121398666Y-150364000D02*
X121432000Y-150397333D01*
X121398666Y-150430666D01*
X121365333Y-150397333D01*
X121398666Y-150364000D01*
X121398666Y-150430666D01*
X122065333Y-149730666D02*
X121732000Y-149730666D01*
X121698666Y-150064000D01*
X121732000Y-150030666D01*
X121798666Y-149997333D01*
X121965333Y-149997333D01*
X122032000Y-150030666D01*
X122065333Y-150064000D01*
X122098666Y-150130666D01*
X122098666Y-150297333D01*
X122065333Y-150364000D01*
X122032000Y-150397333D01*
X121965333Y-150430666D01*
X121798666Y-150430666D01*
X121732000Y-150397333D01*
X121698666Y-150364000D01*
X123132000Y-150697333D02*
X123098666Y-150664000D01*
X123032000Y-150564000D01*
X122998666Y-150497333D01*
X122965333Y-150397333D01*
X122932000Y-150230666D01*
X122932000Y-150097333D01*
X122965333Y-149930666D01*
X122998666Y-149830666D01*
X123032000Y-149764000D01*
X123098666Y-149664000D01*
X123132000Y-149630666D01*
X123365333Y-149797333D02*
X123398666Y-149764000D01*
X123465333Y-149730666D01*
X123632000Y-149730666D01*
X123698666Y-149764000D01*
X123732000Y-149797333D01*
X123765333Y-149864000D01*
X123765333Y-149930666D01*
X123732000Y-150030666D01*
X123332000Y-150430666D01*
X123765333Y-150430666D01*
X124198666Y-149730666D02*
X124265333Y-149730666D01*
X124332000Y-149764000D01*
X124365333Y-149797333D01*
X124398666Y-149864000D01*
X124432000Y-149997333D01*
X124432000Y-150164000D01*
X124398666Y-150297333D01*
X124365333Y-150364000D01*
X124332000Y-150397333D01*
X124265333Y-150430666D01*
X124198666Y-150430666D01*
X124132000Y-150397333D01*
X124098666Y-150364000D01*
X124065333Y-150297333D01*
X124032000Y-150164000D01*
X124032000Y-149997333D01*
X124065333Y-149864000D01*
X124098666Y-149797333D01*
X124132000Y-149764000D01*
X124198666Y-149730666D01*
X124698666Y-149797333D02*
X124732000Y-149764000D01*
X124798666Y-149730666D01*
X124965333Y-149730666D01*
X125032000Y-149764000D01*
X125065333Y-149797333D01*
X125098666Y-149864000D01*
X125098666Y-149930666D01*
X125065333Y-150030666D01*
X124665333Y-150430666D01*
X125098666Y-150430666D01*
X125765333Y-150430666D02*
X125365333Y-150430666D01*
X125565333Y-150430666D02*
X125565333Y-149730666D01*
X125498666Y-149830666D01*
X125432000Y-149897333D01*
X125365333Y-149930666D01*
X125998666Y-150697333D02*
X126032000Y-150664000D01*
X126098666Y-150564000D01*
X126132000Y-150497333D01*
X126165333Y-150397333D01*
X126198666Y-150230666D01*
X126198666Y-150097333D01*
X126165333Y-149930666D01*
X126132000Y-149830666D01*
X126098666Y-149764000D01*
X126032000Y-149664000D01*
X125998666Y-149630666D01*
X124014666Y-68230666D02*
X123314666Y-68230666D01*
X123314666Y-67964000D02*
X123314666Y-67530666D01*
X123581333Y-67764000D01*
X123581333Y-67664000D01*
X123614666Y-67597333D01*
X123648000Y-67564000D01*
X123714666Y-67530666D01*
X123881333Y-67530666D01*
X123948000Y-67564000D01*
X123981333Y-67597333D01*
X124014666Y-67664000D01*
X124014666Y-67864000D01*
X123981333Y-67930666D01*
X123948000Y-67964000D01*
X123381333Y-67264000D02*
X123348000Y-67230666D01*
X123314666Y-67164000D01*
X123314666Y-66997333D01*
X123348000Y-66930666D01*
X123381333Y-66897333D01*
X123448000Y-66864000D01*
X123514666Y-66864000D01*
X123614666Y-66897333D01*
X124014666Y-67297333D01*
X124014666Y-66864000D01*
X124014666Y-70770666D02*
X123314666Y-70770666D01*
X123314666Y-70504000D02*
X123314666Y-70070666D01*
X123581333Y-70304000D01*
X123581333Y-70204000D01*
X123614666Y-70137333D01*
X123648000Y-70104000D01*
X123714666Y-70070666D01*
X123881333Y-70070666D01*
X123948000Y-70104000D01*
X123981333Y-70137333D01*
X124014666Y-70204000D01*
X124014666Y-70404000D01*
X123981333Y-70470666D01*
X123948000Y-70504000D01*
X123314666Y-69837333D02*
X123314666Y-69404000D01*
X123581333Y-69637333D01*
X123581333Y-69537333D01*
X123614666Y-69470666D01*
X123648000Y-69437333D01*
X123714666Y-69404000D01*
X123881333Y-69404000D01*
X123948000Y-69437333D01*
X123981333Y-69470666D01*
X124014666Y-69537333D01*
X124014666Y-69737333D01*
X123981333Y-69804000D01*
X123948000Y-69837333D01*
X139188000Y-69317333D02*
X139221333Y-69350666D01*
X139254666Y-69450666D01*
X139254666Y-69517333D01*
X139221333Y-69617333D01*
X139154666Y-69684000D01*
X139088000Y-69717333D01*
X138954666Y-69750666D01*
X138854666Y-69750666D01*
X138721333Y-69717333D01*
X138654666Y-69684000D01*
X138588000Y-69617333D01*
X138554666Y-69517333D01*
X138554666Y-69450666D01*
X138588000Y-69350666D01*
X138621333Y-69317333D01*
X139254666Y-69017333D02*
X138554666Y-69017333D01*
X138888000Y-69017333D02*
X138888000Y-68617333D01*
X139254666Y-68617333D02*
X138554666Y-68617333D01*
X138621333Y-68317333D02*
X138588000Y-68284000D01*
X138554666Y-68217333D01*
X138554666Y-68050666D01*
X138588000Y-67984000D01*
X138621333Y-67950666D01*
X138688000Y-67917333D01*
X138754666Y-67917333D01*
X138854666Y-67950666D01*
X139254666Y-68350666D01*
X139254666Y-67917333D01*
X139188000Y-71603333D02*
X139221333Y-71636666D01*
X139254666Y-71736666D01*
X139254666Y-71803333D01*
X139221333Y-71903333D01*
X139154666Y-71970000D01*
X139088000Y-72003333D01*
X138954666Y-72036666D01*
X138854666Y-72036666D01*
X138721333Y-72003333D01*
X138654666Y-71970000D01*
X138588000Y-71903333D01*
X138554666Y-71803333D01*
X138554666Y-71736666D01*
X138588000Y-71636666D01*
X138621333Y-71603333D01*
X139254666Y-71303333D02*
X138554666Y-71303333D01*
X138888000Y-71303333D02*
X138888000Y-70903333D01*
X139254666Y-70903333D02*
X138554666Y-70903333D01*
X138554666Y-70636666D02*
X138554666Y-70203333D01*
X138821333Y-70436666D01*
X138821333Y-70336666D01*
X138854666Y-70270000D01*
X138888000Y-70236666D01*
X138954666Y-70203333D01*
X139121333Y-70203333D01*
X139188000Y-70236666D01*
X139221333Y-70270000D01*
X139254666Y-70336666D01*
X139254666Y-70536666D01*
X139221333Y-70603333D01*
X139188000Y-70636666D01*
X132076000Y-68047333D02*
X132109333Y-68080666D01*
X132142666Y-68180666D01*
X132142666Y-68247333D01*
X132109333Y-68347333D01*
X132042666Y-68414000D01*
X131976000Y-68447333D01*
X131842666Y-68480666D01*
X131742666Y-68480666D01*
X131609333Y-68447333D01*
X131542666Y-68414000D01*
X131476000Y-68347333D01*
X131442666Y-68247333D01*
X131442666Y-68180666D01*
X131476000Y-68080666D01*
X131509333Y-68047333D01*
X132142666Y-67747333D02*
X131442666Y-67747333D01*
X131776000Y-67747333D02*
X131776000Y-67347333D01*
X132142666Y-67347333D02*
X131442666Y-67347333D01*
X131442666Y-66880666D02*
X131442666Y-66814000D01*
X131476000Y-66747333D01*
X131509333Y-66714000D01*
X131576000Y-66680666D01*
X131709333Y-66647333D01*
X131876000Y-66647333D01*
X132009333Y-66680666D01*
X132076000Y-66714000D01*
X132109333Y-66747333D01*
X132142666Y-66814000D01*
X132142666Y-66880666D01*
X132109333Y-66947333D01*
X132076000Y-66980666D01*
X132009333Y-67014000D01*
X131876000Y-67047333D01*
X131709333Y-67047333D01*
X131576000Y-67014000D01*
X131509333Y-66980666D01*
X131476000Y-66947333D01*
X131442666Y-66880666D01*
X132076000Y-70587333D02*
X132109333Y-70620666D01*
X132142666Y-70720666D01*
X132142666Y-70787333D01*
X132109333Y-70887333D01*
X132042666Y-70954000D01*
X131976000Y-70987333D01*
X131842666Y-71020666D01*
X131742666Y-71020666D01*
X131609333Y-70987333D01*
X131542666Y-70954000D01*
X131476000Y-70887333D01*
X131442666Y-70787333D01*
X131442666Y-70720666D01*
X131476000Y-70620666D01*
X131509333Y-70587333D01*
X132142666Y-70287333D02*
X131442666Y-70287333D01*
X131776000Y-70287333D02*
X131776000Y-69887333D01*
X132142666Y-69887333D02*
X131442666Y-69887333D01*
X132142666Y-69187333D02*
X132142666Y-69587333D01*
X132142666Y-69387333D02*
X131442666Y-69387333D01*
X131542666Y-69454000D01*
X131609333Y-69520666D01*
X131642666Y-69587333D01*
X131476000Y-65557333D02*
X131442666Y-65624000D01*
X131442666Y-65724000D01*
X131476000Y-65824000D01*
X131542666Y-65890666D01*
X131609333Y-65924000D01*
X131742666Y-65957333D01*
X131842666Y-65957333D01*
X131976000Y-65924000D01*
X132042666Y-65890666D01*
X132109333Y-65824000D01*
X132142666Y-65724000D01*
X132142666Y-65657333D01*
X132109333Y-65557333D01*
X132076000Y-65524000D01*
X131842666Y-65524000D01*
X131842666Y-65657333D01*
X132142666Y-65224000D02*
X131442666Y-65224000D01*
X132142666Y-64824000D01*
X131442666Y-64824000D01*
X132142666Y-64490666D02*
X131442666Y-64490666D01*
X131442666Y-64324000D01*
X131476000Y-64224000D01*
X131542666Y-64157333D01*
X131609333Y-64124000D01*
X131742666Y-64090666D01*
X131842666Y-64090666D01*
X131976000Y-64124000D01*
X132042666Y-64157333D01*
X132109333Y-64224000D01*
X132142666Y-64324000D01*
X132142666Y-64490666D01*
X131442666Y-63417333D02*
X132142666Y-63184000D01*
X131442666Y-62950666D01*
X132142666Y-62717333D02*
X131442666Y-62717333D01*
X131442666Y-62550666D01*
X131476000Y-62450666D01*
X131542666Y-62384000D01*
X131609333Y-62350666D01*
X131742666Y-62317333D01*
X131842666Y-62317333D01*
X131976000Y-62350666D01*
X132042666Y-62384000D01*
X132109333Y-62450666D01*
X132142666Y-62550666D01*
X132142666Y-62717333D01*
X132142666Y-62017333D02*
X131442666Y-62017333D01*
X131442666Y-61850666D01*
X131476000Y-61750666D01*
X131542666Y-61684000D01*
X131609333Y-61650666D01*
X131742666Y-61617333D01*
X131842666Y-61617333D01*
X131976000Y-61650666D01*
X132042666Y-61684000D01*
X132109333Y-61750666D01*
X132142666Y-61850666D01*
X132142666Y-62017333D01*
X135676666Y-72594000D02*
X135910000Y-72594000D01*
X136010000Y-72960666D02*
X135676666Y-72960666D01*
X135676666Y-72260666D01*
X136010000Y-72260666D01*
X136276666Y-72760666D02*
X136610000Y-72760666D01*
X136210000Y-72960666D02*
X136443333Y-72260666D01*
X136676666Y-72960666D01*
X136910000Y-72960666D02*
X136910000Y-72260666D01*
X137076666Y-72260666D01*
X137176666Y-72294000D01*
X137243333Y-72360666D01*
X137276666Y-72427333D01*
X137310000Y-72560666D01*
X137310000Y-72660666D01*
X137276666Y-72794000D01*
X137243333Y-72860666D01*
X137176666Y-72927333D01*
X137076666Y-72960666D01*
X136910000Y-72960666D01*
X138010000Y-72894000D02*
X137976666Y-72927333D01*
X137876666Y-72960666D01*
X137810000Y-72960666D01*
X137710000Y-72927333D01*
X137643333Y-72860666D01*
X137610000Y-72794000D01*
X137576666Y-72660666D01*
X137576666Y-72560666D01*
X137610000Y-72427333D01*
X137643333Y-72360666D01*
X137710000Y-72294000D01*
X137810000Y-72260666D01*
X137876666Y-72260666D01*
X137976666Y-72294000D01*
X138010000Y-72327333D01*
X138276666Y-72327333D02*
X138310000Y-72294000D01*
X138376666Y-72260666D01*
X138543333Y-72260666D01*
X138610000Y-72294000D01*
X138643333Y-72327333D01*
X138676666Y-72394000D01*
X138676666Y-72460666D01*
X138643333Y-72560666D01*
X138243333Y-72960666D01*
X138676666Y-72960666D01*
X132374666Y-72594000D02*
X132608000Y-72594000D01*
X132708000Y-72960666D02*
X132374666Y-72960666D01*
X132374666Y-72260666D01*
X132708000Y-72260666D01*
X132974666Y-72760666D02*
X133308000Y-72760666D01*
X132908000Y-72960666D02*
X133141333Y-72260666D01*
X133374666Y-72960666D01*
X133608000Y-72960666D02*
X133608000Y-72260666D01*
X133774666Y-72260666D01*
X133874666Y-72294000D01*
X133941333Y-72360666D01*
X133974666Y-72427333D01*
X134008000Y-72560666D01*
X134008000Y-72660666D01*
X133974666Y-72794000D01*
X133941333Y-72860666D01*
X133874666Y-72927333D01*
X133774666Y-72960666D01*
X133608000Y-72960666D01*
X134708000Y-72894000D02*
X134674666Y-72927333D01*
X134574666Y-72960666D01*
X134508000Y-72960666D01*
X134408000Y-72927333D01*
X134341333Y-72860666D01*
X134308000Y-72794000D01*
X134274666Y-72660666D01*
X134274666Y-72560666D01*
X134308000Y-72427333D01*
X134341333Y-72360666D01*
X134408000Y-72294000D01*
X134508000Y-72260666D01*
X134574666Y-72260666D01*
X134674666Y-72294000D01*
X134708000Y-72327333D01*
X135374666Y-72960666D02*
X134974666Y-72960666D01*
X135174666Y-72960666D02*
X135174666Y-72260666D01*
X135108000Y-72360666D01*
X135041333Y-72427333D01*
X134974666Y-72460666D01*
X128632000Y-72960666D02*
X128398666Y-72627333D01*
X128232000Y-72960666D02*
X128232000Y-72260666D01*
X128498666Y-72260666D01*
X128565333Y-72294000D01*
X128598666Y-72327333D01*
X128632000Y-72394000D01*
X128632000Y-72494000D01*
X128598666Y-72560666D01*
X128565333Y-72594000D01*
X128498666Y-72627333D01*
X128232000Y-72627333D01*
X128832000Y-72260666D02*
X129232000Y-72260666D01*
X129032000Y-72960666D02*
X129032000Y-72260666D01*
X129465333Y-72960666D02*
X129465333Y-72260666D01*
X129632000Y-72260666D01*
X129732000Y-72294000D01*
X129798666Y-72360666D01*
X129832000Y-72427333D01*
X129865333Y-72560666D01*
X129865333Y-72660666D01*
X129832000Y-72794000D01*
X129798666Y-72860666D01*
X129732000Y-72927333D01*
X129632000Y-72960666D01*
X129465333Y-72960666D01*
X124984000Y-72960666D02*
X124984000Y-72260666D01*
X125284000Y-72760666D02*
X125617333Y-72760666D01*
X125217333Y-72960666D02*
X125450666Y-72260666D01*
X125684000Y-72960666D01*
X125917333Y-72960666D02*
X125917333Y-72260666D01*
X126084000Y-72260666D01*
X126184000Y-72294000D01*
X126250666Y-72360666D01*
X126284000Y-72427333D01*
X126317333Y-72560666D01*
X126317333Y-72660666D01*
X126284000Y-72794000D01*
X126250666Y-72860666D01*
X126184000Y-72927333D01*
X126084000Y-72960666D01*
X125917333Y-72960666D01*
X127017333Y-72894000D02*
X126984000Y-72927333D01*
X126884000Y-72960666D01*
X126817333Y-72960666D01*
X126717333Y-72927333D01*
X126650666Y-72860666D01*
X126617333Y-72794000D01*
X126584000Y-72660666D01*
X126584000Y-72560666D01*
X126617333Y-72427333D01*
X126650666Y-72360666D01*
X126717333Y-72294000D01*
X126817333Y-72260666D01*
X126884000Y-72260666D01*
X126984000Y-72294000D01*
X127017333Y-72327333D01*
X114890666Y-77594666D02*
X115124000Y-78294666D01*
X115357333Y-77594666D01*
X115590666Y-78294666D02*
X115590666Y-77594666D01*
X115757333Y-77594666D01*
X115857333Y-77628000D01*
X115924000Y-77694666D01*
X115957333Y-77761333D01*
X115990666Y-77894666D01*
X115990666Y-77994666D01*
X115957333Y-78128000D01*
X115924000Y-78194666D01*
X115857333Y-78261333D01*
X115757333Y-78294666D01*
X115590666Y-78294666D01*
X116290666Y-78294666D02*
X116290666Y-77594666D01*
X116457333Y-77594666D01*
X116557333Y-77628000D01*
X116624000Y-77694666D01*
X116657333Y-77761333D01*
X116690666Y-77894666D01*
X116690666Y-77994666D01*
X116657333Y-78128000D01*
X116624000Y-78194666D01*
X116557333Y-78261333D01*
X116457333Y-78294666D01*
X116290666Y-78294666D01*
X120266666Y-76879333D02*
X120966666Y-76646000D01*
X120266666Y-76412666D01*
X120966666Y-76179333D02*
X120266666Y-76179333D01*
X120266666Y-76012666D01*
X120300000Y-75912666D01*
X120366666Y-75846000D01*
X120433333Y-75812666D01*
X120566666Y-75779333D01*
X120666666Y-75779333D01*
X120800000Y-75812666D01*
X120866666Y-75846000D01*
X120933333Y-75912666D01*
X120966666Y-76012666D01*
X120966666Y-76179333D01*
X120966666Y-75479333D02*
X120266666Y-75479333D01*
X120266666Y-75312666D01*
X120300000Y-75212666D01*
X120366666Y-75146000D01*
X120433333Y-75112666D01*
X120566666Y-75079333D01*
X120666666Y-75079333D01*
X120800000Y-75112666D01*
X120866666Y-75146000D01*
X120933333Y-75212666D01*
X120966666Y-75312666D01*
X120966666Y-75479333D01*
X117506000Y-76479333D02*
X117472666Y-76546000D01*
X117472666Y-76646000D01*
X117506000Y-76746000D01*
X117572666Y-76812666D01*
X117639333Y-76846000D01*
X117772666Y-76879333D01*
X117872666Y-76879333D01*
X118006000Y-76846000D01*
X118072666Y-76812666D01*
X118139333Y-76746000D01*
X118172666Y-76646000D01*
X118172666Y-76579333D01*
X118139333Y-76479333D01*
X118106000Y-76446000D01*
X117872666Y-76446000D01*
X117872666Y-76579333D01*
X118172666Y-76146000D02*
X117472666Y-76146000D01*
X118172666Y-75746000D01*
X117472666Y-75746000D01*
X118172666Y-75412666D02*
X117472666Y-75412666D01*
X117472666Y-75246000D01*
X117506000Y-75146000D01*
X117572666Y-75079333D01*
X117639333Y-75046000D01*
X117772666Y-75012666D01*
X117872666Y-75012666D01*
X118006000Y-75046000D01*
X118072666Y-75079333D01*
X118139333Y-75146000D01*
X118172666Y-75246000D01*
X118172666Y-75412666D01*
X115290666Y-78898000D02*
X115224000Y-78864666D01*
X115124000Y-78864666D01*
X115024000Y-78898000D01*
X114957333Y-78964666D01*
X114924000Y-79031333D01*
X114890666Y-79164666D01*
X114890666Y-79264666D01*
X114924000Y-79398000D01*
X114957333Y-79464666D01*
X115024000Y-79531333D01*
X115124000Y-79564666D01*
X115190666Y-79564666D01*
X115290666Y-79531333D01*
X115324000Y-79498000D01*
X115324000Y-79264666D01*
X115190666Y-79264666D01*
X115624000Y-79564666D02*
X115624000Y-78864666D01*
X116024000Y-79564666D01*
X116024000Y-78864666D01*
X116357333Y-79564666D02*
X116357333Y-78864666D01*
X116524000Y-78864666D01*
X116624000Y-78898000D01*
X116690666Y-78964666D01*
X116724000Y-79031333D01*
X116757333Y-79164666D01*
X116757333Y-79264666D01*
X116724000Y-79398000D01*
X116690666Y-79464666D01*
X116624000Y-79531333D01*
X116524000Y-79564666D01*
X116357333Y-79564666D01*
X114957333Y-76324666D02*
X115390666Y-76324666D01*
X115157333Y-76591333D01*
X115257333Y-76591333D01*
X115324000Y-76624666D01*
X115357333Y-76658000D01*
X115390666Y-76724666D01*
X115390666Y-76891333D01*
X115357333Y-76958000D01*
X115324000Y-76991333D01*
X115257333Y-77024666D01*
X115057333Y-77024666D01*
X114990666Y-76991333D01*
X114957333Y-76958000D01*
X115590666Y-76324666D02*
X115824000Y-77024666D01*
X116057333Y-76324666D01*
X116224000Y-76324666D02*
X116657333Y-76324666D01*
X116424000Y-76591333D01*
X116524000Y-76591333D01*
X116590666Y-76624666D01*
X116624000Y-76658000D01*
X116657333Y-76724666D01*
X116657333Y-76891333D01*
X116624000Y-76958000D01*
X116590666Y-76991333D01*
X116524000Y-77024666D01*
X116324000Y-77024666D01*
X116257333Y-76991333D01*
X116224000Y-76958000D01*
X115436666Y-75054666D02*
X115103333Y-75054666D01*
X115070000Y-75388000D01*
X115103333Y-75354666D01*
X115170000Y-75321333D01*
X115336666Y-75321333D01*
X115403333Y-75354666D01*
X115436666Y-75388000D01*
X115470000Y-75454666D01*
X115470000Y-75621333D01*
X115436666Y-75688000D01*
X115403333Y-75721333D01*
X115336666Y-75754666D01*
X115170000Y-75754666D01*
X115103333Y-75721333D01*
X115070000Y-75688000D01*
X115670000Y-75054666D02*
X115903333Y-75754666D01*
X116136666Y-75054666D01*
X122047000Y-112141000D02*
X120142000Y-115951000D01*
X121031000Y-116332000D02*
X122047000Y-114046000D01*
X122047000Y-114046000D02*
X123063000Y-116332000D01*
X123063000Y-116332000D02*
X123952000Y-115951000D01*
X123952000Y-115951000D02*
X122047000Y-112141000D01*
X124079000Y-116713000D02*
G75*
G02*
X120015000Y-116713000I-2032000J0D01*
G01*
X123063000Y-116713000D02*
G75*
G02*
X121031000Y-116713000I-1016000J0D01*
G01*
X123063000Y-116713000D02*
X124079000Y-116713000D01*
G36*
X123952000Y-115951000D02*
G01*
X123063000Y-116332000D01*
X122047000Y-114046000D01*
X121031000Y-116332000D01*
X120142000Y-115951000D01*
X122047000Y-112141000D01*
X123952000Y-115951000D01*
G37*
X123952000Y-115951000D02*
X123063000Y-116332000D01*
X122047000Y-114046000D01*
X121031000Y-116332000D01*
X120142000Y-115951000D01*
X122047000Y-112141000D01*
X123952000Y-115951000D01*
G36*
X123850400Y-117665500D02*
G01*
X123215400Y-118376700D01*
X122478800Y-118694200D01*
X121602500Y-118681500D01*
X120738900Y-118275100D01*
X120154700Y-117449600D01*
X120040400Y-116852700D01*
X120053100Y-116763800D01*
X120992900Y-116738400D01*
X121145300Y-117221000D01*
X121551700Y-117652800D01*
X122047000Y-117779800D01*
X122669300Y-117602000D01*
X122961400Y-117182900D01*
X123088400Y-116751100D01*
X124079000Y-116738400D01*
X123850400Y-117665500D01*
G37*
X123850400Y-117665500D02*
X123215400Y-118376700D01*
X122478800Y-118694200D01*
X121602500Y-118681500D01*
X120738900Y-118275100D01*
X120154700Y-117449600D01*
X120040400Y-116852700D01*
X120053100Y-116763800D01*
X120992900Y-116738400D01*
X121145300Y-117221000D01*
X121551700Y-117652800D01*
X122047000Y-117779800D01*
X122669300Y-117602000D01*
X122961400Y-117182900D01*
X123088400Y-116751100D01*
X124079000Y-116738400D01*
X123850400Y-117665500D01*
D12*
X124508238Y-114474523D02*
X124793952Y-114569761D01*
X125270142Y-114569761D01*
X125460619Y-114474523D01*
X125555857Y-114379285D01*
X125651095Y-114188809D01*
X125651095Y-113998333D01*
X125555857Y-113807857D01*
X125460619Y-113712619D01*
X125270142Y-113617380D01*
X124889190Y-113522142D01*
X124698714Y-113426904D01*
X124603476Y-113331666D01*
X124508238Y-113141190D01*
X124508238Y-112950714D01*
X124603476Y-112760238D01*
X124698714Y-112665000D01*
X124889190Y-112569761D01*
X125365380Y-112569761D01*
X125651095Y-112665000D01*
X127365380Y-114569761D02*
X127365380Y-113522142D01*
X127270142Y-113331666D01*
X127079666Y-113236428D01*
X126698714Y-113236428D01*
X126508238Y-113331666D01*
X127365380Y-114474523D02*
X127174904Y-114569761D01*
X126698714Y-114569761D01*
X126508238Y-114474523D01*
X126413000Y-114284047D01*
X126413000Y-114093571D01*
X126508238Y-113903095D01*
X126698714Y-113807857D01*
X127174904Y-113807857D01*
X127365380Y-113712619D01*
X129174904Y-113236428D02*
X129174904Y-114855476D01*
X129079666Y-115045952D01*
X128984428Y-115141190D01*
X128793952Y-115236428D01*
X128508238Y-115236428D01*
X128317761Y-115141190D01*
X129174904Y-114474523D02*
X128984428Y-114569761D01*
X128603476Y-114569761D01*
X128413000Y-114474523D01*
X128317761Y-114379285D01*
X128222523Y-114188809D01*
X128222523Y-113617380D01*
X128317761Y-113426904D01*
X128413000Y-113331666D01*
X128603476Y-113236428D01*
X128984428Y-113236428D01*
X129174904Y-113331666D01*
X130127285Y-114569761D02*
X130127285Y-113236428D01*
X130127285Y-112569761D02*
X130032047Y-112665000D01*
X130127285Y-112760238D01*
X130222523Y-112665000D01*
X130127285Y-112569761D01*
X130127285Y-112760238D01*
X130793952Y-113236428D02*
X131555857Y-113236428D01*
X131079666Y-112569761D02*
X131079666Y-114284047D01*
X131174904Y-114474523D01*
X131365380Y-114569761D01*
X131555857Y-114569761D01*
X131936809Y-113236428D02*
X132698714Y-113236428D01*
X132222523Y-112569761D02*
X132222523Y-114284047D01*
X132317761Y-114474523D01*
X132508238Y-114569761D01*
X132698714Y-114569761D01*
X134222523Y-114569761D02*
X134222523Y-113522142D01*
X134127285Y-113331666D01*
X133936809Y-113236428D01*
X133555857Y-113236428D01*
X133365380Y-113331666D01*
X134222523Y-114474523D02*
X134032047Y-114569761D01*
X133555857Y-114569761D01*
X133365380Y-114474523D01*
X133270142Y-114284047D01*
X133270142Y-114093571D01*
X133365380Y-113903095D01*
X133555857Y-113807857D01*
X134032047Y-113807857D01*
X134222523Y-113712619D01*
D10*
X124540857Y-116045571D02*
X124648000Y-116081285D01*
X124826571Y-116081285D01*
X124898000Y-116045571D01*
X124933714Y-116009857D01*
X124969428Y-115938428D01*
X124969428Y-115867000D01*
X124933714Y-115795571D01*
X124898000Y-115759857D01*
X124826571Y-115724142D01*
X124683714Y-115688428D01*
X124612285Y-115652714D01*
X124576571Y-115617000D01*
X124540857Y-115545571D01*
X124540857Y-115474142D01*
X124576571Y-115402714D01*
X124612285Y-115367000D01*
X124683714Y-115331285D01*
X124862285Y-115331285D01*
X124969428Y-115367000D01*
X125398000Y-116081285D02*
X125326571Y-116045571D01*
X125290857Y-116009857D01*
X125255142Y-115938428D01*
X125255142Y-115724142D01*
X125290857Y-115652714D01*
X125326571Y-115617000D01*
X125398000Y-115581285D01*
X125505142Y-115581285D01*
X125576571Y-115617000D01*
X125612285Y-115652714D01*
X125648000Y-115724142D01*
X125648000Y-115938428D01*
X125612285Y-116009857D01*
X125576571Y-116045571D01*
X125505142Y-116081285D01*
X125398000Y-116081285D01*
X126290857Y-116045571D02*
X126219428Y-116081285D01*
X126076571Y-116081285D01*
X126005142Y-116045571D01*
X125969428Y-116009857D01*
X125933714Y-115938428D01*
X125933714Y-115724142D01*
X125969428Y-115652714D01*
X126005142Y-115617000D01*
X126076571Y-115581285D01*
X126219428Y-115581285D01*
X126290857Y-115617000D01*
X126612285Y-116081285D02*
X126612285Y-115581285D01*
X126612285Y-115331285D02*
X126576571Y-115367000D01*
X126612285Y-115402714D01*
X126648000Y-115367000D01*
X126612285Y-115331285D01*
X126612285Y-115402714D01*
X127290857Y-116081285D02*
X127290857Y-115688428D01*
X127255142Y-115617000D01*
X127183714Y-115581285D01*
X127040857Y-115581285D01*
X126969428Y-115617000D01*
X127290857Y-116045571D02*
X127219428Y-116081285D01*
X127040857Y-116081285D01*
X126969428Y-116045571D01*
X126933714Y-115974142D01*
X126933714Y-115902714D01*
X126969428Y-115831285D01*
X127040857Y-115795571D01*
X127219428Y-115795571D01*
X127290857Y-115759857D01*
X127755142Y-116081285D02*
X127683714Y-116045571D01*
X127648000Y-115974142D01*
X127648000Y-115331285D01*
X128576571Y-115867000D02*
X128933714Y-115867000D01*
X128505142Y-116081285D02*
X128755142Y-115331285D01*
X129005142Y-116081285D01*
X129576571Y-115581285D02*
X129576571Y-116188428D01*
X129540857Y-116259857D01*
X129505142Y-116295571D01*
X129433714Y-116331285D01*
X129326571Y-116331285D01*
X129255142Y-116295571D01*
X129576571Y-116045571D02*
X129505142Y-116081285D01*
X129362285Y-116081285D01*
X129290857Y-116045571D01*
X129255142Y-116009857D01*
X129219428Y-115938428D01*
X129219428Y-115724142D01*
X129255142Y-115652714D01*
X129290857Y-115617000D01*
X129362285Y-115581285D01*
X129505142Y-115581285D01*
X129576571Y-115617000D01*
X129933714Y-116081285D02*
X129933714Y-115581285D01*
X129933714Y-115331285D02*
X129898000Y-115367000D01*
X129933714Y-115402714D01*
X129969428Y-115367000D01*
X129933714Y-115331285D01*
X129933714Y-115402714D01*
X130183714Y-115581285D02*
X130469428Y-115581285D01*
X130290857Y-115331285D02*
X130290857Y-115974142D01*
X130326571Y-116045571D01*
X130398000Y-116081285D01*
X130469428Y-116081285D01*
X131040857Y-116081285D02*
X131040857Y-115688428D01*
X131005142Y-115617000D01*
X130933714Y-115581285D01*
X130790857Y-115581285D01*
X130719428Y-115617000D01*
X131040857Y-116045571D02*
X130969428Y-116081285D01*
X130790857Y-116081285D01*
X130719428Y-116045571D01*
X130683714Y-115974142D01*
X130683714Y-115902714D01*
X130719428Y-115831285D01*
X130790857Y-115795571D01*
X130969428Y-115795571D01*
X131040857Y-115759857D01*
X131290857Y-115581285D02*
X131576571Y-115581285D01*
X131398000Y-115331285D02*
X131398000Y-115974142D01*
X131433714Y-116045571D01*
X131505142Y-116081285D01*
X131576571Y-116081285D01*
X131826571Y-116081285D02*
X131826571Y-115581285D01*
X131826571Y-115331285D02*
X131790857Y-115367000D01*
X131826571Y-115402714D01*
X131862285Y-115367000D01*
X131826571Y-115331285D01*
X131826571Y-115402714D01*
X132290857Y-116081285D02*
X132219428Y-116045571D01*
X132183714Y-116009857D01*
X132148000Y-115938428D01*
X132148000Y-115724142D01*
X132183714Y-115652714D01*
X132219428Y-115617000D01*
X132290857Y-115581285D01*
X132398000Y-115581285D01*
X132469428Y-115617000D01*
X132505142Y-115652714D01*
X132540857Y-115724142D01*
X132540857Y-115938428D01*
X132505142Y-116009857D01*
X132469428Y-116045571D01*
X132398000Y-116081285D01*
X132290857Y-116081285D01*
X132862285Y-115581285D02*
X132862285Y-116081285D01*
X132862285Y-115652714D02*
X132898000Y-115617000D01*
X132969428Y-115581285D01*
X133076571Y-115581285D01*
X133148000Y-115617000D01*
X133183714Y-115688428D01*
X133183714Y-116081285D01*
X124469428Y-116806285D02*
X124755142Y-116806285D01*
X124576571Y-117306285D02*
X124576571Y-116663428D01*
X124612285Y-116592000D01*
X124683714Y-116556285D01*
X124755142Y-116556285D01*
X125112285Y-117306285D02*
X125040857Y-117270571D01*
X125005142Y-117234857D01*
X124969428Y-117163428D01*
X124969428Y-116949142D01*
X125005142Y-116877714D01*
X125040857Y-116842000D01*
X125112285Y-116806285D01*
X125219428Y-116806285D01*
X125290857Y-116842000D01*
X125326571Y-116877714D01*
X125362285Y-116949142D01*
X125362285Y-117163428D01*
X125326571Y-117234857D01*
X125290857Y-117270571D01*
X125219428Y-117306285D01*
X125112285Y-117306285D01*
X125683714Y-117306285D02*
X125683714Y-116806285D01*
X125683714Y-116949142D02*
X125719428Y-116877714D01*
X125755142Y-116842000D01*
X125826571Y-116806285D01*
X125898000Y-116806285D01*
X126612285Y-116556285D02*
X127040857Y-116556285D01*
X126826571Y-117306285D02*
X126826571Y-116556285D01*
X127576571Y-117270571D02*
X127505142Y-117306285D01*
X127362285Y-117306285D01*
X127290857Y-117270571D01*
X127255142Y-117199142D01*
X127255142Y-116913428D01*
X127290857Y-116842000D01*
X127362285Y-116806285D01*
X127505142Y-116806285D01*
X127576571Y-116842000D01*
X127612285Y-116913428D01*
X127612285Y-116984857D01*
X127255142Y-117056285D01*
X127933714Y-117306285D02*
X127933714Y-116806285D01*
X127933714Y-116877714D02*
X127969428Y-116842000D01*
X128040857Y-116806285D01*
X128148000Y-116806285D01*
X128219428Y-116842000D01*
X128255142Y-116913428D01*
X128255142Y-117306285D01*
X128255142Y-116913428D02*
X128290857Y-116842000D01*
X128362285Y-116806285D01*
X128469428Y-116806285D01*
X128540857Y-116842000D01*
X128576571Y-116913428D01*
X128576571Y-117306285D01*
X128933714Y-116806285D02*
X128933714Y-117556285D01*
X128933714Y-116842000D02*
X129005142Y-116806285D01*
X129148000Y-116806285D01*
X129219428Y-116842000D01*
X129255142Y-116877714D01*
X129290857Y-116949142D01*
X129290857Y-117163428D01*
X129255142Y-117234857D01*
X129219428Y-117270571D01*
X129148000Y-117306285D01*
X129005142Y-117306285D01*
X128933714Y-117270571D01*
X129898000Y-117270571D02*
X129826571Y-117306285D01*
X129683714Y-117306285D01*
X129612285Y-117270571D01*
X129576571Y-117199142D01*
X129576571Y-116913428D01*
X129612285Y-116842000D01*
X129683714Y-116806285D01*
X129826571Y-116806285D01*
X129898000Y-116842000D01*
X129933714Y-116913428D01*
X129933714Y-116984857D01*
X129576571Y-117056285D01*
X130255142Y-117306285D02*
X130255142Y-116806285D01*
X130255142Y-116949142D02*
X130290857Y-116877714D01*
X130326571Y-116842000D01*
X130398000Y-116806285D01*
X130469428Y-116806285D01*
X131040857Y-117306285D02*
X131040857Y-116913428D01*
X131005142Y-116842000D01*
X130933714Y-116806285D01*
X130790857Y-116806285D01*
X130719428Y-116842000D01*
X131040857Y-117270571D02*
X130969428Y-117306285D01*
X130790857Y-117306285D01*
X130719428Y-117270571D01*
X130683714Y-117199142D01*
X130683714Y-117127714D01*
X130719428Y-117056285D01*
X130790857Y-117020571D01*
X130969428Y-117020571D01*
X131040857Y-116984857D01*
X131290857Y-116806285D02*
X131576571Y-116806285D01*
X131398000Y-116556285D02*
X131398000Y-117199142D01*
X131433714Y-117270571D01*
X131505142Y-117306285D01*
X131576571Y-117306285D01*
X132148000Y-116806285D02*
X132148000Y-117306285D01*
X131826571Y-116806285D02*
X131826571Y-117199142D01*
X131862285Y-117270571D01*
X131933714Y-117306285D01*
X132040857Y-117306285D01*
X132112285Y-117270571D01*
X132148000Y-117234857D01*
X132505142Y-117306285D02*
X132505142Y-116806285D01*
X132505142Y-116949142D02*
X132540857Y-116877714D01*
X132576571Y-116842000D01*
X132648000Y-116806285D01*
X132719428Y-116806285D01*
X133255142Y-117270571D02*
X133183714Y-117306285D01*
X133040857Y-117306285D01*
X132969428Y-117270571D01*
X132933714Y-117199142D01*
X132933714Y-116913428D01*
X132969428Y-116842000D01*
X133040857Y-116806285D01*
X133183714Y-116806285D01*
X133255142Y-116842000D01*
X133290857Y-116913428D01*
X133290857Y-116984857D01*
X132933714Y-117056285D01*
X124540857Y-118317000D02*
X124898000Y-118317000D01*
X124469428Y-118531285D02*
X124719428Y-117781285D01*
X124969428Y-118531285D01*
X125219428Y-118031285D02*
X125219428Y-118531285D01*
X125219428Y-118102714D02*
X125255142Y-118067000D01*
X125326571Y-118031285D01*
X125433714Y-118031285D01*
X125505142Y-118067000D01*
X125540857Y-118138428D01*
X125540857Y-118531285D01*
X126219428Y-118531285D02*
X126219428Y-118138428D01*
X126183714Y-118067000D01*
X126112285Y-118031285D01*
X125969428Y-118031285D01*
X125898000Y-118067000D01*
X126219428Y-118495571D02*
X126148000Y-118531285D01*
X125969428Y-118531285D01*
X125898000Y-118495571D01*
X125862285Y-118424142D01*
X125862285Y-118352714D01*
X125898000Y-118281285D01*
X125969428Y-118245571D01*
X126148000Y-118245571D01*
X126219428Y-118209857D01*
X126683714Y-118531285D02*
X126612285Y-118495571D01*
X126576571Y-118424142D01*
X126576571Y-117781285D01*
X126969428Y-118531285D02*
X126969428Y-118031285D01*
X126969428Y-117781285D02*
X126933714Y-117817000D01*
X126969428Y-117852714D01*
X127005142Y-117817000D01*
X126969428Y-117781285D01*
X126969428Y-117852714D01*
X127290857Y-118495571D02*
X127362285Y-118531285D01*
X127505142Y-118531285D01*
X127576571Y-118495571D01*
X127612285Y-118424142D01*
X127612285Y-118388428D01*
X127576571Y-118317000D01*
X127505142Y-118281285D01*
X127398000Y-118281285D01*
X127326571Y-118245571D01*
X127290857Y-118174142D01*
X127290857Y-118138428D01*
X127326571Y-118067000D01*
X127398000Y-118031285D01*
X127505142Y-118031285D01*
X127576571Y-118067000D01*
X127862285Y-118031285D02*
X128040857Y-118531285D01*
X128219428Y-118031285D02*
X128040857Y-118531285D01*
X127969428Y-118709857D01*
X127933714Y-118745571D01*
X127862285Y-118781285D01*
X128469428Y-118495571D02*
X128540857Y-118531285D01*
X128683714Y-118531285D01*
X128755142Y-118495571D01*
X128790857Y-118424142D01*
X128790857Y-118388428D01*
X128755142Y-118317000D01*
X128683714Y-118281285D01*
X128576571Y-118281285D01*
X128505142Y-118245571D01*
X128469428Y-118174142D01*
X128469428Y-118138428D01*
X128505142Y-118067000D01*
X128576571Y-118031285D01*
X128683714Y-118031285D01*
X128755142Y-118067000D01*
D14*
X115018000Y-74116000D02*
X117138000Y-74116000D01*
X115018000Y-68056000D02*
X115018000Y-74116000D01*
X117138000Y-68056000D02*
X117138000Y-74116000D01*
X115018000Y-68056000D02*
X117138000Y-68056000D01*
X115018000Y-67056000D02*
X115018000Y-65996000D01*
X115018000Y-65996000D02*
X116078000Y-65996000D01*
X117558000Y-74116000D02*
X119678000Y-74116000D01*
X117558000Y-68056000D02*
X117558000Y-74116000D01*
X119678000Y-68056000D02*
X119678000Y-74116000D01*
X117558000Y-68056000D02*
X119678000Y-68056000D01*
X117558000Y-67056000D02*
X117558000Y-65996000D01*
X117558000Y-65996000D02*
X118618000Y-65996000D01*
X120098000Y-74116000D02*
X122218000Y-74116000D01*
X120098000Y-68056000D02*
X120098000Y-74116000D01*
X122218000Y-68056000D02*
X122218000Y-74116000D01*
X120098000Y-68056000D02*
X122218000Y-68056000D01*
X120098000Y-67056000D02*
X120098000Y-65996000D01*
X120098000Y-65996000D02*
X121158000Y-65996000D01*
X139236000Y-89142000D02*
X137116000Y-89142000D01*
X139236000Y-91202000D02*
X139236000Y-89142000D01*
X137116000Y-91202000D02*
X137116000Y-89142000D01*
X139236000Y-91202000D02*
X137116000Y-91202000D01*
X139236000Y-92202000D02*
X139236000Y-93262000D01*
X139236000Y-93262000D02*
X138176000Y-93262000D01*
X138220000Y-113272000D02*
X136100000Y-113272000D01*
X138220000Y-115332000D02*
X138220000Y-113272000D01*
X136100000Y-115332000D02*
X136100000Y-113272000D01*
X138220000Y-115332000D02*
X136100000Y-115332000D01*
X138220000Y-116332000D02*
X138220000Y-117392000D01*
X138220000Y-117392000D02*
X137160000Y-117392000D01*
X121710000Y-97016000D02*
X119590000Y-97016000D01*
X121710000Y-99076000D02*
X121710000Y-97016000D01*
X119590000Y-99076000D02*
X119590000Y-97016000D01*
X121710000Y-99076000D02*
X119590000Y-99076000D01*
X121710000Y-100076000D02*
X121710000Y-101136000D01*
X121710000Y-101136000D02*
X120650000Y-101136000D01*
D15*
X136623400Y-104244400D02*
X118623400Y-104244400D01*
X136623400Y-74244400D02*
X136623400Y-104244400D01*
X118623400Y-74244400D02*
X136623400Y-74244400D01*
X118623400Y-104244400D02*
X118623400Y-74244400D01*
X113074600Y-81642492D02*
X115569470Y-81642492D01*
X114934470Y-132442492D02*
X113074600Y-132442492D01*
X115569470Y-131807492D02*
X114934470Y-132442492D01*
X115569470Y-81642492D02*
X115569470Y-131807492D01*
X139704470Y-81667492D02*
X142174600Y-81667492D01*
X139704470Y-132467492D02*
X139704470Y-81667492D01*
X142164600Y-132467492D02*
X139704470Y-132467492D01*
D14*
X124654000Y-71434000D02*
X127314000Y-71434000D01*
X124654000Y-63754000D02*
X124654000Y-71434000D01*
X127314000Y-63754000D02*
X127314000Y-71434000D01*
X124654000Y-63754000D02*
X127314000Y-63754000D01*
X124654000Y-62484000D02*
X124654000Y-61154000D01*
X124654000Y-61154000D02*
X125984000Y-61154000D01*
X127702000Y-71434000D02*
X130362000Y-71434000D01*
X127702000Y-63754000D02*
X127702000Y-71434000D01*
X130362000Y-63754000D02*
X130362000Y-71434000D01*
X127702000Y-63754000D02*
X130362000Y-63754000D01*
X127702000Y-62484000D02*
X127702000Y-61154000D01*
X127702000Y-61154000D02*
X129032000Y-61154000D01*
X135322000Y-71434000D02*
X137982000Y-71434000D01*
X135322000Y-63754000D02*
X135322000Y-71434000D01*
X137982000Y-63754000D02*
X137982000Y-71434000D01*
X135322000Y-63754000D02*
X137982000Y-63754000D01*
X135322000Y-62484000D02*
X135322000Y-61154000D01*
X135322000Y-61154000D02*
X136652000Y-61154000D01*
X132782000Y-71434000D02*
X135442000Y-71434000D01*
X132782000Y-63754000D02*
X132782000Y-71434000D01*
X135442000Y-63754000D02*
X135442000Y-71434000D01*
X132782000Y-63754000D02*
X135442000Y-63754000D01*
X132782000Y-62484000D02*
X132782000Y-61154000D01*
X132782000Y-61154000D02*
X134112000Y-61154000D01*
X126609999Y-92856999D02*
X125709999Y-92856999D01*
X125709999Y-92856999D02*
X125709999Y-91956999D01*
X130029999Y-87636999D02*
X130929999Y-87636999D01*
X130929999Y-87636999D02*
X130929999Y-88536999D01*
X126609999Y-87636999D02*
X125709999Y-87636999D01*
X125709999Y-87636999D02*
X125709999Y-88536999D01*
X130029999Y-92856999D02*
X130929999Y-92856999D01*
D16*
G36*
X134996964Y-124544018D02*
G01*
X135053812Y-124845570D01*
X135473338Y-125018512D01*
X135724984Y-124847395D01*
X135795458Y-124799750D01*
X135859163Y-124757210D01*
X135913126Y-124721715D01*
X135954373Y-124695210D01*
X135979934Y-124679636D01*
X135986895Y-124676278D01*
X135999435Y-124684914D01*
X136026231Y-124708792D01*
X136064280Y-124744859D01*
X136110579Y-124790067D01*
X136162123Y-124841364D01*
X136215909Y-124895701D01*
X136268935Y-124950028D01*
X136318195Y-125001295D01*
X136360687Y-125046451D01*
X136393407Y-125082446D01*
X136413351Y-125106230D01*
X136418119Y-125114190D01*
X136411257Y-125128865D01*
X136392020Y-125161014D01*
X136362430Y-125207492D01*
X136324510Y-125265156D01*
X136280282Y-125330860D01*
X136254654Y-125368336D01*
X136207941Y-125436768D01*
X136166432Y-125498520D01*
X136132140Y-125550519D01*
X136107080Y-125589692D01*
X136093264Y-125612965D01*
X136091188Y-125617855D01*
X136095895Y-125631755D01*
X136108723Y-125664150D01*
X136127738Y-125710485D01*
X136151003Y-125766206D01*
X136176584Y-125826758D01*
X136202545Y-125887586D01*
X136226950Y-125944136D01*
X136247863Y-125991852D01*
X136263349Y-126026181D01*
X136271472Y-126042568D01*
X136271952Y-126043212D01*
X136284707Y-126046341D01*
X136318677Y-126053321D01*
X136370340Y-126063467D01*
X136436176Y-126076092D01*
X136512664Y-126090509D01*
X136557290Y-126098823D01*
X136639021Y-126114384D01*
X136712843Y-126129192D01*
X136775021Y-126142436D01*
X136821822Y-126153305D01*
X136849509Y-126160989D01*
X136855074Y-126163427D01*
X136860526Y-126179930D01*
X136864924Y-126217200D01*
X136868272Y-126270880D01*
X136870574Y-126336612D01*
X136871832Y-126410037D01*
X136872048Y-126486796D01*
X136871227Y-126562532D01*
X136869371Y-126632886D01*
X136866482Y-126693500D01*
X136862565Y-126740016D01*
X136857622Y-126768075D01*
X136854657Y-126773916D01*
X136836934Y-126780917D01*
X136799381Y-126790927D01*
X136746964Y-126802769D01*
X136684652Y-126815267D01*
X136662900Y-126819310D01*
X136558024Y-126838520D01*
X136475180Y-126853991D01*
X136411630Y-126866337D01*
X136364637Y-126876173D01*
X136331463Y-126884114D01*
X136309371Y-126890776D01*
X136295624Y-126896773D01*
X136287484Y-126902719D01*
X136286345Y-126903894D01*
X136274977Y-126922826D01*
X136257635Y-126959669D01*
X136236050Y-127009913D01*
X136211954Y-127069046D01*
X136187079Y-127132556D01*
X136163157Y-127195932D01*
X136141919Y-127254662D01*
X136125097Y-127304235D01*
X136114422Y-127340139D01*
X136111627Y-127357862D01*
X136111860Y-127358483D01*
X136121331Y-127372970D01*
X136142818Y-127404844D01*
X136174063Y-127450789D01*
X136212807Y-127507485D01*
X136256793Y-127571617D01*
X136269319Y-127589842D01*
X136313984Y-127655914D01*
X136353288Y-127716200D01*
X136385088Y-127767235D01*
X136407245Y-127805560D01*
X136417617Y-127827711D01*
X136418119Y-127830432D01*
X136409405Y-127844736D01*
X136385325Y-127873072D01*
X136348976Y-127912396D01*
X136303453Y-127959661D01*
X136251852Y-128011823D01*
X136197267Y-128065835D01*
X136142794Y-128118653D01*
X136091529Y-128167231D01*
X136046567Y-128208523D01*
X136011004Y-128239485D01*
X135987935Y-128257070D01*
X135981554Y-128259941D01*
X135966699Y-128253178D01*
X135936286Y-128234939D01*
X135895268Y-128208297D01*
X135863709Y-128186852D01*
X135806525Y-128147503D01*
X135738806Y-128101171D01*
X135670880Y-128054913D01*
X135634361Y-128030155D01*
X135510752Y-127946547D01*
X135406991Y-128002650D01*
X135359720Y-128027228D01*
X135319523Y-128046331D01*
X135292326Y-128057227D01*
X135285402Y-128058743D01*
X135277077Y-128047549D01*
X135260654Y-128015917D01*
X135237357Y-127966765D01*
X135208414Y-127903010D01*
X135175050Y-127827571D01*
X135138491Y-127743364D01*
X135099964Y-127653308D01*
X135060694Y-127560321D01*
X135021908Y-127467320D01*
X134984830Y-127377223D01*
X134950689Y-127292948D01*
X134920708Y-127217413D01*
X134896116Y-127153534D01*
X134878136Y-127104231D01*
X134867997Y-127072421D01*
X134866366Y-127061496D01*
X134879291Y-127047561D01*
X134907589Y-127024940D01*
X134945346Y-126998333D01*
X134948515Y-126996228D01*
X135046100Y-126918114D01*
X135124786Y-126826982D01*
X135183891Y-126725745D01*
X135222732Y-126617318D01*
X135240628Y-126504614D01*
X135236897Y-126390548D01*
X135210857Y-126278034D01*
X135161825Y-126169985D01*
X135147400Y-126146345D01*
X135072369Y-126050887D01*
X134983730Y-125974232D01*
X134884549Y-125916780D01*
X134777895Y-125878929D01*
X134666836Y-125861078D01*
X134554439Y-125863625D01*
X134443773Y-125886970D01*
X134337906Y-125931510D01*
X134239905Y-125997645D01*
X134209590Y-126024487D01*
X134132438Y-126108512D01*
X134076218Y-126196966D01*
X134037653Y-126296115D01*
X134016174Y-126394303D01*
X134010872Y-126504697D01*
X134028552Y-126615640D01*
X134067419Y-126723381D01*
X134125677Y-126824169D01*
X134201531Y-126914256D01*
X134293183Y-126989892D01*
X134305228Y-126997864D01*
X134343389Y-127023974D01*
X134372399Y-127046595D01*
X134386268Y-127061039D01*
X134386469Y-127061496D01*
X134383492Y-127077121D01*
X134371689Y-127112582D01*
X134352286Y-127164962D01*
X134326512Y-127231345D01*
X134295591Y-127308814D01*
X134260751Y-127394450D01*
X134223217Y-127485337D01*
X134184217Y-127578559D01*
X134144977Y-127671197D01*
X134106724Y-127760335D01*
X134070683Y-127843055D01*
X134038083Y-127916441D01*
X134010148Y-127977575D01*
X133988105Y-128023541D01*
X133973182Y-128051421D01*
X133967172Y-128058743D01*
X133948809Y-128053041D01*
X133914448Y-128037749D01*
X133870016Y-128015599D01*
X133845583Y-128002650D01*
X133741822Y-127946547D01*
X133618213Y-128030155D01*
X133555114Y-128072987D01*
X133486030Y-128120122D01*
X133421293Y-128164503D01*
X133388866Y-128186852D01*
X133343259Y-128217477D01*
X133304640Y-128241747D01*
X133278048Y-128256587D01*
X133269410Y-128259724D01*
X133256839Y-128251261D01*
X133229016Y-128227636D01*
X133188639Y-128191302D01*
X133138405Y-128144711D01*
X133081012Y-128090317D01*
X133044714Y-128055392D01*
X132981210Y-127992996D01*
X132926327Y-127937188D01*
X132882286Y-127890354D01*
X132851305Y-127854882D01*
X132835602Y-127833161D01*
X132834095Y-127828752D01*
X132841086Y-127811985D01*
X132860406Y-127778082D01*
X132889909Y-127730476D01*
X132927455Y-127672599D01*
X132970900Y-127607884D01*
X132983255Y-127589842D01*
X133028273Y-127524267D01*
X133068660Y-127465228D01*
X133102160Y-127416042D01*
X133126514Y-127380028D01*
X133139464Y-127360502D01*
X133140715Y-127358483D01*
X133138844Y-127342922D01*
X133128913Y-127308709D01*
X133112653Y-127260355D01*
X133091795Y-127202371D01*
X133068073Y-127139270D01*
X133043216Y-127075563D01*
X133018958Y-127015761D01*
X132997029Y-126964376D01*
X132979162Y-126925919D01*
X132967087Y-126904902D01*
X132966229Y-126903894D01*
X132958846Y-126897888D01*
X132946375Y-126891948D01*
X132926080Y-126885460D01*
X132895222Y-126877809D01*
X132851066Y-126868380D01*
X132790874Y-126856559D01*
X132711907Y-126841729D01*
X132611430Y-126823277D01*
X132589675Y-126819310D01*
X132525198Y-126806853D01*
X132468989Y-126794666D01*
X132426013Y-126783926D01*
X132401240Y-126775809D01*
X132397918Y-126773916D01*
X132392444Y-126757138D01*
X132387994Y-126719645D01*
X132384572Y-126665794D01*
X132382181Y-126599944D01*
X132380823Y-126526453D01*
X132380501Y-126449680D01*
X132381219Y-126373983D01*
X132382979Y-126303720D01*
X132385784Y-126243250D01*
X132389638Y-126196930D01*
X132394543Y-126169119D01*
X132397500Y-126163427D01*
X132413963Y-126157686D01*
X132451449Y-126148345D01*
X132506225Y-126136215D01*
X132574555Y-126122107D01*
X132652706Y-126106830D01*
X132695284Y-126098823D01*
X132776071Y-126083721D01*
X132848113Y-126070040D01*
X132907889Y-126058467D01*
X132951879Y-126049687D01*
X132976561Y-126044387D01*
X132980623Y-126043212D01*
X132987489Y-126029965D01*
X133002002Y-125998057D01*
X133022229Y-125952047D01*
X133046234Y-125896492D01*
X133072082Y-125835953D01*
X133097840Y-125774986D01*
X133121573Y-125718151D01*
X133141346Y-125670006D01*
X133155224Y-125635110D01*
X133161274Y-125618021D01*
X133161386Y-125617274D01*
X133154528Y-125603793D01*
X133135302Y-125572770D01*
X133105728Y-125527289D01*
X133067827Y-125470432D01*
X133023620Y-125405283D01*
X132997921Y-125367862D01*
X132951093Y-125299247D01*
X132909501Y-125236952D01*
X132875175Y-125184129D01*
X132850143Y-125143927D01*
X132836435Y-125119500D01*
X132834456Y-125114024D01*
X132842966Y-125101278D01*
X132866493Y-125074063D01*
X132902032Y-125035428D01*
X132946577Y-124988423D01*
X132997123Y-124936095D01*
X133050664Y-124881495D01*
X133104195Y-124827670D01*
X133154711Y-124777670D01*
X133199206Y-124734543D01*
X133234675Y-124701339D01*
X133258113Y-124681106D01*
X133265954Y-124676278D01*
X133278720Y-124683067D01*
X133309256Y-124702142D01*
X133354590Y-124731561D01*
X133411756Y-124769381D01*
X133477784Y-124813661D01*
X133527590Y-124847395D01*
X133779236Y-125018512D01*
X133988999Y-124932041D01*
X134198763Y-124845570D01*
X134255611Y-124544018D01*
X134312460Y-124242466D01*
X134940115Y-124242466D01*
X134996964Y-124544018D01*
G37*
X134996964Y-124544018D02*
X135053812Y-124845570D01*
X135473338Y-125018512D01*
X135724984Y-124847395D01*
X135795458Y-124799750D01*
X135859163Y-124757210D01*
X135913126Y-124721715D01*
X135954373Y-124695210D01*
X135979934Y-124679636D01*
X135986895Y-124676278D01*
X135999435Y-124684914D01*
X136026231Y-124708792D01*
X136064280Y-124744859D01*
X136110579Y-124790067D01*
X136162123Y-124841364D01*
X136215909Y-124895701D01*
X136268935Y-124950028D01*
X136318195Y-125001295D01*
X136360687Y-125046451D01*
X136393407Y-125082446D01*
X136413351Y-125106230D01*
X136418119Y-125114190D01*
X136411257Y-125128865D01*
X136392020Y-125161014D01*
X136362430Y-125207492D01*
X136324510Y-125265156D01*
X136280282Y-125330860D01*
X136254654Y-125368336D01*
X136207941Y-125436768D01*
X136166432Y-125498520D01*
X136132140Y-125550519D01*
X136107080Y-125589692D01*
X136093264Y-125612965D01*
X136091188Y-125617855D01*
X136095895Y-125631755D01*
X136108723Y-125664150D01*
X136127738Y-125710485D01*
X136151003Y-125766206D01*
X136176584Y-125826758D01*
X136202545Y-125887586D01*
X136226950Y-125944136D01*
X136247863Y-125991852D01*
X136263349Y-126026181D01*
X136271472Y-126042568D01*
X136271952Y-126043212D01*
X136284707Y-126046341D01*
X136318677Y-126053321D01*
X136370340Y-126063467D01*
X136436176Y-126076092D01*
X136512664Y-126090509D01*
X136557290Y-126098823D01*
X136639021Y-126114384D01*
X136712843Y-126129192D01*
X136775021Y-126142436D01*
X136821822Y-126153305D01*
X136849509Y-126160989D01*
X136855074Y-126163427D01*
X136860526Y-126179930D01*
X136864924Y-126217200D01*
X136868272Y-126270880D01*
X136870574Y-126336612D01*
X136871832Y-126410037D01*
X136872048Y-126486796D01*
X136871227Y-126562532D01*
X136869371Y-126632886D01*
X136866482Y-126693500D01*
X136862565Y-126740016D01*
X136857622Y-126768075D01*
X136854657Y-126773916D01*
X136836934Y-126780917D01*
X136799381Y-126790927D01*
X136746964Y-126802769D01*
X136684652Y-126815267D01*
X136662900Y-126819310D01*
X136558024Y-126838520D01*
X136475180Y-126853991D01*
X136411630Y-126866337D01*
X136364637Y-126876173D01*
X136331463Y-126884114D01*
X136309371Y-126890776D01*
X136295624Y-126896773D01*
X136287484Y-126902719D01*
X136286345Y-126903894D01*
X136274977Y-126922826D01*
X136257635Y-126959669D01*
X136236050Y-127009913D01*
X136211954Y-127069046D01*
X136187079Y-127132556D01*
X136163157Y-127195932D01*
X136141919Y-127254662D01*
X136125097Y-127304235D01*
X136114422Y-127340139D01*
X136111627Y-127357862D01*
X136111860Y-127358483D01*
X136121331Y-127372970D01*
X136142818Y-127404844D01*
X136174063Y-127450789D01*
X136212807Y-127507485D01*
X136256793Y-127571617D01*
X136269319Y-127589842D01*
X136313984Y-127655914D01*
X136353288Y-127716200D01*
X136385088Y-127767235D01*
X136407245Y-127805560D01*
X136417617Y-127827711D01*
X136418119Y-127830432D01*
X136409405Y-127844736D01*
X136385325Y-127873072D01*
X136348976Y-127912396D01*
X136303453Y-127959661D01*
X136251852Y-128011823D01*
X136197267Y-128065835D01*
X136142794Y-128118653D01*
X136091529Y-128167231D01*
X136046567Y-128208523D01*
X136011004Y-128239485D01*
X135987935Y-128257070D01*
X135981554Y-128259941D01*
X135966699Y-128253178D01*
X135936286Y-128234939D01*
X135895268Y-128208297D01*
X135863709Y-128186852D01*
X135806525Y-128147503D01*
X135738806Y-128101171D01*
X135670880Y-128054913D01*
X135634361Y-128030155D01*
X135510752Y-127946547D01*
X135406991Y-128002650D01*
X135359720Y-128027228D01*
X135319523Y-128046331D01*
X135292326Y-128057227D01*
X135285402Y-128058743D01*
X135277077Y-128047549D01*
X135260654Y-128015917D01*
X135237357Y-127966765D01*
X135208414Y-127903010D01*
X135175050Y-127827571D01*
X135138491Y-127743364D01*
X135099964Y-127653308D01*
X135060694Y-127560321D01*
X135021908Y-127467320D01*
X134984830Y-127377223D01*
X134950689Y-127292948D01*
X134920708Y-127217413D01*
X134896116Y-127153534D01*
X134878136Y-127104231D01*
X134867997Y-127072421D01*
X134866366Y-127061496D01*
X134879291Y-127047561D01*
X134907589Y-127024940D01*
X134945346Y-126998333D01*
X134948515Y-126996228D01*
X135046100Y-126918114D01*
X135124786Y-126826982D01*
X135183891Y-126725745D01*
X135222732Y-126617318D01*
X135240628Y-126504614D01*
X135236897Y-126390548D01*
X135210857Y-126278034D01*
X135161825Y-126169985D01*
X135147400Y-126146345D01*
X135072369Y-126050887D01*
X134983730Y-125974232D01*
X134884549Y-125916780D01*
X134777895Y-125878929D01*
X134666836Y-125861078D01*
X134554439Y-125863625D01*
X134443773Y-125886970D01*
X134337906Y-125931510D01*
X134239905Y-125997645D01*
X134209590Y-126024487D01*
X134132438Y-126108512D01*
X134076218Y-126196966D01*
X134037653Y-126296115D01*
X134016174Y-126394303D01*
X134010872Y-126504697D01*
X134028552Y-126615640D01*
X134067419Y-126723381D01*
X134125677Y-126824169D01*
X134201531Y-126914256D01*
X134293183Y-126989892D01*
X134305228Y-126997864D01*
X134343389Y-127023974D01*
X134372399Y-127046595D01*
X134386268Y-127061039D01*
X134386469Y-127061496D01*
X134383492Y-127077121D01*
X134371689Y-127112582D01*
X134352286Y-127164962D01*
X134326512Y-127231345D01*
X134295591Y-127308814D01*
X134260751Y-127394450D01*
X134223217Y-127485337D01*
X134184217Y-127578559D01*
X134144977Y-127671197D01*
X134106724Y-127760335D01*
X134070683Y-127843055D01*
X134038083Y-127916441D01*
X134010148Y-127977575D01*
X133988105Y-128023541D01*
X133973182Y-128051421D01*
X133967172Y-128058743D01*
X133948809Y-128053041D01*
X133914448Y-128037749D01*
X133870016Y-128015599D01*
X133845583Y-128002650D01*
X133741822Y-127946547D01*
X133618213Y-128030155D01*
X133555114Y-128072987D01*
X133486030Y-128120122D01*
X133421293Y-128164503D01*
X133388866Y-128186852D01*
X133343259Y-128217477D01*
X133304640Y-128241747D01*
X133278048Y-128256587D01*
X133269410Y-128259724D01*
X133256839Y-128251261D01*
X133229016Y-128227636D01*
X133188639Y-128191302D01*
X133138405Y-128144711D01*
X133081012Y-128090317D01*
X133044714Y-128055392D01*
X132981210Y-127992996D01*
X132926327Y-127937188D01*
X132882286Y-127890354D01*
X132851305Y-127854882D01*
X132835602Y-127833161D01*
X132834095Y-127828752D01*
X132841086Y-127811985D01*
X132860406Y-127778082D01*
X132889909Y-127730476D01*
X132927455Y-127672599D01*
X132970900Y-127607884D01*
X132983255Y-127589842D01*
X133028273Y-127524267D01*
X133068660Y-127465228D01*
X133102160Y-127416042D01*
X133126514Y-127380028D01*
X133139464Y-127360502D01*
X133140715Y-127358483D01*
X133138844Y-127342922D01*
X133128913Y-127308709D01*
X133112653Y-127260355D01*
X133091795Y-127202371D01*
X133068073Y-127139270D01*
X133043216Y-127075563D01*
X133018958Y-127015761D01*
X132997029Y-126964376D01*
X132979162Y-126925919D01*
X132967087Y-126904902D01*
X132966229Y-126903894D01*
X132958846Y-126897888D01*
X132946375Y-126891948D01*
X132926080Y-126885460D01*
X132895222Y-126877809D01*
X132851066Y-126868380D01*
X132790874Y-126856559D01*
X132711907Y-126841729D01*
X132611430Y-126823277D01*
X132589675Y-126819310D01*
X132525198Y-126806853D01*
X132468989Y-126794666D01*
X132426013Y-126783926D01*
X132401240Y-126775809D01*
X132397918Y-126773916D01*
X132392444Y-126757138D01*
X132387994Y-126719645D01*
X132384572Y-126665794D01*
X132382181Y-126599944D01*
X132380823Y-126526453D01*
X132380501Y-126449680D01*
X132381219Y-126373983D01*
X132382979Y-126303720D01*
X132385784Y-126243250D01*
X132389638Y-126196930D01*
X132394543Y-126169119D01*
X132397500Y-126163427D01*
X132413963Y-126157686D01*
X132451449Y-126148345D01*
X132506225Y-126136215D01*
X132574555Y-126122107D01*
X132652706Y-126106830D01*
X132695284Y-126098823D01*
X132776071Y-126083721D01*
X132848113Y-126070040D01*
X132907889Y-126058467D01*
X132951879Y-126049687D01*
X132976561Y-126044387D01*
X132980623Y-126043212D01*
X132987489Y-126029965D01*
X133002002Y-125998057D01*
X133022229Y-125952047D01*
X133046234Y-125896492D01*
X133072082Y-125835953D01*
X133097840Y-125774986D01*
X133121573Y-125718151D01*
X133141346Y-125670006D01*
X133155224Y-125635110D01*
X133161274Y-125618021D01*
X133161386Y-125617274D01*
X133154528Y-125603793D01*
X133135302Y-125572770D01*
X133105728Y-125527289D01*
X133067827Y-125470432D01*
X133023620Y-125405283D01*
X132997921Y-125367862D01*
X132951093Y-125299247D01*
X132909501Y-125236952D01*
X132875175Y-125184129D01*
X132850143Y-125143927D01*
X132836435Y-125119500D01*
X132834456Y-125114024D01*
X132842966Y-125101278D01*
X132866493Y-125074063D01*
X132902032Y-125035428D01*
X132946577Y-124988423D01*
X132997123Y-124936095D01*
X133050664Y-124881495D01*
X133104195Y-124827670D01*
X133154711Y-124777670D01*
X133199206Y-124734543D01*
X133234675Y-124701339D01*
X133258113Y-124681106D01*
X133265954Y-124676278D01*
X133278720Y-124683067D01*
X133309256Y-124702142D01*
X133354590Y-124731561D01*
X133411756Y-124769381D01*
X133477784Y-124813661D01*
X133527590Y-124847395D01*
X133779236Y-125018512D01*
X133988999Y-124932041D01*
X134198763Y-124845570D01*
X134255611Y-124544018D01*
X134312460Y-124242466D01*
X134940115Y-124242466D01*
X134996964Y-124544018D01*
G36*
X136419460Y-128712030D02*
G01*
X136462711Y-128725245D01*
X136490558Y-128741941D01*
X136499629Y-128755145D01*
X136497132Y-128770797D01*
X136480931Y-128795385D01*
X136467232Y-128812800D01*
X136438992Y-128844283D01*
X136417775Y-128857529D01*
X136399688Y-128856664D01*
X136346035Y-128843010D01*
X136306630Y-128843630D01*
X136274632Y-128859104D01*
X136263890Y-128868161D01*
X136229505Y-128900027D01*
X136229505Y-129316179D01*
X136091188Y-129316179D01*
X136091188Y-128712614D01*
X136160347Y-128712614D01*
X136201869Y-128714256D01*
X136223291Y-128720087D01*
X136229502Y-128731461D01*
X136229505Y-128731798D01*
X136232439Y-128743713D01*
X136245704Y-128742159D01*
X136264084Y-128733563D01*
X136302046Y-128717568D01*
X136332872Y-128707945D01*
X136372536Y-128705478D01*
X136419460Y-128712030D01*
G37*
X136419460Y-128712030D02*
X136462711Y-128725245D01*
X136490558Y-128741941D01*
X136499629Y-128755145D01*
X136497132Y-128770797D01*
X136480931Y-128795385D01*
X136467232Y-128812800D01*
X136438992Y-128844283D01*
X136417775Y-128857529D01*
X136399688Y-128856664D01*
X136346035Y-128843010D01*
X136306630Y-128843630D01*
X136274632Y-128859104D01*
X136263890Y-128868161D01*
X136229505Y-128900027D01*
X136229505Y-129316179D01*
X136091188Y-129316179D01*
X136091188Y-128712614D01*
X136160347Y-128712614D01*
X136201869Y-128714256D01*
X136223291Y-128720087D01*
X136229502Y-128731461D01*
X136229505Y-128731798D01*
X136232439Y-128743713D01*
X136245704Y-128742159D01*
X136264084Y-128733563D01*
X136302046Y-128717568D01*
X136332872Y-128707945D01*
X136372536Y-128705478D01*
X136419460Y-128712030D01*
G36*
X133865988Y-128723002D02*
G01*
X133897283Y-128737950D01*
X133927591Y-128759541D01*
X133950682Y-128784391D01*
X133967500Y-128816087D01*
X133978994Y-128858214D01*
X133986109Y-128914358D01*
X133989793Y-128988106D01*
X133990992Y-129083044D01*
X133991011Y-129092985D01*
X133991287Y-129316179D01*
X133852970Y-129316179D01*
X133852970Y-129110418D01*
X133852872Y-129034189D01*
X133852191Y-128978939D01*
X133850349Y-128940501D01*
X133846767Y-128914706D01*
X133840868Y-128897384D01*
X133832073Y-128884368D01*
X133819820Y-128871507D01*
X133776953Y-128843873D01*
X133730157Y-128838745D01*
X133685576Y-128856217D01*
X133670072Y-128869221D01*
X133658690Y-128881447D01*
X133650519Y-128894540D01*
X133645026Y-128912615D01*
X133641680Y-128939787D01*
X133639949Y-128980170D01*
X133639303Y-129037879D01*
X133639208Y-129108132D01*
X133639208Y-129316179D01*
X133500891Y-129316179D01*
X133500891Y-128712614D01*
X133570050Y-128712614D01*
X133611572Y-128714256D01*
X133632994Y-128720087D01*
X133639205Y-128731461D01*
X133639208Y-128731798D01*
X133642090Y-128742938D01*
X133654801Y-128741674D01*
X133680074Y-128729434D01*
X133737395Y-128711424D01*
X133802963Y-128709421D01*
X133865988Y-128723002D01*
G37*
X133865988Y-128723002D02*
X133897283Y-128737950D01*
X133927591Y-128759541D01*
X133950682Y-128784391D01*
X133967500Y-128816087D01*
X133978994Y-128858214D01*
X133986109Y-128914358D01*
X133989793Y-128988106D01*
X133990992Y-129083044D01*
X133991011Y-129092985D01*
X133991287Y-129316179D01*
X133852970Y-129316179D01*
X133852970Y-129110418D01*
X133852872Y-129034189D01*
X133852191Y-128978939D01*
X133850349Y-128940501D01*
X133846767Y-128914706D01*
X133840868Y-128897384D01*
X133832073Y-128884368D01*
X133819820Y-128871507D01*
X133776953Y-128843873D01*
X133730157Y-128838745D01*
X133685576Y-128856217D01*
X133670072Y-128869221D01*
X133658690Y-128881447D01*
X133650519Y-128894540D01*
X133645026Y-128912615D01*
X133641680Y-128939787D01*
X133639949Y-128980170D01*
X133639303Y-129037879D01*
X133639208Y-129108132D01*
X133639208Y-129316179D01*
X133500891Y-129316179D01*
X133500891Y-128712614D01*
X133570050Y-128712614D01*
X133611572Y-128714256D01*
X133632994Y-128720087D01*
X133639205Y-128731461D01*
X133639208Y-128731798D01*
X133642090Y-128742938D01*
X133654801Y-128741674D01*
X133680074Y-128729434D01*
X133737395Y-128711424D01*
X133802963Y-128709421D01*
X133865988Y-128723002D01*
G36*
X137297898Y-128710457D02*
G01*
X137330096Y-128718279D01*
X137391825Y-128746921D01*
X137444610Y-128790667D01*
X137481141Y-128843117D01*
X137486160Y-128854893D01*
X137493045Y-128885740D01*
X137497864Y-128931371D01*
X137499505Y-128977492D01*
X137499505Y-129064693D01*
X137317178Y-129064693D01*
X137241979Y-129064978D01*
X137189003Y-129066704D01*
X137155325Y-129071181D01*
X137138020Y-129079720D01*
X137134163Y-129093630D01*
X137140829Y-129114222D01*
X137152770Y-129138315D01*
X137186080Y-129178525D01*
X137232368Y-129198558D01*
X137288944Y-129197905D01*
X137353031Y-129176101D01*
X137408417Y-129149193D01*
X137454375Y-129185532D01*
X137500333Y-129221872D01*
X137457096Y-129261819D01*
X137399374Y-129299563D01*
X137328386Y-129322320D01*
X137252029Y-129328688D01*
X137178199Y-129317268D01*
X137166287Y-129313393D01*
X137101399Y-129279506D01*
X137053130Y-129228986D01*
X137020465Y-129160325D01*
X137002385Y-129072014D01*
X137002175Y-129070121D01*
X137000556Y-128973878D01*
X137007100Y-128939542D01*
X137134852Y-128939542D01*
X137146584Y-128944822D01*
X137178438Y-128948867D01*
X137225397Y-128951176D01*
X137255154Y-128951525D01*
X137310648Y-128951306D01*
X137345346Y-128949916D01*
X137363601Y-128946251D01*
X137369766Y-128939210D01*
X137368195Y-128927690D01*
X137366878Y-128923233D01*
X137344382Y-128881355D01*
X137309003Y-128847604D01*
X137277780Y-128832773D01*
X137236301Y-128833668D01*
X137194269Y-128852164D01*
X137159012Y-128882786D01*
X137137854Y-128920062D01*
X137134852Y-128939542D01*
X137007100Y-128939542D01*
X137016690Y-128889229D01*
X137048698Y-128818191D01*
X137094701Y-128762779D01*
X137152821Y-128725009D01*
X137221180Y-128706896D01*
X137297898Y-128710457D01*
G37*
X137297898Y-128710457D02*
X137330096Y-128718279D01*
X137391825Y-128746921D01*
X137444610Y-128790667D01*
X137481141Y-128843117D01*
X137486160Y-128854893D01*
X137493045Y-128885740D01*
X137497864Y-128931371D01*
X137499505Y-128977492D01*
X137499505Y-129064693D01*
X137317178Y-129064693D01*
X137241979Y-129064978D01*
X137189003Y-129066704D01*
X137155325Y-129071181D01*
X137138020Y-129079720D01*
X137134163Y-129093630D01*
X137140829Y-129114222D01*
X137152770Y-129138315D01*
X137186080Y-129178525D01*
X137232368Y-129198558D01*
X137288944Y-129197905D01*
X137353031Y-129176101D01*
X137408417Y-129149193D01*
X137454375Y-129185532D01*
X137500333Y-129221872D01*
X137457096Y-129261819D01*
X137399374Y-129299563D01*
X137328386Y-129322320D01*
X137252029Y-129328688D01*
X137178199Y-129317268D01*
X137166287Y-129313393D01*
X137101399Y-129279506D01*
X137053130Y-129228986D01*
X137020465Y-129160325D01*
X137002385Y-129072014D01*
X137002175Y-129070121D01*
X137000556Y-128973878D01*
X137007100Y-128939542D01*
X137134852Y-128939542D01*
X137146584Y-128944822D01*
X137178438Y-128948867D01*
X137225397Y-128951176D01*
X137255154Y-128951525D01*
X137310648Y-128951306D01*
X137345346Y-128949916D01*
X137363601Y-128946251D01*
X137369766Y-128939210D01*
X137368195Y-128927690D01*
X137366878Y-128923233D01*
X137344382Y-128881355D01*
X137309003Y-128847604D01*
X137277780Y-128832773D01*
X137236301Y-128833668D01*
X137194269Y-128852164D01*
X137159012Y-128882786D01*
X137137854Y-128920062D01*
X137134852Y-128939542D01*
X137007100Y-128939542D01*
X137016690Y-128889229D01*
X137048698Y-128818191D01*
X137094701Y-128762779D01*
X137152821Y-128725009D01*
X137221180Y-128706896D01*
X137297898Y-128710457D01*
G36*
X136837226Y-128717880D02*
G01*
X136910080Y-128748830D01*
X136933027Y-128763895D01*
X136962354Y-128787048D01*
X136980764Y-128805253D01*
X136983961Y-128811183D01*
X136974935Y-128824340D01*
X136951837Y-128846667D01*
X136933344Y-128862250D01*
X136882728Y-128902926D01*
X136842760Y-128869295D01*
X136811874Y-128847584D01*
X136781759Y-128840090D01*
X136747292Y-128841920D01*
X136692561Y-128855528D01*
X136654886Y-128883772D01*
X136631991Y-128929433D01*
X136621597Y-128995289D01*
X136621595Y-128995331D01*
X136622494Y-129068939D01*
X136636463Y-129122946D01*
X136664328Y-129159716D01*
X136683325Y-129172168D01*
X136733776Y-129187673D01*
X136787663Y-129187683D01*
X136834546Y-129172638D01*
X136845644Y-129165287D01*
X136873476Y-129146511D01*
X136895236Y-129143434D01*
X136918704Y-129157409D01*
X136944649Y-129182510D01*
X136985716Y-129224880D01*
X136940121Y-129262464D01*
X136869674Y-129304882D01*
X136790233Y-129325785D01*
X136707215Y-129324272D01*
X136652694Y-129310411D01*
X136588970Y-129276135D01*
X136538005Y-129222212D01*
X136514851Y-129184149D01*
X136496099Y-129129536D01*
X136486715Y-129060369D01*
X136486643Y-128985407D01*
X136495824Y-128913409D01*
X136514199Y-128853137D01*
X136517093Y-128846958D01*
X136559952Y-128786351D01*
X136617979Y-128742224D01*
X136686591Y-128715493D01*
X136761201Y-128707073D01*
X136837226Y-128717880D01*
G37*
X136837226Y-128717880D02*
X136910080Y-128748830D01*
X136933027Y-128763895D01*
X136962354Y-128787048D01*
X136980764Y-128805253D01*
X136983961Y-128811183D01*
X136974935Y-128824340D01*
X136951837Y-128846667D01*
X136933344Y-128862250D01*
X136882728Y-128902926D01*
X136842760Y-128869295D01*
X136811874Y-128847584D01*
X136781759Y-128840090D01*
X136747292Y-128841920D01*
X136692561Y-128855528D01*
X136654886Y-128883772D01*
X136631991Y-128929433D01*
X136621597Y-128995289D01*
X136621595Y-128995331D01*
X136622494Y-129068939D01*
X136636463Y-129122946D01*
X136664328Y-129159716D01*
X136683325Y-129172168D01*
X136733776Y-129187673D01*
X136787663Y-129187683D01*
X136834546Y-129172638D01*
X136845644Y-129165287D01*
X136873476Y-129146511D01*
X136895236Y-129143434D01*
X136918704Y-129157409D01*
X136944649Y-129182510D01*
X136985716Y-129224880D01*
X136940121Y-129262464D01*
X136869674Y-129304882D01*
X136790233Y-129325785D01*
X136707215Y-129324272D01*
X136652694Y-129310411D01*
X136588970Y-129276135D01*
X136538005Y-129222212D01*
X136514851Y-129184149D01*
X136496099Y-129129536D01*
X136486715Y-129060369D01*
X136486643Y-128985407D01*
X136495824Y-128913409D01*
X136514199Y-128853137D01*
X136517093Y-128846958D01*
X136559952Y-128786351D01*
X136617979Y-128742224D01*
X136686591Y-128715493D01*
X136761201Y-128707073D01*
X136837226Y-128717880D01*
G36*
X135613367Y-128908342D02*
G01*
X135614555Y-129000563D01*
X135618897Y-129070610D01*
X135627558Y-129121381D01*
X135641704Y-129155772D01*
X135662500Y-129176679D01*
X135691110Y-129187000D01*
X135726535Y-129189636D01*
X135763636Y-129186682D01*
X135791818Y-129175889D01*
X135812243Y-129154360D01*
X135826079Y-129119199D01*
X135834491Y-129067510D01*
X135838643Y-128996394D01*
X135839703Y-128908342D01*
X135839703Y-128712614D01*
X135978020Y-128712614D01*
X135978020Y-129316179D01*
X135908862Y-129316179D01*
X135867170Y-129314489D01*
X135845701Y-129308556D01*
X135839703Y-129297293D01*
X135836091Y-129287261D01*
X135821714Y-129289383D01*
X135792736Y-129303580D01*
X135726319Y-129325480D01*
X135655875Y-129323928D01*
X135588377Y-129300147D01*
X135556233Y-129281362D01*
X135531715Y-129261022D01*
X135513804Y-129235573D01*
X135501479Y-129201458D01*
X135493723Y-129155121D01*
X135489516Y-129093007D01*
X135487840Y-129011561D01*
X135487624Y-128948578D01*
X135487624Y-128712614D01*
X135613367Y-128712614D01*
X135613367Y-128908342D01*
G37*
X135613367Y-128908342D02*
X135614555Y-129000563D01*
X135618897Y-129070610D01*
X135627558Y-129121381D01*
X135641704Y-129155772D01*
X135662500Y-129176679D01*
X135691110Y-129187000D01*
X135726535Y-129189636D01*
X135763636Y-129186682D01*
X135791818Y-129175889D01*
X135812243Y-129154360D01*
X135826079Y-129119199D01*
X135834491Y-129067510D01*
X135838643Y-128996394D01*
X135839703Y-128908342D01*
X135839703Y-128712614D01*
X135978020Y-128712614D01*
X135978020Y-129316179D01*
X135908862Y-129316179D01*
X135867170Y-129314489D01*
X135845701Y-129308556D01*
X135839703Y-129297293D01*
X135836091Y-129287261D01*
X135821714Y-129289383D01*
X135792736Y-129303580D01*
X135726319Y-129325480D01*
X135655875Y-129323928D01*
X135588377Y-129300147D01*
X135556233Y-129281362D01*
X135531715Y-129261022D01*
X135513804Y-129235573D01*
X135501479Y-129201458D01*
X135493723Y-129155121D01*
X135489516Y-129093007D01*
X135487840Y-129011561D01*
X135487624Y-128948578D01*
X135487624Y-128712614D01*
X135613367Y-128712614D01*
X135613367Y-128908342D01*
G36*
X135230762Y-128720055D02*
G01*
X135294363Y-128754692D01*
X135344123Y-128809372D01*
X135367568Y-128853842D01*
X135377634Y-128893121D01*
X135384156Y-128949116D01*
X135386951Y-129013621D01*
X135385836Y-129078429D01*
X135380626Y-129135334D01*
X135374541Y-129165727D01*
X135354014Y-129207306D01*
X135318463Y-129251468D01*
X135275619Y-129290087D01*
X135233211Y-129315034D01*
X135232177Y-129315430D01*
X135179553Y-129326331D01*
X135117188Y-129326601D01*
X135057924Y-129316676D01*
X135035040Y-129308722D01*
X134976102Y-129275300D01*
X134933890Y-129231511D01*
X134906156Y-129173538D01*
X134890651Y-129097565D01*
X134887143Y-129057771D01*
X134887590Y-129007766D01*
X135022376Y-129007766D01*
X135026917Y-129080732D01*
X135039986Y-129136334D01*
X135060756Y-129171861D01*
X135075552Y-129182020D01*
X135113464Y-129189104D01*
X135158527Y-129187007D01*
X135197487Y-129176812D01*
X135207704Y-129171204D01*
X135234659Y-129138538D01*
X135252451Y-129088545D01*
X135260024Y-129027705D01*
X135256325Y-128962497D01*
X135248057Y-128923253D01*
X135224320Y-128877805D01*
X135186849Y-128849396D01*
X135141720Y-128839573D01*
X135095011Y-128849887D01*
X135059132Y-128875112D01*
X135040277Y-128895925D01*
X135029272Y-128916439D01*
X135024026Y-128944203D01*
X135022449Y-128986762D01*
X135022376Y-129007766D01*
X134887590Y-129007766D01*
X134888094Y-128951580D01*
X134905388Y-128864501D01*
X134939029Y-128796530D01*
X134989018Y-128747664D01*
X135055356Y-128717899D01*
X135069601Y-128714448D01*
X135155210Y-128706345D01*
X135230762Y-128720055D01*
G37*
X135230762Y-128720055D02*
X135294363Y-128754692D01*
X135344123Y-128809372D01*
X135367568Y-128853842D01*
X135377634Y-128893121D01*
X135384156Y-128949116D01*
X135386951Y-129013621D01*
X135385836Y-129078429D01*
X135380626Y-129135334D01*
X135374541Y-129165727D01*
X135354014Y-129207306D01*
X135318463Y-129251468D01*
X135275619Y-129290087D01*
X135233211Y-129315034D01*
X135232177Y-129315430D01*
X135179553Y-129326331D01*
X135117188Y-129326601D01*
X135057924Y-129316676D01*
X135035040Y-129308722D01*
X134976102Y-129275300D01*
X134933890Y-129231511D01*
X134906156Y-129173538D01*
X134890651Y-129097565D01*
X134887143Y-129057771D01*
X134887590Y-129007766D01*
X135022376Y-129007766D01*
X135026917Y-129080732D01*
X135039986Y-129136334D01*
X135060756Y-129171861D01*
X135075552Y-129182020D01*
X135113464Y-129189104D01*
X135158527Y-129187007D01*
X135197487Y-129176812D01*
X135207704Y-129171204D01*
X135234659Y-129138538D01*
X135252451Y-129088545D01*
X135260024Y-129027705D01*
X135256325Y-128962497D01*
X135248057Y-128923253D01*
X135224320Y-128877805D01*
X135186849Y-128849396D01*
X135141720Y-128839573D01*
X135095011Y-128849887D01*
X135059132Y-128875112D01*
X135040277Y-128895925D01*
X135029272Y-128916439D01*
X135024026Y-128944203D01*
X135022449Y-128986762D01*
X135022376Y-129007766D01*
X134887590Y-129007766D01*
X134888094Y-128951580D01*
X134905388Y-128864501D01*
X134939029Y-128796530D01*
X134989018Y-128747664D01*
X135055356Y-128717899D01*
X135069601Y-128714448D01*
X135155210Y-128706345D01*
X135230762Y-128720055D01*
G36*
X134634017Y-128710452D02*
G01*
X134681634Y-128719482D01*
X134731034Y-128738370D01*
X134736312Y-128740777D01*
X134773774Y-128760476D01*
X134799717Y-128778781D01*
X134808103Y-128790508D01*
X134800117Y-128809632D01*
X134780720Y-128837850D01*
X134772110Y-128848384D01*
X134736628Y-128889847D01*
X134690885Y-128862858D01*
X134647350Y-128844878D01*
X134597050Y-128835267D01*
X134548812Y-128834660D01*
X134511467Y-128843691D01*
X134502505Y-128849327D01*
X134485437Y-128875171D01*
X134483363Y-128904941D01*
X134496134Y-128928197D01*
X134503688Y-128932708D01*
X134526325Y-128938309D01*
X134566115Y-128944892D01*
X134615166Y-128951183D01*
X134624215Y-128952170D01*
X134702996Y-128965798D01*
X134760136Y-128988946D01*
X134798030Y-129023752D01*
X134819079Y-129072354D01*
X134825635Y-129131718D01*
X134816577Y-129199198D01*
X134787164Y-129252188D01*
X134737278Y-129290783D01*
X134666800Y-129315081D01*
X134588565Y-129324667D01*
X134524766Y-129324552D01*
X134473016Y-129315845D01*
X134437673Y-129303825D01*
X134393017Y-129282880D01*
X134351747Y-129258574D01*
X134337079Y-129247876D01*
X134299357Y-129217084D01*
X134344852Y-129171049D01*
X134390347Y-129125013D01*
X134442072Y-129159243D01*
X134493952Y-129184952D01*
X134549351Y-129198399D01*
X134602605Y-129199818D01*
X134648049Y-129189443D01*
X134680016Y-129167507D01*
X134690338Y-129148998D01*
X134688789Y-129119314D01*
X134663140Y-129096615D01*
X134613460Y-129080940D01*
X134559031Y-129073695D01*
X134475264Y-129059873D01*
X134413033Y-129033796D01*
X134371507Y-128994699D01*
X134349853Y-128941820D01*
X134346853Y-128879126D01*
X134361671Y-128813642D01*
X134395454Y-128764144D01*
X134448505Y-128730408D01*
X134521126Y-128712207D01*
X134574928Y-128708639D01*
X134634017Y-128710452D01*
G37*
X134634017Y-128710452D02*
X134681634Y-128719482D01*
X134731034Y-128738370D01*
X134736312Y-128740777D01*
X134773774Y-128760476D01*
X134799717Y-128778781D01*
X134808103Y-128790508D01*
X134800117Y-128809632D01*
X134780720Y-128837850D01*
X134772110Y-128848384D01*
X134736628Y-128889847D01*
X134690885Y-128862858D01*
X134647350Y-128844878D01*
X134597050Y-128835267D01*
X134548812Y-128834660D01*
X134511467Y-128843691D01*
X134502505Y-128849327D01*
X134485437Y-128875171D01*
X134483363Y-128904941D01*
X134496134Y-128928197D01*
X134503688Y-128932708D01*
X134526325Y-128938309D01*
X134566115Y-128944892D01*
X134615166Y-128951183D01*
X134624215Y-128952170D01*
X134702996Y-128965798D01*
X134760136Y-128988946D01*
X134798030Y-129023752D01*
X134819079Y-129072354D01*
X134825635Y-129131718D01*
X134816577Y-129199198D01*
X134787164Y-129252188D01*
X134737278Y-129290783D01*
X134666800Y-129315081D01*
X134588565Y-129324667D01*
X134524766Y-129324552D01*
X134473016Y-129315845D01*
X134437673Y-129303825D01*
X134393017Y-129282880D01*
X134351747Y-129258574D01*
X134337079Y-129247876D01*
X134299357Y-129217084D01*
X134344852Y-129171049D01*
X134390347Y-129125013D01*
X134442072Y-129159243D01*
X134493952Y-129184952D01*
X134549351Y-129198399D01*
X134602605Y-129199818D01*
X134648049Y-129189443D01*
X134680016Y-129167507D01*
X134690338Y-129148998D01*
X134688789Y-129119314D01*
X134663140Y-129096615D01*
X134613460Y-129080940D01*
X134559031Y-129073695D01*
X134475264Y-129059873D01*
X134413033Y-129033796D01*
X134371507Y-128994699D01*
X134349853Y-128941820D01*
X134346853Y-128879126D01*
X134361671Y-128813642D01*
X134395454Y-128764144D01*
X134448505Y-128730408D01*
X134521126Y-128712207D01*
X134574928Y-128708639D01*
X134634017Y-128710452D01*
G36*
X133263301Y-128726614D02*
G01*
X133275832Y-128732514D01*
X133319201Y-128764283D01*
X133360210Y-128810646D01*
X133390832Y-128861696D01*
X133399541Y-128885166D01*
X133407488Y-128927091D01*
X133412226Y-128977757D01*
X133412801Y-128998679D01*
X133412871Y-129064693D01*
X133032917Y-129064693D01*
X133041017Y-129099273D01*
X133060896Y-129140170D01*
X133095653Y-129175514D01*
X133137002Y-129198282D01*
X133163351Y-129203010D01*
X133199084Y-129197273D01*
X133241718Y-129182882D01*
X133256201Y-129176262D01*
X133309760Y-129149513D01*
X133355467Y-129184376D01*
X133381842Y-129207955D01*
X133395876Y-129227417D01*
X133396586Y-129233129D01*
X133384049Y-129246973D01*
X133356572Y-129268012D01*
X133331634Y-129284425D01*
X133264336Y-129313930D01*
X133188890Y-129327284D01*
X133114112Y-129323812D01*
X133054505Y-129305663D01*
X132993059Y-129266784D01*
X132949392Y-129215595D01*
X132922074Y-129149367D01*
X132909678Y-129065371D01*
X132908579Y-129026936D01*
X132912978Y-128938861D01*
X132913518Y-128936299D01*
X133039418Y-128936299D01*
X133042885Y-128944558D01*
X133057137Y-128949113D01*
X133086530Y-128951065D01*
X133135425Y-128951517D01*
X133154252Y-128951525D01*
X133211533Y-128950843D01*
X133247859Y-128948364D01*
X133267396Y-128943443D01*
X133274310Y-128935434D01*
X133274555Y-128932862D01*
X133266664Y-128912423D01*
X133246915Y-128883789D01*
X133238425Y-128873763D01*
X133206906Y-128845408D01*
X133174051Y-128834259D01*
X133156349Y-128833327D01*
X133108461Y-128844981D01*
X133068301Y-128876285D01*
X133042827Y-128921752D01*
X133042375Y-128923233D01*
X133039418Y-128936299D01*
X132913518Y-128936299D01*
X132927608Y-128869510D01*
X132953962Y-128814025D01*
X132986193Y-128774639D01*
X133045783Y-128731931D01*
X133115832Y-128709109D01*
X133190339Y-128707046D01*
X133263301Y-128726614D01*
G37*
X133263301Y-128726614D02*
X133275832Y-128732514D01*
X133319201Y-128764283D01*
X133360210Y-128810646D01*
X133390832Y-128861696D01*
X133399541Y-128885166D01*
X133407488Y-128927091D01*
X133412226Y-128977757D01*
X133412801Y-128998679D01*
X133412871Y-129064693D01*
X133032917Y-129064693D01*
X133041017Y-129099273D01*
X133060896Y-129140170D01*
X133095653Y-129175514D01*
X133137002Y-129198282D01*
X133163351Y-129203010D01*
X133199084Y-129197273D01*
X133241718Y-129182882D01*
X133256201Y-129176262D01*
X133309760Y-129149513D01*
X133355467Y-129184376D01*
X133381842Y-129207955D01*
X133395876Y-129227417D01*
X133396586Y-129233129D01*
X133384049Y-129246973D01*
X133356572Y-129268012D01*
X133331634Y-129284425D01*
X133264336Y-129313930D01*
X133188890Y-129327284D01*
X133114112Y-129323812D01*
X133054505Y-129305663D01*
X132993059Y-129266784D01*
X132949392Y-129215595D01*
X132922074Y-129149367D01*
X132909678Y-129065371D01*
X132908579Y-129026936D01*
X132912978Y-128938861D01*
X132913518Y-128936299D01*
X133039418Y-128936299D01*
X133042885Y-128944558D01*
X133057137Y-128949113D01*
X133086530Y-128951065D01*
X133135425Y-128951517D01*
X133154252Y-128951525D01*
X133211533Y-128950843D01*
X133247859Y-128948364D01*
X133267396Y-128943443D01*
X133274310Y-128935434D01*
X133274555Y-128932862D01*
X133266664Y-128912423D01*
X133246915Y-128883789D01*
X133238425Y-128873763D01*
X133206906Y-128845408D01*
X133174051Y-128834259D01*
X133156349Y-128833327D01*
X133108461Y-128844981D01*
X133068301Y-128876285D01*
X133042827Y-128921752D01*
X133042375Y-128923233D01*
X133039418Y-128936299D01*
X132913518Y-128936299D01*
X132927608Y-128869510D01*
X132953962Y-128814025D01*
X132986193Y-128774639D01*
X133045783Y-128731931D01*
X133115832Y-128709109D01*
X133190339Y-128707046D01*
X133263301Y-128726614D01*
G36*
X132081739Y-128719148D02*
G01*
X132147521Y-128748231D01*
X132197460Y-128796793D01*
X132231626Y-128864908D01*
X132250093Y-128952651D01*
X132251417Y-128966351D01*
X132252454Y-129062939D01*
X132239007Y-129147602D01*
X132211892Y-129216221D01*
X132197373Y-129238294D01*
X132146799Y-129285011D01*
X132082391Y-129315268D01*
X132010334Y-129327824D01*
X131936815Y-129321439D01*
X131880928Y-129301772D01*
X131832868Y-129268629D01*
X131793588Y-129225175D01*
X131792908Y-129224158D01*
X131776956Y-129197338D01*
X131766590Y-129170368D01*
X131760312Y-129136332D01*
X131756627Y-129088310D01*
X131755003Y-129048931D01*
X131754328Y-129013219D01*
X131880045Y-129013219D01*
X131881274Y-129048770D01*
X131885734Y-129096094D01*
X131893603Y-129126465D01*
X131907793Y-129148072D01*
X131921083Y-129160694D01*
X131968198Y-129187122D01*
X132017495Y-129190653D01*
X132063407Y-129171639D01*
X132086362Y-129150331D01*
X132102904Y-129128859D01*
X132112579Y-129108313D01*
X132116826Y-129081574D01*
X132117080Y-129041523D01*
X132115772Y-129004638D01*
X132112957Y-128951947D01*
X132108495Y-128917772D01*
X132100452Y-128895480D01*
X132086897Y-128878442D01*
X132076155Y-128868703D01*
X132031223Y-128843123D01*
X131982751Y-128841847D01*
X131942106Y-128856999D01*
X131907433Y-128888642D01*
X131886776Y-128940620D01*
X131880045Y-129013219D01*
X131754328Y-129013219D01*
X131753521Y-128970621D01*
X131756052Y-128912056D01*
X131763638Y-128868007D01*
X131777319Y-128833248D01*
X131798135Y-128802551D01*
X131805853Y-128793436D01*
X131854111Y-128748021D01*
X131905872Y-128721493D01*
X131969172Y-128710379D01*
X132000039Y-128709471D01*
X132081739Y-128719148D01*
G37*
X132081739Y-128719148D02*
X132147521Y-128748231D01*
X132197460Y-128796793D01*
X132231626Y-128864908D01*
X132250093Y-128952651D01*
X132251417Y-128966351D01*
X132252454Y-129062939D01*
X132239007Y-129147602D01*
X132211892Y-129216221D01*
X132197373Y-129238294D01*
X132146799Y-129285011D01*
X132082391Y-129315268D01*
X132010334Y-129327824D01*
X131936815Y-129321439D01*
X131880928Y-129301772D01*
X131832868Y-129268629D01*
X131793588Y-129225175D01*
X131792908Y-129224158D01*
X131776956Y-129197338D01*
X131766590Y-129170368D01*
X131760312Y-129136332D01*
X131756627Y-129088310D01*
X131755003Y-129048931D01*
X131754328Y-129013219D01*
X131880045Y-129013219D01*
X131881274Y-129048770D01*
X131885734Y-129096094D01*
X131893603Y-129126465D01*
X131907793Y-129148072D01*
X131921083Y-129160694D01*
X131968198Y-129187122D01*
X132017495Y-129190653D01*
X132063407Y-129171639D01*
X132086362Y-129150331D01*
X132102904Y-129128859D01*
X132112579Y-129108313D01*
X132116826Y-129081574D01*
X132117080Y-129041523D01*
X132115772Y-129004638D01*
X132112957Y-128951947D01*
X132108495Y-128917772D01*
X132100452Y-128895480D01*
X132086897Y-128878442D01*
X132076155Y-128868703D01*
X132031223Y-128843123D01*
X131982751Y-128841847D01*
X131942106Y-128856999D01*
X131907433Y-128888642D01*
X131886776Y-128940620D01*
X131880045Y-129013219D01*
X131754328Y-129013219D01*
X131753521Y-128970621D01*
X131756052Y-128912056D01*
X131763638Y-128868007D01*
X131777319Y-128833248D01*
X131798135Y-128802551D01*
X131805853Y-128793436D01*
X131854111Y-128748021D01*
X131905872Y-128721493D01*
X131969172Y-128710379D01*
X132000039Y-128709471D01*
X132081739Y-128719148D01*
G36*
X136652581Y-129658970D02*
G01*
X136712685Y-129674597D01*
X136763021Y-129706848D01*
X136787393Y-129730940D01*
X136827345Y-129787895D01*
X136850242Y-129853965D01*
X136858108Y-129935182D01*
X136858148Y-129941748D01*
X136858218Y-130007763D01*
X136478264Y-130007763D01*
X136486363Y-130042342D01*
X136500987Y-130073659D01*
X136526581Y-130106291D01*
X136531935Y-130111500D01*
X136577943Y-130139694D01*
X136630410Y-130144475D01*
X136690803Y-130125926D01*
X136701040Y-130120931D01*
X136732439Y-130105745D01*
X136753470Y-130097094D01*
X136757139Y-130096293D01*
X136769948Y-130104063D01*
X136794378Y-130123072D01*
X136806779Y-130133460D01*
X136832476Y-130157321D01*
X136840915Y-130173077D01*
X136835058Y-130187571D01*
X136831928Y-130191534D01*
X136810725Y-130208879D01*
X136775738Y-130229959D01*
X136751337Y-130242265D01*
X136682072Y-130263946D01*
X136605388Y-130270971D01*
X136532765Y-130262647D01*
X136512426Y-130256686D01*
X136449476Y-130222952D01*
X136402815Y-130171045D01*
X136372173Y-130100459D01*
X136357282Y-130010692D01*
X136355647Y-129963753D01*
X136360421Y-129895413D01*
X136480990Y-129895413D01*
X136492652Y-129900465D01*
X136523998Y-129904429D01*
X136569571Y-129906768D01*
X136600446Y-129907169D01*
X136655981Y-129906783D01*
X136691033Y-129904975D01*
X136710262Y-129900773D01*
X136718330Y-129893203D01*
X136719901Y-129882218D01*
X136709121Y-129848381D01*
X136681980Y-129814940D01*
X136646277Y-129789272D01*
X136610560Y-129778772D01*
X136562048Y-129788086D01*
X136520053Y-129815013D01*
X136490936Y-129853827D01*
X136480990Y-129895413D01*
X136360421Y-129895413D01*
X136362599Y-129864236D01*
X136384055Y-129784949D01*
X136420470Y-129725263D01*
X136472297Y-129684549D01*
X136539990Y-129662179D01*
X136576662Y-129657871D01*
X136652581Y-129658970D01*
G37*
X136652581Y-129658970D02*
X136712685Y-129674597D01*
X136763021Y-129706848D01*
X136787393Y-129730940D01*
X136827345Y-129787895D01*
X136850242Y-129853965D01*
X136858108Y-129935182D01*
X136858148Y-129941748D01*
X136858218Y-130007763D01*
X136478264Y-130007763D01*
X136486363Y-130042342D01*
X136500987Y-130073659D01*
X136526581Y-130106291D01*
X136531935Y-130111500D01*
X136577943Y-130139694D01*
X136630410Y-130144475D01*
X136690803Y-130125926D01*
X136701040Y-130120931D01*
X136732439Y-130105745D01*
X136753470Y-130097094D01*
X136757139Y-130096293D01*
X136769948Y-130104063D01*
X136794378Y-130123072D01*
X136806779Y-130133460D01*
X136832476Y-130157321D01*
X136840915Y-130173077D01*
X136835058Y-130187571D01*
X136831928Y-130191534D01*
X136810725Y-130208879D01*
X136775738Y-130229959D01*
X136751337Y-130242265D01*
X136682072Y-130263946D01*
X136605388Y-130270971D01*
X136532765Y-130262647D01*
X136512426Y-130256686D01*
X136449476Y-130222952D01*
X136402815Y-130171045D01*
X136372173Y-130100459D01*
X136357282Y-130010692D01*
X136355647Y-129963753D01*
X136360421Y-129895413D01*
X136480990Y-129895413D01*
X136492652Y-129900465D01*
X136523998Y-129904429D01*
X136569571Y-129906768D01*
X136600446Y-129907169D01*
X136655981Y-129906783D01*
X136691033Y-129904975D01*
X136710262Y-129900773D01*
X136718330Y-129893203D01*
X136719901Y-129882218D01*
X136709121Y-129848381D01*
X136681980Y-129814940D01*
X136646277Y-129789272D01*
X136610560Y-129778772D01*
X136562048Y-129788086D01*
X136520053Y-129815013D01*
X136490936Y-129853827D01*
X136480990Y-129895413D01*
X136360421Y-129895413D01*
X136362599Y-129864236D01*
X136384055Y-129784949D01*
X136420470Y-129725263D01*
X136472297Y-129684549D01*
X136539990Y-129662179D01*
X136576662Y-129657871D01*
X136652581Y-129658970D01*
G36*
X136255255Y-129655486D02*
G01*
X136303595Y-129665015D01*
X136331114Y-129679125D01*
X136360064Y-129702568D01*
X136318876Y-129754571D01*
X136293482Y-129786064D01*
X136276238Y-129801428D01*
X136259102Y-129803776D01*
X136234027Y-129796217D01*
X136222257Y-129791941D01*
X136174270Y-129785631D01*
X136130324Y-129799156D01*
X136098060Y-129829710D01*
X136092819Y-129839452D01*
X136087112Y-129865258D01*
X136082706Y-129912817D01*
X136079811Y-129978758D01*
X136078631Y-130059710D01*
X136078614Y-130071226D01*
X136078614Y-130271822D01*
X135940297Y-130271822D01*
X135940297Y-129655683D01*
X136009456Y-129655683D01*
X136049333Y-129656725D01*
X136070107Y-129661358D01*
X136077789Y-129671849D01*
X136078614Y-129681745D01*
X136078614Y-129707806D01*
X136111745Y-129681745D01*
X136149735Y-129663965D01*
X136200770Y-129655174D01*
X136255255Y-129655486D01*
G37*
X136255255Y-129655486D02*
X136303595Y-129665015D01*
X136331114Y-129679125D01*
X136360064Y-129702568D01*
X136318876Y-129754571D01*
X136293482Y-129786064D01*
X136276238Y-129801428D01*
X136259102Y-129803776D01*
X136234027Y-129796217D01*
X136222257Y-129791941D01*
X136174270Y-129785631D01*
X136130324Y-129799156D01*
X136098060Y-129829710D01*
X136092819Y-129839452D01*
X136087112Y-129865258D01*
X136082706Y-129912817D01*
X136079811Y-129978758D01*
X136078631Y-130059710D01*
X136078614Y-130071226D01*
X136078614Y-130271822D01*
X135940297Y-130271822D01*
X135940297Y-129655683D01*
X136009456Y-129655683D01*
X136049333Y-129656725D01*
X136070107Y-129661358D01*
X136077789Y-129671849D01*
X136078614Y-129681745D01*
X136078614Y-129707806D01*
X136111745Y-129681745D01*
X136149735Y-129663965D01*
X136200770Y-129655174D01*
X136255255Y-129655486D01*
G36*
X135658411Y-129659417D02*
G01*
X135711411Y-129672290D01*
X135726731Y-129679110D01*
X135756428Y-129696974D01*
X135779220Y-129717093D01*
X135796083Y-129742962D01*
X135807998Y-129778073D01*
X135815942Y-129825920D01*
X135820894Y-129889996D01*
X135823831Y-129973794D01*
X135824947Y-130029768D01*
X135829052Y-130271822D01*
X135758932Y-130271822D01*
X135716393Y-130270038D01*
X135694476Y-130263942D01*
X135688812Y-130253706D01*
X135685821Y-130242637D01*
X135672451Y-130244754D01*
X135654233Y-130253629D01*
X135608624Y-130267233D01*
X135550007Y-130270899D01*
X135488354Y-130264903D01*
X135433638Y-130249521D01*
X135428730Y-130247386D01*
X135378723Y-130212255D01*
X135345756Y-130163419D01*
X135330587Y-130106333D01*
X135331746Y-130085824D01*
X135455508Y-130085824D01*
X135466413Y-130113425D01*
X135498745Y-130133204D01*
X135550910Y-130143819D01*
X135578787Y-130145228D01*
X135625247Y-130141620D01*
X135656129Y-130127597D01*
X135663664Y-130120931D01*
X135684076Y-130084666D01*
X135688812Y-130051773D01*
X135688812Y-130007763D01*
X135627513Y-130007763D01*
X135556256Y-130011395D01*
X135506276Y-130022818D01*
X135474696Y-130042824D01*
X135467626Y-130051743D01*
X135455508Y-130085824D01*
X135331746Y-130085824D01*
X135333971Y-130046456D01*
X135356663Y-129989244D01*
X135387624Y-129950580D01*
X135406376Y-129933864D01*
X135424733Y-129922878D01*
X135448619Y-129916180D01*
X135483957Y-129912326D01*
X135536669Y-129909873D01*
X135557577Y-129909168D01*
X135688812Y-129904879D01*
X135688620Y-129865158D01*
X135683537Y-129823405D01*
X135665162Y-129798158D01*
X135628039Y-129782030D01*
X135627043Y-129781742D01*
X135574410Y-129775400D01*
X135522906Y-129783684D01*
X135484630Y-129803827D01*
X135469272Y-129813773D01*
X135452730Y-129812397D01*
X135427275Y-129797987D01*
X135412328Y-129787817D01*
X135383091Y-129766088D01*
X135364980Y-129749800D01*
X135362074Y-129745137D01*
X135374040Y-129721005D01*
X135409396Y-129692185D01*
X135424753Y-129682461D01*
X135468901Y-129665714D01*
X135528398Y-129656227D01*
X135594487Y-129654095D01*
X135658411Y-129659417D01*
G37*
X135658411Y-129659417D02*
X135711411Y-129672290D01*
X135726731Y-129679110D01*
X135756428Y-129696974D01*
X135779220Y-129717093D01*
X135796083Y-129742962D01*
X135807998Y-129778073D01*
X135815942Y-129825920D01*
X135820894Y-129889996D01*
X135823831Y-129973794D01*
X135824947Y-130029768D01*
X135829052Y-130271822D01*
X135758932Y-130271822D01*
X135716393Y-130270038D01*
X135694476Y-130263942D01*
X135688812Y-130253706D01*
X135685821Y-130242637D01*
X135672451Y-130244754D01*
X135654233Y-130253629D01*
X135608624Y-130267233D01*
X135550007Y-130270899D01*
X135488354Y-130264903D01*
X135433638Y-130249521D01*
X135428730Y-130247386D01*
X135378723Y-130212255D01*
X135345756Y-130163419D01*
X135330587Y-130106333D01*
X135331746Y-130085824D01*
X135455508Y-130085824D01*
X135466413Y-130113425D01*
X135498745Y-130133204D01*
X135550910Y-130143819D01*
X135578787Y-130145228D01*
X135625247Y-130141620D01*
X135656129Y-130127597D01*
X135663664Y-130120931D01*
X135684076Y-130084666D01*
X135688812Y-130051773D01*
X135688812Y-130007763D01*
X135627513Y-130007763D01*
X135556256Y-130011395D01*
X135506276Y-130022818D01*
X135474696Y-130042824D01*
X135467626Y-130051743D01*
X135455508Y-130085824D01*
X135331746Y-130085824D01*
X135333971Y-130046456D01*
X135356663Y-129989244D01*
X135387624Y-129950580D01*
X135406376Y-129933864D01*
X135424733Y-129922878D01*
X135448619Y-129916180D01*
X135483957Y-129912326D01*
X135536669Y-129909873D01*
X135557577Y-129909168D01*
X135688812Y-129904879D01*
X135688620Y-129865158D01*
X135683537Y-129823405D01*
X135665162Y-129798158D01*
X135628039Y-129782030D01*
X135627043Y-129781742D01*
X135574410Y-129775400D01*
X135522906Y-129783684D01*
X135484630Y-129803827D01*
X135469272Y-129813773D01*
X135452730Y-129812397D01*
X135427275Y-129797987D01*
X135412328Y-129787817D01*
X135383091Y-129766088D01*
X135364980Y-129749800D01*
X135362074Y-129745137D01*
X135374040Y-129721005D01*
X135409396Y-129692185D01*
X135424753Y-129682461D01*
X135468901Y-129665714D01*
X135528398Y-129656227D01*
X135594487Y-129654095D01*
X135658411Y-129659417D01*
G36*
X134901524Y-129658237D02*
G01*
X134951255Y-129661971D01*
X135081291Y-130051773D01*
X135101678Y-129982614D01*
X135113946Y-129939874D01*
X135130085Y-129882115D01*
X135147512Y-129818625D01*
X135156726Y-129784570D01*
X135191388Y-129655683D01*
X135334391Y-129655683D01*
X135291646Y-129790857D01*
X135270596Y-129857342D01*
X135245167Y-129937539D01*
X135218610Y-130021193D01*
X135194902Y-130095782D01*
X135140902Y-130265535D01*
X135082598Y-130269328D01*
X135024295Y-130273122D01*
X134992679Y-130168734D01*
X134973182Y-130103889D01*
X134951904Y-130032400D01*
X134933308Y-129969263D01*
X134932574Y-129966750D01*
X134918684Y-129923969D01*
X134906429Y-129894779D01*
X134897846Y-129883741D01*
X134896082Y-129885018D01*
X134889891Y-129902130D01*
X134878128Y-129938787D01*
X134862225Y-129990378D01*
X134843614Y-130052294D01*
X134833543Y-130086352D01*
X134779007Y-130271822D01*
X134663264Y-130271822D01*
X134570737Y-129979471D01*
X134544744Y-129897462D01*
X134521066Y-129822987D01*
X134500820Y-129759544D01*
X134485126Y-129710632D01*
X134475102Y-129679749D01*
X134472055Y-129670726D01*
X134474467Y-129661487D01*
X134493408Y-129657441D01*
X134532823Y-129657846D01*
X134538993Y-129658152D01*
X134612086Y-129661971D01*
X134659957Y-129838010D01*
X134677553Y-129902211D01*
X134693277Y-129958649D01*
X134705746Y-130002422D01*
X134713574Y-130028630D01*
X134715020Y-130032903D01*
X134721014Y-130027990D01*
X134733101Y-130002532D01*
X134749893Y-129959997D01*
X134770003Y-129903850D01*
X134787003Y-129853130D01*
X134851794Y-129654504D01*
X134901524Y-129658237D01*
G37*
X134901524Y-129658237D02*
X134951255Y-129661971D01*
X135081291Y-130051773D01*
X135101678Y-129982614D01*
X135113946Y-129939874D01*
X135130085Y-129882115D01*
X135147512Y-129818625D01*
X135156726Y-129784570D01*
X135191388Y-129655683D01*
X135334391Y-129655683D01*
X135291646Y-129790857D01*
X135270596Y-129857342D01*
X135245167Y-129937539D01*
X135218610Y-130021193D01*
X135194902Y-130095782D01*
X135140902Y-130265535D01*
X135082598Y-130269328D01*
X135024295Y-130273122D01*
X134992679Y-130168734D01*
X134973182Y-130103889D01*
X134951904Y-130032400D01*
X134933308Y-129969263D01*
X134932574Y-129966750D01*
X134918684Y-129923969D01*
X134906429Y-129894779D01*
X134897846Y-129883741D01*
X134896082Y-129885018D01*
X134889891Y-129902130D01*
X134878128Y-129938787D01*
X134862225Y-129990378D01*
X134843614Y-130052294D01*
X134833543Y-130086352D01*
X134779007Y-130271822D01*
X134663264Y-130271822D01*
X134570737Y-129979471D01*
X134544744Y-129897462D01*
X134521066Y-129822987D01*
X134500820Y-129759544D01*
X134485126Y-129710632D01*
X134475102Y-129679749D01*
X134472055Y-129670726D01*
X134474467Y-129661487D01*
X134493408Y-129657441D01*
X134532823Y-129657846D01*
X134538993Y-129658152D01*
X134612086Y-129661971D01*
X134659957Y-129838010D01*
X134677553Y-129902211D01*
X134693277Y-129958649D01*
X134705746Y-130002422D01*
X134713574Y-130028630D01*
X134715020Y-130032903D01*
X134721014Y-130027990D01*
X134733101Y-130002532D01*
X134749893Y-129959997D01*
X134770003Y-129903850D01*
X134787003Y-129853130D01*
X134851794Y-129654504D01*
X134901524Y-129658237D01*
G36*
X134418812Y-130271822D02*
G01*
X134349654Y-130271822D01*
X134309512Y-130270645D01*
X134288606Y-130265772D01*
X134281078Y-130255186D01*
X134280495Y-130248029D01*
X134279226Y-130233676D01*
X134271221Y-130230923D01*
X134250185Y-130239771D01*
X134233827Y-130248029D01*
X134171023Y-130267597D01*
X134102752Y-130268729D01*
X134047248Y-130254135D01*
X133995562Y-130218877D01*
X133956162Y-130166835D01*
X133934587Y-130105450D01*
X133934038Y-130102018D01*
X133930833Y-130064571D01*
X133929239Y-130010813D01*
X133929367Y-129970155D01*
X134066721Y-129970155D01*
X134069903Y-130024194D01*
X134077141Y-130068735D01*
X134086940Y-130093888D01*
X134124011Y-130128260D01*
X134168026Y-130140582D01*
X134213416Y-130130618D01*
X134252203Y-130100895D01*
X134266892Y-130080905D01*
X134275481Y-130057050D01*
X134279504Y-130022230D01*
X134280495Y-129969930D01*
X134278722Y-129918139D01*
X134274037Y-129872634D01*
X134267397Y-129842181D01*
X134266290Y-129839452D01*
X134239509Y-129807000D01*
X134200421Y-129789183D01*
X134156685Y-129786306D01*
X134115962Y-129798674D01*
X134085913Y-129826593D01*
X134082796Y-129832148D01*
X134073039Y-129866022D01*
X134067723Y-129914728D01*
X134066721Y-129970155D01*
X133929367Y-129970155D01*
X133929432Y-129949540D01*
X133930336Y-129916563D01*
X133936486Y-129834981D01*
X133949267Y-129773730D01*
X133970529Y-129728449D01*
X134002122Y-129694779D01*
X134032793Y-129675014D01*
X134075646Y-129661120D01*
X134128944Y-129656354D01*
X134183520Y-129660236D01*
X134230208Y-129672282D01*
X134254876Y-129686693D01*
X134280495Y-129709878D01*
X134280495Y-129416773D01*
X134418812Y-129416773D01*
X134418812Y-130271822D01*
G37*
X134418812Y-130271822D02*
X134349654Y-130271822D01*
X134309512Y-130270645D01*
X134288606Y-130265772D01*
X134281078Y-130255186D01*
X134280495Y-130248029D01*
X134279226Y-130233676D01*
X134271221Y-130230923D01*
X134250185Y-130239771D01*
X134233827Y-130248029D01*
X134171023Y-130267597D01*
X134102752Y-130268729D01*
X134047248Y-130254135D01*
X133995562Y-130218877D01*
X133956162Y-130166835D01*
X133934587Y-130105450D01*
X133934038Y-130102018D01*
X133930833Y-130064571D01*
X133929239Y-130010813D01*
X133929367Y-129970155D01*
X134066721Y-129970155D01*
X134069903Y-130024194D01*
X134077141Y-130068735D01*
X134086940Y-130093888D01*
X134124011Y-130128260D01*
X134168026Y-130140582D01*
X134213416Y-130130618D01*
X134252203Y-130100895D01*
X134266892Y-130080905D01*
X134275481Y-130057050D01*
X134279504Y-130022230D01*
X134280495Y-129969930D01*
X134278722Y-129918139D01*
X134274037Y-129872634D01*
X134267397Y-129842181D01*
X134266290Y-129839452D01*
X134239509Y-129807000D01*
X134200421Y-129789183D01*
X134156685Y-129786306D01*
X134115962Y-129798674D01*
X134085913Y-129826593D01*
X134082796Y-129832148D01*
X134073039Y-129866022D01*
X134067723Y-129914728D01*
X134066721Y-129970155D01*
X133929367Y-129970155D01*
X133929432Y-129949540D01*
X133930336Y-129916563D01*
X133936486Y-129834981D01*
X133949267Y-129773730D01*
X133970529Y-129728449D01*
X134002122Y-129694779D01*
X134032793Y-129675014D01*
X134075646Y-129661120D01*
X134128944Y-129656354D01*
X134183520Y-129660236D01*
X134230208Y-129672282D01*
X134254876Y-129686693D01*
X134280495Y-129709878D01*
X134280495Y-129416773D01*
X134418812Y-129416773D01*
X134418812Y-130271822D01*
G36*
X133626644Y-129657020D02*
G01*
X133645461Y-129662660D01*
X133651527Y-129675053D01*
X133651782Y-129680647D01*
X133652871Y-129696230D01*
X133660368Y-129698676D01*
X133680619Y-129687993D01*
X133692649Y-129680694D01*
X133730600Y-129665063D01*
X133775928Y-129657334D01*
X133823456Y-129656740D01*
X133868005Y-129662513D01*
X133904398Y-129673884D01*
X133927457Y-129690088D01*
X133932004Y-129710355D01*
X133929709Y-129715843D01*
X133912980Y-129738626D01*
X133887037Y-129766647D01*
X133882345Y-129771177D01*
X133857617Y-129792005D01*
X133836282Y-129798735D01*
X133806445Y-129794038D01*
X133794492Y-129790917D01*
X133757295Y-129783421D01*
X133731141Y-129786792D01*
X133709054Y-129798681D01*
X133688822Y-129814635D01*
X133673921Y-129834700D01*
X133663566Y-129862702D01*
X133656971Y-129902467D01*
X133653351Y-129957823D01*
X133651922Y-130032594D01*
X133651782Y-130077740D01*
X133651782Y-130271822D01*
X133526040Y-130271822D01*
X133526040Y-129655683D01*
X133588911Y-129655683D01*
X133626644Y-129657020D01*
G37*
X133626644Y-129657020D02*
X133645461Y-129662660D01*
X133651527Y-129675053D01*
X133651782Y-129680647D01*
X133652871Y-129696230D01*
X133660368Y-129698676D01*
X133680619Y-129687993D01*
X133692649Y-129680694D01*
X133730600Y-129665063D01*
X133775928Y-129657334D01*
X133823456Y-129656740D01*
X133868005Y-129662513D01*
X133904398Y-129673884D01*
X133927457Y-129690088D01*
X133932004Y-129710355D01*
X133929709Y-129715843D01*
X133912980Y-129738626D01*
X133887037Y-129766647D01*
X133882345Y-129771177D01*
X133857617Y-129792005D01*
X133836282Y-129798735D01*
X133806445Y-129794038D01*
X133794492Y-129790917D01*
X133757295Y-129783421D01*
X133731141Y-129786792D01*
X133709054Y-129798681D01*
X133688822Y-129814635D01*
X133673921Y-129834700D01*
X133663566Y-129862702D01*
X133656971Y-129902467D01*
X133653351Y-129957823D01*
X133651922Y-130032594D01*
X133651782Y-130077740D01*
X133651782Y-130271822D01*
X133526040Y-130271822D01*
X133526040Y-129655683D01*
X133588911Y-129655683D01*
X133626644Y-129657020D01*
G36*
X133235790Y-129660555D02*
G01*
X133294945Y-129676339D01*
X133339977Y-129704948D01*
X133371754Y-129742419D01*
X133381634Y-129758411D01*
X133388927Y-129775163D01*
X133394026Y-129796592D01*
X133397321Y-129826616D01*
X133399203Y-129869154D01*
X133400063Y-129928122D01*
X133400293Y-130007440D01*
X133400297Y-130028484D01*
X133400297Y-130271822D01*
X133339941Y-130271822D01*
X133301443Y-130269126D01*
X133272977Y-130262295D01*
X133265845Y-130258083D01*
X133246348Y-130250813D01*
X133226434Y-130258083D01*
X133193647Y-130267160D01*
X133146022Y-130270813D01*
X133093236Y-130269228D01*
X133044964Y-130262589D01*
X133016782Y-130254072D01*
X132962247Y-130219063D01*
X132928165Y-130170479D01*
X132912843Y-130105882D01*
X132912701Y-130104223D01*
X132914045Y-130075566D01*
X133035644Y-130075566D01*
X133046274Y-130108161D01*
X133063590Y-130126505D01*
X133098348Y-130140379D01*
X133144227Y-130145917D01*
X133191012Y-130143191D01*
X133228486Y-130132274D01*
X133238985Y-130125269D01*
X133257332Y-130092904D01*
X133261980Y-130056111D01*
X133261980Y-130007763D01*
X133192418Y-130007763D01*
X133126333Y-130012850D01*
X133076236Y-130027263D01*
X133045071Y-130049729D01*
X133035644Y-130075566D01*
X132914045Y-130075566D01*
X132916013Y-130033647D01*
X132939290Y-129977845D01*
X132983052Y-129935647D01*
X132989101Y-129931808D01*
X133015093Y-129919309D01*
X133047265Y-129911740D01*
X133092240Y-129908061D01*
X133145669Y-129907216D01*
X133261980Y-129907169D01*
X133261980Y-129858411D01*
X133257047Y-129820581D01*
X133244457Y-129795236D01*
X133242983Y-129793887D01*
X133214966Y-129782800D01*
X133172674Y-129778503D01*
X133125936Y-129780615D01*
X133084582Y-129788756D01*
X133060043Y-129800965D01*
X133046747Y-129810746D01*
X133032706Y-129812613D01*
X133013329Y-129804600D01*
X132984024Y-129784739D01*
X132940197Y-129751063D01*
X132936175Y-129747909D01*
X132938236Y-129736236D01*
X132955432Y-129716822D01*
X132981567Y-129695248D01*
X133010448Y-129677096D01*
X133019522Y-129672809D01*
X133052620Y-129664256D01*
X133101120Y-129658155D01*
X133155305Y-129655708D01*
X133157839Y-129655703D01*
X133235790Y-129660555D01*
G37*
X133235790Y-129660555D02*
X133294945Y-129676339D01*
X133339977Y-129704948D01*
X133371754Y-129742419D01*
X133381634Y-129758411D01*
X133388927Y-129775163D01*
X133394026Y-129796592D01*
X133397321Y-129826616D01*
X133399203Y-129869154D01*
X133400063Y-129928122D01*
X133400293Y-130007440D01*
X133400297Y-130028484D01*
X133400297Y-130271822D01*
X133339941Y-130271822D01*
X133301443Y-130269126D01*
X133272977Y-130262295D01*
X133265845Y-130258083D01*
X133246348Y-130250813D01*
X133226434Y-130258083D01*
X133193647Y-130267160D01*
X133146022Y-130270813D01*
X133093236Y-130269228D01*
X133044964Y-130262589D01*
X133016782Y-130254072D01*
X132962247Y-130219063D01*
X132928165Y-130170479D01*
X132912843Y-130105882D01*
X132912701Y-130104223D01*
X132914045Y-130075566D01*
X133035644Y-130075566D01*
X133046274Y-130108161D01*
X133063590Y-130126505D01*
X133098348Y-130140379D01*
X133144227Y-130145917D01*
X133191012Y-130143191D01*
X133228486Y-130132274D01*
X133238985Y-130125269D01*
X133257332Y-130092904D01*
X133261980Y-130056111D01*
X133261980Y-130007763D01*
X133192418Y-130007763D01*
X133126333Y-130012850D01*
X133076236Y-130027263D01*
X133045071Y-130049729D01*
X133035644Y-130075566D01*
X132914045Y-130075566D01*
X132916013Y-130033647D01*
X132939290Y-129977845D01*
X132983052Y-129935647D01*
X132989101Y-129931808D01*
X133015093Y-129919309D01*
X133047265Y-129911740D01*
X133092240Y-129908061D01*
X133145669Y-129907216D01*
X133261980Y-129907169D01*
X133261980Y-129858411D01*
X133257047Y-129820581D01*
X133244457Y-129795236D01*
X133242983Y-129793887D01*
X133214966Y-129782800D01*
X133172674Y-129778503D01*
X133125936Y-129780615D01*
X133084582Y-129788756D01*
X133060043Y-129800965D01*
X133046747Y-129810746D01*
X133032706Y-129812613D01*
X133013329Y-129804600D01*
X132984024Y-129784739D01*
X132940197Y-129751063D01*
X132936175Y-129747909D01*
X132938236Y-129736236D01*
X132955432Y-129716822D01*
X132981567Y-129695248D01*
X133010448Y-129677096D01*
X133019522Y-129672809D01*
X133052620Y-129664256D01*
X133101120Y-129658155D01*
X133155305Y-129655708D01*
X133157839Y-129655703D01*
X133235790Y-129660555D01*
G36*
X132711241Y-128723184D02*
G01*
X132737753Y-128736282D01*
X132770447Y-128759106D01*
X132794275Y-128783996D01*
X132810594Y-128815249D01*
X132820760Y-128857166D01*
X132826128Y-128914044D01*
X132828056Y-128990184D01*
X132828169Y-129022917D01*
X132827839Y-129094656D01*
X132826473Y-129145927D01*
X132823500Y-129181404D01*
X132818351Y-129205763D01*
X132810457Y-129223680D01*
X132802243Y-129235902D01*
X132749813Y-129287905D01*
X132688070Y-129319184D01*
X132621464Y-129328592D01*
X132554442Y-129314980D01*
X132533208Y-129305354D01*
X132482376Y-129278859D01*
X132482376Y-129694052D01*
X132519475Y-129674868D01*
X132568357Y-129660025D01*
X132628439Y-129656222D01*
X132688436Y-129663243D01*
X132733744Y-129679013D01*
X132771325Y-129709047D01*
X132803436Y-129752024D01*
X132805850Y-129756436D01*
X132816033Y-129777221D01*
X132823470Y-129798170D01*
X132828589Y-129823548D01*
X132831819Y-129857618D01*
X132833587Y-129904641D01*
X132834323Y-129968882D01*
X132834456Y-130041176D01*
X132834456Y-130271822D01*
X132696139Y-130271822D01*
X132696139Y-129846533D01*
X132657451Y-129813979D01*
X132617262Y-129787940D01*
X132579203Y-129783205D01*
X132540934Y-129795389D01*
X132520538Y-129807320D01*
X132505358Y-129824313D01*
X132494562Y-129849995D01*
X132487317Y-129887991D01*
X132482792Y-129941926D01*
X132480156Y-130015425D01*
X132479228Y-130064347D01*
X132476089Y-130265535D01*
X132410074Y-130269336D01*
X132344060Y-130273136D01*
X132344060Y-129024650D01*
X132482376Y-129024650D01*
X132485903Y-129094254D01*
X132497785Y-129142569D01*
X132519980Y-129172631D01*
X132554441Y-129187471D01*
X132589258Y-129190436D01*
X132628671Y-129187028D01*
X132654829Y-129173617D01*
X132671186Y-129155896D01*
X132684063Y-129136835D01*
X132691728Y-129115601D01*
X132695139Y-129085849D01*
X132695251Y-129041236D01*
X132694103Y-129003880D01*
X132691468Y-128947604D01*
X132687544Y-128910658D01*
X132680937Y-128887223D01*
X132670251Y-128871480D01*
X132660167Y-128862380D01*
X132618030Y-128842537D01*
X132568160Y-128839332D01*
X132539524Y-128846168D01*
X132511172Y-128870464D01*
X132492391Y-128917728D01*
X132483288Y-128987624D01*
X132482376Y-129024650D01*
X132344060Y-129024650D01*
X132344060Y-128712614D01*
X132413218Y-128712614D01*
X132454740Y-128714256D01*
X132476162Y-128720087D01*
X132482374Y-128731461D01*
X132482376Y-128731798D01*
X132485258Y-128742938D01*
X132497970Y-128741673D01*
X132523243Y-128729433D01*
X132582131Y-128710707D01*
X132648385Y-128708739D01*
X132711241Y-128723184D01*
G37*
X132711241Y-128723184D02*
X132737753Y-128736282D01*
X132770447Y-128759106D01*
X132794275Y-128783996D01*
X132810594Y-128815249D01*
X132820760Y-128857166D01*
X132826128Y-128914044D01*
X132828056Y-128990184D01*
X132828169Y-129022917D01*
X132827839Y-129094656D01*
X132826473Y-129145927D01*
X132823500Y-129181404D01*
X132818351Y-129205763D01*
X132810457Y-129223680D01*
X132802243Y-129235902D01*
X132749813Y-129287905D01*
X132688070Y-129319184D01*
X132621464Y-129328592D01*
X132554442Y-129314980D01*
X132533208Y-129305354D01*
X132482376Y-129278859D01*
X132482376Y-129694052D01*
X132519475Y-129674868D01*
X132568357Y-129660025D01*
X132628439Y-129656222D01*
X132688436Y-129663243D01*
X132733744Y-129679013D01*
X132771325Y-129709047D01*
X132803436Y-129752024D01*
X132805850Y-129756436D01*
X132816033Y-129777221D01*
X132823470Y-129798170D01*
X132828589Y-129823548D01*
X132831819Y-129857618D01*
X132833587Y-129904641D01*
X132834323Y-129968882D01*
X132834456Y-130041176D01*
X132834456Y-130271822D01*
X132696139Y-130271822D01*
X132696139Y-129846533D01*
X132657451Y-129813979D01*
X132617262Y-129787940D01*
X132579203Y-129783205D01*
X132540934Y-129795389D01*
X132520538Y-129807320D01*
X132505358Y-129824313D01*
X132494562Y-129849995D01*
X132487317Y-129887991D01*
X132482792Y-129941926D01*
X132480156Y-130015425D01*
X132479228Y-130064347D01*
X132476089Y-130265535D01*
X132410074Y-130269336D01*
X132344060Y-130273136D01*
X132344060Y-129024650D01*
X132482376Y-129024650D01*
X132485903Y-129094254D01*
X132497785Y-129142569D01*
X132519980Y-129172631D01*
X132554441Y-129187471D01*
X132589258Y-129190436D01*
X132628671Y-129187028D01*
X132654829Y-129173617D01*
X132671186Y-129155896D01*
X132684063Y-129136835D01*
X132691728Y-129115601D01*
X132695139Y-129085849D01*
X132695251Y-129041236D01*
X132694103Y-129003880D01*
X132691468Y-128947604D01*
X132687544Y-128910658D01*
X132680937Y-128887223D01*
X132670251Y-128871480D01*
X132660167Y-128862380D01*
X132618030Y-128842537D01*
X132568160Y-128839332D01*
X132539524Y-128846168D01*
X132511172Y-128870464D01*
X132492391Y-128917728D01*
X132483288Y-128987624D01*
X132482376Y-129024650D01*
X132344060Y-129024650D01*
X132344060Y-128712614D01*
X132413218Y-128712614D01*
X132454740Y-128714256D01*
X132476162Y-128720087D01*
X132482374Y-128731461D01*
X132482376Y-128731798D01*
X132485258Y-128742938D01*
X132497970Y-128741673D01*
X132523243Y-128729433D01*
X132582131Y-128710707D01*
X132648385Y-128708739D01*
X132711241Y-128723184D01*
D14*
X136147000Y-137076000D02*
X135797000Y-137586000D01*
X135947000Y-134566000D02*
X135947000Y-134306000D01*
X136147000Y-134766000D02*
X135947000Y-134566000D01*
X136147000Y-144166000D02*
X135947000Y-143956000D01*
X135797000Y-143956000D02*
X135947000Y-143956000D01*
X135797000Y-143956000D02*
X135797000Y-137586000D01*
X131187000Y-147056000D02*
X132987000Y-147056000D01*
X125187000Y-147056000D02*
X129887000Y-147056000D01*
X136147000Y-146026000D02*
X135947000Y-146226000D01*
X136147000Y-146026000D02*
X136147000Y-144166000D01*
X136147000Y-134766000D02*
X136147000Y-137076000D01*
X119877000Y-147056000D02*
X123487000Y-147056000D01*
X119877000Y-146606000D02*
X119877000Y-147056000D01*
X119877000Y-133086000D02*
X133887000Y-133086000D01*
X119877000Y-135006000D02*
X119877000Y-133086000D01*
D11*
X135027000Y-74067000D02*
X135027000Y-74242000D01*
X138277000Y-74067000D02*
X138277000Y-74342000D01*
X138277000Y-77317000D02*
X138277000Y-77042000D01*
X135027000Y-77317000D02*
X135027000Y-77042000D01*
X135027000Y-74067000D02*
X138277000Y-74067000D01*
X135027000Y-77317000D02*
X138277000Y-77317000D01*
X135027000Y-74242000D02*
X133952000Y-74242000D01*
D14*
X136088000Y-107440000D02*
X137018000Y-107440000D01*
X139248000Y-107440000D02*
X138318000Y-107440000D01*
X139248000Y-107440000D02*
X139248000Y-105280000D01*
X136088000Y-107440000D02*
X136088000Y-105980000D01*
X129138000Y-94603835D02*
X129138000Y-94372165D01*
X128418000Y-94603835D02*
X128418000Y-94372165D01*
X138832000Y-66663835D02*
X138832000Y-66432165D01*
X139552000Y-66663835D02*
X139552000Y-66432165D01*
X126998000Y-82657733D02*
X126998000Y-82950267D01*
X128018000Y-82657733D02*
X128018000Y-82950267D01*
X129434000Y-94603835D02*
X129434000Y-94372165D01*
X130154000Y-94603835D02*
X130154000Y-94372165D01*
X117912335Y-141118000D02*
X117680665Y-141118000D01*
X117912335Y-141838000D02*
X117680665Y-141838000D01*
X137044165Y-108733000D02*
X137275835Y-108733000D01*
X137044165Y-109453000D02*
X137275835Y-109453000D01*
X115718000Y-100468165D02*
X115718000Y-100699835D01*
X116438000Y-100468165D02*
X116438000Y-100699835D01*
X116438000Y-96912165D02*
X116438000Y-97143835D01*
X115718000Y-96912165D02*
X115718000Y-97143835D01*
X122280000Y-104024165D02*
X122280000Y-104255835D01*
X121560000Y-104024165D02*
X121560000Y-104255835D01*
X124058000Y-63869835D02*
X124058000Y-63638165D01*
X123338000Y-63869835D02*
X123338000Y-63638165D01*
X137044165Y-78592000D02*
X137275835Y-78592000D01*
X137044165Y-77872000D02*
X137275835Y-77872000D01*
X126719000Y-130692000D02*
X126719000Y-128232000D01*
X125249000Y-130692000D02*
X126719000Y-130692000D01*
X125249000Y-128232000D02*
X125249000Y-130692000D01*
X121185000Y-128257500D02*
X121185000Y-130717500D01*
X121185000Y-130717500D02*
X122655000Y-130717500D01*
X122655000Y-130717500D02*
X122655000Y-128257500D01*
X117630303Y-137982658D02*
X117965545Y-137982658D01*
X117630303Y-138742658D02*
X117965545Y-138742658D01*
X117653303Y-139758658D02*
X117988545Y-139758658D01*
X117653303Y-138998658D02*
X117988545Y-138998658D01*
X133110500Y-90678724D02*
X133110500Y-90169276D01*
X132065500Y-90678724D02*
X132065500Y-90169276D01*
X117653303Y-143570658D02*
X117988545Y-143570658D01*
X117653303Y-144330658D02*
X117988545Y-144330658D01*
X117630303Y-137726658D02*
X117965545Y-137726658D01*
X117630303Y-136966658D02*
X117965545Y-136966658D01*
X125793379Y-126493000D02*
X126128621Y-126493000D01*
X125793379Y-127253000D02*
X126128621Y-127253000D01*
X121775379Y-127253000D02*
X122110621Y-127253000D01*
X121775379Y-126493000D02*
X122110621Y-126493000D01*
X116753621Y-107824000D02*
X116418379Y-107824000D01*
X116753621Y-108584000D02*
X116418379Y-108584000D01*
X116857621Y-111251000D02*
X116522379Y-111251000D01*
X116857621Y-110491000D02*
X116522379Y-110491000D01*
X116903621Y-113031000D02*
X116568379Y-113031000D01*
X116903621Y-113791000D02*
X116568379Y-113791000D01*
X116903621Y-117984000D02*
X116568379Y-117984000D01*
X116903621Y-118744000D02*
X116568379Y-118744000D01*
X115952000Y-105069621D02*
X115952000Y-104734379D01*
X116712000Y-105069621D02*
X116712000Y-104734379D01*
X138516379Y-86869000D02*
X138851621Y-86869000D01*
X138516379Y-87629000D02*
X138851621Y-87629000D01*
X138516379Y-96646000D02*
X138851621Y-96646000D01*
X138516379Y-95886000D02*
X138851621Y-95886000D01*
X139318000Y-85003621D02*
X139318000Y-84668379D01*
X138558000Y-85003621D02*
X138558000Y-84668379D01*
X138874621Y-87885000D02*
X138539379Y-87885000D01*
X138874621Y-88645000D02*
X138539379Y-88645000D01*
X138851621Y-95630000D02*
X138516379Y-95630000D01*
X138851621Y-94870000D02*
X138516379Y-94870000D01*
X138812000Y-113878379D02*
X138812000Y-114213621D01*
X139572000Y-113878379D02*
X139572000Y-114213621D01*
X138812000Y-117492621D02*
X138812000Y-117157379D01*
X139572000Y-117492621D02*
X139572000Y-117157379D01*
X138597621Y-121538000D02*
X138262379Y-121538000D01*
X138597621Y-120778000D02*
X138262379Y-120778000D01*
X120140000Y-105720000D02*
X118680000Y-105720000D01*
X120140000Y-102560000D02*
X117980000Y-102560000D01*
X120140000Y-102560000D02*
X120140000Y-103490000D01*
X120140000Y-105720000D02*
X120140000Y-104790000D01*
D11*
X115268476Y-64448380D02*
X115268476Y-65162666D01*
X115220857Y-65305523D01*
X115125619Y-65400761D01*
X114982761Y-65448380D01*
X114887523Y-65448380D01*
X116268476Y-65448380D02*
X115697047Y-65448380D01*
X115982761Y-65448380D02*
X115982761Y-64448380D01*
X115887523Y-64591238D01*
X115792285Y-64686476D01*
X115697047Y-64734095D01*
X117220857Y-65448380D02*
X116649428Y-65448380D01*
X116935142Y-65448380D02*
X116935142Y-64448380D01*
X116839904Y-64591238D01*
X116744666Y-64686476D01*
X116649428Y-64734095D01*
X117808476Y-64448380D02*
X117808476Y-65162666D01*
X117760857Y-65305523D01*
X117665619Y-65400761D01*
X117522761Y-65448380D01*
X117427523Y-65448380D01*
X118808476Y-65448380D02*
X118237047Y-65448380D01*
X118522761Y-65448380D02*
X118522761Y-64448380D01*
X118427523Y-64591238D01*
X118332285Y-64686476D01*
X118237047Y-64734095D01*
X119427523Y-64448380D02*
X119522761Y-64448380D01*
X119618000Y-64496000D01*
X119665619Y-64543619D01*
X119713238Y-64638857D01*
X119760857Y-64829333D01*
X119760857Y-65067428D01*
X119713238Y-65257904D01*
X119665619Y-65353142D01*
X119618000Y-65400761D01*
X119522761Y-65448380D01*
X119427523Y-65448380D01*
X119332285Y-65400761D01*
X119284666Y-65353142D01*
X119237047Y-65257904D01*
X119189428Y-65067428D01*
X119189428Y-64829333D01*
X119237047Y-64638857D01*
X119284666Y-64543619D01*
X119332285Y-64496000D01*
X119427523Y-64448380D01*
X120824666Y-64448380D02*
X120824666Y-65162666D01*
X120777047Y-65305523D01*
X120681809Y-65400761D01*
X120538952Y-65448380D01*
X120443714Y-65448380D01*
X121348476Y-65448380D02*
X121538952Y-65448380D01*
X121634190Y-65400761D01*
X121681809Y-65353142D01*
X121777047Y-65210285D01*
X121824666Y-65019809D01*
X121824666Y-64638857D01*
X121777047Y-64543619D01*
X121729428Y-64496000D01*
X121634190Y-64448380D01*
X121443714Y-64448380D01*
X121348476Y-64496000D01*
X121300857Y-64543619D01*
X121253238Y-64638857D01*
X121253238Y-64876952D01*
X121300857Y-64972190D01*
X121348476Y-65019809D01*
X121443714Y-65067428D01*
X121634190Y-65067428D01*
X121729428Y-65019809D01*
X121777047Y-64972190D01*
X121824666Y-64876952D01*
X137842666Y-93714380D02*
X137842666Y-94428666D01*
X137795047Y-94571523D01*
X137699809Y-94666761D01*
X137556952Y-94714380D01*
X137461714Y-94714380D01*
X138461714Y-94142952D02*
X138366476Y-94095333D01*
X138318857Y-94047714D01*
X138271238Y-93952476D01*
X138271238Y-93904857D01*
X138318857Y-93809619D01*
X138366476Y-93762000D01*
X138461714Y-93714380D01*
X138652190Y-93714380D01*
X138747428Y-93762000D01*
X138795047Y-93809619D01*
X138842666Y-93904857D01*
X138842666Y-93952476D01*
X138795047Y-94047714D01*
X138747428Y-94095333D01*
X138652190Y-94142952D01*
X138461714Y-94142952D01*
X138366476Y-94190571D01*
X138318857Y-94238190D01*
X138271238Y-94333428D01*
X138271238Y-94523904D01*
X138318857Y-94619142D01*
X138366476Y-94666761D01*
X138461714Y-94714380D01*
X138652190Y-94714380D01*
X138747428Y-94666761D01*
X138795047Y-94619142D01*
X138842666Y-94523904D01*
X138842666Y-94333428D01*
X138795047Y-94238190D01*
X138747428Y-94190571D01*
X138652190Y-94142952D01*
X135556666Y-118324380D02*
X135556666Y-119038666D01*
X135509047Y-119181523D01*
X135413809Y-119276761D01*
X135270952Y-119324380D01*
X135175714Y-119324380D01*
X135937619Y-118324380D02*
X136604285Y-118324380D01*
X136175714Y-119324380D01*
X120316666Y-101588380D02*
X120316666Y-102302666D01*
X120269047Y-102445523D01*
X120173809Y-102540761D01*
X120030952Y-102588380D01*
X119935714Y-102588380D01*
X121221428Y-101588380D02*
X121030952Y-101588380D01*
X120935714Y-101636000D01*
X120888095Y-101683619D01*
X120792857Y-101826476D01*
X120745238Y-102016952D01*
X120745238Y-102397904D01*
X120792857Y-102493142D01*
X120840476Y-102540761D01*
X120935714Y-102588380D01*
X121126190Y-102588380D01*
X121221428Y-102540761D01*
X121269047Y-102493142D01*
X121316666Y-102397904D01*
X121316666Y-102159809D01*
X121269047Y-102064571D01*
X121221428Y-102016952D01*
X121126190Y-101969333D01*
X120935714Y-101969333D01*
X120840476Y-102016952D01*
X120792857Y-102064571D01*
X120745238Y-102159809D01*
X114591266Y-144971000D02*
X114124600Y-144971000D01*
X114191266Y-144971000D02*
X114157933Y-144937666D01*
X114124600Y-144871000D01*
X114124600Y-144771000D01*
X114157933Y-144704333D01*
X114224600Y-144671000D01*
X114591266Y-144671000D01*
X114224600Y-144671000D02*
X114157933Y-144637666D01*
X114124600Y-144571000D01*
X114124600Y-144471000D01*
X114157933Y-144404333D01*
X114224600Y-144371000D01*
X114591266Y-144371000D01*
X114591266Y-144037666D02*
X114124600Y-144037666D01*
X113891266Y-144037666D02*
X113924600Y-144071000D01*
X113957933Y-144037666D01*
X113924600Y-144004333D01*
X113891266Y-144037666D01*
X113957933Y-144037666D01*
X114557933Y-143404333D02*
X114591266Y-143471000D01*
X114591266Y-143604333D01*
X114557933Y-143671000D01*
X114524600Y-143704333D01*
X114457933Y-143737666D01*
X114257933Y-143737666D01*
X114191266Y-143704333D01*
X114157933Y-143671000D01*
X114124600Y-143604333D01*
X114124600Y-143471000D01*
X114157933Y-143404333D01*
X114591266Y-143104333D02*
X114124600Y-143104333D01*
X114257933Y-143104333D02*
X114191266Y-143071000D01*
X114157933Y-143037666D01*
X114124600Y-142971000D01*
X114124600Y-142904333D01*
X114591266Y-142571000D02*
X114557933Y-142637666D01*
X114524600Y-142671000D01*
X114457933Y-142704333D01*
X114257933Y-142704333D01*
X114191266Y-142671000D01*
X114157933Y-142637666D01*
X114124600Y-142571000D01*
X114124600Y-142471000D01*
X114157933Y-142404333D01*
X114191266Y-142371000D01*
X114257933Y-142337666D01*
X114457933Y-142337666D01*
X114524600Y-142371000D01*
X114557933Y-142404333D01*
X114591266Y-142471000D01*
X114591266Y-142571000D01*
X113891266Y-142037666D02*
X114457933Y-142037666D01*
X114524600Y-142004333D01*
X114557933Y-141971000D01*
X114591266Y-141904333D01*
X114591266Y-141771000D01*
X114557933Y-141704333D01*
X114524600Y-141671000D01*
X114457933Y-141637666D01*
X113891266Y-141637666D01*
X114557933Y-141337666D02*
X114591266Y-141237666D01*
X114591266Y-141071000D01*
X114557933Y-141004333D01*
X114524600Y-140971000D01*
X114457933Y-140937666D01*
X114391266Y-140937666D01*
X114324600Y-140971000D01*
X114291266Y-141004333D01*
X114257933Y-141071000D01*
X114224600Y-141204333D01*
X114191266Y-141271000D01*
X114157933Y-141304333D01*
X114091266Y-141337666D01*
X114024600Y-141337666D01*
X113957933Y-141304333D01*
X113924600Y-141271000D01*
X113891266Y-141204333D01*
X113891266Y-141037666D01*
X113924600Y-140937666D01*
X114224600Y-140404333D02*
X114257933Y-140304333D01*
X114291266Y-140271000D01*
X114357933Y-140237666D01*
X114457933Y-140237666D01*
X114524600Y-140271000D01*
X114557933Y-140304333D01*
X114591266Y-140371000D01*
X114591266Y-140637666D01*
X113891266Y-140637666D01*
X113891266Y-140404333D01*
X113924600Y-140337666D01*
X113957933Y-140304333D01*
X114024600Y-140271000D01*
X114091266Y-140271000D01*
X114157933Y-140304333D01*
X114191266Y-140337666D01*
X114224600Y-140404333D01*
X114224600Y-140637666D01*
X141227933Y-144121000D02*
X141261266Y-144054333D01*
X141261266Y-143921000D01*
X141227933Y-143854333D01*
X141161266Y-143821000D01*
X141127933Y-143821000D01*
X141061266Y-143854333D01*
X141027933Y-143921000D01*
X141027933Y-144021000D01*
X140994600Y-144087666D01*
X140927933Y-144121000D01*
X140894600Y-144121000D01*
X140827933Y-144087666D01*
X140794600Y-144021000D01*
X140794600Y-143921000D01*
X140827933Y-143854333D01*
X140794600Y-143587666D02*
X141261266Y-143454333D01*
X140927933Y-143321000D01*
X141261266Y-143187666D01*
X140794600Y-143054333D01*
X141261266Y-142787666D02*
X140794600Y-142787666D01*
X140561266Y-142787666D02*
X140594600Y-142821000D01*
X140627933Y-142787666D01*
X140594600Y-142754333D01*
X140561266Y-142787666D01*
X140627933Y-142787666D01*
X140794600Y-142554333D02*
X140794600Y-142287666D01*
X140561266Y-142454333D02*
X141161266Y-142454333D01*
X141227933Y-142421000D01*
X141261266Y-142354333D01*
X141261266Y-142287666D01*
X141227933Y-141754333D02*
X141261266Y-141821000D01*
X141261266Y-141954333D01*
X141227933Y-142021000D01*
X141194600Y-142054333D01*
X141127933Y-142087666D01*
X140927933Y-142087666D01*
X140861266Y-142054333D01*
X140827933Y-142021000D01*
X140794600Y-141954333D01*
X140794600Y-141821000D01*
X140827933Y-141754333D01*
X141261266Y-141454333D02*
X140561266Y-141454333D01*
X141261266Y-141154333D02*
X140894600Y-141154333D01*
X140827933Y-141187666D01*
X140794600Y-141254333D01*
X140794600Y-141354333D01*
X140827933Y-141421000D01*
X140861266Y-141454333D01*
X123110666Y-71842380D02*
X123110666Y-72556666D01*
X123063047Y-72699523D01*
X122967809Y-72794761D01*
X122824952Y-72842380D01*
X122729714Y-72842380D01*
X124063047Y-71842380D02*
X123586857Y-71842380D01*
X123539238Y-72318571D01*
X123586857Y-72270952D01*
X123682095Y-72223333D01*
X123920190Y-72223333D01*
X124015428Y-72270952D01*
X124063047Y-72318571D01*
X124110666Y-72413809D01*
X124110666Y-72651904D01*
X124063047Y-72747142D01*
X124015428Y-72794761D01*
X123920190Y-72842380D01*
X123682095Y-72842380D01*
X123586857Y-72794761D01*
X123539238Y-72747142D01*
X130984666Y-71334380D02*
X130984666Y-72048666D01*
X130937047Y-72191523D01*
X130841809Y-72286761D01*
X130698952Y-72334380D01*
X130603714Y-72334380D01*
X131889428Y-71667714D02*
X131889428Y-72334380D01*
X131651333Y-71286761D02*
X131413238Y-72001047D01*
X132032285Y-72001047D01*
X139112666Y-64222380D02*
X139112666Y-64936666D01*
X139065047Y-65079523D01*
X138969809Y-65174761D01*
X138826952Y-65222380D01*
X138731714Y-65222380D01*
X139541238Y-64317619D02*
X139588857Y-64270000D01*
X139684095Y-64222380D01*
X139922190Y-64222380D01*
X140017428Y-64270000D01*
X140065047Y-64317619D01*
X140112666Y-64412857D01*
X140112666Y-64508095D01*
X140065047Y-64650952D01*
X139493619Y-65222380D01*
X140112666Y-65222380D01*
X130984666Y-72858380D02*
X130984666Y-73572666D01*
X130937047Y-73715523D01*
X130841809Y-73810761D01*
X130698952Y-73858380D01*
X130603714Y-73858380D01*
X131984666Y-73858380D02*
X131413238Y-73858380D01*
X131698952Y-73858380D02*
X131698952Y-72858380D01*
X131603714Y-73001238D01*
X131508476Y-73096476D01*
X131413238Y-73144095D01*
X131572095Y-92670380D02*
X131572095Y-93479904D01*
X131619714Y-93575142D01*
X131667333Y-93622761D01*
X131762571Y-93670380D01*
X131953047Y-93670380D01*
X132048285Y-93622761D01*
X132095904Y-93575142D01*
X132143523Y-93479904D01*
X132143523Y-92670380D01*
X133143523Y-93670380D02*
X132572095Y-93670380D01*
X132857809Y-93670380D02*
X132857809Y-92670380D01*
X132762571Y-92813238D01*
X132667333Y-92908476D01*
X132572095Y-92956095D01*
X135402666Y-148333666D02*
X135402666Y-148833666D01*
X135369333Y-148933666D01*
X135302666Y-149000333D01*
X135202666Y-149033666D01*
X135136000Y-149033666D01*
X135669333Y-148333666D02*
X136102666Y-148333666D01*
X135869333Y-148600333D01*
X135969333Y-148600333D01*
X136036000Y-148633666D01*
X136069333Y-148667000D01*
X136102666Y-148733666D01*
X136102666Y-148900333D01*
X136069333Y-148967000D01*
X136036000Y-149000333D01*
X135969333Y-149033666D01*
X135769333Y-149033666D01*
X135702666Y-149000333D01*
X135669333Y-148967000D01*
X137653666Y-142072666D02*
X136953666Y-142072666D01*
X137453666Y-141839333D01*
X136953666Y-141606000D01*
X137653666Y-141606000D01*
X137653666Y-141272666D02*
X137187000Y-141272666D01*
X136953666Y-141272666D02*
X136987000Y-141306000D01*
X137020333Y-141272666D01*
X136987000Y-141239333D01*
X136953666Y-141272666D01*
X137020333Y-141272666D01*
X137620333Y-140639333D02*
X137653666Y-140706000D01*
X137653666Y-140839333D01*
X137620333Y-140906000D01*
X137587000Y-140939333D01*
X137520333Y-140972666D01*
X137320333Y-140972666D01*
X137253666Y-140939333D01*
X137220333Y-140906000D01*
X137187000Y-140839333D01*
X137187000Y-140706000D01*
X137220333Y-140639333D01*
X137653666Y-140339333D02*
X137187000Y-140339333D01*
X137320333Y-140339333D02*
X137253666Y-140306000D01*
X137220333Y-140272666D01*
X137187000Y-140206000D01*
X137187000Y-140139333D01*
X137653666Y-139806000D02*
X137620333Y-139872666D01*
X137587000Y-139906000D01*
X137520333Y-139939333D01*
X137320333Y-139939333D01*
X137253666Y-139906000D01*
X137220333Y-139872666D01*
X137187000Y-139806000D01*
X137187000Y-139706000D01*
X137220333Y-139639333D01*
X137253666Y-139606000D01*
X137320333Y-139572666D01*
X137520333Y-139572666D01*
X137587000Y-139606000D01*
X137620333Y-139639333D01*
X137653666Y-139706000D01*
X137653666Y-139806000D01*
X137620333Y-139306000D02*
X137653666Y-139206000D01*
X137653666Y-139039333D01*
X137620333Y-138972666D01*
X137587000Y-138939333D01*
X137520333Y-138906000D01*
X137453666Y-138906000D01*
X137387000Y-138939333D01*
X137353666Y-138972666D01*
X137320333Y-139039333D01*
X137287000Y-139172666D01*
X137253666Y-139239333D01*
X137220333Y-139272666D01*
X137153666Y-139306000D01*
X137087000Y-139306000D01*
X137020333Y-139272666D01*
X136987000Y-139239333D01*
X136953666Y-139172666D01*
X136953666Y-139006000D01*
X136987000Y-138906000D01*
X137653666Y-138606000D02*
X136953666Y-138606000D01*
X136953666Y-138439333D01*
X136987000Y-138339333D01*
X137053666Y-138272666D01*
X137120333Y-138239333D01*
X137253666Y-138206000D01*
X137353666Y-138206000D01*
X137487000Y-138239333D01*
X137553666Y-138272666D01*
X137620333Y-138339333D01*
X137653666Y-138439333D01*
X137653666Y-138606000D01*
X139954095Y-75144380D02*
X139954095Y-75953904D01*
X140001714Y-76049142D01*
X140049333Y-76096761D01*
X140144571Y-76144380D01*
X140335047Y-76144380D01*
X140430285Y-76096761D01*
X140477904Y-76049142D01*
X140525523Y-75953904D01*
X140525523Y-75144380D01*
X140954095Y-75239619D02*
X141001714Y-75192000D01*
X141096952Y-75144380D01*
X141335047Y-75144380D01*
X141430285Y-75192000D01*
X141477904Y-75239619D01*
X141525523Y-75334857D01*
X141525523Y-75430095D01*
X141477904Y-75572952D01*
X140906476Y-76144380D01*
X141525523Y-76144380D01*
X138617333Y-104777333D02*
X138550666Y-104744000D01*
X138484000Y-104677333D01*
X138384000Y-104577333D01*
X138317333Y-104544000D01*
X138250666Y-104544000D01*
X138284000Y-104710666D02*
X138217333Y-104677333D01*
X138150666Y-104610666D01*
X138117333Y-104477333D01*
X138117333Y-104244000D01*
X138150666Y-104110666D01*
X138217333Y-104044000D01*
X138284000Y-104010666D01*
X138417333Y-104010666D01*
X138484000Y-104044000D01*
X138550666Y-104110666D01*
X138584000Y-104244000D01*
X138584000Y-104477333D01*
X138550666Y-104610666D01*
X138484000Y-104677333D01*
X138417333Y-104710666D01*
X138284000Y-104710666D01*
X139250666Y-104710666D02*
X138850666Y-104710666D01*
X139050666Y-104710666D02*
X139050666Y-104010666D01*
X138984000Y-104110666D01*
X138917333Y-104177333D01*
X138850666Y-104210666D01*
X127865142Y-94908666D02*
X127912761Y-94956285D01*
X127960380Y-95099142D01*
X127960380Y-95194380D01*
X127912761Y-95337238D01*
X127817523Y-95432476D01*
X127722285Y-95480095D01*
X127531809Y-95527714D01*
X127388952Y-95527714D01*
X127198476Y-95480095D01*
X127103238Y-95432476D01*
X127008000Y-95337238D01*
X126960380Y-95194380D01*
X126960380Y-95099142D01*
X127008000Y-94956285D01*
X127055619Y-94908666D01*
X127960380Y-93956285D02*
X127960380Y-94527714D01*
X127960380Y-94242000D02*
X126960380Y-94242000D01*
X127103238Y-94337238D01*
X127198476Y-94432476D01*
X127246095Y-94527714D01*
X140819142Y-66714666D02*
X140866761Y-66762285D01*
X140914380Y-66905142D01*
X140914380Y-67000380D01*
X140866761Y-67143238D01*
X140771523Y-67238476D01*
X140676285Y-67286095D01*
X140485809Y-67333714D01*
X140342952Y-67333714D01*
X140152476Y-67286095D01*
X140057238Y-67238476D01*
X139962000Y-67143238D01*
X139914380Y-67000380D01*
X139914380Y-66905142D01*
X139962000Y-66762285D01*
X140009619Y-66714666D01*
X140009619Y-66333714D02*
X139962000Y-66286095D01*
X139914380Y-66190857D01*
X139914380Y-65952761D01*
X139962000Y-65857523D01*
X140009619Y-65809904D01*
X140104857Y-65762285D01*
X140200095Y-65762285D01*
X140342952Y-65809904D01*
X140914380Y-66381333D01*
X140914380Y-65762285D01*
X129295142Y-82970666D02*
X129342761Y-83018285D01*
X129390380Y-83161142D01*
X129390380Y-83256380D01*
X129342761Y-83399238D01*
X129247523Y-83494476D01*
X129152285Y-83542095D01*
X128961809Y-83589714D01*
X128818952Y-83589714D01*
X128628476Y-83542095D01*
X128533238Y-83494476D01*
X128438000Y-83399238D01*
X128390380Y-83256380D01*
X128390380Y-83161142D01*
X128438000Y-83018285D01*
X128485619Y-82970666D01*
X128390380Y-82637333D02*
X128390380Y-82018285D01*
X128771333Y-82351619D01*
X128771333Y-82208761D01*
X128818952Y-82113523D01*
X128866571Y-82065904D01*
X128961809Y-82018285D01*
X129199904Y-82018285D01*
X129295142Y-82065904D01*
X129342761Y-82113523D01*
X129390380Y-82208761D01*
X129390380Y-82494476D01*
X129342761Y-82589714D01*
X129295142Y-82637333D01*
X131421142Y-94908666D02*
X131468761Y-94956285D01*
X131516380Y-95099142D01*
X131516380Y-95194380D01*
X131468761Y-95337238D01*
X131373523Y-95432476D01*
X131278285Y-95480095D01*
X131087809Y-95527714D01*
X130944952Y-95527714D01*
X130754476Y-95480095D01*
X130659238Y-95432476D01*
X130564000Y-95337238D01*
X130516380Y-95194380D01*
X130516380Y-95099142D01*
X130564000Y-94956285D01*
X130611619Y-94908666D01*
X130849714Y-94051523D02*
X131516380Y-94051523D01*
X130468761Y-94289619D02*
X131183047Y-94527714D01*
X131183047Y-93908666D01*
X117689333Y-143105142D02*
X117641714Y-143152761D01*
X117498857Y-143200380D01*
X117403619Y-143200380D01*
X117260761Y-143152761D01*
X117165523Y-143057523D01*
X117117904Y-142962285D01*
X117070285Y-142771809D01*
X117070285Y-142628952D01*
X117117904Y-142438476D01*
X117165523Y-142343238D01*
X117260761Y-142248000D01*
X117403619Y-142200380D01*
X117498857Y-142200380D01*
X117641714Y-142248000D01*
X117689333Y-142295619D01*
X118594095Y-142200380D02*
X118117904Y-142200380D01*
X118070285Y-142676571D01*
X118117904Y-142628952D01*
X118213142Y-142581333D01*
X118451238Y-142581333D01*
X118546476Y-142628952D01*
X118594095Y-142676571D01*
X118641714Y-142771809D01*
X118641714Y-143009904D01*
X118594095Y-143105142D01*
X118546476Y-143152761D01*
X118451238Y-143200380D01*
X118213142Y-143200380D01*
X118117904Y-143152761D01*
X118070285Y-143105142D01*
X138263333Y-110847142D02*
X138215714Y-110894761D01*
X138072857Y-110942380D01*
X137977619Y-110942380D01*
X137834761Y-110894761D01*
X137739523Y-110799523D01*
X137691904Y-110704285D01*
X137644285Y-110513809D01*
X137644285Y-110370952D01*
X137691904Y-110180476D01*
X137739523Y-110085238D01*
X137834761Y-109990000D01*
X137977619Y-109942380D01*
X138072857Y-109942380D01*
X138215714Y-109990000D01*
X138263333Y-110037619D01*
X139120476Y-109942380D02*
X138930000Y-109942380D01*
X138834761Y-109990000D01*
X138787142Y-110037619D01*
X138691904Y-110180476D01*
X138644285Y-110370952D01*
X138644285Y-110751904D01*
X138691904Y-110847142D01*
X138739523Y-110894761D01*
X138834761Y-110942380D01*
X139025238Y-110942380D01*
X139120476Y-110894761D01*
X139168095Y-110847142D01*
X139215714Y-110751904D01*
X139215714Y-110513809D01*
X139168095Y-110418571D01*
X139120476Y-110370952D01*
X139025238Y-110323333D01*
X138834761Y-110323333D01*
X138739523Y-110370952D01*
X138691904Y-110418571D01*
X138644285Y-110513809D01*
X117595142Y-100750666D02*
X117642761Y-100798285D01*
X117690380Y-100941142D01*
X117690380Y-101036380D01*
X117642761Y-101179238D01*
X117547523Y-101274476D01*
X117452285Y-101322095D01*
X117261809Y-101369714D01*
X117118952Y-101369714D01*
X116928476Y-101322095D01*
X116833238Y-101274476D01*
X116738000Y-101179238D01*
X116690380Y-101036380D01*
X116690380Y-100941142D01*
X116738000Y-100798285D01*
X116785619Y-100750666D01*
X116690380Y-100417333D02*
X116690380Y-99750666D01*
X117690380Y-100179238D01*
X117595142Y-97194666D02*
X117642761Y-97242285D01*
X117690380Y-97385142D01*
X117690380Y-97480380D01*
X117642761Y-97623238D01*
X117547523Y-97718476D01*
X117452285Y-97766095D01*
X117261809Y-97813714D01*
X117118952Y-97813714D01*
X116928476Y-97766095D01*
X116833238Y-97718476D01*
X116738000Y-97623238D01*
X116690380Y-97480380D01*
X116690380Y-97385142D01*
X116738000Y-97242285D01*
X116785619Y-97194666D01*
X117118952Y-96623238D02*
X117071333Y-96718476D01*
X117023714Y-96766095D01*
X116928476Y-96813714D01*
X116880857Y-96813714D01*
X116785619Y-96766095D01*
X116738000Y-96718476D01*
X116690380Y-96623238D01*
X116690380Y-96432761D01*
X116738000Y-96337523D01*
X116785619Y-96289904D01*
X116880857Y-96242285D01*
X116928476Y-96242285D01*
X117023714Y-96289904D01*
X117071333Y-96337523D01*
X117118952Y-96432761D01*
X117118952Y-96623238D01*
X117166571Y-96718476D01*
X117214190Y-96766095D01*
X117309428Y-96813714D01*
X117499904Y-96813714D01*
X117595142Y-96766095D01*
X117642761Y-96718476D01*
X117690380Y-96623238D01*
X117690380Y-96432761D01*
X117642761Y-96337523D01*
X117595142Y-96289904D01*
X117499904Y-96242285D01*
X117309428Y-96242285D01*
X117214190Y-96289904D01*
X117166571Y-96337523D01*
X117118952Y-96432761D01*
X123437142Y-104306666D02*
X123484761Y-104354285D01*
X123532380Y-104497142D01*
X123532380Y-104592380D01*
X123484761Y-104735238D01*
X123389523Y-104830476D01*
X123294285Y-104878095D01*
X123103809Y-104925714D01*
X122960952Y-104925714D01*
X122770476Y-104878095D01*
X122675238Y-104830476D01*
X122580000Y-104735238D01*
X122532380Y-104592380D01*
X122532380Y-104497142D01*
X122580000Y-104354285D01*
X122627619Y-104306666D01*
X123532380Y-103830476D02*
X123532380Y-103640000D01*
X123484761Y-103544761D01*
X123437142Y-103497142D01*
X123294285Y-103401904D01*
X123103809Y-103354285D01*
X122722857Y-103354285D01*
X122627619Y-103401904D01*
X122580000Y-103449523D01*
X122532380Y-103544761D01*
X122532380Y-103735238D01*
X122580000Y-103830476D01*
X122627619Y-103878095D01*
X122722857Y-103925714D01*
X122960952Y-103925714D01*
X123056190Y-103878095D01*
X123103809Y-103830476D01*
X123151428Y-103735238D01*
X123151428Y-103544761D01*
X123103809Y-103449523D01*
X123056190Y-103401904D01*
X122960952Y-103354285D01*
X122895142Y-64396857D02*
X122942761Y-64444476D01*
X122990380Y-64587333D01*
X122990380Y-64682571D01*
X122942761Y-64825428D01*
X122847523Y-64920666D01*
X122752285Y-64968285D01*
X122561809Y-65015904D01*
X122418952Y-65015904D01*
X122228476Y-64968285D01*
X122133238Y-64920666D01*
X122038000Y-64825428D01*
X121990380Y-64682571D01*
X121990380Y-64587333D01*
X122038000Y-64444476D01*
X122085619Y-64396857D01*
X122990380Y-63444476D02*
X122990380Y-64015904D01*
X122990380Y-63730190D02*
X121990380Y-63730190D01*
X122133238Y-63825428D01*
X122228476Y-63920666D01*
X122276095Y-64015904D01*
X121990380Y-62825428D02*
X121990380Y-62730190D01*
X122038000Y-62634952D01*
X122085619Y-62587333D01*
X122180857Y-62539714D01*
X122371333Y-62492095D01*
X122609428Y-62492095D01*
X122799904Y-62539714D01*
X122895142Y-62587333D01*
X122942761Y-62634952D01*
X122990380Y-62730190D01*
X122990380Y-62825428D01*
X122942761Y-62920666D01*
X122895142Y-62968285D01*
X122799904Y-63015904D01*
X122609428Y-63063523D01*
X122371333Y-63063523D01*
X122180857Y-63015904D01*
X122085619Y-62968285D01*
X122038000Y-62920666D01*
X121990380Y-62825428D01*
X139057142Y-78589142D02*
X139009523Y-78636761D01*
X138866666Y-78684380D01*
X138771428Y-78684380D01*
X138628571Y-78636761D01*
X138533333Y-78541523D01*
X138485714Y-78446285D01*
X138438095Y-78255809D01*
X138438095Y-78112952D01*
X138485714Y-77922476D01*
X138533333Y-77827238D01*
X138628571Y-77732000D01*
X138771428Y-77684380D01*
X138866666Y-77684380D01*
X139009523Y-77732000D01*
X139057142Y-77779619D01*
X140009523Y-78684380D02*
X139438095Y-78684380D01*
X139723809Y-78684380D02*
X139723809Y-77684380D01*
X139628571Y-77827238D01*
X139533333Y-77922476D01*
X139438095Y-77970095D01*
X140961904Y-78684380D02*
X140390476Y-78684380D01*
X140676190Y-78684380D02*
X140676190Y-77684380D01*
X140580952Y-77827238D01*
X140485714Y-77922476D01*
X140390476Y-77970095D01*
X125006380Y-129770095D02*
X124006380Y-129770095D01*
X124006380Y-129532000D01*
X124054000Y-129389142D01*
X124149238Y-129293904D01*
X124244476Y-129246285D01*
X124434952Y-129198666D01*
X124577809Y-129198666D01*
X124768285Y-129246285D01*
X124863523Y-129293904D01*
X124958761Y-129389142D01*
X125006380Y-129532000D01*
X125006380Y-129770095D01*
X125006380Y-128246285D02*
X125006380Y-128817714D01*
X125006380Y-128532000D02*
X124006380Y-128532000D01*
X124149238Y-128627238D01*
X124244476Y-128722476D01*
X124292095Y-128817714D01*
X120942380Y-129795595D02*
X119942380Y-129795595D01*
X119942380Y-129557500D01*
X119990000Y-129414642D01*
X120085238Y-129319404D01*
X120180476Y-129271785D01*
X120370952Y-129224166D01*
X120513809Y-129224166D01*
X120704285Y-129271785D01*
X120799523Y-129319404D01*
X120894761Y-129414642D01*
X120942380Y-129557500D01*
X120942380Y-129795595D01*
X120037619Y-128843214D02*
X119990000Y-128795595D01*
X119942380Y-128700357D01*
X119942380Y-128462261D01*
X119990000Y-128367023D01*
X120037619Y-128319404D01*
X120132857Y-128271785D01*
X120228095Y-128271785D01*
X120370952Y-128319404D01*
X120942380Y-128890833D01*
X120942380Y-128271785D01*
X115403333Y-139136380D02*
X115070000Y-138660190D01*
X114831904Y-139136380D02*
X114831904Y-138136380D01*
X115212857Y-138136380D01*
X115308095Y-138184000D01*
X115355714Y-138231619D01*
X115403333Y-138326857D01*
X115403333Y-138469714D01*
X115355714Y-138564952D01*
X115308095Y-138612571D01*
X115212857Y-138660190D01*
X114831904Y-138660190D01*
X116355714Y-139136380D02*
X115784285Y-139136380D01*
X116070000Y-139136380D02*
X116070000Y-138136380D01*
X115974761Y-138279238D01*
X115879523Y-138374476D01*
X115784285Y-138422095D01*
X115403333Y-140406380D02*
X115070000Y-139930190D01*
X114831904Y-140406380D02*
X114831904Y-139406380D01*
X115212857Y-139406380D01*
X115308095Y-139454000D01*
X115355714Y-139501619D01*
X115403333Y-139596857D01*
X115403333Y-139739714D01*
X115355714Y-139834952D01*
X115308095Y-139882571D01*
X115212857Y-139930190D01*
X114831904Y-139930190D01*
X115784285Y-139501619D02*
X115831904Y-139454000D01*
X115927142Y-139406380D01*
X116165238Y-139406380D01*
X116260476Y-139454000D01*
X116308095Y-139501619D01*
X116355714Y-139596857D01*
X116355714Y-139692095D01*
X116308095Y-139834952D01*
X115736666Y-140406380D01*
X116355714Y-140406380D01*
X131610380Y-90590666D02*
X131134190Y-90924000D01*
X131610380Y-91162095D02*
X130610380Y-91162095D01*
X130610380Y-90781142D01*
X130658000Y-90685904D01*
X130705619Y-90638285D01*
X130800857Y-90590666D01*
X130943714Y-90590666D01*
X131038952Y-90638285D01*
X131086571Y-90685904D01*
X131134190Y-90781142D01*
X131134190Y-91162095D01*
X130610380Y-90257333D02*
X130610380Y-89638285D01*
X130991333Y-89971619D01*
X130991333Y-89828761D01*
X131038952Y-89733523D01*
X131086571Y-89685904D01*
X131181809Y-89638285D01*
X131419904Y-89638285D01*
X131515142Y-89685904D01*
X131562761Y-89733523D01*
X131610380Y-89828761D01*
X131610380Y-90114476D01*
X131562761Y-90209714D01*
X131515142Y-90257333D01*
X117689333Y-145740380D02*
X117356000Y-145264190D01*
X117117904Y-145740380D02*
X117117904Y-144740380D01*
X117498857Y-144740380D01*
X117594095Y-144788000D01*
X117641714Y-144835619D01*
X117689333Y-144930857D01*
X117689333Y-145073714D01*
X117641714Y-145168952D01*
X117594095Y-145216571D01*
X117498857Y-145264190D01*
X117117904Y-145264190D01*
X118546476Y-145073714D02*
X118546476Y-145740380D01*
X118308380Y-144692761D02*
X118070285Y-145407047D01*
X118689333Y-145407047D01*
X115403333Y-137866380D02*
X115070000Y-137390190D01*
X114831904Y-137866380D02*
X114831904Y-136866380D01*
X115212857Y-136866380D01*
X115308095Y-136914000D01*
X115355714Y-136961619D01*
X115403333Y-137056857D01*
X115403333Y-137199714D01*
X115355714Y-137294952D01*
X115308095Y-137342571D01*
X115212857Y-137390190D01*
X114831904Y-137390190D01*
X116308095Y-136866380D02*
X115831904Y-136866380D01*
X115784285Y-137342571D01*
X115831904Y-137294952D01*
X115927142Y-137247333D01*
X116165238Y-137247333D01*
X116260476Y-137294952D01*
X116308095Y-137342571D01*
X116355714Y-137437809D01*
X116355714Y-137675904D01*
X116308095Y-137771142D01*
X116260476Y-137818761D01*
X116165238Y-137866380D01*
X115927142Y-137866380D01*
X115831904Y-137818761D01*
X115784285Y-137771142D01*
X127849333Y-127452380D02*
X127516000Y-126976190D01*
X127277904Y-127452380D02*
X127277904Y-126452380D01*
X127658857Y-126452380D01*
X127754095Y-126500000D01*
X127801714Y-126547619D01*
X127849333Y-126642857D01*
X127849333Y-126785714D01*
X127801714Y-126880952D01*
X127754095Y-126928571D01*
X127658857Y-126976190D01*
X127277904Y-126976190D01*
X128706476Y-126452380D02*
X128516000Y-126452380D01*
X128420761Y-126500000D01*
X128373142Y-126547619D01*
X128277904Y-126690476D01*
X128230285Y-126880952D01*
X128230285Y-127261904D01*
X128277904Y-127357142D01*
X128325523Y-127404761D01*
X128420761Y-127452380D01*
X128611238Y-127452380D01*
X128706476Y-127404761D01*
X128754095Y-127357142D01*
X128801714Y-127261904D01*
X128801714Y-127023809D01*
X128754095Y-126928571D01*
X128706476Y-126880952D01*
X128611238Y-126833333D01*
X128420761Y-126833333D01*
X128325523Y-126880952D01*
X128277904Y-126928571D01*
X128230285Y-127023809D01*
X119721333Y-127452380D02*
X119388000Y-126976190D01*
X119149904Y-127452380D02*
X119149904Y-126452380D01*
X119530857Y-126452380D01*
X119626095Y-126500000D01*
X119673714Y-126547619D01*
X119721333Y-126642857D01*
X119721333Y-126785714D01*
X119673714Y-126880952D01*
X119626095Y-126928571D01*
X119530857Y-126976190D01*
X119149904Y-126976190D01*
X120054666Y-126452380D02*
X120721333Y-126452380D01*
X120292761Y-127452380D01*
X116419333Y-109826380D02*
X116086000Y-109350190D01*
X115847904Y-109826380D02*
X115847904Y-108826380D01*
X116228857Y-108826380D01*
X116324095Y-108874000D01*
X116371714Y-108921619D01*
X116419333Y-109016857D01*
X116419333Y-109159714D01*
X116371714Y-109254952D01*
X116324095Y-109302571D01*
X116228857Y-109350190D01*
X115847904Y-109350190D01*
X116990761Y-109254952D02*
X116895523Y-109207333D01*
X116847904Y-109159714D01*
X116800285Y-109064476D01*
X116800285Y-109016857D01*
X116847904Y-108921619D01*
X116895523Y-108874000D01*
X116990761Y-108826380D01*
X117181238Y-108826380D01*
X117276476Y-108874000D01*
X117324095Y-108921619D01*
X117371714Y-109016857D01*
X117371714Y-109064476D01*
X117324095Y-109159714D01*
X117276476Y-109207333D01*
X117181238Y-109254952D01*
X116990761Y-109254952D01*
X116895523Y-109302571D01*
X116847904Y-109350190D01*
X116800285Y-109445428D01*
X116800285Y-109635904D01*
X116847904Y-109731142D01*
X116895523Y-109778761D01*
X116990761Y-109826380D01*
X117181238Y-109826380D01*
X117276476Y-109778761D01*
X117324095Y-109731142D01*
X117371714Y-109635904D01*
X117371714Y-109445428D01*
X117324095Y-109350190D01*
X117276476Y-109302571D01*
X117181238Y-109254952D01*
X116523333Y-112493380D02*
X116190000Y-112017190D01*
X115951904Y-112493380D02*
X115951904Y-111493380D01*
X116332857Y-111493380D01*
X116428095Y-111541000D01*
X116475714Y-111588619D01*
X116523333Y-111683857D01*
X116523333Y-111826714D01*
X116475714Y-111921952D01*
X116428095Y-111969571D01*
X116332857Y-112017190D01*
X115951904Y-112017190D01*
X116999523Y-112493380D02*
X117190000Y-112493380D01*
X117285238Y-112445761D01*
X117332857Y-112398142D01*
X117428095Y-112255285D01*
X117475714Y-112064809D01*
X117475714Y-111683857D01*
X117428095Y-111588619D01*
X117380476Y-111541000D01*
X117285238Y-111493380D01*
X117094761Y-111493380D01*
X116999523Y-111541000D01*
X116951904Y-111588619D01*
X116904285Y-111683857D01*
X116904285Y-111921952D01*
X116951904Y-112017190D01*
X116999523Y-112064809D01*
X117094761Y-112112428D01*
X117285238Y-112112428D01*
X117380476Y-112064809D01*
X117428095Y-112017190D01*
X117475714Y-111921952D01*
X116093142Y-115033380D02*
X115759809Y-114557190D01*
X115521714Y-115033380D02*
X115521714Y-114033380D01*
X115902666Y-114033380D01*
X115997904Y-114081000D01*
X116045523Y-114128619D01*
X116093142Y-114223857D01*
X116093142Y-114366714D01*
X116045523Y-114461952D01*
X115997904Y-114509571D01*
X115902666Y-114557190D01*
X115521714Y-114557190D01*
X117045523Y-115033380D02*
X116474095Y-115033380D01*
X116759809Y-115033380D02*
X116759809Y-114033380D01*
X116664571Y-114176238D01*
X116569333Y-114271476D01*
X116474095Y-114319095D01*
X117664571Y-114033380D02*
X117759809Y-114033380D01*
X117855047Y-114081000D01*
X117902666Y-114128619D01*
X117950285Y-114223857D01*
X117997904Y-114414333D01*
X117997904Y-114652428D01*
X117950285Y-114842904D01*
X117902666Y-114938142D01*
X117855047Y-114985761D01*
X117759809Y-115033380D01*
X117664571Y-115033380D01*
X117569333Y-114985761D01*
X117521714Y-114938142D01*
X117474095Y-114842904D01*
X117426476Y-114652428D01*
X117426476Y-114414333D01*
X117474095Y-114223857D01*
X117521714Y-114128619D01*
X117569333Y-114081000D01*
X117664571Y-114033380D01*
X116093142Y-119986380D02*
X115759809Y-119510190D01*
X115521714Y-119986380D02*
X115521714Y-118986380D01*
X115902666Y-118986380D01*
X115997904Y-119034000D01*
X116045523Y-119081619D01*
X116093142Y-119176857D01*
X116093142Y-119319714D01*
X116045523Y-119414952D01*
X115997904Y-119462571D01*
X115902666Y-119510190D01*
X115521714Y-119510190D01*
X117045523Y-119986380D02*
X116474095Y-119986380D01*
X116759809Y-119986380D02*
X116759809Y-118986380D01*
X116664571Y-119129238D01*
X116569333Y-119224476D01*
X116474095Y-119272095D01*
X117997904Y-119986380D02*
X117426476Y-119986380D01*
X117712190Y-119986380D02*
X117712190Y-118986380D01*
X117616952Y-119129238D01*
X117521714Y-119224476D01*
X117426476Y-119272095D01*
X115614380Y-105544857D02*
X115138190Y-105878190D01*
X115614380Y-106116285D02*
X114614380Y-106116285D01*
X114614380Y-105735333D01*
X114662000Y-105640095D01*
X114709619Y-105592476D01*
X114804857Y-105544857D01*
X114947714Y-105544857D01*
X115042952Y-105592476D01*
X115090571Y-105640095D01*
X115138190Y-105735333D01*
X115138190Y-106116285D01*
X115614380Y-104592476D02*
X115614380Y-105163904D01*
X115614380Y-104878190D02*
X114614380Y-104878190D01*
X114757238Y-104973428D01*
X114852476Y-105068666D01*
X114900095Y-105163904D01*
X114709619Y-104211523D02*
X114662000Y-104163904D01*
X114614380Y-104068666D01*
X114614380Y-103830571D01*
X114662000Y-103735333D01*
X114709619Y-103687714D01*
X114804857Y-103640095D01*
X114900095Y-103640095D01*
X115042952Y-103687714D01*
X115614380Y-104259142D01*
X115614380Y-103640095D01*
X134485142Y-87574380D02*
X134151809Y-87098190D01*
X133913714Y-87574380D02*
X133913714Y-86574380D01*
X134294666Y-86574380D01*
X134389904Y-86622000D01*
X134437523Y-86669619D01*
X134485142Y-86764857D01*
X134485142Y-86907714D01*
X134437523Y-87002952D01*
X134389904Y-87050571D01*
X134294666Y-87098190D01*
X133913714Y-87098190D01*
X135437523Y-87574380D02*
X134866095Y-87574380D01*
X135151809Y-87574380D02*
X135151809Y-86574380D01*
X135056571Y-86717238D01*
X134961333Y-86812476D01*
X134866095Y-86860095D01*
X135770857Y-86574380D02*
X136389904Y-86574380D01*
X136056571Y-86955333D01*
X136199428Y-86955333D01*
X136294666Y-87002952D01*
X136342285Y-87050571D01*
X136389904Y-87145809D01*
X136389904Y-87383904D01*
X136342285Y-87479142D01*
X136294666Y-87526761D01*
X136199428Y-87574380D01*
X135913714Y-87574380D01*
X135818476Y-87526761D01*
X135770857Y-87479142D01*
X137533142Y-99258380D02*
X137199809Y-98782190D01*
X136961714Y-99258380D02*
X136961714Y-98258380D01*
X137342666Y-98258380D01*
X137437904Y-98306000D01*
X137485523Y-98353619D01*
X137533142Y-98448857D01*
X137533142Y-98591714D01*
X137485523Y-98686952D01*
X137437904Y-98734571D01*
X137342666Y-98782190D01*
X136961714Y-98782190D01*
X138485523Y-99258380D02*
X137914095Y-99258380D01*
X138199809Y-99258380D02*
X138199809Y-98258380D01*
X138104571Y-98401238D01*
X138009333Y-98496476D01*
X137914095Y-98544095D01*
X139342666Y-98591714D02*
X139342666Y-99258380D01*
X139104571Y-98210761D02*
X138866476Y-98925047D01*
X139485523Y-98925047D01*
X137533142Y-83256380D02*
X137199809Y-82780190D01*
X136961714Y-83256380D02*
X136961714Y-82256380D01*
X137342666Y-82256380D01*
X137437904Y-82304000D01*
X137485523Y-82351619D01*
X137533142Y-82446857D01*
X137533142Y-82589714D01*
X137485523Y-82684952D01*
X137437904Y-82732571D01*
X137342666Y-82780190D01*
X136961714Y-82780190D01*
X138485523Y-83256380D02*
X137914095Y-83256380D01*
X138199809Y-83256380D02*
X138199809Y-82256380D01*
X138104571Y-82399238D01*
X138009333Y-82494476D01*
X137914095Y-82542095D01*
X139390285Y-82256380D02*
X138914095Y-82256380D01*
X138866476Y-82732571D01*
X138914095Y-82684952D01*
X139009333Y-82637333D01*
X139247428Y-82637333D01*
X139342666Y-82684952D01*
X139390285Y-82732571D01*
X139437904Y-82827809D01*
X139437904Y-83065904D01*
X139390285Y-83161142D01*
X139342666Y-83208761D01*
X139247428Y-83256380D01*
X139009333Y-83256380D01*
X138914095Y-83208761D01*
X138866476Y-83161142D01*
X134485142Y-88844380D02*
X134151809Y-88368190D01*
X133913714Y-88844380D02*
X133913714Y-87844380D01*
X134294666Y-87844380D01*
X134389904Y-87892000D01*
X134437523Y-87939619D01*
X134485142Y-88034857D01*
X134485142Y-88177714D01*
X134437523Y-88272952D01*
X134389904Y-88320571D01*
X134294666Y-88368190D01*
X133913714Y-88368190D01*
X135437523Y-88844380D02*
X134866095Y-88844380D01*
X135151809Y-88844380D02*
X135151809Y-87844380D01*
X135056571Y-87987238D01*
X134961333Y-88082476D01*
X134866095Y-88130095D01*
X136294666Y-87844380D02*
X136104190Y-87844380D01*
X136008952Y-87892000D01*
X135961333Y-87939619D01*
X135866095Y-88082476D01*
X135818476Y-88272952D01*
X135818476Y-88653904D01*
X135866095Y-88749142D01*
X135913714Y-88796761D01*
X136008952Y-88844380D01*
X136199428Y-88844380D01*
X136294666Y-88796761D01*
X136342285Y-88749142D01*
X136389904Y-88653904D01*
X136389904Y-88415809D01*
X136342285Y-88320571D01*
X136294666Y-88272952D01*
X136199428Y-88225333D01*
X136008952Y-88225333D01*
X135913714Y-88272952D01*
X135866095Y-88320571D01*
X135818476Y-88415809D01*
X137533142Y-97988380D02*
X137199809Y-97512190D01*
X136961714Y-97988380D02*
X136961714Y-96988380D01*
X137342666Y-96988380D01*
X137437904Y-97036000D01*
X137485523Y-97083619D01*
X137533142Y-97178857D01*
X137533142Y-97321714D01*
X137485523Y-97416952D01*
X137437904Y-97464571D01*
X137342666Y-97512190D01*
X136961714Y-97512190D01*
X138485523Y-97988380D02*
X137914095Y-97988380D01*
X138199809Y-97988380D02*
X138199809Y-96988380D01*
X138104571Y-97131238D01*
X138009333Y-97226476D01*
X137914095Y-97274095D01*
X138818857Y-96988380D02*
X139485523Y-96988380D01*
X139056952Y-97988380D01*
X137279142Y-112466380D02*
X136945809Y-111990190D01*
X136707714Y-112466380D02*
X136707714Y-111466380D01*
X137088666Y-111466380D01*
X137183904Y-111514000D01*
X137231523Y-111561619D01*
X137279142Y-111656857D01*
X137279142Y-111799714D01*
X137231523Y-111894952D01*
X137183904Y-111942571D01*
X137088666Y-111990190D01*
X136707714Y-111990190D01*
X138231523Y-112466380D02*
X137660095Y-112466380D01*
X137945809Y-112466380D02*
X137945809Y-111466380D01*
X137850571Y-111609238D01*
X137755333Y-111704476D01*
X137660095Y-111752095D01*
X138802952Y-111894952D02*
X138707714Y-111847333D01*
X138660095Y-111799714D01*
X138612476Y-111704476D01*
X138612476Y-111656857D01*
X138660095Y-111561619D01*
X138707714Y-111514000D01*
X138802952Y-111466380D01*
X138993428Y-111466380D01*
X139088666Y-111514000D01*
X139136285Y-111561619D01*
X139183904Y-111656857D01*
X139183904Y-111704476D01*
X139136285Y-111799714D01*
X139088666Y-111847333D01*
X138993428Y-111894952D01*
X138802952Y-111894952D01*
X138707714Y-111942571D01*
X138660095Y-111990190D01*
X138612476Y-112085428D01*
X138612476Y-112275904D01*
X138660095Y-112371142D01*
X138707714Y-112418761D01*
X138802952Y-112466380D01*
X138993428Y-112466380D01*
X139088666Y-112418761D01*
X139136285Y-112371142D01*
X139183904Y-112275904D01*
X139183904Y-112085428D01*
X139136285Y-111990190D01*
X139088666Y-111942571D01*
X138993428Y-111894952D01*
X137533142Y-120086380D02*
X137199809Y-119610190D01*
X136961714Y-120086380D02*
X136961714Y-119086380D01*
X137342666Y-119086380D01*
X137437904Y-119134000D01*
X137485523Y-119181619D01*
X137533142Y-119276857D01*
X137533142Y-119419714D01*
X137485523Y-119514952D01*
X137437904Y-119562571D01*
X137342666Y-119610190D01*
X136961714Y-119610190D01*
X138485523Y-120086380D02*
X137914095Y-120086380D01*
X138199809Y-120086380D02*
X138199809Y-119086380D01*
X138104571Y-119229238D01*
X138009333Y-119324476D01*
X137914095Y-119372095D01*
X138961714Y-120086380D02*
X139152190Y-120086380D01*
X139247428Y-120038761D01*
X139295047Y-119991142D01*
X139390285Y-119848285D01*
X139437904Y-119657809D01*
X139437904Y-119276857D01*
X139390285Y-119181619D01*
X139342666Y-119134000D01*
X139247428Y-119086380D01*
X139056952Y-119086380D01*
X138961714Y-119134000D01*
X138914095Y-119181619D01*
X138866476Y-119276857D01*
X138866476Y-119514952D01*
X138914095Y-119610190D01*
X138961714Y-119657809D01*
X139056952Y-119705428D01*
X139247428Y-119705428D01*
X139342666Y-119657809D01*
X139390285Y-119610190D01*
X139437904Y-119514952D01*
X137787142Y-122780380D02*
X137453809Y-122304190D01*
X137215714Y-122780380D02*
X137215714Y-121780380D01*
X137596666Y-121780380D01*
X137691904Y-121828000D01*
X137739523Y-121875619D01*
X137787142Y-121970857D01*
X137787142Y-122113714D01*
X137739523Y-122208952D01*
X137691904Y-122256571D01*
X137596666Y-122304190D01*
X137215714Y-122304190D01*
X138168095Y-121875619D02*
X138215714Y-121828000D01*
X138310952Y-121780380D01*
X138549047Y-121780380D01*
X138644285Y-121828000D01*
X138691904Y-121875619D01*
X138739523Y-121970857D01*
X138739523Y-122066095D01*
X138691904Y-122208952D01*
X138120476Y-122780380D01*
X138739523Y-122780380D01*
X139358571Y-121780380D02*
X139453809Y-121780380D01*
X139549047Y-121828000D01*
X139596666Y-121875619D01*
X139644285Y-121970857D01*
X139691904Y-122161333D01*
X139691904Y-122399428D01*
X139644285Y-122589904D01*
X139596666Y-122685142D01*
X139549047Y-122732761D01*
X139453809Y-122780380D01*
X139358571Y-122780380D01*
X139263333Y-122732761D01*
X139215714Y-122685142D01*
X139168095Y-122589904D01*
X139120476Y-122399428D01*
X139120476Y-122161333D01*
X139168095Y-121970857D01*
X139215714Y-121875619D01*
X139263333Y-121828000D01*
X139358571Y-121780380D01*
X118618095Y-101092380D02*
X118618095Y-101901904D01*
X118665714Y-101997142D01*
X118713333Y-102044761D01*
X118808571Y-102092380D01*
X118999047Y-102092380D01*
X119094285Y-102044761D01*
X119141904Y-101997142D01*
X119189523Y-101901904D01*
X119189523Y-101092380D01*
X119570476Y-101092380D02*
X120189523Y-101092380D01*
X119856190Y-101473333D01*
X119999047Y-101473333D01*
X120094285Y-101520952D01*
X120141904Y-101568571D01*
X120189523Y-101663809D01*
X120189523Y-101901904D01*
X120141904Y-101997142D01*
X120094285Y-102044761D01*
X119999047Y-102092380D01*
X119713333Y-102092380D01*
X119618095Y-102044761D01*
X119570476Y-101997142D01*
M02*
