G04 #@! TF.GenerationSoftware,KiCad,Pcbnew,(5.1.12)-1*
G04 #@! TF.CreationDate,2021-12-15T05:31:51+03:00*
G04 #@! TF.ProjectId,sagitta-shield,73616769-7474-4612-9d73-6869656c642e,rev?*
G04 #@! TF.SameCoordinates,Original*
G04 #@! TF.FileFunction,Soldermask,Bot*
G04 #@! TF.FilePolarity,Negative*
%FSLAX46Y46*%
G04 Gerber Fmt 4.6, Leading zero omitted, Abs format (unit mm)*
G04 Created by KiCad (PCBNEW (5.1.12)-1) date 2021-12-15 05:31:51*
%MOMM*%
%LPD*%
G01*
G04 APERTURE LIST*
%ADD10C,0.100000*%
%ADD11C,0.150000*%
%ADD12C,0.300000*%
%ADD13C,0.400000*%
%ADD14O,1.452000X1.452000*%
%ADD15O,1.802000X1.802000*%
G04 APERTURE END LIST*
D10*
D11*
X177002200Y-166007200D02*
X177002200Y-198007200D01*
X285002200Y-198007200D01*
X285002200Y-166007200D01*
X177002200Y-166007200D01*
D10*
D11*
X10000000Y-10000000D02*
X10000000Y-200007200D01*
X287002200Y-200007200D01*
X287002200Y-10000000D01*
X10000000Y-10000000D01*
D10*
D11*
X12000000Y-12000000D02*
X12000000Y-198007200D01*
X285002200Y-198007200D01*
X285002200Y-12000000D01*
X12000000Y-12000000D01*
D10*
D11*
X60000000Y-12000000D02*
X60000000Y-10000000D01*
D10*
D11*
X110000000Y-12000000D02*
X110000000Y-10000000D01*
D10*
D11*
X160000000Y-12000000D02*
X160000000Y-10000000D01*
D10*
D11*
X210000000Y-12000000D02*
X210000000Y-10000000D01*
D10*
D11*
X260000000Y-12000000D02*
X260000000Y-10000000D01*
D10*
D11*
X36065476Y-11588095D02*
X35322619Y-11588095D01*
X35694047Y-11588095D02*
X35694047Y-10288095D01*
X35570238Y-10473809D01*
X35446428Y-10597619D01*
X35322619Y-10659523D01*
D10*
D11*
X85322619Y-10411904D02*
X85384523Y-10350000D01*
X85508333Y-10288095D01*
X85817857Y-10288095D01*
X85941666Y-10350000D01*
X86003571Y-10411904D01*
X86065476Y-10535714D01*
X86065476Y-10659523D01*
X86003571Y-10845238D01*
X85260714Y-11588095D01*
X86065476Y-11588095D01*
D10*
D11*
X135260714Y-10288095D02*
X136065476Y-10288095D01*
X135632142Y-10783333D01*
X135817857Y-10783333D01*
X135941666Y-10845238D01*
X136003571Y-10907142D01*
X136065476Y-11030952D01*
X136065476Y-11340476D01*
X136003571Y-11464285D01*
X135941666Y-11526190D01*
X135817857Y-11588095D01*
X135446428Y-11588095D01*
X135322619Y-11526190D01*
X135260714Y-11464285D01*
D10*
D11*
X185941666Y-10721428D02*
X185941666Y-11588095D01*
X185632142Y-10226190D02*
X185322619Y-11154761D01*
X186127380Y-11154761D01*
D10*
D11*
X236003571Y-10288095D02*
X235384523Y-10288095D01*
X235322619Y-10907142D01*
X235384523Y-10845238D01*
X235508333Y-10783333D01*
X235817857Y-10783333D01*
X235941666Y-10845238D01*
X236003571Y-10907142D01*
X236065476Y-11030952D01*
X236065476Y-11340476D01*
X236003571Y-11464285D01*
X235941666Y-11526190D01*
X235817857Y-11588095D01*
X235508333Y-11588095D01*
X235384523Y-11526190D01*
X235322619Y-11464285D01*
D10*
D11*
X285941666Y-10288095D02*
X285694047Y-10288095D01*
X285570238Y-10350000D01*
X285508333Y-10411904D01*
X285384523Y-10597619D01*
X285322619Y-10845238D01*
X285322619Y-11340476D01*
X285384523Y-11464285D01*
X285446428Y-11526190D01*
X285570238Y-11588095D01*
X285817857Y-11588095D01*
X285941666Y-11526190D01*
X286003571Y-11464285D01*
X286065476Y-11340476D01*
X286065476Y-11030952D01*
X286003571Y-10907142D01*
X285941666Y-10845238D01*
X285817857Y-10783333D01*
X285570238Y-10783333D01*
X285446428Y-10845238D01*
X285384523Y-10907142D01*
X285322619Y-11030952D01*
D10*
D11*
X60000000Y-198007200D02*
X60000000Y-200007200D01*
D10*
D11*
X110000000Y-198007200D02*
X110000000Y-200007200D01*
D10*
D11*
X160000000Y-198007200D02*
X160000000Y-200007200D01*
D10*
D11*
X210000000Y-198007200D02*
X210000000Y-200007200D01*
D10*
D11*
X260000000Y-198007200D02*
X260000000Y-200007200D01*
D10*
D11*
X36065476Y-199595295D02*
X35322619Y-199595295D01*
X35694047Y-199595295D02*
X35694047Y-198295295D01*
X35570238Y-198481009D01*
X35446428Y-198604819D01*
X35322619Y-198666723D01*
D10*
D11*
X85322619Y-198419104D02*
X85384523Y-198357200D01*
X85508333Y-198295295D01*
X85817857Y-198295295D01*
X85941666Y-198357200D01*
X86003571Y-198419104D01*
X86065476Y-198542914D01*
X86065476Y-198666723D01*
X86003571Y-198852438D01*
X85260714Y-199595295D01*
X86065476Y-199595295D01*
D10*
D11*
X135260714Y-198295295D02*
X136065476Y-198295295D01*
X135632142Y-198790533D01*
X135817857Y-198790533D01*
X135941666Y-198852438D01*
X136003571Y-198914342D01*
X136065476Y-199038152D01*
X136065476Y-199347676D01*
X136003571Y-199471485D01*
X135941666Y-199533390D01*
X135817857Y-199595295D01*
X135446428Y-199595295D01*
X135322619Y-199533390D01*
X135260714Y-199471485D01*
D10*
D11*
X185941666Y-198728628D02*
X185941666Y-199595295D01*
X185632142Y-198233390D02*
X185322619Y-199161961D01*
X186127380Y-199161961D01*
D10*
D11*
X236003571Y-198295295D02*
X235384523Y-198295295D01*
X235322619Y-198914342D01*
X235384523Y-198852438D01*
X235508333Y-198790533D01*
X235817857Y-198790533D01*
X235941666Y-198852438D01*
X236003571Y-198914342D01*
X236065476Y-199038152D01*
X236065476Y-199347676D01*
X236003571Y-199471485D01*
X235941666Y-199533390D01*
X235817857Y-199595295D01*
X235508333Y-199595295D01*
X235384523Y-199533390D01*
X235322619Y-199471485D01*
D10*
D11*
X285941666Y-198295295D02*
X285694047Y-198295295D01*
X285570238Y-198357200D01*
X285508333Y-198419104D01*
X285384523Y-198604819D01*
X285322619Y-198852438D01*
X285322619Y-199347676D01*
X285384523Y-199471485D01*
X285446428Y-199533390D01*
X285570238Y-199595295D01*
X285817857Y-199595295D01*
X285941666Y-199533390D01*
X286003571Y-199471485D01*
X286065476Y-199347676D01*
X286065476Y-199038152D01*
X286003571Y-198914342D01*
X285941666Y-198852438D01*
X285817857Y-198790533D01*
X285570238Y-198790533D01*
X285446428Y-198852438D01*
X285384523Y-198914342D01*
X285322619Y-199038152D01*
D10*
D11*
X10000000Y-60000000D02*
X12000000Y-60000000D01*
D10*
D11*
X10000000Y-110000000D02*
X12000000Y-110000000D01*
D10*
D11*
X10000000Y-160000000D02*
X12000000Y-160000000D01*
D10*
D11*
X10690476Y-35216666D02*
X11309523Y-35216666D01*
X10566666Y-35588095D02*
X11000000Y-34288095D01*
X11433333Y-35588095D01*
D10*
D11*
X11092857Y-84907142D02*
X11278571Y-84969047D01*
X11340476Y-85030952D01*
X11402380Y-85154761D01*
X11402380Y-85340476D01*
X11340476Y-85464285D01*
X11278571Y-85526190D01*
X11154761Y-85588095D01*
X10659523Y-85588095D01*
X10659523Y-84288095D01*
X11092857Y-84288095D01*
X11216666Y-84350000D01*
X11278571Y-84411904D01*
X11340476Y-84535714D01*
X11340476Y-84659523D01*
X11278571Y-84783333D01*
X11216666Y-84845238D01*
X11092857Y-84907142D01*
X10659523Y-84907142D01*
D10*
D11*
X11402380Y-135464285D02*
X11340476Y-135526190D01*
X11154761Y-135588095D01*
X11030952Y-135588095D01*
X10845238Y-135526190D01*
X10721428Y-135402380D01*
X10659523Y-135278571D01*
X10597619Y-135030952D01*
X10597619Y-134845238D01*
X10659523Y-134597619D01*
X10721428Y-134473809D01*
X10845238Y-134350000D01*
X11030952Y-134288095D01*
X11154761Y-134288095D01*
X11340476Y-134350000D01*
X11402380Y-134411904D01*
D10*
D11*
X10659523Y-185588095D02*
X10659523Y-184288095D01*
X10969047Y-184288095D01*
X11154761Y-184350000D01*
X11278571Y-184473809D01*
X11340476Y-184597619D01*
X11402380Y-184845238D01*
X11402380Y-185030952D01*
X11340476Y-185278571D01*
X11278571Y-185402380D01*
X11154761Y-185526190D01*
X10969047Y-185588095D01*
X10659523Y-185588095D01*
D10*
D11*
X287002200Y-60000000D02*
X285002200Y-60000000D01*
D10*
D11*
X287002200Y-110000000D02*
X285002200Y-110000000D01*
D10*
D11*
X287002200Y-160000000D02*
X285002200Y-160000000D01*
D10*
D11*
X285692676Y-35216666D02*
X286311723Y-35216666D01*
X285568866Y-35588095D02*
X286002200Y-34288095D01*
X286435533Y-35588095D01*
D10*
D11*
X286095057Y-84907142D02*
X286280771Y-84969047D01*
X286342676Y-85030952D01*
X286404580Y-85154761D01*
X286404580Y-85340476D01*
X286342676Y-85464285D01*
X286280771Y-85526190D01*
X286156961Y-85588095D01*
X285661723Y-85588095D01*
X285661723Y-84288095D01*
X286095057Y-84288095D01*
X286218866Y-84350000D01*
X286280771Y-84411904D01*
X286342676Y-84535714D01*
X286342676Y-84659523D01*
X286280771Y-84783333D01*
X286218866Y-84845238D01*
X286095057Y-84907142D01*
X285661723Y-84907142D01*
D10*
D11*
X286404580Y-135464285D02*
X286342676Y-135526190D01*
X286156961Y-135588095D01*
X286033152Y-135588095D01*
X285847438Y-135526190D01*
X285723628Y-135402380D01*
X285661723Y-135278571D01*
X285599819Y-135030952D01*
X285599819Y-134845238D01*
X285661723Y-134597619D01*
X285723628Y-134473809D01*
X285847438Y-134350000D01*
X286033152Y-134288095D01*
X286156961Y-134288095D01*
X286342676Y-134350000D01*
X286404580Y-134411904D01*
D10*
D11*
X285661723Y-185588095D02*
X285661723Y-184288095D01*
X285971247Y-184288095D01*
X286156961Y-184350000D01*
X286280771Y-184473809D01*
X286342676Y-184597619D01*
X286404580Y-184845238D01*
X286404580Y-185030952D01*
X286342676Y-185278571D01*
X286280771Y-185402380D01*
X286156961Y-185526190D01*
X285971247Y-185588095D01*
X285661723Y-185588095D01*
D10*
D11*
X200434342Y-193785771D02*
X200434342Y-192285771D01*
X200791485Y-192285771D01*
X201005771Y-192357200D01*
X201148628Y-192500057D01*
X201220057Y-192642914D01*
X201291485Y-192928628D01*
X201291485Y-193142914D01*
X201220057Y-193428628D01*
X201148628Y-193571485D01*
X201005771Y-193714342D01*
X200791485Y-193785771D01*
X200434342Y-193785771D01*
X202577200Y-193785771D02*
X202577200Y-193000057D01*
X202505771Y-192857200D01*
X202362914Y-192785771D01*
X202077200Y-192785771D01*
X201934342Y-192857200D01*
X202577200Y-193714342D02*
X202434342Y-193785771D01*
X202077200Y-193785771D01*
X201934342Y-193714342D01*
X201862914Y-193571485D01*
X201862914Y-193428628D01*
X201934342Y-193285771D01*
X202077200Y-193214342D01*
X202434342Y-193214342D01*
X202577200Y-193142914D01*
X203077200Y-192785771D02*
X203648628Y-192785771D01*
X203291485Y-192285771D02*
X203291485Y-193571485D01*
X203362914Y-193714342D01*
X203505771Y-193785771D01*
X203648628Y-193785771D01*
X204720057Y-193714342D02*
X204577200Y-193785771D01*
X204291485Y-193785771D01*
X204148628Y-193714342D01*
X204077200Y-193571485D01*
X204077200Y-193000057D01*
X204148628Y-192857200D01*
X204291485Y-192785771D01*
X204577200Y-192785771D01*
X204720057Y-192857200D01*
X204791485Y-193000057D01*
X204791485Y-193142914D01*
X204077200Y-193285771D01*
X205434342Y-193642914D02*
X205505771Y-193714342D01*
X205434342Y-193785771D01*
X205362914Y-193714342D01*
X205434342Y-193642914D01*
X205434342Y-193785771D01*
X205434342Y-192857200D02*
X205505771Y-192928628D01*
X205434342Y-193000057D01*
X205362914Y-192928628D01*
X205434342Y-192857200D01*
X205434342Y-193000057D01*
D10*
D11*
X177002200Y-194507200D02*
X285002200Y-194507200D01*
D10*
D11*
X178434342Y-196585771D02*
X178434342Y-195085771D01*
X179291485Y-196585771D02*
X178648628Y-195728628D01*
X179291485Y-195085771D02*
X178434342Y-195942914D01*
X179934342Y-196585771D02*
X179934342Y-195585771D01*
X179934342Y-195085771D02*
X179862914Y-195157200D01*
X179934342Y-195228628D01*
X180005771Y-195157200D01*
X179934342Y-195085771D01*
X179934342Y-195228628D01*
X181505771Y-196442914D02*
X181434342Y-196514342D01*
X181220057Y-196585771D01*
X181077200Y-196585771D01*
X180862914Y-196514342D01*
X180720057Y-196371485D01*
X180648628Y-196228628D01*
X180577200Y-195942914D01*
X180577200Y-195728628D01*
X180648628Y-195442914D01*
X180720057Y-195300057D01*
X180862914Y-195157200D01*
X181077200Y-195085771D01*
X181220057Y-195085771D01*
X181434342Y-195157200D01*
X181505771Y-195228628D01*
X182791485Y-196585771D02*
X182791485Y-195800057D01*
X182720057Y-195657200D01*
X182577200Y-195585771D01*
X182291485Y-195585771D01*
X182148628Y-195657200D01*
X182791485Y-196514342D02*
X182648628Y-196585771D01*
X182291485Y-196585771D01*
X182148628Y-196514342D01*
X182077200Y-196371485D01*
X182077200Y-196228628D01*
X182148628Y-196085771D01*
X182291485Y-196014342D01*
X182648628Y-196014342D01*
X182791485Y-195942914D01*
X184148628Y-196585771D02*
X184148628Y-195085771D01*
X184148628Y-196514342D02*
X184005771Y-196585771D01*
X183720057Y-196585771D01*
X183577200Y-196514342D01*
X183505771Y-196442914D01*
X183434342Y-196300057D01*
X183434342Y-195871485D01*
X183505771Y-195728628D01*
X183577200Y-195657200D01*
X183720057Y-195585771D01*
X184005771Y-195585771D01*
X184148628Y-195657200D01*
X186005771Y-195800057D02*
X186505771Y-195800057D01*
X186720057Y-196585771D02*
X186005771Y-196585771D01*
X186005771Y-195085771D01*
X186720057Y-195085771D01*
X187362914Y-196442914D02*
X187434342Y-196514342D01*
X187362914Y-196585771D01*
X187291485Y-196514342D01*
X187362914Y-196442914D01*
X187362914Y-196585771D01*
X188077200Y-196585771D02*
X188077200Y-195085771D01*
X188434342Y-195085771D01*
X188648628Y-195157200D01*
X188791485Y-195300057D01*
X188862914Y-195442914D01*
X188934342Y-195728628D01*
X188934342Y-195942914D01*
X188862914Y-196228628D01*
X188791485Y-196371485D01*
X188648628Y-196514342D01*
X188434342Y-196585771D01*
X188077200Y-196585771D01*
X189577200Y-196442914D02*
X189648628Y-196514342D01*
X189577200Y-196585771D01*
X189505771Y-196514342D01*
X189577200Y-196442914D01*
X189577200Y-196585771D01*
X190220057Y-196157200D02*
X190934342Y-196157200D01*
X190077200Y-196585771D02*
X190577200Y-195085771D01*
X191077200Y-196585771D01*
X191577200Y-196442914D02*
X191648628Y-196514342D01*
X191577200Y-196585771D01*
X191505771Y-196514342D01*
X191577200Y-196442914D01*
X191577200Y-196585771D01*
X194577200Y-196585771D02*
X194577200Y-195085771D01*
X194720057Y-196014342D02*
X195148628Y-196585771D01*
X195148628Y-195585771D02*
X194577200Y-196157200D01*
X195791485Y-196585771D02*
X195791485Y-195585771D01*
X195791485Y-195085771D02*
X195720057Y-195157200D01*
X195791485Y-195228628D01*
X195862914Y-195157200D01*
X195791485Y-195085771D01*
X195791485Y-195228628D01*
X197148628Y-196514342D02*
X197005771Y-196585771D01*
X196720057Y-196585771D01*
X196577200Y-196514342D01*
X196505771Y-196442914D01*
X196434342Y-196300057D01*
X196434342Y-195871485D01*
X196505771Y-195728628D01*
X196577200Y-195657200D01*
X196720057Y-195585771D01*
X197005771Y-195585771D01*
X197148628Y-195657200D01*
X198434342Y-196585771D02*
X198434342Y-195800057D01*
X198362914Y-195657200D01*
X198220057Y-195585771D01*
X197934342Y-195585771D01*
X197791485Y-195657200D01*
X198434342Y-196514342D02*
X198291485Y-196585771D01*
X197934342Y-196585771D01*
X197791485Y-196514342D01*
X197720057Y-196371485D01*
X197720057Y-196228628D01*
X197791485Y-196085771D01*
X197934342Y-196014342D01*
X198291485Y-196014342D01*
X198434342Y-195942914D01*
X199791485Y-196585771D02*
X199791485Y-195085771D01*
X199791485Y-196514342D02*
X199648628Y-196585771D01*
X199362914Y-196585771D01*
X199220057Y-196514342D01*
X199148628Y-196442914D01*
X199077200Y-196300057D01*
X199077200Y-195871485D01*
X199148628Y-195728628D01*
X199220057Y-195657200D01*
X199362914Y-195585771D01*
X199648628Y-195585771D01*
X199791485Y-195657200D01*
X202077200Y-197157200D02*
X202005771Y-197085771D01*
X201862914Y-196871485D01*
X201791485Y-196728628D01*
X201720057Y-196514342D01*
X201648628Y-196157200D01*
X201648628Y-195871485D01*
X201720057Y-195514342D01*
X201791485Y-195300057D01*
X201862914Y-195157200D01*
X202005771Y-194942914D01*
X202077200Y-194871485D01*
X203362914Y-195085771D02*
X202648628Y-195085771D01*
X202577200Y-195800057D01*
X202648628Y-195728628D01*
X202791485Y-195657200D01*
X203148628Y-195657200D01*
X203291485Y-195728628D01*
X203362914Y-195800057D01*
X203434342Y-195942914D01*
X203434342Y-196300057D01*
X203362914Y-196442914D01*
X203291485Y-196514342D01*
X203148628Y-196585771D01*
X202791485Y-196585771D01*
X202648628Y-196514342D01*
X202577200Y-196442914D01*
X204077200Y-196442914D02*
X204148628Y-196514342D01*
X204077200Y-196585771D01*
X204005771Y-196514342D01*
X204077200Y-196442914D01*
X204077200Y-196585771D01*
X205577200Y-196585771D02*
X204720057Y-196585771D01*
X205148628Y-196585771D02*
X205148628Y-195085771D01*
X205005771Y-195300057D01*
X204862914Y-195442914D01*
X204720057Y-195514342D01*
X206220057Y-196442914D02*
X206291485Y-196514342D01*
X206220057Y-196585771D01*
X206148628Y-196514342D01*
X206220057Y-196442914D01*
X206220057Y-196585771D01*
X207720057Y-196585771D02*
X206862914Y-196585771D01*
X207291485Y-196585771D02*
X207291485Y-195085771D01*
X207148628Y-195300057D01*
X207005771Y-195442914D01*
X206862914Y-195514342D01*
X208291485Y-195228628D02*
X208362914Y-195157200D01*
X208505771Y-195085771D01*
X208862914Y-195085771D01*
X209005771Y-195157200D01*
X209077200Y-195228628D01*
X209148628Y-195371485D01*
X209148628Y-195514342D01*
X209077200Y-195728628D01*
X208220057Y-196585771D01*
X209148628Y-196585771D01*
X209648628Y-197157200D02*
X209720057Y-197085771D01*
X209862914Y-196871485D01*
X209934342Y-196728628D01*
X210005771Y-196514342D01*
X210077200Y-196157200D01*
X210077200Y-195871485D01*
X210005771Y-195514342D01*
X209934342Y-195300057D01*
X209862914Y-195157200D01*
X209720057Y-194942914D01*
X209648628Y-194871485D01*
X210791485Y-196014342D02*
X211934342Y-196014342D01*
X213434342Y-196585771D02*
X212577200Y-196585771D01*
X213005771Y-196585771D02*
X213005771Y-195085771D01*
X212862914Y-195300057D01*
X212720057Y-195442914D01*
X212577200Y-195514342D01*
D10*
D11*
X177002200Y-191507200D02*
X285002200Y-191507200D01*
D10*
D12*
X264411485Y-193785771D02*
X263911485Y-193071485D01*
X263554342Y-193785771D02*
X263554342Y-192285771D01*
X264125771Y-192285771D01*
X264268628Y-192357200D01*
X264340057Y-192428628D01*
X264411485Y-192571485D01*
X264411485Y-192785771D01*
X264340057Y-192928628D01*
X264268628Y-193000057D01*
X264125771Y-193071485D01*
X263554342Y-193071485D01*
X265625771Y-193714342D02*
X265482914Y-193785771D01*
X265197200Y-193785771D01*
X265054342Y-193714342D01*
X264982914Y-193571485D01*
X264982914Y-193000057D01*
X265054342Y-192857200D01*
X265197200Y-192785771D01*
X265482914Y-192785771D01*
X265625771Y-192857200D01*
X265697200Y-193000057D01*
X265697200Y-193142914D01*
X264982914Y-193285771D01*
X266197200Y-192785771D02*
X266554342Y-193785771D01*
X266911485Y-192785771D01*
X267482914Y-193642914D02*
X267554342Y-193714342D01*
X267482914Y-193785771D01*
X267411485Y-193714342D01*
X267482914Y-193642914D01*
X267482914Y-193785771D01*
X267482914Y-192857200D02*
X267554342Y-192928628D01*
X267482914Y-193000057D01*
X267411485Y-192928628D01*
X267482914Y-192857200D01*
X267482914Y-193000057D01*
D10*
D11*
X178362914Y-193714342D02*
X178577200Y-193785771D01*
X178934342Y-193785771D01*
X179077200Y-193714342D01*
X179148628Y-193642914D01*
X179220057Y-193500057D01*
X179220057Y-193357200D01*
X179148628Y-193214342D01*
X179077200Y-193142914D01*
X178934342Y-193071485D01*
X178648628Y-193000057D01*
X178505771Y-192928628D01*
X178434342Y-192857200D01*
X178362914Y-192714342D01*
X178362914Y-192571485D01*
X178434342Y-192428628D01*
X178505771Y-192357200D01*
X178648628Y-192285771D01*
X179005771Y-192285771D01*
X179220057Y-192357200D01*
X179862914Y-193785771D02*
X179862914Y-192785771D01*
X179862914Y-192285771D02*
X179791485Y-192357200D01*
X179862914Y-192428628D01*
X179934342Y-192357200D01*
X179862914Y-192285771D01*
X179862914Y-192428628D01*
X180434342Y-192785771D02*
X181220057Y-192785771D01*
X180434342Y-193785771D01*
X181220057Y-193785771D01*
X182362914Y-193714342D02*
X182220057Y-193785771D01*
X181934342Y-193785771D01*
X181791485Y-193714342D01*
X181720057Y-193571485D01*
X181720057Y-193000057D01*
X181791485Y-192857200D01*
X181934342Y-192785771D01*
X182220057Y-192785771D01*
X182362914Y-192857200D01*
X182434342Y-193000057D01*
X182434342Y-193142914D01*
X181720057Y-193285771D01*
X183077200Y-193642914D02*
X183148628Y-193714342D01*
X183077200Y-193785771D01*
X183005771Y-193714342D01*
X183077200Y-193642914D01*
X183077200Y-193785771D01*
X183077200Y-192857200D02*
X183148628Y-192928628D01*
X183077200Y-193000057D01*
X183005771Y-192928628D01*
X183077200Y-192857200D01*
X183077200Y-193000057D01*
X184862914Y-193357200D02*
X185577200Y-193357200D01*
X184720057Y-193785771D02*
X185220057Y-192285771D01*
X185720057Y-193785771D01*
X186862914Y-192785771D02*
X186862914Y-193785771D01*
X186505771Y-192214342D02*
X186148628Y-193285771D01*
X187077200Y-193285771D01*
D10*
D11*
X263434342Y-196585771D02*
X263434342Y-195085771D01*
X264791485Y-196585771D02*
X264791485Y-195085771D01*
X264791485Y-196514342D02*
X264648628Y-196585771D01*
X264362914Y-196585771D01*
X264220057Y-196514342D01*
X264148628Y-196442914D01*
X264077200Y-196300057D01*
X264077200Y-195871485D01*
X264148628Y-195728628D01*
X264220057Y-195657200D01*
X264362914Y-195585771D01*
X264648628Y-195585771D01*
X264791485Y-195657200D01*
X265505771Y-196442914D02*
X265577200Y-196514342D01*
X265505771Y-196585771D01*
X265434342Y-196514342D01*
X265505771Y-196442914D01*
X265505771Y-196585771D01*
X265505771Y-195657200D02*
X265577200Y-195728628D01*
X265505771Y-195800057D01*
X265434342Y-195728628D01*
X265505771Y-195657200D01*
X265505771Y-195800057D01*
X268148628Y-196585771D02*
X267291485Y-196585771D01*
X267720057Y-196585771D02*
X267720057Y-195085771D01*
X267577200Y-195300057D01*
X267434342Y-195442914D01*
X267291485Y-195514342D01*
X269862914Y-195014342D02*
X268577200Y-196942914D01*
X271148628Y-196585771D02*
X270291485Y-196585771D01*
X270720057Y-196585771D02*
X270720057Y-195085771D01*
X270577200Y-195300057D01*
X270434342Y-195442914D01*
X270291485Y-195514342D01*
D10*
D11*
X177002200Y-187507200D02*
X285002200Y-187507200D01*
D10*
D13*
X178714580Y-188211961D02*
X179857438Y-188211961D01*
X179036009Y-190211961D02*
X179286009Y-188211961D01*
X180274104Y-190211961D02*
X180440771Y-188878628D01*
X180524104Y-188211961D02*
X180416961Y-188307200D01*
X180500295Y-188402438D01*
X180607438Y-188307200D01*
X180524104Y-188211961D01*
X180500295Y-188402438D01*
X181107438Y-188878628D02*
X181869342Y-188878628D01*
X181476485Y-188211961D02*
X181262200Y-189926247D01*
X181333628Y-190116723D01*
X181512200Y-190211961D01*
X181702676Y-190211961D01*
X182655057Y-190211961D02*
X182476485Y-190116723D01*
X182405057Y-189926247D01*
X182619342Y-188211961D01*
X184190771Y-190116723D02*
X183988390Y-190211961D01*
X183607438Y-190211961D01*
X183428866Y-190116723D01*
X183357438Y-189926247D01*
X183452676Y-189164342D01*
X183571723Y-188973866D01*
X183774104Y-188878628D01*
X184155057Y-188878628D01*
X184333628Y-188973866D01*
X184405057Y-189164342D01*
X184381247Y-189354819D01*
X183405057Y-189545295D01*
X185155057Y-190021485D02*
X185238390Y-190116723D01*
X185131247Y-190211961D01*
X185047914Y-190116723D01*
X185155057Y-190021485D01*
X185131247Y-190211961D01*
X185286009Y-188973866D02*
X185369342Y-189069104D01*
X185262200Y-189164342D01*
X185178866Y-189069104D01*
X185286009Y-188973866D01*
X185262200Y-189164342D01*
D10*
D11*
X178934342Y-185600057D02*
X178434342Y-185600057D01*
X178434342Y-186385771D02*
X178434342Y-184885771D01*
X179148628Y-184885771D01*
X179720057Y-186385771D02*
X179720057Y-185385771D01*
X179720057Y-184885771D02*
X179648628Y-184957200D01*
X179720057Y-185028628D01*
X179791485Y-184957200D01*
X179720057Y-184885771D01*
X179720057Y-185028628D01*
X180648628Y-186385771D02*
X180505771Y-186314342D01*
X180434342Y-186171485D01*
X180434342Y-184885771D01*
X181791485Y-186314342D02*
X181648628Y-186385771D01*
X181362914Y-186385771D01*
X181220057Y-186314342D01*
X181148628Y-186171485D01*
X181148628Y-185600057D01*
X181220057Y-185457200D01*
X181362914Y-185385771D01*
X181648628Y-185385771D01*
X181791485Y-185457200D01*
X181862914Y-185600057D01*
X181862914Y-185742914D01*
X181148628Y-185885771D01*
X182505771Y-186242914D02*
X182577200Y-186314342D01*
X182505771Y-186385771D01*
X182434342Y-186314342D01*
X182505771Y-186242914D01*
X182505771Y-186385771D01*
X182505771Y-185457200D02*
X182577200Y-185528628D01*
X182505771Y-185600057D01*
X182434342Y-185528628D01*
X182505771Y-185457200D01*
X182505771Y-185600057D01*
X184291485Y-186314342D02*
X184434342Y-186385771D01*
X184720057Y-186385771D01*
X184862914Y-186314342D01*
X184934342Y-186171485D01*
X184934342Y-186100057D01*
X184862914Y-185957200D01*
X184720057Y-185885771D01*
X184505771Y-185885771D01*
X184362914Y-185814342D01*
X184291485Y-185671485D01*
X184291485Y-185600057D01*
X184362914Y-185457200D01*
X184505771Y-185385771D01*
X184720057Y-185385771D01*
X184862914Y-185457200D01*
X186220057Y-186385771D02*
X186220057Y-185600057D01*
X186148628Y-185457200D01*
X186005771Y-185385771D01*
X185720057Y-185385771D01*
X185577200Y-185457200D01*
X186220057Y-186314342D02*
X186077200Y-186385771D01*
X185720057Y-186385771D01*
X185577200Y-186314342D01*
X185505771Y-186171485D01*
X185505771Y-186028628D01*
X185577200Y-185885771D01*
X185720057Y-185814342D01*
X186077200Y-185814342D01*
X186220057Y-185742914D01*
X187577200Y-185385771D02*
X187577200Y-186600057D01*
X187505771Y-186742914D01*
X187434342Y-186814342D01*
X187291485Y-186885771D01*
X187077200Y-186885771D01*
X186934342Y-186814342D01*
X187577200Y-186314342D02*
X187434342Y-186385771D01*
X187148628Y-186385771D01*
X187005771Y-186314342D01*
X186934342Y-186242914D01*
X186862914Y-186100057D01*
X186862914Y-185671485D01*
X186934342Y-185528628D01*
X187005771Y-185457200D01*
X187148628Y-185385771D01*
X187434342Y-185385771D01*
X187577200Y-185457200D01*
X188291485Y-186385771D02*
X188291485Y-185385771D01*
X188291485Y-184885771D02*
X188220057Y-184957200D01*
X188291485Y-185028628D01*
X188362914Y-184957200D01*
X188291485Y-184885771D01*
X188291485Y-185028628D01*
X188791485Y-185385771D02*
X189362914Y-185385771D01*
X189005771Y-184885771D02*
X189005771Y-186171485D01*
X189077200Y-186314342D01*
X189220057Y-186385771D01*
X189362914Y-186385771D01*
X189648628Y-185385771D02*
X190220057Y-185385771D01*
X189862914Y-184885771D02*
X189862914Y-186171485D01*
X189934342Y-186314342D01*
X190077200Y-186385771D01*
X190220057Y-186385771D01*
X191362914Y-186385771D02*
X191362914Y-185600057D01*
X191291485Y-185457200D01*
X191148628Y-185385771D01*
X190862914Y-185385771D01*
X190720057Y-185457200D01*
X191362914Y-186314342D02*
X191220057Y-186385771D01*
X190862914Y-186385771D01*
X190720057Y-186314342D01*
X190648628Y-186171485D01*
X190648628Y-186028628D01*
X190720057Y-185885771D01*
X190862914Y-185814342D01*
X191220057Y-185814342D01*
X191362914Y-185742914D01*
X192077200Y-185814342D02*
X193220057Y-185814342D01*
X193862914Y-186314342D02*
X194005771Y-186385771D01*
X194291485Y-186385771D01*
X194434342Y-186314342D01*
X194505771Y-186171485D01*
X194505771Y-186100057D01*
X194434342Y-185957200D01*
X194291485Y-185885771D01*
X194077200Y-185885771D01*
X193934342Y-185814342D01*
X193862914Y-185671485D01*
X193862914Y-185600057D01*
X193934342Y-185457200D01*
X194077200Y-185385771D01*
X194291485Y-185385771D01*
X194434342Y-185457200D01*
X195148628Y-186385771D02*
X195148628Y-184885771D01*
X195791485Y-186385771D02*
X195791485Y-185600057D01*
X195720057Y-185457200D01*
X195577200Y-185385771D01*
X195362914Y-185385771D01*
X195220057Y-185457200D01*
X195148628Y-185528628D01*
X196505771Y-186385771D02*
X196505771Y-185385771D01*
X196505771Y-184885771D02*
X196434342Y-184957200D01*
X196505771Y-185028628D01*
X196577200Y-184957200D01*
X196505771Y-184885771D01*
X196505771Y-185028628D01*
X197791485Y-186314342D02*
X197648628Y-186385771D01*
X197362914Y-186385771D01*
X197220057Y-186314342D01*
X197148628Y-186171485D01*
X197148628Y-185600057D01*
X197220057Y-185457200D01*
X197362914Y-185385771D01*
X197648628Y-185385771D01*
X197791485Y-185457200D01*
X197862914Y-185600057D01*
X197862914Y-185742914D01*
X197148628Y-185885771D01*
X198720057Y-186385771D02*
X198577200Y-186314342D01*
X198505771Y-186171485D01*
X198505771Y-184885771D01*
X199934342Y-186385771D02*
X199934342Y-184885771D01*
X199934342Y-186314342D02*
X199791485Y-186385771D01*
X199505771Y-186385771D01*
X199362914Y-186314342D01*
X199291485Y-186242914D01*
X199220057Y-186100057D01*
X199220057Y-185671485D01*
X199291485Y-185528628D01*
X199362914Y-185457200D01*
X199505771Y-185385771D01*
X199791485Y-185385771D01*
X199934342Y-185457200D01*
X200648628Y-186242914D02*
X200720057Y-186314342D01*
X200648628Y-186385771D01*
X200577200Y-186314342D01*
X200648628Y-186242914D01*
X200648628Y-186385771D01*
X201362914Y-186385771D02*
X201362914Y-184885771D01*
X201505771Y-185814342D02*
X201934342Y-186385771D01*
X201934342Y-185385771D02*
X201362914Y-185957200D01*
X202577200Y-186385771D02*
X202577200Y-185385771D01*
X202577200Y-184885771D02*
X202505771Y-184957200D01*
X202577200Y-185028628D01*
X202648628Y-184957200D01*
X202577200Y-184885771D01*
X202577200Y-185028628D01*
X203934342Y-186314342D02*
X203791485Y-186385771D01*
X203505771Y-186385771D01*
X203362914Y-186314342D01*
X203291485Y-186242914D01*
X203220057Y-186100057D01*
X203220057Y-185671485D01*
X203291485Y-185528628D01*
X203362914Y-185457200D01*
X203505771Y-185385771D01*
X203791485Y-185385771D01*
X203934342Y-185457200D01*
X205220057Y-186385771D02*
X205220057Y-185600057D01*
X205148628Y-185457200D01*
X205005771Y-185385771D01*
X204720057Y-185385771D01*
X204577200Y-185457200D01*
X205220057Y-186314342D02*
X205077200Y-186385771D01*
X204720057Y-186385771D01*
X204577200Y-186314342D01*
X204505771Y-186171485D01*
X204505771Y-186028628D01*
X204577200Y-185885771D01*
X204720057Y-185814342D01*
X205077200Y-185814342D01*
X205220057Y-185742914D01*
X206577200Y-186385771D02*
X206577200Y-184885771D01*
X206577200Y-186314342D02*
X206434342Y-186385771D01*
X206148628Y-186385771D01*
X206005771Y-186314342D01*
X205934342Y-186242914D01*
X205862914Y-186100057D01*
X205862914Y-185671485D01*
X205934342Y-185528628D01*
X206005771Y-185457200D01*
X206148628Y-185385771D01*
X206434342Y-185385771D01*
X206577200Y-185457200D01*
X206934342Y-186528628D02*
X208077200Y-186528628D01*
X208434342Y-185385771D02*
X208434342Y-186885771D01*
X208434342Y-185457200D02*
X208577200Y-185385771D01*
X208862914Y-185385771D01*
X209005771Y-185457200D01*
X209077200Y-185528628D01*
X209148628Y-185671485D01*
X209148628Y-186100057D01*
X209077200Y-186242914D01*
X209005771Y-186314342D01*
X208862914Y-186385771D01*
X208577200Y-186385771D01*
X208434342Y-186314342D01*
X210434342Y-186314342D02*
X210291485Y-186385771D01*
X210005771Y-186385771D01*
X209862914Y-186314342D01*
X209791485Y-186242914D01*
X209720057Y-186100057D01*
X209720057Y-185671485D01*
X209791485Y-185528628D01*
X209862914Y-185457200D01*
X210005771Y-185385771D01*
X210291485Y-185385771D01*
X210434342Y-185457200D01*
X211077200Y-186385771D02*
X211077200Y-184885771D01*
X211077200Y-185457200D02*
X211220057Y-185385771D01*
X211505771Y-185385771D01*
X211648628Y-185457200D01*
X211720057Y-185528628D01*
X211791485Y-185671485D01*
X211791485Y-186100057D01*
X211720057Y-186242914D01*
X211648628Y-186314342D01*
X211505771Y-186385771D01*
X211220057Y-186385771D01*
X211077200Y-186314342D01*
D10*
D11*
X177002200Y-181507200D02*
X285002200Y-181507200D01*
D10*
D11*
X178362914Y-183614342D02*
X178577200Y-183685771D01*
X178934342Y-183685771D01*
X179077200Y-183614342D01*
X179148628Y-183542914D01*
X179220057Y-183400057D01*
X179220057Y-183257200D01*
X179148628Y-183114342D01*
X179077200Y-183042914D01*
X178934342Y-182971485D01*
X178648628Y-182900057D01*
X178505771Y-182828628D01*
X178434342Y-182757200D01*
X178362914Y-182614342D01*
X178362914Y-182471485D01*
X178434342Y-182328628D01*
X178505771Y-182257200D01*
X178648628Y-182185771D01*
X179005771Y-182185771D01*
X179220057Y-182257200D01*
X179862914Y-183685771D02*
X179862914Y-182185771D01*
X180505771Y-183685771D02*
X180505771Y-182900057D01*
X180434342Y-182757200D01*
X180291485Y-182685771D01*
X180077200Y-182685771D01*
X179934342Y-182757200D01*
X179862914Y-182828628D01*
X181791485Y-183614342D02*
X181648628Y-183685771D01*
X181362914Y-183685771D01*
X181220057Y-183614342D01*
X181148628Y-183471485D01*
X181148628Y-182900057D01*
X181220057Y-182757200D01*
X181362914Y-182685771D01*
X181648628Y-182685771D01*
X181791485Y-182757200D01*
X181862914Y-182900057D01*
X181862914Y-183042914D01*
X181148628Y-183185771D01*
X183077200Y-183614342D02*
X182934342Y-183685771D01*
X182648628Y-183685771D01*
X182505771Y-183614342D01*
X182434342Y-183471485D01*
X182434342Y-182900057D01*
X182505771Y-182757200D01*
X182648628Y-182685771D01*
X182934342Y-182685771D01*
X183077200Y-182757200D01*
X183148628Y-182900057D01*
X183148628Y-183042914D01*
X182434342Y-183185771D01*
X183577200Y-182685771D02*
X184148628Y-182685771D01*
X183791485Y-182185771D02*
X183791485Y-183471485D01*
X183862914Y-183614342D01*
X184005771Y-183685771D01*
X184148628Y-183685771D01*
X184648628Y-183542914D02*
X184720057Y-183614342D01*
X184648628Y-183685771D01*
X184577200Y-183614342D01*
X184648628Y-183542914D01*
X184648628Y-183685771D01*
X184648628Y-182757200D02*
X184720057Y-182828628D01*
X184648628Y-182900057D01*
X184577200Y-182828628D01*
X184648628Y-182757200D01*
X184648628Y-182900057D01*
D10*
D11*
X197002200Y-191507200D02*
X197002200Y-194507200D01*
D10*
D11*
X261002200Y-191507200D02*
X261002200Y-198007200D01*
D14*
X116078000Y-73056000D03*
X116078000Y-71056000D03*
X116078000Y-69056000D03*
G36*
G01*
X115352000Y-67731000D02*
X115352000Y-66381000D01*
G75*
G02*
X115403000Y-66330000I51000J0D01*
G01*
X116753000Y-66330000D01*
G75*
G02*
X116804000Y-66381000I0J-51000D01*
G01*
X116804000Y-67731000D01*
G75*
G02*
X116753000Y-67782000I-51000J0D01*
G01*
X115403000Y-67782000D01*
G75*
G02*
X115352000Y-67731000I0J51000D01*
G01*
G37*
X118618000Y-73056000D03*
X118618000Y-71056000D03*
X118618000Y-69056000D03*
G36*
G01*
X117892000Y-67731000D02*
X117892000Y-66381000D01*
G75*
G02*
X117943000Y-66330000I51000J0D01*
G01*
X119293000Y-66330000D01*
G75*
G02*
X119344000Y-66381000I0J-51000D01*
G01*
X119344000Y-67731000D01*
G75*
G02*
X119293000Y-67782000I-51000J0D01*
G01*
X117943000Y-67782000D01*
G75*
G02*
X117892000Y-67731000I0J51000D01*
G01*
G37*
X121158000Y-73056000D03*
X121158000Y-71056000D03*
X121158000Y-69056000D03*
G36*
G01*
X120432000Y-67731000D02*
X120432000Y-66381000D01*
G75*
G02*
X120483000Y-66330000I51000J0D01*
G01*
X121833000Y-66330000D01*
G75*
G02*
X121884000Y-66381000I0J-51000D01*
G01*
X121884000Y-67731000D01*
G75*
G02*
X121833000Y-67782000I-51000J0D01*
G01*
X120483000Y-67782000D01*
G75*
G02*
X120432000Y-67731000I0J51000D01*
G01*
G37*
X138176000Y-90202000D03*
G36*
G01*
X138902000Y-91527000D02*
X138902000Y-92877000D01*
G75*
G02*
X138851000Y-92928000I-51000J0D01*
G01*
X137501000Y-92928000D01*
G75*
G02*
X137450000Y-92877000I0J51000D01*
G01*
X137450000Y-91527000D01*
G75*
G02*
X137501000Y-91476000I51000J0D01*
G01*
X138851000Y-91476000D01*
G75*
G02*
X138902000Y-91527000I0J-51000D01*
G01*
G37*
X137160000Y-114332000D03*
G36*
G01*
X137886000Y-115657000D02*
X137886000Y-117007000D01*
G75*
G02*
X137835000Y-117058000I-51000J0D01*
G01*
X136485000Y-117058000D01*
G75*
G02*
X136434000Y-117007000I0J51000D01*
G01*
X136434000Y-115657000D01*
G75*
G02*
X136485000Y-115606000I51000J0D01*
G01*
X137835000Y-115606000D01*
G75*
G02*
X137886000Y-115657000I0J-51000D01*
G01*
G37*
X120650000Y-98076000D03*
G36*
G01*
X121376000Y-99401000D02*
X121376000Y-100751000D01*
G75*
G02*
X121325000Y-100802000I-51000J0D01*
G01*
X119975000Y-100802000D01*
G75*
G02*
X119924000Y-100751000I0J51000D01*
G01*
X119924000Y-99401000D01*
G75*
G02*
X119975000Y-99350000I51000J0D01*
G01*
X121325000Y-99350000D01*
G75*
G02*
X121376000Y-99401000I0J-51000D01*
G01*
G37*
D10*
G36*
X127783950Y-85051980D02*
G01*
X127793517Y-85054882D01*
X127802334Y-85059595D01*
X127810062Y-85065938D01*
X127816405Y-85073666D01*
X127821118Y-85082483D01*
X127824020Y-85092050D01*
X127825000Y-85102000D01*
X127825000Y-85501000D01*
X128124000Y-85501000D01*
X128133950Y-85501980D01*
X128143517Y-85504882D01*
X128152334Y-85509595D01*
X128160062Y-85515938D01*
X128166405Y-85523666D01*
X128171118Y-85532483D01*
X128174020Y-85542050D01*
X128175000Y-85552000D01*
X128175000Y-86152000D01*
X128174020Y-86161950D01*
X128171118Y-86171517D01*
X128166405Y-86180334D01*
X128160062Y-86188062D01*
X128152334Y-86194405D01*
X128143517Y-86199118D01*
X128133950Y-86202020D01*
X128124000Y-86203000D01*
X127825000Y-86203000D01*
X127825000Y-86602000D01*
X127824020Y-86611950D01*
X127821118Y-86621517D01*
X127816405Y-86630334D01*
X127810062Y-86638062D01*
X127802334Y-86644405D01*
X127793517Y-86649118D01*
X127783950Y-86652020D01*
X127774000Y-86653000D01*
X127224000Y-86653000D01*
X127217888Y-86652398D01*
X127199466Y-86652398D01*
X127194467Y-86652152D01*
X127145636Y-86647342D01*
X127140686Y-86646608D01*
X127092561Y-86637036D01*
X127087705Y-86635820D01*
X127040750Y-86621576D01*
X127036039Y-86619890D01*
X126990706Y-86601113D01*
X126986180Y-86598973D01*
X126942907Y-86575842D01*
X126938616Y-86573269D01*
X126897817Y-86546009D01*
X126893796Y-86543027D01*
X126855867Y-86511899D01*
X126852159Y-86508538D01*
X126817462Y-86473841D01*
X126814101Y-86470133D01*
X126782973Y-86432204D01*
X126779991Y-86428183D01*
X126752731Y-86387384D01*
X126750158Y-86383093D01*
X126727027Y-86339820D01*
X126724887Y-86335294D01*
X126706110Y-86289961D01*
X126704424Y-86285250D01*
X126690180Y-86238295D01*
X126688964Y-86233439D01*
X126679392Y-86185314D01*
X126678658Y-86180364D01*
X126673848Y-86131533D01*
X126673602Y-86126534D01*
X126673602Y-86108112D01*
X126673000Y-86102000D01*
X126673000Y-85602000D01*
X126673602Y-85595888D01*
X126673602Y-85577466D01*
X126673848Y-85572467D01*
X126678658Y-85523636D01*
X126679392Y-85518686D01*
X126688964Y-85470561D01*
X126690180Y-85465705D01*
X126704424Y-85418750D01*
X126706110Y-85414039D01*
X126724887Y-85368706D01*
X126727027Y-85364180D01*
X126750158Y-85320907D01*
X126752731Y-85316616D01*
X126779991Y-85275817D01*
X126782973Y-85271796D01*
X126814101Y-85233867D01*
X126817462Y-85230159D01*
X126852159Y-85195462D01*
X126855867Y-85192101D01*
X126893796Y-85160973D01*
X126897817Y-85157991D01*
X126938616Y-85130731D01*
X126942907Y-85128158D01*
X126986180Y-85105027D01*
X126990706Y-85102887D01*
X127036039Y-85084110D01*
X127040750Y-85082424D01*
X127087705Y-85068180D01*
X127092561Y-85066964D01*
X127140686Y-85057392D01*
X127145636Y-85056658D01*
X127194467Y-85051848D01*
X127199466Y-85051602D01*
X127217888Y-85051602D01*
X127224000Y-85051000D01*
X127774000Y-85051000D01*
X127783950Y-85051980D01*
G37*
G36*
X129830112Y-85051602D02*
G01*
X129848534Y-85051602D01*
X129853533Y-85051848D01*
X129902364Y-85056658D01*
X129907314Y-85057392D01*
X129955439Y-85066964D01*
X129960295Y-85068180D01*
X130007250Y-85082424D01*
X130011961Y-85084110D01*
X130057294Y-85102887D01*
X130061820Y-85105027D01*
X130105093Y-85128158D01*
X130109384Y-85130731D01*
X130150183Y-85157991D01*
X130154204Y-85160973D01*
X130192133Y-85192101D01*
X130195841Y-85195462D01*
X130230538Y-85230159D01*
X130233899Y-85233867D01*
X130265027Y-85271796D01*
X130268009Y-85275817D01*
X130295269Y-85316616D01*
X130297842Y-85320907D01*
X130320973Y-85364180D01*
X130323113Y-85368706D01*
X130341890Y-85414039D01*
X130343576Y-85418750D01*
X130357820Y-85465705D01*
X130359036Y-85470561D01*
X130368608Y-85518686D01*
X130369342Y-85523636D01*
X130374152Y-85572467D01*
X130374398Y-85577466D01*
X130374398Y-85595888D01*
X130375000Y-85602000D01*
X130375000Y-86102000D01*
X130374398Y-86108112D01*
X130374398Y-86126534D01*
X130374152Y-86131533D01*
X130369342Y-86180364D01*
X130368608Y-86185314D01*
X130359036Y-86233439D01*
X130357820Y-86238295D01*
X130343576Y-86285250D01*
X130341890Y-86289961D01*
X130323113Y-86335294D01*
X130320973Y-86339820D01*
X130297842Y-86383093D01*
X130295269Y-86387384D01*
X130268009Y-86428183D01*
X130265027Y-86432204D01*
X130233899Y-86470133D01*
X130230538Y-86473841D01*
X130195841Y-86508538D01*
X130192133Y-86511899D01*
X130154204Y-86543027D01*
X130150183Y-86546009D01*
X130109384Y-86573269D01*
X130105093Y-86575842D01*
X130061820Y-86598973D01*
X130057294Y-86601113D01*
X130011961Y-86619890D01*
X130007250Y-86621576D01*
X129960295Y-86635820D01*
X129955439Y-86637036D01*
X129907314Y-86646608D01*
X129902364Y-86647342D01*
X129853533Y-86652152D01*
X129848534Y-86652398D01*
X129830112Y-86652398D01*
X129824000Y-86653000D01*
X129274000Y-86653000D01*
X129264050Y-86652020D01*
X129254483Y-86649118D01*
X129245666Y-86644405D01*
X129237938Y-86638062D01*
X129231595Y-86630334D01*
X129226882Y-86621517D01*
X129223980Y-86611950D01*
X129223000Y-86602000D01*
X129223000Y-85102000D01*
X129223980Y-85092050D01*
X129226882Y-85082483D01*
X129231595Y-85073666D01*
X129237938Y-85065938D01*
X129245666Y-85059595D01*
X129254483Y-85054882D01*
X129264050Y-85051980D01*
X129274000Y-85051000D01*
X129824000Y-85051000D01*
X129830112Y-85051602D01*
G37*
G36*
G01*
X127973000Y-86602000D02*
X127973000Y-85102000D01*
G75*
G02*
X128024000Y-85051000I51000J0D01*
G01*
X129024000Y-85051000D01*
G75*
G02*
X129075000Y-85102000I0J-51000D01*
G01*
X129075000Y-86602000D01*
G75*
G02*
X129024000Y-86653000I-51000J0D01*
G01*
X128024000Y-86653000D01*
G75*
G02*
X127973000Y-86602000I0J51000D01*
G01*
G37*
D15*
X114274600Y-100711000D03*
X114274600Y-108331000D03*
X114274600Y-82931000D03*
X114274600Y-115951000D03*
X114274600Y-105791000D03*
X114274600Y-93091000D03*
X114274600Y-110871000D03*
X114274600Y-118491000D03*
X114274600Y-88011000D03*
X114274600Y-103251000D03*
X114274600Y-128651000D03*
X114274600Y-121031000D03*
X114274600Y-113411000D03*
X114274600Y-90551000D03*
X114274600Y-98171000D03*
X114274600Y-85471000D03*
X114274600Y-95631000D03*
G36*
G01*
X115175600Y-130341000D02*
X115175600Y-132041000D01*
G75*
G02*
X115124600Y-132092000I-51000J0D01*
G01*
X113424600Y-132092000D01*
G75*
G02*
X113373600Y-132041000I0J51000D01*
G01*
X113373600Y-130341000D01*
G75*
G02*
X113424600Y-130290000I51000J0D01*
G01*
X115124600Y-130290000D01*
G75*
G02*
X115175600Y-130341000I0J-51000D01*
G01*
G37*
X114274600Y-126111000D03*
X114274600Y-123571000D03*
X140974470Y-82937492D03*
X140974470Y-85477492D03*
X140974470Y-88011000D03*
X140974470Y-90551000D03*
X140974470Y-93097492D03*
X140974470Y-95631000D03*
X140974470Y-98171000D03*
X140974470Y-100711000D03*
X140974470Y-103251000D03*
X140974470Y-105791000D03*
X140974470Y-108331000D03*
X140974470Y-110871000D03*
X140974470Y-113411000D03*
X140974470Y-115957492D03*
X140974470Y-118497492D03*
X140974470Y-121031000D03*
X140974470Y-123571000D03*
X140974470Y-126117492D03*
X140974470Y-128657492D03*
G36*
G01*
X141875470Y-130341000D02*
X141875470Y-132041000D01*
G75*
G02*
X141824470Y-132092000I-51000J0D01*
G01*
X140124470Y-132092000D01*
G75*
G02*
X140073470Y-132041000I0J51000D01*
G01*
X140073470Y-130341000D01*
G75*
G02*
X140124470Y-130290000I51000J0D01*
G01*
X141824470Y-130290000D01*
G75*
G02*
X141875470Y-130341000I0J-51000D01*
G01*
G37*
D10*
G36*
X130517980Y-68974050D02*
G01*
X130520882Y-68964483D01*
X130525595Y-68955666D01*
X130531938Y-68947938D01*
X130539666Y-68941595D01*
X130548483Y-68936882D01*
X130558050Y-68933980D01*
X130568000Y-68933000D01*
X132068000Y-68933000D01*
X132077950Y-68933980D01*
X132087517Y-68936882D01*
X132096334Y-68941595D01*
X132104062Y-68947938D01*
X132110405Y-68955666D01*
X132115118Y-68964483D01*
X132118020Y-68974050D01*
X132119000Y-68984000D01*
X132119000Y-69484000D01*
X132118398Y-69490112D01*
X132118398Y-69508534D01*
X132118152Y-69513533D01*
X132113342Y-69562364D01*
X132112608Y-69567314D01*
X132103036Y-69615439D01*
X132101820Y-69620295D01*
X132087576Y-69667250D01*
X132085890Y-69671961D01*
X132067113Y-69717294D01*
X132064973Y-69721820D01*
X132041842Y-69765093D01*
X132039269Y-69769384D01*
X132012009Y-69810183D01*
X132009027Y-69814204D01*
X131977899Y-69852133D01*
X131974538Y-69855841D01*
X131939841Y-69890538D01*
X131936133Y-69893899D01*
X131898204Y-69925027D01*
X131894183Y-69928009D01*
X131853384Y-69955269D01*
X131849093Y-69957842D01*
X131805820Y-69980973D01*
X131801294Y-69983113D01*
X131755961Y-70001890D01*
X131751250Y-70003576D01*
X131704295Y-70017820D01*
X131699439Y-70019036D01*
X131651314Y-70028608D01*
X131646364Y-70029342D01*
X131597533Y-70034152D01*
X131592534Y-70034398D01*
X131574112Y-70034398D01*
X131568000Y-70035000D01*
X131068000Y-70035000D01*
X131061888Y-70034398D01*
X131043466Y-70034398D01*
X131038467Y-70034152D01*
X130989636Y-70029342D01*
X130984686Y-70028608D01*
X130936561Y-70019036D01*
X130931705Y-70017820D01*
X130884750Y-70003576D01*
X130880039Y-70001890D01*
X130834706Y-69983113D01*
X130830180Y-69980973D01*
X130786907Y-69957842D01*
X130782616Y-69955269D01*
X130741817Y-69928009D01*
X130737796Y-69925027D01*
X130699867Y-69893899D01*
X130696159Y-69890538D01*
X130661462Y-69855841D01*
X130658101Y-69852133D01*
X130626973Y-69814204D01*
X130623991Y-69810183D01*
X130596731Y-69769384D01*
X130594158Y-69765093D01*
X130571027Y-69721820D01*
X130568887Y-69717294D01*
X130550110Y-69671961D01*
X130548424Y-69667250D01*
X130534180Y-69620295D01*
X130532964Y-69615439D01*
X130523392Y-69567314D01*
X130522658Y-69562364D01*
X130517848Y-69513533D01*
X130517602Y-69508534D01*
X130517602Y-69490112D01*
X130517000Y-69484000D01*
X130517000Y-68984000D01*
X130517980Y-68974050D01*
G37*
G36*
X130517602Y-68177888D02*
G01*
X130517602Y-68159466D01*
X130517848Y-68154467D01*
X130522658Y-68105636D01*
X130523392Y-68100686D01*
X130532964Y-68052561D01*
X130534180Y-68047705D01*
X130548424Y-68000750D01*
X130550110Y-67996039D01*
X130568887Y-67950706D01*
X130571027Y-67946180D01*
X130594158Y-67902907D01*
X130596731Y-67898616D01*
X130623991Y-67857817D01*
X130626973Y-67853796D01*
X130658101Y-67815867D01*
X130661462Y-67812159D01*
X130696159Y-67777462D01*
X130699867Y-67774101D01*
X130737796Y-67742973D01*
X130741817Y-67739991D01*
X130782616Y-67712731D01*
X130786907Y-67710158D01*
X130830180Y-67687027D01*
X130834706Y-67684887D01*
X130880039Y-67666110D01*
X130884750Y-67664424D01*
X130931705Y-67650180D01*
X130936561Y-67648964D01*
X130984686Y-67639392D01*
X130989636Y-67638658D01*
X131038467Y-67633848D01*
X131043466Y-67633602D01*
X131061888Y-67633602D01*
X131068000Y-67633000D01*
X131568000Y-67633000D01*
X131574112Y-67633602D01*
X131592534Y-67633602D01*
X131597533Y-67633848D01*
X131646364Y-67638658D01*
X131651314Y-67639392D01*
X131699439Y-67648964D01*
X131704295Y-67650180D01*
X131751250Y-67664424D01*
X131755961Y-67666110D01*
X131801294Y-67684887D01*
X131805820Y-67687027D01*
X131849093Y-67710158D01*
X131853384Y-67712731D01*
X131894183Y-67739991D01*
X131898204Y-67742973D01*
X131936133Y-67774101D01*
X131939841Y-67777462D01*
X131974538Y-67812159D01*
X131977899Y-67815867D01*
X132009027Y-67853796D01*
X132012009Y-67857817D01*
X132039269Y-67898616D01*
X132041842Y-67902907D01*
X132064973Y-67946180D01*
X132067113Y-67950706D01*
X132085890Y-67996039D01*
X132087576Y-68000750D01*
X132101820Y-68047705D01*
X132103036Y-68052561D01*
X132112608Y-68100686D01*
X132113342Y-68105636D01*
X132118152Y-68154467D01*
X132118398Y-68159466D01*
X132118398Y-68177888D01*
X132119000Y-68184000D01*
X132119000Y-68684000D01*
X132118020Y-68693950D01*
X132115118Y-68703517D01*
X132110405Y-68712334D01*
X132104062Y-68720062D01*
X132096334Y-68726405D01*
X132087517Y-68731118D01*
X132077950Y-68734020D01*
X132068000Y-68735000D01*
X130568000Y-68735000D01*
X130558050Y-68734020D01*
X130548483Y-68731118D01*
X130539666Y-68726405D01*
X130531938Y-68720062D01*
X130525595Y-68712334D01*
X130520882Y-68703517D01*
X130517980Y-68693950D01*
X130517000Y-68684000D01*
X130517000Y-68184000D01*
X130517602Y-68177888D01*
G37*
G36*
X130517980Y-64036050D02*
G01*
X130520882Y-64026483D01*
X130525595Y-64017666D01*
X130531938Y-64009938D01*
X130539666Y-64003595D01*
X130548483Y-63998882D01*
X130558050Y-63995980D01*
X130568000Y-63995000D01*
X132068000Y-63995000D01*
X132077950Y-63995980D01*
X132087517Y-63998882D01*
X132096334Y-64003595D01*
X132104062Y-64009938D01*
X132110405Y-64017666D01*
X132115118Y-64026483D01*
X132118020Y-64036050D01*
X132119000Y-64046000D01*
X132119000Y-64546000D01*
X132118398Y-64552112D01*
X132118398Y-64570534D01*
X132118152Y-64575533D01*
X132113342Y-64624364D01*
X132112608Y-64629314D01*
X132103036Y-64677439D01*
X132101820Y-64682295D01*
X132087576Y-64729250D01*
X132085890Y-64733961D01*
X132067113Y-64779294D01*
X132064973Y-64783820D01*
X132041842Y-64827093D01*
X132039269Y-64831384D01*
X132012009Y-64872183D01*
X132009027Y-64876204D01*
X131977899Y-64914133D01*
X131974538Y-64917841D01*
X131939841Y-64952538D01*
X131936133Y-64955899D01*
X131898204Y-64987027D01*
X131894183Y-64990009D01*
X131853384Y-65017269D01*
X131849093Y-65019842D01*
X131805820Y-65042973D01*
X131801294Y-65045113D01*
X131755961Y-65063890D01*
X131751250Y-65065576D01*
X131704295Y-65079820D01*
X131699439Y-65081036D01*
X131651314Y-65090608D01*
X131646364Y-65091342D01*
X131597533Y-65096152D01*
X131592534Y-65096398D01*
X131574112Y-65096398D01*
X131568000Y-65097000D01*
X131068000Y-65097000D01*
X131061888Y-65096398D01*
X131043466Y-65096398D01*
X131038467Y-65096152D01*
X130989636Y-65091342D01*
X130984686Y-65090608D01*
X130936561Y-65081036D01*
X130931705Y-65079820D01*
X130884750Y-65065576D01*
X130880039Y-65063890D01*
X130834706Y-65045113D01*
X130830180Y-65042973D01*
X130786907Y-65019842D01*
X130782616Y-65017269D01*
X130741817Y-64990009D01*
X130737796Y-64987027D01*
X130699867Y-64955899D01*
X130696159Y-64952538D01*
X130661462Y-64917841D01*
X130658101Y-64914133D01*
X130626973Y-64876204D01*
X130623991Y-64872183D01*
X130596731Y-64831384D01*
X130594158Y-64827093D01*
X130571027Y-64783820D01*
X130568887Y-64779294D01*
X130550110Y-64733961D01*
X130548424Y-64729250D01*
X130534180Y-64682295D01*
X130532964Y-64677439D01*
X130523392Y-64629314D01*
X130522658Y-64624364D01*
X130517848Y-64575533D01*
X130517602Y-64570534D01*
X130517602Y-64552112D01*
X130517000Y-64546000D01*
X130517000Y-64046000D01*
X130517980Y-64036050D01*
G37*
G36*
X130517602Y-63239888D02*
G01*
X130517602Y-63221466D01*
X130517848Y-63216467D01*
X130522658Y-63167636D01*
X130523392Y-63162686D01*
X130532964Y-63114561D01*
X130534180Y-63109705D01*
X130548424Y-63062750D01*
X130550110Y-63058039D01*
X130568887Y-63012706D01*
X130571027Y-63008180D01*
X130594158Y-62964907D01*
X130596731Y-62960616D01*
X130623991Y-62919817D01*
X130626973Y-62915796D01*
X130658101Y-62877867D01*
X130661462Y-62874159D01*
X130696159Y-62839462D01*
X130699867Y-62836101D01*
X130737796Y-62804973D01*
X130741817Y-62801991D01*
X130782616Y-62774731D01*
X130786907Y-62772158D01*
X130830180Y-62749027D01*
X130834706Y-62746887D01*
X130880039Y-62728110D01*
X130884750Y-62726424D01*
X130931705Y-62712180D01*
X130936561Y-62710964D01*
X130984686Y-62701392D01*
X130989636Y-62700658D01*
X131038467Y-62695848D01*
X131043466Y-62695602D01*
X131061888Y-62695602D01*
X131068000Y-62695000D01*
X131568000Y-62695000D01*
X131574112Y-62695602D01*
X131592534Y-62695602D01*
X131597533Y-62695848D01*
X131646364Y-62700658D01*
X131651314Y-62701392D01*
X131699439Y-62710964D01*
X131704295Y-62712180D01*
X131751250Y-62726424D01*
X131755961Y-62728110D01*
X131801294Y-62746887D01*
X131805820Y-62749027D01*
X131849093Y-62772158D01*
X131853384Y-62774731D01*
X131894183Y-62801991D01*
X131898204Y-62804973D01*
X131936133Y-62836101D01*
X131939841Y-62839462D01*
X131974538Y-62874159D01*
X131977899Y-62877867D01*
X132009027Y-62915796D01*
X132012009Y-62919817D01*
X132039269Y-62960616D01*
X132041842Y-62964907D01*
X132064973Y-63008180D01*
X132067113Y-63012706D01*
X132085890Y-63058039D01*
X132087576Y-63062750D01*
X132101820Y-63109705D01*
X132103036Y-63114561D01*
X132112608Y-63162686D01*
X132113342Y-63167636D01*
X132118152Y-63216467D01*
X132118398Y-63221466D01*
X132118398Y-63239888D01*
X132119000Y-63246000D01*
X132119000Y-63746000D01*
X132118020Y-63755950D01*
X132115118Y-63765517D01*
X132110405Y-63774334D01*
X132104062Y-63782062D01*
X132096334Y-63788405D01*
X132087517Y-63793118D01*
X132077950Y-63796020D01*
X132068000Y-63797000D01*
X130568000Y-63797000D01*
X130558050Y-63796020D01*
X130548483Y-63793118D01*
X130539666Y-63788405D01*
X130531938Y-63782062D01*
X130525595Y-63774334D01*
X130520882Y-63765517D01*
X130517980Y-63755950D01*
X130517000Y-63746000D01*
X130517000Y-63246000D01*
X130517602Y-63239888D01*
G37*
D15*
X125984000Y-70104000D03*
X125984000Y-67564000D03*
X125984000Y-65024000D03*
G36*
G01*
X125083000Y-63334000D02*
X125083000Y-61634000D01*
G75*
G02*
X125134000Y-61583000I51000J0D01*
G01*
X126834000Y-61583000D01*
G75*
G02*
X126885000Y-61634000I0J-51000D01*
G01*
X126885000Y-63334000D01*
G75*
G02*
X126834000Y-63385000I-51000J0D01*
G01*
X125134000Y-63385000D01*
G75*
G02*
X125083000Y-63334000I0J51000D01*
G01*
G37*
X129032000Y-70104000D03*
X129032000Y-67564000D03*
X129032000Y-65024000D03*
G36*
G01*
X128131000Y-63334000D02*
X128131000Y-61634000D01*
G75*
G02*
X128182000Y-61583000I51000J0D01*
G01*
X129882000Y-61583000D01*
G75*
G02*
X129933000Y-61634000I0J-51000D01*
G01*
X129933000Y-63334000D01*
G75*
G02*
X129882000Y-63385000I-51000J0D01*
G01*
X128182000Y-63385000D01*
G75*
G02*
X128131000Y-63334000I0J51000D01*
G01*
G37*
X136652000Y-70104000D03*
X136652000Y-67564000D03*
X136652000Y-65024000D03*
G36*
G01*
X135751000Y-63334000D02*
X135751000Y-61634000D01*
G75*
G02*
X135802000Y-61583000I51000J0D01*
G01*
X137502000Y-61583000D01*
G75*
G02*
X137553000Y-61634000I0J-51000D01*
G01*
X137553000Y-63334000D01*
G75*
G02*
X137502000Y-63385000I-51000J0D01*
G01*
X135802000Y-63385000D01*
G75*
G02*
X135751000Y-63334000I0J51000D01*
G01*
G37*
X134112000Y-70104000D03*
X134112000Y-67564000D03*
X134112000Y-65024000D03*
G36*
G01*
X133211000Y-63334000D02*
X133211000Y-61634000D01*
G75*
G02*
X133262000Y-61583000I51000J0D01*
G01*
X134962000Y-61583000D01*
G75*
G02*
X135013000Y-61634000I0J-51000D01*
G01*
X135013000Y-63334000D01*
G75*
G02*
X134962000Y-63385000I-51000J0D01*
G01*
X133262000Y-63385000D01*
G75*
G02*
X133211000Y-63334000I0J51000D01*
G01*
G37*
D10*
G36*
X127974732Y-86202000D02*
G01*
X127975000Y-86203000D01*
X127975000Y-86653000D01*
X127974000Y-86654732D01*
X127973000Y-86655000D01*
X127909748Y-86655000D01*
X127908805Y-86654764D01*
X127895067Y-86647421D01*
X127871992Y-86640421D01*
X127848001Y-86638058D01*
X127824010Y-86640421D01*
X127800746Y-86647478D01*
X127798798Y-86647024D01*
X127798217Y-86645110D01*
X127799222Y-86643800D01*
X127801218Y-86642733D01*
X127808641Y-86636641D01*
X127814734Y-86629218D01*
X127819261Y-86620748D01*
X127822050Y-86611555D01*
X127823000Y-86601906D01*
X127823000Y-86203000D01*
X127824000Y-86201268D01*
X127825000Y-86201000D01*
X127973000Y-86201000D01*
X127974732Y-86202000D01*
G37*
G36*
X129139195Y-85049236D02*
G01*
X129152933Y-85056579D01*
X129176008Y-85063579D01*
X129199999Y-85065942D01*
X129223990Y-85063579D01*
X129247253Y-85056522D01*
X129249201Y-85056976D01*
X129249782Y-85058890D01*
X129248777Y-85060200D01*
X129246782Y-85061266D01*
X129239359Y-85067359D01*
X129233266Y-85074782D01*
X129228739Y-85083252D01*
X129225950Y-85092445D01*
X129225000Y-85102094D01*
X129225000Y-86601906D01*
X129225950Y-86611555D01*
X129228739Y-86620748D01*
X129233266Y-86629218D01*
X129239359Y-86636641D01*
X129246782Y-86642734D01*
X129252707Y-86645900D01*
X129253763Y-86647598D01*
X129252820Y-86649362D01*
X129251184Y-86649578D01*
X129249567Y-86649088D01*
X129249382Y-86649022D01*
X129235703Y-86643356D01*
X129212053Y-86638651D01*
X129187946Y-86638651D01*
X129164296Y-86643355D01*
X129142022Y-86652581D01*
X129138906Y-86654663D01*
X129137795Y-86655000D01*
X129075000Y-86655000D01*
X129073268Y-86654000D01*
X129073000Y-86653000D01*
X129073000Y-85051000D01*
X129074000Y-85049268D01*
X129075000Y-85049000D01*
X129138252Y-85049000D01*
X129139195Y-85049236D01*
G37*
G36*
X127974732Y-85050000D02*
G01*
X127975000Y-85051000D01*
X127975000Y-85501000D01*
X127974000Y-85502732D01*
X127973000Y-85503000D01*
X127825000Y-85503000D01*
X127823268Y-85502000D01*
X127823000Y-85501000D01*
X127823000Y-85102094D01*
X127822050Y-85092445D01*
X127819261Y-85083252D01*
X127814734Y-85074782D01*
X127808641Y-85067359D01*
X127801218Y-85061266D01*
X127795293Y-85058100D01*
X127794237Y-85056402D01*
X127795180Y-85054638D01*
X127796816Y-85054422D01*
X127798433Y-85054912D01*
X127798618Y-85054978D01*
X127812297Y-85060644D01*
X127835947Y-85065349D01*
X127860054Y-85065349D01*
X127883704Y-85060645D01*
X127905978Y-85051419D01*
X127909094Y-85049337D01*
X127910205Y-85049000D01*
X127973000Y-85049000D01*
X127974732Y-85050000D01*
G37*
G36*
X130543333Y-68726097D02*
G01*
X130549252Y-68729261D01*
X130558445Y-68732050D01*
X130568094Y-68733000D01*
X132067906Y-68733000D01*
X132077555Y-68732050D01*
X132086748Y-68729261D01*
X132092671Y-68726095D01*
X132094670Y-68726161D01*
X132095613Y-68727924D01*
X132094883Y-68729405D01*
X132093751Y-68730334D01*
X132093593Y-68730451D01*
X132080904Y-68738929D01*
X132063857Y-68755976D01*
X132050462Y-68776024D01*
X132041236Y-68798298D01*
X132036532Y-68821948D01*
X132036532Y-68846054D01*
X132041237Y-68869704D01*
X132050463Y-68891978D01*
X132063858Y-68912025D01*
X132080905Y-68929072D01*
X132093593Y-68937550D01*
X132093751Y-68937667D01*
X132094879Y-68938593D01*
X132095583Y-68940465D01*
X132094314Y-68942011D01*
X132092667Y-68941903D01*
X132086748Y-68938739D01*
X132077555Y-68935950D01*
X132067906Y-68935000D01*
X130568094Y-68935000D01*
X130558445Y-68935950D01*
X130549252Y-68938739D01*
X130543329Y-68941905D01*
X130541330Y-68941839D01*
X130540387Y-68940076D01*
X130541117Y-68938595D01*
X130542249Y-68937666D01*
X130542407Y-68937549D01*
X130555096Y-68929071D01*
X130572143Y-68912024D01*
X130585538Y-68891976D01*
X130594764Y-68869702D01*
X130599468Y-68846052D01*
X130599468Y-68821946D01*
X130594763Y-68798296D01*
X130585537Y-68776022D01*
X130572142Y-68755975D01*
X130555095Y-68738928D01*
X130542407Y-68730450D01*
X130542249Y-68730333D01*
X130541121Y-68729407D01*
X130540417Y-68727535D01*
X130541686Y-68725989D01*
X130543333Y-68726097D01*
G37*
G36*
X130543333Y-63788097D02*
G01*
X130549252Y-63791261D01*
X130558445Y-63794050D01*
X130568094Y-63795000D01*
X132067906Y-63795000D01*
X132077555Y-63794050D01*
X132086748Y-63791261D01*
X132092671Y-63788095D01*
X132094670Y-63788161D01*
X132095613Y-63789924D01*
X132094883Y-63791405D01*
X132093751Y-63792334D01*
X132093593Y-63792451D01*
X132080904Y-63800929D01*
X132063857Y-63817976D01*
X132050462Y-63838024D01*
X132041236Y-63860298D01*
X132036532Y-63883948D01*
X132036532Y-63908054D01*
X132041237Y-63931704D01*
X132050463Y-63953978D01*
X132063858Y-63974025D01*
X132080905Y-63991072D01*
X132093593Y-63999550D01*
X132093751Y-63999667D01*
X132094879Y-64000593D01*
X132095583Y-64002465D01*
X132094314Y-64004011D01*
X132092667Y-64003903D01*
X132086748Y-64000739D01*
X132077555Y-63997950D01*
X132067906Y-63997000D01*
X130568094Y-63997000D01*
X130558445Y-63997950D01*
X130549252Y-64000739D01*
X130543329Y-64003905D01*
X130541330Y-64003839D01*
X130540387Y-64002076D01*
X130541117Y-64000595D01*
X130542249Y-63999666D01*
X130542407Y-63999549D01*
X130555096Y-63991071D01*
X130572143Y-63974024D01*
X130585538Y-63953976D01*
X130594764Y-63931702D01*
X130599468Y-63908052D01*
X130599468Y-63883946D01*
X130594763Y-63860296D01*
X130585537Y-63838022D01*
X130572142Y-63817975D01*
X130555095Y-63800928D01*
X130542407Y-63792450D01*
X130542249Y-63792333D01*
X130541121Y-63791407D01*
X130540417Y-63789535D01*
X130541686Y-63787989D01*
X130543333Y-63788097D01*
G37*
M02*
