<?xml version="1.0" standalone="no"?>
 <!DOCTYPE svg PUBLIC "-//W3C//DTD SVG 1.1//EN" 
 "http://www.w3.org/Graphics/SVG/1.1/DTD/svg11.dtd"> 
<svg xmlns="http://www.w3.org/2000/svg" version="1.1" 
    width="29.7002cm" height="21.0007cm" viewBox="0 0 116930 82680 ">
<title>SVG Picture created as sagitta-shield-F.Fab.svg date 2020/07/04 09:07:58 </title>
  <desc>Picture generated by PCBNEW </desc>
<g style="fill:#000000; fill-opacity:1;stroke:#000000; stroke-opacity:1;
stroke-linecap:round; stroke-linejoin:round; "
 transform="translate(0 0) scale(1 1)">
</g>
<g style="fill:#000000; fill-opacity:0.0; 
stroke:#000000; stroke-width:-0.000393701; stroke-opacity:1; 
stroke-linecap:round; stroke-linejoin:round;">
</g>
<g style="fill:#000000; fill-opacity:0.0; 
stroke:#000000; stroke-width:39.3701; stroke-opacity:1; 
stroke-linecap:round; stroke-linejoin:round;">
</g>
<g style="fill:#000000; fill-opacity:0.0; 
stroke:#000000; stroke-width:59.0551; stroke-opacity:1; 
stroke-linecap:round; stroke-linejoin:round;">
<rect x="69685.9" y="65357.2" width="42519.7" height="12598.4" rx="0" />
</g>
<g style="fill:#000000; fill-opacity:0.0; 
stroke:#000000; stroke-width:39.3701; stroke-opacity:1; 
stroke-linecap:round; stroke-linejoin:round;">
</g>
<g style="fill:#000000; fill-opacity:0.0; 
stroke:#000000; stroke-width:59.0551; stroke-opacity:1; 
stroke-linecap:round; stroke-linejoin:round;">
<rect x="3937.01" y="3937.01" width="109056" height="74806" rx="0" />
</g>
<g style="fill:#000000; fill-opacity:0.0; 
stroke:#000000; stroke-width:39.3701; stroke-opacity:1; 
stroke-linecap:round; stroke-linejoin:round;">
</g>
<g style="fill:#000000; fill-opacity:0.0; 
stroke:#000000; stroke-width:59.0551; stroke-opacity:1; 
stroke-linecap:round; stroke-linejoin:round;">
<rect x="4724.41" y="4724.41" width="107481" height="73231.2" rx="0" />
</g>
<g style="fill:#000000; fill-opacity:0.0; 
stroke:#000000; stroke-width:39.3701; stroke-opacity:1; 
stroke-linecap:round; stroke-linejoin:round;">
</g>
<g style="fill:#000000; fill-opacity:0.0; 
stroke:#000000; stroke-width:59.0551; stroke-opacity:1; 
stroke-linecap:round; stroke-linejoin:round;">
<path d="M23622 4724
L23622 3937
" />
</g>
<g style="fill:#000000; fill-opacity:0.0; 
stroke:#000000; stroke-width:39.3701; stroke-opacity:1; 
stroke-linecap:round; stroke-linejoin:round;">
</g>
<g style="fill:#000000; fill-opacity:0.0; 
stroke:#000000; stroke-width:59.0551; stroke-opacity:1; 
stroke-linecap:round; stroke-linejoin:round;">
<path d="M43307 4724
L43307 3937
" />
</g>
<g style="fill:#000000; fill-opacity:0.0; 
stroke:#000000; stroke-width:39.3701; stroke-opacity:1; 
stroke-linecap:round; stroke-linejoin:round;">
</g>
<g style="fill:#000000; fill-opacity:0.0; 
stroke:#000000; stroke-width:59.0551; stroke-opacity:1; 
stroke-linecap:round; stroke-linejoin:round;">
<path d="M62992 4724
L62992 3937
" />
</g>
<g style="fill:#000000; fill-opacity:0.0; 
stroke:#000000; stroke-width:39.3701; stroke-opacity:1; 
stroke-linecap:round; stroke-linejoin:round;">
</g>
<g style="fill:#000000; fill-opacity:0.0; 
stroke:#000000; stroke-width:59.0551; stroke-opacity:1; 
stroke-linecap:round; stroke-linejoin:round;">
<path d="M82677 4724
L82677 3937
" />
</g>
<g style="fill:#000000; fill-opacity:0.0; 
stroke:#000000; stroke-width:39.3701; stroke-opacity:1; 
stroke-linecap:round; stroke-linejoin:round;">
</g>
<g style="fill:#000000; fill-opacity:0.0; 
stroke:#000000; stroke-width:59.0551; stroke-opacity:1; 
stroke-linecap:round; stroke-linejoin:round;">
<path d="M102362 4724
L102362 3937
" />
</g>
<g style="fill:#000000; fill-opacity:0.0; 
stroke:#000000; stroke-width:39.3701; stroke-opacity:1; 
stroke-linecap:round; stroke-linejoin:round;">
</g>
<g style="fill:#000000; fill-opacity:0.0; 
stroke:#000000; stroke-width:59.0551; stroke-opacity:1; 
stroke-linecap:round; stroke-linejoin:round;">
<path d="M14199 4562
L13906 4562
" />
<path d="M14052 4562
L14052 4050
L14004 4123
L13955 4172
L13906 4196
" />
</g>
<g style="fill:#000000; fill-opacity:0.0; 
stroke:#000000; stroke-width:39.3701; stroke-opacity:1; 
stroke-linecap:round; stroke-linejoin:round;">
</g>
<g style="fill:#000000; fill-opacity:0.0; 
stroke:#000000; stroke-width:59.0551; stroke-opacity:1; 
stroke-linecap:round; stroke-linejoin:round;">
<path d="M33591 4099
L33615 4074
L33664 4050
L33786 4050
L33835 4074
L33859 4099
L33884 4147
L33884 4196
L33859 4269
L33567 4562
L33884 4562
" />
</g>
<g style="fill:#000000; fill-opacity:0.0; 
stroke:#000000; stroke-width:39.3701; stroke-opacity:1; 
stroke-linecap:round; stroke-linejoin:round;">
</g>
<g style="fill:#000000; fill-opacity:0.0; 
stroke:#000000; stroke-width:59.0551; stroke-opacity:1; 
stroke-linecap:round; stroke-linejoin:round;">
<path d="M53252 4050
L53569 4050
L53398 4245
L53471 4245
L53520 4269
L53544 4294
L53569 4342
L53569 4464
L53544 4513
L53520 4537
L53471 4562
L53325 4562
L53276 4537
L53252 4513
" />
</g>
<g style="fill:#000000; fill-opacity:0.0; 
stroke:#000000; stroke-width:39.3701; stroke-opacity:1; 
stroke-linecap:round; stroke-linejoin:round;">
</g>
<g style="fill:#000000; fill-opacity:0.0; 
stroke:#000000; stroke-width:59.0551; stroke-opacity:1; 
stroke-linecap:round; stroke-linejoin:round;">
<path d="M73205 4221
L73205 4562
" />
<path d="M73083 4026
L72961 4391
L73278 4391
" />
</g>
<g style="fill:#000000; fill-opacity:0.0; 
stroke:#000000; stroke-width:39.3701; stroke-opacity:1; 
stroke-linecap:round; stroke-linejoin:round;">
</g>
<g style="fill:#000000; fill-opacity:0.0; 
stroke:#000000; stroke-width:59.0551; stroke-opacity:1; 
stroke-linecap:round; stroke-linejoin:round;">
<path d="M92914 4050
L92671 4050
L92646 4294
L92671 4269
L92719 4245
L92841 4245
L92890 4269
L92914 4294
L92939 4342
L92939 4464
L92914 4513
L92890 4537
L92841 4562
L92719 4562
L92671 4537
L92646 4513
" />
</g>
<g style="fill:#000000; fill-opacity:0.0; 
stroke:#000000; stroke-width:39.3701; stroke-opacity:1; 
stroke-linecap:round; stroke-linejoin:round;">
</g>
<g style="fill:#000000; fill-opacity:0.0; 
stroke:#000000; stroke-width:59.0551; stroke-opacity:1; 
stroke-linecap:round; stroke-linejoin:round;">
<path d="M112575 4050
L112477 4050
L112429 4074
L112404 4099
L112356 4172
L112331 4269
L112331 4464
L112356 4513
L112380 4537
L112429 4562
L112526 4562
L112575 4537
L112599 4513
L112624 4464
L112624 4342
L112599 4294
L112575 4269
L112526 4245
L112429 4245
L112380 4269
L112356 4294
L112331 4342
" />
</g>
<g style="fill:#000000; fill-opacity:0.0; 
stroke:#000000; stroke-width:39.3701; stroke-opacity:1; 
stroke-linecap:round; stroke-linejoin:round;">
</g>
<g style="fill:#000000; fill-opacity:0.0; 
stroke:#000000; stroke-width:59.0551; stroke-opacity:1; 
stroke-linecap:round; stroke-linejoin:round;">
<path d="M23622 77955
L23622 78742
" />
</g>
<g style="fill:#000000; fill-opacity:0.0; 
stroke:#000000; stroke-width:39.3701; stroke-opacity:1; 
stroke-linecap:round; stroke-linejoin:round;">
</g>
<g style="fill:#000000; fill-opacity:0.0; 
stroke:#000000; stroke-width:59.0551; stroke-opacity:1; 
stroke-linecap:round; stroke-linejoin:round;">
<path d="M43307 77955
L43307 78742
" />
</g>
<g style="fill:#000000; fill-opacity:0.0; 
stroke:#000000; stroke-width:39.3701; stroke-opacity:1; 
stroke-linecap:round; stroke-linejoin:round;">
</g>
<g style="fill:#000000; fill-opacity:0.0; 
stroke:#000000; stroke-width:59.0551; stroke-opacity:1; 
stroke-linecap:round; stroke-linejoin:round;">
<path d="M62992 77955
L62992 78742
" />
</g>
<g style="fill:#000000; fill-opacity:0.0; 
stroke:#000000; stroke-width:39.3701; stroke-opacity:1; 
stroke-linecap:round; stroke-linejoin:round;">
</g>
<g style="fill:#000000; fill-opacity:0.0; 
stroke:#000000; stroke-width:59.0551; stroke-opacity:1; 
stroke-linecap:round; stroke-linejoin:round;">
<path d="M82677 77955
L82677 78742
" />
</g>
<g style="fill:#000000; fill-opacity:0.0; 
stroke:#000000; stroke-width:39.3701; stroke-opacity:1; 
stroke-linecap:round; stroke-linejoin:round;">
</g>
<g style="fill:#000000; fill-opacity:0.0; 
stroke:#000000; stroke-width:59.0551; stroke-opacity:1; 
stroke-linecap:round; stroke-linejoin:round;">
<path d="M102362 77955
L102362 78742
" />
</g>
<g style="fill:#000000; fill-opacity:0.0; 
stroke:#000000; stroke-width:39.3701; stroke-opacity:1; 
stroke-linecap:round; stroke-linejoin:round;">
</g>
<g style="fill:#000000; fill-opacity:0.0; 
stroke:#000000; stroke-width:59.0551; stroke-opacity:1; 
stroke-linecap:round; stroke-linejoin:round;">
<path d="M14199 78580
L13906 78580
" />
<path d="M14052 78580
L14052 78069
L14004 78142
L13955 78190
L13906 78215
" />
</g>
<g style="fill:#000000; fill-opacity:0.0; 
stroke:#000000; stroke-width:39.3701; stroke-opacity:1; 
stroke-linecap:round; stroke-linejoin:round;">
</g>
<g style="fill:#000000; fill-opacity:0.0; 
stroke:#000000; stroke-width:59.0551; stroke-opacity:1; 
stroke-linecap:round; stroke-linejoin:round;">
<path d="M33591 78117
L33615 78093
L33664 78069
L33786 78069
L33835 78093
L33859 78117
L33884 78166
L33884 78215
L33859 78288
L33567 78580
L33884 78580
" />
</g>
<g style="fill:#000000; fill-opacity:0.0; 
stroke:#000000; stroke-width:39.3701; stroke-opacity:1; 
stroke-linecap:round; stroke-linejoin:round;">
</g>
<g style="fill:#000000; fill-opacity:0.0; 
stroke:#000000; stroke-width:59.0551; stroke-opacity:1; 
stroke-linecap:round; stroke-linejoin:round;">
<path d="M53252 78069
L53569 78069
L53398 78263
L53471 78263
L53520 78288
L53544 78312
L53569 78361
L53569 78483
L53544 78532
L53520 78556
L53471 78580
L53325 78580
L53276 78556
L53252 78532
" />
</g>
<g style="fill:#000000; fill-opacity:0.0; 
stroke:#000000; stroke-width:39.3701; stroke-opacity:1; 
stroke-linecap:round; stroke-linejoin:round;">
</g>
<g style="fill:#000000; fill-opacity:0.0; 
stroke:#000000; stroke-width:59.0551; stroke-opacity:1; 
stroke-linecap:round; stroke-linejoin:round;">
<path d="M73205 78239
L73205 78580
" />
<path d="M73083 78044
L72961 78410
L73278 78410
" />
</g>
<g style="fill:#000000; fill-opacity:0.0; 
stroke:#000000; stroke-width:39.3701; stroke-opacity:1; 
stroke-linecap:round; stroke-linejoin:round;">
</g>
<g style="fill:#000000; fill-opacity:0.0; 
stroke:#000000; stroke-width:59.0551; stroke-opacity:1; 
stroke-linecap:round; stroke-linejoin:round;">
<path d="M92914 78069
L92671 78069
L92646 78312
L92671 78288
L92719 78263
L92841 78263
L92890 78288
L92914 78312
L92939 78361
L92939 78483
L92914 78532
L92890 78556
L92841 78580
L92719 78580
L92671 78556
L92646 78532
" />
</g>
<g style="fill:#000000; fill-opacity:0.0; 
stroke:#000000; stroke-width:39.3701; stroke-opacity:1; 
stroke-linecap:round; stroke-linejoin:round;">
</g>
<g style="fill:#000000; fill-opacity:0.0; 
stroke:#000000; stroke-width:59.0551; stroke-opacity:1; 
stroke-linecap:round; stroke-linejoin:round;">
<path d="M112575 78069
L112477 78069
L112429 78093
L112404 78117
L112356 78190
L112331 78288
L112331 78483
L112356 78532
L112380 78556
L112429 78580
L112526 78580
L112575 78556
L112599 78532
L112624 78483
L112624 78361
L112599 78312
L112575 78288
L112526 78263
L112429 78263
L112380 78288
L112356 78312
L112331 78361
" />
</g>
<g style="fill:#000000; fill-opacity:0.0; 
stroke:#000000; stroke-width:39.3701; stroke-opacity:1; 
stroke-linecap:round; stroke-linejoin:round;">
</g>
<g style="fill:#000000; fill-opacity:0.0; 
stroke:#000000; stroke-width:59.0551; stroke-opacity:1; 
stroke-linecap:round; stroke-linejoin:round;">
<path d="M3937 23622
L4724 23622
" />
</g>
<g style="fill:#000000; fill-opacity:0.0; 
stroke:#000000; stroke-width:39.3701; stroke-opacity:1; 
stroke-linecap:round; stroke-linejoin:round;">
</g>
<g style="fill:#000000; fill-opacity:0.0; 
stroke:#000000; stroke-width:59.0551; stroke-opacity:1; 
stroke-linecap:round; stroke-linejoin:round;">
<path d="M3937 43307
L4724 43307
" />
</g>
<g style="fill:#000000; fill-opacity:0.0; 
stroke:#000000; stroke-width:39.3701; stroke-opacity:1; 
stroke-linecap:round; stroke-linejoin:round;">
</g>
<g style="fill:#000000; fill-opacity:0.0; 
stroke:#000000; stroke-width:59.0551; stroke-opacity:1; 
stroke-linecap:round; stroke-linejoin:round;">
<path d="M3937 62992
L4724 62992
" />
</g>
<g style="fill:#000000; fill-opacity:0.0; 
stroke:#000000; stroke-width:39.3701; stroke-opacity:1; 
stroke-linecap:round; stroke-linejoin:round;">
</g>
<g style="fill:#000000; fill-opacity:0.0; 
stroke:#000000; stroke-width:59.0551; stroke-opacity:1; 
stroke-linecap:round; stroke-linejoin:round;">
<path d="M4208 13864
L4452 13864
" />
<path d="M4160 14011
L4330 13499
L4501 14011
" />
</g>
<g style="fill:#000000; fill-opacity:0.0; 
stroke:#000000; stroke-width:39.3701; stroke-opacity:1; 
stroke-linecap:round; stroke-linejoin:round;">
</g>
<g style="fill:#000000; fill-opacity:0.0; 
stroke:#000000; stroke-width:59.0551; stroke-opacity:1; 
stroke-linecap:round; stroke-linejoin:round;">
<path d="M4367 33428
L4440 33452
L4464 33476
L4489 33525
L4489 33598
L4464 33647
L4440 33671
L4391 33696
L4196 33696
L4196 33184
L4367 33184
L4416 33208
L4440 33233
L4464 33281
L4464 33330
L4440 33379
L4416 33403
L4367 33428
L4196 33428
" />
</g>
<g style="fill:#000000; fill-opacity:0.0; 
stroke:#000000; stroke-width:39.3701; stroke-opacity:1; 
stroke-linecap:round; stroke-linejoin:round;">
</g>
<g style="fill:#000000; fill-opacity:0.0; 
stroke:#000000; stroke-width:59.0551; stroke-opacity:1; 
stroke-linecap:round; stroke-linejoin:round;">
<path d="M4489 53332
L4464 53356
L4391 53381
L4342 53381
L4269 53356
L4221 53308
L4196 53259
L4172 53161
L4172 53088
L4196 52991
L4221 52942
L4269 52893
L4342 52869
L4391 52869
L4464 52893
L4489 52918
" />
</g>
<g style="fill:#000000; fill-opacity:0.0; 
stroke:#000000; stroke-width:39.3701; stroke-opacity:1; 
stroke-linecap:round; stroke-linejoin:round;">
</g>
<g style="fill:#000000; fill-opacity:0.0; 
stroke:#000000; stroke-width:59.0551; stroke-opacity:1; 
stroke-linecap:round; stroke-linejoin:round;">
<path d="M4196 73066
L4196 72554
L4318 72554
L4391 72578
L4440 72627
L4464 72676
L4489 72773
L4489 72846
L4464 72944
L4440 72993
L4391 73041
L4318 73066
L4196 73066
" />
</g>
<g style="fill:#000000; fill-opacity:0.0; 
stroke:#000000; stroke-width:39.3701; stroke-opacity:1; 
stroke-linecap:round; stroke-linejoin:round;">
</g>
<g style="fill:#000000; fill-opacity:0.0; 
stroke:#000000; stroke-width:59.0551; stroke-opacity:1; 
stroke-linecap:round; stroke-linejoin:round;">
<path d="M112992 23622
L112205 23622
" />
</g>
<g style="fill:#000000; fill-opacity:0.0; 
stroke:#000000; stroke-width:39.3701; stroke-opacity:1; 
stroke-linecap:round; stroke-linejoin:round;">
</g>
<g style="fill:#000000; fill-opacity:0.0; 
stroke:#000000; stroke-width:59.0551; stroke-opacity:1; 
stroke-linecap:round; stroke-linejoin:round;">
<path d="M112992 43307
L112205 43307
" />
</g>
<g style="fill:#000000; fill-opacity:0.0; 
stroke:#000000; stroke-width:39.3701; stroke-opacity:1; 
stroke-linecap:round; stroke-linejoin:round;">
</g>
<g style="fill:#000000; fill-opacity:0.0; 
stroke:#000000; stroke-width:59.0551; stroke-opacity:1; 
stroke-linecap:round; stroke-linejoin:round;">
<path d="M112992 62992
L112205 62992
" />
</g>
<g style="fill:#000000; fill-opacity:0.0; 
stroke:#000000; stroke-width:39.3701; stroke-opacity:1; 
stroke-linecap:round; stroke-linejoin:round;">
</g>
<g style="fill:#000000; fill-opacity:0.0; 
stroke:#000000; stroke-width:59.0551; stroke-opacity:1; 
stroke-linecap:round; stroke-linejoin:round;">
<path d="M112477 13864
L112721 13864
" />
<path d="M112428 14011
L112599 13499
L112769 14011
" />
</g>
<g style="fill:#000000; fill-opacity:0.0; 
stroke:#000000; stroke-width:39.3701; stroke-opacity:1; 
stroke-linecap:round; stroke-linejoin:round;">
</g>
<g style="fill:#000000; fill-opacity:0.0; 
stroke:#000000; stroke-width:59.0551; stroke-opacity:1; 
stroke-linecap:round; stroke-linejoin:round;">
<path d="M112635 33428
L112708 33452
L112733 33476
L112757 33525
L112757 33598
L112733 33647
L112708 33671
L112660 33696
L112465 33696
L112465 33184
L112635 33184
L112684 33208
L112708 33233
L112733 33281
L112733 33330
L112708 33379
L112684 33403
L112635 33428
L112465 33428
" />
</g>
<g style="fill:#000000; fill-opacity:0.0; 
stroke:#000000; stroke-width:39.3701; stroke-opacity:1; 
stroke-linecap:round; stroke-linejoin:round;">
</g>
<g style="fill:#000000; fill-opacity:0.0; 
stroke:#000000; stroke-width:59.0551; stroke-opacity:1; 
stroke-linecap:round; stroke-linejoin:round;">
<path d="M112757 53332
L112733 53356
L112660 53381
L112611 53381
L112538 53356
L112489 53308
L112465 53259
L112440 53161
L112440 53088
L112465 52991
L112489 52942
L112538 52893
L112611 52869
L112660 52869
L112733 52893
L112757 52918
" />
</g>
<g style="fill:#000000; fill-opacity:0.0; 
stroke:#000000; stroke-width:39.3701; stroke-opacity:1; 
stroke-linecap:round; stroke-linejoin:round;">
</g>
<g style="fill:#000000; fill-opacity:0.0; 
stroke:#000000; stroke-width:59.0551; stroke-opacity:1; 
stroke-linecap:round; stroke-linejoin:round;">
<path d="M112465 73066
L112465 72554
L112587 72554
L112660 72578
L112708 72627
L112733 72676
L112757 72773
L112757 72846
L112733 72944
L112708 72993
L112660 73041
L112587 73066
L112465 73066
" />
</g>
<g style="fill:#000000; fill-opacity:0.0; 
stroke:#000000; stroke-width:39.3701; stroke-opacity:1; 
stroke-linecap:round; stroke-linejoin:round;">
</g>
<g style="fill:#000000; fill-opacity:0.0; 
stroke:#000000; stroke-width:59.0551; stroke-opacity:1; 
stroke-linecap:round; stroke-linejoin:round;">
<path d="M78911 76293
L78911 75703
L79051 75703
L79136 75731
L79192 75787
L79220 75843
L79248 75956
L79248 76040
L79220 76153
L79192 76209
L79136 76265
L79051 76293
L78911 76293
" />
<path d="M79754 76293
L79754 75984
L79726 75928
L79670 75899
L79557 75899
L79501 75928
" />
<path d="M79754 76265
L79698 76293
L79557 76293
L79501 76265
L79473 76209
L79473 76153
L79501 76096
L79557 76068
L79698 76068
L79754 76040
" />
<path d="M79951 75899
L80176 75899
" />
<path d="M80036 75703
L80036 76209
L80064 76265
L80120 76293
L80176 76293
" />
<path d="M80598 76265
L80542 76293
L80429 76293
L80373 76265
L80345 76209
L80345 75984
L80373 75928
L80429 75899
L80542 75899
L80598 75928
L80626 75984
L80626 76040
L80345 76096
" />
<path d="M80879 76237
L80907 76265
L80879 76293
L80851 76265
L80879 76237
L80879 76293
" />
<path d="M80879 75928
L80907 75956
L80879 75984
L80851 75956
L80879 75928
L80879 75984
" />
</g>
<g style="fill:#000000; fill-opacity:0.0; 
stroke:#000000; stroke-width:39.3701; stroke-opacity:1; 
stroke-linecap:round; stroke-linejoin:round;">
</g>
<g style="fill:#000000; fill-opacity:0.0; 
stroke:#000000; stroke-width:59.0551; stroke-opacity:1; 
stroke-linecap:round; stroke-linejoin:round;">
<path d="M69685 76577
L112205 76577
" />
</g>
<g style="fill:#000000; fill-opacity:0.0; 
stroke:#000000; stroke-width:39.3701; stroke-opacity:1; 
stroke-linecap:round; stroke-linejoin:round;">
</g>
<g style="fill:#000000; fill-opacity:0.0; 
stroke:#000000; stroke-width:59.0551; stroke-opacity:1; 
stroke-linecap:round; stroke-linejoin:round;">
<path d="M70249 77395
L70249 76805
" />
<path d="M70587 77395
L70334 77058
" />
<path d="M70587 76805
L70249 77142
" />
<path d="M70840 77395
L70840 77002
" />
<path d="M70840 76805
L70812 76833
L70840 76861
L70868 76833
L70840 76805
L70840 76861
" />
<path d="M71458 77339
L71430 77367
L71346 77395
L71290 77395
L71205 77367
L71149 77311
L71121 77255
L71093 77142
L71093 77058
L71121 76946
L71149 76889
L71205 76833
L71290 76805
L71346 76805
L71430 76833
L71458 76861
" />
<path d="M71965 77395
L71965 77086
L71937 77030
L71880 77002
L71768 77002
L71712 77030
" />
<path d="M71965 77367
L71908 77395
L71768 77395
L71712 77367
L71683 77311
L71683 77255
L71712 77199
L71768 77171
L71908 77171
L71965 77142
" />
<path d="M72499 77395
L72499 76805
" />
<path d="M72499 77367
L72443 77395
L72330 77395
L72274 77367
L72246 77339
L72218 77283
L72218 77114
L72246 77058
L72274 77030
L72330 77002
L72443 77002
L72499 77030
" />
<path d="M73230 77086
L73427 77086
" />
<path d="M73511 77395
L73230 77395
L73230 76805
L73511 76805
" />
<path d="M73764 77339
L73793 77367
L73764 77395
L73736 77367
L73764 77339
L73764 77395
" />
<path d="M74046 77395
L74046 76805
L74186 76805
L74271 76833
L74327 76889
L74355 76946
L74383 77058
L74383 77142
L74355 77255
L74327 77311
L74271 77367
L74186 77395
L74046 77395
" />
<path d="M74636 77339
L74664 77367
L74636 77395
L74608 77367
L74636 77339
L74636 77395
" />
<path d="M74889 77227
L75171 77227
" />
<path d="M74833 77395
L75030 76805
L75227 77395
" />
<path d="M75424 77339
L75452 77367
L75424 77395
L75395 77367
L75424 77339
L75424 77395
" />
<path d="M76605 77395
L76605 76805
" />
<path d="M76661 77171
L76830 77395
" />
<path d="M76830 77002
L76605 77227
" />
<path d="M77083 77395
L77083 77002
" />
<path d="M77083 76805
L77055 76833
L77083 76861
L77111 76833
L77083 76805
L77083 76861
" />
<path d="M77617 77367
L77561 77395
L77448 77395
L77392 77367
L77364 77339
L77336 77283
L77336 77114
L77364 77058
L77392 77030
L77448 77002
L77561 77002
L77617 77030
" />
<path d="M78123 77395
L78123 77086
L78095 77030
L78039 77002
L77926 77002
L77870 77030
" />
<path d="M78123 77367
L78067 77395
L77926 77395
L77870 77367
L77842 77311
L77842 77255
L77870 77199
L77926 77171
L78067 77171
L78123 77142
" />
<path d="M78658 77395
L78658 76805
" />
<path d="M78658 77367
L78601 77395
L78489 77395
L78433 77367
L78404 77339
L78376 77283
L78376 77114
L78404 77058
L78433 77030
L78489 77002
L78601 77002
L78658 77030
" />
<path d="M79557 77620
L79529 77592
L79473 77508
L79445 77452
L79417 77367
L79389 77227
L79389 77114
L79417 76974
L79445 76889
L79473 76833
L79529 76749
L79557 76721
" />
<path d="M80064 76805
L79782 76805
L79754 77086
L79782 77058
L79839 77030
L79979 77030
L80036 77058
L80064 77086
L80092 77142
L80092 77283
L80064 77339
L80036 77367
L79979 77395
L79839 77395
L79782 77367
L79754 77339
" />
<path d="M80345 77339
L80373 77367
L80345 77395
L80317 77367
L80345 77339
L80345 77395
" />
<path d="M80739 76805
L80795 76805
L80851 76833
L80879 76861
L80907 76917
L80935 77030
L80935 77171
L80907 77283
L80879 77339
L80851 77367
L80795 77395
L80739 77395
L80682 77367
L80654 77339
L80626 77283
L80598 77171
L80598 77030
L80626 76917
L80654 76861
L80682 76833
L80739 76805
" />
<path d="M81188 77339
L81217 77367
L81188 77395
L81160 77367
L81188 77339
L81188 77395
" />
<path d="M81779 77395
L81442 77395
" />
<path d="M81610 77395
L81610 76805
L81554 76889
L81498 76946
L81442 76974
" />
<path d="M82032 77171
L82482 77171
" />
<path d="M82707 76805
L83073 76805
L82876 77030
L82960 77030
L83016 77058
L83045 77086
L83073 77142
L83073 77283
L83045 77339
L83016 77367
L82960 77395
L82791 77395
L82735 77367
L82707 77339
" />
<path d="M83326 77171
L83776 77171
" />
<path d="M84310 77002
L84310 77480
L84282 77536
L84254 77564
L84197 77592
L84113 77592
L84057 77564
" />
<path d="M84310 77367
L84254 77395
L84141 77395
L84085 77367
L84057 77339
L84029 77283
L84029 77114
L84057 77058
L84085 77030
L84141 77002
L84254 77002
L84310 77030
" />
<path d="M84619 77395
L84732 77395
L84788 77367
L84816 77339
L84872 77255
L84901 77142
L84901 76917
L84872 76861
L84844 76833
L84788 76805
L84676 76805
L84619 76833
L84591 76861
L84563 76917
L84563 77058
L84591 77114
L84619 77142
L84676 77171
L84788 77171
L84844 77142
L84872 77114
L84901 77058
" />
<path d="M85407 76805
L85294 76805
L85238 76833
L85210 76861
L85154 76946
L85126 77058
L85126 77283
L85154 77339
L85182 77367
L85238 77395
L85350 77395
L85407 77367
L85435 77339
L85463 77283
L85463 77142
L85435 77086
L85407 77058
L85350 77030
L85238 77030
L85182 77058
L85154 77086
L85126 77142
" />
<path d="M85660 76805
L86025 76805
L85829 77030
L85913 77030
L85969 77058
L85997 77086
L86025 77142
L86025 77283
L85997 77339
L85969 77367
L85913 77395
L85744 77395
L85688 77367
L85660 77339
" />
<path d="M86503 77367
L86447 77395
L86335 77395
L86278 77367
L86250 77311
L86250 77086
L86278 77030
L86335 77002
L86447 77002
L86503 77030
L86532 77086
L86532 77142
L86250 77199
" />
<path d="M86700 77002
L86925 77002
" />
<path d="M86785 77395
L86785 76889
L86813 76833
L86869 76805
L86925 76805
" />
<path d="M87206 77058
L87150 77030
L87122 77002
L87094 76946
L87094 76917
L87122 76861
L87150 76833
L87206 76805
L87319 76805
L87375 76833
L87403 76861
L87431 76917
L87431 76946
L87403 77002
L87375 77030
L87319 77058
L87206 77058
L87150 77086
L87122 77114
L87094 77171
L87094 77283
L87122 77339
L87150 77367
L87206 77395
L87319 77395
L87375 77367
L87403 77339
L87431 77283
L87431 77171
L87403 77114
L87375 77086
L87319 77058
" />
<path d="M87685 77395
L87685 76805
" />
<path d="M87685 77030
L87741 77002
L87853 77002
L87910 77030
L87938 77058
L87966 77114
L87966 77283
L87938 77339
L87910 77367
L87853 77395
L87741 77395
L87685 77367
" />
<path d="M88219 77395
L88219 76805
" />
<path d="M88219 77030
L88275 77002
L88388 77002
L88444 77030
L88472 77058
L88500 77114
L88500 77283
L88472 77339
L88444 77367
L88388 77395
L88275 77395
L88219 77367
" />
<path d="M89034 76805
L88753 76805
L88725 77086
L88753 77058
L88809 77030
L88950 77030
L89006 77058
L89034 77086
L89063 77142
L89063 77283
L89034 77339
L89006 77367
L88950 77395
L88809 77395
L88753 77367
L88725 77339
" />
<path d="M89259 77620
L89287 77592
L89344 77508
L89372 77452
L89400 77367
L89428 77227
L89428 77114
L89400 76974
L89372 76889
L89344 76833
L89287 76749
L89259 76721
" />
</g>
<g style="fill:#000000; fill-opacity:0.0; 
stroke:#000000; stroke-width:39.3701; stroke-opacity:1; 
stroke-linecap:round; stroke-linejoin:round;">
</g>
<g style="fill:#000000; fill-opacity:0.0; 
stroke:#000000; stroke-width:59.0551; stroke-opacity:1; 
stroke-linecap:round; stroke-linejoin:round;">
<path d="M69685 75396
L112205 75396
" />
</g>
<g style="fill:#000000; fill-opacity:0.0; 
stroke:#000000; stroke-width:39.3701; stroke-opacity:1; 
stroke-linecap:round; stroke-linejoin:round;">
</g>
<g style="fill:#000000; fill-opacity:0.0; 
stroke:#000000; stroke-width:118.11; stroke-opacity:1; 
stroke-linecap:round; stroke-linejoin:round;">
<path d="M104099 76293
L103902 76012
" />
<path d="M103761 76293
L103761 75703
L103986 75703
L104042 75731
L104070 75759
L104099 75815
L104099 75899
L104070 75956
L104042 75984
L103986 76012
L103761 76012
" />
<path d="M104577 76265
L104520 76293
L104408 76293
L104352 76265
L104323 76209
L104323 75984
L104352 75928
L104408 75899
L104520 75899
L104577 75928
L104605 75984
L104605 76040
L104323 76096
" />
<path d="M104802 75899
L104942 76293
L105083 75899
" />
<path d="M105308 76237
L105336 76265
L105308 76293
L105280 76265
L105308 76237
L105308 76293
" />
<path d="M105308 75928
L105336 75956
L105308 75984
L105280 75956
L105308 75928
L105308 75984
" />
</g>
<g style="fill:#000000; fill-opacity:0.0; 
stroke:#000000; stroke-width:39.3701; stroke-opacity:1; 
stroke-linecap:round; stroke-linejoin:round;">
</g>
<g style="fill:#000000; fill-opacity:0.0; 
stroke:#000000; stroke-width:59.0551; stroke-opacity:1; 
stroke-linecap:round; stroke-linejoin:round;">
<path d="M70221 76265
L70305 76293
L70446 76293
L70502 76265
L70530 76237
L70559 76181
L70559 76124
L70530 76068
L70502 76040
L70446 76012
L70334 75984
L70277 75956
L70249 75928
L70221 75871
L70221 75815
L70249 75759
L70277 75731
L70334 75703
L70474 75703
L70559 75731
" />
<path d="M70812 76293
L70812 75899
" />
<path d="M70812 75703
L70784 75731
L70812 75759
L70840 75731
L70812 75703
L70812 75759
" />
<path d="M71037 75899
L71346 75899
L71037 76293
L71346 76293
" />
<path d="M71796 76265
L71740 76293
L71627 76293
L71571 76265
L71543 76209
L71543 75984
L71571 75928
L71627 75899
L71740 75899
L71796 75928
L71824 75984
L71824 76040
L71543 76096
" />
<path d="M72077 76237
L72105 76265
L72077 76293
L72049 76265
L72077 76237
L72077 76293
" />
<path d="M72077 75928
L72105 75956
L72077 75984
L72049 75956
L72077 75928
L72077 75984
" />
<path d="M72780 76124
L73061 76124
" />
<path d="M72724 76293
L72921 75703
L73118 76293
" />
<path d="M73568 75899
L73568 76293
" />
<path d="M73427 75674
L73286 76096
L73652 76096
" />
</g>
<g style="fill:#000000; fill-opacity:0.0; 
stroke:#000000; stroke-width:39.3701; stroke-opacity:1; 
stroke-linecap:round; stroke-linejoin:round;">
</g>
<g style="fill:#000000; fill-opacity:0.0; 
stroke:#000000; stroke-width:59.0551; stroke-opacity:1; 
stroke-linecap:round; stroke-linejoin:round;">
<path d="M103714 77395
L103714 76805
" />
<path d="M104248 77395
L104248 76805
" />
<path d="M104248 77367
L104192 77395
L104079 77395
L104023 77367
L103995 77339
L103967 77283
L103967 77114
L103995 77058
L104023 77030
L104079 77002
L104192 77002
L104248 77030
" />
<path d="M104529 77339
L104557 77367
L104529 77395
L104501 77367
L104529 77339
L104529 77395
" />
<path d="M104529 77030
L104557 77058
L104529 77086
L104501 77058
L104529 77030
L104529 77086
" />
<path d="M105570 77395
L105232 77395
" />
<path d="M105401 77395
L105401 76805
L105345 76889
L105289 76946
L105232 76974
" />
<path d="M106245 76777
L105739 77536
" />
<path d="M106751 77395
L106413 77395
" />
<path d="M106582 77395
L106582 76805
L106526 76889
L106470 76946
L106413 76974
" />
</g>
<g style="fill:#000000; fill-opacity:0.0; 
stroke:#000000; stroke-width:39.3701; stroke-opacity:1; 
stroke-linecap:round; stroke-linejoin:round;">
</g>
<g style="fill:#000000; fill-opacity:0.0; 
stroke:#000000; stroke-width:59.0551; stroke-opacity:1; 
stroke-linecap:round; stroke-linejoin:round;">
<path d="M69685 73821
L112205 73821
" />
</g>
<g style="fill:#000000; fill-opacity:0.0; 
stroke:#000000; stroke-width:39.3701; stroke-opacity:1; 
stroke-linecap:round; stroke-linejoin:round;">
</g>
<g style="fill:#000000; fill-opacity:0.0; 
stroke:#000000; stroke-width:157.48; stroke-opacity:1; 
stroke-linecap:round; stroke-linejoin:round;">
<path d="M70360 74099
L70810 74099
" />
<path d="M70486 74886
L70585 74099
" />
<path d="M70974 74886
L71039 74361
" />
<path d="M71072 74099
L71030 74136
L71063 74174
L71105 74136
L71072 74099
L71063 74174
" />
<path d="M71302 74361
L71602 74361
" />
<path d="M71447 74099
L71363 74774
L71391 74849
L71461 74886
L71536 74886
" />
<path d="M71911 74886
L71841 74849
L71813 74774
L71897 74099
" />
<path d="M72516 74849
L72436 74886
L72286 74886
L72216 74849
L72187 74774
L72225 74474
L72272 74399
L72352 74361
L72501 74361
L72572 74399
L72600 74474
L72591 74549
L72206 74624
" />
<path d="M72895 74811
L72928 74849
L72886 74886
L72853 74849
L72895 74811
L72886 74886
" />
<path d="M72947 74399
L72980 74436
L72937 74474
L72905 74436
L72947 74399
L72937 74474
" />
</g>
<g style="fill:#000000; fill-opacity:0.0; 
stroke:#000000; stroke-width:39.3701; stroke-opacity:1; 
stroke-linecap:round; stroke-linejoin:round;">
</g>
<g style="fill:#000000; fill-opacity:0.0; 
stroke:#000000; stroke-width:59.0551; stroke-opacity:1; 
stroke-linecap:round; stroke-linejoin:round;">
<path d="M70446 73070
L70249 73070
" />
<path d="M70249 73380
L70249 72789
L70530 72789
" />
<path d="M70755 73380
L70755 72986
" />
<path d="M70755 72789
L70727 72817
L70755 72845
L70784 72817
L70755 72789
L70755 72845
" />
<path d="M71121 73380
L71065 73352
L71037 73295
L71037 72789
" />
<path d="M71571 73352
L71515 73380
L71402 73380
L71346 73352
L71318 73295
L71318 73070
L71346 73014
L71402 72986
L71515 72986
L71571 73014
L71599 73070
L71599 73127
L71318 73183
" />
<path d="M71852 73323
L71880 73352
L71852 73380
L71824 73352
L71852 73323
L71852 73380
" />
<path d="M71852 73014
L71880 73042
L71852 73070
L71824 73042
L71852 73014
L71852 73070
" />
<path d="M72555 73352
L72611 73380
L72724 73380
L72780 73352
L72808 73295
L72808 73267
L72780 73211
L72724 73183
L72640 73183
L72583 73155
L72555 73099
L72555 73070
L72583 73014
L72640 72986
L72724 72986
L72780 73014
" />
<path d="M73314 73380
L73314 73070
L73286 73014
L73230 72986
L73118 72986
L73061 73014
" />
<path d="M73314 73352
L73258 73380
L73118 73380
L73061 73352
L73033 73295
L73033 73239
L73061 73183
L73118 73155
L73258 73155
L73314 73127
" />
<path d="M73849 72986
L73849 73464
L73821 73520
L73793 73548
L73736 73577
L73652 73577
L73596 73548
" />
<path d="M73849 73352
L73793 73380
L73680 73380
L73624 73352
L73596 73323
L73568 73267
L73568 73099
L73596 73042
L73624 73014
L73680 72986
L73793 72986
L73849 73014
" />
<path d="M74130 73380
L74130 72986
" />
<path d="M74130 72789
L74102 72817
L74130 72845
L74158 72817
L74130 72789
L74130 72845
" />
<path d="M74327 72986
L74552 72986
" />
<path d="M74411 72789
L74411 73295
L74439 73352
L74496 73380
L74552 73380
" />
<path d="M74664 72986
L74889 72986
" />
<path d="M74749 72789
L74749 73295
L74777 73352
L74833 73380
L74889 73380
" />
<path d="M75339 73380
L75339 73070
L75311 73014
L75255 72986
L75142 72986
L75086 73014
" />
<path d="M75339 73352
L75283 73380
L75142 73380
L75086 73352
L75058 73295
L75058 73239
L75086 73183
L75142 73155
L75283 73155
L75339 73127
" />
<path d="M75620 73155
L76070 73155
" />
<path d="M76323 73352
L76380 73380
L76492 73380
L76548 73352
L76577 73295
L76577 73267
L76548 73211
L76492 73183
L76408 73183
L76352 73155
L76323 73099
L76323 73070
L76352 73014
L76408 72986
L76492 72986
L76548 73014
" />
<path d="M76830 73380
L76830 72789
" />
<path d="M77083 73380
L77083 73070
L77055 73014
L76998 72986
L76914 72986
L76858 73014
L76830 73042
" />
<path d="M77364 73380
L77364 72986
" />
<path d="M77364 72789
L77336 72817
L77364 72845
L77392 72817
L77364 72789
L77364 72845
" />
<path d="M77870 73352
L77814 73380
L77701 73380
L77645 73352
L77617 73295
L77617 73070
L77645 73014
L77701 72986
L77814 72986
L77870 73014
L77898 73070
L77898 73127
L77617 73183
" />
<path d="M78236 73380
L78180 73352
L78151 73295
L78151 72789
" />
<path d="M78714 73380
L78714 72789
" />
<path d="M78714 73352
L78658 73380
L78545 73380
L78489 73352
L78461 73323
L78433 73267
L78433 73099
L78461 73042
L78489 73014
L78545 72986
L78658 72986
L78714 73014
" />
<path d="M78995 73323
L79023 73352
L78995 73380
L78967 73352
L78995 73323
L78995 73380
" />
<path d="M79276 73380
L79276 72789
" />
<path d="M79332 73155
L79501 73380
" />
<path d="M79501 72986
L79276 73211
" />
<path d="M79754 73380
L79754 72986
" />
<path d="M79754 72789
L79726 72817
L79754 72845
L79782 72817
L79754 72789
L79754 72845
" />
<path d="M80289 73352
L80232 73380
L80120 73380
L80064 73352
L80036 73323
L80007 73267
L80007 73099
L80036 73042
L80064 73014
L80120 72986
L80232 72986
L80289 73014
" />
<path d="M80795 73380
L80795 73070
L80767 73014
L80710 72986
L80598 72986
L80542 73014
" />
<path d="M80795 73352
L80739 73380
L80598 73380
L80542 73352
L80514 73295
L80514 73239
L80542 73183
L80598 73155
L80739 73155
L80795 73127
" />
<path d="M81329 73380
L81329 72789
" />
<path d="M81329 73352
L81273 73380
L81160 73380
L81104 73352
L81076 73323
L81048 73267
L81048 73099
L81076 73042
L81104 73014
L81160 72986
L81273 72986
L81329 73014
" />
<path d="M81470 73436
L81920 73436
" />
<path d="M82060 72986
L82060 73577
" />
<path d="M82060 73014
L82117 72986
L82229 72986
L82285 73014
L82313 73042
L82341 73099
L82341 73267
L82313 73323
L82285 73352
L82229 73380
L82117 73380
L82060 73352
" />
<path d="M82848 73352
L82791 73380
L82679 73380
L82623 73352
L82595 73323
L82566 73267
L82566 73099
L82595 73042
L82623 73014
L82679 72986
L82791 72986
L82848 73014
" />
<path d="M83101 73380
L83101 72789
" />
<path d="M83101 73014
L83157 72986
L83269 72986
L83326 73014
L83354 73042
L83382 73099
L83382 73267
L83354 73323
L83326 73352
L83269 73380
L83157 73380
L83101 73352
" />
</g>
<g style="fill:#000000; fill-opacity:0.0; 
stroke:#000000; stroke-width:39.3701; stroke-opacity:1; 
stroke-linecap:round; stroke-linejoin:round;">
</g>
<g style="fill:#000000; fill-opacity:0.0; 
stroke:#000000; stroke-width:59.0551; stroke-opacity:1; 
stroke-linecap:round; stroke-linejoin:round;">
<path d="M69685 71459
L112205 71459
" />
</g>
<g style="fill:#000000; fill-opacity:0.0; 
stroke:#000000; stroke-width:39.3701; stroke-opacity:1; 
stroke-linecap:round; stroke-linejoin:round;">
</g>
<g style="fill:#000000; fill-opacity:0.0; 
stroke:#000000; stroke-width:59.0551; stroke-opacity:1; 
stroke-linecap:round; stroke-linejoin:round;">
<path d="M70221 72289
L70305 72317
L70446 72317
L70502 72289
L70530 72260
L70559 72204
L70559 72148
L70530 72092
L70502 72064
L70446 72036
L70334 72007
L70277 71979
L70249 71951
L70221 71895
L70221 71839
L70249 71782
L70277 71754
L70334 71726
L70474 71726
L70559 71754
" />
<path d="M70812 72317
L70812 71726
" />
<path d="M71065 72317
L71065 72007
L71037 71951
L70980 71923
L70896 71923
L70840 71951
L70812 71979
" />
<path d="M71571 72289
L71515 72317
L71402 72317
L71346 72289
L71318 72232
L71318 72007
L71346 71951
L71402 71923
L71515 71923
L71571 71951
L71599 72007
L71599 72064
L71318 72120
" />
<path d="M72077 72289
L72021 72317
L71908 72317
L71852 72289
L71824 72232
L71824 72007
L71852 71951
L71908 71923
L72021 71923
L72077 71951
L72105 72007
L72105 72064
L71824 72120
" />
<path d="M72274 71923
L72499 71923
" />
<path d="M72358 71726
L72358 72232
L72386 72289
L72443 72317
L72499 72317
" />
<path d="M72696 72260
L72724 72289
L72696 72317
L72668 72289
L72696 72260
L72696 72317
" />
<path d="M72696 71951
L72724 71979
L72696 72007
L72668 71979
L72696 71951
L72696 72007
" />
</g>
<g style="fill:#000000; fill-opacity:0.0; 
stroke:#000000; stroke-width:39.3701; stroke-opacity:1; 
stroke-linecap:round; stroke-linejoin:round;">
</g>
<g style="fill:#000000; fill-opacity:0.0; 
stroke:#000000; stroke-width:59.0551; stroke-opacity:1; 
stroke-linecap:round; stroke-linejoin:round;">
<path d="M77559 75396
L77559 76577
" />
</g>
<g style="fill:#000000; fill-opacity:0.0; 
stroke:#000000; stroke-width:39.3701; stroke-opacity:1; 
stroke-linecap:round; stroke-linejoin:round;">
</g>
<g style="fill:#000000; fill-opacity:0.0; 
stroke:#000000; stroke-width:59.0551; stroke-opacity:1; 
stroke-linecap:round; stroke-linejoin:round;">
<path d="M102756 75396
L102756 77955
" />
</g>
<g style="fill:#848484; fill-opacity:0.0; 
stroke:#848484; stroke-width:59.0551; stroke-opacity:1; 
stroke-linecap:round; stroke-linejoin:round;">
</g>
<g style="fill:#848484; fill-opacity:0.0; 
stroke:#848484; stroke-width:78.7402; stroke-opacity:1; 
stroke-linecap:round; stroke-linejoin:round;">
<circle cx="44967.3" cy="51608.3" r="393.701" /> 
<circle cx="55479.1" cy="51608.3" r="393.701" /> 
<circle cx="55479.1" cy="32608.3" r="393.701" /> 
<circle cx="44967.3" cy="32608.3" r="393.701" /> 
</g>
<g style="fill:#848484; fill-opacity:0.0; 
stroke:#848484; stroke-width:39.3701; stroke-opacity:1; 
stroke-linecap:round; stroke-linejoin:round;">
<path d="M53650 24593
L53650 25213
" />
<path d="M53650 25213
L51650 25213
" />
<path d="M51650 25213
L51650 24386
" />
<path d="M51650 24386
L53443 24386
" />
<path d="M53443 24386
L53650 24593
" />
<path d="M53498 56691
L53439 56691
" />
<path d="M53498 57557
L53498 57876
" />
<path d="M53498 52990
L53498 52423
" />
<path d="M53577 56770
L53577 57478
" />
<path d="M53498 56691
L53577 56770
" />
<path d="M53577 57478
L53498 57557
" />
<path d="M53577 53955
L53439 54161
" />
<path d="M53577 53069
L53498 52990
" />
<path d="M53577 53069
L53577 53955
" />
<path d="M53498 57876
L47219 57876
" />
<path d="M53498 52423
L47219 52423
" />
<path d="M47219 52423
L47219 57876
" />
<path d="M53439 54161
L53439 56691
" />
<path d="M54128 57285
L54128 53348
" />
<path d="M55703 57285
L55703 53348
" />
<path d="M55506 53151
L53577 53151
" />
<path d="M53577 57482
L55506 57482
" />
<path d="M54128.7 53348.8 A196.85 196.85 0.0 0 0 53931.9 53152 " />
<path d="M53931.9 57482.7 A196.85 196.85 0.0 0 0 54128.7 57285.8 " />
<path d="M55703.5 53348.8 A196.85 196.85 0.0 0 0 55506.7 53152 " />
<path d="M55506.7 57482.7 A196.85 196.85 0.0 0 0 55703.5 57285.8 " />
<path d="M49772 31690
L49566 31897
" />
<path d="M49772 29897
L49772 31690
" />
<path d="M48946 29897
L49772 29897
" />
<path d="M48946 31897
L48946 29897
" />
<path d="M49566 31897
L48946 31897
" />
<path d="M54413 45843
L54206 46050
" />
<path d="M54413 45050
L54413 45843
" />
<path d="M53586 45050
L54413 45050
" />
<path d="M53586 46050
L53586 45050
" />
<path d="M54206 46050
L53586 46050
" />
<path d="M45293 27750
L45913 27750
" />
<path d="M45913 27750
L45913 29750
" />
<path d="M45913 29750
L45086 29750
" />
<path d="M45086 29750
L45086 27956
" />
<path d="M45086 27956
L45293 27750
" />
<path d="M52436 35993
L51963 35993
" />
<path d="M51963 35993
L51963 35206
" />
<path d="M51963 35206
L52436 35206
" />
<path d="M52436 35206
L52436 35993
" />
</g>
<g style="fill:#848484; fill-opacity:0.0; 
stroke:#848484; stroke-width:59.0551; stroke-opacity:1; 
stroke-linecap:round; stroke-linejoin:round;">
<path d="M52796 26990
L52009 26990
" />
<path d="M52009 26990
L52009 25809
" />
<path d="M52009 25809
L53190 25809
" />
<path d="M53190 25809
L53190 26596
" />
<path d="M53190 26596
L52796 26990
" />
</g>
<g style="fill:#848484; fill-opacity:0.0; 
stroke:#848484; stroke-width:39.3701; stroke-opacity:1; 
stroke-linecap:round; stroke-linejoin:round;">
<path d="M51110 36514
L49535 36514
" />
<path d="M49535 36514
L49535 34546
" />
<path d="M49535 34546
L51503 34546
" />
<path d="M51503 34546
L51503 36120
" />
<path d="M51503 36120
L51110 36514
" />
<path d="M48443 24386
L48650 24593
" />
<path d="M47650 24386
L48443 24386
" />
<path d="M47650 25213
L47650 24386
" />
<path d="M48650 25213
L47650 25213
" />
<path d="M48650 24593
L48650 25213
" />
<path d="M54606 36550
L53986 36550
" />
<path d="M53986 36550
L53986 35550
" />
<path d="M53986 35550
L54813 35550
" />
<path d="M54813 35550
L54813 36343
" />
<path d="M54813 36343
L54606 36550
" />
<path d="M54793 27750
L55413 27750
" />
<path d="M55413 27750
L55413 29750
" />
<path d="M55413 29750
L54586 29750
" />
<path d="M54586 29750
L54586 27956
" />
<path d="M54586 27956
L54793 27750
" />
<path d="M47743 41900
L48363 41900
" />
<path d="M48363 41900
L48363 43400
" />
<path d="M48363 43400
L47536 43400
" />
<path d="M47536 43400
L47536 42106
" />
<path d="M47536 42106
L47743 41900
" />
<path d="M51586 42106
L51793 41900
" />
<path d="M51586 43400
L51586 42106
" />
<path d="M52413 43400
L51586 43400
" />
<path d="M52413 41900
L52413 43400
" />
<path d="M51793 41900
L52413 41900
" />
<path d="M54574 41724
L53609 41724
" />
<path d="M54798 41940
L54798 42275
" />
<path d="M54574 41724
L54798 41940
" />
<path d="M54798 42275
L53601 42275
" />
<path d="M53601 41724
L53601 42275
" />
<path d="M50798 37396
L50601 37396
" />
<path d="M50601 37396
L50601 37003
" />
<path d="M50601 37003
L50798 37003
" />
<path d="M50798 37003
L50798 37396
" />
<path d="M51198 37003
L51198 37396
" />
<path d="M51001 37003
L51198 37003
" />
<path d="M51001 37396
L51001 37003
" />
<path d="M51198 37396
L51001 37396
" />
<path d="M48567 31262
L48252 31262
" />
<path d="M48252 31262
L48252 30632
" />
<path d="M48252 30632
L48567 30632
" />
<path d="M48567 30632
L48567 31262
" />
<path d="M46712 25798
L46712 25601
" />
<path d="M46712 25601
L47105 25601
" />
<path d="M47105 25601
L47105 25798
" />
<path d="M47105 25798
L46712 25798
" />
<path d="M47105 26198
L46712 26198
" />
<path d="M47105 26001
L47105 26198
" />
<path d="M46712 26001
L47105 26001
" />
<path d="M46712 26198
L46712 26001
" />
<path d="M46137 43551
L46137 43748
" />
<path d="M46137 43748
L45744 43748
" />
<path d="M45744 43748
L45744 43551
" />
<path d="M45744 43551
L46137 43551
" />
<path d="M46155 44551
L46155 44748
" />
<path d="M46155 44748
L45762 44748
" />
<path d="M45762 44748
L45762 44551
" />
<path d="M45762 44551
L46155 44551
" />
<path d="M45762 46501
L46155 46501
" />
<path d="M45762 46698
L45762 46501
" />
<path d="M46155 46698
L45762 46698
" />
<path d="M46155 46501
L46155 46698
" />
<path d="M54796 34448
L54403 34448
" />
<path d="M54796 34251
L54796 34448
" />
<path d="M54403 34251
L54796 34251
" />
<path d="M54403 34448
L54403 34251
" />
<path d="M54787 33301
L54787 33498
" />
<path d="M54787 33498
L54394 33498
" />
<path d="M54394 33498
L54394 33301
" />
<path d="M54394 33301
L54787 33301
" />
<path d="M54412 34651
L54805 34651
" />
<path d="M54412 34848
L54412 34651
" />
<path d="M54805 34848
L54412 34848
" />
<path d="M54805 34651
L54805 34848
" />
<path d="M54796 37401
L54796 37598
" />
<path d="M54796 37598
L54403 37598
" />
<path d="M54403 37598
L54403 37401
" />
<path d="M54403 37401
L54796 37401
" />
<path d="M54898 45994
L54898 46387
" />
<path d="M54701 45994
L54898 45994
" />
<path d="M54701 46387
L54701 45994
" />
<path d="M54898 46387
L54701 46387
" />
<path d="M46180 54571
L46180 54375
" />
<path d="M46180 54375
L46573 54375
" />
<path d="M46573 54375
L46573 54571
" />
<path d="M46573 54571
L46180 54571
" />
<path d="M46583 54971
L46189 54971
" />
<path d="M46583 54775
L46583 54971
" />
<path d="M46189 54775
L46583 54775
" />
<path d="M46189 54971
L46189 54775
" />
<path d="M46189 57171
L46189 56975
" />
<path d="M46189 56975
L46583 56975
" />
<path d="M46583 56975
L46583 57171
" />
<path d="M46583 57171
L46189 57171
" />
<path d="M46583 56771
L46189 56771
" />
<path d="M46583 56575
L46583 56771
" />
<path d="M46189 56575
L46583 56575
" />
<path d="M46189 56771
L46189 56575
" />
<path d="M46180 54171
L46180 53975
" />
<path d="M46180 53975
L46573 53975
" />
<path d="M46573 53975
L46573 54171
" />
<path d="M46573 54171
L46180 54171
" />
<path d="M54701 44703
L54898 44703
" />
<path d="M54898 44703
L54898 45096
" />
<path d="M54898 45096
L54701 45096
" />
<path d="M54701 45096
L54701 44703
" />
<path d="M54403 37998
L54403 37801
" />
<path d="M54403 37801
L54796 37801
" />
<path d="M54796 37801
L54796 37998
" />
<path d="M54796 37998
L54403 37998
" />
<path d="M53803 43048
L53803 42851
" />
<path d="M53803 42851
L54196 42851
" />
<path d="M54196 42851
L54196 43048
" />
<path d="M54196 43048
L53803 43048
" />
<path d="M49442 50485
L49442 50996
" />
<path d="M49442 50996
L49560 51114
" />
<path d="M49560 51114
L49757 51114
" />
<path d="M49757 51114
L49757 50485
" />
<path d="M49757 50485
L49442 50485
" />
<path d="M48157 50495
L47842 50495
" />
<path d="M48157 51125
L48157 50495
" />
<path d="M47960 51125
L48157 51125
" />
<path d="M47842 51006
L47960 51125
" />
<path d="M47842 50495
L47842 51006
" />
<path d="M48156 45000
L47536 45000
" />
<path d="M47536 45000
L47536 44000
" />
<path d="M47536 44000
L48363 44000
" />
<path d="M48363 44000
L48363 44793
" />
<path d="M48363 44793
L48156 45000
" />
<path d="M49394 50048
L49394 49851
" />
<path d="M49394 49851
L49787 49851
" />
<path d="M49787 49851
L49787 50048
" />
<path d="M49787 50048
L49394 50048
" />
<path d="M48205 50048
L47812 50048
" />
<path d="M48205 49851
L48205 50048
" />
<path d="M47812 49851
L48205 49851
" />
<path d="M47812 50048
L47812 49851
" />
<path d="M47762 45648
L47762 45451
" />
<path d="M47762 45451
L48155 45451
" />
<path d="M48155 45451
L48155 45648
" />
<path d="M48155 45648
L47762 45648
" />
</g>
<g style="fill:#848484; fill-opacity:0.0; 
stroke:#848484; stroke-width:59.0551; stroke-opacity:1; 
stroke-linecap:round; stroke-linejoin:round;">
<path d="M52518 24584
L52518 24865
L52500 24921
L52462 24959
L52406 24978
L52368 24978
" />
<path d="M52912 24978
L52687 24978
" />
<path d="M52799 24978
L52799 24584
L52762 24640
L52724 24678
L52687 24696
" />
</g>
<g style="fill:#848484; fill-opacity:0.0; 
stroke:#848484; stroke-width:39.3701; stroke-opacity:1; 
stroke-linecap:round; stroke-linejoin:round;">
<path d="M50232 55310
L50513 55310
L50569 55329
L50606 55367
L50625 55423
L50625 55460
" />
<path d="M50269 55142
L50250 55123
L50232 55085
L50232 54992
L50250 54954
L50269 54935
L50307 54917
L50344 54917
L50400 54935
L50625 55160
L50625 54917
" />
</g>
<g style="fill:#848484; fill-opacity:0.0; 
stroke:#848484; stroke-width:59.0551; stroke-opacity:1; 
stroke-linecap:round; stroke-linejoin:round;">
<path d="M49143 31028
L49425 31028
L49481 31047
L49518 31085
L49537 31141
L49537 31178
" />
<path d="M49143 30878
L49143 30635
L49293 30766
L49293 30710
L49312 30672
L49331 30653
L49368 30635
L49462 30635
L49500 30653
L49518 30672
L49537 30710
L49537 30822
L49518 30860
L49500 30878
" />
<path d="M53784 45681
L54065 45681
L54121 45699
L54159 45737
L54178 45793
L54178 45831
" />
<path d="M53784 45306
L53784 45493
L53971 45512
L53953 45493
L53934 45456
L53934 45362
L53953 45325
L53971 45306
L54009 45287
L54103 45287
L54140 45306
L54159 45325
L54178 45362
L54178 45456
L54159 45493
L54140 45512
" />
<path d="M45284 28881
L45565 28881
L45621 28899
L45659 28937
L45678 28993
L45678 29031
" />
<path d="M45284 28731
L45284 28468
L45678 28637
" />
</g>
<g style="fill:#848484; fill-opacity:0.0; 
stroke:#848484; stroke-width:31.4961; stroke-opacity:1; 
stroke-linecap:round; stroke-linejoin:round;">
<path d="M52289 35632
L52195 35698
" />
<path d="M52289 35745
L52092 35745
L52092 35670
L52101 35651
L52110 35642
L52129 35632
L52157 35632
L52176 35642
L52185 35651
L52195 35670
L52195 35745
" />
<path d="M52289 35445
L52289 35557
" />
<path d="M52289 35501
L52092 35501
L52120 35520
L52139 35539
L52148 35557
" />
</g>
<g style="fill:#848484; fill-opacity:0.0; 
stroke:#848484; stroke-width:59.0551; stroke-opacity:1; 
stroke-linecap:round; stroke-linejoin:round;">
<path d="M52420 26270
L52420 26461
L52431 26484
L52442 26495
L52465 26506
L52510 26506
L52532 26495
L52543 26484
L52555 26461
L52555 26270
" />
<path d="M52791 26506
L52656 26506
" />
<path d="M52723 26506
L52723 26270
L52701 26304
L52678 26326
L52656 26338
" />
<path d="M50219 35314
L50219 35633
L50238 35670
L50257 35689
L50294 35708
L50369 35708
L50407 35689
L50425 35670
L50444 35633
L50444 35314
" />
<path d="M50613 35352
L50632 35333
L50669 35314
L50763 35314
L50800 35333
L50819 35352
L50838 35389
L50838 35427
L50819 35483
L50594 35708
L50838 35708
" />
<path d="M48018 24584
L48018 24865
L48000 24921
L47962 24959
L47906 24978
L47868 24978
" />
<path d="M48374 24715
L48374 24978
" />
<path d="M48281 24565
L48187 24846
L48431 24846
" />
<path d="M54184 36181
L54465 36181
L54521 36199
L54559 36237
L54578 36293
L54578 36331
" />
<path d="M54184 35825
L54184 35900
L54203 35937
L54221 35956
L54278 35993
L54353 36012
L54503 36012
L54540 35993
L54559 35975
L54578 35937
L54578 35862
L54559 35825
L54540 35806
L54503 35787
L54409 35787
L54371 35806
L54353 35825
L54334 35862
L54334 35937
L54353 35975
L54371 35993
L54409 36012
" />
<path d="M54784 28881
L55065 28881
L55121 28899
L55159 28937
L55178 28993
L55178 29031
" />
<path d="M54953 28637
L54934 28675
L54915 28693
L54878 28712
L54859 28712
L54821 28693
L54803 28675
L54784 28637
L54784 28562
L54803 28525
L54821 28506
L54859 28487
L54878 28487
L54915 28506
L54934 28525
L54953 28562
L54953 28637
L54971 28675
L54990 28693
L55028 28712
L55103 28712
L55140 28693
L55159 28675
L55178 28637
L55178 28562
L55159 28525
L55140 28506
L55103 28487
L55028 28487
L54990 28506
L54971 28525
L54953 28562
" />
<path d="M47734 42781
L48015 42781
L48071 42799
L48109 42837
L48128 42893
L48128 42931
" />
<path d="M48128 42575
L48128 42500
L48109 42462
L48090 42443
L48034 42406
L47959 42387
L47809 42387
L47771 42406
L47753 42425
L47734 42462
L47734 42537
L47753 42575
L47771 42593
L47809 42612
L47903 42612
L47940 42593
L47959 42575
L47978 42537
L47978 42462
L47959 42425
L47940 42406
L47903 42387
" />
<path d="M51784 42968
L52065 42968
L52121 42987
L52159 43024
L52178 43081
L52178 43118
" />
<path d="M52178 42575
L52178 42799
" />
<path d="M52178 42687
L51784 42687
L51840 42724
L51878 42762
L51896 42799
" />
<path d="M51784 42331
L51784 42293
L51803 42256
L51821 42237
L51859 42218
L51934 42200
L52028 42200
L52103 42218
L52140 42237
L52159 42256
L52178 42293
L52178 42331
L52159 42368
L52140 42387
L52103 42406
L52028 42425
L51934 42425
L51859 42406
L51821 42387
L51803 42368
L51784 42331
" />
</g>
<g style="fill:#848484; fill-opacity:0.0; 
stroke:#848484; stroke-width:29.5276; stroke-opacity:1; 
stroke-linecap:round; stroke-linejoin:round;">
<path d="M54181 42107
L54162 42098
L54143 42079
L54115 42051
L54096 42042
L54078 42042
" />
<path d="M54087 42089
L54068 42079
L54050 42060
L54040 42023
L54040 41957
L54050 41920
L54068 41901
L54087 41892
L54125 41892
L54143 41901
L54162 41920
L54171 41957
L54171 42023
L54162 42060
L54143 42079
L54125 42089
L54087 42089
" />
<path d="M54359 42089
L54246 42089
" />
<path d="M54303 42089
L54303 41892
L54284 41920
L54265 41939
L54246 41948
" />
</g>
<g style="fill:#848484; fill-opacity:0.0; 
stroke:#848484; stroke-width:15.748; stroke-opacity:1; 
stroke-linecap:round; stroke-linejoin:round;">
<path d="M50735 37216
L50739 37221
L50744 37235
L50744 37244
L50739 37258
L50730 37267
L50721 37272
L50702 37277
L50688 37277
L50669 37272
L50660 37267
L50650 37258
L50646 37244
L50646 37235
L50650 37221
L50655 37216
" />
<path d="M50744 37122
L50744 37178
" />
<path d="M50744 37150
L50646 37150
L50660 37160
L50669 37169
L50674 37178
" />
<path d="M51135 37216
L51139 37221
L51144 37235
L51144 37244
L51139 37258
L51130 37267
L51121 37272
L51102 37277
L51088 37277
L51069 37272
L51060 37267
L51050 37258
L51046 37244
L51046 37235
L51050 37221
L51055 37216
" />
<path d="M51055 37178
L51050 37174
L51046 37164
L51046 37141
L51050 37132
L51055 37127
L51064 37122
L51074 37122
L51088 37127
L51144 37183
L51144 37122
" />
</g>
<g style="fill:#848484; fill-opacity:0.0; 
stroke:#848484; stroke-width:23.622; stroke-opacity:1; 
stroke-linecap:round; stroke-linejoin:round;">
<path d="M48465 30973
L48473 30981
L48480 31003
L48480 31018
L48473 31041
L48458 31056
L48443 31063
L48413 31071
L48390 31071
L48360 31063
L48345 31056
L48330 31041
L48323 31018
L48323 31003
L48330 30981
L48338 30973
" />
<path d="M48323 30921
L48323 30823
L48383 30876
L48383 30853
L48390 30838
L48398 30831
L48413 30823
L48450 30823
L48465 30831
L48473 30838
L48480 30853
L48480 30898
L48473 30913
L48465 30921
" />
</g>
<g style="fill:#848484; fill-opacity:0.0; 
stroke:#848484; stroke-width:15.748; stroke-opacity:1; 
stroke-linecap:round; stroke-linejoin:round;">
<path d="M46892 25735
L46887 25739
L46873 25744
L46864 25744
L46850 25739
L46841 25730
L46836 25721
L46831 25702
L46831 25688
L46836 25669
L46841 25660
L46850 25650
L46864 25646
L46873 25646
L46887 25650
L46892 25655
" />
<path d="M46981 25646
L46934 25646
L46930 25692
L46934 25688
L46944 25683
L46967 25683
L46977 25688
L46981 25692
L46986 25702
L46986 25725
L46981 25735
L46977 25739
L46967 25744
L46944 25744
L46934 25739
L46930 25735
" />
<path d="M46892 26135
L46887 26139
L46873 26144
L46864 26144
L46850 26139
L46841 26130
L46836 26121
L46831 26102
L46831 26088
L46836 26069
L46841 26060
L46850 26050
L46864 26046
L46873 26046
L46887 26050
L46892 26055
" />
<path d="M46977 26046
L46958 26046
L46948 26050
L46944 26055
L46934 26069
L46930 26088
L46930 26125
L46934 26135
L46939 26139
L46948 26144
L46967 26144
L46977 26139
L46981 26135
L46986 26125
L46986 26102
L46981 26092
L46977 26088
L46967 26083
L46948 26083
L46939 26088
L46934 26092
L46930 26102
" />
<path d="M45924 43694
L45891 43647
" />
<path d="M45868 43694
L45868 43596
L45905 43596
L45915 43600
L45919 43605
L45924 43614
L45924 43628
L45919 43638
L45915 43642
L45905 43647
L45868 43647
" />
<path d="M45957 43596
L46022 43596
L45980 43694
" />
<path d="M45942 44694
L45909 44647
" />
<path d="M45886 44694
L45886 44596
L45923 44596
L45933 44600
L45937 44605
L45942 44614
L45942 44628
L45937 44638
L45933 44642
L45923 44647
L45886 44647
" />
<path d="M45998 44638
L45989 44633
L45984 44628
L45980 44619
L45980 44614
L45984 44605
L45989 44600
L45998 44596
L46017 44596
L46027 44600
L46031 44605
L46036 44614
L46036 44619
L46031 44628
L46027 44633
L46017 44638
L45998 44638
L45989 44642
L45984 44647
L45980 44657
L45980 44675
L45984 44685
L45989 44689
L45998 44694
L46017 44694
L46027 44689
L46031 44685
L46036 44675
L46036 44657
L46031 44647
L46027 44642
L46017 44638
" />
<path d="M45942 46644
L45909 46597
" />
<path d="M45886 46644
L45886 46546
L45923 46546
L45933 46550
L45937 46555
L45942 46564
L45942 46578
L45937 46588
L45933 46592
L45923 46597
L45886 46597
" />
<path d="M45989 46644
L46008 46644
L46017 46639
L46022 46635
L46031 46621
L46036 46602
L46036 46564
L46031 46555
L46027 46550
L46017 46546
L45998 46546
L45989 46550
L45984 46555
L45980 46564
L45980 46588
L45984 46597
L45989 46602
L45998 46607
L46017 46607
L46027 46602
L46031 46597
L46036 46588
" />
<path d="M54536 34394
L54503 34347
" />
<path d="M54480 34394
L54480 34296
L54517 34296
L54527 34300
L54532 34305
L54536 34314
L54536 34328
L54532 34338
L54527 34342
L54517 34347
L54480 34347
" />
<path d="M54630 34394
L54574 34394
" />
<path d="M54602 34394
L54602 34296
L54592 34310
L54583 34319
L54574 34324
" />
<path d="M54691 34296
L54700 34296
L54710 34300
L54714 34305
L54719 34314
L54724 34333
L54724 34357
L54719 34375
L54714 34385
L54710 34389
L54700 34394
L54691 34394
L54682 34389
L54677 34385
L54672 34375
L54667 34357
L54667 34333
L54672 34314
L54677 34305
L54682 34300
L54691 34296
" />
<path d="M54527 33444
L54494 33397
" />
<path d="M54471 33444
L54471 33346
L54508 33346
L54518 33350
L54522 33355
L54527 33364
L54527 33378
L54522 33388
L54518 33392
L54508 33397
L54471 33397
" />
<path d="M54621 33444
L54565 33444
" />
<path d="M54593 33444
L54593 33346
L54583 33360
L54574 33369
L54565 33374
" />
<path d="M54658 33355
L54663 33350
L54672 33346
L54696 33346
L54705 33350
L54710 33355
L54715 33364
L54715 33374
L54710 33388
L54654 33444
L54715 33444
" />
<path d="M54545 34794
L54512 34747
" />
<path d="M54489 34794
L54489 34696
L54527 34696
L54536 34700
L54541 34705
L54545 34714
L54545 34728
L54541 34738
L54536 34742
L54527 34747
L54489 34747
" />
<path d="M54639 34794
L54583 34794
" />
<path d="M54611 34794
L54611 34696
L54602 34710
L54592 34719
L54583 34724
" />
<path d="M54672 34696
L54733 34696
L54700 34733
L54714 34733
L54723 34738
L54728 34742
L54733 34752
L54733 34775
L54728 34785
L54723 34789
L54714 34794
L54686 34794
L54677 34789
L54672 34785
" />
<path d="M54536 37544
L54503 37497
" />
<path d="M54480 37544
L54480 37446
L54517 37446
L54527 37450
L54532 37455
L54536 37464
L54536 37478
L54532 37488
L54527 37492
L54517 37497
L54480 37497
" />
<path d="M54630 37544
L54574 37544
" />
<path d="M54602 37544
L54602 37446
L54592 37460
L54583 37469
L54574 37474
" />
<path d="M54714 37478
L54714 37544
" />
<path d="M54691 37441
L54667 37511
L54728 37511
" />
<path d="M54844 46254
L54797 46287
" />
<path d="M54844 46310
L54746 46310
L54746 46272
L54750 46263
L54755 46258
L54764 46254
L54778 46254
L54788 46258
L54792 46263
L54797 46272
L54797 46310
" />
<path d="M54844 46160
L54844 46216
" />
<path d="M54844 46188
L54746 46188
L54760 46197
L54769 46207
L54774 46216
" />
<path d="M54746 46076
L54746 46094
L54750 46104
L54755 46108
L54769 46118
L54788 46122
L54825 46122
L54835 46118
L54839 46113
L54844 46104
L54844 46085
L54839 46076
L54835 46071
L54825 46066
L54802 46066
L54792 46071
L54788 46076
L54783 46085
L54783 46104
L54788 46113
L54792 46118
L54802 46122
" />
<path d="M46360 54518
L46327 54471
" />
<path d="M46304 54518
L46304 54419
L46341 54419
L46351 54424
L46356 54428
L46360 54438
L46360 54452
L46356 54461
L46351 54466
L46341 54471
L46304 54471
" />
<path d="M46398 54428
L46402 54424
L46412 54419
L46435 54419
L46445 54424
L46449 54428
L46454 54438
L46454 54447
L46449 54461
L46393 54518
L46454 54518
" />
<path d="M46369 54918
L46336 54871
" />
<path d="M46313 54918
L46313 54819
L46351 54819
L46360 54824
L46365 54828
L46369 54838
L46369 54852
L46365 54861
L46360 54866
L46351 54871
L46313 54871
" />
<path d="M46402 54819
L46463 54819
L46430 54857
L46444 54857
L46454 54861
L46458 54866
L46463 54875
L46463 54899
L46458 54908
L46454 54913
L46444 54918
L46416 54918
L46407 54913
L46402 54908
" />
<path d="M46369 57118
L46336 57071
" />
<path d="M46313 57118
L46313 57019
L46351 57019
L46360 57024
L46365 57028
L46369 57038
L46369 57052
L46365 57061
L46360 57066
L46351 57071
L46313 57071
" />
<path d="M46454 57052
L46454 57118
" />
<path d="M46430 57014
L46407 57085
L46468 57085
" />
<path d="M46369 56718
L46336 56671
" />
<path d="M46313 56718
L46313 56619
L46351 56619
L46360 56624
L46365 56628
L46369 56638
L46369 56652
L46365 56661
L46360 56666
L46351 56671
L46313 56671
" />
<path d="M46458 56619
L46411 56619
L46407 56666
L46411 56661
L46421 56657
L46444 56657
L46454 56661
L46458 56666
L46463 56675
L46463 56699
L46458 56708
L46454 56713
L46444 56718
L46421 56718
L46411 56713
L46407 56708
" />
<path d="M46360 54118
L46327 54071
" />
<path d="M46304 54118
L46304 54019
L46341 54019
L46351 54024
L46356 54028
L46360 54038
L46360 54052
L46356 54061
L46351 54066
L46341 54071
L46304 54071
" />
<path d="M46445 54019
L46426 54019
L46416 54024
L46412 54028
L46402 54043
L46398 54061
L46398 54099
L46402 54108
L46407 54113
L46416 54118
L46435 54118
L46445 54113
L46449 54108
L46454 54099
L46454 54075
L46449 54066
L46445 54061
L46435 54057
L46416 54057
L46407 54061
L46402 54066
L46398 54075
" />
<path d="M54844 44963
L54797 44996
" />
<path d="M54844 45019
L54746 45019
L54746 44982
L54750 44972
L54755 44967
L54764 44963
L54778 44963
L54788 44967
L54792 44972
L54797 44982
L54797 45019
" />
<path d="M54844 44869
L54844 44925
" />
<path d="M54844 44897
L54746 44897
L54760 44907
L54769 44916
L54774 44925
" />
<path d="M54746 44780
L54746 44827
L54792 44832
L54788 44827
L54783 44817
L54783 44794
L54788 44785
L54792 44780
L54802 44775
L54825 44775
L54835 44780
L54839 44785
L54844 44794
L54844 44817
L54839 44827
L54835 44832
" />
<path d="M54536 37944
L54503 37897
" />
<path d="M54480 37944
L54480 37846
L54517 37846
L54527 37850
L54532 37855
L54536 37864
L54536 37878
L54532 37888
L54527 37892
L54517 37897
L54480 37897
" />
<path d="M54630 37944
L54574 37944
" />
<path d="M54602 37944
L54602 37846
L54592 37860
L54583 37869
L54574 37874
" />
<path d="M54724 37944
L54667 37944
" />
<path d="M54696 37944
L54696 37846
L54686 37860
L54677 37869
L54667 37874
" />
<path d="M53983 42985
L53978 42989
L53964 42994
L53955 42994
L53941 42989
L53932 42980
L53927 42971
L53922 42952
L53922 42938
L53927 42919
L53932 42910
L53941 42900
L53955 42896
L53964 42896
L53978 42900
L53983 42905
" />
<path d="M54067 42928
L54067 42994
" />
<path d="M54044 42891
L54021 42961
L54082 42961
" />
</g>
<g style="fill:#848484; fill-opacity:0.0; 
stroke:#848484; stroke-width:23.622; stroke-opacity:1; 
stroke-linecap:round; stroke-linejoin:round;">
<path d="M49671 50916
L49513 50916
L49513 50878
L49521 50856
L49536 50841
L49551 50833
L49581 50826
L49603 50826
L49633 50833
L49648 50841
L49663 50856
L49671 50878
L49671 50916
" />
<path d="M49671 50676
L49671 50766
" />
<path d="M49671 50721
L49513 50721
L49536 50736
L49551 50751
L49558 50766
" />
<path d="M48071 50926
L47913 50926
L47913 50888
L47921 50866
L47936 50851
L47951 50843
L47981 50836
L48003 50836
L48033 50843
L48048 50851
L48063 50866
L48071 50888
L48071 50926
" />
<path d="M47928 50776
L47921 50768
L47913 50753
L47913 50716
L47921 50701
L47928 50693
L47943 50686
L47958 50686
L47981 50693
L48071 50783
L48071 50686
" />
</g>
<g style="fill:#848484; fill-opacity:0.0; 
stroke:#848484; stroke-width:59.0551; stroke-opacity:1; 
stroke-linecap:round; stroke-linejoin:round;">
<path d="M47734 44818
L48015 44818
L48071 44837
L48109 44874
L48128 44931
L48128 44968
" />
<path d="M48128 44425
L48128 44649
" />
<path d="M48128 44537
L47734 44537
L47790 44574
L47828 44612
L47846 44649
" />
<path d="M48128 44050
L48128 44275
" />
<path d="M48128 44162
L47734 44162
L47790 44200
L47828 44237
L47846 44275
" />
<path d="M49544 50588
L49319 50588
" />
<path d="M49431 50588
L49431 50195
L49394 50251
L49356 50288
L49319 50307
" />
<path d="M49712 50588
L49712 50195
" />
<path d="M49750 50438
L49862 50588
" />
<path d="M49862 50326
L49712 50476
" />
</g>
<g style="fill:#848484; fill-opacity:0.0; 
stroke:#848484; stroke-width:15.748; stroke-opacity:1; 
stroke-linecap:round; stroke-linejoin:round;">
<path d="M49527 49994
L49494 49947
" />
<path d="M49471 49994
L49471 49896
L49508 49896
L49518 49900
L49522 49905
L49527 49914
L49527 49928
L49522 49938
L49518 49942
L49508 49947
L49471 49947
" />
<path d="M49621 49994
L49565 49994
" />
<path d="M49593 49994
L49593 49896
L49583 49910
L49574 49919
L49565 49924
" />
<path d="M49654 49896
L49719 49896
L49677 49994
" />
</g>
<g style="fill:#848484; fill-opacity:0.0; 
stroke:#848484; stroke-width:59.0551; stroke-opacity:1; 
stroke-linecap:round; stroke-linejoin:round;">
<path d="M47962 50588
L47737 50588
" />
<path d="M47849 50588
L47849 50195
L47812 50251
L47774 50288
L47737 50307
" />
<path d="M48130 50588
L48130 50195
" />
<path d="M48168 50438
L48280 50588
" />
<path d="M48280 50326
L48130 50476
" />
</g>
<g style="fill:#848484; fill-opacity:0.0; 
stroke:#848484; stroke-width:15.748; stroke-opacity:1; 
stroke-linecap:round; stroke-linejoin:round;">
<path d="M47945 49994
L47912 49947
" />
<path d="M47889 49994
L47889 49896
L47927 49896
L47936 49900
L47941 49905
L47945 49914
L47945 49928
L47941 49938
L47936 49942
L47927 49947
L47889 49947
" />
<path d="M48039 49994
L47983 49994
" />
<path d="M48011 49994
L48011 49896
L48002 49910
L47992 49919
L47983 49924
" />
<path d="M48095 49938
L48086 49933
L48081 49928
L48077 49919
L48077 49914
L48081 49905
L48086 49900
L48095 49896
L48114 49896
L48123 49900
L48128 49905
L48133 49914
L48133 49919
L48128 49928
L48123 49933
L48114 49938
L48095 49938
L48086 49942
L48081 49947
L48077 49957
L48077 49975
L48081 49985
L48086 49989
L48095 49994
L48114 49994
L48123 49989
L48128 49985
L48133 49975
L48133 49957
L48128 49947
L48123 49942
L48114 49938
" />
</g>
<g style="fill:#848484; fill-opacity:0.0; 
stroke:#848484; stroke-width:59.0551; stroke-opacity:1; 
stroke-linecap:round; stroke-linejoin:round;">
<path d="M47912 46188
L47687 46188
" />
<path d="M47799 46188
L47799 45795
L47762 45851
L47724 45888
L47687 45907
" />
<path d="M48080 46188
L48080 45795
" />
<path d="M48118 46038
L48230 46188
" />
<path d="M48230 45926
L48080 46076
" />
</g>
<g style="fill:#848484; fill-opacity:0.0; 
stroke:#848484; stroke-width:15.748; stroke-opacity:1; 
stroke-linecap:round; stroke-linejoin:round;">
<path d="M47895 45594
L47862 45547
" />
<path d="M47839 45594
L47839 45496
L47877 45496
L47886 45500
L47891 45505
L47895 45514
L47895 45528
L47891 45538
L47886 45542
L47877 45547
L47839 45547
" />
<path d="M47989 45594
L47933 45594
" />
<path d="M47961 45594
L47961 45496
L47952 45510
L47942 45519
L47933 45524
" />
<path d="M48036 45594
L48055 45594
L48064 45589
L48069 45585
L48078 45571
L48083 45552
L48083 45514
L48078 45505
L48073 45500
L48064 45496
L48045 45496
L48036 45500
L48031 45505
L48027 45514
L48027 45538
L48031 45547
L48036 45552
L48045 45557
L48064 45557
L48073 45552
L48078 45547
L48083 45538
" />
</g>
<g style="fill:#000000; fill-opacity:0.0; 
stroke:#000000; stroke-width:15.748; stroke-opacity:1; 
stroke-linecap:round; stroke-linejoin:round;">
</g>
<g style="fill:#C2C200; fill-opacity:0.0; 
stroke:#C2C200; stroke-width:15.748; stroke-opacity:1; 
stroke-linecap:round; stroke-linejoin:round;">
</g>
<g style="fill:#C2C200; fill-opacity:0.0; 
stroke:#C2C200; stroke-width:59.0551; stroke-opacity:1; 
stroke-linecap:round; stroke-linejoin:round;">
<path d="M44500 58850 A900 900 0.0 0 0 45400 59750 " />
<path d="M55100 59750 A900 900 0.0 0 0 55998.6 58800.1 " />
<path d="M56000 24600 A900 900 0.0 0 0 55100 23700 " />
<path d="M45400 23700 A900 900 0.0 0 0 44500 24600 " />
<path d="M44500 58850
L44500 24600
" />
<path d="M55100 59750
L45400 59750
" />
<path d="M56000 24600
L55998 58800
" />
<path d="M45400 23700
L55100 23700
" />
</g> 
</svg>
